<svg xmlns="http://www.w3.org/2000/svg" viewBox="0 0 282.71 70.26"><defs><style>.cls-1{opacity:0.06;}.cls-2{fill:#fff;}</style></defs><g id="レイヤー_2" data-name="レイヤー 2"><g id="TOP"><g class="cls-1"><path class="cls-2" d="M0,35.72A33.39,33.39,0,0,1,3.52,20.5,35.56,35.56,0,0,1,13.77,8.26,39.61,39.61,0,0,1,24.61,2.32,34.7,34.7,0,0,1,36.33.24a33.89,33.89,0,0,1,14.55,3.3,37.2,37.2,0,0,1,12.3,9.31,32.75,32.75,0,0,1,8.6,22.23,33.14,33.14,0,0,1-2.25,12.07A34.47,34.47,0,0,1,63,57.76,36.91,36.91,0,0,1,50.51,67a36.32,36.32,0,0,1-29.9.1,35.56,35.56,0,0,1-12.21-9A32.69,32.69,0,0,1,2.17,47.76,33.94,33.94,0,0,1,0,35.72Zm11.82.73q0,14.17,7.71,23.9a23,23,0,0,0,7.35,6.32,19.45,19.45,0,0,0,9,2,19.82,19.82,0,0,0,9-2,23,23,0,0,0,7.4-6.35Q60,50.57,60,36.26a51.22,51.22,0,0,0-2.12-14.88,35.76,35.76,0,0,0-6-11.9,19.78,19.78,0,0,0-7-5.84,20.87,20.87,0,0,0-9.06-1.83,20.67,20.67,0,0,0-9,1.8,20.28,20.28,0,0,0-7,5.87,34.73,34.73,0,0,0-6,11.87A52.58,52.58,0,0,0,11.82,36.45Z"/><path class="cls-2" d="M94.15,26.37a23.06,23.06,0,0,1,.68,5.3v.78a19.66,19.66,0,0,1,14.41-6.08q6.24,0,10.06,2.92a9.73,9.73,0,0,1,3.76,8.2V58.17a21.67,21.67,0,0,0,.39,4.85A5.06,5.06,0,0,0,125,65.58c.91.88,2.59,1.54,5,2v1H108.41v-1a12.74,12.74,0,0,0,4.2-1.1,5,5,0,0,0,2-2.41,10.67,10.67,0,0,0,.76-3.39q.21-2.26.21-6.51V43.83a60.11,60.11,0,0,0-.36-7.8,9.56,9.56,0,0,0-1.39-4,7.38,7.38,0,0,0-3.21-2.66,11.14,11.14,0,0,0-4.63-.95A12.22,12.22,0,0,0,101,29.49a9.26,9.26,0,0,0-3.73,2.93,10.42,10.42,0,0,0-1.92,4.41A49.52,49.52,0,0,0,94.83,45v9.56l0,3.61A21.61,21.61,0,0,0,95.27,63a5.08,5.08,0,0,0,1.52,2.56c.91.88,2.59,1.54,5,2v1H80.23v-1a12.64,12.64,0,0,0,4.2-1.09,5,5,0,0,0,2-2.41,10.53,10.53,0,0,0,.76-3.38q.23-2.25.22-6.53v-12a68.84,68.84,0,0,0-.24-7,7.6,7.6,0,0,0-1.08-3.28,5.16,5.16,0,0,0-2-2,8.9,8.9,0,0,0-3.37-.75v-1Z"/><path class="cls-2" d="M135.32,1.76,149.38,0V54.45l.05,3.71a21.77,21.77,0,0,0,.39,4.86,5.08,5.08,0,0,0,1.52,2.56c.91.88,2.59,1.54,5,2v1H134.79v-1a12.59,12.59,0,0,0,4.19-1.1A5,5,0,0,0,141,64.07a10.71,10.71,0,0,0,.75-3.39q.22-2.26.22-6.56V15.85a69.38,69.38,0,0,0-.24-7,7.69,7.69,0,0,0-1.08-3.32,5,5,0,0,0-2-1.95,9.15,9.15,0,0,0-3.37-.73Z"/><path class="cls-2" d="M162,28.12l14.06-1.75V54.49l.05,3.7a21.57,21.57,0,0,0,.39,4.84,5,5,0,0,0,1.52,2.55c.91.88,2.58,1.54,5,2v1H161.5v-1a12.64,12.64,0,0,0,4.2-1.09,5,5,0,0,0,2.05-2.41,10.53,10.53,0,0,0,.76-3.38q.23-2.25.22-6.53v-12a68.84,68.84,0,0,0-.24-7,7.6,7.6,0,0,0-1.08-3.28,5.16,5.16,0,0,0-2-2,8.9,8.9,0,0,0-3.37-.75ZM172.22,8.84a4.38,4.38,0,0,1-3.17-1.22,4.15,4.15,0,0,1-1.25-3.08,4.11,4.11,0,0,1,1.28-3,4.57,4.57,0,0,1,6.28,0,4.11,4.11,0,0,1,1.28,3.05,4.15,4.15,0,0,1-1.25,3.08A4.38,4.38,0,0,1,172.22,8.84Z"/><path class="cls-2" d="M202.13,26.37a22.57,22.57,0,0,1,.69,5.3v.78a19.66,19.66,0,0,1,14.41-6.08q6.24,0,10.06,2.92a9.72,9.72,0,0,1,3.75,8.2V58.17a21,21,0,0,0,.4,4.85A5.06,5.06,0,0,0,233,65.58c.91.88,2.59,1.54,5,2v1H216.4v-1a12.74,12.74,0,0,0,4.2-1.1,5,5,0,0,0,2.05-2.41,10.71,10.71,0,0,0,.75-3.39q.22-2.26.22-6.51V43.83a60.11,60.11,0,0,0-.36-7.8,9.7,9.7,0,0,0-1.39-4,7.35,7.35,0,0,0-3.22-2.66,11.06,11.06,0,0,0-4.62-.95,12.22,12.22,0,0,0-5.09,1.07,9.26,9.26,0,0,0-3.73,2.93,10.44,10.44,0,0,0-1.93,4.41,51,51,0,0,0-.46,8.17v9.56l.05,3.61a21.61,21.61,0,0,0,.39,4.85,5.08,5.08,0,0,0,1.52,2.56c.91.88,2.58,1.54,5,2v1H188.22v-1a12.64,12.64,0,0,0,4.2-1.09,5,5,0,0,0,2.05-2.41,10.53,10.53,0,0,0,.76-3.38q.22-2.25.22-6.53v-12a68.84,68.84,0,0,0-.24-7,7.74,7.74,0,0,0-1.08-3.28,5.16,5.16,0,0,0-2-2,9,9,0,0,0-3.37-.75v-1Z"/><path class="cls-2" d="M253.12,42c-.13,1.6-.19,2.75-.19,3.47a28.1,28.1,0,0,0,1.24,8.3,20.19,20.19,0,0,0,3.38,6.74,15.86,15.86,0,0,0,12.22,5.86,14.26,14.26,0,0,0,5-.88,10.76,10.76,0,0,0,3.92-2.44,13.73,13.73,0,0,0,3-5.47l1,.34a13.6,13.6,0,0,1-5.44,8.62q-4.17,2.9-11.11,2.9a25.29,25.29,0,0,1-10.3-1.9,18.28,18.28,0,0,1-7.28-5.86,22,22,0,0,1-4.15-13.58q0-11,7.86-17.23a20.38,20.38,0,0,1,13-4.54,18.49,18.49,0,0,1,7.23,1.39A14.76,14.76,0,0,1,281.74,42Zm21.29-1.9a18.42,18.42,0,0,0-1.79-7.52,10.32,10.32,0,0,0-3.5-3.79,8.63,8.63,0,0,0-4.67-1.39,9.47,9.47,0,0,0-7.32,3.61,16.09,16.09,0,0,0-3.71,9.09Z"/></g></g></g></svg>