<svg xmlns="http://www.w3.org/2000/svg" viewBox="0 0 1079.46 111.58"><defs><style>.cls-1{opacity:0.6;}.cls-2{fill:#fff;}</style></defs><g id="レイヤー_2" data-name="レイヤー 2"><g id="TOP"><g class="cls-1"><path class="cls-2" d="M0,2.68H39.21V4.11q-5.49,0-7.48.81A6.2,6.2,0,0,0,29,7.36a7,7,0,0,0-1.06,3.8,19.92,19.92,0,0,0,2,7.23l1.62,3.86L50.93,69.63,64.45,28.8q2.63-7.86,2.62-11.72a15.54,15.54,0,0,0-1-5.58,12.15,12.15,0,0,0-2.71-4.39A9.35,9.35,0,0,0,59.62,4.8a17.29,17.29,0,0,0-5.33-.69V2.68H94.37V4.11A41.08,41.08,0,0,0,89,4.36,9,9,0,0,0,86,5.42a8.38,8.38,0,0,0-3,3.21,9.21,9.21,0,0,0-1.15,4.52,30.63,30.63,0,0,0,1.75,7.79L98.86,70.37,116,28.3q4-9.66,4-15,0-5.55-3.68-7.85c-1.49-.92-3.76-1.38-6.79-1.38V2.68h28.86V4.11a18.12,18.12,0,0,0-6.33,1.59,13.17,13.17,0,0,0-4.27,4.21q-3.12,4.37-7.79,15.77L94.37,87.76H91.82L69.63,21.38,47.12,87.76h-2.8L16.46,20.69l-1.87-4.55a48,48,0,0,0-3.25-6.67A10.34,10.34,0,0,0,8.17,6.23,10.4,10.4,0,0,0,4.92,4.8,32,32,0,0,0,0,4.11Z"/><path class="cls-2" d="M154.35,53.86c-.17,2-.25,3.51-.25,4.42a36.2,36.2,0,0,0,1.58,10.6,25.79,25.79,0,0,0,4.32,8.6A20.12,20.12,0,0,0,175.59,85,18.05,18.05,0,0,0,182,83.84a13.65,13.65,0,0,0,5-3.12,17.42,17.42,0,0,0,3.85-7l1.31.44a17.34,17.34,0,0,1-7,11q-5.32,3.7-14.18,3.71a32.33,32.33,0,0,1-13.15-2.43A23.43,23.43,0,0,1,148.55,79q-5.3-7-5.3-17.33,0-14,10-22a26,26,0,0,1,16.64-5.79,23.72,23.72,0,0,1,9.23,1.77,18.83,18.83,0,0,1,11.72,18.24Zm27.18-2.44q-.43-6.22-2.3-9.59A13.12,13.12,0,0,0,174.76,37a10.91,10.91,0,0,0-5.95-1.77,12.06,12.06,0,0,0-9.34,4.61,20.55,20.55,0,0,0-4.75,11.59Z"/><path class="cls-2" d="M290.32,81.72l1.06.62q-2.24,6.55-10.28,6.55a12,12,0,0,1-7.37-2.18,16.49,16.49,0,0,1-4-5,41.73,41.73,0,0,1-6.31,4.92A19.15,19.15,0,0,1,254,88.89c-4.57,0-8.21-1.1-10.89-3.31a10.93,10.93,0,0,1-4-8.91A12.07,12.07,0,0,1,242.39,68a14.63,14.63,0,0,1,4.3-3.09,41.12,41.12,0,0,1,7-2.34q5.43-1.36,8-2.3A16.71,16.71,0,0,0,266.07,58a7.53,7.53,0,0,0,2.75-3.36,15.35,15.35,0,0,0,.74-5.36q0-7.31-2.74-10.66a9,9,0,0,0-3.21-2.5,9.43,9.43,0,0,0-4.08-.93A8,8,0,0,0,252,40.14l-1.56,3.62a4.5,4.5,0,0,1-4.49,2.93,4.86,4.86,0,0,1-3.55-1.41A4.69,4.69,0,0,1,241,41.76c0-2.12,1.5-3.9,4.5-5.36a27.26,27.26,0,0,1,6-1.84,36.53,36.53,0,0,1,7-.71,34.93,34.93,0,0,1,8.05,1,28,28,0,0,1,7,2.56,9.89,9.89,0,0,1,5.05,6,27.12,27.12,0,0,1,.5,6.3V72.74a41.61,41.61,0,0,0,.5,8q1.06,4.43,5.11,4.43a5.6,5.6,0,0,0,3-.69A10.82,10.82,0,0,0,290.32,81.72ZM269.69,57.16a41.67,41.67,0,0,1-7.39,4.92A64.11,64.11,0,0,0,256,65.76a16.55,16.55,0,0,0-3.17,3,13,13,0,0,0-2.92,8.42A10.15,10.15,0,0,0,252.2,84,7.2,7.2,0,0,0,258,86.64a9.77,9.77,0,0,0,5.74-1.9,11.75,11.75,0,0,0,4.07-5.08q1.94-4.17,1.93-12.09Z"/><path class="cls-2" d="M312.46,43.44a18.16,18.16,0,0,1,5.05-5.92,19.85,19.85,0,0,1,11.78-3.67q4.05,0,6.17,1.8a5,5,0,0,1,1.94,4,3.81,3.81,0,0,1-1.16,2.86,4.06,4.06,0,0,1-3,1.13,4.81,4.81,0,0,1-3.68-1.75l-1.93-2.11a7.24,7.24,0,0,0-5.42-2.43q-4.25,0-6.61,5.48t-2.37,15.25V69.71l.06,4.73a27.82,27.82,0,0,0,.5,6.2,6.51,6.51,0,0,0,1.94,3.26c1.16,1.12,3.3,2,6.42,2.56v1.3H294.64v-1.3a16.25,16.25,0,0,0,5.36-1.4A6.35,6.35,0,0,0,302.61,82a13.44,13.44,0,0,0,1-4.31q.29-2.88.28-8.34V54a86,86,0,0,0-.31-9,9.81,9.81,0,0,0-1.37-4.19,6.67,6.67,0,0,0-2.56-2.51,11.08,11.08,0,0,0-4.3-1V36.09l16.07-2.24A52.48,52.48,0,0,1,312.46,43.44Z"/><path class="cls-2" d="M355.42,53.86c-.16,2-.25,3.51-.25,4.42a35.88,35.88,0,0,0,1.59,10.6,25.59,25.59,0,0,0,4.31,8.6A20.12,20.12,0,0,0,376.67,85,18,18,0,0,0,383,83.84a13.78,13.78,0,0,0,5-3.12,17.54,17.54,0,0,0,3.85-7l1.31.44a17.38,17.38,0,0,1-6.95,11q-5.34,3.7-14.18,3.71a32.35,32.35,0,0,1-13.16-2.43A23.4,23.4,0,0,1,349.63,79q-5.31-7-5.3-17.33,0-14,10-22A26,26,0,0,1,371,33.85a23.71,23.71,0,0,1,9.22,1.77A18.83,18.83,0,0,1,392,53.86Zm27.18-2.44q-.44-6.22-2.3-9.59A13,13,0,0,0,375.84,37a11,11,0,0,0-6-1.77,12.06,12.06,0,0,0-9.34,4.61,20.55,20.55,0,0,0-4.75,11.59Z"/><path class="cls-2" d="M457.11,82.53,457.18,94v4.29a27.79,27.79,0,0,0,.49,6.19,6.85,6.85,0,0,0,1.94,3.33q1.74,1.68,6.42,2.49v1.31H438.48v-1.31a17.18,17.18,0,0,0,5.36-1.37,6.21,6.21,0,0,0,2.61-3.05,13.67,13.67,0,0,0,1-4.36q.29-2.94.28-8.35v-43q0-7-2.21-10t-7.45-3V35.53L456.24,33a24.66,24.66,0,0,1,.69,5.49v1.18a35.85,35.85,0,0,1,8.65-4.45,27.51,27.51,0,0,1,8.77-1.34,24.3,24.3,0,0,1,16.19,5.67,24,24,0,0,1,6.53,9,30.2,30.2,0,0,1,2.3,12,32.52,32.52,0,0,1-2.45,12.65,24.89,24.89,0,0,1-7,9.66,25.16,25.16,0,0,1-16.86,6A21.51,21.51,0,0,1,465,87.52,32.94,32.94,0,0,1,457.11,82.53Zm0-20.7a82.84,82.84,0,0,0,.75,13,16.57,16.57,0,0,0,2.67,7,13.23,13.23,0,0,0,10.3,5.24q6.59,0,11.49-6.23A27.07,27.07,0,0,0,486.91,72a35,35,0,0,0,1.62-10.65A37,37,0,0,0,487,50.83,27.85,27.85,0,0,0,482.75,42q-4.65-6.36-11.36-6.36a12.89,12.89,0,0,0-10.86,6.05,19.46,19.46,0,0,0-2.67,7.45A81.43,81.43,0,0,0,457.11,61.83Z"/><path class="cls-2" d="M525.94,43.44a18.16,18.16,0,0,1,5-5.92,19.85,19.85,0,0,1,11.78-3.67q4.05,0,6.17,1.8a5,5,0,0,1,1.93,4,3.8,3.8,0,0,1-1.15,2.86,4.07,4.07,0,0,1-3,1.13,4.81,4.81,0,0,1-3.68-1.75l-1.93-2.11a7.25,7.25,0,0,0-5.42-2.43q-4.25,0-6.61,5.48t-2.37,15.25V69.71l.06,4.73a27.82,27.82,0,0,0,.5,6.2,6.5,6.5,0,0,0,1.93,3.26c1.17,1.12,3.31,2,6.43,2.56v1.3H508.11v-1.3a16.11,16.11,0,0,0,5.36-1.4A6.37,6.37,0,0,0,516.09,82a13.44,13.44,0,0,0,1-4.31q.29-2.88.28-8.34V54a89,89,0,0,0-.31-9,9.81,9.81,0,0,0-1.37-4.19,6.67,6.67,0,0,0-2.56-2.51,11.08,11.08,0,0,0-4.3-1V36.09l16.07-2.24A52.48,52.48,0,0,1,525.94,43.44Z"/><path class="cls-2" d="M557.81,61.46a25.49,25.49,0,0,1,7.48-18q9.09-9.6,21.75-9.6a28.74,28.74,0,0,1,21.69,9.6q7.49,8,7.48,18.07a25.68,25.68,0,0,1-7.1,17.77,30.24,30.24,0,0,1-44.2,0,27.29,27.29,0,0,1-5.27-8.35A25.53,25.53,0,0,1,557.81,61.46Zm11.34-.72q0,10.84,4.86,18.37,5.49,8.4,13.4,8.41A12.82,12.82,0,0,0,594,85.65a17.22,17.22,0,0,0,5.48-5.23,29.31,29.31,0,0,0,3.93-8.75,37.08,37.08,0,0,0,1.5-10.18,35.05,35.05,0,0,0-1.59-10.3A30.66,30.66,0,0,0,599,42.25q-5.12-7-12.53-7-7.05,0-12.16,7.41T569.15,60.74Z"/><path class="cls-2" d="M643.59,37.15V69.71l.06,4.73a27.82,27.82,0,0,0,.5,6.2,6.43,6.43,0,0,0,1.93,3.26c1.16,1.12,3.3,2,6.42,2.56v1.3H625v-1.3a16.43,16.43,0,0,0,5.36-1.4A6.47,6.47,0,0,0,632.93,82a13.44,13.44,0,0,0,1-4.32c.18-1.93.28-4.72.28-8.38V37.15h-9V34.78h9V19.57a21.8,21.8,0,0,1,1.41-8.66,15,15,0,0,1,5-5.86,25,25,0,0,1,8-3.71A36.22,36.22,0,0,1,658.55,0a15.61,15.61,0,0,1,7.79,1.68,5.06,5.06,0,0,1,2.93,4.49,4.29,4.29,0,0,1-1.22,3.12,4,4,0,0,1-3,1.24,4.87,4.87,0,0,1-2.93-.9,10,10,0,0,1-2.49-3A15.44,15.44,0,0,0,656.8,2.9a4.74,4.74,0,0,0-3-.91,10.76,10.76,0,0,0-4.49,1A8.5,8.5,0,0,0,646,5.49a10.46,10.46,0,0,0-1.81,4.58,50.87,50.87,0,0,0-.5,8.19V34.78h12.28v2.37Z"/><path class="cls-2" d="M677.07,53.86c-.16,2-.24,3.51-.24,4.42a35.87,35.87,0,0,0,1.58,10.6,25.42,25.42,0,0,0,4.32,8.6A20.08,20.08,0,0,0,698.32,85a18.05,18.05,0,0,0,6.37-1.12,13.82,13.82,0,0,0,5-3.12,17.54,17.54,0,0,0,3.85-7l1.31.44a17.38,17.38,0,0,1-7,11q-5.34,3.7-14.18,3.71a32.3,32.3,0,0,1-13.15-2.43A23.36,23.36,0,0,1,671.28,79q-5.29-7-5.3-17.33,0-14,10-22a26.06,26.06,0,0,1,16.65-5.79,23.67,23.67,0,0,1,9.22,1.77A18.83,18.83,0,0,1,713.6,53.86Zm27.18-2.44q-.43-6.22-2.29-9.59A13.12,13.12,0,0,0,697.49,37a10.94,10.94,0,0,0-6-1.77,12.06,12.06,0,0,0-9.34,4.61,20.47,20.47,0,0,0-4.74,11.59Z"/><path class="cls-2" d="M728.89,87.76V70.12h1a34.2,34.2,0,0,0,4.36,10.35q4.78,7.05,11.19,7a10.3,10.3,0,0,0,6.78-2.37,9.17,9.17,0,0,0,3.1-7.42,11,11,0,0,0-2.23-6.86A14.54,14.54,0,0,0,749.94,68a69,69,0,0,0-6.38-3.68q-7.83-4.19-10.44-7a13.11,13.11,0,0,1-3.74-9.23,13.76,13.76,0,0,1,3.74-9.66,14.85,14.85,0,0,1,11.41-4.61A15.44,15.44,0,0,1,750.45,35l2.12.93a5.13,5.13,0,0,0,1.75.38c.79,0,1.53-.63,2.24-1.87h1.25l.68,14.15h-1.31a27.7,27.7,0,0,0-1.46-4.8,13.57,13.57,0,0,0-2.2-3.49A14.37,14.37,0,0,0,749,36.56a10.77,10.77,0,0,0-5-1.34,8,8,0,0,0-5.94,2.52,8.59,8.59,0,0,0-2.45,6.2,8,8,0,0,0,2.21,5.52,20.09,20.09,0,0,0,6.8,4.52l6.6,3a21.8,21.8,0,0,1,8.83,6.67A15.49,15.49,0,0,1,763,73.05a14.81,14.81,0,0,1-4.24,10.85,16.62,16.62,0,0,1-12.46,5,23.31,23.31,0,0,1-8.36-1.62c-1.83-.71-2.93-1.11-3.3-1.22a5.64,5.64,0,0,0-1.43-.15,3.63,3.63,0,0,0-3.31,1.86Z"/><path class="cls-2" d="M777.21,87.76V70.12h1a34.2,34.2,0,0,0,4.36,10.35q4.79,7.05,11.19,7a10.3,10.3,0,0,0,6.78-2.37,9.17,9.17,0,0,0,3.1-7.42,11,11,0,0,0-2.23-6.86A14.54,14.54,0,0,0,798.26,68a69,69,0,0,0-6.38-3.68q-7.83-4.19-10.44-7a13.11,13.11,0,0,1-3.74-9.23,13.76,13.76,0,0,1,3.74-9.66,14.85,14.85,0,0,1,11.41-4.61A15.44,15.44,0,0,1,798.77,35l2.12.93a5.13,5.13,0,0,0,1.75.38c.79,0,1.53-.63,2.24-1.87h1.25l.68,14.15H805.5a27.7,27.7,0,0,0-1.46-4.8,13.57,13.57,0,0,0-2.2-3.49,14.37,14.37,0,0,0-4.48-3.71,10.77,10.77,0,0,0-5-1.34,8,8,0,0,0-5.94,2.52,8.59,8.59,0,0,0-2.45,6.2,8,8,0,0,0,2.21,5.52A20,20,0,0,0,793,54l6.59,3a21.8,21.8,0,0,1,8.83,6.67,15.49,15.49,0,0,1,2.92,9.41,14.81,14.81,0,0,1-4.24,10.85,16.62,16.62,0,0,1-12.46,5,23.31,23.31,0,0,1-8.36-1.62c-1.82-.71-2.93-1.11-3.3-1.22a5.64,5.64,0,0,0-1.43-.15,3.63,3.63,0,0,0-3.31,1.86Z"/><path class="cls-2" d="M821.91,36.09l18-2.24v35.9l.06,4.72a27.67,27.67,0,0,0,.5,6.18,6.51,6.51,0,0,0,1.94,3.26q1.74,1.68,6.42,2.55v1.3H821.22v-1.3a16.25,16.25,0,0,0,5.37-1.4A6.35,6.35,0,0,0,829.2,82a13.44,13.44,0,0,0,1-4.31q.29-2.88.28-8.34V54a86,86,0,0,0-.31-9,9.81,9.81,0,0,0-1.37-4.19,6.67,6.67,0,0,0-2.56-2.51,11.08,11.08,0,0,0-4.3-1Zm13-24.62a5.57,5.57,0,0,1-4-1.56A5.28,5.28,0,0,1,829.27,6a5.22,5.22,0,0,1,1.63-3.89,5.85,5.85,0,0,1,8,0A5.26,5.26,0,0,1,840.55,6,5.25,5.25,0,0,1,839,9.91,5.55,5.55,0,0,1,834.91,11.47Z"/><path class="cls-2" d="M857.45,61.46a25.53,25.53,0,0,1,7.48-18q9.11-9.6,21.76-9.6a28.76,28.76,0,0,1,21.69,9.6q7.49,8,7.48,18.07a25.64,25.64,0,0,1-7.11,17.77,30.23,30.23,0,0,1-44.19,0,27.29,27.29,0,0,1-5.27-8.35A25.54,25.54,0,0,1,857.45,61.46Zm11.35-.72q0,10.84,4.86,18.37,5.49,8.4,13.4,8.41a12.84,12.84,0,0,0,6.55-1.87,17.33,17.33,0,0,0,5.48-5.23A29.31,29.31,0,0,0,903,71.67a37.05,37.05,0,0,0,1.49-10.18,35.05,35.05,0,0,0-1.59-10.3,30.4,30.4,0,0,0-4.26-8.94q-5.11-7-12.53-7-7.05,0-12.16,7.41T868.8,60.74Z"/><path class="cls-2" d="M942.36,33.85a29.2,29.2,0,0,1,.88,6.76v1a25,25,0,0,1,18.38-7.77q8,0,12.84,3.73T979.26,48v26.4a27.65,27.65,0,0,0,.5,6.19,6.43,6.43,0,0,0,1.94,3.27c1.16,1.12,3.3,2,6.42,2.56v1.3H960.56v-1.3a16.35,16.35,0,0,0,5.36-1.4A6.42,6.42,0,0,0,968.54,82a13.44,13.44,0,0,0,1-4.32q.29-2.9.28-8.31V56.14a75.74,75.74,0,0,0-.47-10,12.24,12.24,0,0,0-1.77-5.11,9.41,9.41,0,0,0-4.1-3.39,14.17,14.17,0,0,0-5.91-1.22,15.59,15.59,0,0,0-6.5,1.37,11.88,11.88,0,0,0-4.76,3.74,13.39,13.39,0,0,0-2.45,5.63,63.19,63.19,0,0,0-.59,10.43v12.2l.06,4.61a27.22,27.22,0,0,0,.5,6.2,6.43,6.43,0,0,0,1.93,3.26c1.16,1.12,3.3,2,6.42,2.56v1.3H924.6v-1.3a16.18,16.18,0,0,0,5.36-1.4A6.42,6.42,0,0,0,932.58,82a13.48,13.48,0,0,0,1-4.31q.29-2.88.28-8.34V54a86,86,0,0,0-.31-9,9.68,9.68,0,0,0-1.37-4.19,6.67,6.67,0,0,0-2.56-2.51,11,11,0,0,0-4.3-1V36.09Z"/><path class="cls-2" d="M1047.59,81.72l1.06.62q-2.24,6.55-10.28,6.55a12,12,0,0,1-7.37-2.18,16.49,16.49,0,0,1-4-5,41.23,41.23,0,0,1-6.31,4.92,19.11,19.11,0,0,1-9.42,2.25q-6.87,0-10.9-3.31a10.93,10.93,0,0,1-4-8.91,12.1,12.1,0,0,1,3.3-8.66,14.76,14.76,0,0,1,4.3-3.09,41.12,41.12,0,0,1,7-2.34q5.43-1.36,8-2.3a17,17,0,0,0,4.34-2.25,7.5,7.5,0,0,0,2.74-3.36,15.32,15.32,0,0,0,.75-5.36q0-7.31-2.75-10.66a9,9,0,0,0-3.21-2.5,9.4,9.4,0,0,0-4.08-.93,8,8,0,0,0-7.54,4.92l-1.56,3.62a4.5,4.5,0,0,1-4.49,2.93,4.87,4.87,0,0,1-3.55-1.41,4.68,4.68,0,0,1-1.43-3.52c0-2.12,1.49-3.9,4.49-5.36a27.19,27.19,0,0,1,6-1.84,36.35,36.35,0,0,1,7-.71,34.86,34.86,0,0,1,8.05,1,28,28,0,0,1,7,2.56,9.89,9.89,0,0,1,5,6,27.12,27.12,0,0,1,.5,6.3V72.74a41.61,41.61,0,0,0,.5,8q1.07,4.43,5.11,4.43a5.66,5.66,0,0,0,3-.69A10.82,10.82,0,0,0,1047.59,81.72ZM1027,57.16a41.67,41.67,0,0,1-7.39,4.92,64.11,64.11,0,0,0-6.28,3.68,16.84,16.84,0,0,0-3.17,3,13,13,0,0,0-2.92,8.42,10.15,10.15,0,0,0,2.27,6.79,7.2,7.2,0,0,0,5.75,2.68,9.77,9.77,0,0,0,5.74-1.9,11.77,11.77,0,0,0,4.08-5.08q1.92-4.17,1.92-12.09Z"/><path class="cls-2" d="M1052.59,2.43l18-2.24V69.7l.07,4.73a27.16,27.16,0,0,0,.5,6.2A6.42,6.42,0,0,0,1073,83.9c1.16,1.12,3.3,2,6.42,2.56v1.3h-27.55v-1.3a16.43,16.43,0,0,0,5.36-1.4,6.47,6.47,0,0,0,2.62-3.09,13.49,13.49,0,0,0,1-4.32q.29-2.9.28-8.37V20.42a86.68,86.68,0,0,0-.31-9,9.73,9.73,0,0,0-1.37-4.23,6.28,6.28,0,0,0-2.56-2.49,11.65,11.65,0,0,0-4.3-.94Z"/></g></g></g></svg>