<?xml version="1.0" encoding="utf-8"?>
<!-- Generator: Adobe Illustrator 24.1.0, SVG Export Plug-In . SVG Version: 6.00 Build 0)  -->
<svg version="1.1" id="レイヤー_1" xmlns="http://www.w3.org/2000/svg" xmlns:xlink="http://www.w3.org/1999/xlink" x="0px"
	 y="0px" viewBox="0 0 273.1 60.7" style="enable-background:new 0 0 273.1 60.7;" xml:space="preserve">
<style type="text/css">
	.st0{fill:#C5E9EE;}
	.st1{fill:#00296B;}
	.st2{fill:#4D4D4D;}
</style>
<g>
	<polygon class="st0" points="38.9,0.8 38.5,6.6 37,6.2 34.8,5.5 33.3,5.2 32.8,5.9 30.6,5.9 26.6,13.5 27.2,15.1 28,15.1 
		28.4,18.6 29.2,21 26,25.2 23,25.2 21,19.3 12.1,37 0,46.3 4.3,46.8 9.6,50.1 10.1,50.5 7.9,53 9.3,54.4 10,55.2 10.2,56.5 
		11.6,57.1 14,60.7 22.1,56.3 22.3,53.1 26.2,53.2 27,53 29.1,50 29.9,38.3 30.6,37.9 35.3,37.8 35.9,40.1 35.8,42.3 36.7,42.4 
		37.6,41.4 38.3,41.3 38.9,42.5 39.3,43.9 40.4,44.5 43.4,45.3 44.6,45.5 46.4,42.6 46.9,41.6 47.3,37.8 50.2,37.7 54.2,34.2 
		63.1,34.2 66.9,33.5 67.6,33.3 68.1,30.4 75.9,24.8 70.1,17.6 59.9,16.1 57.6,14.5 46.4,0.8 44.5,1.2 43.7,1.4 43,0 40.9,0 	"/>
	<g>
		<g>
			<g>
				<g>
					<path class="st1" d="M38.4,45.1c-0.7,0.3-1,0.8-1.1,1.6c0,0.1-0.1,0.2-0.2,0.2c0,0-0.1,0-0.1,0c-3-0.8-5.9-2.2-7.4-7.4h-2.8
						c0,1.7,0,3.2,0,4.3c1.1-0.1,2.3-0.3,3.5-0.6c0,0,0,0,0.1,0c0.1,0,0.2,0.1,0.2,0.2c0,0.1-0.1,0.2-0.2,0.2
						c-2.1,1-4.3,1.8-6.3,2.5c-0.2,0-0.2,0.2-0.2,0.4c0,0.2-0.2,0.4-0.3,0.4c-0.1,0-0.2-0.1-0.3-0.2c-0.2-0.5-0.7-1.9-0.8-2.4
						c0-0.2,0-0.2,0.1-0.2c0.1,0,0.1,0,0.2,0c0.7,0,1.4,0,2.1-0.1c0-1.2,0.1-2.8,0.1-4.5h-1.3c-0.6,0-1.3,0-1.7,0.1c0,0-0.1,0-0.1,0
						c-0.1,0-0.2-0.1-0.2-0.2c-0.1-0.1-0.1-0.3-0.2-0.5c0,0,0-0.1,0-0.1c0-0.1,0-0.1,0.1-0.1c0,0,0.1,0,0.1,0c0.4,0.2,1.3,0.2,2,0.2
						H25c0-0.7,0-1.4,0-2.1c0-2.9-0.1-5.4-0.2-6c-0.1-0.2-0.1-0.3-0.1-0.4s0-0.1,0.1-0.1s0.1,0,0.2,0.1c0.6,0.3,2.1,1,2.1,1h6.9
						c0.1,0,0.2,0,0.3-0.1c0.2-0.2,0.7-0.8,0.9-1.1c0.1-0.1,0.2-0.1,0.3,0c0.3,0.3,1.3,1,1.7,1.3c0.1,0.1,0.1,0.1,0.1,0.2
						c0,0.1-0.1,0.2-0.2,0.2H26.8c0,0.5,0,1.2,0,2H33c0.1,0,0.2-0.1,0.3-0.2c0.3-0.4,0.6-0.7,0.8-1c0-0.1,0.1-0.1,0.1-0.1
						c0.1,0,0.1,0,0.2,0.1c0.5,0.3,1.1,0.8,1.5,1.2c0.1,0.1,0.1,0.1,0.1,0.2s-0.1,0.2-0.3,0.2h-9c0,0.6,0,1.3,0,2h6.2
						c0.2,0,0.2-0.1,0.3-0.2c0.3-0.4,0.6-0.7,0.8-1c0-0.1,0.1-0.1,0.2-0.1c0.1,0,0.1,0,0.2,0.1c0.5,0.3,1.1,0.8,1.5,1.2
						c0.1,0.1,0.1,0.1,0.1,0.2S36,37,35.8,37h-9c0,0.7,0,1.5,0,2.2H35c0.1,0,0.2,0,0.3-0.2c0.3-0.4,0.6-0.8,0.9-1.2
						c0.1-0.1,0.1-0.1,0.2-0.1c0.1,0,0.1,0,0.2,0.1c0.5,0.4,1.3,1,1.7,1.4c0.1,0.1,0.1,0.1,0.1,0.2s-0.1,0.2-0.3,0.2H30
						c0.6,1.3,1.3,2.3,2.2,3.1c1.2-0.9,1.9-1.7,2.2-2.5c0-0.1,0.1-0.1,0.2-0.1c0,0,0.1,0,0.1,0c0.7,0.4,1.4,0.8,1.8,1.1
						c0.1,0.1,0.2,0.2,0.2,0.3c0,0.1-0.1,0.2-0.3,0.2c0,0-0.1,0-0.2,0c-0.1,0-0.2,0-0.3,0c-0.1,0-0.2,0-0.4,0.1
						c-0.8,0.5-1.9,1-3.1,1.3c1.6,1.2,3.6,1.7,5.8,1.8c0.1,0,0.2,0.1,0.2,0.2C38.5,45,38.5,45.1,38.4,45.1z"/>
				</g>
				<g>
					<path class="st1" d="M57.6,32.1c-0.3,0.2-0.5,0.2-0.5,0.5c0,1.2,0,3.5,0,5.8s0,4.8,0.1,6.3c0,0,0,0.1,0,0.1c0,1-0.2,1.8-2.2,2
						c0,0-0.1,0-0.1,0c-0.2,0-0.3-0.1-0.3-0.3c-0.1-1.1-0.3-1.2-2.1-1.8c-0.2-0.1-0.2-0.3,0-0.3c0,0,0,0,0,0
						c0.8,0.1,1.9,0.1,2.4,0.1c0.3,0,0.4-0.1,0.4-0.4c0-1.6,0.1-3.6,0.1-5.5c0-2.9,0-5.7-0.1-7H44.4c0,1.7,0,4.9,0,8.3
						c0,2.1,0,4.2,0,6.2c0,0.5-0.3,0.7-1,0.7c-0.1,0-0.1,0-0.2,0c-0.5,0-0.8-0.1-0.7-0.7c0.1-2.6,0.1-6.3,0.1-9.5
						c0-3-0.1-5.4-0.2-5.8c-0.1-0.2-0.1-0.3-0.1-0.4c0-0.1,0-0.2,0.1-0.2c0,0,0.1,0,0.2,0.1c0.6,0.2,1.9,0.9,1.9,0.9
						c0.4,0,10.2,0,10.2,0c0.1,0,0.2,0,0.3-0.1c0.2-0.2,0.5-0.5,0.8-0.7c0.1-0.1,0.2-0.1,0.3,0c0.4,0.3,1,0.6,1.4,0.9
						c0.1,0.1,0.2,0.2,0.2,0.3C57.9,31.9,57.8,32,57.6,32.1z M54.8,36.4h-4.3c0,0.7,0,1.6,0,2.4c0,1.1,0,2.3,0,3.2h1.6
						c0-0.7,0-1.5,0-2.2c0-0.8,0-1.4-0.1-1.8c0-0.2-0.1-0.4-0.1-0.4c0-0.1,0-0.1,0.1-0.1c0,0,0.1,0,0.1,0c0.5,0.1,1.1,0.2,1.7,0.3
						c0.2,0.1,0.3,0.2,0.3,0.3c0,0.1-0.1,0.2-0.3,0.3c-0.3,0.1-0.3,0.2-0.3,0.4c0,0.4,0,1,0,1.6c0,0.8,0,1.8,0.1,2.6
						c0,0,0,0.1,0,0.1c0,0.5-0.1,0.5-0.8,0.6c-0.1,0-0.2,0-0.3,0c-0.4,0-0.6-0.2-0.6-0.5c0-0.1,0-0.1,0-0.2c0-0.2,0-0.4,0-0.6
						c-1.3,0-4.7,0-4.7,0c0,0.3,0,0.7,0,1c0,0,0,0.1,0,0.1c0,0.5-0.2,0.5-0.9,0.6c-0.1,0-0.2,0-0.3,0c-0.4,0-0.5-0.2-0.5-0.5
						c0-0.1,0-0.1,0-0.2c0.1-1.1,0.1-2.5,0.1-3.6c0-0.8,0-1.5-0.1-1.9c0-0.2-0.1-0.4-0.1-0.4c0-0.1,0-0.1,0.1-0.1c0,0,0.1,0,0.1,0
						c0.4,0.1,1.1,0.2,1.7,0.3c0.2,0.1,0.3,0.2,0.3,0.3s-0.1,0.2-0.3,0.3c-0.3,0.1-0.3,0.2-0.3,0.4c0,0.5,0,1.4,0,2.2
						c0,0.3,0,0.7,0,1h1.5c0.1-1.6,0.1-3.8,0-5.6H47c-0.6,0-1.3,0-1.7,0.1c0,0-0.1,0-0.1,0c-0.1,0-0.2-0.1-0.2-0.2
						c-0.1-0.1-0.1-0.3-0.2-0.5c0,0,0-0.1,0-0.1c0-0.1,0-0.1,0.1-0.1c0,0,0.1,0,0.1,0c0.4,0.1,1.3,0.2,2,0.2H50c0.6-1.2,1-2.8,1-3.6
						c0-0.2,0-0.2,0.1-0.2c0,0,0.1,0,0.2,0c0.5,0.2,1.3,0.5,1.9,0.8c0.1,0.1,0.2,0.2,0.2,0.3c0,0.1-0.1,0.2-0.3,0.2
						c-0.3,0-0.5,0-0.6,0.2c-0.5,0.7-1.1,1.5-1.9,2.3h1.6c0.1,0,0.2,0,0.3-0.1c0.2-0.3,0.6-0.8,0.8-1.1c0-0.1,0.1-0.1,0.1-0.1
						s0.1,0,0.2,0.1c0.3,0.3,1.1,1,1.4,1.3c0.1,0.1,0.1,0.2,0.1,0.2C55.1,36.3,55,36.4,54.8,36.4z M48.2,35.6
						c-0.2,0-0.5-0.1-0.6-0.4c-0.4-0.7-0.1-1.3-1.1-2.5c0,0-0.1-0.1-0.1-0.1c0-0.1,0-0.1,0.1-0.1c0,0,0.1,0,0.1,0
						c1.3,0.5,2.3,1.2,2.4,2.1c0,0.1,0,0.1,0,0.1C49.1,35.3,48.6,35.6,48.2,35.6z"/>
				</g>
				<g>
					<path class="st1" d="M77.9,32.3h-6.2c-0.4,1.1-1,2.2-1.8,3.3c0.4,0.1,0.9,0.2,1.2,0.2c0.2,0,0.3,0.2,0.3,0.3
						c0,0.1-0.1,0.2-0.3,0.3c-0.4,0.2-0.5,0.2-0.5,0.4c0,0.8,0,2.4,0,4.2c0,1.8,0,3.7,0.1,5.3c0,0,0,0,0,0c0,0.4-0.4,0.6-1,0.6
						c-0.1,0-0.1,0-0.2,0c-0.5,0-0.8-0.2-0.8-0.5c0,0,0,0,0,0c0.1-1.8,0.1-4.2,0.1-6.2c0-1.2,0-2.3,0-3c-1.8,2-4.2,3.8-6.9,4.9
						c-0.1,0-0.1,0-0.2,0c-0.1,0-0.2-0.1-0.2-0.1s0.1-0.2,0.2-0.3c3.2-2.1,6.5-5.6,7.8-9.3H64c-0.6,0-1.2,0-1.6,0.1c0,0,0,0-0.1,0
						c-0.1,0-0.2,0-0.2-0.2c-0.1-0.1-0.1-0.3-0.2-0.5c0-0.1,0-0.1,0-0.1c0,0,0-0.1,0.1-0.1c0,0,0.1,0,0.2,0c0.4,0.2,1.3,0.2,1.9,0.2
						h10.7c0.2,0,0.2-0.1,0.3-0.2c0.3-0.4,0.6-0.8,1-1.3c0.1-0.1,0.1-0.1,0.2-0.1c0.1,0,0.1,0,0.2,0.1c0.6,0.4,1.3,1.1,1.8,1.6
						c0,0.1,0.1,0.1,0.1,0.2C78.2,32.3,78.1,32.3,77.9,32.3z M76.9,41.4c-0.3,0-0.7-0.2-1-0.6c-0.8-1-1.4-2.6-4.1-4.1
						c-0.1-0.1-0.2-0.2-0.2-0.2c0-0.1,0.1-0.1,0.2-0.1c0,0,0.1,0,0.1,0c2.4,0.6,4.8,1.7,5.7,3.2c0.2,0.3,0.2,0.5,0.2,0.8
						C77.9,40.9,77.4,41.4,76.9,41.4z"/>
				</g>
				<g>
					<path class="st1" d="M91.6,34.1h-4.2c0,0.4,0,0.9,0,1.4h1.2c0.1,0,0.2-0.1,0.3-0.2c0.2-0.2,0.4-0.4,0.7-0.7
						c0,0,0.1-0.1,0.1-0.1c0.1,0,0.1,0,0.2,0.1c0.4,0.2,0.7,0.5,1.1,0.8c0.1,0.1,0.2,0.2,0.2,0.3c0,0.1-0.1,0.2-0.2,0.3
						c-0.3,0.2-0.4,0.2-0.4,0.4c0,0.4,0,0.9,0,1.4c0,0.6,0,1.4,0.1,2.1c0,0.1,0,0.1,0,0.2c0,0.4-0.2,0.6-0.8,0.6c-0.1,0-0.2,0-0.3,0
						c-0.3,0-0.5-0.1-0.5-0.5h-1.6c0,0.6,0,1.3,0,1.8h0.7c0.1,0,0.2-0.1,0.3-0.2c0.2-0.3,0.6-0.6,0.9-0.9c0.1-0.1,0.2-0.1,0.3,0
						c0.4,0.3,0.9,0.8,1.3,1.2c0.1,0.1,0.1,0.1,0.1,0.2c0,0.1-0.1,0.1-0.2,0.1h-3.4c0,0.4,0,1.1,0,1.5c1-0.1,2.1-0.3,3.1-0.5
						c0,0,0.1,0,0.1,0c0.1,0,0.2,0.1,0.2,0.1c0,0.1-0.1,0.2-0.2,0.2c-2.5,1-5.5,1.6-7.8,2c-0.2,0-0.2,0.2-0.2,0.4
						c0,0.3-0.2,0.4-0.3,0.4c-0.1,0-0.2-0.1-0.3-0.2c-0.2-0.5-0.6-1.4-0.7-1.9c0-0.1,0-0.1,0-0.2c0-0.1,0-0.1,0.1-0.1
						c0.1,0,0.2,0,0.2,0c1.2,0,2.7-0.1,4.1-0.2c0-0.5,0-1.2,0-1.7h-1.3c-0.6,0-1.3,0-1.6,0.1c0,0,0,0-0.1,0c-0.1,0-0.2,0-0.2-0.2
						c-0.1-0.1-0.1-0.3-0.2-0.5c0,0,0-0.1,0-0.1c0-0.1,0-0.1,0.1-0.1c0,0,0.1,0,0.1,0c0.4,0.1,1.3,0.2,1.9,0.2h1.3
						c0-0.6,0-1.3,0-1.8h-1.5c0,0.1,0,0.2,0,0.2c0,0.4-0.1,0.5-0.8,0.6c-0.1,0-0.2,0-0.2,0c-0.4,0-0.6-0.1-0.6-0.5
						c0-0.1,0-0.1,0-0.2c0.1-0.9,0.1-2.2,0.1-3.3c0-1,0-1.8-0.2-2.1c0-0.2-0.1-0.2-0.1-0.3s0-0.1,0.1-0.1s0.1,0,0.2,0.1
						c0.5,0.2,1.7,0.8,1.7,0.8h1.3c0-0.5,0-1,0-1.4h-2.1c-0.6,0-1.3,0-1.7,0.1c0,0,0,0-0.1,0c-0.1,0-0.2,0-0.2-0.2
						c-0.1-0.1-0.1-0.3-0.2-0.5c0-0.1,0-0.1,0-0.1c0,0,0-0.1,0.1-0.1s0.1,0,0.1,0c0.4,0.2,1.3,0.2,2,0.2h2.1c0-0.4,0-1,0-1.4
						c-1.2,0.1-2.4,0.1-3.4,0.1c-0.2,0-0.2-0.1-0.2-0.1c0-0.1,0.1-0.2,0.2-0.2c2.6-0.4,5.1-1.1,6.6-1.8c0.1-0.1,0.1-0.1,0.2-0.1
						c0,0,0.1,0,0.2,0.1c0.5,0.3,1.1,0.7,1.6,1.1c0.1,0.1,0.2,0.2,0.2,0.3c0,0.1-0.1,0.2-0.2,0.2c-0.1,0-0.1,0-0.2,0
						c-0.2,0-0.2-0.1-0.4-0.1c-0.1,0-0.1,0-0.2,0c-0.8,0.2-1.6,0.3-2.6,0.4c0,0.4,0,1,0,1.5h1.4c0.1,0,0.2-0.1,0.3-0.1
						c0.3-0.4,0.6-0.6,0.9-1c0,0,0.1-0.1,0.1-0.1s0.1,0,0.2,0.1c0.4,0.3,1.1,0.9,1.4,1.2c0.1,0.1,0.1,0.1,0.1,0.2
						C91.8,34.1,91.7,34.1,91.6,34.1z M85.8,36h-1.5c0,0.4,0,1,0,1.6h1.6C85.8,37,85.8,36.5,85.8,36z M85.7,38h-1.5
						c0,0.6,0,1.3,0,1.9h1.5C85.7,39.3,85.7,38.6,85.7,38z M89,36h-1.6c0,0.5,0,1,0,1.6H89C89,37,89,36.4,89,36z M87.4,38
						c0,0.6,0,1.3,0,1.9H89c0-0.6,0-1.3,0-1.9H87.4z M98.1,35.5c-0.3,0.2-0.4,0.2-0.4,0.6c-0.1,2.6-0.2,6.1-0.6,7.9
						c-0.3,1.9-0.6,2.5-2.5,2.8c-0.1,0-0.1,0-0.2,0c-0.2,0-0.3-0.1-0.3-0.3c-0.1-1.1-0.4-1.2-1.7-1.7c-0.1,0-0.2-0.1-0.2-0.2
						s0.1-0.2,0.2-0.2c0,0,0,0,0,0c0.7,0.1,1.4,0.2,1.9,0.3c0.1,0,0.1,0,0.2,0c0.4,0,0.6-0.2,0.8-0.8c0.5-1.7,0.7-6.1,0.7-8.8h-1.3
						c-0.1,1.7-0.3,3.8-0.9,5.4c-1.1,3.6-3.2,5.4-5.1,6.4c0,0-0.1,0-0.1,0c-0.1,0-0.1-0.1-0.1-0.1c0-0.1,0-0.1,0.1-0.2
						c1.7-1.6,2.9-3.7,3.7-6.5c0.4-1.4,0.6-3.3,0.7-5c-0.6,0-1.6,0-1.9,0.1c0,0,0,0-0.1,0c-0.1,0-0.2,0-0.2-0.2
						c-0.1-0.1-0.1-0.3-0.2-0.5c0,0,0-0.1,0-0.1c0-0.1,0-0.1,0.1-0.1c0,0,0.1,0,0.1,0c0.4,0.1,1.6,0.2,2.2,0.2c0-0.6,0-1.2,0-1.8
						c0-0.9,0-1.8-0.1-2.3c0-0.2-0.1-0.3-0.1-0.3c0-0.1,0-0.1,0.1-0.1c0.1,0,0.1,0,0.2,0c0.7,0.1,1.2,0.2,1.9,0.4
						c0.3,0.1,0.4,0.2,0.4,0.3s-0.1,0.2-0.4,0.3c-0.3,0.1-0.4,0.2-0.4,0.6c0,0.5,0,1.6-0.1,3h1c0.2,0,0.2-0.1,0.3-0.2
						c0.2-0.2,0.5-0.5,0.7-0.7c0.1-0.1,0.2-0.1,0.4,0c0.4,0.2,0.8,0.6,1.1,0.9c0.1,0.1,0.2,0.2,0.2,0.3
						C98.4,35.3,98.3,35.4,98.1,35.5z"/>
				</g>
				<g>
					<path class="st1" d="M118,36.2h-13.3c0,0,0,3.7-0.3,5.4c-0.3,2-1.3,4.2-2.8,5.2c0,0-0.1,0-0.1,0.1c-0.1,0.1-0.2,0.1-0.2,0.1
						c-0.1,0-0.1,0-0.1-0.1c0-0.1,0-0.2,0.1-0.2c1-1.6,1.3-3.4,1.5-5.1c0.1-0.7,0.1-1.9,0.1-3.1c0-1.3-0.1-2.6-0.2-3
						c0-0.2-0.1-0.3-0.1-0.4c0-0.1,0-0.1,0.1-0.1c0,0,0.1,0,0.2,0c0.8,0.3,1.7,0.7,2,0.8h6c0.6-1,1-2.1,1.2-2.8c0,0,0-0.1,0-0.1
						c0,0,0,0,0-0.1c0-0.1,0-0.1,0.1-0.1c0,0,0.1,0,0.1,0c0.6,0.2,1.4,0.4,2.1,0.6c0.2,0.1,0.3,0.2,0.3,0.3c0,0.1-0.1,0.2-0.4,0.2
						c-0.3,0-0.4,0.1-0.5,0.2c-0.6,0.7-1.4,1.3-2.2,1.8h3.4c0.1,0,0.2,0,0.3-0.2c0.3-0.4,0.6-0.8,0.9-1.1c0.1-0.1,0.1-0.1,0.2-0.1
						c0.1,0,0.1,0,0.2,0.1c0.4,0.3,1.1,0.9,1.5,1.4c0.1,0.1,0.1,0.1,0.1,0.2S118.2,36.2,118,36.2z M117.3,32.5h-12.5
						c-0.6,0-1.3,0-1.6,0.1c0,0-0.1,0-0.1,0c-0.1,0-0.2-0.1-0.2-0.2c-0.1-0.1-0.1-0.3-0.2-0.5c0,0,0-0.1,0-0.1s0-0.1,0.1-0.1
						s0.1,0,0.2,0c0.4,0.1,1.3,0.2,1.9,0.2h4.1c0-0.6,0-1-0.1-1.2c0-0.3-0.1-0.5-0.1-0.6s0-0.1,0.1-0.1c0,0,0.1,0,0.2,0
						c0.7,0.1,1.5,0.2,2.1,0.3c0.2,0,0.4,0.2,0.4,0.3c0,0.1-0.1,0.2-0.4,0.3c-0.2,0.1-0.3,0.2-0.3,0.4c0,0.1,0,0.1,0,0.2
						c0,0.1,0,0.3,0,0.5h3.4c0.2,0,0.2,0,0.3-0.2c0.3-0.4,0.6-0.7,0.9-1.1c0.1-0.1,0.1-0.1,0.2-0.1c0.1,0,0.1,0,0.2,0.1
						c0.5,0.4,1.1,0.9,1.6,1.4c0.1,0.1,0.1,0.1,0.1,0.2C117.6,32.5,117.5,32.5,117.3,32.5z M118.1,46.1h-11.7c-0.6,0-1.4,0-1.7,0.1
						c0,0-0.1,0-0.1,0c-0.1,0-0.2-0.1-0.2-0.2c-0.1-0.1-0.1-0.3-0.2-0.5c0,0,0-0.1,0-0.1s0-0.1,0.1-0.1c0,0,0.1,0,0.2,0
						c0.4,0.1,1.3,0.2,2,0.2h3.8c0-0.9,0.1-2.1,0.1-3.1h-1.4c-0.6,0-1.3,0-1.6,0.1c0,0-0.1,0-0.1,0c-0.1,0-0.2-0.1-0.2-0.2
						c-0.1-0.1-0.2-0.3-0.2-0.5c0,0,0-0.1,0-0.1c0-0.1,0-0.1,0.1-0.1c0,0,0.1,0,0.1,0c0.4,0.1,1.3,0.2,2,0.2h1.4c0-0.9,0-1.7,0-2.4
						h-2.5c-0.6,1.1-1.6,2.3-2.7,2.9c-0.1,0-0.1,0-0.1,0c-0.1,0-0.1,0-0.1-0.1c0,0,0-0.1,0.1-0.2c1-1.3,1.7-3.7,1.8-5.1
						c0,0,0-0.1,0-0.1c0-0.1,0-0.1,0-0.1c0-0.1,0-0.1,0.1-0.1c0,0,0.1,0,0.1,0c0.6,0.1,1.4,0.4,2.1,0.6c0.2,0.1,0.2,0.2,0.2,0.3
						c0,0.1-0.1,0.2-0.3,0.3c-0.3,0-0.4,0-0.5,0.3c-0.1,0.3-0.2,0.6-0.4,0.9h2.3c0-0.9-0.1-1.7-0.1-2.1c0-0.2-0.1-0.3-0.1-0.4
						s0-0.1,0.1-0.1c0,0,0.1,0,0.2,0c0.6,0.1,1.6,0.2,2.1,0.3c0.2,0,0.3,0.2,0.3,0.3c0,0.1-0.1,0.2-0.4,0.3
						c-0.3,0.1-0.4,0.2-0.4,0.4c0,0.4,0,0.8,0,1.2h1.8c0,0,0.1,0,0.1,0c0.1,0,0.2,0,0.3-0.1c0.2-0.3,0.6-0.8,0.9-1.1
						c0.1-0.1,0.2-0.1,0.3,0c0.5,0.4,1.1,0.9,1.5,1.3c0.1,0.1,0.1,0.2,0.1,0.2c0,0.1-0.1,0.2-0.3,0.2H112c0,0.9,0,1.7,0,2.4h1.3
						c0.1,0,0.2,0,0.3-0.2c0.2-0.3,0.6-0.8,0.9-1.1c0-0.1,0.1-0.1,0.2-0.1c0.1,0,0.1,0,0.2,0.1c0.4,0.3,1.1,0.9,1.5,1.3
						c0.1,0.1,0.1,0.1,0.1,0.2c0,0.1-0.1,0.2-0.2,0.2H112c0,1,0,2,0.1,3.1h2.8c0.2,0,0.2,0,0.3-0.1c0.2-0.3,0.7-0.8,1-1.2
						c0.1-0.1,0.1-0.1,0.2-0.1s0.1,0,0.2,0.1c0.5,0.4,1.2,1,1.6,1.5c0.1,0.1,0.1,0.1,0.1,0.2C118.3,46,118.2,46.1,118.1,46.1z
						 M107.9,35.7c-0.3,0-0.5-0.1-0.7-0.5c-0.3-0.7-0.3-1.4-1.4-2.1c-0.1-0.1-0.1-0.1-0.1-0.2c0-0.1,0.1-0.1,0.2-0.1
						c0,0,0.1,0,0.1,0c1.5,0.2,2.5,0.6,2.8,1.5c0.1,0.2,0.1,0.3,0.1,0.5C108.8,35.3,108.4,35.7,107.9,35.7z"/>
				</g>
				<g>
					<path class="st1" d="M128.6,40.2c-0.3,0.1-0.5,0.2-0.5,0.4c-0.2,2.9-1.1,5.6-6.6,6.3c0,0-0.1,0-0.1,0c-0.2,0-0.2-0.1-0.2-0.1
						c0-0.1,0.1-0.1,0.2-0.2c4.1-1.5,4.8-3.6,4.8-6.8c0-0.1,0-0.2,0-0.2c0-0.1,0-0.2,0-0.3c0-0.1,0-0.1,0.1-0.1c0,0,0,0,0.1,0
						c0.7,0.1,1.6,0.3,2.2,0.4c0.2,0.1,0.4,0.2,0.4,0.3C129,40,128.9,40.1,128.6,40.2z M137.7,39c-0.1,0-0.2,0-0.2,0
						c-0.1,0-0.2,0-0.3,0c-0.7,0-1.3,0.4-2.3,1c0,0-0.1,0-0.1,0c-0.1,0-0.1-0.1-0.1-0.1c0,0,0-0.1,0-0.1c0.5-0.7,0.8-1.2,1-1.8H124
						c0,0.2,0,0.3,0,0.5c0,0.9-0.2,1.8-1,2.2c-0.2,0.1-0.4,0.2-0.6,0.2c-0.5,0-0.9-0.4-0.9-0.9c0-0.2,0-0.4,0.2-0.6
						c0.5-0.9,1.6-0.7,1.7-2.6c0-0.2,0.1-0.3,0.2-0.3s0.2,0.1,0.2,0.3c0.1,0.2,0.1,0.5,0.1,0.8h11.2c0.2,0,0.2,0,0.4-0.1
						c0.1-0.1,0.5-0.4,0.6-0.6c0.1-0.1,0.1-0.1,0.2-0.1c0.1,0,0.1,0,0.2,0.1c0.5,0.4,1.1,0.9,1.5,1.3C138.4,38.5,138.3,39,137.7,39z
						 M137.7,32.8h-7.4c0,0.7,0,1.5,0,2.4h2.6c0.2,0,0.2,0,0.4-0.2c0.2-0.3,0.6-0.8,0.9-1.1c0.1-0.1,0.2-0.1,0.3,0
						c0.5,0.4,1.1,0.9,1.5,1.3c0.1,0.1,0.1,0.2,0.1,0.2s-0.1,0.2-0.3,0.2h-10.2c-0.6,0-1.3,0-1.7,0.1c0,0-0.1,0-0.1,0
						c-0.1,0-0.2-0.1-0.2-0.2c-0.1-0.1-0.2-0.3-0.2-0.5c0-0.1,0-0.1,0-0.1c0,0,0-0.1,0.1-0.1s0.1,0,0.2,0c0.4,0.2,1.3,0.2,2,0.2h2.7
						c0.1-0.9,0.1-1.7,0.1-2.4H124c-0.6,0-1.3,0-1.6,0.1c0,0-0.1,0-0.1,0c-0.1,0-0.2-0.1-0.2-0.2c-0.1-0.1-0.1-0.3-0.2-0.5
						c0,0,0-0.1,0-0.1c0-0.1,0-0.1,0.1-0.1c0,0,0.1,0,0.1,0c0.5,0.2,1.3,0.2,2,0.2h4.6c0-0.8,0-1.3-0.1-1.6c0-0.3-0.1-0.4-0.1-0.5
						c0-0.1,0-0.1,0.1-0.1c0,0,0.1,0,0.2,0c0.7,0.1,1.5,0.2,2.1,0.3c0.2,0,0.4,0.2,0.4,0.3c0,0.1-0.1,0.2-0.4,0.3
						c-0.3,0.1-0.3,0.2-0.3,0.4c0,0.3,0,0.6,0,0.9h4.2c0.2,0,0.2,0,0.3-0.1c0.2-0.3,0.6-0.9,0.9-1.2c0.1-0.1,0.1-0.1,0.2-0.1
						s0.1,0,0.2,0.1c0.4,0.3,1.3,1,1.7,1.4c0.1,0.1,0.1,0.1,0.1,0.2C138,32.8,137.9,32.8,137.7,32.8z M137,46.1
						c-0.7,0.2-1.8,0.3-2.9,0.3c-0.7,0-1.4,0-2-0.1c-1.1-0.2-1.6-0.5-1.6-1.6c0,0,0-0.1,0-0.1c0-0.8,0-2,0-3c0-0.6,0-1.2,0-1.5
						c0-0.3-0.1-0.5-0.1-0.6c0-0.1,0-0.1,0.1-0.1c0,0,0.1,0,0.2,0c0.6,0.1,1.2,0.2,1.9,0.3c0.2,0,0.4,0.2,0.4,0.3
						c0,0.1-0.1,0.2-0.3,0.3c-0.2,0.1-0.3,0.2-0.3,0.4c0,0.4,0,1.2,0,1.9c0,0.6,0,1.2,0,1.6c0,0.5,0.1,0.5,0.5,0.6
						c0.4,0.1,1,0.1,1.5,0.1c0.6,0,1.2-0.1,1.5-0.2c0.6-0.2,0.8-0.3,1.3-2.6c0-0.2,0.1-0.2,0.2-0.2s0.2,0.1,0.2,0.3c0,0.4,0,0.7,0,1
						c0,1.2,0,1.1,0.4,1.4c0.2,0.2,0.4,0.4,0.4,0.6C138.3,45.5,137.9,45.9,137,46.1z"/>
				</g>
				<g>
					<path class="st1" d="M150.6,38h-4.1c-0.6,1.9-1.7,3.8-2.7,5.3c1.4-0.1,3-0.3,4.3-0.5c-0.2-0.8-0.5-1.6-1.1-2.5c0,0,0-0.1,0-0.1
						c0-0.1,0.1-0.2,0.2-0.2c0.1,0,0.1,0,0.2,0.1c1.8,1.6,2.7,2.8,2.9,4.1c0,0.1,0,0.2,0,0.3c0,0.8-0.5,1.2-1,1.2
						c-0.4,0-0.8-0.3-0.8-0.9c0-0.4-0.1-1-0.2-1.6c-1.8,0.8-3.5,1.4-5.1,1.9c-0.3,0.1-0.3,0.2-0.3,0.3c0,0.3-0.1,0.4-0.2,0.4
						c-0.1,0-0.2-0.1-0.3-0.4c-0.2-0.6-0.5-1.4-0.6-2c0-0.1,0-0.1,0-0.2c0-0.1,0-0.1,0.2-0.1c0,0,0.1,0,0.1,0c0.4,0,0.9,0,1.4,0
						c0.6-1.7,1-3.7,1.2-5.4c0,0-1.1,0-1.1,0c-0.6,0-1.3,0-1.6,0.1c0,0-0.1,0-0.1,0c-0.1,0-0.2-0.1-0.2-0.2
						c-0.1-0.1-0.2-0.3-0.2-0.5c0,0,0-0.1,0-0.1c0-0.1,0-0.1,0.1-0.1c0,0,0.1,0,0.1,0c0.4,0.1,1.3,0.2,1.9,0.2h1.5
						c0-0.7,0-1.5,0-2.3c0-0.4,0-0.7,0-1.1c0,0-0.8,0-0.8,0c-0.6,0-1.3,0-1.7,0.1c0,0,0,0-0.1,0c-0.1,0-0.2,0-0.2-0.2
						c-0.1-0.1-0.2-0.3-0.2-0.5c0,0,0-0.1,0-0.1s0-0.1,0.1-0.1c0,0,0.1,0,0.2,0c0.4,0.1,1.3,0.2,1.9,0.2h0.8c0-1.4,0-2.6-0.1-2.9
						c-0.1-0.3-0.1-0.5-0.1-0.6s0-0.1,0.1-0.1c0,0,0.1,0,0.2,0c0.7,0.1,1.4,0.2,2.1,0.3c0.3,0.1,0.4,0.2,0.4,0.3
						c0,0.1-0.1,0.2-0.4,0.3c-0.3,0.1-0.4,0.2-0.4,0.4c0,0.4,0,1.2,0,2.2h0.6c0.1,0,0.2,0,0.3-0.1c0.2-0.2,0.5-0.7,0.8-1.1
						c0.1-0.1,0.2-0.1,0.3,0c0.4,0.3,1.2,1,1.5,1.3c0.1,0.1,0.1,0.2,0.1,0.2c0,0.1-0.1,0.1-0.2,0.1h-3.3c0,1.2,0,2.5,0,3.4h1.1
						c0.1,0,0.2-0.1,0.3-0.2c0.3-0.4,0.6-0.8,0.9-1.2c0-0.1,0.1-0.1,0.1-0.1c0.1,0,0.1,0,0.2,0.1c0.6,0.5,1.2,1,1.6,1.4
						c0.1,0.1,0.1,0.2,0.1,0.2C150.9,37.9,150.8,38,150.6,38z M157.6,32.7c-0.3,0.2-0.5,0.2-0.5,0.6c0,0.6,0,1.3,0,2.2
						c0,2.1,0,4.8,0,6.6c0,0,0,0,0,0.1c0,0.9,0,1.6-1.9,2c-0.1,0-0.1,0-0.2,0c-0.2,0-0.2-0.1-0.2-0.3c-0.1-1-0.2-1.2-1.6-1.7
						c-0.1,0-0.2-0.1-0.2-0.2c0-0.1,0.1-0.2,0.2-0.2h0c0.6,0.1,1.4,0.1,1.7,0.1c0.3,0,0.4-0.1,0.4-0.4c0-1.4,0.1-3.9,0.1-6.1
						c0-1.2,0-2.3,0-3.1h-2.5c0,1.3,0,3.2,0,5.4c0,2.7,0,5.8,0.1,8.4c0,0,0,0,0,0.1c0,0.6-0.2,0.7-1,0.7c-0.1,0-0.2,0-0.2,0
						c-0.5,0-0.7-0.1-0.7-0.6c0,0,0,0,0-0.1c0.1-2.6,0.2-6.5,0.2-9.7c0-2.5,0-4.5-0.2-5.1c-0.1-0.5-0.1-0.6,0-0.6
						c0.1,0,0.1,0,0.2,0.1c0.7,0.3,1.9,1,1.9,1h1.9c0.2,0,0.3,0,0.3-0.1c0.2-0.2,0.5-0.6,0.7-0.8c0.1-0.1,0.2-0.1,0.2-0.1
						c0.1,0,0.2,0,0.3,0.1c0.4,0.3,0.7,0.6,1.1,0.9c0.2,0.1,0.2,0.2,0.2,0.4C157.9,32.5,157.8,32.6,157.6,32.7z"/>
				</g>
				<g>
					<path class="st1" d="M177.9,46.3h-14.7c-0.6,0-1.3,0-1.6,0.1c0,0-0.1,0-0.1,0c-0.1,0-0.2-0.1-0.2-0.2c-0.1-0.1-0.2-0.3-0.2-0.5
						c0,0,0-0.1,0-0.1c0-0.1,0-0.1,0.1-0.1c0,0,0.1,0,0.1,0c0.4,0.1,1.3,0.2,1.9,0.2h1.3c0-1.3,0.1-3.2,0.1-4.9c0-1.5,0-2.8-0.2-3.2
						c0-0.1-0.1-0.2-0.1-0.3c0-0.1,0.1-0.2,0.1-0.2c0.1,0,0.2,0,0.3,0.1c0.7,0.3,1.8,0.7,1.8,0.7h5.6c0.2,0,0.3,0,0.4-0.1
						c0.2-0.2,0.5-0.5,0.7-0.7c0.1-0.1,0.1-0.1,0.2-0.1c0.1,0,0.1,0,0.2,0.1c0.4,0.2,1,0.6,1.3,0.9c0.1,0.1,0.2,0.2,0.2,0.4
						s-0.1,0.3-0.3,0.4c-0.4,0.2-0.5,0.2-0.5,0.6c0,0.6,0,1.5,0,2.5c0,1.2,0,2.6,0.1,3.9h0.4c0.2,0,0.2-0.1,0.3-0.2
						c0.2-0.3,0.6-0.8,0.9-1.2c0-0.1,0.1-0.1,0.2-0.1c0.1,0,0.1,0,0.2,0.1c0.5,0.4,1.1,1,1.6,1.5c0.1,0.1,0.1,0.1,0.1,0.2
						S178.1,46.3,177.9,46.3z M177.9,36.3c-0.8,0.3-0.9,0.8-1,1.6c0,0.1-0.1,0.2-0.2,0.2c0,0-0.1,0-0.1,0c-2.3-0.9-4.4-2.2-6-5.2
						h-0.2c0,0.2,0,0.4,0,0.6c0,1,0,2.1,0.1,3.4c0,0,0,0,0,0c0,0.4-0.3,0.6-1,0.6c-0.1,0-0.2,0-0.2,0c-0.5,0-0.7-0.1-0.7-0.5
						c0,0,0-0.1,0-0.1c0.1-1.2,0.1-2.4,0.2-3.3c-1.7,2.3-4.1,3.8-7,4.7c0,0-0.1,0-0.1,0c-0.1,0-0.1-0.1-0.1-0.1c0-0.1,0-0.1,0.1-0.2
						c2.5-1.4,4.5-3.1,5.5-5.2h-3c-0.6,0-1.3,0-1.7,0.1c0,0-0.1,0-0.1,0c-0.1,0-0.2-0.1-0.2-0.2c-0.1-0.1-0.1-0.3-0.2-0.5
						c0,0,0-0.1,0-0.1c0-0.1,0-0.1,0.1-0.1c0,0,0.1,0,0.1,0c0.4,0.2,1.3,0.2,2,0.2h4.7c0-0.8,0-1.3-0.1-1.7
						c-0.1-0.3-0.1-0.5-0.1-0.5c0-0.1,0-0.1,0.1-0.1c0,0,0.1,0,0.2,0c0.5,0.1,1.3,0.2,2,0.3c0.2,0.1,0.4,0.2,0.4,0.3
						s-0.1,0.2-0.4,0.3c-0.3,0.1-0.3,0.2-0.3,0.5c0,0.3,0,0.6,0,0.9h3.8c0.1,0,0.2,0,0.3-0.2c0.3-0.4,0.6-0.8,0.9-1.1
						c0.1-0.1,0.1-0.1,0.2-0.1c0.1,0,0.1,0,0.2,0.1c0.4,0.3,1.2,0.9,1.7,1.3c0.1,0.1,0.1,0.1,0.1,0.2s-0.1,0.2-0.3,0.2H171
						c2,2.1,4,2.8,6.9,3.1c0.1,0,0.2,0.1,0.2,0.2C178.1,36.2,178,36.3,177.9,36.3z M166.4,43.5c0,0.8,0,1.6,0,2.3h6.3
						c0-0.7,0-1.5,0-2.3H166.4z M172.7,38.6h-6.3c0,0.5,0,1.2,0,1.9h6.4C172.8,39.7,172.8,39.1,172.7,38.6z M172.8,40.9h-6.4
						c0,0.7,0,1.4,0,2.2h6.4C172.8,42.3,172.8,41.6,172.8,40.9z"/>
				</g>
				<g>
					<path class="st1" d="M197.9,44.6c-0.6,0.4-0.8,0.8-0.9,1.4c0,0.2,0,0.3-0.3,0.3c-3.6,0-6.7-0.2-8.4-1c-1.4-0.7-2.3-2.1-2.7-3.5
						c-0.7,2-2,3.8-4.3,5c-0.1,0-0.1,0-0.2,0c-0.1,0-0.1-0.1-0.1-0.1c0-0.1,0-0.1,0.1-0.2c2.5-2.4,3.1-5.6,3.1-7.9
						c0-0.1,0-0.2,0-0.3c0-0.1,0-0.1,0-0.2c0-0.1,0-0.1,0.1-0.1c0,0,0.1,0,0.2,0c0.7,0.2,1.4,0.4,2.1,0.6c0.2,0,0.2,0.2,0.2,0.3
						s-0.1,0.2-0.3,0.3c-0.3,0.1-0.4,0.1-0.5,0.3c-0.1,0.6-0.2,1.2-0.3,1.8c0.6,1.2,1.4,2.1,2.8,2.6c0.1,0,0.1,0.1,0.2,0.1
						c0-0.6,0-1.4,0-2.3c0-2,0-4.4,0-5.5h-3.1c-0.6,0-1.3,0-1.6,0.1c0,0-0.1,0-0.1,0c-0.1,0-0.2-0.1-0.2-0.2
						c-0.1-0.1-0.2-0.3-0.2-0.5c0,0,0-0.1,0-0.1s0-0.1,0.1-0.1c0,0,0.1,0,0.2,0c0.4,0.1,1.3,0.2,1.9,0.2h7c0.1,0,0.2,0,0.3-0.2
						c0.3-0.4,0.6-0.8,0.9-1.1c0.1-0.1,0.1-0.1,0.2-0.1c0.1,0,0.1,0,0.2,0.1c0.1,0.1,0.2,0.2,0.3,0.3c0.3-0.5,0.5-1.1,0.7-1.7h-11.5
						c0,0.2,0.1,0.5,0.1,0.7c0,0.8-0.2,1.6-0.9,2c-0.2,0.2-0.5,0.2-0.7,0.2c-0.5,0-0.9-0.4-0.9-0.9c0-0.2,0-0.4,0.2-0.6
						c0.5-0.9,1.4-0.8,1.6-2.7c0-0.2,0.1-0.3,0.2-0.3s0.2,0.1,0.2,0.3c0.1,0.2,0.2,0.6,0.2,0.9h4.8c0-0.3,0-0.7,0-1
						c0-0.4,0-0.7,0-0.8c-0.1-0.3-0.1-0.5-0.1-0.6c0-0.1,0-0.1,0.1-0.1c0,0,0.1,0,0.2,0c0.7,0.1,1.4,0.2,2.1,0.3
						c0.2,0,0.4,0.2,0.4,0.3c0,0.1-0.1,0.2-0.4,0.3c-0.3,0.1-0.3,0.2-0.3,0.4c0,0.4,0,0.7,0,1.2h4.5c0.2,0,0.2,0,0.4-0.1
						c0.1-0.1,0.5-0.5,0.6-0.6c0.1-0.1,0.1-0.1,0.2-0.1c0.1,0,0.1,0,0.2,0.1c0.5,0.4,1.1,1,1.5,1.4c0.2,0.2,0.3,0.4,0.3,0.6
						c0,0.2-0.2,0.4-0.6,0.4c-0.1,0-0.1,0-0.2,0c-0.1,0-0.2,0-0.3,0c-0.6,0-1,0.3-1.9,0.9c0.3,0.3,0.6,0.5,0.9,0.8
						C196,36,196,36,196,36.1c0,0.1-0.1,0.2-0.3,0.2h-5.1c0,0.8,0,2.1,0,3.6h2.1c0.2,0,0.2,0,0.3-0.1c0.2-0.2,0.6-0.8,0.9-1.2
						c0.1-0.1,0.2-0.1,0.3,0c0.4,0.3,1.2,1,1.6,1.4c0.1,0.1,0.1,0.1,0.1,0.2c0,0.1-0.1,0.2-0.2,0.2h-5.1c0,1.5,0,3.1,0,4.1
						c0.7,0.1,1.4,0.1,2.2,0.1c1.6,0,3.3-0.1,5-0.2c0,0,0.1,0,0.1,0c0.2,0,0.2,0.1,0.2,0.1C198.1,44.5,198.1,44.5,197.9,44.6z"/>
				</g>
				<g>
					<path class="st1" d="M215.1,45.1c-1.4,0.2-2.5,0.2-3.5,0.2c-0.6,0-1,0-1.5,0c-2-0.2-3.4-1.3-3.4-3.6c0-0.1,0-0.2,0-0.2
						c0-1.1,0.1-2.1,0.1-3.4c-1.3,0.4-1.8,0.6-2.5,1c-0.7,0.3-0.7,0.7-1.2,0.8c-0.1,0-0.1,0-0.2,0c-0.8,0-1.9-1.2-1.9-2.3
						c0,0,0-0.1,0-0.1c0-0.2,0-0.2,0.1-0.2c0.1,0,0.1,0.1,0.2,0.2c0.2,0.2,0.5,0.3,1,0.3c0.3,0,0.7,0,1.1-0.1
						c0.8-0.1,1.7-0.3,3.3-0.7c0-1.2,0-2.2-0.1-3.1c0-1-0.2-1.7-1-1.9c-0.2,0-0.3-0.1-0.3-0.2s0.1-0.2,0.2-0.2
						c0.2-0.1,0.5-0.2,0.8-0.2c1.2,0,2.7,0.9,2.7,1.7c0,0,0,0,0,0c0,0.7-0.4,0.4-0.5,1.2c-0.1,0.8-0.1,1.2-0.2,2.2
						c2.1-0.5,2.7-0.6,4.1-1c0.9-0.2,0.8-0.7,1.4-0.7c0.7,0,2.2,1.3,2.2,2c0,0,0,0.1,0,0.1c-0.2,0.6-0.9,0.3-1.4,0.7
						c-1.1,0.9-2.5,1.8-3.8,2.4c-0.3,0.1-0.4,0.2-0.4,0.1c0-0.1,0.1-0.2,0.2-0.3c0.8-0.9,1.7-2.2,2.2-2.9c0.1-0.1,0.1-0.2,0.1-0.2
						c0-0.1-0.1-0.1-0.2-0.1c-0.1,0-0.1,0-0.2,0c-1.4,0.3-2.5,0.6-4.4,1.1c-0.1,1.4-0.2,2.6-0.2,3.9c0,0,0,0,0,0.1
						c0,1,0.5,1.8,1.6,1.8c0.4,0,0.7,0,1.1,0c0.8,0,1.6-0.1,2.4-0.2c0.6-0.1,1-0.3,1.5-0.4c0,0,0.1,0,0.1,0c1.1,0,1.8,0.6,1.8,1.1
						C216.6,44.5,216.1,45,215.1,45.1z"/>
				</g>
				<g>
					<path class="st1" d="M226.8,36.3c-0.4,0-0.9-0.2-1.3-0.8c-0.8-1.1-1.9-2-3.6-2.8c-0.2-0.1-0.3-0.2-0.3-0.2s0.1-0.1,0.4-0.1
						c2,0,4,0.6,5,1.5c0.6,0.5,0.8,1,0.8,1.5C227.7,35.9,227.3,36.3,226.8,36.3z M236.6,34.2c-2.8,4.9-6.5,8.1-11,10.6
						c-0.8,0.5-0.6,0.7-1,0.8c-0.1,0-0.2,0-0.2,0c-1,0-2.6-1.6-2.7-2.9c0,0,0-0.1,0-0.1c0-0.2,0.1-0.3,0.1-0.3
						c0.1,0,0.2,0.1,0.3,0.2c0.3,0.3,0.7,0.5,1.2,0.5c0.4,0,0.9-0.1,1.4-0.3c3.5-1.4,8.4-4.9,11.6-8.7c0,0,0.1-0.1,0.1-0.1
						c0.1-0.1,0.2-0.1,0.2-0.1s0.1,0,0.1,0.1S236.7,34.1,236.6,34.2z"/>
				</g>
				<g>
					<path class="st1" d="M251.6,35.8c-0.7,1.3-1.4,2.5-2.2,3.6c0.6,0.5,1.1,1.1,1.3,1.7c0.1,0.3,0.2,0.6,0.2,0.8
						c0,0.7-0.4,1.2-0.9,1.2c-0.4,0-0.8-0.3-1.1-1c-0.2-0.4-0.4-0.8-0.7-1.2c-2.3,2.6-5.3,4.4-9.5,5.7c-0.1,0-0.2,0-0.2,0
						c-0.1,0-0.1,0-0.1-0.1c0-0.1,0.1-0.1,0.3-0.2c3.3-1.6,6.3-4.1,8.6-6.8c-0.7-0.8-1.5-1.6-2.2-2.1c-0.2-0.2-0.3-0.2-0.3-0.3
						c0,0,0,0,0.1,0c0.1,0,0.2,0,0.4,0.1c0.9,0.2,2,0.6,2.9,1.2c0.8-1.2,1.5-2.4,1.9-3.6c0-0.1,0.1-0.2,0.1-0.2c0-0.1,0-0.1-0.1-0.1
						s-0.1,0-0.2,0c-0.7,0.1-1.6,0.2-2.3,0.2c-0.1,0-0.2,0-0.2,0c-0.3,0-0.5-0.2-0.7-0.4c-1.3,2.5-3.3,4.6-6.4,6.3
						c-0.2,0.1-0.2,0.1-0.3,0.1c0,0-0.1,0-0.1,0c0-0.1,0.1-0.2,0.3-0.3c2.4-2.1,4.6-5.8,5.1-7.7c0.1-0.2,0.1-0.5,0.1-0.7
						c0-0.6-0.3-0.9-0.8-1.1c-0.1,0-0.2-0.1-0.2-0.1c0-0.1,0.1-0.1,0.3-0.2c0.2-0.1,0.5-0.1,0.8-0.1c1.3,0,2.4,0.9,2.4,1.7
						c0,0.1,0,0.1,0,0.2c-0.1,0.4-0.2,0.3-0.4,0.6c-0.1,0.2-0.3,0.4-0.4,0.6c0.9,0,2.1-0.2,2.8-0.3c0.6-0.1,0.6-0.5,1.1-0.5
						c0,0,0,0,0,0c0.7,0,1.9,1.1,1.9,1.8c0,0,0,0.1,0,0.1C252.6,35.4,252,35.2,251.6,35.8z"/>
				</g>
				<g>
					<path class="st1" d="M271.5,39.3c-0.6,0-1.1,0-1.6,0c-0.7,0-1.5,0-2.6,0c-1.4,0-3.4,0-6.6,0.1c-1,0-0.9,0.4-1.6,0.5
						c0,0,0,0,0,0c-1,0-1.8-1.3-1.8-2.5c0-0.2,0-0.3,0.1-0.5c0.1-0.2,0.1-0.3,0.2-0.3c0.1,0,0.2,0.1,0.2,0.3
						c0.3,0.7,1.3,0.8,2.4,0.8c0.6,0,1.1,0,1.6,0c3.4,0,5.1-0.1,9.4-0.2c0.1,0,0.1,0,0.2,0c1.3,0,1.7,0.3,1.7,0.7
						C273.1,38.7,272.4,39.2,271.5,39.3z"/>
				</g>
			</g>
		</g>
		<g>
			<path class="st2" d="M47.3,20.4C47.3,20.4,47.3,20.4,47.3,20.4c-1.7-0.1-3-0.5-3.9-1.2c0.8-0.3,1.5-0.6,2-1c0,0,0.1,0,0.2,0h0.2
				c0.3,0,0.3-0.1,0.3-0.2c0-0.1-0.1-0.2-0.2-0.3c-0.3-0.2-0.7-0.3-1-0.5c0,0-0.1,0-0.1,0c-0.1,0-0.2,0.1-0.2,0.2
				c-0.1,0.4-0.8,1-1.6,1.5c-0.5-0.5-0.9-1.1-1.2-1.8H47c0.2,0,0.3-0.1,0.3-0.2c0-0.1,0-0.2-0.1-0.2c-0.1-0.1-0.4-0.3-0.7-0.6
				c-0.1-0.1-0.2-0.2-0.4-0.3c0,0-0.1-0.1-0.2-0.1c0,0-0.1,0-0.2,0.1l-0.2,0.2c-0.1,0.1-0.2,0.3-0.3,0.4c0,0,0,0-0.1,0h-5.9
				c0-0.4,0-1,0-1.4h6c0.2,0,0.3-0.1,0.3-0.2c0-0.1,0-0.1-0.1-0.2c-0.2-0.2-0.5-0.4-0.9-0.7c-0.1,0-0.1-0.1-0.2-0.1
				c0,0-0.1,0-0.2,0.1c-0.2,0.2-0.3,0.4-0.4,0.5c0,0,0,0-0.1,0h-4.4v-1.2h6c0.2,0,0.3-0.1,0.3-0.2c0-0.1,0-0.2-0.1-0.2
				c-0.2-0.2-0.5-0.4-0.9-0.7c-0.1,0-0.1-0.1-0.2-0.1c-0.1,0-0.1,0-0.2,0.1c-0.2,0.2-0.2,0.3-0.4,0.5c0,0,0,0-0.1,0h-4.4v-1.1h6.8
				c0.2,0,0.2-0.1,0.2-0.2c0-0.1,0-0.1-0.1-0.2c-0.1-0.1-0.5-0.4-0.9-0.7l-0.1-0.1c-0.1,0-0.1-0.1-0.2-0.1c-0.1,0-0.1,0.1-0.2,0.1
				c-0.1,0.2-0.5,0.6-0.5,0.6c0,0,0,0-0.1,0h-4.9c-0.1-0.1-0.6-0.4-1-0.5c-0.1,0-0.1-0.1-0.2-0.1c-0.1,0-0.2,0.1-0.2,0.2
				c0,0.1,0,0.1,0.1,0.3c0,0.1,0.1,0.8,0.1,4.4v1h-1c-0.4,0-0.9,0-1.1-0.1c0,0-0.1,0-0.1,0c-0.1,0-0.2,0.1-0.2,0.2c0,0,0,0.1,0,0.1
				c0,0.1,0.1,0.2,0.1,0.3c0.1,0.1,0.1,0.1,0.2,0.1l0.1,0c0.1,0,0.5-0.1,0.9-0.1h0.9c0,1.2,0,2.3,0,2.9c-0.3,0-0.6,0.1-0.9,0.1
				l-0.4,0c0,0,0,0-0.1,0c0,0,0,0-0.1,0c-0.1,0-0.2,0.1-0.2,0.2c0,0,0,0.1,0,0.1c0.1,0.2,0.2,0.5,0.3,0.7c0.1,0.1,0.1,0.3,0.2,0.4
				c0.1,0.2,0.2,0.2,0.3,0.2c0.1,0,0.3-0.1,0.3-0.3l0,0c0-0.1,0-0.1,0-0.1c1.5-0.4,2.5-0.8,4.1-1.5c0.1,0,0.2-0.1,0.2-0.2
				c0-0.1-0.1-0.2-0.3-0.2l-0.1,0c-0.8,0.2-1.5,0.4-2.3,0.5c0-0.8,0-1.8,0-2.8h1.8c0.9,3.1,2.8,4.1,5.3,4.6h0c0.2,0,0.3-0.1,0.3-0.2
				c0-0.2,0.2-0.5,0.5-0.6c0.1,0,0.2-0.1,0.2-0.2C47.5,20.5,47.4,20.4,47.3,20.4z"/>
			<path class="st2" d="M53.4,14c0.1,0.1,0.2,0.2,0.4,0.2c0.3,0,0.5-0.2,0.5-0.6l0-0.1c0-0.4-0.3-1-1.4-1.5c0,0-0.1,0-0.1,0
				c-0.1,0-0.2,0.1-0.2,0.2c0,0.1,0,0.1,0.1,0.1c0.4,0.4,0.5,0.8,0.6,1.1C53.2,13.7,53.3,13.9,53.4,14z"/>
			<path class="st2" d="M56.9,19.4c0.3,0,0.5-0.1,0.5-0.4l0-0.4c0-0.5,0-0.9,0-1.3c0-0.4,0-0.7,0-0.9v0c0-0.1,0-0.1,0.1-0.2
				c0.2-0.1,0.3-0.2,0.3-0.3c0-0.1,0-0.2-0.3-0.3l-0.2,0c-0.4-0.1-0.5-0.1-0.6-0.1h-0.1c-0.1,0-0.2,0.1-0.2,0.2c0,0,0,0.1,0,0.1
				c0,0.1,0,0.2,0,0.3c0,0.1,0,0.4,0,0.8c0,0.4,0,0.8,0,1.3h-1.2v-0.9c0-0.8,0-1.9,0-2.5h2.9c0.3,0,0.3-0.1,0.3-0.2
				c0-0.1,0-0.1-0.1-0.2c-0.1-0.2-0.7-0.7-0.8-0.7c-0.1,0-0.1-0.1-0.2-0.1c-0.1,0-0.1,0.1-0.2,0.1c0,0.1-0.1,0.2-0.2,0.3
				c-0.1,0.1-0.2,0.3-0.2,0.3c0,0,0,0-0.1,0h-1.1c0.3-0.3,0.5-0.7,0.7-0.9c0.1-0.2,0.2-0.4,0.3-0.4c0,0,0.1,0,0.3-0.1
				c0.2,0,0.3-0.2,0.3-0.3c0-0.1-0.1-0.2-0.2-0.3l-0.1,0c-0.3-0.1-0.7-0.3-0.9-0.4l0,0c0,0-0.1,0-0.1,0c-0.1,0-0.2,0-0.2,0.2
				c0,0.2-0.3,1.4-0.7,2.2h-2.4c-0.4,0-0.9,0-1-0.1l0,0c0,0-0.1,0-0.1,0c-0.1,0-0.2,0.1-0.2,0.2l0,0.1c0,0.1,0.1,0.2,0.1,0.3
				c0.1,0.1,0.1,0.1,0.2,0.1l0.1,0c0.1,0,0.5-0.1,0.9-0.1h1.8c0,0.8,0,2.5,0,3.3H53c0-0.1,0-0.3,0-0.4c0-0.2,0-0.3,0-0.5
				c0-0.2,0-0.5,0-0.8v0c0-0.1,0-0.1,0.1-0.2c0.2-0.1,0.3-0.2,0.3-0.3c0-0.1,0-0.2-0.3-0.3l-0.2,0c-0.4-0.1-0.5-0.1-0.6-0.1h-0.1
				c-0.2,0-0.2,0.1-0.2,0.2c0,0,0,0.1,0,0.1c0,0.1,0,0.2,0,0.3c0,0.2,0,2.2,0,3.2v0.1c0,0.2,0.1,0.3,0.4,0.3h0.1
				c0.4,0,0.5-0.1,0.5-0.4v-0.1c0-0.1,0-0.2,0-0.4c0-0.1,0-0.2,0-0.3h3.5c0,0,0,0.1,0,0.1c0,0.1,0,0.2,0,0.2v0.1
				c0,0.2,0,0.3,0.3,0.3C56.8,19.5,56.9,19.5,56.9,19.4z"/>
			<path class="st2" d="M59.8,11.3c-0.2-0.1-0.5-0.4-0.6-0.5c-0.1,0-0.1-0.1-0.2-0.1c-0.1,0-0.2,0.1-0.2,0.1
				c-0.1,0.1-0.2,0.3-0.3,0.4c0,0,0,0-0.1,0h-7.3c-0.1-0.1-0.7-0.4-0.9-0.5c-0.1,0-0.1-0.1-0.2-0.1c-0.1,0-0.2,0.1-0.2,0.2
				c0,0.1,0,0.1,0.1,0.3c0.1,0.1,0.1,1.3,0.1,4c0,2.1,0,4.5-0.1,6v0.1c0,0.3,0.1,0.5,0.5,0.5h0.1c0.4,0,0.6-0.1,0.6-0.5
				c0-1.1,0-2.2,0-3.3c0-1.9,0-3.6,0-4.8c0-0.6,0-1,0-1.3h7.5c0,0.5,0,2.3,0,4.4c0,1.6,0,3,0,4.1c0,0.1,0,0.1,0,0.1c0,0,0,0-0.1,0
				c-0.3,0-0.9,0-1.4-0.1l0,0c-0.2,0-0.2,0.1-0.2,0.2c0,0.1,0.1,0.2,0.2,0.2c0.2,0.1,0.3,0.1,0.4,0.2C57.9,21,58,21,58,21.5
				c0,0.2,0.2,0.3,0.3,0.3h0l0,0c1.1-0.1,1.2-0.7,1.2-1.2v-0.2c0-0.6,0-2.2,0-3.8c0-2,0-4,0-4.5c0,0,0,0,0.1-0.1l0.1,0
				c0.2-0.1,0.3-0.2,0.3-0.3C60,11.5,59.9,11.4,59.8,11.3L59.8,11.3z"/>
			<path class="st2" d="M72.7,11.8c-0.1-0.1-0.3-0.2-0.4-0.3c0,0-0.1-0.1-0.2-0.1c0,0-0.1,0-0.2,0.1c-0.2,0.2-0.3,0.4-0.5,0.7
				c0,0,0,0-0.1,0h-3.1c0-0.2,0-0.3,0-0.7v0c0-0.1,0-0.1,0.1-0.2c0.2-0.1,0.3-0.2,0.3-0.3c0-0.1-0.1-0.2-0.3-0.3L68,10.6
				c-0.2,0-0.3,0-0.5-0.1c-0.1,0-0.1,0-0.1,0c-0.1,0-0.2,0.1-0.2,0.2c0,0,0,0.1,0,0.2c0,0.1,0,0.2,0,0.3c0,0.1,0,0.6,0,1h-3.7
				c-0.4,0-0.9,0-1.1-0.1c0,0-0.1,0-0.1,0c-0.1,0-0.2,0.1-0.2,0.2c0,0,0,0.1,0,0.1c0,0.1,0.1,0.2,0.1,0.3c0.1,0.1,0.1,0.1,0.2,0.1
				l0.1,0c0.1,0,0.5-0.1,0.9-0.1h3.6c0,0,0,0.1,0,0.1c0,0,0,0.1,0,0.1c0,0.1,0,0.2,0,0.3l0,0.1c0,0.2,0,0.5,0,0.9v0.4h-2.4
				c-0.1-0.1-0.7-0.4-0.9-0.5c-0.1,0-0.1,0-0.2,0c-0.1,0-0.2,0.1-0.2,0.2c0,0.1,0,0.2,0.1,0.3c0.1,0.2,0.1,1.2,0.1,2.5
				c0,1.2,0,2.2-0.1,2.8V20c0,0.3,0.1,0.4,0.5,0.4h0.1c0.4,0,0.6-0.1,0.6-0.5c0-1.2,0-2.7,0-3.8v-0.9h2.5v1c0,1.1,0,2.9,0,5.1
				c0,0.3,0.1,0.5,0.5,0.5h0.1c0.4,0,0.6-0.1,0.6-0.5c-0.1-2.8-0.1-4.8-0.1-6.1h2.6c0,0.2,0,0.4,0,0.6c0,0.3,0,0.6,0,0.9
				c0,0.7,0,1.5,0,2.2c0,0,0,0.1,0,0.1c0,0,0,0-0.1,0h-0.1c-0.4,0-1.1,0-1.3-0.1h0c-0.2,0-0.2,0.1-0.2,0.2c0,0.1,0.1,0.2,0.2,0.2
				c0.1,0,0.2,0.1,0.3,0.1c0.5,0.2,0.7,0.2,0.8,0.7c0,0.2,0.1,0.2,0.2,0.2l0.1,0c1.1-0.2,1.3-0.7,1.3-1.2v-0.8c0-1.2,0-2.5,0-2.8
				c0,0,0,0,0.1-0.1c0,0,0.1,0,0.1-0.1c0.2-0.1,0.2-0.2,0.2-0.3c0-0.1-0.1-0.2-0.1-0.3c-0.2-0.2-0.5-0.4-0.7-0.6
				c-0.1-0.1-0.1-0.1-0.2-0.1c-0.1,0-0.1,0.1-0.2,0.1c-0.1,0.1-0.1,0.2-0.2,0.3c0,0.1-0.1,0.1-0.1,0.1c0,0,0,0-0.1,0h-2.4
				c0-0.5,0-0.9,0-1.1c0,0,0,0,0-0.1c0-0.1,0-0.1,0.1-0.2c0.2-0.1,0.3-0.2,0.3-0.3c0-0.1,0-0.2-0.3-0.3c-0.1,0-0.3-0.1-0.4-0.1h5.2
				c0.2,0,0.3-0.1,0.3-0.2c0-0.1,0-0.1-0.1-0.2C73.2,12.2,73,12,72.7,11.8z"/>
			<path class="st2" d="M78.4,15.1c-0.6,0-1,0.4-1,1c0,0.5,0.5,1,1,1s1-0.4,1-1C79.4,15.5,79,15.1,78.4,15.1z"/>
			<path class="st2" d="M84.3,12.2c0,0.1,0.1,0.1,0.2,0.1l0.1,0c0.1,0,0.5-0.1,0.9-0.1h8.1c0.2,0,0.3-0.1,0.3-0.2
				c0-0.1,0-0.2-0.1-0.2c-0.2-0.2-0.7-0.6-1-0.8c0,0-0.1-0.1-0.2-0.1c0,0-0.1,0-0.2,0.1c-0.2,0.2-0.3,0.4-0.5,0.7c0,0,0,0-0.1,0
				h-6.3c-0.4,0-0.9,0-1.1-0.1c0,0-0.1,0-0.1,0c-0.1,0-0.2,0.1-0.2,0.2c0,0,0,0.1,0,0.1C84.2,11.9,84.3,12.1,84.3,12.2z"/>
			<path class="st2" d="M93.6,19.5c-0.1,0-0.1-0.1-0.2-0.1c0,0-0.1,0-0.2,0.1c-0.2,0.2-0.3,0.4-0.6,0.7c0,0,0,0-0.1,0h-8
				c-0.4,0-0.9,0-1.1-0.1c0,0-0.1,0-0.1,0c-0.1,0-0.2,0.1-0.2,0.2c0,0,0,0.1,0,0.1c0,0.1,0.1,0.3,0.1,0.4c0.1,0.1,0.1,0.1,0.2,0.1
				l0.1,0c0.1,0,0.5-0.1,0.9-0.1h9.8c0.2,0,0.3-0.1,0.3-0.2c0-0.1,0-0.2-0.1-0.2C94.4,20.2,93.9,19.7,93.6,19.5z"/>
			<path class="st2" d="M92.1,14.9C92,14.9,92,15,91.9,15c-0.1,0.2-0.4,0.6-0.5,0.6c0,0,0,0-0.1,0h-5.3c-0.4,0-0.9,0-1.1-0.1
				c0,0-0.1,0-0.1,0c-0.1,0-0.2,0.1-0.2,0.2c0,0,0,0.1,0,0.1c0,0.1,0.1,0.3,0.1,0.4c0.1,0.1,0.1,0.1,0.2,0.1l0.1,0
				c0.1,0,0.5-0.1,0.9-0.1h7c0.1,0,0.2-0.1,0.2-0.2c0-0.1,0-0.1-0.1-0.2c-0.1-0.1-0.8-0.7-1-0.8C92.2,14.9,92.2,14.9,92.1,14.9z"/>
			<path class="st2" d="M107.5,19.5c-1.9-0.3-3-0.7-4.5-2.2h3.9c0.2,0,0.3-0.1,0.3-0.2c0-0.1,0-0.2-0.1-0.2c-0.2-0.2-0.7-0.6-1-0.8
				c0,0-0.1-0.1-0.2-0.1c0,0-0.1,0-0.2,0.1c-0.2,0.2-0.3,0.4-0.5,0.7c0,0,0,0-0.1,0h-2.8c0-0.3,0-0.5,0-0.6v0c0-0.1,0-0.1,0.1-0.2
				c0.2-0.1,0.3-0.2,0.3-0.3c0-0.1,0-0.2-0.3-0.3c-0.4-0.1-0.8-0.1-1-0.1h-0.1c-0.2,0-0.2,0.1-0.2,0.2c0,0,0,0.1,0,0.1
				c0,0.1,0,0.2,0,0.3c0,0.1,0,0.3,0,0.5c0,0.1,0,0.2,0,0.4h-3.1c-0.4,0-0.9,0-1.1-0.1c0,0-0.1,0-0.1,0c-0.1,0-0.2,0.1-0.2,0.2
				c0,0,0,0.1,0,0.1c0,0.1,0.1,0.2,0.1,0.3c0.1,0.1,0.1,0.1,0.2,0.1l0.1,0c0.1,0,0.5-0.1,0.9-0.1h2.2c-0.9,1.3-2.2,2.3-3.9,3.1
				c0,0-0.2,0.1-0.2,0.2c0,0.1,0.1,0.2,0.2,0.2c0,0,0.1,0,0.1,0c2-0.6,3.5-1.6,4.7-3c0,1.5,0,2.6-0.1,3.4v0c0,0.3,0.2,0.4,0.5,0.4
				h0.1c0.4,0,0.6-0.1,0.6-0.4v-0.1c0-1.3,0-2.8,0-3.9c1.2,1.7,2.3,2.8,4.2,3.4c0.1,0,0.1,0,0.1,0c0.2,0,0.2-0.1,0.2-0.2l0-0.1
				c0.1-0.3,0.2-0.5,0.6-0.6c0.1-0.1,0.2-0.2,0.2-0.2C107.7,19.6,107.7,19.5,107.5,19.5z"/>
			<path class="st2" d="M96.7,16.3c0,0,0.1,0,0.1,0c2-0.3,3.7-0.9,5.2-1.7c1.2,0.8,2.6,1.1,4.6,1.4h0c0.2,0,0.2-0.2,0.2-0.3v0
				c0-0.3,0.2-0.5,0.4-0.5c0.2,0,0.2-0.2,0.2-0.2c0-0.1-0.1-0.2-0.3-0.2h-0.1c-1.7,0-3.1-0.2-4.3-0.7c0.7-0.4,1.3-0.9,1.9-1.5
				c0,0,0.1-0.1,0.3-0.1c0.3,0,0.4-0.1,0.4-0.3c0-0.1-0.1-0.2-0.2-0.3c-0.1-0.1-0.3-0.3-0.6-0.4c-0.1-0.1-0.2-0.1-0.2-0.2
				c-0.1-0.1-0.2-0.1-0.3,0c-0.1,0.1-0.2,0.2-0.3,0.3c-0.1,0.1-0.1,0.1-0.1,0.1H101c0.1-0.1,0.1-0.2,0.2-0.3c0,0,0,0,0.1,0h0.2
				c0.3,0,0.3-0.1,0.3-0.3c0-0.1-0.1-0.2-0.3-0.3c-0.4-0.1-0.7-0.3-1-0.3c-0.1,0-0.1,0-0.2,0c-0.1,0-0.2,0.1-0.2,0.3
				c-0.3,1.1-1.4,2.3-3,3.2c0,0-0.1,0.1-0.1,0.2c0,0.1,0.1,0.2,0.2,0.2c0,0,0,0,0.1,0l0,0c1-0.3,1.9-0.9,2.7-1.6
				c0.5,0.6,1,1,1.3,1.3c-1.3,0.8-2.8,1.4-4.5,1.8c-0.2,0.1-0.4,0.2-0.4,0.3C96.4,16.2,96.5,16.3,96.7,16.3z M102,13.6
				c-0.5-0.3-1.1-0.7-1.6-1.2l0.2-0.2h3C103.1,12.7,102.6,13.2,102,13.6z"/>
			<path class="st2" d="M120,11.8c-0.1-0.1-0.3-0.2-0.4-0.3c0,0-0.1-0.1-0.2-0.1c0,0-0.1,0-0.2,0.1c-0.2,0.2-0.3,0.4-0.5,0.7
				c0,0,0,0-0.1,0h-3.1c0-0.2,0-0.3,0-0.7v0c0-0.1,0-0.1,0.1-0.2c0.2-0.1,0.3-0.2,0.3-0.3c0-0.1-0.1-0.2-0.3-0.3l-0.4-0.1
				c-0.2,0-0.3,0-0.5-0.1c0,0-0.1,0-0.1,0c-0.1,0-0.2,0.1-0.2,0.2c0,0,0,0.1,0,0.2c0,0.1,0,0.2,0,0.3c0,0.1,0,0.6,0,1h-3.7
				c-0.4,0-0.9,0-1-0.1l0,0c0,0-0.1,0-0.1,0c-0.1,0-0.2,0.1-0.2,0.2c0,0,0,0.1,0,0.1c0,0.1,0.1,0.2,0.1,0.3c0,0.1,0.1,0.1,0.2,0.1
				l0.1,0c0.1,0,0.5-0.1,0.9-0.1h3.6c0,0,0,0.1,0,0.1c0,0,0,0.1,0,0.1c0,0.1,0,0.2,0,0.3l0,0.1c0,0.2,0,0.5,0,0.9v0.4h-2.4
				c-0.1-0.1-0.7-0.4-0.9-0.5c-0.1,0-0.1,0-0.2,0c-0.1,0-0.2,0.1-0.2,0.2c0,0.1,0,0.2,0.1,0.3c0.1,0.2,0.1,1.2,0.1,2.5
				c0,1.2,0,2.2-0.1,2.8V20c0,0.3,0.1,0.4,0.5,0.4h0.1c0.4,0,0.6-0.1,0.6-0.5c0-1.2,0-2.7,0-3.8v-0.9h2.5v1c0,1.1,0,2.9,0,5.1
				c0,0.3,0.1,0.5,0.5,0.5h0.1c0.4,0,0.6-0.1,0.6-0.5c-0.1-2.8-0.1-4.8-0.1-6.1h2.6c0,0.2,0,0.4,0,0.6c0,0.3,0,0.6,0,0.9
				c0,0.7,0,1.5,0,2.2c0,0,0,0.1,0,0.1c0,0,0,0-0.1,0h-0.1c-0.4,0-1.1,0-1.3-0.1h0c-0.2,0-0.2,0.1-0.2,0.2c0,0.1,0.1,0.2,0.2,0.2
				c0.1,0,0.2,0.1,0.3,0.1c0.5,0.2,0.7,0.2,0.8,0.7c0,0.2,0.1,0.2,0.2,0.2l0.1,0c1.1-0.2,1.3-0.7,1.3-1.2v-0.8c0-1.2,0-2.5,0-2.8
				c0,0,0,0,0.1-0.1c0,0,0.1,0,0.1-0.1c0.2-0.1,0.2-0.2,0.2-0.3c0-0.1-0.1-0.2-0.1-0.3c-0.2-0.2-0.5-0.4-0.7-0.6
				c-0.1-0.1-0.1-0.1-0.2-0.1c-0.1,0-0.1,0.1-0.2,0.1c-0.1,0.1-0.1,0.2-0.2,0.3c0,0.1-0.1,0.1-0.1,0.1c0,0,0,0-0.1,0h-2.4
				c0-0.5,0-0.9,0-1.1c0,0,0,0,0-0.1c0-0.1,0-0.1,0.1-0.2c0.2-0.1,0.3-0.2,0.3-0.3c0-0.1,0-0.2-0.3-0.3c-0.1,0-0.3-0.1-0.4-0.1h5.2
				c0.2,0,0.3-0.1,0.3-0.2c0-0.1,0-0.1-0.1-0.2C120.5,12.2,120.2,12,120,11.8z"/>
			<path class="st2" d="M125.7,15.1c-0.6,0-1,0.4-1,1c0,0.5,0.5,1,1,1s1-0.4,1-1C126.6,15.5,126.2,15.1,125.7,15.1z"/>
			<path class="st2" d="M141.5,20c0,0,0-0.1,0-0.2c0-0.2,0-0.5,0-1.1c0-0.1-0.1-0.3-0.2-0.3c-0.1,0-0.2,0-0.2,0.3
				c-0.3,1.5-0.4,1.5-0.8,1.6c-0.1,0-0.1,0-0.2,0c-0.4,0-1.6,0.1-2,0c-0.3,0-0.3-0.1-0.3-0.3c0-0.1,0-0.1,0-0.2c0-0.1,0-0.1,0-0.2
				c0-0.3,0-0.6,0-1c0-0.3,0-0.7,0-1h0.9v0.2c0,0.3,0.2,0.5,0.5,0.5h0.1c0.3,0,0.6-0.1,0.6-0.5c0-0.5,0-1.6,0-2.9c0-1.3,0-2.6,0-3
				c0,0,0,0,0.1,0c0,0,0.1,0,0.1-0.1c0.2-0.1,0.3-0.2,0.3-0.3c0-0.1,0-0.2-0.1-0.2c-0.1-0.1-0.2-0.2-0.4-0.3
				c-0.1-0.1-0.3-0.2-0.3-0.2c-0.1,0-0.1-0.1-0.2-0.1c-0.1,0-0.1,0.1-0.2,0.1l0,0c0,0-0.1,0.1-0.2,0.2c-0.1,0.1-0.1,0.1-0.2,0.2
				c0,0,0,0-0.1,0h-4.8c-0.1-0.1-0.7-0.4-0.9-0.4c-0.1,0-0.1,0-0.2,0c-0.1,0-0.2,0-0.2,0.2c0,0.1,0,0.1,0,0.2c0,0.1,0.1,1.1,0.1,2.8
				c0,1.5,0,3.3-0.1,3.9v0.1c0,0.3,0.2,0.4,0.5,0.4h0.1c0.3,0,0.6-0.1,0.6-0.5v-0.2h0.7c-0.1,1.6-0.8,2.6-3.8,3.7
				c0,0-0.2,0.1-0.2,0.2c0,0.1,0.1,0.2,0.2,0.2l0.1,0c3.2-0.5,4.5-1.6,4.7-4.1h1.2c0,1.2,0,1.3,0,2.8c0,0.8,0.6,0.9,0.9,0.9
				c0.3,0,0.8,0.1,1.3,0.1c0.8,0,1.8-0.1,2.3-0.2c0.4-0.1,0.7-0.4,0.7-0.7c0-0.2-0.1-0.3-0.2-0.4C141.6,20,141.6,20,141.5,20z
				 M138.8,15.4c0,0.5,0,1.1,0,1.7h-5v-1.7H138.8z M133.7,12.9c0-0.6,0-1,0-1.3h5c0,0.2,0,0.7,0,1.3H133.7z M133.7,14.9v-1.5h5v1.5
				H133.7z"/>
			<path class="st2" d="M154.4,12.6c0,0-0.1-0.1-0.2-0.1c-0.1,0-0.2,0.1-0.2,0.1c-0.1,0.1-0.2,0.3-0.3,0.5l0,0.1c0-0.8,0-1.4,0-1.8
				c0-0.1,0-0.1,0.1-0.1c0.3-0.1,0.3-0.2,0.3-0.3c0-0.1,0-0.2-0.3-0.3c-0.2,0-0.8-0.1-0.9-0.1c-0.1,0-0.1,0-0.1,0c0,0-0.2,0-0.2,0.2
				c0,0,0,0.1,0,0.1c0,0.1,0,0.2,0,0.4c0,0.2,0,0.8,0,1.6v0.5h-1.6c-0.4,0-0.8,0-1-0.1c0,0-0.1,0-0.1,0c-0.1,0-0.2,0.1-0.2,0.2
				c0,0,0,0.1,0,0.1c0,0.1,0.1,0.2,0.1,0.3c0.1,0.1,0.1,0.1,0.2,0.1l0.1,0c0.1,0,0.5-0.1,0.8-0.1h1.6c0,2.2,0,5.3,0,6.5
				c0,0,0,0.1,0,0.1c0,0,0,0-0.1,0c-0.3,0-0.7,0-1.3-0.1h0c-0.2,0-0.2,0.1-0.2,0.2c0,0.1,0.1,0.2,0.2,0.2c0.1,0,0.2,0.1,0.3,0.1
				c0.5,0.1,0.6,0.2,0.7,0.7c0,0.2,0.1,0.2,0.2,0.2l0.1,0c1.1-0.2,1.2-0.7,1.2-1.2v-0.2c0-1.1,0-2.7,0-4.3c0-0.8,0-1.6,0-2.3h1
				c0.2,0,0.3-0.2,0.3-0.2c0,0,0-0.1-0.1-0.2C154.8,13.2,154.5,12.8,154.4,12.6z"/>
			<path class="st2" d="M149.6,13.6c0,0-0.1,0-0.1,0c0.4-0.7,0.7-1.4,0.9-2l0-0.1c0,0,0-0.1,0.1-0.1c0.4,0,0.4-0.2,0.4-0.3
				c0-0.1-0.1-0.3-0.2-0.3c-0.2-0.1-0.5-0.2-0.7-0.2l-0.3-0.1c-0.1,0-0.1,0-0.1,0c-0.2,0-0.2,0.1-0.2,0.2c0,0,0,0,0,0.1
				c-0.2,0.7-0.8,3.2-2.3,5.3c-0.1-0.3-0.3-0.6-0.5-0.9c-0.2-0.2-0.3-0.4-0.6-0.7c0.5-0.8,1.1-2,1.4-2.5c0,0,0,0,0.1-0.1
				c0,0,0.1,0,0.1,0c0.2,0,0.3-0.1,0.3-0.3c0-0.1-0.1-0.2-0.1-0.2c-0.1-0.1-0.5-0.4-0.7-0.5c0,0-0.1-0.1-0.2-0.1
				c-0.1,0-0.1,0.1-0.2,0.1c0,0-0.1,0.1-0.1,0.2c-0.1,0.1-0.1,0.1-0.2,0.2c0,0,0,0-0.1,0h-1c-0.2-0.1-0.6-0.3-0.8-0.5
				c-0.2-0.1-0.4,0-0.4,0.1c0,0.1,0,0.2,0.1,0.3c0,0.1,0.1,0.6,0.1,3.5c0,2.6-0.1,5.6-0.1,6.6v0.1c0,0.3,0.2,0.4,0.5,0.4
				c0,0,0,0,0,0c0.4-0.1,0.6-0.2,0.6-0.5c0-0.5,0-1.8,0-3.2c0,0,0,0,0,0c0.1,0,0.2,0.1,0.2,0.1c0.3,0.1,0.5,0.2,0.5,0.5
				c0,0.2,0.2,0.2,0.2,0.2c0,0,0.1,0,0.1,0l0-0.1c0,0,0,0,0,0l0.1,0.1c0.3-0.1,1-0.3,1.1-1.1c0-0.1,0-0.2,0-0.3c0-0.3,0-0.6-0.1-0.9
				c0.3-0.2,0.8-0.8,1.2-1.4c0,0.5,0,0.9,0,1.4c0,1.5,0,3.1-0.1,4.6c0,0.1,0,0.3,0.1,0.4c0.1,0.1,0.1,0.1,0.2,0.1c0.1,0,0.1,0,0.2,0
				l0,0c0.3,0,0.5-0.1,0.5-0.5c0-1.5,0-3,0-4.3c0-0.6,0-1.1,0-1.6c0-0.4,0-0.8,0-1.1c0,0,0-0.1,0-0.1c0,0,0,0,0.1,0
				c0.1,0,0.3-0.1,0.3-0.3C149.9,13.8,149.7,13.7,149.6,13.6z M145.2,11.7h1.1c-0.2,0.8-0.5,1.8-0.8,2.8l0,0.1l0.1,0.1
				c0.6,0.7,0.9,1.8,0.9,2.5c0,0.3,0,0.4-0.1,0.5c0,0-0.1,0.1-0.3,0.1c-0.1,0-0.2,0-0.4,0c-0.1,0-0.2,0-0.4,0c0,0-0.1,0-0.1,0
				C145.2,15.2,145.2,12.3,145.2,11.7z"/>
			<path class="st2" d="M151.5,18c0.3,0,0.6-0.3,0.6-0.7v-0.1c0-0.7-0.6-1.6-1.4-2.3c-0.1,0-0.1-0.1-0.2-0.1c-0.1,0-0.2,0.1-0.2,0.2
				c0,0.1,0,0.1,0.1,0.2c0.5,0.7,0.6,1.4,0.6,2c0,0.1,0,0.2,0,0.3C151,17.8,151.3,18,151.5,18z"/>
			<path class="st2" d="M167.2,11.8c-0.2-0.1-0.3-0.2-0.4-0.3c0,0-0.1-0.1-0.2-0.1c0,0-0.1,0-0.2,0.1c-0.2,0.2-0.3,0.4-0.5,0.7
				c0,0,0,0-0.1,0h-3.1c0-0.2,0-0.3,0-0.7v0c0-0.1,0-0.1,0.1-0.2c0.2-0.1,0.3-0.2,0.3-0.3c0-0.1-0.1-0.2-0.3-0.3l-0.4-0.1
				c-0.2,0-0.3,0-0.5-0.1c0,0-0.1,0-0.1,0c-0.1,0-0.2,0.1-0.2,0.2c0,0,0,0.1,0,0.2c0,0.1,0,0.2,0,0.3c0,0.1,0,0.6,0,1H158
				c-0.4,0-0.9,0-1-0.1l0,0c0,0-0.1,0-0.1,0c-0.1,0-0.2,0.1-0.2,0.2c0,0,0,0.1,0,0.1c0,0.1,0.1,0.2,0.1,0.3c0.1,0.1,0.1,0.1,0.2,0.1
				l0.1,0c0.1,0,0.5-0.1,0.9-0.1h3.6c0,0,0,0.1,0,0.1c0,0,0,0.1,0,0.1c0,0.1,0,0.2,0,0.3l0,0.1c0,0.2,0,0.5,0,0.9v0.4h-2.4
				c-0.1-0.1-0.7-0.4-0.9-0.5c-0.1,0-0.1,0-0.2,0c-0.1,0-0.2,0.1-0.2,0.2c0,0.1,0,0.2,0.1,0.3c0.1,0.2,0.1,1.1,0.1,2.5
				c0,1.2,0,2.2-0.1,2.8V20c0,0.3,0.1,0.4,0.5,0.4h0.1c0.4,0,0.6-0.1,0.6-0.5c0-1.2,0-2.7,0-3.8v-0.9h2.5v1c0,1.1,0,2.9,0,5.1
				c0,0.3,0.1,0.5,0.5,0.5h0.1c0.4,0,0.6-0.1,0.6-0.5c-0.1-2.8-0.1-4.8-0.1-6.1h2.6c0,0.2,0,0.4,0,0.6c0,0.3,0,0.6,0,0.9
				c0,0.7,0,1.5,0,2.2c0,0,0,0.1,0,0.1c0,0,0,0-0.1,0H165c-0.4,0-1.1,0-1.3-0.1h0c-0.2,0-0.2,0.1-0.2,0.2c0,0.1,0.1,0.2,0.2,0.2
				c0.1,0,0.2,0.1,0.3,0.1c0.5,0.2,0.7,0.2,0.8,0.7c0,0.2,0.1,0.2,0.2,0.2l0.1,0c1.1-0.2,1.3-0.7,1.3-1.2v-0.8c0-1,0-2.1,0-2.8
				c0,0,0,0,0.1-0.1c0,0,0.1,0,0.1-0.1c0.2-0.1,0.2-0.2,0.2-0.3c0-0.1-0.1-0.2-0.1-0.3c-0.2-0.2-0.5-0.4-0.7-0.6
				c-0.1-0.1-0.1-0.1-0.2-0.1c-0.1,0-0.2,0.1-0.2,0.1c-0.1,0.1-0.1,0.2-0.2,0.3c0,0.1-0.1,0.1-0.1,0.1c0,0,0,0-0.1,0h-2.4
				c0-0.5,0-0.9,0-1.1c0,0,0,0,0-0.1c0-0.1,0-0.1,0.1-0.2c0.2-0.1,0.3-0.2,0.3-0.3c0-0.1,0-0.2-0.3-0.3c-0.1,0-0.3-0.1-0.4-0.1h5.2
				c0.2,0,0.3-0.1,0.3-0.2c0-0.1,0-0.1-0.1-0.2C167.7,12.2,167.5,12,167.2,11.8z"/>
			<path class="st2" d="M172.9,15.1c-0.6,0-1,0.4-1,1c0,0.5,0.5,1,1,1s1-0.4,1-1C173.9,15.5,173.4,15.1,172.9,15.1z"/>
			<path class="st2" d="M182.6,13.7c0.2,0,0.3-0.1,0.3-0.2c0-0.1,0-0.2-0.1-0.2c-0.1-0.1-0.6-0.6-0.8-0.7c0,0-0.1-0.1-0.2-0.1
				c0,0,0,0,0,0c-0.1,0-0.2,0.1-0.2,0.1c0,0.1-0.1,0.2-0.2,0.3c-0.1,0.1-0.2,0.3-0.2,0.3c0,0,0,0-0.1,0H181c0-0.9,0-1.6,0-1.8
				c0,0,0,0,0-0.1c0-0.1,0-0.1,0.1-0.2c0.2-0.1,0.3-0.2,0.3-0.3c0-0.1,0-0.2-0.3-0.3c-0.4-0.1-0.8-0.1-0.9-0.1h-0.1
				c-0.2,0-0.2,0.1-0.2,0.2c0,0,0,0.1,0,0.1c0,0.1,0,0.2,0,0.4c0,0.1,0,0.8,0,2.1h-0.8c-0.4,0-0.9,0-1.1-0.1c0,0-0.1,0-0.1,0
				c-0.1,0-0.2,0.1-0.2,0.2c0,0,0,0.1,0,0.1c0,0.1,0.1,0.2,0.1,0.3c0.1,0.1,0.1,0.1,0.2,0.1l0.1,0c0.1,0,0.5-0.1,0.9-0.1h0.6
				c-0.5,2.2-1.4,3.7-2.1,4.9c0,0.1,0,0.1,0,0.1c0,0.1,0.1,0.2,0.2,0.2c0.1,0,0.1,0,0.1-0.1c0.7-0.7,1.5-1.9,1.9-2.8
				c0,1.9,0,4.2-0.1,5.2v0c0,0.4,0.3,0.4,0.5,0.4h0.1c0.4,0,0.6-0.1,0.6-0.4v-0.1c0-1.1,0-3.5,0-4.8V15c0.4,0.5,0.5,1.1,0.6,1.6
				c0.1,0.2,0.2,0.4,0.5,0.4c0.3,0,0.6-0.2,0.6-0.6c0-0.1,0-0.1,0-0.2c-0.1-0.7-1-1.4-1.7-1.8v-0.6H182.6z M182.8,13.5L182.8,13.5
				L182.8,13.5L182.8,13.5z"/>
			<path class="st2" d="M188.2,12.6c-0.1-0.1-0.2-0.2-0.3-0.2c-0.1,0-0.1-0.1-0.2-0.1c-0.1,0-0.1,0.1-0.2,0.1l0,0
				c0,0-0.1,0.1-0.2,0.2c-0.1,0.1-0.1,0.1-0.1,0.1c0,0,0,0-0.1,0h-1.9c0.3-0.4,0.7-1.1,0.9-1.4c0,0,0.1-0.1,0.2-0.1c0,0,0.1,0,0.1,0
				c0.2,0,0.2-0.2,0.2-0.2c0-0.1-0.1-0.2-0.2-0.3c-0.2-0.1-0.8-0.2-1.2-0.3l-0.1,0c-0.1,0-0.2,0-0.2,0.2v0.1c0,0.4-0.2,1.3-0.4,2
				H184c-0.1-0.1-0.7-0.4-0.9-0.4c-0.1,0-0.1,0-0.2,0c0,0-0.2,0-0.2,0.2c0,0,0,0.1,0,0.2c0,0.1,0.1,1.2,0.1,3.4c0,1.6,0,3.9-0.1,5.1
				v0c0,0.3,0.1,0.5,0.5,0.5h0.1c0.3,0,0.6-0.1,0.6-0.5v-0.6h3.3c0,0.2,0,0.4,0,0.5v0c0,0.3,0.2,0.5,0.5,0.5h0.1
				c0.3,0,0.5-0.1,0.5-0.5c0-1.2,0-3,0-4.7c0-1.3,0-2.5,0-3.1c0,0,0,0,0.1,0c0,0,0.1,0,0.1-0.1c0.2-0.1,0.3-0.2,0.3-0.3
				s0-0.2-0.1-0.2C188.4,12.8,188.3,12.7,188.2,12.6z M187.2,16.6v0.9c0,0.9,0,1.9,0,2.6h-3.3v-3.6H187.2z M183.9,16.1
				c0-0.7,0-1.3,0-1.9c0-0.4,0-0.7,0-1h3.2c0,0.4,0,1.5,0,2.8H183.9z"/>
			<path class="st2" d="M201.3,14.4L201.3,14.4c-0.1,0-0.1-0.1-0.2-0.1c-0.1,0-0.1,0-0.2,0.1c0,0-0.1,0.2-0.2,0.3
				c-0.1,0.1-0.2,0.3-0.2,0.3c0,0,0,0-0.1,0h-3.8c-0.1,0-0.1,0-0.1,0c1-0.4,1.7-0.9,2.1-1.7c0.5,0.2,0.8,0.6,1.2,1.2
				c0.1,0.2,0.3,0.3,0.5,0.3c0.3,0,0.5-0.2,0.5-0.5c0-0.2-0.1-0.3-0.2-0.5c-0.4-0.5-1.1-0.7-1.9-0.9c0-0.1,0.1-0.2,0.1-0.3h2.7
				c0.3,0,0.3-0.2,0.3-0.2c0-0.1,0-0.1-0.1-0.2c-0.1-0.1-0.6-0.6-0.8-0.7l0,0c0,0-0.1-0.1-0.1-0.1c-0.1,0-0.1,0-0.2,0.1
				c0,0-0.1,0.1-0.2,0.2c-0.1,0.1-0.2,0.3-0.2,0.3c0,0,0,0-0.1,0h-1.2c0-0.3,0.1-0.6,0.1-0.9c0,0,0.1,0,0.1,0c0.1,0,0.2-0.1,0.2-0.3
				s-0.1-0.2-0.2-0.3l-0.2,0c-0.2,0-0.5-0.1-0.8-0.1c-0.1,0-0.2,0.1-0.2,0.2c0,0,0,0.1,0,0.1c0,0.2,0,0.3,0,0.5c0,0.3,0,0.5,0,0.8
				H197c-0.4,0-0.9,0-1.1-0.1c0,0-0.1,0-0.1,0c-0.1,0-0.2,0.1-0.2,0.2c0,0,0,0.1,0,0.1c0,0.1,0.1,0.2,0.1,0.3
				c0.1,0.1,0.1,0.1,0.2,0.1l0.1,0c0.1,0,0.5-0.1,0.9-0.1h0.8c-0.2,1-0.7,1.6-1.7,2.1c-0.1,0-0.1,0.1-0.1,0.2c0,0,0,0,0,0.1
				c-0.2,0-0.3,0-0.4-0.1c0,0-0.1,0-0.2,0c0-0.7,0-1.3,0-1.5v0c0-0.1,0-0.1,0.1-0.2c0.2-0.1,0.3-0.2,0.3-0.3c0-0.1,0-0.2-0.3-0.3
				l-0.3-0.1c-0.3-0.1-0.4-0.1-0.5-0.1h-0.1c-0.2,0-0.2,0.1-0.2,0.2c0,0,0,0.1,0,0.1c0,0.1,0,0.2,0,0.3c0,0.1,0,1.5,0,3.2
				c0,0.9,0,1.8,0,2.5h-0.7c0-2.7,0-6.8,0-7.3c0,0,0,0,0-0.1c0-0.1,0-0.1,0.1-0.1c0.3-0.1,0.3-0.2,0.3-0.3c0-0.1,0-0.2-0.3-0.3
				c-0.1,0-0.2,0-0.2,0c-0.2,0-0.3-0.1-0.5-0.1H193c-0.1,0-0.2,0.1-0.2,0.2c0,0,0,0.1,0,0.2c0,0.1,0,0.1,0,0.2c0,0.2,0,1.7,0,3.4
				c0,1.4,0,2.9,0,4.2h-0.7c0-0.9,0-1.9,0-2.9c0-1.2,0-2.1,0-2.4v0c0-0.1,0-0.1,0.1-0.2c0.2-0.1,0.3-0.2,0.3-0.3
				c0-0.1,0-0.2-0.3-0.3l-0.3-0.1c-0.3-0.1-0.4-0.1-0.5-0.1h-0.1c-0.2,0-0.2,0.1-0.2,0.2c0,0,0,0.1,0,0.1c0,0.1,0,0.2,0,0.3
				c0,0.1,0,1.5,0,3.2c0,1.4,0,2.7-0.1,3.5v0.1c0,0.1,0,0.4,0.3,0.4c0.1,0,0.1,0,0.2,0c0.3,0,0.5-0.1,0.5-0.4v-0.1
				c0-0.1,0-0.3,0-0.5h2.3c0,0,0,0.1,0,0.1c0,0.1,0,0.1,0,0.2v0.1c0,0.1,0,0.3,0.3,0.3c0.1,0,0.1,0,0.2,0c0.4-0.1,0.5-0.1,0.5-0.4
				v-0.1c0-1,0-2.6,0-4c0-0.1,0-0.1,0-0.2c0,0,0,0.1,0.1,0.1c0.1,0.1,0.1,0.1,0.2,0.1l0.1,0c0.1,0,0.5-0.1,0.9-0.1h3.4
				c0,0.4,0,1.3,0,2.4c0,0.8,0,1.7,0,2.5c0,0.1,0,0.1,0,0.1c0,0,0,0-0.1,0c-0.3,0-0.9-0.1-1.3-0.1h0c-0.2,0-0.2,0.1-0.2,0.2
				c0,0.1,0.1,0.2,0.2,0.2l0.2,0.1c0.7,0.2,0.8,0.3,0.8,0.6c0,0.1,0,0.3,0.2,0.3h0.1c1.1-0.1,1.3-0.6,1.3-1.1c0-0.1,0-0.1,0-0.2
				c0,0,0-0.1,0-0.1c0-1.4,0-3.5,0-4.9h0.9c0.3,0,0.3-0.2,0.3-0.2c0-0.1,0-0.1-0.1-0.2C202,15,201.5,14.5,201.3,14.4z"/>
			<path class="st2" d="M198.7,19.8c0.3,0,0.5-0.1,0.5-0.5l0-0.1c0-0.4,0-0.9,0-1.2c0-0.2,0-0.3,0-0.4c0-0.1,0-0.2,0-0.3
				c0,0,0,0,0.1,0c0,0,0.1,0,0.1-0.1c0.1-0.1,0.2-0.1,0.2-0.3c0-0.1-0.1-0.2-0.2-0.3c-0.1-0.1-0.2-0.1-0.2-0.2
				c-0.1-0.1-0.2-0.2-0.3-0.2l0,0c0,0-0.1,0-0.2,0c-0.1,0-0.1,0.1-0.2,0.1c0,0-0.1,0.1-0.1,0.1c0,0-0.1,0.1-0.1,0.1c0,0,0,0-0.1,0
				h-1c-0.1-0.1-0.6-0.3-0.8-0.4c0,0-0.1,0-0.1,0c0,0-0.2,0-0.2,0.2c0,0,0,0.1,0,0.2c0.1,0.2,0.1,0.9,0.1,1.6c0,0.6,0,1.1-0.1,1.5
				c0,0,0,0,0,0.1c0,0,0,0.1,0,0.1c0,0.3,0.1,0.4,0.4,0.4h0.1c0.4,0,0.5-0.1,0.5-0.5v-0.3h1.1v0.1C198.2,19.6,198.3,19.8,198.7,19.8
				L198.7,19.8z M198.2,18.7h-1.1c0-0.7,0-1.3,0-1.8h1.1C198.3,17.4,198.3,18.1,198.2,18.7z"/>
			<path class="st2" d="M214.4,11.8c-0.2-0.1-0.3-0.2-0.4-0.3c0,0-0.1-0.1-0.2-0.1c0,0-0.1,0-0.2,0.1c-0.2,0.2-0.3,0.4-0.5,0.7
				c0,0,0,0-0.1,0H210c0-0.2,0-0.3,0-0.7v0c0-0.1,0-0.1,0.1-0.2c0.2-0.1,0.3-0.2,0.3-0.3c0-0.1-0.1-0.2-0.3-0.3l-0.4-0.1
				c-0.2,0-0.3,0-0.5-0.1c0,0-0.1,0-0.1,0c-0.1,0-0.2,0.1-0.2,0.2c0,0,0,0.1,0,0.2c0,0.1,0,0.2,0,0.3c0,0.1,0,0.6,0,1h-3.7
				c-0.4,0-0.9,0-1-0.1l0,0c0,0-0.1,0-0.1,0c-0.1,0-0.2,0.1-0.2,0.2c0,0,0,0.1,0,0.1c0,0.1,0.1,0.2,0.1,0.3c0,0.1,0.1,0.1,0.2,0.1
				l0.1,0c0.1,0,0.5-0.1,0.9-0.1h3.6c0,0,0,0.1,0,0.1c0,0,0,0.1,0,0.1c0,0.1,0,0.2,0,0.3l0,0.1c0,0.2,0,0.5,0,0.9v0.4h-2.4
				c-0.1-0.1-0.7-0.4-0.9-0.5c-0.1,0-0.1,0-0.2,0c-0.1,0-0.2,0.1-0.2,0.2c0,0.1,0,0.2,0.1,0.3c0.1,0.2,0.1,1.1,0.1,2.5
				c0,1.2,0,2.2-0.1,2.8V20c0,0.3,0.1,0.4,0.5,0.4h0.1c0.4,0,0.6-0.1,0.6-0.5c0-1.2,0-2.7,0-3.8v-0.9h2.5v1c0,1.1,0,2.9,0,5.1
				c0,0.3,0.1,0.5,0.5,0.5h0.1c0.4,0,0.6-0.1,0.6-0.5c-0.1-2.8-0.1-4.8-0.1-6.1h2.6c0,0.2,0,0.4,0,0.6c0,0.3,0,0.6,0,0.9
				c0,0.7,0,1.5,0,2.2c0,0,0,0.1,0,0.1c0,0,0,0-0.1,0h-0.1c-0.4,0-1.1,0-1.3-0.1h0c-0.2,0-0.2,0.1-0.2,0.2c0,0.1,0.1,0.2,0.2,0.2
				c0.1,0,0.2,0.1,0.3,0.1c0.5,0.2,0.7,0.2,0.8,0.7c0,0.2,0.1,0.2,0.2,0.2l0.1,0c1.1-0.2,1.3-0.7,1.3-1.2v-0.8c0-1,0-2.1,0-2.8
				c0,0,0,0,0.1-0.1c0,0,0.1,0,0.1-0.1c0.2-0.1,0.2-0.2,0.2-0.3c0-0.1-0.1-0.2-0.1-0.3c-0.2-0.2-0.5-0.4-0.7-0.6
				c-0.1-0.1-0.1-0.1-0.2-0.1c-0.1,0-0.2,0.1-0.2,0.1c-0.1,0.1-0.1,0.2-0.2,0.3c0,0.1-0.1,0.1-0.1,0.1c0,0,0,0-0.1,0h-2.4
				c0-0.5,0-0.9,0-1.1c0,0,0,0,0-0.1c0-0.1,0-0.1,0.1-0.2c0.2-0.1,0.3-0.2,0.3-0.3c0-0.1,0-0.2-0.3-0.3c-0.1,0-0.3-0.1-0.4-0.1h5.2
				c0.2,0,0.3-0.1,0.3-0.2c0-0.1,0-0.1-0.1-0.2C214.9,12.2,214.7,12,214.4,11.8z"/>
			<path class="st2" d="M220.1,15.1c-0.6,0-1,0.4-1,1c0,0.5,0.5,1,1,1c0.5,0,1-0.4,1-1C221.1,15.5,220.7,15.1,220.1,15.1z"/>
			<path class="st2" d="M232.1,15.6c0-0.1,0-0.1,0.1-0.2c0.2-0.1,0.2-0.2,0.2-0.3c0-0.1-0.1-0.2-0.2-0.3c-0.2-0.1-0.4-0.3-0.6-0.4
				l0,0c0,0-0.1,0-0.2,0c-0.1,0-0.1,0-0.2,0.1c0,0-0.1,0.1-0.1,0.1c0,0-0.1,0.1-0.1,0.1c0,0,0,0-0.1,0h-1c-0.1-0.1-0.5-0.3-0.8-0.4
				c-0.1,0-0.1-0.1-0.2-0.1c0,0-0.2,0-0.2,0.2c0,0,0,0.1,0,0.2l0,0.1c0,0.2,0,1.1,0,2c0,0.5,0,1.1,0,1.4v0.1c0,0.3,0.1,0.4,0.4,0.4
				h0.1c0.4,0,0.5-0.1,0.5-0.5v-0.1h1.1v0.1c0,0.2,0.1,0.5,0.4,0.5h0.1c0.3,0,0.5-0.1,0.5-0.5v-0.1c0-0.4,0-1.1,0-1.6
				c0-0.2,0-0.4,0-0.6C232.1,15.8,232.1,15.7,232.1,15.6z M231.1,17.7H230c0-0.8,0-1.8,0-2.3h1.1C231.1,15.9,231.1,17,231.1,17.7z"
				/>
			<path class="st2" d="M235.9,20.4c-0.3-0.6-1-1.1-1.9-1.5c-0.1,0-0.1,0-0.2,0c-0.1,0-0.2,0.1-0.2,0.2c0,0.1,0,0.2,0.1,0.3
				c0.6,0.6,0.9,1.1,1,1.5c0.1,0.1,0.1,0.3,0.2,0.4c0.1,0.2,0.3,0.4,0.6,0.4c0.3,0,0.6-0.3,0.6-0.6c0-0.1,0-0.2,0-0.3
				C236,20.7,235.9,20.5,235.9,20.4z"/>
			<path class="st2" d="M232.9,20.7c-0.1-0.7-0.9-1.4-1.6-1.7c0,0-0.1,0-0.1,0c-0.1,0-0.2,0.1-0.2,0.2c0,0.1,0,0.1,0.1,0.2
				c0.5,0.5,0.6,1,0.7,1.4c0,0.1,0.1,0.3,0.1,0.4c0.1,0.2,0.3,0.3,0.5,0.3c0.3,0,0.6-0.2,0.6-0.6C232.9,20.8,232.9,20.8,232.9,20.7
				L232.9,20.7z"/>
			<path class="st2" d="M236.1,17.5C236.1,17.5,236,17.5,236.1,17.5c-0.1,0-0.1-0.3-0.1-0.5c0-0.1,0-0.3,0-0.5
				c0-0.1-0.1-0.3-0.2-0.3c-0.1,0-0.2,0.1-0.2,0.2c-0.2,0.9-0.2,1.1-0.4,1.2c-0.1,0-0.3,0-0.5,0c-0.1,0-0.3,0-0.5,0
				c-0.3,0-0.3-0.1-0.3-0.3c0-0.1,0-0.3,0-0.5c0-0.2,0-0.5,0-0.8c0.5-0.2,1.2-0.5,1.5-0.7c0,0,0.1-0.1,0.1-0.1c0,0,0.1,0,0.2,0l0,0
				c0.1,0,0.1,0,0.1,0c0.2,0,0.3-0.1,0.3-0.2c0-0.1-0.1-0.2-0.2-0.3c-0.1-0.1-0.1-0.1-0.2-0.2c-0.2-0.1-0.3-0.3-0.4-0.4
				c-0.2-0.1-0.3,0-0.3,0c0,0,0,0,0,0c-0.3,0.5-0.6,0.8-1,1.2c0-0.5,0-0.9,0-1.1c0,0,0,0,0-0.1c0-0.1,0-0.1,0.1-0.2
				c0.2-0.1,0.3-0.2,0.3-0.3c0-0.1-0.1-0.2-0.3-0.3c-0.3-0.1-0.5-0.1-0.8-0.1l-0.1,0c0,0,0,0,0,0c0,0,0,0-0.1,0
				c-0.1,0-0.2,0.1-0.2,0.2c0,0,0,0.1,0,0.1c0,0.1,0,0.2,0,0.4c0,0.2,0,0.8,0,1.4c0,0.8,0,1.6,0,2.1v0.1c0,0.7,0.7,0.8,0.9,0.8
				c0.2,0,0.5,0,0.9,0c0.5,0,0.8,0,1.1-0.1c0.5-0.1,0.7-0.4,0.7-0.6C236.4,17.7,236.3,17.5,236.1,17.5z"/>
			<path class="st2" d="M229,19c0,0-0.1-0.1-0.2-0.1c-0.1,0-0.2,0.1-0.2,0.2c0,0.1,0,0.1,0,0.1c0.3,0.5,0.3,1,0.3,1.5
				c0,0.2,0,0.3,0,0.4c0.1,0.3,0.3,0.4,0.5,0.4c0.3,0,0.6-0.2,0.6-0.6v-0.1C230.1,20.3,229.7,19.6,229,19z"/>
			<path class="st2" d="M229.1,14.4C229.1,14.4,229.1,14.4,229.1,14.4c0.1,0,0.1,0,0.1,0c0.3,0,0.5-0.1,0.5-0.5h1.8
				c0,0.2,0.1,0.4,0.4,0.4c0,0,0,0,0.1,0c0,0,0,0,0.1,0c0.4,0,0.5-0.1,0.5-0.5v-0.1c0-0.3,0-0.9,0-1.3h3.3c0.2,0,0.2-0.1,0.2-0.2
				c0-0.1,0-0.1-0.1-0.2c-0.1-0.1-0.8-0.7-1-0.8c-0.1,0-0.1-0.1-0.2-0.1c-0.1,0-0.1,0.1-0.2,0.1l0,0c-0.2,0.2-0.4,0.5-0.5,0.7h-1.6
				v-0.5c0,0,0,0,0-0.1c0,0,0,0,0.1,0c0.3-0.1,0.3-0.2,0.3-0.3c0-0.1,0-0.2-0.3-0.3c-0.3-0.1-0.6-0.1-0.8-0.1l-0.1,0c0,0,0,0-0.1,0
				c-0.1,0-0.2,0.1-0.2,0.2c0,0,0,0.1,0,0.1c0,0,0,0.1,0,0.2c0,0.2,0,0.4,0,0.9h-1.8v-0.5c0,0,0,0,0-0.1c0,0,0,0,0.1,0
				c0.2-0.1,0.3-0.2,0.3-0.3c0-0.1,0-0.2-0.4-0.3c-0.3,0-0.7-0.1-0.9-0.2c0,0,0,0-0.1,0c-0.1,0-0.2,0.1-0.2,0.2c0,0,0,0.1,0,0.1
				c0,0,0,0.1,0,0.2c0,0.2,0,0.4,0,0.9h-2c-0.4,0-0.9,0-1-0.1c0,0-0.1,0-0.1,0c-0.1,0-0.2,0.1-0.2,0.2c0,0,0,0.1,0,0.1
				c0,0.1,0.1,0.2,0.1,0.3l0,0c0,0.1,0.1,0.1,0.2,0.1l0.1,0c0.1,0,0.5-0.1,0.9-0.1h2c0,0.6,0,1.2,0,1.5c0,0,0,0,0,0
				c0-0.1-0.1-0.2-0.3-0.2c-0.5-0.1-0.8-0.1-0.9-0.1h-0.1c-0.2,0-0.2,0.1-0.2,0.2c0,0,0,0.1,0,0.1c0,0.1,0,0.2,0,0.3
				c0,0.1,0,0.3,0,0.8h-0.7c-0.4,0-0.9,0-1.1-0.1c0,0-0.1,0-0.1,0c-0.1,0-0.2,0.1-0.2,0.2c0,0,0,0.1,0,0.1c0,0.1,0.1,0.2,0.1,0.3
				c0,0.1,0.1,0.1,0.2,0.1l0.1,0c0.1,0,0.5-0.1,0.9-0.1h0.7c0,0.4,0,0.9,0,1.4c-0.7,0.3-1.4,0.4-2,0.5h-0.1c-0.2,0-0.2,0.1-0.2,0.2
				c0,0,0,0.1,0,0.1l0,0c0.1,0.1,0.1,0.2,0.2,0.4c0.1,0.2,0.2,0.3,0.2,0.5c0.1,0.1,0.2,0.2,0.3,0.2c0.1,0,0.3-0.1,0.3-0.3
				c0-0.1,0-0.1,0.1-0.2l0.2-0.1c0.3-0.2,0.7-0.5,1-0.7c0,0.1,0,0.2,0,0.3c0,0.3,0,0.5,0,0.7v0.1c0,0.2,0,0.4,0.4,0.4
				c0.1,0,0.1,0,0.2,0c0.3,0,0.5-0.1,0.5-0.4v-0.1c0-0.9,0-1.8,0-2.7c0-0.5,0-1,0-1.2v0c0-0.1,0-0.1,0.1-0.2c0.1,0,0.3-0.1,0.3-0.2
				C228.7,14.2,228.8,14.4,229.1,14.4z M231.6,12.3c0,0.4,0,0.8,0,1.1h-1.8v-1.1H231.6z"/>
			<path class="st2" d="M227.4,18.8c-0.1,0-0.2,0.1-0.3,0.3c-0.4,0.9-0.8,1.1-1.4,1.4c-0.3,0.1-0.4,0.3-0.4,0.6
				c0,0.3,0.2,0.6,0.7,0.6h0.1h0c1.1-0.1,1.5-1.8,1.5-2.5C227.6,18.9,227.4,18.8,227.4,18.8z"/>
			<path class="st2" d="M249.2,12.2c-0.1-0.1-0.3-0.3-0.6-0.5c-0.1-0.1-0.3-0.2-0.4-0.3c0,0-0.1-0.1-0.2-0.1c0,0-0.1,0-0.2,0.1
				c-0.2,0.2-0.3,0.4-0.5,0.7c0,0,0,0-0.1,0h-3.1c0-0.2,0-0.3,0-0.7v0c0-0.1,0-0.1,0.1-0.2c0.2-0.1,0.3-0.2,0.3-0.3
				c0-0.1,0-0.2-0.3-0.3l-0.4-0.1c-0.2,0-0.3,0-0.5-0.1c-0.1,0-0.1,0-0.1,0c-0.1,0-0.2,0.1-0.2,0.2c0,0,0,0.1,0,0.2
				c0,0.1,0,0.2,0,0.3c0,0.1,0,0.6,0,1h-3.7c-0.4,0-0.9,0-1.1-0.1c0,0-0.1,0-0.1,0c-0.1,0-0.2,0.1-0.2,0.2c0,0,0,0.1,0,0.1
				c0,0.1,0.1,0.2,0.1,0.3c0.1,0.1,0.1,0.1,0.2,0.1l0.1,0c0.1,0,0.5-0.1,0.9-0.1h3.6c0,0,0,0.1,0,0.1c0,0,0,0.1,0,0.1
				c0,0.1,0,0.2,0,0.3l0,0.1c0,0.2,0,0.5,0,0.9v0.4h-2.4c-0.1-0.1-0.7-0.4-0.9-0.5c-0.1,0-0.1,0-0.2,0c-0.1,0-0.2,0.1-0.2,0.2
				c0,0.1,0,0.2,0.1,0.3c0.1,0.2,0.1,1.2,0.1,2.5c0,1.2,0,2.2-0.1,2.8V20c0,0.3,0.1,0.4,0.5,0.4h0.1c0.4,0,0.6-0.1,0.6-0.5
				c0-1.2,0-2.7,0-3.8v-0.9h2.5v1c0,1.1,0,2.9,0,5.1c0,0.3,0.1,0.5,0.5,0.5h0.1c0.4,0,0.6-0.1,0.6-0.5c-0.1-2.8-0.1-4.8-0.1-6.1h2.6
				c0,0.2,0,0.4,0,0.6c0,0.3,0,0.6,0,0.9c0,0.7,0,1.5,0,2.2c0,0,0,0.1,0,0.1c0,0,0,0-0.1,0h-0.1c-0.4,0-1.1,0-1.3-0.1h0
				c-0.2,0-0.2,0.1-0.2,0.2c0,0.1,0.1,0.2,0.2,0.2c0.1,0,0.2,0.1,0.3,0.1c0.5,0.2,0.7,0.2,0.8,0.7c0,0.2,0.1,0.2,0.2,0.2l0.1,0
				c1.1-0.2,1.3-0.7,1.3-1.2v-0.8c0-1.2,0-2.5,0-2.8c0,0,0,0,0.1-0.1c0,0,0.1,0,0.1-0.1c0.2-0.1,0.2-0.2,0.2-0.3
				c0-0.1-0.1-0.2-0.1-0.3c-0.2-0.2-0.5-0.4-0.7-0.6c-0.1-0.1-0.1-0.1-0.2-0.1c-0.1,0-0.2,0.1-0.2,0.1c-0.1,0.1-0.1,0.2-0.2,0.3
				c0,0.1-0.1,0.1-0.1,0.1c0,0,0,0-0.1,0h-2.4c0-0.5,0-0.9,0-1.1c0,0,0,0,0-0.1c0-0.1,0-0.1,0.1-0.2c0.2-0.1,0.3-0.2,0.3-0.3
				c0-0.1,0-0.2-0.3-0.3c-0.1,0-0.3-0.1-0.4-0.1h5.2c0.2,0,0.3-0.1,0.3-0.2C249.3,12.4,249.2,12.3,249.2,12.2z"/>
		</g>
	</g>
</g>
</svg>
