<?xml version="1.0" encoding="utf-8"?>
<!-- Generator: Adobe Illustrator 26.3.1, SVG Export Plug-In . SVG Version: 6.00 Build 0)  -->
<svg version="1.1" id="レイヤー_1" xmlns="http://www.w3.org/2000/svg" xmlns:xlink="http://www.w3.org/1999/xlink" x="0px"
	 y="0px" viewBox="0 0 334 134" style="enable-background:new 0 0 334 134;" xml:space="preserve">
<style type="text/css">
	.st0{fill:none;stroke:#987744;stroke-width:2;stroke-miterlimit:10;}
	.st1{fill:#987744;}
	.st2{fill:#DC3023;}
	.st3{fill:#4D4D4D;}
</style>
<polyline class="st0" points="93.7,0 93.7,20 243.7,20 243.7,0 "/>
<g>
	<g>
		<g>
			<g>
				<path class="st1" d="M11.3,53.1c-0.9,0.2-2.1,0.3-3.4,0.3c-2,0-4.2-0.3-5.4-1C1.5,51.7,1,50.7,1,49.6c0-1,0.4-1.9,1.2-2.4
					C2.4,47.1,2.5,47,2.5,47c0.1,0,0.1,0.1-0.1,0.3c-0.4,0.5-0.5,1-0.5,1.5c0,0.9,0.6,1.7,1.6,2.1c0.8,0.4,2,0.5,3.3,0.5
					c1.4,0,2.8-0.1,4-0.3c0.1,0,0.3,0,0.4,0c0.9,0,1.4,0.4,1.4,0.9C12.5,52.5,12.1,52.9,11.3,53.1z M9.6,42.9
					C9.6,42.9,9.6,42.9,9.6,42.9c-1,0-2,0.4-3.9,1.4c-0.1,0-0.1,0-0.2,0s-0.1,0-0.1-0.1c0-0.1,0-0.1,0.1-0.2
					c0.5-0.5,0.9-0.9,1.2-1.2c0.1-0.1,0.1-0.2,0.1-0.2c0-0.1-0.1-0.1-0.2-0.1c0,0-0.1,0-0.1,0c-0.4,0-0.7,0-1,0
					c-2.1,0-2.8-0.5-3.2-1.3c-0.1-0.1-0.1-0.2-0.1-0.3c0-0.1,0-0.1,0.1-0.1c0.1,0,0.1,0,0.2,0.1c0.5,0.3,1,0.3,1.7,0.3
					c1.5,0,3.4-0.5,4.6-0.6c0.1,0,0.1,0,0.2,0c1.3,0,1.9,0.5,1.9,1.2C11,42.6,10.2,42.9,9.6,42.9z M12.3,46.2
					c-0.2,0-0.5-0.2-0.6-0.5c-0.3-0.8-0.8-1.5-1.4-2c-0.1-0.1-0.1-0.1-0.1-0.2c0,0,0.1-0.1,0.1-0.1c0,0,0.1,0,0.1,0
					c0.9,0.1,1.8,0.6,2.3,1.4c0.1,0.3,0.2,0.5,0.2,0.7C12.8,46,12.6,46.2,12.3,46.2z M13.9,45c-0.2,0-0.4-0.1-0.6-0.4
					c-0.4-0.7-1-1.3-1.7-1.7c-0.1-0.1-0.2-0.1-0.2-0.2c0-0.1,0.1-0.1,0.3-0.1c0.9,0,1.9,0.4,2.4,1.1c0.2,0.3,0.3,0.5,0.3,0.7
					C14.4,44.8,14.2,45,13.9,45z"/>
			</g>
			<g>
				<path class="st1" d="M31.2,54.5c0,0.1-0.1,0.2-0.2,0.2c0,0-0.1,0-0.1,0c-3.1-0.8-4.7-2-6.3-5.2h-0.2c-1.2,3.4-3.5,4.5-7.9,5.2
					c0,0,0,0-0.1,0c-0.2,0-0.2-0.2,0-0.3c3.5-1.2,5.2-2.6,6.1-4.9h-3.8c-0.6,0-1.3,0-1.5,0.1c0,0-0.1,0-0.1,0
					c-0.1,0-0.1-0.1-0.2-0.1c-0.1-0.1-0.1-0.3-0.2-0.5c0,0,0-0.1,0-0.1s0-0.1,0.1-0.1s0.1,0,0.1,0c0.4,0.1,1.2,0.2,1.8,0.2h4
					c0.2-0.6,0.3-1.3,0.4-2c0-0.2,0-0.3,0.1-0.3c0,0,0.1,0,0.1,0c0.7,0.1,1.3,0.2,1.9,0.4c0.2,0.1,0.4,0.2,0.4,0.3
					c0,0.1-0.1,0.2-0.4,0.3c-0.2,0.1-0.3,0.1-0.3,0.3c-0.1,0.4-0.2,0.7-0.3,1c0,0,4.4,0,4.4,0c0.1,0,0.2,0,0.3-0.1
					c0.3-0.4,0.6-0.8,0.9-1.2c0.1-0.1,0.1-0.1,0.1-0.1s0.1,0,0.2,0.1c0.5,0.4,1.2,1,1.6,1.4c0.1,0.1,0.1,0.1,0.1,0.2
					c0,0.1-0.1,0.1-0.3,0.1c0,0-6.9,0-6.9,0c1.8,2.3,3.9,2.9,7.3,3.2c0.1,0,0.2,0.1,0.2,0.1s-0.1,0.1-0.2,0.2
					C31.5,53.2,31.3,53.8,31.2,54.5z M24.4,41.1h-3c0,0.5,0,1.2,0,1.9h0.3c0.1,0,0.2,0,0.3-0.1c0.2-0.2,0.5-0.6,0.7-0.9
					c0,0,0.1-0.1,0.1-0.1c0.1,0,0.1,0,0.1,0.1c0.3,0.2,1,0.8,1.3,1.1c0.1,0.1,0.1,0.1,0.1,0.1c0,0.1-0.1,0.1-0.2,0.1h-2.8
					c0,0.6,0,1.3,0,2c1-0.1,2-0.3,2.8-0.5c0,0,0.1,0,0.1,0c0.1,0,0.2,0.1,0.2,0.1c0,0.1,0,0.1-0.1,0.2c-1.8,0.9-4.3,1.7-6.1,2.2
					c-0.2,0.1-0.3,0.2-0.3,0.5c0,0.2-0.1,0.3-0.3,0.3c-0.1,0-0.2-0.1-0.3-0.2c-0.2-0.5-0.5-1.3-0.7-2c0,0,0-0.1,0-0.1
					c0-0.1,0-0.1,0.1-0.1c0.1,0,0.1,0,0.2,0c0.7,0,1.7-0.1,2.8-0.2c0-0.8,0-1.5,0-2.2h-0.3c-0.5,0-1.4,0-1.6,0.1c0,0-0.1,0-0.1,0
					c-0.1,0-0.1-0.1-0.2-0.1c-0.1-0.1-0.1-0.3-0.2-0.4c0,0,0-0.1,0-0.1c0-0.1,0-0.1,0.1-0.1c0,0,0.1,0,0.1,0C18,42.9,19,43,19.5,43
					h0.3c0-0.7,0-1.4,0-1.9h-1c-0.6,0-1.3,0-1.6,0.1c0,0,0,0-0.1,0c-0.1,0-0.2,0-0.2-0.1c-0.1-0.1-0.1-0.3-0.2-0.4
					c0-0.1,0-0.1,0-0.1c0,0,0-0.1,0.1-0.1s0.1,0,0.1,0c0.4,0.1,1.2,0.2,1.9,0.2h1c0-0.7,0-1.2,0-1.3c0-0.3-0.1-0.4-0.1-0.5
					c0-0.1,0-0.1,0.1-0.1c0,0,0.1,0,0.1,0c0.5,0,1.1,0.1,1.8,0.3c0.2,0,0.3,0.1,0.3,0.3c0,0.1-0.1,0.2-0.3,0.3
					c-0.3,0.1-0.3,0.3-0.3,0.4c0,0.2,0,0.4,0,0.6H22c0.1,0,0.2,0,0.3-0.1c0.2-0.3,0.4-0.5,0.7-0.9c0-0.1,0.1-0.1,0.1-0.1
					c0.1,0,0.1,0,0.2,0.1c0.5,0.3,1,0.8,1.3,1.1C24.7,40.9,24.7,41.1,24.4,41.1z M31.9,40.4c0,0.1-0.1,0.2-0.3,0.3
					c-0.3,0.1-0.4,0.2-0.4,0.6c-0.1,1-0.2,3-0.4,4c-0.2,1.1-0.5,1.6-1.9,1.9c-0.1,0-0.1,0-0.2,0c-0.2,0-0.2-0.1-0.2-0.3
					c-0.1-0.7-0.3-1-1.4-1.4c-0.1,0-0.1-0.1-0.1-0.2c0-0.1,0.1-0.1,0.1-0.1c0,0,0,0,0.1,0c0.5,0.1,1.1,0.1,1.5,0.1
					c0.3,0,0.5-0.1,0.5-0.5c0.3-1,0.4-3,0.5-4.5h-1.6c-0.3,2.9-1.3,5.2-4.1,6.5c0,0-0.1,0-0.1,0c-0.1,0-0.1,0-0.1-0.1
					c0,0,0-0.1,0.1-0.1c1.7-1.6,2.5-3.9,2.6-6.3c-0.6,0-1.2,0-1.5,0.1c0,0,0,0-0.1,0c-0.1,0-0.2,0-0.2-0.1c-0.1-0.1-0.1-0.3-0.2-0.4
					c0-0.1,0-0.1,0-0.1c0,0,0-0.1,0.1-0.1s0.1,0,0.1,0c0.4,0.1,1.2,0.2,1.8,0.2h2.8c0.2,0,0.3,0,0.4-0.1c0.2-0.2,0.5-0.5,0.6-0.7
					c0.1-0.1,0.1-0.1,0.1-0.1c0.1,0,0.1,0,0.2,0.1c0.3,0.2,0.8,0.6,1.2,0.9C31.9,40.2,31.9,40.3,31.9,40.4z M24.5,49.3
					C24.5,49.3,24.5,49.2,24.5,49.3C24.5,49.2,24.5,49.2,24.5,49.3z"/>
			</g>
			<g>
				<path class="st1" d="M50.9,42.9c-0.3,0.2-0.4,0.2-0.4,0.6c-0.1,2.9-0.3,7-0.6,8.6c-0.3,1.7-0.7,2.4-2.6,2.6
					c-0.3,0-0.4-0.1-0.4-0.3c-0.1-1-0.2-1.1-1.9-1.7c-0.1,0-0.2-0.1-0.2-0.2s0.1-0.1,0.2-0.1c0,0,0,0,0,0c1,0.1,1.8,0.2,2.2,0.2
					c0.1,0,0.1,0,0.2,0c0.4,0,0.6-0.1,0.7-0.7c0.3-1.8,0.6-6.7,0.6-9.4h-4c-0.6,1.2-1.4,2.4-2.5,3.4c0.2,0.3,0.3,0.6,0.3,1
					c0,0,0,0.1,0,0.1c0,0.6-0.4,0.9-0.8,0.9c-0.3,0-0.5-0.2-0.6-0.6c-0.1-0.3-0.1-0.6-0.1-1c-0.4,0.1-0.9,0.3-1.4,0.4
					c0,2.5,0,5.2,0.1,7.2c0,0,0,0.1,0,0.1c0,0.4-0.1,0.5-0.8,0.6c-0.1,0-0.1,0-0.2,0c-0.5,0-0.6-0.2-0.6-0.5c0,0,0-0.1,0-0.1
					c0.1-1.4,0.1-3,0.1-4.6c-0.1,0-0.1,0-0.2,0.1c-0.2,0-0.3,0.1-0.4,0.3c-0.5,1.3-1.2,2.8-2.2,3.9c-0.1,0.1-0.1,0.1-0.2,0.1
					c-0.1,0-0.1-0.1-0.1-0.1c0,0,0-0.1,0-0.1c0.5-1.5,1-3.7,1-4.9c0,0,0-0.1,0-0.1c0-0.1,0-0.1,0.1-0.1c0,0,0.1,0,0.1,0
					c0.6,0.2,1.2,0.4,1.7,0.5c0.1,0,0.1,0.1,0.1,0.1c0-0.2,0-0.4,0-0.6c0-0.4,0-0.8,0-1.3c-0.6,0.1-1.2,0.3-1.7,0.4
					c-0.2,0-0.2,0.1-0.2,0.3c0,0.2-0.1,0.3-0.3,0.3c-0.1,0-0.2-0.1-0.3-0.3c-0.2-0.6-0.3-1.2-0.4-1.7c0-0.2,0-0.2,0.1-0.2
					c0.1,0,0.1,0,0.2,0c0.2,0,0.5,0.1,0.7,0.1s0.5,0,0.8,0c1.2-1.5,2.7-3.9,3.1-5.3c0-0.1,0-0.2,0.1-0.2c0,0,0.1,0,0.1,0
					c0.6,0.2,1.2,0.5,1.8,0.7c0.2,0.1,0.3,0.2,0.3,0.3c0,0.1-0.1,0.2-0.3,0.2c0,0,0,0-0.1,0c-0.1,0-0.1,0-0.1,0
					c-0.2,0-0.3,0-0.4,0.2c-0.9,1.1-2.4,2.8-3.9,4c1,0,2.2,0,3.4-0.1c-0.1-0.5-0.3-0.9-0.7-1.4c0,0-0.1-0.1-0.1-0.1
					c0-0.1,0-0.1,0.1-0.1c0,0,0.1,0,0.1,0c0.7,0.4,1.2,0.8,1.6,1.2c1.3-2.2,1.8-5,1.8-6.6c0-0.1,0-0.1,0-0.2c0-0.1,0-0.1,0.1-0.1
					c0,0,0.1,0,0.1,0c0.6,0.1,1.5,0.3,2.1,0.5c0.2,0,0.3,0.2,0.3,0.3c0,0.1-0.1,0.2-0.3,0.3c-0.3,0.1-0.4,0.1-0.5,0.3
					c-0.2,0.6-0.4,1.3-0.7,2h3.5c0.1,0,0.2,0,0.3-0.1c0.2-0.2,0.5-0.5,0.6-0.7c0.1-0.1,0.2-0.1,0.3,0c0.4,0.2,0.9,0.6,1.2,0.9
					c0.1,0.1,0.2,0.2,0.2,0.4S51.1,42.8,50.9,42.9z M39.8,39.8c-0.3,0-0.4,0.1-0.4,0.2c-0.6,0.7-1.2,1.4-1.9,1.9
					c0.4,0.2,0.7,0.5,0.9,0.8c0.1,0.1,0.1,0.3,0.2,0.4c0,0.1,0,0.2,0,0.3c0,0.6-0.4,0.9-0.8,0.9c-0.2,0-0.5-0.1-0.6-0.5
					c-0.3-0.7-0.3-1.6-1.3-2.3c-0.1-0.1-0.1-0.1-0.1-0.2c0-0.1,0.1-0.1,0.1-0.1c0,0,0.1,0,0.1,0c0.4,0.1,0.8,0.3,1.1,0.4
					c0.4-0.9,0.6-1.9,0.7-2.7c0-0.1,0-0.2,0.1-0.2c0,0,0.1,0,0.1,0c0.6,0.1,1.4,0.4,1.9,0.5C40.3,39.5,40.3,39.8,39.8,39.8z
					 M41.9,52.8c-0.3,0-0.6-0.3-0.7-0.8c-0.1-0.9,0-2-0.7-3.3c0-0.1-0.1-0.1-0.1-0.1c0-0.1,0.1-0.1,0.1-0.1s0.1,0,0.2,0.1
					c1.1,0.8,2,2.1,2,3.2c0,0,0,0,0,0.1C42.7,52.4,42.3,52.8,41.9,52.8z M45.9,49.1c-0.3,0-0.7-0.2-0.8-0.7C45,47.5,45,46.5,44,45.4
					c-0.1-0.1-0.1-0.1-0.1-0.2c0-0.1,0-0.1,0.1-0.1c0,0,0.1,0,0.2,0.1c1.5,0.8,2.4,1.6,2.6,2.6c0,0.1,0,0.2,0,0.3
					C46.9,48.7,46.4,49.1,45.9,49.1z"/>
			</g>
			<g>
				<path class="st1" d="M59.7,43.8c-0.3,0-0.4,0-0.6,0.3c-0.4,0.6-0.8,1.1-1.2,1.6c0,1.4,0,2.9,0,4.3c0,1.4,0,2.8,0.1,4.1
					c0,0,0,0,0,0c0,0.4-0.3,0.6-0.9,0.6c-0.1,0-0.1,0-0.2,0c-0.5,0-0.6-0.1-0.6-0.5c0,0,0-0.1,0-0.1c0.1-1.5,0.1-3.1,0.1-4.6
					c0-0.8,0-1.5,0-2.2c-0.6,0.5-1.2,0.9-1.9,1.3c-0.1,0-0.1,0.1-0.2,0.1c-0.1,0-0.1-0.1-0.1-0.1c0-0.1,0-0.1,0.1-0.2
					c1.8-1.7,3-3.9,3.5-5.7c0.1-0.2,0.1-0.2,0.1-0.2c0,0,0.1,0,0.1,0c0.7,0.2,1.2,0.5,1.9,0.8c0.2,0.1,0.3,0.2,0.3,0.3
					C60.1,43.6,59.9,43.8,59.7,43.8z M59.4,40c-0.1,0-0.1,0-0.1,0c-0.1,0-0.2,0-0.3,0.2c-1.1,1.4-2.6,2.7-4.5,3.5
					c-0.1,0-0.1,0.1-0.2,0.1c-0.1,0-0.1,0-0.1-0.1s0-0.2,0.1-0.2c1.5-1.3,2.6-3.1,3-4.3c0.1-0.1,0-0.3,0.1-0.3c0,0,0,0,0.1,0
					c0.7,0.2,1.3,0.4,2,0.6c0.2,0.1,0.3,0.2,0.3,0.3S59.7,40,59.4,40z M70.1,53c-0.6,0.3-0.8,0.7-0.9,1.4c0,0.2-0.1,0.3-0.2,0.3
					c0,0-0.1,0-0.1,0c-1.5-0.4-2.9-1-4.2-2.1c-1.5,1-3.5,1.6-6,2.1c0,0-0.1,0-0.1,0c-0.1,0-0.2-0.1-0.2-0.1c0-0.1,0.1-0.2,0.3-0.2
					c2.1-0.7,3.8-1.4,5.1-2.6c-0.6-0.7-1.1-1.6-1.5-2.7c-0.8,1-1.9,1.8-3.3,2.4c-0.1,0-0.1,0-0.1,0c-0.1,0-0.1-0.1-0.1-0.1
					s0-0.1,0.1-0.2c1.6-1.3,2.7-3,3.2-4.4c-0.5,0.1-1.1,0.1-1.5,0.2c-0.2,0-0.3,0.2-0.3,0.4c0,0.2-0.2,0.4-0.3,0.4
					c-0.1,0-0.2-0.1-0.3-0.3c-0.2-0.5-0.3-1.1-0.5-1.7c0-0.1,0-0.1,0-0.2c0-0.1,0-0.1,0.1-0.1c0,0,0.1,0,0.1,0
					c0.3,0,0.5,0.1,0.8,0.1c0.3,0,0.6,0,1,0c2.3-1.5,4.4-3.5,5.3-4.8c0.1-0.1,0.1-0.2,0.1-0.2c0,0,0.1,0,0.1,0.1
					c0.5,0.3,1.2,0.6,1.6,0.9c0.2,0.1,0.3,0.3,0.3,0.4S68.6,42,68.3,42c0,0-0.1,0-0.1,0c-0.1,0-0.2,0-0.3,0c-0.1,0-0.2,0-0.4,0.1
					c-1.4,1.1-3.6,2.5-5.8,3.4c0.2,0,0.3,0,0.5,0c1.8,0,3.9-0.1,5.3-0.2c-0.2-0.4-0.6-0.8-1.2-1.3c-0.1-0.1-0.1-0.1-0.1-0.2
					c0-0.1,0-0.1,0.1-0.1c0,0,0.1,0,0.1,0c1.5,0.6,2.8,1.2,3.1,2.4c0,0.1,0,0.2,0,0.3c0,0.5-0.4,0.9-0.8,0.9c-0.3,0-0.5-0.2-0.7-0.5
					c-0.1-0.3-0.2-0.7-0.4-1.1c-1.2,0.3-2.6,0.5-3.9,0.7c-0.3,0.6-0.6,1.2-1,1.7H66c0.2,0,0.2,0,0.4-0.2s0.4-0.4,0.6-0.6
					c0.1-0.1,0.1-0.1,0.2-0.1c0.1,0,0.1,0,0.2,0.1c0.4,0.3,0.7,0.6,1.2,0.9c0.2,0.1,0.3,0.3,0.3,0.4c0,0.2-0.2,0.3-0.4,0.3
					c-0.3,0-0.4,0.1-0.5,0.3c-0.6,0.9-1.4,1.8-2.1,2.4c1.2,0.5,2.5,0.7,3.9,0.8c0.1,0,0.2,0,0.4,0c0.1,0,0.2,0.1,0.2,0.1
					C70.2,52.9,70.2,53,70.1,53z M65.1,39.9c-0.3,0-0.4,0-0.5,0.2c-0.7,0.6-1.4,1.1-2.2,1.5c0.5,0.3,0.9,0.6,1.1,1
					c0.1,0.1,0.1,0.3,0.1,0.4c0,0.5-0.4,0.9-0.8,0.9c-0.2,0-0.5-0.1-0.6-0.4c-0.4-0.6-0.6-1.5-2.1-2.2c-0.1,0-0.1-0.1-0.1-0.2
					c0-0.1,0.1-0.1,0.1-0.1c0,0,0.1,0,0.1,0c0.7,0.1,1.3,0.3,1.9,0.5c0.6-0.8,1-1.9,1.2-2.4c0-0.1,0-0.2,0.1-0.2c0,0,0.1,0,0.1,0
					c0.6,0.1,1.4,0.4,1.8,0.5c0.3,0.1,0.4,0.2,0.4,0.3C65.5,39.8,65.4,39.9,65.1,39.9z M62.6,48.6c0,0.1-0.1,0.1-0.1,0.1
					c0.6,1,1.3,1.8,2,2.4c0.8-0.8,1.4-1.6,1.8-2.5C66.3,48.6,63.4,48.6,62.6,48.6z"/>
			</g>
			<g>
				<path class="st1" d="M80.8,53.2c-0.2,0-0.4,0-0.6,0c-0.2,0-0.3-0.1-0.3-0.1c0,0,0.1-0.1,0.3-0.1c3.9-0.4,6.3-3.1,6.5-6.3
					c0-0.1,0-0.3,0-0.4c0-2.8-1.8-4.8-5-4.8c-0.3,0-0.7,0-1.1,0.1c0.6,0.5,0.8,1.4,0.8,1.9c0,0,0,0.1,0,0.1
					c-0.1,2.7-1.4,5.7-3.1,7.6c-0.8,0.9-1.7,1.3-2.4,1.3c-0.8,0-1.5-0.6-1.8-1.9c-0.2-0.7-0.3-1.4-0.3-2c0-4.1,3.1-7,6.4-7.5
					c0.5-0.1,1-0.1,1.5-0.1c3.9,0,6.7,2.6,6.7,5.7c0,0.1,0,0.2,0,0.2C88.4,50.7,85.8,53.2,80.8,53.2z M80.3,41.7
					c-3.2,0.6-5,3.6-5,6.3c0,0.6,0.1,1.2,0.3,1.7c0.2,0.6,0.5,0.8,0.8,0.8c0.2,0,0.5-0.1,0.8-0.4c1.4-1.3,2.9-3.8,3.4-6.5
					c0-0.2,0.1-0.4,0.1-0.5C80.6,42.5,80.5,42,80.3,41.7z"/>
			</g>
			<g>
				<path class="st1" d="M97.9,39.7c0,0.1-0.1,0.2-0.4,0.3c-0.2,0-0.3,0.1-0.4,0.3c-0.5,1-0.9,2-1.5,3.1c0.3,0.1,0.6,0.2,0.6,0.2
					c0.2,0.1,0.3,0.2,0.3,0.3s-0.1,0.2-0.3,0.3c-0.1,0-0.2,0.2-0.2,0.3c0,1.1,0,2.4,0,3.9c0,1.8,0,3.8,0.1,5.7c0,0,0,0.1,0,0.1
					c0,0.5-0.2,0.5-0.9,0.6c-0.1,0-0.2,0-0.3,0c-0.5,0-0.7-0.2-0.7-0.6c0,0,0,0,0-0.1c0.1-2.2,0.1-4.5,0.1-6.4c0-0.8,0-1.6,0-2.3
					c-0.6,0.8-1.3,1.5-2.2,2.2c-0.1,0.1-0.1,0.1-0.2,0.1c-0.1,0-0.1-0.1-0.1-0.1c0-0.1,0-0.1,0.1-0.2c1.8-2.6,3-5.8,3.4-8.2
					c0-0.2,0-0.3,0.1-0.3c0,0,0.1,0,0.1,0c0.6,0.2,1.4,0.4,2,0.6C97.8,39.5,97.9,39.6,97.9,39.7z M107.4,52.5c0,0.3,0,0.4,0.1,0.6
					c0.2,0.4,0.3,0.7,0.3,0.9c0,0.5-0.3,0.8-0.9,0.8c-0.2,0-0.5-0.1-0.8-0.2c-3.1-1.5-4.7-4-5.5-7.7c-0.2-0.7-0.3-1.4-0.4-2.2
					l-1.6,0.2c-0.6,0.1-1.2,0.2-1.5,0.3c0,0-0.1,0-0.1,0c-0.1,0-0.1,0-0.2-0.1c-0.1-0.1-0.2-0.3-0.3-0.5c0-0.1,0-0.1,0-0.1
					s0-0.1,0.1-0.1c0,0,0.1,0,0.1,0c0.2,0,0.5,0.1,0.8,0.1c0.4,0,0.8,0,1.1-0.1l1.6-0.2c-0.2-1.6-0.4-3.2-0.4-5.1c0-0.1,0-0.2,0-0.3
					c0,0,0-0.1,0.1-0.1c0,0,0.1,0,0.1,0c0.5,0.1,1.4,0.2,1.9,0.3c0.2,0,0.3,0.1,0.3,0.2c0,0.1-0.1,0.2-0.3,0.3
					c-0.3,0.1-0.4,0.1-0.4,0.3c0,1.3,0.1,2.8,0.3,4.1l2.7-0.3c0.1,0,0.2-0.1,0.3-0.2c0.2-0.4,0.5-0.8,0.7-1.2c0-0.1,0.1-0.1,0.2-0.1
					c0.1,0,0.1,0,0.2,0.1c0.6,0.4,1.3,0.8,1.7,1.2c0.1,0.1,0.1,0.1,0.1,0.2c0,0.1-0.1,0.1-0.3,0.1l-5.6,0.7c0.1,0.9,0.3,1.7,0.5,2.4
					c0.7,2.7,1.9,4.3,3.6,5.4c0.1,0.1,0.2,0.1,0.3,0.1c0.1,0,0.2-0.1,0.3-0.2c0.3-0.7,0.7-1.4,0.9-2.1c0.1-0.2,0.1-0.2,0.2-0.2
					c0.1,0,0.1,0.1,0.1,0.2c0,0,0,0.1,0,0.1C107.6,51.3,107.4,52,107.4,52.5z M105.5,41.3c0,0.5-0.4,0.9-0.8,0.9
					c-0.2,0-0.4-0.1-0.6-0.3c-0.5-0.6-0.2-1.4-1.3-2.2c-0.1-0.1-0.1-0.1-0.1-0.2c0-0.1,0.1-0.1,0.2-0.1c0,0,0.1,0,0.1,0
					c1.1,0.3,2.3,0.8,2.5,1.6C105.5,41.2,105.5,41.2,105.5,41.3z"/>
			</g>
			<g>
				<path class="st1" d="M126.7,43.6c-0.6,0.3-0.7,0.8-0.8,1.6c0,0.1-0.1,0.2-0.2,0.2c0,0-0.1,0-0.1,0c-2.9-1-4.8-2.5-6.6-5.3
					c-1.7,2.4-4.4,4.4-8,5.5c0,0-0.1,0-0.1,0c-0.1,0-0.2-0.1-0.2-0.1c0-0.1,0.1-0.1,0.2-0.2c3-1.7,5.3-3.9,6.3-6.2
					c0.1-0.2,0.1-0.3,0.2-0.3c0,0,0.1,0,0.2,0c0.7,0.2,1.4,0.3,2.2,0.5c0.2,0.1,0.3,0.2,0.3,0.3c0,0.1-0.1,0.2-0.4,0.2
					c-0.2,0-0.3,0-0.4,0c2,2.1,4.2,3.1,7.4,3.4c0.2,0,0.3,0.1,0.3,0.1C126.9,43.5,126.9,43.6,126.7,43.6z M126.4,54H113
					c-0.6,0-1.3,0-1.5,0.1c0,0-0.1,0-0.1,0c-0.1,0-0.2,0-0.2-0.1c-0.1-0.1-0.1-0.3-0.2-0.5c0,0,0-0.1,0-0.1c0-0.1,0-0.1,0.1-0.1
					c0,0,0.1,0,0.1,0c0.4,0.1,1.2,0.2,1.8,0.2h4.6c0-1.2,0-2.5,0-3.8c0-0.5,0-1.1,0-1.6h-3.8c-0.6,0-1.3,0-1.5,0.1c0,0-0.1,0-0.1,0
					c-0.1,0-0.1-0.1-0.2-0.1c-0.1-0.1-0.1-0.3-0.2-0.5c0,0,0-0.1,0-0.1c0-0.1,0-0.1,0.1-0.1c0,0,0.1,0,0.1,0
					c0.4,0.1,1.2,0.2,1.8,0.2h3.8c0-0.9,0-1.9,0-2.6h-1.2c-0.6,0-1.3,0-1.5,0.1c0,0,0,0-0.1,0c-0.1,0-0.2,0-0.2-0.1
					c-0.1-0.1-0.1-0.3-0.2-0.5c0,0,0-0.1,0-0.1c0-0.1,0-0.1,0.1-0.1c0,0,0.1,0,0.1,0c0.4,0.1,1.2,0.2,1.8,0.2h3.2
					c0.1,0,0.2,0,0.3-0.1c0.2-0.2,0.6-0.7,0.8-1c0.1-0.1,0.2-0.1,0.3,0c0.4,0.3,1.1,0.9,1.5,1.3c0.1,0.1,0.1,0.1,0.1,0.2
					c0,0.1-0.1,0.1-0.2,0.1h-3.1c0,0.7,0,1.6,0,2.6h2.9c0.1,0,0.2,0,0.3-0.1c0.3-0.4,0.6-0.7,0.9-1.1c0.1-0.1,0.1-0.1,0.1-0.1
					c0.1,0,0.1,0,0.2,0.1c0.5,0.4,1.2,1,1.6,1.3c0.1,0.1,0.1,0.1,0.1,0.2c0,0.1-0.1,0.2-0.3,0.2h-5.8c0,1.8,0,3.9,0,5.5h4
					c0.1,0,0.2,0,0.3-0.1c0.3-0.4,0.6-0.8,0.9-1.2c0-0.1,0.1-0.1,0.1-0.1c0.1,0,0.1,0,0.2,0.1c0.5,0.4,1.2,1,1.6,1.5
					c0.1,0.1,0.1,0.1,0.1,0.2C126.7,53.9,126.6,54,126.4,54z M115.3,52.9c-0.3,0-0.6-0.2-0.8-0.6c-0.3-0.8,0-1.8-1.1-3.1
					c-0.1-0.1-0.1-0.1-0.1-0.2c0-0.1,0-0.1,0.1-0.1c0,0,0.1,0,0.1,0c1.1,0.5,2.5,1.4,2.6,2.6c0,0.1,0,0.1,0,0.2
					C116.2,52.5,115.7,52.9,115.3,52.9z M124.1,50.2c-0.2,0-0.4,0-0.5,0.2c-0.6,0.9-1.7,2.2-3.1,3.1c-0.1,0-0.1,0.1-0.2,0.1
					c-0.1,0-0.1-0.1-0.1-0.3c0.9-1.2,1.5-2.8,1.7-4.2c0-0.1,0.1-0.2,0.1-0.2c0.1,0,0.1,0,0.2,0c0.5,0.2,1.2,0.5,2,0.8
					c0.2,0.1,0.2,0.2,0.2,0.3C124.5,50.1,124.4,50.2,124.1,50.2z"/>
			</g>
			<g>
				<path class="st1" d="M145.7,52.9c-0.9,0.3-1,1-1.1,1.6c0,0.2-0.1,0.3-0.3,0.3c-2.5-0.5-4.6-1.4-6.4-2.9
					c-2.2,1.5-4.7,2.3-7.8,2.9c-0.1,0-0.1,0-0.2,0c-0.1,0-0.2,0-0.2-0.1c0-0.1,0.1-0.2,0.3-0.3c2.9-0.9,5.1-2,6.9-3.5
					c-1.2-1.2-2.1-2.8-3-4.8h-0.5c-0.6,0-1.3,0-1.5,0.1c0,0-0.1,0-0.1,0c-0.1,0-0.1-0.1-0.2-0.2c-0.1-0.1-0.1-0.3-0.2-0.5
					c0,0,0-0.1,0-0.1c0-0.1,0-0.1,0.1-0.1c0,0,0.1,0,0.1,0c0.4,0.1,1.2,0.2,1.8,0.2h3.3c0-0.9,0-2.1,0-3.2h-4.6
					c-0.6,0-1.3,0-1.5,0.1c0,0-0.1,0-0.1,0c-0.1,0-0.1-0.1-0.2-0.1c-0.1-0.1-0.1-0.3-0.2-0.5c0,0,0-0.1,0-0.1c0-0.1,0-0.1,0.1-0.1
					c0,0,0.1,0,0.1,0c0.4,0.1,1.2,0.2,1.8,0.2h4.7c0-1.2,0-2.3-0.1-2.6c0-0.3-0.1-0.5-0.1-0.5c0-0.1,0-0.1,0.1-0.1c0,0,0.1,0,0.1,0
					c0.5,0.1,1.4,0.2,2.1,0.3c0.2,0.1,0.3,0.2,0.3,0.3s-0.1,0.2-0.3,0.3c-0.3,0.1-0.3,0.2-0.3,0.4c0,0.3,0,1,0,1.9h3.5
					c0.1,0,0.2,0,0.3-0.1c0.3-0.4,0.6-0.8,0.9-1.2c0-0.1,0.1-0.1,0.1-0.1c0.1,0,0.1,0,0.2,0.1c0.5,0.4,1.3,1,1.7,1.4
					c0.1,0.1,0.1,0.1,0.1,0.2c0,0.1-0.1,0.1-0.3,0.1h-6.6c0,0.5,0,1.1,0,1.6c0,0.6,0,1.1,0,1.6h1.8c0.2,0,0.2,0,0.4-0.2
					c0.2-0.2,0.5-0.5,0.7-0.7c0.1-0.1,0.1-0.1,0.2-0.1c0.1,0,0.1,0,0.2,0.1c0.4,0.3,1,0.8,1.4,1.1c0.2,0.1,0.2,0.3,0.2,0.4
					c0,0.2-0.2,0.3-0.4,0.3c-0.4,0.1-0.5,0.1-0.6,0.2c-1,1.7-2.1,3-3.3,4c1.9,1,4.2,1.4,6.6,1.6c0.1,0,0.2,0.1,0.2,0.2
					S145.8,52.8,145.7,52.9z M134.3,46.1c1,1.8,2.1,3.1,3.5,4c1.1-1.1,2.1-2.4,2.9-4H134.3z"/>
			</g>
			<g>
				<path class="st1" d="M155.6,45.7c-0.8,0.6-1.7,1.2-2.6,1.7c0,1.9,0,3.8,0,5.5c0,0.1,0,0.1,0,0.2c0,0.9-0.2,1.4-1.8,1.7
					c-0.1,0-0.1,0-0.2,0c-0.2,0-0.2-0.1-0.3-0.3c-0.1-1-0.3-1.1-1.5-1.5c-0.1-0.1-0.2-0.1-0.2-0.2c0-0.1,0.1-0.1,0.2-0.1
					c0,0,0,0,0.1,0c0.5,0.1,1.2,0.1,1.6,0.1c0.4,0,0.4-0.1,0.4-0.5c0-0.9,0-2.4,0.1-4c-0.4,0.3-0.8,0.4-1.3,0.6
					c-0.1,0-0.5,0.2-0.5,0.5c0,0.2-0.1,0.3-0.2,0.3c-0.1,0-0.2-0.1-0.3-0.3c-0.2-0.6-0.4-1.3-0.6-1.9c0-0.1,0-0.1,0-0.1
					c0-0.1,0.1-0.1,0.3-0.1c0.7-0.1,1.7-0.2,2.5-0.4c0-1.2,0-2.4,0-3.5h-0.8c-0.5,0-1.1,0-1.4,0.1c0,0-0.1,0-0.1,0
					c-0.1,0-0.1-0.1-0.2-0.1c-0.1-0.1-0.1-0.3-0.2-0.5c0-0.1,0-0.1,0-0.1c0,0,0-0.1,0.1-0.1c0,0,0.1,0,0.1,0
					c0.4,0.1,1.1,0.2,1.7,0.2h0.8c0-1.8,0-3.2,0-3.4c0-0.2-0.1-0.4-0.1-0.5c0-0.1,0-0.1,0.1-0.1c0,0,0.1,0,0.1,0
					c0.6,0.1,1.2,0.2,1.9,0.3c0.3,0.1,0.4,0.2,0.4,0.3s-0.1,0.2-0.4,0.3c-0.3,0.1-0.3,0.2-0.3,0.5c0,0.6,0,1.5,0,2.6h0.3
					c0.1,0,0.2,0,0.3-0.1c0.1-0.2,0.5-0.8,0.7-1.1c0-0.1,0.1-0.1,0.1-0.1c0.1,0,0.1,0,0.2,0.1c0.3,0.3,0.8,0.9,1.1,1.3
					c0,0.1,0.1,0.1,0.1,0.2c0,0.1-0.1,0.1-0.2,0.1H153c0,0.9,0,2,0,3.1c0.9-0.2,1.7-0.5,2.5-0.9c0.1,0,0.1,0,0.1,0
					c0.1,0,0.1,0.1,0.1,0.1S155.7,45.6,155.6,45.7z M163.7,54.3c-0.4,0-0.7-0.3-0.8-0.8c-0.1-0.5-0.2-1.1-0.4-1.8
					c-1.9,0.7-4.4,1.4-6.9,1.9c-0.3,0.1-0.4,0.1-0.4,0.4c0,0.3-0.1,0.5-0.3,0.5s-0.3-0.1-0.3-0.4c-0.2-0.7-0.5-1.4-0.7-2.1
					c0-0.1,0-0.1,0-0.2c0-0.1,0.1-0.1,0.3-0.1c0.5,0,1,0,1.6,0c1.5-4,2.5-9.7,2.5-12.3c0-0.1,0-0.1,0-0.1s0-0.1,0-0.1
					c0-0.1,0-0.2,0.1-0.2c0,0,0.1,0,0.2,0c0.8,0.2,1.7,0.4,2.3,0.5c0.2,0.1,0.3,0.2,0.3,0.3c0,0.1-0.1,0.3-0.5,0.3
					c-0.3,0-0.4,0.1-0.5,0.3c-0.7,3.6-2,8.2-3.8,11.2c2.1-0.1,4.4-0.3,6.1-0.5c-0.3-1-0.9-2.1-1.9-3.4c0-0.1-0.1-0.1-0.1-0.2
					c0-0.1,0.1-0.1,0.1-0.1c0,0,0.1,0,0.2,0.1c2.1,1.8,3.7,3.7,4,5.5c0,0.1,0,0.1,0,0.2C164.7,53.9,164.2,54.3,163.7,54.3z"/>
			</g>
			<g>
				<path class="st1" d="M174.4,47.5c-0.6,1.2-1.2,2.5-1.4,3.2c-0.1,0.3-0.2,0.5-0.2,0.7c0,0.4,0.2,0.6,0.2,1c0,0.1,0,0.1,0,0.1
					c0,0.5-0.4,0.9-0.9,0.9c-0.2,0-0.4-0.1-0.6-0.1c-2.1-1.1-2.8-4-2.8-7c0-0.6,0-1.3,0.1-1.9c0-0.1,0-0.3,0-0.4
					c0-0.9-0.3-1.7-0.7-2.1c-0.1-0.1-0.1-0.1-0.1-0.2c0-0.1,0.1-0.1,0.3-0.1c0.1,0,0.1,0,0.2,0c1.2,0,2.3,1,2.3,2.1c0,0,0,0,0,0.1
					c0,0.6-0.2,1-0.4,1.7c-0.2,0.6-0.3,1.4-0.3,2.1c0,1.2,0.3,2.3,0.8,2.9c0.2,0.2,0.3,0.3,0.4,0.3s0.3-0.1,0.5-0.3
					c0.7-0.7,1.5-1.8,2.3-2.8c0,0,0.1-0.1,0.1-0.1c0.1-0.1,0.1-0.1,0.2-0.1c0,0,0,0,0,0.1C174.5,47.2,174.5,47.3,174.4,47.5z
					 M183,47.8c-0.1,1.2-0.7,1.9-1.4,1.9c-0.1,0-0.1,0-0.2,0c-1.1-0.2-0.7-1.3-1.1-2c-0.1-0.2-0.2-0.3-0.2-0.4c0-0.1,0-0.1,0.1-0.1
					c0.1,0,0.2,0,0.4,0.1c0,0,0.1,0,0.1,0c0.3,0,0.4-0.2,0.4-0.6c0-1-0.7-3-2.4-3.9c-0.2-0.1-0.4-0.2-0.4-0.3c0,0,0,0,0.1,0
					c0.1,0,0.1,0,0.2,0c2.9,0.3,4.5,3.1,4.5,5C183.1,47.7,183,47.8,183,47.8z"/>
			</g>
			<g>
				<path class="st1" d="M197.1,53.8c-0.4,0-0.8-0.2-1.2-0.6c-0.6-0.6-1.2-1-2-1.6c0,0.2,0,0.5,0,0.6c-0.1,1.4-1.6,2-3.2,2
					c-1.9,0-3.8-0.9-3.8-2.5c0,0,0,0,0,0c0-1.6,1.6-2.3,3.8-2.3c0.5,0,1,0,1.6,0.1c0-0.6-0.1-1.6-0.1-2.3c-0.1,0-0.2,0-0.3,0
					c-2.7,0-4.1-0.7-4.6-2c0-0.1,0-0.1,0-0.1c0-0.1,0-0.1,0.1-0.1s0.1,0,0.1,0.1c0.7,0.5,2,0.9,3.7,0.9c0.3,0,0.7,0,1,0
					c0-0.6,0-1.4,0-1.9c-3.2,0-4-0.8-4.4-1.9c0-0.1,0-0.1,0-0.2c0-0.1,0-0.1,0.1-0.1s0.1,0,0.2,0.1c0.4,0.4,1.5,0.7,3,0.7
					c0.4,0,0.8,0,1.2-0.1c0-0.4,0-0.9,0-1.2c0-0.7-0.1-1.5-1-1.8c-0.3-0.1-0.3-0.2-0.1-0.4c0.2-0.2,0.6-0.3,1-0.3
					c0.9,0,1.9,0.4,2,1.2c0,0.1,0,0.2,0,0.2c0,0.4-0.2,0.6-0.4,1.2c0,0.2-0.1,0.6-0.1,0.8c1.6-0.2,1.8-0.7,2.2-0.7
					c0.2,0,0.3,0,0.4,0c0.8,0,1.3,0.4,1.3,0.8c0,0.4-0.4,0.8-1.3,1c-0.9,0.2-1.7,0.3-2.7,0.4c0,0.5-0.1,1.3-0.1,1.8
					c0.8-0.1,1.4-0.3,1.5-0.4c0.2-0.1,0.3-0.2,0.3-0.3c0-0.1,0-0.1-0.1-0.2c-0.1-0.2-0.2-0.3-0.4-0.5c-0.1-0.2-0.1-0.3-0.1-0.3
					c0,0,0.1,0,0.2,0.1c0.6,0.4,0.9,0.4,1.2,0.4c0.2,0,0.3,0,0.5,0c0,0,0.1,0,0.1,0c0.6,0,1,0.4,1,0.8c0,0.3-0.2,0.7-0.7,1
					c-0.8,0.5-2.1,0.7-3.6,0.8c0.1,0.9,0.1,2,0.3,2.7c1.4,0.4,2.8,1.1,3.6,1.7c0.5,0.4,0.7,0.9,0.7,1.3
					C198,53.4,197.6,53.8,197.1,53.8z M192.2,50.9c-0.8-0.3-1.8-0.6-2.7-0.6c-1.1,0-1.9,0.3-1.9,1.2v0c0,0.7,1.4,1.2,2.6,1.2
					c1,0,2-0.3,2-1.1C192.2,51.5,192.2,51.1,192.2,50.9z"/>
			</g>
			<g>
				<path class="st1" d="M214.7,42.6c-0.1,0-0.3,0-0.4,0c-0.3,0-0.6-0.1-0.9-0.1c-3.4,0-4.7,2.5-4.7,5.9c0,0.2,0,0.4,0,0.6
					c0.1,1.6,1.2,2.6,3,2.6c0.1,0,0.1,0,0.2,0c0.1,0,0.2,0,0.3,0c1.2,0,1.9,0.3,1.9,0.9c0,0,0,0.1,0,0.1c-0.1,0.7-0.6,1-1.9,1
					c-2.6,0-4.8-1.5-4.8-4.4c0-0.1,0-0.2,0-0.3c0-3.1,1.4-6,4.5-7c0.2-0.1,0.2-0.1,0.2-0.2c0,0,0-0.1-0.1-0.1c-0.1,0-0.1,0-0.2,0
					c-3,0.8-4.8,1.6-6.1,2.4c-0.6,0.4-0.9,0.8-1.6,0.8c-0.1,0-0.1,0-0.2,0c-0.9-0.1-1.8-0.8-1.8-2c0-0.1,0-0.3,0.1-0.5
					s0.1-0.3,0.1-0.3c0.1,0,0.1,0.1,0.2,0.2c0.2,0.2,0.5,0.3,0.8,0.3c0.4,0,0.8-0.1,1.1-0.2c1.4-0.3,4.5-1.2,7.9-1.9
					c0.9-0.2,0.9-0.4,1.7-0.4c1.1,0,1.7,0.5,1.8,1c0,0.1,0,0.2,0,0.3C216,42.3,215.5,42.6,214.7,42.6z M215.1,47.1
					c-0.2,0-0.5-0.2-0.6-0.5c-0.3-0.9-0.8-1.5-1.4-2c-0.1-0.1-0.1-0.1-0.1-0.2s0-0.1,0.1-0.1c0,0,0,0,0.1,0c0.9,0.1,1.8,0.6,2.3,1.4
					c0.1,0.3,0.2,0.5,0.2,0.7C215.7,46.9,215.4,47.1,215.1,47.1z M216.8,45.9c-0.2,0-0.4-0.1-0.6-0.4c-0.3-0.7-0.9-1.3-1.7-1.8
					c-0.1-0.1-0.2-0.2-0.2-0.2c0-0.1,0.1-0.1,0.3-0.1c0.9,0,1.9,0.4,2.4,1.1c0.2,0.3,0.3,0.5,0.3,0.8
					C217.3,45.7,217.1,45.9,216.8,45.9z"/>
			</g>
			<g>
				<path class="st1" d="M230.1,55.9h-3.5v-17h3.5c0.1,0,0.1,0,0.1,0.2c0,0.2,0,0.2-0.1,0.2c-0.3,0-1.1,0.1-1.4,0.1
					c-0.4,0-0.4,0.1-0.4,0.5c0,1.8-0.1,4.3-0.1,7.5c0,2.5,0,5.3,0.1,7.5c0,0.4,0.1,0.4,0.4,0.5c0.3,0,1.2,0.1,1.4,0.1
					c0.1,0,0.1,0,0.1,0.2C230.2,55.9,230.2,55.9,230.1,55.9z"/>
			</g>
			<g>
				<path class="st1" d="M250.6,48.5h-6.9c0,2,0,4,0.1,5.5c0,0.5-0.1,0.7-1,0.7c-0.1,0-0.2,0-0.2,0c-0.6,0-0.7-0.2-0.7-0.6
					c0,0,0-0.1,0-0.1c0-0.7,0.1-1.6,0.1-2.5c0-0.9,0-1.9,0-3h-5.2c-0.6,0-1.3,0-1.5,0.1c0,0-0.1,0-0.1,0c-0.1,0-0.1-0.1-0.2-0.2
					c-0.1-0.1-0.1-0.3-0.2-0.5c0,0,0-0.1,0-0.1s0-0.1,0.1-0.1c0,0,0.1,0,0.1,0c0.4,0.1,1.2,0.2,1.8,0.2h5.1c0-0.5,0-0.9,0-1.4
					c0-2.2,0-4.4-0.1-5.8h-4.4c-0.6,0-1.3,0-1.5,0.1c0,0-0.1,0-0.1,0c-0.1,0-0.2-0.1-0.2-0.1c-0.1-0.1-0.1-0.3-0.2-0.5
					c0,0,0-0.1,0-0.1c0-0.1,0-0.1,0.1-0.1c0,0,0.1,0,0.1,0c0.4,0.1,1.2,0.2,1.9,0.2h9.6c0.1,0,0.2,0,0.3-0.1
					c0.3-0.4,0.6-0.8,0.9-1.2c0-0.1,0.1-0.1,0.1-0.1c0.1,0,0.1,0,0.2,0.1c0.5,0.4,1.2,1,1.6,1.4c0.1,0.1,0.1,0.1,0.1,0.2
					c0,0.1-0.1,0.2-0.3,0.2h-6.2c-0.1,1.8-0.1,4.5-0.1,7.2h3.9c0.1,0,0.2,0,0.3-0.1c0.3-0.4,0.6-0.8,1-1.2c0-0.1,0.1-0.1,0.1-0.1
					c0.1,0,0.1,0,0.2,0.1c0.5,0.4,1.2,1.1,1.6,1.5c0.1,0.1,0.1,0.1,0.1,0.2C250.9,48.4,250.8,48.5,250.6,48.5z M239.5,47.1
					c-0.4,0-0.7-0.3-0.9-0.8c-0.3-1.2-0.5-2.5-1.9-4c-0.1-0.1-0.1-0.2-0.1-0.2c0-0.1,0-0.1,0.1-0.1c0.1,0,0.1,0,0.2,0.1
					c1.7,0.8,3.1,2.2,3.5,3.5c0.1,0.2,0.1,0.3,0.1,0.5C240.4,46.6,239.9,47.1,239.5,47.1z M249.2,43.2c-0.1,0-0.1,0-0.2,0
					c-0.1,0-0.1,0-0.1,0c-0.2,0-0.3,0.1-0.4,0.3c-0.7,1-1.7,2.7-3.4,3.9c-0.1,0.1-0.2,0.1-0.2,0.1c-0.1,0-0.1,0-0.1-0.1
					c0-0.1,0-0.2,0.1-0.3c1.2-1.5,1.9-3.9,2.1-5.1c0-0.1,0-0.2,0.1-0.2c0,0,0.1,0,0.2,0.1c0.5,0.2,1.4,0.6,2,0.9
					c0.2,0.1,0.3,0.2,0.3,0.3C249.5,43.1,249.4,43.2,249.2,43.2z"/>
			</g>
			<g>
				<path class="st1" d="M260.2,49.1c-1.6,1.1-3.8,2.4-5.1,3c-0.2,0.1-0.3,0.1-0.3,0.4c0,0.5-0.3,0.5-0.5,0.2
					c-0.2-0.5-0.6-1.5-0.7-2c0-0.1,0-0.1,0-0.2c0-0.1,0-0.1,0.1-0.1c0,0,0.1,0,0.1,0c0,0,0,0,0.1,0c0.6-0.1,1.3-0.2,1.9-0.3
					c0-1.6,0.1-3.7,0.1-5.6h-0.3c-0.4,0-1,0-1.3,0.1c0,0-0.1,0-0.1,0c-0.1,0-0.1-0.1-0.2-0.1c-0.1-0.1-0.1-0.3-0.2-0.4
					c0,0,0-0.1,0-0.1c0-0.1,0-0.1,0.1-0.1c0,0,0.1,0,0.1,0c0.4,0.1,1.1,0.2,1.6,0.2h0.3c0-1.7-0.1-4.2-0.2-4.6
					c0-0.1-0.1-0.2-0.1-0.3c0-0.1,0-0.1,0.2-0.1c0,0,0.1,0,0.1,0c0.5,0,1.3,0.1,1.9,0.3c0.2,0.1,0.3,0.1,0.3,0.3
					c0,0.1-0.1,0.2-0.3,0.3c-0.2,0.1-0.3,0.1-0.3,0.4c0,0.7,0,2.2,0,3.7c0.2,0,0.3,0,0.3-0.1c0.2-0.3,0.5-0.6,0.7-0.9
					c0.1-0.1,0.2-0.1,0.3,0c0.3,0.3,0.8,0.8,1.1,1.2c0.1,0.1,0.1,0.1,0.1,0.2c0,0.1-0.1,0.1-0.2,0.1h-2.2c0,1.7,0,3.5,0,5.2
					c0.9-0.3,1.7-0.6,2.5-0.8c0,0,0.1,0,0.1,0c0.1,0,0.1,0.1,0.1,0.1S260.3,49,260.2,49.1z M269.3,42.4c-0.3,0.2-0.4,0.2-0.4,0.6
					c0,2.9-0.1,7.3-0.5,9c-0.3,1.8-0.8,2.4-2.4,2.7c-0.1,0-0.1,0-0.1,0c-0.2,0-0.2-0.1-0.3-0.3c-0.1-1-0.2-1.2-1.8-1.7
					c-0.1-0.1-0.2-0.1-0.2-0.2c0-0.1,0.1-0.2,0.2-0.2c0,0,0,0,0,0c0.9,0.1,1.4,0.2,1.9,0.3c0.5,0,0.7-0.1,0.9-0.7
					c0.4-1.4,0.6-6,0.6-8.7c0-0.4,0-0.8,0-1.1h-4.7c-0.7,1.5-1.6,2.9-2.9,4c-0.1,0.1-0.1,0.1-0.2,0.1c-0.1,0-0.1-0.1-0.1-0.1
					c0-0.1,0-0.1,0.1-0.2c1.2-2.1,2.2-5,2.2-6.9c0-0.1,0-0.1,0-0.2c0-0.1,0-0.1,0.1-0.1c0,0,0.1,0,0.1,0c0.6,0.1,1.5,0.3,2.1,0.5
					c0.2,0.1,0.3,0.2,0.3,0.3c0,0.1-0.1,0.2-0.4,0.3c-0.3,0.1-0.4,0.1-0.4,0.3c-0.2,0.6-0.4,1.2-0.7,1.7h4.2c0.1,0,0.2,0,0.3-0.1
					c0.1-0.1,0.5-0.5,0.7-0.8c0.1-0.1,0.2-0.1,0.4,0c0.4,0.3,0.9,0.6,1.2,0.9c0.1,0.1,0.2,0.2,0.2,0.4
					C269.6,42.2,269.5,42.3,269.3,42.4z M266.8,48.3c-1.7,1.4-3.9,2.5-5.4,3.1c-0.1,0.1-0.2,0.2-0.2,0.4c0,0.3-0.1,0.4-0.2,0.4
					c-0.1,0-0.2-0.1-0.3-0.3c-0.2-0.4-0.5-1.3-0.7-1.8c0,0,0-0.1,0-0.1c0-0.1,0.2-0.1,0.4-0.1c1.4-0.2,4.5-1,6.4-1.9
					c0.1,0,0.1,0,0.1,0c0.1,0,0.1,0,0.1,0.1C266.9,48.1,266.9,48.2,266.8,48.3z M266,45.8h-3.5c-0.4,0-1,0-1.3,0.1c0,0-0.1,0-0.1,0
					c-0.1,0-0.1-0.1-0.2-0.1c-0.1-0.1-0.1-0.3-0.2-0.5c0,0,0-0.1,0-0.1c0-0.1,0-0.1,0.1-0.1c0,0,0.1,0,0.1,0
					c0.4,0.1,1.1,0.2,1.6,0.2h0.9c0.2,0,0.3,0,0.4-0.1c0.2-0.3,0.5-0.7,0.8-0.9c0,0,0.1-0.1,0.1-0.1s0.1,0,0.1,0.1
					c0.4,0.3,0.9,0.7,1.3,1.2c0.1,0.1,0.1,0.1,0.1,0.2C266.2,45.7,266.2,45.8,266,45.8z"/>
			</g>
			<g>
				<path class="st1" d="M278.7,53.6c-3.2,0-5.2-1.5-5.2-3c0-0.6,0.2-1.1,0.9-1.1c1.8,0,0.1,3.5,4.3,3.5c1.7,0,3.5-1.1,3.5-2.9
					c0-2.3-2.2-3.5-4.8-3.5c0,0-0.1,0-0.1,0c-0.3,0-0.4-0.1-0.4-0.3c0-0.3,0.1-0.3,0.5-0.3c2.3,0,4.5-0.8,4.5-2.8
					c0-1.5-1.4-2.6-3.2-2.6c-1.5,0-2.8,0.6-2.8,1.3c0,0.5,0.3,0.7,0.3,1.1c0,0.6-0.4,0.9-1,0.9c-0.7,0-1-0.6-1-1.1
					c0-1.4,2.1-2.9,4.7-2.9c3,0,4.9,1.4,4.9,3.2c0,2-2,3.1-3.9,3.2c-0.2,0-0.3,0-0.3,0.1c0,0,0.1,0.1,0.3,0.1c2.3,0,4.4,1.5,4.4,3.5
					C284.1,52.3,281.9,53.6,278.7,53.6z"/>
			</g>
			<g>
				<path class="st1" d="M303.8,52.5c-0.6,0.4-0.8,0.8-0.9,1.4c0,0.2,0,0.3-0.3,0.3c-0.4,0-1,0-1.7,0c-2,0-4.6,0-6-0.3
					c-1.6-0.3-2.8-1-3.5-2.6h0c-0.7,1-1.4,1.9-1.9,2.4c-0.1,0.1-0.2,0.1-0.2,0.4c0,0.1,0,0.1,0,0.1c0,0,0,0,0,0
					c0,0.2-0.1,0.3-0.2,0.3c-0.1,0-0.2-0.1-0.2-0.2c-0.3-0.5-0.7-1.3-1-1.9c0-0.1-0.1-0.1-0.1-0.2c0-0.1,0.1-0.1,0.2-0.1
					c0.6-0.1,1.4-0.5,2.1-0.9c0-1.1,0.1-2.4,0.1-3.4c0-0.8,0-1.5,0-1.8h-0.5c-0.4,0-1,0-1.3,0.1c0,0-0.1,0-0.1,0
					c-0.1,0-0.1,0-0.2-0.1c-0.1-0.1-0.1-0.3-0.2-0.5c0,0,0-0.1,0-0.1c0-0.1,0-0.1,0.1-0.1s0.1,0,0.1,0c0.4,0.2,1.2,0.2,1.6,0.2h0.2
					c0,0,0.1,0,0.1,0c0.1,0,0.1-0.1,0.2-0.1c0.2-0.2,0.4-0.5,0.6-0.7c0.1-0.1,0.1-0.1,0.2-0.1c0.1,0,0.1,0,0.2,0.1
					c0.3,0.2,0.7,0.5,1,0.7c0.2,0.1,0.3,0.3,0.3,0.4c0,0.1-0.1,0.2-0.3,0.3c-0.3,0.2-0.3,0.2-0.3,0.4c0,0.4,0,1,0,1.7
					c0,0.9,0,1.9,0,2.5c0.2,0.2,0.3,0.4,0.5,0.6c0,0,0,0,0,0c0.7-1.4,1-2.9,1.1-5.4c0-0.8,0.1-1.8,0.1-2.9c0-1.7-0.1-3.4-0.2-4
					c0-0.1-0.1-0.2-0.1-0.3c0-0.1,0-0.1,0.1-0.1c0,0,0.1,0,0.2,0.1c0.6,0.3,1.4,0.7,1.6,0.8c0.3,0,5.7,0,5.7,0c0.2,0,0.2,0,0.3-0.1
					c0.2-0.2,0.5-0.5,0.6-0.6c0.1-0.1,0.1-0.1,0.2-0.1s0.1,0,0.2,0.1c0.2,0.1,0.9,0.7,1.1,0.8c0.1,0.1,0.2,0.2,0.2,0.3
					s-0.1,0.2-0.2,0.3c-0.3,0.2-0.4,0.2-0.4,0.4c0,0.7,0,3,0,5.3c0,1.6,0,3.2,0,4.1c0,0.1,0,0.2,0,0.3c0,0.8-0.1,1.3-1.6,1.6
					c0,0-0.1,0-0.1,0c-0.1,0-0.2-0.1-0.2-0.2c-0.1-1-0.2-1.1-1.5-1.5c-0.1,0-0.2-0.1-0.2-0.2s0.1-0.1,0.2-0.1c0,0,0,0,0.1,0
					c0.6,0.1,1,0.1,1.5,0.1c0,0,0,0,0.1,0c0.3,0,0.3-0.1,0.3-0.4c0-1.1,0-2.5,0-4c0-2.3,0-4.6,0-5.5h-6.2c0,3.2,0,5.9-0.3,7.7
					c-0.4,1.8-1.1,2.9-2,3.9c0.6,0.4,1.4,0.5,2.5,0.6c0.9,0.1,1.9,0.1,3.1,0.1c1.6,0,3.5-0.1,5.6-0.3c0,0,0,0,0,0
					c0.2,0,0.3,0.1,0.3,0.1C304,52.4,303.9,52.5,303.8,52.5z M291.2,42.8c-0.3,0-0.6-0.2-0.8-0.6c-0.3-0.8-0.5-1.7-1.5-2.5
					c-0.1-0.1-0.1-0.1-0.1-0.2s0.1-0.1,0.2-0.1c0,0,0.1,0,0.1,0c1.5,0.4,2.7,1,3,2c0.1,0.2,0.1,0.3,0.1,0.4
					C292.1,42.4,291.7,42.8,291.2,42.8z M300.8,44.7H297c-0.6,0-1,0-1.3,0.1c0,0-0.1,0-0.1,0c-0.1,0-0.1-0.1-0.2-0.1
					c-0.1-0.1-0.1-0.3-0.2-0.4c0,0,0-0.1,0-0.1c0,0,0-0.1,0.1-0.1c0,0,0.1,0,0.1,0c0.4,0.1,1,0.2,1.6,0.2h0.3c0-0.4,0-0.9,0-1.3
					c0-0.2,0-0.3,0-0.5h-0.1c-0.6,0-1,0-1.3,0.1c0,0-0.1,0-0.1,0c-0.1,0-0.1-0.1-0.2-0.1c-0.1-0.1-0.1-0.3-0.2-0.4c0,0,0-0.1,0-0.1
					c0,0,0-0.1,0.1-0.1c0,0,0.1,0,0.1,0c0.4,0.1,0.9,0.2,1.6,0.2h0.1c0-0.6,0-1-0.1-1.2c0-0.2-0.1-0.4-0.1-0.4s0-0.1,0.1-0.1
					c0,0,0.1,0,0.1,0c0.5,0.1,1,0.2,1.5,0.3c0.2,0,0.3,0.1,0.3,0.3c0,0.1-0.1,0.2-0.3,0.3c-0.2,0.1-0.2,0.2-0.2,0.5
					c0,0.1,0,0.3,0,0.5h0.2c0.1,0,0.2,0,0.3-0.1c0.1-0.1,0.3-0.5,0.5-0.6c0-0.1,0.1-0.1,0.1-0.1c0,0,0.1,0,0.1,0.1
					c0.2,0.2,0.7,0.7,0.8,0.8c0.1,0.1,0.1,0.1,0.1,0.2c0,0.1-0.1,0.1-0.2,0.1h-1.9c0,0.3,0,0.6,0,0.9c0,0.3,0,0.5,0,0.8h0.3
					c0.1,0,0.2,0,0.3-0.1c0.1-0.2,0.4-0.6,0.6-0.8c0-0.1,0.1-0.1,0.1-0.1c0,0,0.1,0,0.1,0.1c0.2,0.2,0.9,0.8,1,1
					c0.1,0.1,0.1,0.1,0.1,0.1C301,44.7,301,44.7,300.8,44.7z M300.3,46.6c-0.2,0.1-0.3,0.2-0.3,0.4c0,0.1,0,0.3,0,0.4
					c0,0.4,0,1.1,0,1.7c0,0,0,0,0,0.1c0,0.4-0.2,0.5-0.7,0.5c-0.1,0-0.2,0-0.3,0c-0.3,0-0.4-0.1-0.4-0.4c0,0,0,0,0-0.1
					c0,0,0-0.1,0-0.1h-1.5c0,0.2,0,0.3,0,0.5c0,0.5-0.2,0.5-0.7,0.6c-0.1,0-0.1,0-0.2,0c-0.3,0-0.5-0.1-0.5-0.4c0,0,0-0.1,0-0.1
					c0.1-0.8,0.1-1.7,0.1-2.5c0-0.6,0-1.1-0.1-1.4c0-0.1-0.1-0.2-0.1-0.3c0-0.1,0-0.1,0.1-0.1c0,0,0.1,0,0.1,0
					c0.4,0.2,1.4,0.6,1.4,0.6h1c0.2,0,0.2,0,0.3-0.1c0.1-0.1,0.4-0.4,0.5-0.5c0.1-0.1,0.1-0.1,0.2-0.1c0,0,0.1,0,0.2,0.1
					c0.2,0.1,0.8,0.5,0.9,0.6c0.1,0.1,0.2,0.1,0.2,0.2C300.5,46.4,300.5,46.5,300.3,46.6z M298.7,46.5h-1.5c0,0.6,0,1.3,0,2.3h1.5
					c0-0.6,0-1.1,0-1.6C298.7,46.9,298.7,46.7,298.7,46.5z"/>
			</g>
			<g>
				<path class="st1" d="M314.3,40.5c-0.3,0.1-0.4,0.2-0.4,0.4c0,0.3,0,0.6,0,0.9c0,1,0,2.3,0,3.2c0,0,0,0,0,0
					c0,0.5-0.3,0.6-0.9,0.6c-0.1,0-0.1,0-0.2,0c-0.4,0-0.6-0.1-0.6-0.5c0,0,0,0,0-0.1c0-0.1,0-0.1,0-0.2h-2.8c0,3.3,0,7.1,0.1,9.1
					c0,0.5-0.3,0.6-0.9,0.6c-0.1,0-0.1,0-0.2,0c-0.4,0-0.7-0.1-0.7-0.6c0,0,0,0,0-0.1c0.1-2,0.1-5.9,0.1-9.1c0-2.8,0-5.1-0.1-5.4
					c-0.1-0.2-0.1-0.3-0.1-0.4c0-0.1,0-0.1,0.1-0.1c0,0,0.1,0,0.2,0.1c0.6,0.2,1.8,0.8,1.8,0.8h2.2c0.1,0,0.2,0,0.3-0.1
					c0.2-0.2,0.5-0.5,0.7-0.6c0.1-0.1,0.2-0.1,0.4,0c0.4,0.3,0.8,0.6,1.1,0.8c0.1,0.1,0.2,0.2,0.2,0.3
					C314.5,40.3,314.4,40.4,314.3,40.5z M309.4,42.4c0,0.7,0,1.4,0,2.2h2.8c0-0.7,0-1.5,0-2.2H309.4z M312.2,40.2h-2.7
					c0,0.5,0,1.1,0,1.8h2.8C312.2,41.2,312.2,40.5,312.2,40.2z M318.3,47.3c-0.3,0.2-0.4,0.2-0.4,0.5c0,0.2,0,0.6,0,1.2
					c0,1,0,2.2,0.1,3.1c0,0,0,0.1,0,0.1c0,0.5-0.2,0.6-0.8,0.6c-0.1,0-0.1,0-0.2,0c-0.5,0-0.7-0.1-0.6-0.6c0,0,0-0.1,0-0.1H313
					c0,0.2,0,0.4,0,0.5c0,0.5-0.3,0.6-1,0.7c-0.1,0-0.1,0-0.2,0c-0.3,0-0.5-0.1-0.5-0.5c0,0,0-0.1,0-0.1c0.1-1.1,0.1-2.6,0.1-3.8
					c0-1.1,0-2-0.2-2.4c-0.1-0.2-0.1-0.3-0.1-0.4c0-0.1,0-0.1,0.1-0.1c0.1,0,0.1,0,0.2,0.1c0.7,0.3,1.7,0.8,1.7,0.8h2.8
					c0.2,0,0.2,0,0.3-0.1c0.2-0.2,0.4-0.4,0.6-0.6c0.1-0.1,0.1-0.1,0.2-0.1c0.1,0,0.1,0,0.2,0.1c0.4,0.2,0.8,0.5,1.1,0.7
					c0.1,0.1,0.2,0.2,0.2,0.3C318.6,47.1,318.5,47.2,318.3,47.3z M316.4,47.1h-3.4c0,0.4,0,1.1,0,1.8h3.5
					C316.4,48.2,316.4,47.6,316.4,47.1z M312.9,49.3c0,0.8,0,1.6,0,2.2h3.4c0-0.7,0-1.5,0.1-2.2H312.9z M322.2,40.6
					c-0.3,0.2-0.5,0.2-0.5,0.5c0,1.3,0,4,0,6.6c0,1.9,0,3.8,0,5c0,0.1,0,0.1,0,0.2c0,1.1-0.3,1.6-2,1.8c0,0-0.1,0-0.1,0
					c-0.2,0-0.2-0.1-0.2-0.3c-0.1-0.9,0-1-1.5-1.6c-0.1,0-0.1-0.1-0.1-0.2c0-0.1,0.1-0.1,0.2-0.1c0,0,0,0,0,0
					c0.6,0.1,1.2,0.1,1.6,0.1c0.4,0,0.4-0.1,0.4-0.4c0.1-1.6,0.1-4.6,0.1-7.3h-3c0,0,0,0,0,0.1c0,0.4-0.2,0.6-0.9,0.6
					c-0.1,0-0.1,0-0.2,0c-0.4,0-0.6-0.1-0.6-0.5c0,0,0-0.1,0-0.1c0.1-1,0.1-2.1,0.1-3.1c0-1,0-1.9-0.1-2.3c-0.1-0.2-0.1-0.3-0.1-0.4
					s0-0.1,0.1-0.1c0.1,0,0.1,0,0.2,0.1c0.7,0.3,1.7,0.8,1.7,0.8h2.4c0.1,0,0.2,0,0.3-0.1c0.2-0.2,0.5-0.5,0.7-0.7
					c0.1-0.1,0.1-0.1,0.2-0.1c0.1,0,0.1,0,0.2,0.1c0.4,0.2,0.9,0.6,1.2,0.9c0.1,0.1,0.2,0.2,0.2,0.3
					C322.5,40.3,322.4,40.4,322.2,40.6z M320,40.2h-3c0,0.3,0,1,0,1.8h3C320,41.3,320,40.6,320,40.2z M320.1,42.4h-3
					c0,0.7,0,1.5,0,2.2h3C320.1,43.8,320.1,43.1,320.1,42.4z"/>
			</g>
			<g>
				<path class="st1" d="M328.5,55.9c-0.1,0-0.1,0-0.1-0.2c0-0.2,0-0.2,0.1-0.2c0.3,0,1.1-0.1,1.4-0.1c0.4,0,0.4-0.1,0.4-0.5
					c0-2.3,0.1-5,0.1-7.5c0-3.2-0.1-5.8-0.1-7.5c0-0.4-0.1-0.4-0.4-0.5c-0.3,0-1.2-0.1-1.4-0.1c-0.1,0-0.1,0-0.1-0.2
					c0-0.2,0-0.2,0.1-0.2h3.5v17H328.5z"/>
			</g>
		</g>
	</g>
	<g>
		<g>
			<g>
				<path class="st2" d="M70.8,84.3l-0.4,0.4l-5.3-5.3l-5.3,5.3l-0.4-0.4l5.3-5.3l-5.2-5.2l0.4-0.4l5.2,5.2l5.2-5.2l0.4,0.4
					l-5.2,5.2L70.8,84.3z M62.3,79.1c0,0.6-0.5,1-1.1,1c-0.6,0-1-0.5-1-1c0-0.6,0.4-1,1-1C61.9,78,62.3,78.5,62.3,79.1z M66.1,75.3
					c0,0.6-0.5,1-1,1c-0.6,0-1-0.5-1-1c0-0.6,0.5-1,1-1C65.6,74.2,66.1,74.7,66.1,75.3z M66.1,82.8c0,0.6-0.5,1-1,1
					c-0.6,0-1-0.4-1-1c0-0.6,0.5-1,1-1C65.6,81.8,66.1,82.3,66.1,82.8z M69.9,79.1c0,0.6-0.4,1-1,1c-0.6,0-1.1-0.5-1.1-1
					c0-0.6,0.5-1,1.1-1C69.4,78,69.9,78.5,69.9,79.1z"/>
			</g>
			<g>
				<path class="st3" d="M77.8,75c0-0.6,0-1-0.1-1.3c0.4,0,0.9,0.1,1.1,0.2c0.1,0,0.2,0.1,0.2,0.2c0,0.1,0,0.1-0.1,0.2
					c-0.1,0.1-0.2,0.3-0.2,0.7c0,0.4,0,0.8-0.1,1.2c0.7-0.1,1.4-0.3,2.1-0.6c0.1,0,0.2,0,0.2,0.1c0,0.2,0.1,0.4,0.1,0.6
					c0,0.1,0,0.1-0.2,0.2c-0.7,0.3-1.3,0.4-2.2,0.6c0,0.9,0,1.8,0,2.8c1.3-0.6,2.5-1.1,3.7-1.1c1.7,0,2.7,1.1,2.7,2.5
					c0,1.7-1.1,2.6-2.9,2.6c-0.4,0-0.8-0.1-1.1-0.2c-0.1,0-0.2-0.1-0.2-0.4c0-0.2-0.1-0.4-0.2-0.6c0.5,0.2,1,0.3,1.5,0.3
					c1.1,0,2-0.6,2-1.7c0-1-0.7-1.7-1.9-1.7c-0.8,0-1.9,0.4-3.5,1.2c0,0.5,0,1.3,0.1,2.1c0,0.7,0.1,1.1,0.1,1.3c0,0.2,0,0.3-0.2,0.3
					c-0.2,0-0.4,0.1-0.6,0.1c-0.1,0-0.2-0.1-0.5-0.5c-0.5-0.5-1.2-1-2-1.6c-0.2,0.1-0.4,0.2-0.5,0.3c-0.1,0.1-0.1,0.1-0.2,0.1
					c-0.1,0-0.1-0.1-0.2-0.2c-0.1-0.2-0.3-0.5-0.4-0.9c0.4-0.1,0.8-0.2,1.4-0.5c0.6-0.3,1.4-0.7,2.3-1.2c0-1,0-2,0-3
					c-0.9,0.1-1.6,0.2-2.6,0.2c-0.2,0-0.2-0.1-0.3-0.2c0-0.2-0.1-0.4-0.1-0.7c0.9,0,1.8,0,2.9-0.1C77.8,75.9,77.8,75.5,77.8,75z
					 M76,82.2c0.7,0.4,1.1,0.7,1.7,1c0.1,0.1,0.1,0,0.1-0.1c0-0.6,0-1.2-0.1-2C77.2,81.5,76.7,81.8,76,82.2z M82.9,75.4
					c0.1-0.1,0.1-0.1,0.2-0.1c1.1,0.2,2.1,0.7,2.8,1.5c0.1,0.1,0.1,0.1,0,0.2c-0.1,0.2-0.3,0.4-0.4,0.6c-0.1,0.1-0.1,0.1-0.2,0
					c-0.7-0.8-1.6-1.3-2.7-1.5C82.6,75.8,82.7,75.6,82.9,75.4z"/>
			</g>
			<g>
				<path class="st3" d="M98.9,79.4c0,0.9,0,1.2,0,1.3c0,0.1,0,0.1-0.1,0.1c-0.1,0-0.6,0-2.1,0h-4.2c-1.4,0-1.8,0-1.9,0
					c-0.1,0-0.1,0-0.1-0.1v-0.5c0-0.1,0-0.1,0.1-0.1c0.1,0,0.5,0,1.9,0h5.6v-1.2h-5.3c-1.4,0-1.8,0-1.9,0c-0.1,0-0.1,0-0.1-0.1v-0.5
					c0-0.1,0-0.1,0.1-0.1c0.1,0,0.5,0,1.9,0h5.3v-1.1h-5.3c-1.4,0-1.8,0-1.9,0c-0.1,0-0.1,0-0.1-0.1v-0.5c-0.4,0.3-0.8,0.6-1.3,0.9
					c-0.1,0.1-0.2,0.1-0.2,0.1c-0.1,0-0.1-0.1-0.2-0.2C89,77,88.9,77,88.7,76.8c1.8-0.9,2.9-2.2,3.6-3.2c0.2-0.3,0.4-0.7,0.4-0.9
					c0.3,0.1,0.6,0.2,0.8,0.2c0.1,0,0.1,0.1,0.1,0.2s-0.1,0.1-0.1,0.2c-0.1,0.1-0.2,0.2-0.4,0.5L93,74h2.8c0.2,0,0.2,0,0.3,0
					c0,0,0.1,0,0.1,0c0.1,0,0.2,0,0.4,0.2c0.2,0.2,0.3,0.3,0.3,0.4s-0.1,0.1-0.2,0.2c-0.1,0.1-0.2,0.2-0.3,0.4
					c-0.3,0.4-0.7,0.9-1.1,1.3h1.3c1.4,0,2,0,2.1,0c0.1,0,0.1,0,0.1,0.1c0,0.1,0,0.4,0,1.3V79.4z M90.7,82c0.1,0.1,0.2,0.1,0.1,0.2
					c-0.3,0.9-0.7,1.7-1.3,2.4c-0.1,0.1-0.1,0.1-0.3,0l-0.4-0.3c-0.1-0.1-0.1-0.1,0-0.2c0.6-0.7,1-1.4,1.3-2.3c0-0.1,0.1-0.1,0.2,0
					L90.7,82z M92.5,74.7c-0.4,0.6-1,1.1-1.6,1.6c0.1,0,0.6,0,1.9,0h1.6c0.5-0.5,0.9-1,1.3-1.6H92.5z M92.9,83.4
					c0,0.4,0.1,0.6,0.3,0.7c0.3,0.2,0.8,0.2,1.5,0.2c1.1,0,1.7,0,2.1-0.3c0.3-0.2,0.5-0.7,0.5-1.4c0.2,0.1,0.4,0.2,0.6,0.3
					c0.2,0.1,0.2,0.1,0.2,0.4c-0.2,0.9-0.4,1.2-0.7,1.5c-0.5,0.3-1.2,0.4-2.6,0.4c-1,0-1.7,0-2.1-0.2c-0.3-0.2-0.6-0.4-0.6-1.2v-1.3
					c0-0.4,0-0.7-0.1-1.1c0.3,0,0.6,0.1,0.9,0.1c0.1,0,0.2,0.1,0.2,0.1c0,0.1,0,0.1-0.1,0.2c-0.1,0.1-0.1,0.4-0.1,0.7V83.4z
					 M94.5,81.1c0.1-0.1,0.1-0.1,0.2,0c0.5,0.4,1,0.9,1.4,1.4c0.1,0.1,0.1,0.1-0.1,0.2L95.7,83c-0.2,0.1-0.2,0.1-0.3,0
					c-0.4-0.6-0.8-1-1.3-1.5c-0.1-0.1-0.1-0.1,0.1-0.2L94.5,81.1z M98.8,81.6c0.1-0.1,0.1-0.1,0.2,0c0.7,0.6,1.2,1.3,1.8,2.2
					c0.1,0.1,0,0.1-0.1,0.2l-0.4,0.3c-0.1,0.1-0.1,0.1-0.2,0.1s-0.1,0-0.1-0.1c-0.5-0.9-1-1.6-1.6-2.2c-0.1-0.1-0.1-0.1,0.1-0.2
					L98.8,81.6z"/>
			</g>
			<g>
				<path class="st3" d="M107.6,74.5c-0.1-0.4-0.2-0.6-0.5-0.9c0.4-0.1,0.8-0.1,1.1-0.1c0.1,0,0.2,0.1,0.2,0.2c0,0.1,0,0.1,0,0.2
					c0,0.1,0,0.3,0.1,0.6c0.1,0.4,0.2,0.6,0.3,0.9c1-0.2,1.8-0.4,2.9-0.8c0.1,0,0.1,0,0.2,0.1c0.1,0.2,0.1,0.4,0.1,0.5
					c0,0.1,0,0.2-0.1,0.2c-1,0.3-1.8,0.5-2.8,0.7c0.2,0.5,0.4,1,0.7,1.6c1-0.2,1.9-0.5,2.8-0.8c0.1,0,0.2,0,0.2,0.1
					c0.1,0.2,0.1,0.4,0.1,0.5c0,0.1,0,0.2-0.1,0.2c-0.9,0.3-1.8,0.5-2.7,0.7c0.5,1,1.3,2.1,2.2,2.9c0.1,0.1,0.1,0.1,0.1,0.2
					c-0.1,0.2-0.2,0.4-0.3,0.5c-0.1,0.1-0.2,0.1-0.3,0c-0.3-0.2-0.6-0.4-1-0.5c-0.7-0.3-1.6-0.4-2.7-0.4c-1.5,0-2.4,0.4-2.4,1.4
					c0,1.1,1.3,1.5,3.5,1.5c0.5,0,1,0,1.4-0.1c0.1,0,0.1,0.1,0.1,0.2c0,0.2-0.1,0.5-0.2,0.7c0,0.1-0.1,0.2-0.2,0.2
					c-0.4,0-0.7,0.1-1.2,0.1c-2.8,0-4.4-0.8-4.4-2.4c0-1.4,1.2-2.2,3.2-2.2c1.2,0,2.2,0.2,2.9,0.5c-0.5-0.6-1.1-1.4-1.6-2.3
					c-1.4,0.3-2.7,0.4-4,0.5c-0.1,0-0.1,0-0.2-0.1c-0.1-0.2-0.1-0.4-0.1-0.7c1.4,0,2.7-0.2,4-0.4c-0.2-0.5-0.5-1-0.7-1.6
					c-1.1,0.2-2.4,0.4-3.7,0.4c-0.1,0-0.2,0-0.2-0.1c0-0.1-0.1-0.4-0.1-0.6c1.3,0,2.7-0.2,3.8-0.3C107.9,75.2,107.8,74.9,107.6,74.5
					z M112.5,73.3c0,0,0.1,0,0.1,0c0.6,0.4,1.2,1.1,1.6,1.7c0,0.1,0,0.1,0,0.2l-0.4,0.3c-0.1,0.1-0.1,0-0.2,0
					c-0.4-0.7-1-1.3-1.6-1.8L112.5,73.3z M113.7,72.4c0.1,0,0.1-0.1,0.2,0c0.6,0.4,1.2,1.1,1.6,1.6c0,0.1,0,0.1,0,0.2l-0.4,0.3
					c-0.1,0.1-0.1,0.1-0.2,0c-0.3-0.6-1-1.3-1.6-1.8L113.7,72.4z"/>
			</g>
			<g>
				<path class="st3" d="M123.3,75.5c-0.3,2.4-1,4.7-1.8,6.1c-0.6,1-1.2,1.4-2.1,1.4c-1.1,0-2-1.1-2-3.2c0-1.3,0.6-2.7,1.6-3.6
					c1-1,2.4-1.6,4.2-1.6c3.1,0,5,1.8,5,4.5c0,2.3-1.4,4.1-4.5,4.9c-0.2,0-0.3,0-0.4-0.2c-0.1-0.1-0.3-0.4-0.5-0.5
					c2.8-0.5,4.4-2,4.4-4.4c0-2.1-1.6-3.5-3.6-3.5H123.3z M119.6,76.9c-0.9,0.9-1.3,2.1-1.3,3c0,1.5,0.6,2.2,1.1,2.2
					c0.5,0,0.9-0.3,1.3-1c0.7-1.3,1.5-3.4,1.6-5.5C121.2,75.7,120.2,76.2,119.6,76.9z"/>
			</g>
			<g>
				<path class="st3" d="M133.8,80.8c0.5-0.2,1-0.5,1.5-0.8c0,0.1,0,0.3,0,0.5c0,0.3,0,0.3-0.2,0.4c-0.9,0.5-1.9,1-2.9,1.4
					c-0.3,0.1-0.5,0.2-0.5,0.2c-0.1,0.1-0.1,0.1-0.2,0.1c-0.1,0-0.1,0-0.2-0.1c-0.1-0.2-0.2-0.5-0.3-0.8c0.4-0.1,0.8-0.2,1.3-0.4
					c0.2-0.1,0.4-0.1,0.6-0.2v-3.8h-0.4c-1,0-1.2,0-1.3,0c-0.1,0-0.1,0-0.1-0.1v-0.6c0-0.1,0-0.1,0.1-0.1c0.1,0,0.3,0,1.3,0h0.4
					v-1.6c0-1,0-1.4-0.1-1.9c0.4,0,0.7,0,0.9,0.1c0.1,0,0.2,0.1,0.2,0.1s0,0.1-0.1,0.3c-0.1,0.2-0.1,0.5-0.1,1.4v1.7h0.1
					c1,0,1.2,0,1.3,0c0.1,0,0.1,0,0.1,0.1v0.6c0,0.1,0,0.1-0.1,0.1c-0.1,0-0.4,0-1.3,0h-0.1V80.8z M143.7,78.9c0,0.1,0,0.1-0.1,0.1
					c-0.1,0-0.5,0-1.9,0h-4.2c0.2,0.1,0.4,0.1,0.5,0.2c0.1,0,0.1,0.1,0.1,0.2c0,0.1,0,0.1-0.1,0.2c-0.1,0.1-0.2,0.1-0.3,0.3
					l-0.2,0.3h3.9c1.2,0,1.7,0,1.7,0c0.1,0,0.1,0,0.1,0.1l-0.1,1.4c-0.1,1-0.2,1.7-0.4,2.4c-0.2,0.8-0.6,1.1-1.4,1.1
					c-0.3,0-0.6,0-0.9,0c-0.2,0-0.2,0-0.3-0.3c-0.1-0.2-0.1-0.4-0.2-0.6c0.5,0.1,1,0.1,1.3,0.1c0.3,0,0.5-0.1,0.7-0.7
					c0.1-0.5,0.3-1.4,0.4-2.9h-1c-0.8,1.9-1.9,3.2-3.6,4.3c-0.1,0.1-0.2,0.1-0.2,0.1c-0.1,0-0.1,0-0.2-0.2s-0.3-0.3-0.4-0.3
					c1.8-1,3-2.2,3.6-3.9h-1.2c-0.9,1.5-2,2.5-3.4,3.4c-0.1,0.1-0.2,0.1-0.2,0.1c-0.1,0-0.1-0.1-0.2-0.2c-0.1-0.1-0.3-0.3-0.4-0.3
					c1.5-0.8,2.6-1.8,3.4-3.1H137c-0.6,0.8-1.4,1.5-2.2,2c-0.1,0.1-0.2,0.1-0.2,0.1c-0.1,0-0.1-0.1-0.2-0.2
					c-0.1-0.1-0.3-0.3-0.4-0.3c1.3-0.7,2.2-1.6,2.9-2.6c0.2-0.2,0.3-0.5,0.3-0.8h-0.1c-1.4,0-1.9,0-1.9,0c-0.1,0-0.1,0-0.1-0.1v-0.5
					c0-0.1,0-0.1,0.1-0.1c0.1,0,0.5,0,1.9,0h4.5c1.4,0,1.9,0,1.9,0c0.1,0,0.1,0,0.1,0.1V78.9z M142.2,76.1c0,0.8,0,1.1,0,1.2
					c0,0.1,0,0.1-0.1,0.1c-0.1,0-0.5,0-1.7,0h-2.3c-1.2,0-1.6,0-1.7,0c-0.1,0-0.1,0-0.1-0.1c0-0.1,0-0.4,0-1.2v-1.5
					c0-0.8,0-1.1,0-1.2c0-0.1,0-0.1,0.1-0.1c0.1,0,0.5,0,1.7,0h2.3c1.2,0,1.6,0,1.7,0c0.1,0,0.1,0,0.1,0.1c0,0.1,0,0.4,0,1.2V76.1z
					 M141.4,74h-4.2V75h4.2V74z M141.4,75.7h-4.2v1.1h4.2V75.7z"/>
			</g>
			<g>
				<path class="st3" d="M152.5,73.2c1.7,2.4,3.9,3.9,6.3,4.8c-0.2,0.2-0.3,0.4-0.4,0.6c-0.1,0.2-0.1,0.2-0.2,0.2
					c-0.1,0-0.1,0-0.2-0.1c-2.4-1-4.5-2.7-5.9-4.8c-1.5,2.2-3.4,3.7-5.7,4.9c-0.1,0.1-0.2,0.1-0.2,0.1c-0.1,0-0.1-0.1-0.2-0.2
					c-0.1-0.2-0.3-0.4-0.4-0.5c2.7-1.2,4.6-3,5.7-4.7c0.2-0.3,0.3-0.5,0.4-0.8c0.3,0.1,0.6,0.1,0.9,0.2c0.1,0,0.2,0.1,0.2,0.2
					c0,0.1,0,0.1-0.1,0.2L152.5,73.2z M156.1,82.7c0,2,0,2.3,0,2.4c0,0.1,0,0.1-0.1,0.1h-0.7c-0.1,0-0.1,0-0.1-0.1v-0.6H149v0.6
					c0,0.1,0,0.1-0.1,0.1h-0.7c-0.1,0-0.1,0-0.1-0.1c0-0.1,0-0.4,0-2.4v-1.1c0-1.1,0-1.5,0-1.6c0-0.1,0-0.1,0.1-0.1
					c0.1,0,0.6,0,1.9,0h3.9c1.4,0,1.8,0,1.9,0c0.1,0,0.1,0,0.1,0.1c0,0.1,0,0.4,0,1.4V82.7z M155.2,80.7H149v3.1h6.2V80.7z
					 M155,78.1c0,0.1,0,0.1-0.1,0.1c-0.1,0-0.5,0-1.6,0H151c-1.2,0-1.6,0-1.6,0c-0.1,0-0.1,0-0.1-0.1v-0.6c0-0.1,0-0.1,0.1-0.1
					c0.1,0,0.5,0,1.6,0h2.2c1.2,0,1.6,0,1.6,0c0.1,0,0.1,0,0.1,0.1V78.1z"/>
			</g>
			<g>
				<path class="st3" d="M163.5,74.1c0.2,0.1,0.2,0.2,0.1,0.4c-0.1,0.1-0.2,0.4-0.2,0.7c-0.4,2-0.7,3.9-0.7,5.2c0,0.8,0,1.5,0.1,2.4
					c0.3-0.8,0.6-1.5,1-2.3c0.1,0.3,0.2,0.4,0.3,0.6c0.1,0.1,0.1,0.2,0,0.3c-0.5,1.1-0.8,1.8-0.8,2.2c0,0.3,0,0.5,0,0.6
					c0,0.1,0,0.1-0.1,0.2c-0.2,0.1-0.4,0.1-0.6,0.2c-0.1,0-0.1,0-0.2-0.1c-0.5-1.2-0.5-2.8-0.5-4.1c0-1.5,0.2-3.1,0.6-5.3
					c0.1-0.5,0.1-1,0.1-1.4C162.8,73.8,163.3,74,163.5,74.1z M168.9,77.4c-1,0.1-2,0.1-3.1,0c-0.1,0-0.1,0-0.2-0.1
					c0-0.2-0.1-0.5-0.1-0.7c1.2,0.1,2.3,0.1,3.3,0c0-0.5,0-1,0-1.6c0-0.4,0-0.8-0.1-1.2c0.5,0,0.8,0.1,1.1,0.2
					c0.1,0,0.2,0.1,0.2,0.2c0,0.1,0,0.1-0.1,0.2c-0.1,0.1-0.1,0.4-0.1,0.7c0,0.5,0,1,0,1.6c0.7-0.1,1.5-0.2,2.2-0.3
					c0.1,0,0.1,0,0.1,0.1c0,0.2,0.1,0.4,0.1,0.6c0,0.1,0,0.2-0.1,0.2c-0.7,0.2-1.6,0.3-2.3,0.3c0,1.6,0.1,3,0.1,4.2
					c0.9,0.4,1.7,0.9,2.5,1.4c0.1,0.1,0.1,0.1,0,0.2c-0.1,0.2-0.2,0.4-0.4,0.6c-0.1,0.1-0.1,0.1-0.2,0c-0.6-0.5-1.2-0.9-2-1.3
					c-0.1,1.2-0.8,1.9-2.3,1.9c-1.3,0-2.2-0.6-2.2-1.6c0-1,1-1.7,2.2-1.7c0.4,0,1,0.1,1.5,0.2C168.9,80.1,168.9,78.8,168.9,77.4z
					 M169,82.1c-0.5-0.2-1-0.2-1.5-0.2c-0.8,0-1.3,0.3-1.3,0.9c0,0.5,0.5,0.8,1.3,0.8c1,0,1.5-0.4,1.5-1.2V82.1z"/>
			</g>
			<g>
				<path class="st3" d="M182,74.8c-1.9,2.8-2.9,5.6-3.2,9.3h-1.3c0.4-3.7,1.4-6.3,3.3-9.2h-5.1v-1h6.4V74.8z"/>
			</g>
			<g>
				<path class="st3" d="M196.9,76.3c0,1.2,0,1.4,0,1.5c0,0.1,0,0.1-0.1,0.1h-0.6c-0.1,0-0.1,0-0.1-0.1v-2.1h-9.7v2.1
					c0,0.1,0,0.1-0.1,0.1h-0.6c-0.1,0-0.1,0-0.1-0.1c0-0.1,0-0.3,0-1.5v-0.5c0-0.5,0-0.7,0-0.7c0-0.1,0-0.1,0.1-0.1
					c0.1,0,0.6,0,1.9,0h5.9c0.4-0.6,0.7-1.1,0.9-1.7c0.1-0.1,0.1-0.4,0.2-0.6c0.3,0.1,0.6,0.2,0.8,0.3c0.1,0.1,0.2,0.1,0.2,0.2
					c0,0.1,0,0.1-0.1,0.2c-0.1,0.1-0.2,0.2-0.3,0.4c-0.3,0.4-0.5,0.9-0.8,1.3h0.5c1.4,0,1.8,0,1.9,0c0.1,0,0.1,0,0.1,0.1
					c0,0.1,0,0.3,0,0.7V76.3z M195.8,83.2c0,1.6,0,1.9,0,2s0,0.1-0.1,0.1h-0.6c-0.1,0-0.1,0-0.1-0.1v-0.5h-7.5v0.6
					c0,0.1,0,0.1-0.1,0.1h-0.7c-0.1,0-0.1,0-0.1-0.1s0-0.3,0-2v-0.7c0-0.8,0-1.1,0-1.1c0-0.1,0-0.1,0.1-0.1c0.1,0,0.6,0,2,0h1.3
					c0.2-0.4,0.4-0.9,0.5-1.4h-0.8c-1.3,0-1.7,0-1.8,0s-0.1,0-0.1-0.1c0-0.1,0-0.3,0-1v-0.9c0-0.7,0-0.9,0-1c0-0.1,0-0.1,0.1-0.1
					s0.5,0,1.8,0h2.9c1.3,0,1.7,0,1.8,0s0.1,0,0.1,0.1c0,0.1,0,0.3,0,1v0.9c0,0.7,0,0.9,0,1c0,0.1,0,0.1-0.1,0.1s-0.5,0-1.8,0h-1.3
					c-0.2,0.5-0.4,1-0.5,1.4h2.9c1.4,0,1.9,0,2,0c0.1,0,0.1,0,0.1,0.1c0,0.1,0,0.4,0,1V83.2z M187.5,72.9c0.1-0.1,0.2-0.1,0.2,0
					c0.4,0.4,0.7,1,1,1.5c0,0.1,0,0.1-0.1,0.2l-0.4,0.2c-0.2,0.1-0.2,0.1-0.3-0.1c-0.2-0.4-0.6-1.1-0.9-1.4
					c-0.1-0.1-0.1-0.1,0.1-0.2L187.5,72.9z M195,82h-7.5v1.9h7.5V82z M193.7,77.6h-5.1v1.7h5.1V77.6z M190.8,72.7
					c0.1,0,0.1,0,0.2,0.1c0.3,0.4,0.6,0.9,0.8,1.5c0,0.1,0,0.1-0.1,0.2l-0.4,0.2c-0.2,0.1-0.2,0.1-0.3-0.1c-0.2-0.4-0.5-1.1-0.8-1.5
					c-0.1-0.1,0-0.1,0.1-0.2L190.8,72.7z"/>
			</g>
			<g>
				<path class="st3" d="M206.9,81.7c1.3,1.1,3,1.8,5.4,2.4c-0.1,0.1-0.3,0.3-0.4,0.5c-0.1,0.3-0.1,0.3-0.4,0.2
					c-2.2-0.6-3.9-1.5-5.3-2.8c0,2.1,0.1,3,0.1,3.2c0,0.1,0,0.1-0.1,0.1h-0.7c-0.1,0-0.1,0-0.1-0.1c0-0.2,0.1-1.1,0.1-3.2
					c-1.4,1.4-2.9,2.1-5.1,2.8c-0.3,0.1-0.3,0.1-0.4-0.2c-0.1-0.2-0.2-0.3-0.4-0.5c2.3-0.6,4-1.3,5.2-2.5h-2.9c-1.3,0-1.8,0-1.8,0
					c-0.1,0-0.1,0-0.1-0.1v-0.5c0-0.1,0-0.1,0.1-0.1c0.1,0,0.5,0,1.8,0h3.6v-1.1h-2.1c-1.4,0-1.9,0-2,0c-0.1,0-0.1,0-0.1-0.1v-0.5
					c0-0.1,0-0.1,0.1-0.1c0.1,0,0.6,0,2,0h2.1v-1.1h-2.8c-1.4,0-1.9,0-1.9,0c-0.1,0-0.1,0-0.1-0.1v-0.5c0-0.1,0-0.1,0.1-0.1
					c0.1,0,0.5,0,1.9,0h1.1c-0.2-0.5-0.4-0.9-0.6-1.2c-0.1-0.1,0-0.1,0.1-0.2l0.4-0.1c0.1-0.1,0.2-0.1,0.2,0
					c0.3,0.4,0.5,0.9,0.7,1.5h2.6c0.2-0.3,0.3-0.6,0.5-1c0.1-0.2,0.1-0.3,0.2-0.6c0.3,0.1,0.5,0.1,0.7,0.2c0.1,0,0.2,0.1,0.2,0.2
					c0,0.1-0.1,0.1-0.1,0.2c-0.1,0.1-0.1,0.2-0.2,0.3c-0.1,0.2-0.3,0.5-0.5,0.8h1.2c1.4,0,1.9,0,1.9,0c0.1,0,0.1,0,0.1,0.1v0.5
					c0,0.1,0,0.1-0.1,0.1c-0.1,0-0.5,0-1.9,0h-3v1.1h2.4c1.4,0,1.9,0,2,0c0.1,0,0.1,0,0.1,0.1v0.5c0,0.1,0,0.1-0.1,0.1
					c-0.1,0-0.6,0-2,0h-2.4v1.1h3.9c1.3,0,1.8,0,1.8,0c0.1,0,0.1,0,0.1,0.1v0.5c0,0.1,0,0.1-0.1,0.1c-0.1,0-0.5,0-1.8,0H206.9z
					 M212,75.7c0,0.1,0,0.1-0.1,0.1c-0.1,0-0.5,0-1.8,0h-8.3c-1.3,0-1.8,0-1.8,0c-0.1,0-0.1,0-0.1-0.1v-0.5c0-0.1,0-0.1,0.1-0.1
					c0.1,0,0.5,0,1.8,0h0.5c-0.3-0.6-0.6-1.1-1-1.5c-0.1-0.1-0.1-0.1,0.1-0.2l0.4-0.2c0.1-0.1,0.1-0.1,0.2,0c0.4,0.4,0.7,0.9,1,1.4
					c0,0.1,0,0.1-0.1,0.2l-0.5,0.3h1.8v-1.1c0-0.5,0-0.9-0.1-1.3c0.3,0,0.6,0,0.9,0.1c0.1,0,0.1,0.1,0.1,0.1c0,0.1,0,0.1-0.1,0.2
					c-0.1,0.1-0.1,0.4-0.1,0.9v1.1h1.5v-1c0-0.5,0-0.9-0.1-1.3c0.3,0,0.6,0,0.9,0.1c0.1,0,0.1,0.1,0.1,0.1c0,0.1,0,0.1-0.1,0.2
					c0,0.1-0.1,0.4-0.1,0.9v1.1h1.3c0.3-0.4,0.5-0.9,0.8-1.3c0.1-0.2,0.2-0.4,0.2-0.7c0.3,0.1,0.6,0.2,0.8,0.3
					c0.1,0,0.1,0.1,0.1,0.1c0,0.1,0,0.1-0.1,0.2c-0.1,0.1-0.2,0.2-0.2,0.3c-0.2,0.4-0.5,0.7-0.7,1.1h0.6c1.3,0,1.8,0,1.8,0
					c0.1,0,0.1,0,0.1,0.1V75.7z"/>
			</g>
			<g>
				<path class="st3" d="M224.4,80c0,4,0,4.7,0,4.8c0,0.1,0,0.1-0.1,0.1h-0.7c-0.1,0-0.1,0-0.1-0.1v-0.9h-6.5v0.9
					c0,0.1,0,0.1-0.1,0.1h-0.7c-0.1,0-0.1,0-0.1-0.1c0-0.1,0-0.8,0-4.8v-2.7c0-2.7,0-3.4,0-3.5c0-0.1,0-0.1,0.1-0.1
					c0.1,0,0.6,0,1.9,0h4.2c1.4,0,1.9,0,1.9,0c0.1,0,0.1,0,0.1,0.1c0,0.1,0,0.8,0,3.2V80z M223.6,74.5h-6.5v3.8h6.5V74.5z
					 M223.6,79.1h-6.5v4.1h6.5V79.1z"/>
			</g>
			<g>
				<path class="st3" d="M228.7,79.6c1.1-1.2,2.1-1.8,3.3-1.8c0.9,0,1.6,0.3,2.8,0.9c1.4,0.8,2.2,1,3,1c0.9,0,1.7-0.3,2.7-1.4
					l0.4,0.4c-1.1,1.3-2.1,1.9-3.3,1.9c-0.8,0-1.6-0.2-2.8-0.9c-1.4-0.8-2.1-1-3-1c-0.8,0-1.6,0.3-2.7,1.4L228.7,79.6z"/>
			</g>
			<g>
				<path class="st3" d="M255.6,74.4c0,0.1,0,0.1-0.1,0.1c-0.1,0-0.5,0-1.6,0v6.6c0,1.5,0,2.1,0,2.6c0,0.6-0.1,0.9-0.4,1.1
					c-0.3,0.3-1.1,0.3-2.4,0.3c-0.3,0-0.3,0-0.3-0.3c-0.1-0.3-0.2-0.5-0.3-0.6c0.4,0,1.1,0.1,1.7,0.1c0.6,0,0.8-0.1,0.8-0.5v-9.2
					h-7.6c-1.3,0-1.8,0-1.8,0c-0.1,0-0.1,0-0.1-0.1v-0.7c0-0.1,0-0.1,0.1-0.1c0.1,0,0.5,0,1.8,0h8.2c1.3,0,1.8,0,1.8,0
					c0.1,0,0.1,0,0.1,0.1V74.4z M250.3,79.6c0,2.1,0,2.4,0,2.5c0,0.1,0,0.1-0.1,0.1h-0.6c-0.1,0-0.1,0-0.1-0.1v-0.7h-3.4v1.1
					c0,0.1,0,0.1-0.1,0.1h-0.6c-0.1,0-0.1,0-0.1-0.1c0-0.1,0-0.4,0-2.6v-1.4c0-1.3,0-1.7,0-1.8c0-0.1,0-0.1,0.1-0.1
					c0.1,0,0.4,0,1.5,0h1.9c1.1,0,1.4,0,1.5,0c0.1,0,0.1,0,0.1,0.1c0,0.1,0,0.4,0,1.5V79.6z M249.5,77.4h-3.4v3.2h3.4V77.4z"/>
			</g>
			<g>
				<path class="st3" d="M262.5,74.1c0.1-0.1,0.2-0.1,0.2,0c0.6,0.7,1.1,1.5,1.6,2.3c0,0.1,0,0.1-0.1,0.2l-0.3,0.2
					c-0.1,0-0.1,0.1-0.2,0.1c0,0-0.1,0-0.1-0.1c-0.1-0.2-0.2-0.5-0.4-0.7c-1.3,0.2-2.7,0.4-4.3,0.6c-0.4,0-0.5,0.1-0.6,0.2
					c-0.1,0-0.1,0.1-0.2,0.1c-0.1,0-0.1,0-0.1-0.2c-0.1-0.2-0.1-0.5-0.2-0.8c0.4,0,0.9,0,1.2,0c0.4-0.8,0.9-1.7,1.1-2.2
					c0.1-0.3,0.2-0.6,0.3-1c0.3,0.1,0.6,0.1,0.8,0.2c0.1,0.1,0.2,0.1,0.2,0.2s-0.1,0.2-0.1,0.2c-0.1,0.1-0.2,0.2-0.2,0.4
					c-0.3,0.6-0.7,1.4-1.1,2.1c1-0.1,2-0.2,2.9-0.4c-0.2-0.3-0.5-0.7-0.7-1c-0.1-0.1,0-0.1,0.1-0.2L262.5,74.1z M263.5,82.1
					c0,0.7,0,1.5,0,1.8c0,0.4,0,0.7-0.3,0.9c-0.2,0.2-0.4,0.3-1.4,0.3c-0.3,0-0.3,0-0.4-0.3c-0.1-0.2-0.1-0.4-0.2-0.5
					c0.3,0,0.6,0.1,0.9,0.1c0.5,0,0.6-0.1,0.6-0.6v-1.6h-3v1.2c0,1.2,0,1.7,0,1.7c0,0.1,0,0.1-0.1,0.1h-0.6c-0.1,0-0.1,0-0.1-0.1
					c0-0.1,0-0.5,0-1.7v-4c0-1.2,0-1.7,0-1.8c0-0.1,0-0.1,0.1-0.1c0.1,0,0.4,0,1.4,0h1.5c1,0,1.3,0,1.4,0c0.1,0,0.1,0,0.1,0.1
					c0,0.1,0,0.6,0,1.8V82.1z M262.7,78.2h-3v1.3h3V78.2z M262.7,80.2h-3v1.3h3V80.2z M265.7,77.1c0,0.4,0.1,0.5,0.4,0.6
					c0.2,0.1,0.6,0.1,1.4,0.1c0.9,0,1.5-0.1,1.7-0.3s0.3-0.5,0.3-1.3c0.2,0.1,0.3,0.2,0.5,0.3c0.2,0.1,0.2,0.1,0.2,0.4
					c-0.1,0.8-0.2,1-0.5,1.3c-0.3,0.3-1.1,0.4-2.3,0.4c-0.9,0-1.6,0-2-0.2c-0.3-0.1-0.5-0.3-0.5-0.9v-3.1c0-0.6,0-1.1-0.1-1.4
					c0.3,0,0.6,0,0.9,0.1c0.1,0,0.2,0.1,0.2,0.1c0,0.1,0,0.2-0.1,0.2c-0.1,0.1-0.1,0.3-0.1,1v1c1-0.3,1.9-0.7,2.5-1.1
					c0.4-0.2,0.6-0.4,0.7-0.6c0.3,0.2,0.4,0.4,0.6,0.5c0.1,0.1,0.1,0.1,0.1,0.2c0,0.1-0.1,0.1-0.2,0.1c-0.2,0-0.4,0.1-0.6,0.3
					c-0.9,0.4-2,0.9-3.2,1.3V77.1z M265.8,83.5c0,0.3,0.1,0.5,0.4,0.6c0.2,0.1,0.7,0.1,1.5,0.1c0.6,0,1.4-0.1,1.6-0.3
					c0.3-0.3,0.3-0.6,0.4-1.4c0.2,0.1,0.4,0.2,0.6,0.3c0.2,0.1,0.2,0.1,0.2,0.4c-0.1,0.8-0.3,1.1-0.6,1.3c-0.3,0.2-1.1,0.4-2.2,0.4
					c-1,0-1.7,0-2.1-0.2c-0.3-0.1-0.5-0.4-0.5-1v-3.2c0-0.6,0-1-0.1-1.4c0.3,0,0.6,0,0.9,0.1c0.1,0,0.2,0.1,0.2,0.1
					c0,0.1,0,0.2-0.1,0.3c0,0.1-0.1,0.2-0.1,0.9v0.9c1-0.4,2-0.8,2.7-1.2c0.4-0.2,0.6-0.4,0.7-0.6c0.3,0.2,0.4,0.3,0.6,0.5
					c0.1,0.1,0.1,0.2,0.1,0.2c0,0.1-0.1,0.1-0.2,0.1c-0.2,0-0.4,0.1-0.6,0.3c-0.9,0.5-2,1-3.3,1.4V83.5z"/>
			</g>
			<g>
				<path class="st3" d="M276.5,83.6c0,1.1-0.9,1.9-2,1.9c-1.1,0-2-0.9-2-1.9c0-1.1,0.9-1.9,2-1.9C275.6,81.7,276.5,82.6,276.5,83.6
					z M273.3,83.6c0,0.7,0.6,1.2,1.2,1.2c0.7,0,1.2-0.6,1.2-1.2s-0.5-1.2-1.2-1.2C273.9,82.4,273.3,83,273.3,83.6z"/>
			</g>
			<g>
				<path class="st3" d="M14.1,99c0-0.6,0-1-0.1-1.3c0.4,0,0.9,0.1,1.1,0.2c0.1,0,0.2,0.1,0.2,0.2c0,0.1,0,0.1-0.1,0.2
					C15.1,98.4,15,98.6,15,99c0,0.4,0,0.8-0.1,1.2c0.7-0.1,1.4-0.3,2.1-0.6c0.1,0,0.2,0,0.2,0.1c0,0.2,0.1,0.4,0.1,0.6
					c0,0.1,0,0.1-0.2,0.2c-0.7,0.3-1.3,0.4-2.2,0.6c0,0.9,0,1.8,0,2.8c1.3-0.6,2.5-1.1,3.7-1.1c1.7,0,2.7,1.1,2.7,2.5
					c0,1.7-1.1,2.6-2.9,2.6c-0.4,0-0.8-0.1-1.1-0.2c-0.1,0-0.2-0.1-0.2-0.4c0-0.2-0.1-0.4-0.2-0.6c0.5,0.2,1,0.3,1.5,0.3
					c1.1,0,2-0.6,2-1.7c0-1-0.7-1.7-1.9-1.7c-0.8,0-1.9,0.4-3.5,1.2c0,0.5,0,1.3,0.1,2.1c0,0.7,0.1,1.1,0.1,1.3c0,0.2,0,0.3-0.2,0.3
					c-0.2,0-0.4,0.1-0.6,0.1c-0.1,0-0.2-0.1-0.5-0.5c-0.5-0.5-1.2-1-2-1.6c-0.2,0.1-0.4,0.2-0.5,0.3c-0.1,0.1-0.1,0.1-0.2,0.1
					c-0.1,0-0.1-0.1-0.2-0.2c-0.1-0.2-0.3-0.5-0.4-0.9c0.4-0.1,0.8-0.2,1.4-0.5c0.6-0.3,1.4-0.7,2.3-1.2c0-1,0-2,0-3
					c-0.9,0.1-1.6,0.2-2.6,0.2c-0.2,0-0.2-0.1-0.3-0.2c0-0.2-0.1-0.4-0.1-0.7c0.9,0,1.8,0,2.9-0.1C14.1,99.9,14.1,99.5,14.1,99z
					 M12.3,106.2c0.7,0.4,1.1,0.7,1.7,1c0.1,0.1,0.1,0,0.1-0.1c0-0.6,0-1.2-0.1-2C13.4,105.5,12.9,105.8,12.3,106.2z M19.1,99.4
					c0.1-0.1,0.1-0.1,0.2-0.1c1.1,0.2,2.1,0.7,2.8,1.5c0.1,0.1,0.1,0.1,0,0.2c-0.1,0.2-0.3,0.4-0.4,0.6c-0.1,0.1-0.1,0.1-0.2,0
					c-0.7-0.8-1.6-1.3-2.7-1.5C18.9,99.8,19,99.6,19.1,99.4z"/>
			</g>
			<g>
				<path class="st3" d="M26.3,103.5c0-0.5,0-1.3,0-2c-0.4,0.6-0.8,1.1-1.3,1.6c-0.1,0.1-0.1,0.1-0.2,0.1c0,0-0.1,0-0.1-0.1
					c-0.1-0.2-0.2-0.4-0.4-0.6c1.4-1.5,2.3-3.1,3-4.9c0.1-0.3,0.2-0.7,0.2-0.9c0.3,0.1,0.6,0.2,0.9,0.3c0.1,0.1,0.2,0.1,0.2,0.2
					c0,0.1,0,0.1-0.1,0.2c-0.1,0.1-0.2,0.2-0.3,0.5c-0.3,0.8-0.6,1.5-1.1,2.2v6.9c0,1.5,0,2.1,0,2.2c0,0.1,0,0.1-0.1,0.1h-0.7
					c-0.1,0-0.1,0-0.1-0.1c0-0.1,0-0.7,0-2.2V103.5z M37.3,108.6c0,0.1,0,0.1-0.1,0.1c-0.1,0-0.5,0-2,0H30c-1.4,0-1.9,0-2,0
					c-0.1,0-0.1,0-0.1-0.1V108c0-0.1,0-0.1,0.1-0.1c0.1,0,0.6,0,2,0h2v-3.5h-1.1c-1.3,0-1.8,0-1.8,0c-0.1,0-0.1,0-0.1-0.1v-0.6
					c0-0.1,0-0.1,0.1-0.1c0.1,0,0.5,0,1.8,0H32v-2.9h-1.5c-1.4,0-1.9,0-1.9,0c-0.1,0-0.1,0-0.1-0.1V100c0-0.1,0-0.1,0.1-0.1
					c0.1,0,0.5,0,1.9,0h4.2c1.4,0,1.9,0,1.9,0c0.1,0,0.1,0,0.1,0.1v0.6c0,0.1,0,0.1-0.1,0.1c-0.1,0-0.5,0-1.9,0h-1.8v2.9h1.3
					c1.3,0,1.8,0,1.8,0c0.1,0,0.1,0,0.1,0.1v0.6c0,0.1,0,0.1-0.1,0.1c-0.1,0-0.5,0-1.8,0h-1.3v3.5h2.3c1.4,0,1.9,0,2,0
					c0.1,0,0.1,0,0.1,0.1V108.6z M31.2,97c0.1-0.1,0.1-0.1,0.2-0.1c0.8,0.4,1.6,0.9,2.3,1.5c0.1,0.1,0.1,0.1,0,0.2L33.4,99
					c-0.1,0.2-0.2,0.2-0.3,0.1c-0.7-0.6-1.5-1.2-2.3-1.6c-0.1-0.1-0.1-0.1,0-0.2L31.2,97z"/>
			</g>
			<g>
				<path class="st3" d="M48.9,101.6c0-0.3,0-0.6,0-0.9c0.5,0.1,0.8,0.2,1.1,0.4c0.1,0.1,0.1,0.2,0.1,0.3c-0.1,0.1-0.1,0.2-0.2,0.4
					c-0.1,0.6-0.3,1.5-0.4,2.1c0.8,0.4,1.6,0.9,2.4,1.4c0.1,0,0.1,0.1,0.1,0.2c-0.1,0.2-0.3,0.5-0.4,0.7c-0.1,0.1-0.1,0.1-0.2,0
					c-0.8-0.6-1.5-1.1-2.1-1.4c-0.7,1.8-1.5,3-2.9,4c-0.2,0.1-0.2,0.1-0.3,0.1c-0.2-0.2-0.4-0.3-0.7-0.3c1.8-1.2,2.6-2.4,3.2-4.1
					c-1-0.5-2.1-0.9-3.4-1c-0.6,1.4-1.1,2.2-1.5,2.7c-0.5,0.6-1.1,0.9-1.7,0.9c-0.7,0-1.4-0.5-1.4-1.6c0-1.6,1.7-2.8,4.1-2.8
					c0.5-1.3,1-2.4,1.4-3.9c-1,0.1-2,0.2-2.5,0.3c-0.3,0-0.5,0.1-0.6,0.1c-0.1,0-0.1,0-0.2,0c-0.1,0-0.1,0-0.2-0.1
					c-0.1-0.2-0.2-0.5-0.3-1c0.4,0.1,0.7,0.1,1.2,0.1c0.6,0,1.4-0.1,2.1-0.2c0.4-0.1,0.5-0.1,0.6-0.2c0.1-0.1,0.2-0.1,0.3,0
					c0.2,0.1,0.4,0.3,0.6,0.5c0.1,0.1,0.1,0.2,0,0.3c-0.1,0.1-0.2,0.4-0.3,0.7c-0.5,1.3-0.9,2.3-1.4,3.4c1.2,0.1,2.3,0.4,3.4,0.9
					C48.8,102.9,48.9,102.2,48.9,101.6z M41,105.3c0,0.5,0.2,0.8,0.6,0.8c0.3,0,0.7-0.2,1.1-0.7c0.3-0.4,0.7-1,1.2-2
					C42.3,103.5,41,104.3,41,105.3z"/>
			</g>
			<g>
				<path class="st3" d="M60,100.7c0,0.1,0,0.1-0.1,0.1c-0.1,0-0.4,0-1.6,0h-0.4c0.5,0.7,1.1,1.2,1.9,1.6c-0.1,0.1-0.3,0.3-0.3,0.4
					c-0.1,0.2-0.1,0.2-0.2,0.2c0,0-0.1,0-0.2-0.1c-0.7-0.5-1.2-1-1.7-1.7c-0.4,1-1.2,1.9-2.4,2.7c-0.1,0.1-0.2,0.1-0.2,0.1
					s-0.1-0.1-0.2-0.2c-0.1-0.2-0.3-0.3-0.4-0.4c1.3-0.7,2.1-1.5,2.5-2.6h-0.7c-1.2,0-1.5,0-1.6,0c-0.1,0-0.1,0-0.1-0.1v-0.5
					c0-0.1,0-0.1,0.1-0.1c0.1,0,0.4,0,1.6,0H57c0.1-0.4,0.1-0.8,0.2-1.2h-0.6c-1.1,0-1.4,0-1.5,0c-0.1,0-0.1,0-0.1-0.1v-0.5
					c0-0.1,0-0.1,0.1-0.1c0.1,0,0.4,0,1.5,0h0.7v-0.2c0-0.6,0-0.9-0.1-1.3c0.3,0,0.5,0,0.8,0.1c0.1,0,0.2,0.1,0.2,0.1
					c0,0.1,0,0.2-0.1,0.3C58,97.4,58,97.5,58,97.9c0,0.1,0,0.2,0,0.3h0.3c1.1,0,1.4,0,1.5,0c0.1,0,0.1,0,0.1,0.1v0.5
					c0,0.1,0,0.1-0.1,0.1c-0.1,0-0.4,0-1.5,0h-0.3c0,0.4-0.1,0.9-0.2,1.2h0.5c1.2,0,1.5,0,1.6,0c0.1,0,0.1,0,0.1,0.1V100.7z
					 M64.1,106.6c0,2.2,0,2.5,0,2.6c0,0.1,0,0.1-0.1,0.1h-0.6c-0.1,0-0.1,0-0.1-0.1v-0.6h-5.7v0.7c0,0.1,0,0.1-0.1,0.1h-0.6
					c-0.1,0-0.1,0-0.1-0.1c0-0.1,0-0.4,0-2.6v-1.3c0-1.3,0-1.7,0-1.7c0-0.1,0-0.1,0.1-0.1c0.1,0,0.5,0,1.9,0h3.4c1.3,0,1.8,0,1.9,0
					c0.1,0,0.1,0,0.1,0.1c0,0.1,0,0.4,0,1.5V106.6z M63.3,104.3h-5.7v1.4h5.7V104.3z M63.3,106.4h-5.7v1.5h5.7V106.4z M63.6,100.8
					c0.8,1.1,1.7,1.8,3,2.4c-0.1,0.1-0.2,0.3-0.3,0.5c-0.1,0.1-0.1,0.2-0.2,0.2c0,0-0.1,0-0.2-0.1c-1.2-0.7-2.1-1.5-2.9-2.7
					c-0.4,0.8-0.9,1.5-1.9,2.2c-0.1,0.1-0.2,0.1-0.2,0.1c0,0-0.1-0.1-0.2-0.2c-0.1-0.2-0.3-0.3-0.4-0.4c1.1-0.6,1.7-1.2,2-2
					c-1.2,0-1.6,0-1.7,0c-0.1,0-0.1,0-0.1-0.1v-0.5c0-0.1,0-0.1,0.1-0.1c0.1,0,0.5,0,1.7,0h0.2c0.1-0.4,0.2-0.8,0.2-1.2h-0.3
					c-1.1,0-1.5,0-1.5,0c-0.1,0-0.1,0-0.1-0.1v-0.5c0-0.1,0-0.1,0.1-0.1c0.1,0,0.4,0,1.5,0h0.3v-0.2c0-0.6,0-0.9-0.1-1.3
					c0.3,0,0.5,0,0.8,0.1c0.1,0,0.2,0.1,0.2,0.1c0,0.1,0,0.2-0.1,0.3c0,0.1-0.1,0.3-0.1,0.7v0.3h0.8c1.1,0,1.5,0,1.5,0
					c0.1,0,0.1,0,0.1,0.1v0.5c0,0.1,0,0.1-0.1,0.1c-0.1,0-0.4,0-1.5,0h-0.9c0,0.4-0.1,0.9-0.2,1.2h1.3c1.2,0,1.6,0,1.7,0
					c0.1,0,0.1,0,0.1,0.1v0.5c0,0.1,0,0.1-0.1,0.1c-0.1,0-0.5,0-1.7,0H63.6z"/>
			</g>
			<g>
				<path class="st3" d="M73.1,101.1c1.1-0.2,2-0.4,2.6-0.5c0.2-0.1,0.3-0.1,0.4-0.2c0.1,0,0.1-0.1,0.2-0.1c0.1,0,0.1,0,0.2,0.1
					c0.2,0.1,0.4,0.3,0.5,0.4c0.1,0.1,0.1,0.2,0.1,0.2c0,0.1-0.1,0.2-0.2,0.2c-0.2,0.1-0.3,0.2-0.5,0.4c-1,1-2,2-3,3.1
					c0.3-0.1,0.5-0.2,0.8-0.2c0.7,0,1.3,0.5,1.5,1.6c0.3,1.3,0.5,1.5,2,1.5c0.7,0,1.4-0.1,2.1-0.2c0.1,0,0.2,0,0.2,0.1
					c0,0.2,0.1,0.4,0.1,0.7c0,0.1-0.1,0.1-0.2,0.2c-0.6,0.1-1.4,0.2-2,0.2c-2,0-2.6-0.4-2.9-1.8c-0.2-1-0.4-1.5-1.1-1.5
					c-0.4,0-1,0.3-1.6,0.8c-0.7,0.7-1.5,1.7-2.2,2.4c-0.1,0.1-0.1,0.1-0.2,0c-0.2-0.2-0.4-0.3-0.5-0.5c-0.1-0.1,0-0.2,0-0.3
					c1-1.1,2-2.1,2.7-2.7c0.9-0.9,1.9-2.1,3.3-3.6c-1.5,0.3-2.7,0.5-3.9,0.8c-0.3,0.1-0.5,0.2-0.6,0.2c-0.1,0.1-0.2,0.1-0.3,0.1
					c-0.1,0-0.1-0.1-0.2-0.2c-0.1-0.2-0.3-0.6-0.4-1C71.1,101.4,71.8,101.3,73.1,101.1z M76.5,98.2c0.1,0,0.1,0.1,0.1,0.2
					c-0.1,0.2-0.1,0.5-0.2,0.6c0,0.1-0.1,0.1-0.2,0.1c-1.2-0.3-2.6-0.7-3.6-1.1c-0.1,0-0.1-0.1-0.1-0.2c0.1-0.2,0.2-0.5,0.3-0.8
					C74.1,97.6,75.3,98,76.5,98.2z"/>
			</g>
			<g>
				<path class="st3" d="M87.9,100.2c0.9-0.3,1.8-0.5,2.7-0.5c1.6,0,2.6,0.9,2.6,2.3c0,1.7-1.4,2.6-3.4,2.6c-0.2,0-0.4,0-0.7,0
					c-0.1,0-0.2-0.1-0.2-0.1c-0.1-0.3-0.2-0.5-0.4-0.8c0.4,0.1,0.8,0.1,1.2,0.1c1.4,0,2.5-0.5,2.5-1.8c0-1.1-0.9-1.4-1.6-1.4
					c-0.9,0-1.6,0.2-2.2,0.4c-0.9,0.3-1.8,0.7-2.6,1c0.8,2.2,1.5,4.3,2.3,6.5c0.1,0.1,0.1,0.2-0.1,0.3c-0.2,0.1-0.4,0.2-0.7,0.3
					c-0.1,0-0.1,0-0.1-0.1c-0.7-2.3-1.4-4.3-2.2-6.5c-0.7,0.3-1.1,0.5-1.7,0.7c-0.4,0.2-0.6,0.3-0.8,0.4c-0.1,0.1-0.2,0.1-0.2,0.1
					c-0.1,0-0.2,0-0.2-0.1c-0.2-0.2-0.4-0.6-0.6-0.9c0.6-0.1,1-0.2,1.4-0.4c0.5-0.2,1-0.4,1.7-0.7c-0.2-0.5-0.3-1-0.5-1.5
					c-0.2-0.5-0.4-0.8-0.7-1.3c0.4-0.1,0.9-0.1,1.2-0.1c0.2,0,0.2,0.1,0.2,0.2c0,0.1,0,0.2,0,0.4s0.1,0.4,0.3,0.9
					c0.2,0.5,0.3,0.7,0.4,1.1C86.2,100.8,87,100.5,87.9,100.2z M87.6,97.4c0.1-0.1,0.1-0.1,0.2,0c0.5,0.3,1,0.8,1.5,1.3
					c0.1,0.1,0.1,0.1,0,0.2c-0.2,0.2-0.3,0.3-0.5,0.5c-0.1,0-0.1,0-0.2,0c-0.5-0.6-1-1.1-1.7-1.5C87.2,97.6,87.5,97.4,87.6,97.4z"/>
			</g>
			<g>
				<path class="st3" d="M102.3,99c0,0.1,0,0.1-0.1,0.1c-0.1,0-0.5,0-1.7,0h-0.8v1.2h0.5c1.1,0,1.4,0,1.5,0c0.1,0,0.1,0,0.1,0.1
					c0,0.1,0,0.4,0,1.3v2c0,0.9,0,1.2,0,1.3c0,0.1,0,0.1-0.1,0.1c-0.1,0-0.4,0-1.5,0h-0.5v1.2h0.7c1.2,0,1.6,0,1.7,0
					c0.1,0,0.1,0,0.1,0.1v0.5c0,0.1,0,0.1-0.1,0.1c-0.1,0-0.5,0-1.7,0h-0.7c0,1.5,0,2.2,0,2.3c0,0.1,0,0.1-0.1,0.1H99
					c-0.1,0-0.1,0-0.1-0.1c0-0.1,0-0.8,0-2.3h-1c-1.2,0-1.6,0-1.7,0c-0.1,0-0.1,0-0.1-0.1v-0.5c0-0.1,0-0.1,0.1-0.1
					c0.1,0,0.5,0,1.7,0h1V105h-0.5c-1.1,0-1.4,0-1.5,0c-0.1,0-0.1,0-0.1-0.1c0-0.1,0-0.4,0-1.3v-2c0-0.9,0-1.2,0-1.3
					c0-0.1,0-0.1,0.1-0.1c0.1,0,0.4,0,1.5,0h0.5v-1.2h-0.8c-1.2,0-1.6,0-1.7,0c-0.1,0-0.1,0-0.1-0.1v-0.5c0-0.1,0-0.1,0.1-0.1
					c0.1,0,0.5,0,1.7,0h0.8c0-0.8,0-1.2-0.1-1.6c0.3,0,0.6,0,0.9,0.1c0.1,0,0.2,0.1,0.2,0.1c0,0.1,0,0.1-0.1,0.2
					c0,0.1-0.1,0.4-0.1,1.2h0.8c1.2,0,1.6,0,1.7,0c0.1,0,0.1,0,0.1,0.1V99z M98.9,100.9h-1.3v1.4h1.3V100.9z M98.9,102.9h-1.3v1.5
					h1.3V102.9z M101.1,100.9h-1.4v1.4h1.4V100.9z M101.1,102.9h-1.4v1.5h1.4V102.9z M106.5,104.3c0.1-0.1,0.2-0.1,0.2,0
					c0.8,1.4,1.4,2.7,2,4.3c0,0.1,0,0.1-0.1,0.2l-0.5,0.2c-0.2,0.1-0.2,0.1-0.2,0c-0.1-0.4-0.2-0.7-0.4-1.1c-1.6,0.3-3,0.5-4.7,0.7
					c-0.4,0-0.5,0.1-0.6,0.1c-0.1,0-0.1,0.1-0.2,0.1c-0.1,0-0.1,0-0.1-0.1c-0.1-0.3-0.2-0.6-0.2-0.8c0.4,0,0.8,0,1.2,0
					c0.6-1.6,1.1-3.3,1.4-5h-0.1c-1.2,0-1.7,0-1.7,0c-0.1,0-0.1,0-0.1-0.1V102c0-0.1,0-0.1,0.1-0.1c0.1,0,0.5,0,1.7,0h2.7
					c1.2,0,1.7,0,1.7,0c0.1,0,0.1,0,0.1,0.1v0.6c0,0.1,0,0.1-0.1,0.1c-0.1,0-0.5,0-1.7,0h-1.7c-0.4,1.8-0.9,3.4-1.5,5
					c1.2-0.1,2.4-0.3,3.6-0.5c-0.3-0.8-0.8-1.7-1.2-2.5c-0.1-0.1,0-0.1,0.1-0.2L106.5,104.3z M108.2,98.8c0,0.1,0,0.1-0.1,0.1
					c-0.1,0-0.4,0-1.6,0h-2c-1.1,0-1.5,0-1.6,0c-0.1,0-0.1,0-0.1-0.1v-0.6c0-0.1,0-0.1,0.1-0.1c0.1,0,0.4,0,1.6,0h2
					c1.1,0,1.5,0,1.6,0c0.1,0,0.1,0,0.1,0.1V98.8z"/>
			</g>
			<g>
				<path class="st3" d="M117.9,98.8c0,0.1,0,0.1-0.1,0.1c-0.1,0-0.5,0-1.7,0c0,0.6,0,0.8,0,0.9c0,0.1,0,0.1-0.1,0.1h-0.6
					c-0.1,0-0.1,0-0.1-0.1c0-0.1,0-0.3,0-0.9h-1.8c0,0.6,0,0.8,0,0.9c0,0.1,0,0.1-0.1,0.1H113c-0.1,0-0.1,0-0.1-0.1
					c0-0.1,0-0.3,0-0.9c-1.3,0-1.7,0-1.8,0c-0.1,0-0.1,0-0.1-0.1v-0.5c0-0.1,0-0.1,0.1-0.1c0.1,0,0.5,0,1.8,0v-0.2
					c0-0.4,0-0.7-0.1-1.1c0.3,0,0.5,0,0.8,0.1c0.1,0,0.1,0.1,0.1,0.1s0,0.1-0.1,0.2c0,0.1-0.1,0.3-0.1,0.7v0.1h1.8v-0.1
					c0-0.5,0-0.8-0.1-1.1c0.3,0,0.6,0,0.8,0.1c0.1,0,0.2,0,0.2,0.1s0,0.1-0.1,0.2c-0.1,0.1-0.1,0.3-0.1,0.7v0.1c1.2,0,1.6,0,1.7,0
					c0.1,0,0.1,0,0.1,0.1V98.8z M114.9,107.4c0.9-0.2,1.8-0.4,2.6-0.6c0,0.2-0.1,0.3-0.1,0.4c0,0.3,0,0.3-0.3,0.3
					c-1.6,0.4-3.3,0.7-5,1c-0.3,0.1-0.4,0.1-0.5,0.1c-0.1,0-0.1,0.1-0.2,0.1c-0.1,0-0.1-0.1-0.2-0.2c-0.1-0.2-0.1-0.4-0.2-0.7
					c0.5,0,0.8,0,1.4-0.1c0.5-0.1,1.1-0.2,1.7-0.3v-1.3h-0.6c-1.1,0-1.5,0-1.5,0c-0.1,0-0.1,0-0.1-0.1v-0.5c0-0.1,0-0.1,0.1-0.1
					c0.1,0,0.4,0,1.5,0h0.6v-1h-0.7c-1.2,0-1.6,0-1.6,0c-0.1,0-0.1,0-0.1-0.1V104c0-0.1,0-0.1,0.1-0.1c0.1,0,0.4,0,1.6,0h0.7v-1
					h-0.8c-1.2,0-1.6,0-1.7,0c-0.1,0-0.1,0-0.1-0.1c0-0.1,0-0.3,0-0.9v-0.7c0-0.6,0-0.8,0-0.9c0-0.1,0-0.1,0.1-0.1
					c0.1,0,0.5,0,1.7,0h2.3c1.2,0,1.6,0,1.7,0c0.1,0,0.1,0,0.1,0.1c0,0.1,0,0.3,0,0.9v0.7c0,0.6,0,0.8,0,0.9c0,0.1,0,0.1-0.1,0.1
					c-0.1,0-0.5,0-1.7,0h-0.8v1h0.7c1.2,0,1.6,0,1.6,0c0.1,0,0.1,0,0.1,0.1v0.5c0,0.1,0,0.1-0.1,0.1c-0.1,0-0.4,0-1.6,0h-0.7v1h0.6
					c1.1,0,1.5,0,1.6,0c0.1,0,0.1,0,0.1,0.1v0.5c0,0.1,0,0.1-0.1,0.1c-0.1,0-0.4,0-1.6,0h-0.6V107.4z M114.1,101h-1.8v1.4h1.8V101z
					 M116.7,101h-1.8v1.4h1.8V101z M121.4,100.2c1.1,0,1.4,0,1.5,0c0.1,0,0.1,0,0.1,0.1c0,0.4,0,0.8,0,1.3c0,2.1-0.1,4.4-0.4,6.2
					c-0.2,1.1-0.6,1.4-1.5,1.4c-0.4,0-0.7,0-1,0c-0.2,0-0.2,0-0.3-0.3c0-0.2-0.1-0.4-0.2-0.6c0.4,0.1,0.9,0.1,1.4,0.1
					c0.5,0,0.7-0.2,0.8-1c0.2-1.5,0.4-3.9,0.4-6.4h-1.9c-0.1,1.4-0.2,2.8-0.4,3.8c-0.4,1.8-1,3.1-2.4,4.5c-0.1,0.1-0.1,0.1-0.2,0.1
					c0,0-0.1,0-0.2-0.2c-0.2-0.2-0.4-0.3-0.5-0.4c1.4-1.1,2.2-2.6,2.5-4.2c0.2-1,0.3-2.2,0.4-3.6c-1.1,0-1.4,0-1.5,0
					c-0.1,0-0.1,0-0.1-0.1v-0.6c0-0.1,0-0.1,0.1-0.1c0.1,0,0.4,0,1.5,0c0-0.5,0-1.1,0-1.6c0-0.9,0-1.2-0.1-1.7c0.3,0,0.6,0,0.9,0.1
					c0.1,0,0.2,0.1,0.2,0.1c0,0.1,0,0.2-0.1,0.3c-0.1,0.1-0.1,0.6-0.1,1.3c0,0.5,0,1,0,1.5H121.4z"/>
			</g>
			<g>
				<path class="st3" d="M133.2,99.7c-2.1,0.3-3.9,0.6-5.7,1c-0.5,0.1-0.7,0.2-0.8,0.2c-0.1,0-0.2,0.1-0.3,0.1s-0.2-0.1-0.2-0.1
					c-0.1-0.3-0.3-0.6-0.4-1c0.5,0,0.9,0,1.7-0.2c2.1-0.3,4.9-0.8,8.7-1.2c0.1,0,0.2,0,0.2,0.1c0,0.2,0.1,0.5,0.1,0.7
					c0,0.1,0,0.2-0.2,0.2c-0.8,0-1.3,0.1-2,0.4c-2,0.8-3.6,2.5-3.6,4.4c0,2.3,2,3,4.1,3.2c0.2,0,0.2,0,0.2,0.2c0,0.2,0,0.5-0.1,0.7
					c0,0.2-0.1,0.2-0.2,0.2c-2.4-0.2-4.9-1.2-4.9-4C129.8,102.5,131,100.9,133.2,99.7L133.2,99.7z M134.9,101.7c0,0,0.1,0,0.1,0
					c0.6,0.4,1.2,1.1,1.6,1.7c0,0.1,0,0.1,0,0.2l-0.4,0.3c-0.1,0.1-0.1,0-0.2,0c-0.4-0.7-1-1.3-1.6-1.8L134.9,101.7z M136,100.8
					c0.1,0,0.1-0.1,0.2,0c0.6,0.4,1.2,1.1,1.6,1.6c0,0.1,0,0.1,0,0.2l-0.4,0.3c-0.1,0.1-0.1,0.1-0.2,0c-0.4-0.6-1-1.3-1.6-1.8
					L136,100.8z"/>
			</g>
			<g>
				<path class="st3" d="M151.9,100.1c0,0.1,0,0.1-0.2,0.1c-1.5,0-2.9-0.1-4.5,0c0,0.9,0,1.8,0,2.8c0.1,0.4,0.2,0.9,0.2,1.5
					c0,1.8-0.8,3.3-2.7,4.3c-0.1,0.1-0.3,0.1-0.3,0.1c-0.1,0-0.2,0-0.3-0.1c-0.2-0.1-0.4-0.3-0.6-0.4c2-0.8,2.9-2.1,3.1-3.5
					c-0.3,0.5-0.9,0.8-1.5,0.8c-1,0-1.8-0.6-1.8-2c0-1.2,0.9-1.9,1.9-1.9c0.5,0,1,0.2,1.3,0.5c0-0.7,0-1.3,0-2
					c-2,0.1-3.9,0.3-5.2,0.4c-0.3,0-0.5,0.1-0.6,0.1c-0.1,0-0.1,0-0.2-0.1c-0.1-0.2-0.2-0.5-0.2-0.9c0.5,0,0.9,0,1.8-0.1
					c1.1-0.1,2.6-0.2,4.4-0.3c0-0.6,0-0.9,0-1.3c0-0.4,0-0.6-0.1-0.9c0.4,0,0.8,0.1,1.1,0.2c0.2,0,0.3,0.1,0.3,0.2
					c0,0.1,0,0.2-0.1,0.3c-0.1,0.1-0.1,0.2-0.1,0.4c0,0.3,0,0.6,0,1.2c1.6,0,2.9,0,4.5,0c0.1,0,0.2,0,0.2,0.2V100.1z M144,103.7
					c0,0.8,0.5,1.2,1.1,1.2c0.8,0,1.3-0.6,1.3-1.2c0-0.7-0.5-1.2-1.2-1.2C144.5,102.5,144,103,144,103.7z"/>
			</g>
			<g>
				<path class="st3" d="M161,98.1c0.1,0.1,0.1,0.1,0.1,0.2c0,0.1-0.1,0.1-0.1,0.2c-0.2,0.1-0.3,0.2-0.5,0.4c-1.4,1.2-3.1,2.8-4.1,4
					c-0.1,0.1-0.2,0.3-0.2,0.4c0,0.1,0.1,0.2,0.2,0.3c1.7,1.3,3.6,2.8,5.4,4.6c0.1,0.1,0.1,0.1,0,0.3c-0.2,0.2-0.4,0.4-0.5,0.5
					c-0.1,0.1-0.2,0.1-0.3,0c-1.8-2-3.6-3.5-5.3-4.7c-0.4-0.3-0.5-0.5-0.5-0.9c0-0.3,0.2-0.6,0.5-0.9c1.1-1.2,2.7-2.7,3.9-4
					c0.3-0.3,0.4-0.5,0.6-0.9C160.4,97.6,160.8,97.9,161,98.1z M161.6,99.9c0,0,0.1,0,0.1,0c0.6,0.4,1.2,1.1,1.6,1.7
					c0,0.1,0,0.1,0,0.2l-0.4,0.3c-0.1,0.1-0.1,0-0.2,0c-0.4-0.7-1-1.3-1.6-1.8L161.6,99.9z M162.8,99c0.1,0,0.1-0.1,0.2,0
					c0.6,0.4,1.2,1,1.6,1.6c0,0.1,0,0.1,0,0.2l-0.4,0.3c-0.1,0.1-0.1,0.1-0.2,0c-0.3-0.6-1-1.3-1.6-1.8L162.8,99z"/>
			</g>
			<g>
				<path class="st3" d="M169.5,98.4c0.1,0.1,0.2,0.1,0.2,0.2s0,0.1-0.1,0.2c-0.1,0.2-0.2,0.4-0.3,0.7c-0.4,1.7-0.7,3.5-0.7,4.8
					c0,1,0.1,1.7,0.2,2.4c0.3-0.8,0.6-1.4,1-2.4c0.1,0.2,0.2,0.4,0.3,0.6c0,0,0.1,0.1,0.1,0.1c0,0.1,0,0.1-0.1,0.2
					c-0.3,0.7-0.6,1.4-0.9,2.2c0,0.1-0.1,0.2-0.1,0.3c0,0.1,0,0.2,0,0.3c0,0.1,0,0.1-0.1,0.1c-0.2,0.1-0.4,0.1-0.6,0.1
					c-0.1,0-0.1-0.1-0.2-0.1c-0.4-0.9-0.6-2.7-0.6-4.1c0-1.5,0.3-3.1,0.6-4.8c0.1-0.7,0.2-1.1,0.2-1.6
					C168.9,98.1,169.3,98.2,169.5,98.4z M172.4,105c0.1,0,0.1,0,0.1,0.1c0,1.1,0.9,1.5,2.5,1.5c1,0,1.9-0.1,2.8-0.2
					c0.1,0,0.1,0,0.2,0.1c0,0.2,0,0.5,0,0.7c0,0.1,0,0.1-0.2,0.2c-0.8,0.1-1.6,0.2-2.5,0.2c-1.6,0-2.5-0.2-3.1-0.9
					c-0.4-0.4-0.6-1-0.6-1.7L172.4,105z M172.1,99.8c0-0.1,0-0.2,0.2-0.2c0.9-0.1,2.2-0.3,3-0.3c0.8,0,1.6,0,2,0.1
					c0.2,0,0.2,0,0.2,0.1c0,0.2,0,0.4,0,0.7c0,0.1,0,0.1-0.2,0.1c-0.5-0.1-1.5-0.1-2.3-0.1c-0.8,0-1.8,0.1-2.9,0.3
					C172.1,100.2,172.1,100,172.1,99.8z"/>
			</g>
			<g>
				<path class="st3" d="M187.2,104.3c-0.2,2.6-0.6,3.6-0.8,4c-0.3,0.5-0.8,0.7-1.5,0.7c-0.4,0-0.8,0-1.1,0c-0.3,0-0.3,0-0.3-0.3
					c0-0.3-0.1-0.4-0.2-0.6c0.5,0.1,0.9,0.1,1.5,0.1c0.5,0,0.8-0.1,0.9-0.3c0.2-0.3,0.6-1.2,0.8-3.8h-3.9l-0.3,0.9
					c0,0.1-0.1,0.2-0.5,0.1c-0.4-0.1-0.4-0.1-0.4-0.2c0.4-1.2,0.6-2.3,0.8-3.3c0-0.3,0.1-0.7,0.1-1c0-0.1,0-0.1,0.1-0.1
					c0.1,0,0.4,0,1.3,0h2.5v-2.3h-2.8c-1.1,0-1.5,0-1.5,0c-0.1,0-0.1,0-0.1-0.1v-0.6c0-0.1,0-0.1,0.1-0.1c0.1,0,0.4,0,1.5,0h2.1
					c1,0,1.4,0,1.5,0s0.1,0,0.1,0.1c0,0.1,0,0.4,0,1.2v1.2c0,0.8,0,1.1,0,1.2c0,0.1,0,0.1-0.1,0.1s-0.5,0-1.5,0h-2.4
					c-0.1,0.8-0.2,1.5-0.4,2.2h3.1c1.1,0,1.4,0,1.5,0c0.1,0,0.1,0,0.1,0.1L187.2,104.3z M190.6,99.1c0-1.4,0-1.8-0.1-2.3
					c0.4,0,0.8,0,1.1,0.1c0.1,0,0.2,0.1,0.2,0.1c0,0.1,0,0.1-0.1,0.3c-0.1,0.2-0.1,0.5-0.1,1.8v7.8c0,1.6,0,2.3,0,2.4
					c0,0.1,0,0.1-0.1,0.1h-0.7c-0.1,0-0.1,0-0.1-0.1c0-0.1,0-0.8,0-2.3V99.1z"/>
			</g>
			<g>
				<path class="st3" d="M195.8,100.6c0.1-0.1,0.1-0.1,0.2-0.1c0.7,0.4,1.3,0.9,1.9,1.5c0.1,0.1,0.1,0.1,0,0.2l-0.3,0.4
					c-0.1,0.1-0.2,0.1-0.2,0.1c-0.6-0.6-1.2-1.2-1.8-1.5c-0.1-0.1-0.1-0.1,0-0.2L195.8,100.6z M196.7,108.5
					c-0.1,0.3-0.2,0.5-0.2,0.6c0,0.1-0.1,0.2-0.1,0.2c0,0-0.1,0-0.2-0.1c-0.2-0.1-0.4-0.3-0.6-0.5c0.2-0.3,0.4-0.6,0.6-1
					c0.5-1,0.9-2,1.2-3.4c0.1,0.1,0.3,0.3,0.4,0.4c0.2,0.2,0.2,0.2,0.2,0.4C197.6,106.3,197.1,107.5,196.7,108.5z M196.4,97.1
					c0.1-0.1,0.1-0.1,0.2-0.1c0.6,0.4,1.2,0.9,1.7,1.5c0.1,0.1,0.1,0.1,0,0.2l-0.3,0.3c-0.1,0.1-0.2,0.2-0.2,0.1
					c-0.5-0.6-1.1-1.1-1.7-1.5c-0.1-0.1-0.1-0.1,0-0.2L196.4,97.1z M207.7,98.8c0,0.1,0,0.1-0.1,0.1c-0.1,0-0.6,0-1.9,0h-5.5v1.6
					c0,1.7-0.1,3.3-0.2,4.6c-0.2,1.4-0.6,2.8-1.4,4c-0.1,0.1-0.1,0.2-0.2,0.2c0,0-0.1,0-0.2-0.1c-0.2-0.2-0.3-0.3-0.5-0.4
					c0.8-1.1,1.3-2.4,1.5-4c0.2-1.3,0.2-2.8,0.2-4.3s0-2.2,0-2.2c0-0.1,0-0.1,0.1-0.1c0.1,0,0.6,0,2,0h1.7v-0.3c0-0.4,0-0.8-0.1-1.1
					c0.3,0,0.6,0,0.9,0.1c0.1,0,0.2,0.1,0.2,0.1c0,0.1,0,0.2-0.1,0.3c-0.1,0.1-0.1,0.3-0.1,0.7v0.3h1.8c1.4,0,1.9,0,1.9,0
					c0.1,0,0.1,0,0.1,0.1V98.8z M205.7,104.1c0.1,0,0.2,0,0.3,0c0.1,0,0.1,0,0.1,0c0.1,0,0.2,0.1,0.4,0.3c0.2,0.2,0.2,0.3,0.2,0.4
					c0,0.1,0,0.1-0.1,0.2c-0.1,0.1-0.2,0.1-0.3,0.4c-0.5,0.8-1.1,1.4-1.7,1.9c1,0.6,2.1,1,3.6,1.3c-0.1,0.1-0.2,0.3-0.3,0.5
					c-0.1,0.2-0.1,0.2-0.2,0.2c0,0-0.1,0-0.2,0c-1.4-0.4-2.6-0.8-3.5-1.5c-1,0.7-2.1,1.1-3.5,1.6c-0.1,0-0.2,0.1-0.2,0.1
					c-0.1,0-0.1-0.1-0.2-0.2c-0.1-0.2-0.3-0.4-0.4-0.5c1.5-0.4,2.7-0.8,3.7-1.4c-0.7-0.6-1.3-1.4-1.8-2.3c-0.6,0-0.9,0-0.9,0
					c-0.1,0-0.1,0-0.1-0.1v-0.5c0-0.1,0-0.1,0.1-0.1c0.1,0,0.5,0,1.7,0H205.7z M207.7,101.2c0,0.1,0,0.1-0.1,0.1c-0.1,0-0.5,0-1.4,0
					h-0.4v0.6c0,0.9,0,1.2,0,1.3c0,0.1,0,0.1-0.1,0.1c-0.1,0-0.3,0-1.2,0h-1.1c-0.9,0-1.1,0-1.2,0c-0.1,0-0.1,0-0.1-0.1
					c0-0.1,0-0.5,0-1.3v-0.6c-1,0-1.4,0-1.5,0c-0.1,0-0.1,0-0.1-0.1v-0.5c0-0.1,0-0.1,0.1-0.1c0.1,0,0.5,0,1.5,0c0-0.6,0-1-0.1-1.3
					c0.3,0,0.6,0,0.8,0.1c0.1,0,0.2,0.1,0.2,0.1c0,0.1,0,0.2-0.1,0.2c-0.1,0.1-0.1,0.4-0.1,0.9h2.2c0-0.6,0-1-0.1-1.3
					c0.3,0,0.6,0,0.8,0.1c0.1,0,0.2,0.1,0.2,0.1c0,0.1-0.1,0.2-0.1,0.3c-0.1,0.1-0.1,0.4-0.1,0.9h0.4c0.9,0,1.3,0,1.4,0
					c0.1,0,0.1,0,0.1,0.1V101.2z M202.3,104.8c0.4,0.8,0.9,1.4,1.6,1.9c0.7-0.5,1.2-1.1,1.7-1.9H202.3z M205,101.3h-2.2v1.3h2.2
					V101.3z"/>
			</g>
			<g>
				<path class="st3" d="M213.1,97.7c0.2,0,0.2,0.1,0.2,0.2c0,0.1-0.1,0.2-0.1,0.4c-0.1,0.2-0.1,0.6-0.2,1.4c-0.1,2.1-0.2,4-0.2,6
					c0,1.6,0.4,2,1.7,2c1.8,0,3.6-1.1,5-2.7c0,0.3,0.2,0.6,0.2,0.8c0,0.1,0.1,0.1,0.1,0.2c0,0.1,0,0.2-0.2,0.3
					c-1.5,1.4-3.3,2.4-5.3,2.4c-1.6,0-2.4-0.8-2.4-2.8c0-2,0.1-4.3,0.2-6.2c0-0.9,0-1.5-0.1-2.1C212.4,97.6,212.8,97.6,213.1,97.7z"
					/>
			</g>
			<g>
				<path class="st3" d="M226.6,98.9c0.1-0.5,0.1-0.8,0.1-1.3c0.4,0.1,0.7,0.2,1.1,0.4c0.2,0.1,0.2,0.2,0.1,0.4
					c-0.1,0.1-0.2,0.2-0.2,0.5c-0.2,0.7-0.4,1.3-0.6,2c0.4-0.1,1-0.1,1.4-0.1c1.2,0,1.8,0.6,1.8,2.3c0,1.8-0.3,3.5-0.8,4.5
					c-0.4,0.8-0.9,1.1-1.6,1.1c-0.6,0-1.1-0.1-1.4-0.3c-0.1,0-0.2-0.1-0.2-0.2c0-0.2,0-0.5-0.2-0.8c0.6,0.3,1.1,0.4,1.6,0.4
					c0.4,0,0.7-0.1,0.9-0.7c0.4-0.8,0.6-2.2,0.6-3.9c0-1.1-0.2-1.5-1-1.5c-0.4,0-1,0.1-1.5,0.2c-0.8,2.4-1.7,4.6-2.9,6.6
					c-0.1,0.1-0.1,0.1-0.2,0.1c-0.1-0.1-0.4-0.3-0.6-0.4c-0.1-0.1-0.1-0.1,0-0.2c1.2-2,2-3.9,2.7-6c-0.6,0.1-1.1,0.2-1.8,0.3
					c-0.3,0-0.5,0.1-0.6,0.2c-0.2,0.1-0.3,0.1-0.4-0.1c-0.1-0.2-0.2-0.6-0.3-1c0.5,0,1.1,0,1.5-0.1c0.8-0.1,1.3-0.2,2-0.3
					C226.2,100.2,226.4,99.7,226.6,98.9z M231.6,100c0.1,0,0.1,0,0.2,0.1c1,0.8,1.8,2.1,2.3,3.4c0,0.1,0,0.2,0,0.2
					c-0.1,0.1-0.4,0.3-0.6,0.4c-0.1,0.1-0.2,0.1-0.2-0.1c-0.5-1.4-1.2-2.6-2.2-3.5C231.2,100.3,231.4,100.2,231.6,100z M231.9,97.9
					c0.1,0,0.1,0,0.1,0c0.6,0.4,1.2,1.1,1.6,1.7c0,0.1,0,0.1,0,0.2l-0.4,0.3c-0.1,0.1-0.1,0-0.2,0c-0.4-0.7-1-1.3-1.6-1.8
					L231.9,97.9z M233.1,97c0.1,0,0.1-0.1,0.2,0c0.6,0.4,1.2,1.1,1.6,1.6c0,0.1,0,0.1,0,0.2l-0.4,0.3c-0.1,0.1-0.1,0.1-0.2,0
					c-0.4-0.6-1-1.3-1.6-1.8L233.1,97z"/>
			</g>
			<g>
				<path class="st3" d="M244.4,99.7c-2.1,0.3-3.9,0.6-5.7,1c-0.5,0.1-0.7,0.2-0.8,0.2c-0.1,0-0.2,0.1-0.3,0.1s-0.2-0.1-0.2-0.1
					c-0.1-0.3-0.3-0.6-0.4-1c0.5,0,0.9,0,1.7-0.2c2.1-0.3,4.9-0.8,8.7-1.2c0.1,0,0.2,0,0.2,0.1c0,0.2,0.1,0.5,0.1,0.7
					c0,0.1,0,0.2-0.2,0.2c-0.8,0-1.3,0.1-2,0.4c-2,0.8-3.6,2.5-3.6,4.4c0,2.3,2,3,4.1,3.2c0.2,0,0.2,0,0.2,0.2c0,0.2,0,0.5-0.1,0.7
					c0,0.2-0.1,0.2-0.2,0.2c-2.4-0.2-4.9-1.2-4.9-4C241,102.5,242.2,100.9,244.4,99.7L244.4,99.7z M246.1,101.7c0,0,0.1,0,0.1,0
					c0.6,0.4,1.2,1.1,1.6,1.7c0,0.1,0,0.1,0,0.2l-0.4,0.3c-0.1,0.1-0.1,0-0.2,0c-0.4-0.7-1-1.3-1.6-1.8L246.1,101.7z M247.2,100.8
					c0.1,0,0.1-0.1,0.2,0c0.6,0.4,1.2,1.1,1.6,1.6c0,0.1,0,0.1,0,0.2l-0.4,0.3c-0.1,0.1-0.1,0.1-0.2,0c-0.3-0.6-1-1.3-1.6-1.8
					L247.2,100.8z"/>
			</g>
			<g>
				<path class="st3" d="M255.4,98.3c-0.1-0.4-0.2-0.6-0.5-0.9c0.4-0.1,0.8-0.1,1.1-0.1c0.1,0,0.2,0.1,0.2,0.2c0,0.1,0,0.1,0,0.2
					c0,0.1,0,0.3,0.1,0.6c0.1,0.4,0.2,0.6,0.3,0.9c1-0.2,2-0.4,3.1-0.8c0.1,0,0.1,0,0.2,0.1c0.1,0.2,0.1,0.4,0.1,0.5
					c0,0.1,0,0.2-0.1,0.2c-1,0.3-2,0.6-3,0.8c0.2,0.5,0.4,1,0.7,1.6c1-0.2,1.9-0.5,2.8-0.8c0.1,0,0.2,0,0.2,0.1
					c0.1,0.2,0.1,0.3,0.1,0.5c0,0.1,0,0.2-0.1,0.2c-0.9,0.3-1.8,0.5-2.7,0.7c0.5,1,1.3,2.1,2.2,2.9c0.1,0.1,0.1,0.1,0.1,0.2
					c-0.1,0.2-0.2,0.4-0.3,0.5c-0.1,0.1-0.2,0.1-0.3,0c-0.3-0.2-0.6-0.4-1-0.5c-0.7-0.3-1.6-0.4-2.7-0.4c-1.5,0-2.4,0.4-2.4,1.4
					c0,1.1,1.3,1.5,3.5,1.5c0.5,0,1,0,1.4-0.1c0.1,0,0.1,0.1,0.1,0.2c0,0.2-0.1,0.5-0.2,0.7c0,0.1-0.1,0.2-0.2,0.2
					c-0.4,0-0.7,0.1-1.2,0.1c-2.8,0-4.4-0.8-4.4-2.4c0-1.4,1.2-2.2,3.2-2.2c1.2,0,2.2,0.2,2.9,0.5c-0.5-0.6-1.1-1.4-1.6-2.3
					c-1.4,0.3-2.7,0.4-4,0.5c-0.1,0-0.1,0-0.2-0.1c-0.1-0.2-0.1-0.4-0.1-0.7c1.4,0,2.7-0.2,4-0.4c-0.2-0.5-0.5-1-0.7-1.6
					c-1.1,0.2-2.4,0.4-3.7,0.4c-0.1,0-0.2,0-0.2-0.1c0-0.1-0.1-0.4-0.1-0.6c1.3,0,2.7-0.2,3.8-0.3C255.7,99,255.6,98.7,255.4,98.3z"
					/>
			</g>
			<g>
				<path class="st3" d="M270,99.4c0.1,0,0.2,0,0.2,0.1c0,0.2,0.1,0.4,0.1,0.6c0,0.1,0,0.2-0.1,0.2c-0.8,0.2-1.5,0.3-2.3,0.4
					c-0.8,2.2-1.8,4.3-2.8,5.9c-0.1,0.1-0.1,0.1-0.2,0c-0.2-0.1-0.4-0.3-0.6-0.4c-0.1-0.1-0.1-0.1,0-0.2c1.2-1.8,2-3.4,2.6-5.2
					c-0.6,0.1-1.2,0.1-1.8,0.1c-0.2,0-0.4,0-0.7,0c-0.1,0-0.1,0-0.2-0.2c0-0.2-0.1-0.4-0.1-0.7c0.4,0,0.8,0.1,1.1,0.1
					c0.6,0,1.2,0,1.9-0.1c0.2-0.5,0.3-1.1,0.4-1.6c0.1-0.4,0.1-0.7,0.1-1.1c0.4,0.1,0.8,0.2,1.1,0.3c0.1,0,0.1,0.1,0.1,0.2
					c0,0.1,0,0.1-0.1,0.2c-0.1,0.1-0.1,0.2-0.2,0.4c-0.2,0.5-0.3,1-0.4,1.5C268.7,99.7,269.3,99.6,270,99.4z M270.8,102.8
					c0-0.3,0-0.5-0.1-0.9c0.4,0,0.7,0.1,1,0.2c0.1,0,0.2,0.1,0.2,0.2c0,0.1,0,0.1-0.1,0.3c-0.1,0.2-0.1,0.4-0.1,0.7
					c0,0.8,0.1,1.7,0.2,2.6c1,0.4,1.8,0.8,2.6,1.4c0.1,0.1,0.1,0.1,0.1,0.2c-0.1,0.2-0.2,0.4-0.3,0.6c-0.1,0.1-0.1,0.1-0.2,0
					c-0.6-0.6-1.4-1-2.1-1.3c0,1.4-0.7,2.2-2.5,2.2c-1.1,0-2.2-0.5-2.2-1.7c0-1,1-1.8,2.4-1.8c0.4,0,1,0.1,1.4,0.2
					C270.9,104.7,270.9,103.6,270.8,102.8z M269.6,106.2c-1.1,0-1.6,0.4-1.6,1c0,0.6,0.5,0.9,1.4,0.9c1.1,0,1.6-0.6,1.6-1.3
					c0-0.2,0-0.3,0-0.3C270.6,106.3,270.1,106.2,269.6,106.2z M272,99.9c0.1-0.1,0.1-0.1,0.2-0.1c0.9,0.3,1.9,0.7,2.7,1.3
					c0.1,0.1,0.1,0.1,0,0.3c-0.1,0.2-0.2,0.4-0.3,0.6c-0.1,0.1-0.1,0.1-0.2,0c-0.8-0.6-1.8-1.1-2.9-1.4
					C271.8,100.3,271.9,100.1,272,99.9z"/>
			</g>
			<g>
				<path class="st3" d="M279.9,99.1c0.1,0,0.1,0.1,0.1,0.2c0,0.1,0,0.2-0.1,0.3c-0.1,0.2-0.1,0.6-0.1,1.3c0,0.9,0,1.8,0.2,3.2
					c0.2,1.7,0.8,2.9,1.5,2.9c0.6,0,1.1-0.9,1.5-2.2c0.2,0.4,0.3,0.5,0.5,0.7c0.1,0.1,0.2,0.2,0.1,0.4c-0.4,1.1-1.1,2.2-2.1,2.2
					c-1.2,0-2.1-1.6-2.4-3.8c-0.2-1.4-0.3-3-0.3-3.9c0-0.5,0-0.9-0.1-1.3C279.2,98.8,279.7,99,279.9,99.1z M286.6,100.2
					c0.1,0,0.2-0.1,0.2,0c1.4,1.2,2.4,3,2.7,4.8c0,0.1,0,0.1-0.1,0.2c-0.2,0.1-0.4,0.2-0.6,0.3c-0.1,0-0.2,0-0.2-0.1
					c-0.4-2.1-1.3-3.6-2.6-4.9C286.3,100.4,286.5,100.3,286.6,100.2z"/>
			</g>
			<g>
				<path class="st3" d="M294.9,104.8c0.5-0.2,1-0.5,1.5-0.8c0,0.1,0,0.3,0,0.5c0,0.3,0,0.3-0.2,0.4c-0.9,0.5-1.9,1-2.9,1.4
					c-0.3,0.1-0.5,0.2-0.5,0.2c-0.1,0.1-0.1,0.1-0.2,0.1c-0.1,0-0.1,0-0.2-0.1c-0.1-0.2-0.2-0.5-0.3-0.8c0.4-0.1,0.8-0.2,1.3-0.4
					c0.2-0.1,0.4-0.1,0.6-0.2v-3.8h-0.4c-1,0-1.2,0-1.3,0c-0.1,0-0.1,0-0.1-0.1v-0.6c0-0.1,0-0.1,0.1-0.1c0.1,0,0.3,0,1.3,0h0.4
					v-1.6c0-1,0-1.4-0.1-1.9c0.4,0,0.7,0,0.9,0.1c0.1,0,0.2,0.1,0.2,0.1s0,0.1-0.1,0.3c-0.1,0.2-0.1,0.5-0.1,1.4v1.7h0.1
					c1,0,1.2,0,1.3,0c0.1,0,0.1,0,0.1,0.1v0.6c0,0.1,0,0.1-0.1,0.1c-0.1,0-0.4,0-1.3,0h-0.1V104.8z M304.8,102.9
					c0,0.1,0,0.1-0.1,0.1c-0.1,0-0.5,0-1.9,0h-4.2c0.2,0.1,0.4,0.1,0.5,0.2c0.1,0,0.1,0.1,0.1,0.2c0,0.1,0,0.1-0.1,0.2
					c-0.1,0.1-0.2,0.1-0.3,0.3l-0.2,0.3h3.9c1.2,0,1.7,0,1.7,0c0.1,0,0.1,0,0.1,0.1l-0.1,1.4c-0.1,1-0.2,1.7-0.4,2.4
					c-0.2,0.8-0.6,1.1-1.4,1.1c-0.3,0-0.6,0-0.9,0c-0.2,0-0.2,0-0.3-0.3c-0.1-0.2-0.1-0.4-0.2-0.6c0.5,0.1,1,0.1,1.3,0.1
					c0.3,0,0.5-0.1,0.7-0.7c0.1-0.5,0.3-1.4,0.4-2.9h-1c-0.8,1.9-1.9,3.2-3.6,4.3c-0.1,0.1-0.2,0.1-0.2,0.1c-0.1,0-0.1,0-0.2-0.2
					s-0.3-0.3-0.4-0.3c1.8-1,3-2.2,3.6-3.9h-1.2c-0.9,1.5-2,2.5-3.4,3.4c-0.1,0.1-0.2,0.1-0.2,0.1c-0.1,0-0.1-0.1-0.2-0.2
					c-0.1-0.1-0.3-0.3-0.4-0.3c1.5-0.8,2.6-1.8,3.4-3.1h-1.4c-0.6,0.8-1.4,1.5-2.2,2c-0.1,0.1-0.2,0.1-0.2,0.1
					c-0.1,0-0.1-0.1-0.2-0.2c-0.1-0.1-0.3-0.3-0.4-0.3c1.3-0.7,2.2-1.6,2.9-2.6c0.2-0.2,0.3-0.5,0.3-0.8h-0.1c-1.4,0-1.9,0-1.9,0
					c-0.1,0-0.1,0-0.1-0.1v-0.5c0-0.1,0-0.1,0.1-0.1c0.1,0,0.5,0,1.9,0h4.5c1.4,0,1.9,0,1.9,0c0.1,0,0.1,0,0.1,0.1V102.9z
					 M303.3,100.1c0,0.8,0,1.1,0,1.2c0,0.1,0,0.1-0.1,0.1c-0.1,0-0.5,0-1.7,0h-2.3c-1.2,0-1.6,0-1.7,0c-0.1,0-0.1,0-0.1-0.1
					c0-0.1,0-0.4,0-1.2v-1.5c0-0.8,0-1.1,0-1.2c0-0.1,0-0.1,0.1-0.1c0.1,0,0.5,0,1.7,0h2.3c1.2,0,1.6,0,1.7,0c0.1,0,0.1,0,0.1,0.1
					c0,0.1,0,0.4,0,1.2V100.1z M302.6,98h-4.2V99h4.2V98z M302.6,99.7h-4.2v1.1h4.2V99.7z"/>
			</g>
			<g>
				<path class="st3" d="M313.6,97.2c1.7,2.4,3.9,3.9,6.3,4.8c-0.2,0.2-0.3,0.4-0.4,0.6c-0.1,0.2-0.1,0.2-0.2,0.2
					c-0.1,0-0.1,0-0.2-0.1c-2.4-1-4.5-2.7-5.9-4.8c-1.5,2.2-3.4,3.7-5.7,4.9c-0.1,0.1-0.2,0.1-0.2,0.1c-0.1,0-0.1-0.1-0.2-0.2
					c-0.1-0.2-0.3-0.4-0.4-0.5c2.7-1.2,4.6-3,5.7-4.7c0.2-0.3,0.3-0.5,0.4-0.8c0.3,0.1,0.6,0.1,0.9,0.2c0.1,0,0.2,0.1,0.2,0.2
					c0,0.1,0,0.1-0.1,0.2L313.6,97.2z M317.2,106.7c0,2,0,2.3,0,2.4c0,0.1,0,0.1-0.1,0.1h-0.7c-0.1,0-0.1,0-0.1-0.1v-0.6h-6.2v0.6
					c0,0.1,0,0.1-0.1,0.1h-0.7c-0.1,0-0.1,0-0.1-0.1c0-0.1,0-0.4,0-2.4v-1.1c0-1.1,0-1.5,0-1.6c0-0.1,0-0.1,0.1-0.1
					c0.1,0,0.6,0,1.9,0h3.9c1.4,0,1.8,0,1.9,0c0.1,0,0.1,0,0.1,0.1c0,0.1,0,0.4,0,1.4V106.7z M316.4,104.7h-6.2v3.1h6.2V104.7z
					 M316.1,102.1c0,0.1,0,0.1-0.1,0.1c-0.1,0-0.5,0-1.6,0h-2.2c-1.2,0-1.6,0-1.6,0c-0.1,0-0.1,0-0.1-0.1v-0.6c0-0.1,0-0.1,0.1-0.1
					c0.1,0,0.5,0,1.6,0h2.2c1.2,0,1.6,0,1.6,0c0.1,0,0.1,0,0.1,0.1V102.1z"/>
			</g>
			<g>
				<path class="st3" d="M322.1,106.2c0.1-0.1,0.1-0.1,0.2-0.1s0.1,0,0.2,0.1c1,0.6,1.9,1.4,2.7,2.5c0.1,0.1,0.1,0.1,0.1,0.2
					c0,0.1,0,0.1-0.1,0.2l-0.5,0.4c-0.1,0.1-0.1,0.1-0.1,0.1c-0.1,0-0.1,0-0.2-0.1c-0.7-1.1-1.6-2-2.6-2.6c-0.1,0-0.1-0.1-0.1-0.1
					c0,0,0-0.1,0.1-0.1L322.1,106.2z"/>
			</g>
			<g>
				<path class="st3" d="M34.6,126.7c0,0.1,0,0.1-0.1,0.1c-0.1,0-0.5,0-1.8,0h-4.8v4.8c0,1.1,0,1.6,0,1.7c0,0.1,0,0.1-0.1,0.1h-0.6
					c-0.1,0-0.1,0-0.1-0.1c0-0.1,0-0.5,0-1.6c-1.3,0.3-2.9,0.5-4,0.7c-0.3,0-0.4,0.1-0.5,0.1c-0.1,0-0.1,0.1-0.2,0.1
					c-0.1,0-0.1-0.1-0.1-0.2c-0.1-0.2-0.1-0.4-0.2-0.7c0.4,0,0.8,0,1.2-0.1l0.5-0.1v-4.8c-1.2,0-1.6,0-1.7,0c-0.1,0-0.1,0-0.1-0.1
					v-0.5c0-0.1,0-0.1,0.1-0.1c0.1,0,0.5,0,1.8,0h8.8c1.3,0,1.7,0,1.8,0c0.1,0,0.1,0,0.1,0.1V126.7z M32.7,124c0,0.8,0,1.1,0,1.2
					c0,0.1,0,0.1-0.1,0.1c-0.1,0-0.6,0-2,0H26c-1.4,0-1.9,0-2,0c-0.1,0-0.1,0-0.1-0.1c0-0.1,0-0.4,0-1.2v-1.3c0-0.8,0-1.1,0-1.1
					c0-0.1,0-0.1,0.1-0.1c0.1,0,0.6,0,2,0h4.7c1.4,0,1.9,0,2,0c0.1,0,0.1,0,0.1,0.1c0,0.1,0,0.3,0,1.1V124z M27.2,126.8h-2.6v1h2.6
					V126.8z M27.2,128.5h-2.6v1.1h2.6V128.5z M27.2,130.2h-2.6v1.3c0.8-0.1,1.7-0.3,2.6-0.4V130.2z M31.9,122.1h-7.2v0.9h7.2V122.1z
					 M31.9,123.6h-7.2v1h7.2V123.6z M32.5,127.9c0.1,0,0.2,0,0.2,0c0.1,0,0.1,0,0.2,0c0.1,0,0.1,0,0.3,0.2c0.2,0.2,0.3,0.3,0.3,0.3
					c0,0.1,0,0.1-0.1,0.2c-0.1,0.1-0.2,0.2-0.3,0.5c-0.4,0.7-0.8,1.4-1.3,1.9c0.7,0.5,1.6,1,2.7,1.3c-0.1,0.1-0.2,0.3-0.3,0.5
					c-0.1,0.3-0.1,0.3-0.4,0.2c-1-0.4-1.9-0.9-2.6-1.4c-0.7,0.6-1.5,1.1-2.4,1.5c-0.1,0-0.2,0.1-0.2,0.1c-0.1,0-0.1-0.1-0.2-0.2
					c-0.1-0.2-0.2-0.4-0.4-0.4c1.1-0.4,1.9-0.9,2.6-1.4c-0.7-0.7-1.2-1.5-1.6-2.4c-0.4,0-0.5,0-0.6,0c-0.1,0-0.1,0-0.1-0.1V128
					c0-0.1,0-0.1,0.1-0.1c0.1,0,0.4,0,1.5,0H32.5z M29.9,128.6c0.3,0.7,0.8,1.4,1.4,1.9c0.5-0.6,0.9-1.2,1.2-1.9H29.9z"/>
			</g>
			<g>
				<path class="st3" d="M43.5,125.6c0.9,2.9,2.9,5.6,5.8,6.7c-0.2,0.2-0.4,0.4-0.5,0.6c-0.1,0.2-0.1,0.2-0.2,0.2c0,0-0.1,0-0.2-0.1
					c-2.4-1.3-4.5-3.7-5.4-6.7c-0.2,0.9-0.4,1.7-0.8,2.4c-1,2-2.4,3.3-4.5,4.4c-0.1,0-0.2,0.1-0.2,0.1c-0.1,0-0.1-0.1-0.2-0.2
					c-0.2-0.2-0.3-0.4-0.5-0.5c2.4-1,3.9-2.5,4.7-4.1c0.4-0.8,0.7-1.7,0.8-2.7H39c-1.3,0-1.8,0-1.9,0c-0.1,0-0.1,0-0.1-0.1v-0.6
					c0-0.1,0-0.1,0.1-0.1c0.1,0,0.5,0,1.9,0h3.3c0.1-0.7,0.1-1.4,0.1-2.2c0-0.8,0-1.2-0.1-1.6c0.3,0,0.7,0,1,0.1
					c0.1,0,0.2,0.1,0.2,0.2c0,0.1,0,0.2-0.1,0.3c-0.1,0.1-0.1,0.4-0.1,1.1c0,0.8-0.1,1.5-0.1,2.3H47c1.3,0,1.8,0,1.9,0
					c0.1,0,0.1,0,0.1,0.1v0.6c0,0.1,0,0.1-0.1,0.1c-0.1,0-0.5,0-1.9,0H43.5z"/>
			</g>
			<g>
				<path class="st3" d="M59.9,123.7c-0.3-0.7-0.7-1-1.3-1c-1.5,0-2.2,1.4-2.3,4.3c0.6-1,1.4-1.4,2.3-1.4c1.5,0,2.6,1.2,2.6,3.2
					c0,2.2-1.2,3.5-2.9,3.5c-1.8,0-3.1-1.5-3.1-4.8c0-4,1.3-5.7,3.4-5.7c1.2,0,2,0.5,2.4,1.4L59.9,123.7z M58.3,131.4
					c1.1,0,1.8-0.9,1.8-2.5c0-1.5-0.6-2.3-1.7-2.3c-0.8,0-1.5,0.5-2,1.5C56.3,130.4,57.1,131.4,58.3,131.4z"/>
			</g>
			<g>
				<path class="st3" d="M71.5,124.5c0-0.5,0.1-0.9,0.1-1.5c0-0.5,0-1-0.1-1.5c0.5,0,0.8,0.1,1.1,0.2c0.2,0.1,0.2,0.2,0.1,0.4
					c-0.1,0.2-0.1,0.5-0.2,0.9c0,0.5-0.1,0.9-0.1,1.4h2.4c0.6,0,1.2,0,1.8,0c0.2,0,0.2,0,0.2,0.2c0,0.3,0,0.8,0,1.3
					c-0.1,1.6-0.3,3.5-0.5,4.4c-0.3,1.1-0.6,1.5-1.3,1.7c-0.3,0.1-0.9,0.2-1.5,0.2c-0.1,0-0.2-0.1-0.2-0.2c-0.1-0.3-0.2-0.5-0.5-0.8
					c0.9,0,1.4,0,1.8-0.1c0.4-0.1,0.5-0.3,0.7-1.1c0.3-1.1,0.4-2.8,0.5-4.6h-3.4c-0.2,1.6-0.6,2.9-1.3,3.9c-0.6,1-1.7,2.1-3,2.9
					c-0.1,0.1-0.2,0.1-0.3,0c-0.2-0.2-0.4-0.3-0.8-0.5c1.5-0.8,2.5-1.7,3.2-2.8c0.5-0.9,1-2.1,1.1-3.5h-1.6c-0.6,0-1.2,0-1.9,0.1
					c-0.1,0-0.1,0-0.2-0.2c0-0.2-0.1-0.6-0.1-0.8c0.8,0.1,1.4,0.1,2.2,0.1H71.5z"/>
			</g>
			<g>
				<path class="st3" d="M90.2,129.7c0,0.8,0,1.6,0,2.2c0,0.5-0.1,0.8-0.4,1c-0.3,0.3-0.9,0.3-2,0.3c-0.3,0-0.3,0-0.3-0.3
					c-0.1-0.2-0.1-0.5-0.3-0.7c0.5,0,0.9,0.1,1.5,0.1c0.4,0,0.6-0.2,0.6-0.6v-3.1h-5.5c-0.3,2.1-0.9,3.2-2.2,4.5
					c-0.1,0.1-0.1,0.2-0.2,0.2c-0.1,0-0.1-0.1-0.2-0.1c-0.2-0.2-0.4-0.3-0.6-0.3c2-1.9,2.5-3.4,2.5-7.7v-1.7c0-1.2,0-1.8,0-1.8
					c0-0.1,0-0.1,0.1-0.1c0.1,0,0.5,0,1.8,0h3.2c1.3,0,1.8,0,1.8,0c0.1,0,0.1,0,0.1,0.1c0,0.1,0,0.6,0,1.8V129.7z M89.3,125.5H84
					c0,0.9,0,1.7-0.1,2.4h5.4V125.5z M89.3,122.3H84v2.3h5.3V122.3z"/>
			</g>
			<g>
				<path class="st3" d="M95.8,128.9c0-0.5,0-1.2,0-1.8c-0.4,0.5-0.8,0.9-1.3,1.3c-0.1,0.1-0.2,0.1-0.2,0.1s-0.1-0.1-0.2-0.2
					c-0.1-0.2-0.2-0.3-0.3-0.4c1.3-1.1,2.3-2.3,2.9-3.5c0.1-0.2,0.2-0.5,0.3-0.7c0.3,0.1,0.5,0.3,0.7,0.4c0.1,0.1,0.1,0.1,0.1,0.2
					s0,0.1-0.1,0.2c-0.1,0-0.2,0.2-0.3,0.3c-0.3,0.5-0.6,0.9-0.9,1.4v5.2c0,1.2,0,1.7,0,1.8c0,0.1,0,0.1-0.1,0.1h-0.7
					c-0.1,0-0.1,0-0.1-0.1c0-0.1,0-0.6,0-1.8V128.9z M97.7,121.5c-0.1,0-0.2,0.2-0.3,0.4c-0.7,0.9-1.4,1.7-2.5,2.5
					c-0.1,0.1-0.2,0.1-0.2,0.1c-0.1,0-0.1-0.1-0.2-0.2c-0.1-0.2-0.3-0.3-0.4-0.4c1.1-0.7,2-1.6,2.6-2.5c0.2-0.3,0.3-0.4,0.3-0.6
					c0.3,0.1,0.5,0.3,0.7,0.4c0.1,0.1,0.1,0.1,0.1,0.2C97.9,121.4,97.8,121.5,97.7,121.5z M103.6,128.1c0.1,0,0.2,0,0.3,0
					c0.1,0,0.1,0,0.1,0c0.1,0,0.2,0.1,0.4,0.3c0.2,0.2,0.2,0.3,0.2,0.4s0,0.1-0.1,0.2c-0.1,0.1-0.2,0.2-0.3,0.3
					c-0.5,0.7-1,1.3-1.6,1.8c1.2,0.7,2.5,1.1,4.2,1.4c-0.1,0.2-0.3,0.3-0.3,0.5c-0.1,0.3-0.1,0.3-0.4,0.2c-1.6-0.4-2.9-0.9-4.1-1.7
					c-1.1,0.8-2.4,1.4-4.2,1.8c-0.3,0.1-0.3,0.1-0.4-0.2c-0.1-0.2-0.2-0.3-0.3-0.5c1.7-0.3,3.1-0.8,4.2-1.6c-0.6-0.5-1.1-1-1.6-1.7
					c-0.6,0.6-1.2,1.1-2,1.6c-0.1,0.1-0.2,0.1-0.2,0.1c-0.1,0-0.1-0.1-0.2-0.2c-0.1-0.1-0.2-0.3-0.4-0.4c1.5-0.8,2.4-1.7,3-2.6
					c0.1-0.2,0.3-0.6,0.4-0.9l-1.6,0.1c-0.4,0-0.6,0.1-0.7,0.1c-0.1,0-0.2,0.1-0.2,0.1c-0.1,0-0.1-0.1-0.2-0.2
					c-0.1-0.2-0.1-0.5-0.1-0.8c0.3,0,0.6,0,0.9,0c0.5,0,1,0,1.5-0.1l0.8-0.8c-0.8-0.8-1.5-1.4-2.4-2c-0.1-0.1-0.1-0.1,0-0.2l0.3-0.3
					c0.1-0.1,0.1-0.1,0.2-0.1c0.2,0.2,0.5,0.3,0.7,0.5c0.4-0.5,0.9-1.2,1.4-2c0.1-0.2,0.2-0.4,0.3-0.7c0.3,0.1,0.5,0.2,0.7,0.3
					c0.1,0.1,0.2,0.1,0.2,0.2c0,0.1-0.1,0.1-0.2,0.2c-0.1,0.1-0.2,0.2-0.4,0.4c-0.5,0.7-1,1.3-1.5,2c0.4,0.3,0.8,0.7,1.2,1
					c0.6-0.7,1.2-1.5,1.8-2.3c0.1-0.2,0.3-0.4,0.4-0.6c0.3,0.1,0.5,0.2,0.7,0.4c0.1,0.1,0.2,0.1,0.2,0.2c0,0.1-0.1,0.1-0.2,0.2
					c-0.1,0.1-0.2,0.2-0.5,0.5c-0.8,1-1.7,2-2.6,2.9c1.2-0.1,2.5-0.2,3.6-0.3c-0.3-0.3-0.5-0.6-0.8-1c-0.1-0.1-0.1-0.1,0.1-0.2
					l0.3-0.2c0.1-0.1,0.2-0.1,0.2,0c0.9,0.9,1.6,1.8,2,2.6c0,0.1,0,0.1-0.1,0.2l-0.4,0.2c-0.2,0.1-0.2,0.1-0.3,0
					c-0.2-0.4-0.4-0.7-0.6-1c-1.4,0.2-3.2,0.3-4.6,0.5c0.3,0.1,0.5,0.1,0.7,0.2c0.1,0,0.2,0.1,0.2,0.2c0,0.1,0,0.1-0.1,0.2
					c-0.1,0-0.1,0.2-0.3,0.3c-0.1,0.1-0.1,0.2-0.2,0.3H103.6z M100.3,128.8c0.5,0.7,1.1,1.3,1.7,1.8c0.6-0.5,1.1-1.1,1.6-1.8H100.3z
					"/>
			</g>
			<g>
				<path class="st3" d="M115.7,123.5c-0.3,2.4-1,4.7-1.8,6.1c-0.6,1-1.2,1.4-2.1,1.4c-1.1,0-2-1.1-2-3.2c0-1.3,0.6-2.7,1.6-3.6
					c1-1,2.4-1.6,4.2-1.6c3.1,0,5,1.8,5,4.5c0,2.3-1.4,4.1-4.5,4.9c-0.2,0-0.3,0-0.4-0.2c-0.1-0.1-0.3-0.4-0.5-0.5
					c2.8-0.5,4.4-2,4.4-4.4c0-2.1-1.6-3.5-3.6-3.5H115.7z M111.9,124.9c-0.9,0.9-1.3,2.1-1.3,3c0,1.5,0.6,2.2,1.1,2.2
					c0.5,0,0.9-0.3,1.3-1c0.7-1.3,1.5-3.4,1.6-5.5C113.6,123.7,112.6,124.2,111.9,124.9z"/>
			</g>
			<g>
				<path class="st3" d="M130.2,122.1c0,0.1,0,0.1-0.1,0.1c-0.1,0-0.3,0-1.1,0v9.5c0,1,0,1.4,0,1.5c0,0.1,0,0.1-0.1,0.1h-0.6
					c-0.1,0-0.1,0-0.1-0.1c0-0.1,0-0.5,0-1.5v-1.4c-1.1,0.4-2.8,0.9-3.7,1.1c-0.4,0.1-0.5,0.2-0.5,0.2c0,0-0.1,0.1-0.2,0.1
					c-0.1,0-0.1-0.1-0.1-0.2c-0.1-0.2-0.2-0.5-0.2-0.8c0.5-0.1,0.7-0.1,1.1-0.2l0.3-0.1v-8.3c-0.8,0-1.1,0-1.1,0
					c-0.1,0-0.1,0-0.1-0.1v-0.6c0-0.1,0-0.1,0.1-0.1c0.1,0,0.5,0,1.8,0h2.8c1.3,0,1.7,0,1.8,0c0.1,0,0.1,0,0.1,0.1V122.1z
					 M128.2,122.2h-2.5v2.1h2.5V122.2z M128.2,125h-2.5v2h2.5V125z M128.2,127.8h-2.5v2.5c0.8-0.2,1.8-0.5,2.5-0.8V127.8z
					 M134.7,123c0.2,0,0.3,0,0.3,0c0.1,0,0.1-0.1,0.2-0.1c0.1,0,0.2,0.1,0.4,0.3c0.2,0.2,0.3,0.3,0.3,0.4c0,0.1-0.1,0.1-0.1,0.2
					c-0.1,0.1-0.1,0.3-0.2,0.5c-0.3,1.8-0.9,3.6-2,5.2c0.7,1,1.7,1.9,2.9,2.8c-0.2,0.1-0.4,0.3-0.5,0.5c-0.1,0.1-0.1,0.2-0.2,0.2
					c-0.1,0-0.1,0-0.2-0.1c-1-0.8-1.9-1.7-2.5-2.7c-0.8,1-1.8,1.9-3,2.7c-0.1,0.1-0.2,0.1-0.2,0.1c-0.1,0-0.1-0.1-0.2-0.2
					c-0.1-0.2-0.2-0.3-0.4-0.4c1.4-0.8,2.5-1.8,3.3-3c-1.1-1.8-1.6-3.7-1.8-5.8c-0.6,0-0.9,0-0.9,0c-0.1,0-0.1,0-0.1-0.1v-0.6
					c0-0.1,0-0.1,0.1-0.1c0.1,0,0.5,0,1.7,0H134.7z M131.5,123.7c0.2,1.9,0.7,3.5,1.5,5c0.9-1.5,1.4-3.2,1.7-5H131.5z"/>
			</g>
			<g>
				<path class="st3" d="M144.7,128.3c-0.2,2.6-0.6,3.6-0.8,4c-0.3,0.5-0.8,0.7-1.5,0.7c-0.4,0-0.8,0-1.1,0c-0.3,0-0.3,0-0.3-0.3
					c0-0.3-0.1-0.4-0.2-0.6c0.5,0.1,0.9,0.1,1.5,0.1c0.5,0,0.8-0.1,0.9-0.3c0.2-0.3,0.6-1.2,0.8-3.8h-3.9l-0.3,0.9
					c0,0.1-0.1,0.2-0.5,0.1c-0.4-0.1-0.4-0.1-0.4-0.2c0.4-1.2,0.6-2.3,0.8-3.3c0-0.3,0.1-0.7,0.1-1c0-0.1,0-0.1,0.1-0.1
					c0.1,0,0.4,0,1.3,0h2.5v-2.3h-2.8c-1.1,0-1.5,0-1.5,0c-0.1,0-0.1,0-0.1-0.1v-0.6c0-0.1,0-0.1,0.1-0.1c0.1,0,0.4,0,1.5,0h2.1
					c1,0,1.4,0,1.5,0s0.1,0,0.1,0.1c0,0.1,0,0.4,0,1.2v1.2c0,0.8,0,1.1,0,1.2c0,0.1,0,0.1-0.1,0.1s-0.5,0-1.5,0h-2.4
					c-0.1,0.8-0.2,1.5-0.4,2.2h3.1c1.1,0,1.4,0,1.5,0c0.1,0,0.1,0,0.1,0.1L144.7,128.3z M148.1,123.1c0-1.4,0-1.8-0.1-2.3
					c0.4,0,0.8,0,1.1,0.1c0.1,0,0.2,0.1,0.2,0.1c0,0.1,0,0.1-0.1,0.3c-0.1,0.2-0.1,0.5-0.1,1.8v7.8c0,1.6,0,2.3,0,2.4
					c0,0.1,0,0.1-0.1,0.1h-0.7c-0.1,0-0.1,0-0.1-0.1c0-0.1,0-0.8,0-2.3V123.1z"/>
			</g>
			<g>
				<path class="st3" d="M165.6,120.6c-2.4,2-3.1,4-3.1,6.4c0,2.5,0.8,4.4,3.1,6.4l-0.4,0.4c-2.6-2-3.7-4.1-3.7-6.8
					c0-2.7,1-4.8,3.7-6.8L165.6,120.6z"/>
			</g>
			<g>
				<path class="st3" d="M169,127.7c0-0.5,0-1.4,0-2.1c-0.3,0.5-0.7,1.1-1.1,1.6c-0.1,0.1-0.1,0.1-0.2,0.1c-0.1,0-0.1-0.1-0.1-0.2
					c-0.1-0.2-0.2-0.4-0.3-0.6c1.3-1.6,2.1-3.1,2.7-5c0.1-0.3,0.2-0.7,0.2-0.9c0.3,0.1,0.6,0.2,0.9,0.3c0.1,0,0.2,0.1,0.2,0.2
					s-0.1,0.2-0.1,0.2c-0.1,0.1-0.2,0.2-0.3,0.5c-0.3,0.8-0.6,1.6-0.9,2.3v6.9c0,1.5,0,2.1,0,2.2c0,0.1,0,0.1-0.1,0.1H169
					c-0.1,0-0.1,0-0.1-0.1s0-0.7,0-2.2V127.7z M180.2,122.6c0,0.1,0,0.1-0.1,0.1c-0.1,0-0.5,0-2,0h-1.1v2.6h0.5c1.4,0,1.9,0,2,0
					c0.1,0,0.1,0,0.1,0.1c0,0.1,0,0.5,0,2.2v2.5c0,2.3,0,2.7,0,2.8c0,0.1,0,0.1-0.1,0.1h-0.6c-0.1,0-0.1,0-0.1-0.1v-0.7h-6.7v0.7
					c0,0.1,0,0.1-0.1,0.1h-0.6c-0.1,0-0.1,0-0.1-0.1c0-0.1,0-0.5,0-2.8v-2.3c0-1.9,0-2.4,0-2.4c0-0.1,0-0.1,0.1-0.1
					c0.1,0,0.6,0,1.9,0h0.4v-2.6h-0.6c-1.4,0-1.9,0-2,0c-0.1,0-0.1,0-0.1-0.1v-0.6c0-0.1,0-0.1,0.1-0.1c0.1,0,0.5,0,2,0h4.9
					c1.4,0,1.9,0,2,0c0.1,0,0.1,0,0.1,0.1V122.6z M173.8,126h-1.7v5.5h1.7V126z M176.3,122.7h-1.7v2.6h1.7V122.7z M176.3,126h-1.7
					v5.5h1.7V126z M178.8,126h-1.8v5.5h1.8V126z"/>
			</g>
			<g>
				<path class="st3" d="M185.3,124.5c0.4,1,0.9,1.7,1.6,2.3c-0.1,0.1-0.2,0.3-0.3,0.5c-0.1,0.1-0.1,0.2-0.1,0.2c0,0-0.1,0-0.1-0.1
					c-0.5-0.6-0.8-1.2-1.1-2c0,4.3,0.1,7.8,0.1,8c0,0.1,0,0.1-0.1,0.1h-0.7c-0.1,0-0.1,0-0.1-0.1c0-0.2,0.1-3.6,0.1-7.7
					c-0.4,1.7-1,3.2-1.8,4.5c-0.1,0.1-0.1,0.2-0.2,0.2s-0.1-0.1-0.1-0.2c-0.1-0.2-0.2-0.4-0.3-0.5c1-1.4,1.7-3.1,2.2-5h-0.5
					c-1,0-1.2,0-1.3,0c-0.1,0-0.1,0-0.1-0.1v-0.5c0-0.1,0-0.1,0.1-0.1c0.1,0,0.4,0,1.3,0h0.6v-1.4c0-0.8,0-1.2-0.1-1.7
					c0.4,0,0.6,0,0.9,0.1c0.1,0,0.2,0.1,0.2,0.1c0,0.1,0,0.2-0.1,0.3c-0.1,0.2-0.1,0.4-0.1,1.2v1.4h0.2c1,0,1.2,0,1.3,0
					c0.1,0,0.1,0,0.1,0.1v0.5c0,0.1,0,0.1-0.1,0.1C186.7,124.6,186.4,124.5,185.3,124.5L185.3,124.5z M192.7,122.3
					c0.1,0,0.2,0,0.2,0c0.1,0,0.1,0,0.1,0c0.1,0,0.2,0,0.4,0.2c0.2,0.2,0.2,0.3,0.2,0.4c0,0.1,0,0.1-0.1,0.2
					c-0.1,0.1-0.2,0.2-0.3,0.4c-0.5,1-1.2,1.8-1.9,2.6c1.1,0.9,2.5,1.6,3.8,2c-0.2,0.2-0.2,0.3-0.3,0.5c-0.1,0.3-0.1,0.3-0.4,0.2
					c-1.3-0.5-2.6-1.2-3.7-2.2c-1.1,0.9-2.4,1.7-3.9,2.4c-0.1,0-0.2,0.1-0.2,0.1c-0.1,0-0.1-0.1-0.2-0.2c-0.1-0.2-0.2-0.3-0.3-0.5
					c1.5-0.5,2.9-1.3,4.1-2.3c-0.6-0.6-1.1-1.3-1.5-2c-0.4,0.5-0.8,1-1.3,1.5c-0.1,0.1-0.2,0.2-0.2,0.2c0,0-0.1-0.1-0.2-0.2
					c-0.1-0.1-0.3-0.2-0.4-0.3c1.2-1,2.1-2.4,2.6-3.7c0.1-0.2,0.2-0.5,0.2-0.7c0.3,0.1,0.6,0.1,0.8,0.2c0.1,0,0.2,0.1,0.2,0.1
					c0,0.1,0,0.1-0.1,0.2c-0.1,0.1-0.2,0.2-0.2,0.4c-0.1,0.3-0.2,0.5-0.4,0.8H192.7z M193.4,131c0,1.9,0,2.3,0,2.3
					c0,0.1,0,0.1-0.1,0.1h-0.6c-0.1,0-0.1,0-0.1-0.1v-0.7h-3.9v0.7c0,0.1,0,0.1-0.1,0.1H188c-0.1,0-0.1,0-0.1-0.1s0-0.4,0-2.3v-1
					c0-1,0-1.4,0-1.5c0-0.1,0-0.1,0.1-0.1c0.1,0,0.4,0,1.6,0h2.1c1.2,0,1.5,0,1.6,0c0.1,0,0.1,0,0.1,0.1c0,0.1,0,0.4,0,1.3V131z
					 M192.6,129.1h-3.9v2.7h3.9V129.1z M189.3,123l-0.1,0.2c0.4,0.8,1,1.5,1.6,2.2c0.7-0.7,1.3-1.5,1.8-2.4H189.3z"/>
			</g>
			<g>
				<path class="st3" d="M199.6,127.3c0.5-0.2,1-0.4,1.5-0.7c0,0.2,0,0.4,0,0.5c0,0.3,0,0.3-0.3,0.4c-0.4,0.2-0.8,0.4-1.2,0.5v1.6
					c0,0.9,0,1.6,0,2.1c0,0.6-0.1,0.9-0.4,1.1c-0.3,0.2-0.6,0.3-1.4,0.3c-0.3,0-0.3,0-0.3-0.3c-0.1-0.2-0.2-0.4-0.3-0.6
					c0.3,0,0.5,0.1,1,0.1c0.4,0,0.6-0.2,0.6-0.7v-3.3c-0.3,0.1-0.5,0.2-0.8,0.3c-0.3,0.1-0.5,0.2-0.5,0.3c-0.1,0.1-0.1,0.1-0.2,0.1
					c-0.1,0-0.1,0-0.1-0.1c-0.1-0.2-0.2-0.5-0.3-0.8c0.4-0.1,0.7-0.2,1.3-0.3l0.6-0.2v-3.2h-0.4c-0.9,0-1.2,0-1.3,0
					c-0.1,0-0.1,0-0.1-0.1v-0.6c0-0.1,0-0.1,0.1-0.1c0.1,0,0.4,0,1.3,0h0.4v-1.1c0-0.8,0-1.2-0.1-1.7c0.3,0,0.6,0,0.9,0.1
					c0.1,0,0.2,0.1,0.2,0.1c0,0.1,0,0.2-0.1,0.3c-0.1,0.2-0.1,0.4-0.1,1.2v1.2h0c0.9,0,1.2,0,1.3,0c0.1,0,0.1,0,0.1,0.1v0.6
					c0,0.1,0,0.1-0.1,0.1c-0.1,0-0.3,0-1.3,0h0V127.3z M209.5,127.1c0,0.1,0,0.1-0.1,0.1c-0.1,0-0.5,0-1.8,0h-1.5v1.8h0.9
					c1.2,0,1.6,0,1.7,0c0.1,0,0.1,0,0.1,0.1c0,0.1,0,0.4,0,1.1v1c0,1.7,0,2,0,2.1c0,0.1,0,0.1-0.1,0.1H208c-0.1,0-0.1,0-0.1-0.1
					v-0.5h-4.2v0.6c0,0.1,0,0.1-0.1,0.1H203c-0.1,0-0.1,0-0.1-0.1c0-0.1,0-0.4,0-2.1v-0.9c0-0.9,0-1.2,0-1.2c0-0.1,0-0.1,0.1-0.1
					c0.1,0,0.5,0,1.7,0h0.6v-1.8h-2.8c0,0.7-0.1,1.4-0.2,2.1c-0.3,1.4-0.7,2.5-1.3,3.5c-0.1,0.1-0.1,0.2-0.2,0.2
					c0,0-0.1-0.1-0.2-0.2c-0.1-0.2-0.3-0.3-0.5-0.4c0.7-1,1.2-2.2,1.4-3.4c0.2-1.2,0.3-2.8,0.3-4.5c0-1.9,0-2.7,0-2.8
					c0-0.1,0-0.1,0.1-0.1c0.1,0,0.5,0,1.9,0h3.2c1.3,0,1.8,0,1.9,0c0.1,0,0.1,0,0.1,0.1c0,0.1,0,0.3,0,1v1.1c0,0.7,0,0.9,0,1
					s0,0.1-0.1,0.1c-0.1,0-0.5,0-1.9,0h-0.8v1.6h1.5c1.3,0,1.8,0,1.8,0c0.1,0,0.1,0,0.1,0.1V127.1z M205.3,124.8h-2.7v0
					c0,0.5,0,1,0,1.6h2.7V124.8z M208,122.3h-5.4v1.8h5.4V122.3z M207.9,129.6h-4.2v2.4h4.2V129.6z"/>
			</g>
			<g>
				<path class="st3" d="M216,125.1c1.1-0.2,2-0.4,2.6-0.5c0.2-0.1,0.3-0.1,0.4-0.2c0.1,0,0.1-0.1,0.2-0.1c0.1,0,0.1,0,0.2,0.1
					c0.2,0.1,0.4,0.3,0.5,0.4c0.1,0.1,0.1,0.2,0.1,0.2c0,0.1-0.1,0.2-0.2,0.2c-0.2,0.1-0.3,0.2-0.5,0.4c-1,1-2,2-3,3.1
					c0.3-0.1,0.5-0.2,0.8-0.2c0.7,0,1.3,0.5,1.5,1.6c0.3,1.3,0.5,1.5,2,1.5c0.7,0,1.4-0.1,2.1-0.2c0.1,0,0.2,0,0.2,0.1
					c0,0.2,0.1,0.4,0.1,0.7c0,0.1-0.1,0.1-0.2,0.2c-0.6,0.1-1.4,0.2-2,0.2c-2,0-2.6-0.4-2.9-1.8c-0.2-1-0.4-1.5-1.1-1.5
					c-0.4,0-1,0.3-1.6,0.8c-0.7,0.7-1.5,1.7-2.2,2.4c-0.1,0.1-0.1,0.1-0.2,0c-0.2-0.2-0.4-0.3-0.5-0.5c-0.1-0.1,0-0.2,0-0.3
					c1-1.1,2-2.1,2.7-2.7c0.9-0.9,1.9-2.1,3.3-3.6c-1.5,0.3-2.7,0.5-3.9,0.8c-0.3,0.1-0.5,0.2-0.6,0.2c-0.1,0.1-0.2,0.1-0.3,0.1
					c-0.1,0-0.1-0.1-0.2-0.2c-0.1-0.2-0.3-0.6-0.4-1C214,125.4,214.7,125.3,216,125.1z M219.4,122.2c0.1,0,0.1,0.1,0.1,0.2
					c-0.1,0.2-0.1,0.5-0.2,0.6c0,0.1-0.1,0.1-0.2,0.1c-1.2-0.3-2.6-0.7-3.6-1.1c-0.1,0-0.1-0.1-0.1-0.2c0.1-0.2,0.2-0.5,0.3-0.8
					C216.9,121.6,218.2,122,219.4,122.2z"/>
			</g>
			<g>
				<path class="st3" d="M237.4,125.3c0,0.1,0,0.1-0.1,0.1c-0.1,0-0.5,0-1.9,0h-3.7c-0.1,0.3-0.2,0.6-0.3,0.9h2.3c1.3,0,1.8,0,1.8,0
					c0.1,0,0.1,0,0.1,0.1c0,0.1,0,0.4,0,1.3v2.1c0,1,0,1.3,0,1.3c0,0.1,0,0.1-0.1,0.1c-0.1,0-0.5,0-1.8,0h-3.1c-1.3,0-1.8,0-1.8,0
					c-0.1,0-0.1,0-0.1-0.1c0-0.1,0-0.4,0-1.3v-2.1c0-1,0-1.3,0-1.3c0-0.1,0-0.1,0.1-0.1c0.1,0,0.5,0,1.8,0c0.1-0.3,0.2-0.6,0.3-0.9
					h-3.4c-1.3,0-1.8,0-1.9,0c-0.1,0-0.1,0-0.1-0.1v-0.5c0-0.1,0-0.1,0.1-0.1c0.1,0,0.5,0,1.9,0h3.6c0.1-0.3,0.1-0.6,0.2-0.9h-3.3
					c-1.4,0-1.9,0-2,0c-0.1,0-0.1,0-0.1-0.1c0-0.1,0-0.3,0-0.9v-0.6c0-0.6,0-0.8,0-0.8c0-0.1,0-0.1,0.1-0.1c0.1,0,0.6,0,2,0h7
					c1.4,0,1.9,0,1.9,0c0.1,0,0.1,0,0.1,0.1c0,0.1,0,0.3,0,0.8v0.6c0,0.6,0,0.8,0,0.9c0,0.1,0,0.1-0.1,0.1c-0.1,0-0.6,0-1.9,0h-2.8
					c-0.1,0.3-0.1,0.6-0.2,0.9h3.5c1.3,0,1.8,0,1.9,0c0.1,0,0.1,0,0.1,0.1V125.3z M237.5,132.6c0,0.1,0,0.1-0.1,0.1
					c-0.1,0-0.5,0-2,0h-8.3v0.5c0,0.1,0,0.1-0.1,0.1h-0.6c-0.1,0-0.1,0-0.1-0.1c0-0.1,0-0.4,0-1.8v-3.3c0-0.7,0-1.1-0.1-1.5
					c0.3,0,0.6,0,0.9,0.1c0.1,0,0.2,0.1,0.2,0.1c0,0.1,0,0.2-0.1,0.3c-0.1,0.1-0.1,0.4-0.1,1v3.9h8.3c1.4,0,1.9,0,2,0
					c0.1,0,0.1,0,0.1,0.1V132.6z M229.3,122h-2.6v1.2h2.6V122z M234.9,126.9h-5.3v0.8h5.3V126.9z M234.9,128.3h-5.3v0.8h5.3V128.3z
					 M234.9,129.7h-5.3v0.9h5.3V129.7z M232.6,122H230v1.2h2.6V122z M236.1,122h-2.7v1.2h2.7V122z"/>
			</g>
			<g>
				<path class="st3" d="M244.3,122.3c-0.1-0.4-0.2-0.6-0.5-0.9c0.4-0.1,0.8-0.1,1.1-0.1c0.1,0,0.2,0.1,0.2,0.2c0,0.1,0,0.1,0,0.2
					c0,0.1,0,0.3,0.1,0.6c0.1,0.4,0.2,0.6,0.3,0.9c1-0.2,2-0.4,3.1-0.8c0.1,0,0.1,0,0.2,0.1c0.1,0.2,0.1,0.4,0.1,0.5
					c0,0.1,0,0.2-0.1,0.2c-1,0.3-2,0.6-3,0.8c0.2,0.5,0.4,1,0.7,1.6c1-0.2,1.9-0.5,2.8-0.8c0.1,0,0.2,0,0.2,0.1
					c0.1,0.2,0.1,0.3,0.1,0.5c0,0.1,0,0.2-0.1,0.2c-0.9,0.3-1.8,0.5-2.7,0.7c0.5,1,1.3,2.1,2.2,2.9c0.1,0.1,0.1,0.1,0.1,0.2
					c-0.1,0.2-0.2,0.4-0.3,0.5c-0.1,0.1-0.2,0.1-0.3,0c-0.3-0.2-0.6-0.4-1-0.5c-0.7-0.3-1.6-0.4-2.7-0.4c-1.5,0-2.4,0.4-2.4,1.4
					c0,1.1,1.3,1.5,3.5,1.5c0.5,0,1,0,1.4-0.1c0.1,0,0.1,0.1,0.1,0.2c0,0.2-0.1,0.5-0.2,0.7c0,0.1-0.1,0.2-0.2,0.2
					c-0.4,0-0.7,0.1-1.2,0.1c-2.8,0-4.4-0.8-4.4-2.4c0-1.4,1.2-2.2,3.2-2.2c1.2,0,2.2,0.2,2.9,0.5c-0.5-0.6-1.1-1.4-1.6-2.3
					c-1.4,0.3-2.7,0.4-4,0.5c-0.1,0-0.1,0-0.2-0.1c-0.1-0.2-0.1-0.4-0.1-0.7c1.4,0,2.7-0.2,4-0.4c-0.2-0.5-0.5-1-0.7-1.6
					c-1.1,0.2-2.4,0.4-3.7,0.4c-0.1,0-0.2,0-0.2-0.1c0-0.1-0.1-0.4-0.1-0.6c1.3,0,2.7-0.2,3.8-0.3
					C244.6,123,244.5,122.7,244.3,122.3z"/>
			</g>
			<g>
				<path class="st3" d="M252.8,120.2c2.6,2,3.7,4.1,3.7,6.8c0,2.7-1,4.8-3.7,6.8l-0.4-0.4c2.4-2,3.1-4,3.1-6.4
					c0-2.5-0.8-4.4-3.1-6.4L252.8,120.2z"/>
			</g>
			<g>
				<path class="st3" d="M271,130c0,1.4,0.8,1.9,2.2,1.9c1.5,0,2.8-0.7,2.8-2.2c0-0.7-0.2-1.5-1.3-2.5c0.3,0,0.6,0,0.9-0.1
					c0.1,0,0.2,0,0.2,0c0.9,0.8,1.2,1.7,1.2,2.5c0,1.9-1.6,3-3.6,3c-2.2,0-3.2-1-3.2-2.8c0-0.5,0.1-1.1,0.1-1.7
					c-0.9-0.1-1.6-0.2-2.2-0.4c-0.1,0-0.1-0.1-0.1-0.2c0-0.3,0-0.5,0-0.8c0.9,0.3,1.6,0.4,2.5,0.5c0.1-0.9,0.2-1.7,0.3-2.4
					c-0.9-0.1-1.7-0.2-2.4-0.4c-0.1,0-0.1,0-0.1-0.2c0-0.2,0-0.5,0-0.8c0.9,0.3,1.8,0.4,2.7,0.5c0.1-0.8,0.2-1.1,0.2-1.7
					c0.1-0.4,0.1-0.8,0-1.2c0.4,0.1,0.9,0.2,1.1,0.3c0.1,0.1,0.2,0.1,0.2,0.2c0,0.1,0,0.1-0.1,0.2c-0.1,0.1-0.2,0.3-0.3,0.7
					c-0.1,0.5-0.2,1-0.3,1.5c0.6,0,1.3,0,2,0c0.1,0,0.1,0,0.1,0.1c0,0.2,0,0.4,0,0.6c0,0.1-0.1,0.1-0.1,0.1c-0.7,0-1.4,0-2,0
					c-0.1,0.7-0.2,1.5-0.4,2.4c0.8,0,1.5,0,2.3,0c0.1,0,0.2,0,0.2,0.1c0,0.2,0,0.4,0,0.6c0,0.1-0.1,0.2-0.1,0.2
					c-0.7,0.1-1.6,0-2.4,0C271.1,128.9,271,129.6,271,130z"/>
			</g>
			<g>
				<path class="st3" d="M292.3,122.4c0,0.1,0,0.1-0.1,0.1c-0.1,0-0.5,0-1.6,0v6.6c0,1.5,0,2.1,0,2.6c0,0.6-0.1,0.9-0.4,1.1
					c-0.3,0.3-1.1,0.3-2.4,0.3c-0.3,0-0.3,0-0.3-0.3c-0.1-0.3-0.2-0.5-0.3-0.6c0.4,0,1.1,0.1,1.7,0.1c0.6,0,0.8-0.1,0.8-0.5v-9.2
					h-7.6c-1.3,0-1.8,0-1.8,0c-0.1,0-0.1,0-0.1-0.1v-0.7c0-0.1,0-0.1,0.1-0.1c0.1,0,0.5,0,1.8,0h8.2c1.3,0,1.8,0,1.8,0
					c0.1,0,0.1,0,0.1,0.1V122.4z M287,127.6c0,2.1,0,2.4,0,2.5c0,0.1,0,0.1-0.1,0.1h-0.6c-0.1,0-0.1,0-0.1-0.1v-0.7h-3.4v1.1
					c0,0.1,0,0.1-0.1,0.1H282c-0.1,0-0.1,0-0.1-0.1c0-0.1,0-0.4,0-2.6v-1.4c0-1.3,0-1.7,0-1.8c0-0.1,0-0.1,0.1-0.1
					c0.1,0,0.4,0,1.5,0h1.9c1.1,0,1.4,0,1.5,0c0.1,0,0.1,0,0.1,0.1c0,0.1,0,0.4,0,1.5V127.6z M286.2,125.4h-3.4v3.2h3.4V125.4z"/>
			</g>
			<g>
				<path class="st3" d="M299.2,122.1c0.1-0.1,0.2-0.1,0.2,0c0.6,0.7,1.1,1.5,1.6,2.3c0,0.1,0,0.1-0.1,0.2l-0.3,0.2
					c-0.1,0-0.1,0.1-0.2,0.1c0,0-0.1,0-0.1-0.1c-0.1-0.2-0.2-0.5-0.4-0.7c-1.3,0.2-2.7,0.4-4.3,0.6c-0.4,0-0.5,0.1-0.6,0.2
					c-0.1,0-0.1,0.1-0.2,0.1c-0.1,0-0.1,0-0.1-0.2c-0.1-0.2-0.1-0.5-0.2-0.8c0.4,0,0.9,0,1.2,0c0.4-0.8,0.9-1.7,1.1-2.2
					c0.1-0.3,0.2-0.6,0.3-1c0.3,0.1,0.6,0.1,0.8,0.2c0.1,0.1,0.2,0.1,0.2,0.2s-0.1,0.2-0.1,0.2c-0.1,0.1-0.2,0.2-0.2,0.4
					c-0.3,0.6-0.7,1.4-1.1,2.1c1-0.1,2-0.2,2.9-0.4c-0.2-0.3-0.5-0.7-0.7-1c-0.1-0.1,0-0.1,0.1-0.2L299.2,122.1z M300.2,130.1
					c0,0.7,0,1.5,0,1.8c0,0.4,0,0.7-0.3,0.9c-0.2,0.2-0.4,0.3-1.4,0.3c-0.3,0-0.3,0-0.4-0.3c-0.1-0.2-0.1-0.4-0.2-0.5
					c0.3,0,0.6,0.1,0.9,0.1c0.5,0,0.6-0.1,0.6-0.6v-1.6h-3v1.2c0,1.2,0,1.7,0,1.7c0,0.1,0,0.1-0.1,0.1h-0.6c-0.1,0-0.1,0-0.1-0.1
					c0-0.1,0-0.5,0-1.7v-4c0-1.2,0-1.7,0-1.8c0-0.1,0-0.1,0.1-0.1c0.1,0,0.4,0,1.4,0h1.5c1,0,1.3,0,1.4,0c0.1,0,0.1,0,0.1,0.1
					c0,0.1,0,0.6,0,1.8V130.1z M299.4,126.2h-3v1.3h3V126.2z M299.4,128.2h-3v1.3h3V128.2z M302.4,125.1c0,0.4,0.1,0.5,0.4,0.6
					c0.2,0.1,0.6,0.1,1.4,0.1c0.9,0,1.5-0.1,1.7-0.3s0.3-0.5,0.3-1.3c0.2,0.1,0.3,0.2,0.5,0.3c0.2,0.1,0.2,0.1,0.2,0.4
					c-0.1,0.8-0.2,1-0.5,1.3c-0.3,0.3-1.1,0.4-2.3,0.4c-0.9,0-1.6,0-2-0.2c-0.3-0.1-0.5-0.3-0.5-0.9v-3.1c0-0.6,0-1.1-0.1-1.4
					c0.3,0,0.6,0,0.9,0.1c0.1,0,0.2,0.1,0.2,0.1c0,0.1,0,0.2-0.1,0.2c-0.1,0.1-0.1,0.3-0.1,1v1c1-0.3,1.9-0.7,2.5-1.1
					c0.4-0.2,0.6-0.4,0.7-0.6c0.3,0.2,0.4,0.4,0.6,0.5c0.1,0.1,0.1,0.1,0.1,0.2c0,0.1-0.1,0.1-0.2,0.1c-0.2,0-0.4,0.1-0.6,0.3
					c-0.9,0.4-2,0.9-3.2,1.3V125.1z M302.5,131.5c0,0.3,0.1,0.5,0.4,0.6c0.2,0.1,0.7,0.1,1.5,0.1c0.6,0,1.4-0.1,1.6-0.3
					c0.3-0.3,0.3-0.6,0.4-1.4c0.2,0.1,0.4,0.2,0.6,0.3c0.2,0.1,0.2,0.1,0.2,0.4c-0.1,0.8-0.3,1.1-0.6,1.3c-0.3,0.2-1.1,0.4-2.2,0.4
					c-1,0-1.7,0-2.1-0.2c-0.3-0.1-0.5-0.4-0.5-1v-3.2c0-0.6,0-1-0.1-1.4c0.3,0,0.6,0,0.9,0.1c0.1,0,0.2,0.1,0.2,0.1
					c0,0.1,0,0.2-0.1,0.3c0,0.1-0.1,0.2-0.1,0.9v0.9c1-0.4,2-0.8,2.7-1.2c0.4-0.2,0.6-0.4,0.7-0.6c0.3,0.2,0.4,0.3,0.6,0.5
					c0.1,0.1,0.1,0.2,0.1,0.2c0,0.1-0.1,0.1-0.2,0.1c-0.2,0-0.4,0.1-0.6,0.3c-0.9,0.5-2,1-3.3,1.4V131.5z"/>
			</g>
			<g>
				<path class="st3" d="M313.2,131.6c0,1.1-0.9,1.9-2,1.9c-1.1,0-2-0.9-2-1.9c0-1.1,0.9-1.9,2-1.9
					C312.3,129.7,313.2,130.6,313.2,131.6z M310,131.6c0,0.7,0.6,1.2,1.2,1.2c0.7,0,1.2-0.6,1.2-1.2s-0.5-1.2-1.2-1.2
					C310.6,130.4,310,131,310,131.6z"/>
			</g>
		</g>
	</g>
</g>
</svg>
