<?xml version="1.0" encoding="utf-8"?>
<!-- Generator: Adobe Illustrator 26.3.1, SVG Export Plug-In . SVG Version: 6.00 Build 0)  -->
<svg version="1.1" id="レイヤー_1" xmlns="http://www.w3.org/2000/svg" xmlns:xlink="http://www.w3.org/1999/xlink" x="0px"
	 y="0px" viewBox="0 0 273.8 40.8" style="enable-background:new 0 0 273.8 40.8;" xml:space="preserve">
<style type="text/css">
	.st0{fill:#987744;}
	.st1{fill:#DC3023;}
	.st2{fill:#4D4D4D;}
</style>
<g id="レイヤー_2_00000179623517453587952580000009972971440397631140_">
	<g id="A案">
		<path class="st0" d="M16,15.2H2c-0.5,0-1,0-1.5,0.1H0.4c-0.1,0-0.2-0.1-0.2-0.1C0.1,15.1,0,14.9,0,14.8c0,0,0-0.1,0-0.1
			s0-0.1,0.1-0.1h0.1c0.6,0.1,1.2,0.2,1.8,0.2h1.2c0-1.2,0.1-3,0.1-4.6c0-1,0-2-0.2-3.1C3.2,7,3.1,7,3.1,6.9c0-0.1,0.1-0.2,0.1-0.2
			c0.1,0,0.2,0,0.3,0.1l1.7,0.7h5.3c0.1,0,0.3,0,0.3-0.1c0.2-0.2,0.5-0.5,0.7-0.7c0.1,0,0.1-0.1,0.2-0.1c0.1,0,0.1,0,0.2,0.1
			c0.4,0.3,0.9,0.5,1.3,0.8c0.1,0.1,0.2,0.2,0.2,0.3c0,0.1-0.1,0.2-0.3,0.4s-0.4,0.2-0.4,0.5c0,0.6,0,1.4,0,2.4c0,1.1,0,2.4,0.1,3.7
			h0.4c0.1,0,0.2-0.1,0.3-0.2c0.2-0.3,0.6-0.8,0.9-1.1c0-0.1,0.1-0.1,0.1-0.1c0.1,0,0.1,0,0.2,0.1c0.5,0.4,1,0.9,1.5,1.4
			c0.1,0,0.1,0.1,0.1,0.2C16.2,15.2,16.1,15.2,16,15.2z M16,5.8c-0.7,0.3-0.9,0.8-1,1.5c0,0.1-0.1,0.2-0.2,0.2c0,0-0.1,0-0.1,0
			C12.2,6.7,10.2,4.9,9,2.6H8.8v0.6c0,0.9,0,2,0.1,3.2l0,0c0,0.4-0.2,0.5-1,0.5H7.7C7.2,7,7,6.9,7,6.6V6.5c0.1-1.2,0.1-2.3,0.1-3.2
			C5.4,5.5,3.1,7,0.5,7.8c0,0-0.1,0-0.1,0c-0.1,0-0.1,0-0.1-0.1c0,0,0,0,0,0c0-0.1,0.1-0.1,0.1-0.2c2.2-1.1,4-2.8,5.2-4.9H2.7
			c-0.5,0-1.1,0-1.6,0.1L1,2.7c-0.1,0-0.2-0.1-0.2-0.2C0.7,2.4,0.7,2.3,0.6,2.1c0,0,0-0.1,0-0.1s0,0,0.1,0c0,0,0.1,0,0.1,0
			c0.6,0.1,1.2,0.2,1.9,0.2h4.4c0-0.5,0-1.1-0.1-1.6c0-0.2,0-0.3,0-0.5C7,0,7,0,7.1,0h0.2c0.4,0.1,1.2,0.1,1.9,0.3
			c0.2,0,0.3,0.2,0.3,0.3S9.3,0.8,9.1,0.9c-0.2,0-0.3,0.2-0.3,0.4c0,0,0,0,0,0c0,0.3,0,0.6,0,0.9h3.6c0.1,0,0.2-0.1,0.3-0.2l0.8-1
			c0.1,0,0.1-0.1,0.1-0.1c0.1,0,0.1,0,0.2,0.1c0.4,0.3,1.1,0.9,1.6,1.3c0.1,0,0.1,0.1,0.1,0.2c0,0.1-0.1,0.1-0.3,0.1h-6
			c1.7,1.8,4,2.9,6.5,2.9C16,5.5,16,5.6,16,5.7C16,5.7,16,5.8,16,5.8L16,5.8z M5,12.7c0,0.8,0,1.5,0,2.2h6c0-0.6,0-1.4,0-2.2H5z
			 M11,8H5c0,0.5,0,1.1,0,1.8h6C11,9.1,11,8.4,11,8z M11,10.2H5v2.1h6V10.2z"/>
		<path class="st0" d="M34.9,13.7c-0.5,0.3-0.8,0.8-0.8,1.4c0,0.2,0,0.3-0.3,0.3c-3.4,0-6.4-0.1-8-1c-1.3-0.7-2.2-1.9-2.5-3.3
			c-0.7,2-2.1,3.7-4,4.7c0,0-0.1,0-0.1,0c-0.1,0-0.1-0.1-0.1-0.1c0-0.1,0-0.1,0.1-0.2c2-2,3-4.7,3-7.5V7.7c0-0.1,0-0.1,0.1-0.1h0.1
			c0.6,0.2,1.4,0.3,2,0.5c0.1,0,0.2,0.1,0.2,0.2c0,0.1-0.1,0.2-0.3,0.3s-0.4,0.1-0.4,0.3c-0.1,0.6-0.2,1.2-0.3,1.7
			c0.5,1.1,1.4,2,2.6,2.5l0.2,0.1V11c0-1.9,0-4.1,0-5.2h-2.9c-0.5,0-1,0-1.5,0.1h-0.1c-0.1,0-0.2-0.1-0.2-0.2
			c-0.1-0.1-0.1-0.3-0.2-0.5c0,0,0-0.1,0-0.1V5.1c0,0,0.1,0,0.1,0c0.6,0.1,1.2,0.2,1.8,0.2h6.6c0.1,0,0.2-0.1,0.3-0.2l0.9-1.1
			c0,0,0.1-0.1,0.1-0.1c0.1,0,0.1,0,0.2,0.1c0.1,0.1,0.2,0.2,0.3,0.2c0.3-0.5,0.5-1.1,0.7-1.6H21.6c0,0.2,0,0.4,0,0.7
			c0.1,0.7-0.2,1.4-0.8,1.9c-0.2,0.1-0.4,0.2-0.6,0.2c-0.5,0-0.9-0.4-0.9-0.8c0,0,0,0,0,0c0-0.2,0-0.4,0.1-0.5
			c0.5-0.9,1.4-0.8,1.5-2.6c0-0.2,0.1-0.3,0.1-0.3s0.1,0.1,0.2,0.2c0.1,0.3,0.2,0.6,0.2,0.9H26c0-0.3,0-0.6,0-0.9c0-0.3,0-0.5,0-0.8
			c0-0.2-0.1-0.4-0.1-0.6c0-0.1,0-0.1,0.1-0.1c0.1,0,0.1,0,0.2,0c0.7,0.1,1.4,0.2,2,0.3c0.2,0,0.3,0.1,0.3,0.2s-0.1,0.2-0.4,0.3
			s-0.3,0.1-0.3,0.4c0,0.4,0,0.7,0,1.1H32c0.1,0,0.3,0,0.3-0.1L33,1.7c0-0.1,0.1-0.1,0.2-0.1c0,0,0.1,0,0.2,0.1
			c0.4,0.4,1.1,0.9,1.4,1.3C34.9,3.1,35,3.3,35,3.5c0,0.2-0.2,0.4-0.5,0.4c-0.1,0-0.1,0-0.2,0H34c-0.6,0-0.9,0.3-1.8,0.9
			C32.5,5,32.7,5.2,33,5.5c0.1,0,0.1,0.1,0.1,0.2c0,0.1-0.1,0.1-0.2,0.1H28c0,0.8,0,2,0,3.4h2c0.1,0,0.2,0,0.3-0.1
			c0.2-0.2,0.6-0.8,0.9-1.1c0.1-0.1,0.1-0.1,0.3,0c0.4,0.3,1.1,0.9,1.6,1.3c0.1,0,0.1,0.1,0.1,0.2c0,0.1,0,0.1-0.2,0.1H28
			c0,1.4,0,2.9,0,3.9c0.6,0.1,1.3,0.1,2.1,0.1c1.5,0,3.1-0.1,4.7-0.2h0.1c0.2,0,0.2,0.1,0.2,0.1S35,13.6,34.9,13.7z"/>
		<path class="st0" d="M49,14.3c-1.1,0.2-2.2,0.3-3.4,0.3c-1.8,0.1-3.7-0.2-5.4-1c-1-0.6-1.6-1.6-1.6-2.7c0-1,0.4-1.9,1.2-2.4
			c0.1-0.1,0.2-0.1,0.3-0.2c0.1,0,0.1,0.1-0.1,0.3c-0.3,0.4-0.5,1-0.5,1.5c0.1,1,0.7,1.8,1.6,2.1c1,0.4,2.2,0.5,3.3,0.5
			c1.3,0,2.7-0.1,4-0.3h0.4c0.9,0,1.4,0.4,1.4,0.9S49.8,14.1,49,14.3z M47.4,4.1L47.4,4.1c-1,0-2,0.4-3.9,1.3c-0.1,0-0.1,0-0.2,0
			c0,0-0.1,0-0.1-0.1c0-0.1,0.1-0.1,0.1-0.2c0.5-0.4,0.9-0.9,1.2-1.2c0.1-0.1,0.1-0.2,0.1-0.2s0-0.1-0.2-0.1h-0.1c-0.4,0-0.7,0-1,0
			c-2.1,0-2.8-0.5-3.2-1.3C40.1,2.4,40,2.3,40,2.2c0,0,0-0.1,0.1-0.1c0.1,0,0.2,0,0.2,0.1c0.5,0.3,1.1,0.4,1.7,0.3
			c1.5,0,3.4-0.5,4.6-0.6h0.2c1.3,0,2,0.5,2,1.2S47.9,4.1,47.4,4.1z M50,7.4c-0.2,0-0.5-0.2-0.6-0.5c-0.3-0.8-0.8-1.5-1.4-2
			c-0.1-0.1-0.1-0.2-0.1-0.2s0.1-0.1,0.2-0.1h0.1c0.9,0.1,1.8,0.6,2.3,1.4c0.1,0.2,0.2,0.4,0.2,0.7C50.6,7.1,50.4,7.4,50,7.4
			C50,7.4,50,7.4,50,7.4z M51.7,6.2c-0.3,0-0.5-0.2-0.6-0.4c-0.4-0.7-1-1.3-1.7-1.8c-0.1-0.1-0.2-0.1-0.2-0.2s0.1-0.1,0.3-0.1
			c0.9,0,1.8,0.4,2.4,1.2c0.2,0.2,0.3,0.5,0.3,0.7C52.2,5.9,52,6.2,51.7,6.2C51.7,6.2,51.7,6.2,51.7,6.2L51.7,6.2z"/>
		<path class="st0" d="M62.4,8.9h-3.3c0,0.8,0,1.6,0,2.4h0.7c0.1,0,0.2,0,0.3-0.1c0.3-0.4,0.4-0.6,0.7-1c0-0.1,0.1-0.1,0.2-0.1
			c0,0,0.1,0,0.2,0.1c0.4,0.4,0.8,0.8,1.2,1.2c0.1,0.1,0.1,0.1,0.1,0.2c0,0.1-0.1,0.1-0.3,0.1h-3.1c0,1.2,0,2.3,0,3.4v0.1
			c0,0.4-0.1,0.5-0.9,0.6H58c-0.6,0-0.6-0.2-0.6-0.7c0-1.1,0-2.3,0-3.5h-0.8c-0.5,0-1.1,0-1.6,0.1l0,0.1c-0.1,0-0.2-0.1-0.2-0.2
			c-0.1-0.1-0.2-0.3-0.2-0.5c0,0,0-0.1,0-0.1v-0.1c0,0,0.1,0,0.2,0c0.6,0.2,1.2,0.2,1.8,0.2h0.8c0-0.8,0-1.7,0-2.4h-1.4
			c-0.5,0-1,0-1.5,0.1h-0.1c-0.1,0-0.2-0.1-0.2-0.1c-0.1-0.1-0.2-0.3-0.2-0.4c0,0,0-0.1,0-0.1s0-0.1,0.1-0.1c0,0,0.1,0,0.1,0
			c0.6,0.1,1.2,0.2,1.8,0.2h2.5c0.3-1,0.6-2,0.7-3c0-0.2,0-0.2,0.1-0.2h0.1c0.5,0.2,1.1,0.4,1.6,0.6c0.2,0.1,0.3,0.2,0.3,0.3
			c0,0.1-0.1,0.2-0.3,0.2s-0.3,0-0.4,0.2c-0.5,0.7-1,1.4-1.6,2h1c0.1,0,0.3,0,0.3-0.1c0.2-0.3,0.5-0.8,0.7-1
			c0.1-0.1,0.1-0.1,0.2-0.1c0.1,0,0.1,0.1,0.2,0.1c0.4,0.4,0.8,0.8,1.1,1.2c0.1,0.1,0.1,0.1,0.1,0.2C62.7,8.9,62.6,8.9,62.4,8.9z
			 M62.4,5.2h-6.3c-0.5,0-1,0-1.5,0.1h-0.1c-0.1,0-0.2-0.1-0.2-0.1L54,4.7c0,0,0-0.1,0-0.1s0-0.1,0.1-0.1h0.1
			c0.6,0.2,1.2,0.2,1.9,0.2h1.3c0-0.7,0-1.5,0-2.1h-0.6c-0.5,0-1,0-1.6,0.1h-0.1c-0.1,0-0.2-0.1-0.2-0.1c-0.1-0.1-0.1-0.3-0.2-0.5
			c0,0,0-0.1,0-0.1c0,0,0,0,0.1,0H55c0.6,0.2,1.2,0.2,1.8,0.2h0.6V1.6c0-0.3,0-0.7,0-1c0-0.2-0.1-0.3-0.1-0.5c0-0.1,0-0.1,0.1-0.1
			h0.1c0.4,0,1.2,0.2,1.8,0.3c0.2,0,0.3,0.2,0.3,0.3s-0.1,0.2-0.3,0.3S59.2,1,59.2,1.2s0,0.6,0,1h0.4c0.1,0,0.2,0,0.3-0.1
			c0.2-0.3,0.5-0.6,0.7-1c0,0,0,0,0.1,0c0.1,0,0.1,0,0.2,0.1c0.4,0.4,0.8,0.8,1.1,1.2c0.1,0.1,0.1,0.1,0.1,0.2c0,0.1,0,0.1-0.2,0.1
			h-2.7c0,0.6,0,1.3,0,2.1h1c0.1,0,0.3,0,0.3-0.1c0.2-0.3,0.5-0.8,0.7-1c0.1-0.1,0.1-0.1,0.2-0.1c0.1,0,0.1,0.1,0.2,0.1
			c0.4,0.4,0.8,0.8,1.1,1.2c0.1,0.1,0.1,0.2,0.1,0.2C62.7,5.2,62.6,5.2,62.4,5.2L62.4,5.2z M56.9,8.4c-0.4,0-0.7-0.3-0.7-0.6
			c0-0.8-0.2-1.5-0.7-2.1c0,0,0-0.1,0-0.1c0,0,0-0.1,0.1-0.1c0,0,0.1,0,0.1,0c1.1,0.4,1.9,1,2,2v0.1c0.1,0.4-0.2,0.8-0.7,0.8
			C57,8.4,57,8.4,56.9,8.4z M70,14.2c-0.5,0.3-0.7,0.7-0.7,1.5c0,0.1-0.1,0.1-0.1,0.1c-0.1,0-0.1,0-0.2-0.1
			c-0.7-0.5-1.3-1.2-1.9-1.9c-0.6,0.8-1.3,1.4-2.1,1.9c-0.1,0-0.1,0.1-0.2,0.1c-0.1,0-0.1,0-0.1-0.1c0,0,0,0,0,0
			c0-0.1,0-0.1,0.1-0.2c0.7-0.8,1.3-1.7,1.8-2.6c-0.8-1.7-1.4-3.5-1.5-5.4h-0.6c0,2.7,0,5.6,0,7.5v0.2c0,0.4-0.2,0.5-0.9,0.6h-0.2
			c-0.4,0-0.6-0.1-0.6-0.6v-0.1c0-2.8,0.1-6.6,0.1-9.7c0-1.9,0-3.5-0.1-4.6c0-0.2,0-0.4,0-0.5s0-0.1,0.1-0.1c0.1,0,0.1,0,0.2,0.1
			c0.7,0.3,1.7,0.8,1.7,0.8h2.5c0.2,0,0.2,0,0.3-0.1s0.4-0.5,0.6-0.6s0.2-0.1,0.4,0c0.3,0.2,0.9,0.6,1.1,0.9
			c0.1,0.1,0.2,0.2,0.2,0.3c0,0.1-0.1,0.2-0.3,0.3s-0.4,0.2-0.4,0.5C69.1,3,69.1,3.8,69,4.3c-0.2,0.9-0.4,1.4-2,1.6h0
			c-0.2,0-0.2-0.1-0.2-0.2c0-0.8-0.1-0.9-1.2-1.3c-0.1,0-0.2-0.1-0.2-0.2S65.5,4,65.6,4l0,0c0.6,0.1,1,0.2,1.3,0.2h0.1
			c0.2,0,0.3,0,0.4-0.4c0.1-0.6,0.1-1.2,0.1-1.9V1.7h-3.1c0,1.4,0,3.3,0,5.5h2.9c0.1,0,0.2,0,0.3-0.1c0.2-0.2,0.5-0.5,0.7-0.7
			s0.2-0.1,0.4,0C69,6.7,69.5,7,69.9,7.3C70,7.4,70,7.5,70,7.6c0,0.1-0.1,0.2-0.3,0.3s-0.4,0.2-0.4,0.4c-0.3,1.5-0.7,3-1.4,4.4
			c0.6,0.5,1.4,1,2.1,1.2c0.1,0.1,0.2,0.1,0.2,0.2S70.1,14.2,70,14.2z M65.4,7.6c0.3,1.4,0.8,2.8,1.6,4c0.4-1.3,0.7-2.6,0.7-4H65.4z
			"/>
		<path class="st0" d="M88.8,7.5H74.9c-0.5,0-1,0-1.6,0.1h-0.1c-0.1,0-0.2-0.1-0.2-0.2C73,7.3,73,7.2,72.9,7c0,0,0-0.1,0-0.1
			c0,0,0-0.1,0-0.1c0,0,0.1,0,0.1,0c0,0,0.1,0,0.1,0C73.7,7,74.4,7.1,75,7h5.3c0-1,0-2.3,0-3.4h-3.2c-0.7,1.1-1.7,2.1-2.8,2.9
			c-0.1,0-0.1,0.1-0.2,0.1c-0.1,0-0.1,0-0.1-0.1c0,0,0,0,0,0c0-0.1,0-0.1,0.1-0.2c1.2-1.6,1.9-3.5,2.2-5.4c0-0.2,0-0.2,0.1-0.2
			c0,0,0.1,0,0.1,0c0.7,0.2,1.3,0.4,2,0.7c0.1,0,0.3,0.2,0.3,0.3c0,0.1-0.1,0.2-0.4,0.2S78,2,77.9,2.1c-0.2,0.4-0.3,0.7-0.6,1.1h2.9
			c0-1.2,0-2.3,0-2.6s-0.1-0.5-0.1-0.6s0-0.1,0.1-0.1h0.2c0.7,0.1,1.4,0.2,1.9,0.3c0.2,0,0.3,0.1,0.3,0.2s-0.1,0.2-0.4,0.3
			S82.1,1,82.1,1.2c0,0.4,0,1.2,0,2h2.3c0.1,0,0.2,0,0.3-0.1C85,2.7,85.4,2.3,85.6,2c0-0.1,0.1-0.1,0.1-0.1c0.1,0,0.1,0,0.2,0.1
			c0.5,0.4,1.1,0.8,1.6,1.3c0.1,0,0.1,0.1,0.1,0.2c0,0.1-0.1,0.1-0.2,0.1H82c0,1,0,2.2,0,3.4h3.8c0.1,0,0.2,0,0.3-0.2
			C86.3,6.5,86.7,6,87,5.7c0,0,0.1-0.1,0.1-0.1c0.1,0,0.1,0,0.2,0.1c0.6,0.5,1.2,0.9,1.7,1.4c0.1,0,0.1,0.1,0.1,0.2
			C89.1,7.4,89,7.5,88.8,7.5z M86.8,10.4c-0.3,0.2-0.4,0.2-0.4,0.5s0,0.8,0,1.4c0,0.8,0,1.8,0.1,2.9v0.1c0,0.5-0.3,0.6-1,0.7h-0.1
			c-0.5,0-0.7-0.1-0.7-0.6v-0.1c0-0.2,0-0.4,0-0.6h-7c0,0.2,0,0.3,0,0.5v0.1c0,0.5-0.3,0.6-1,0.7h-0.2c-0.4,0-0.7-0.1-0.7-0.5v-0.1
			c0.1-1.1,0.1-2.4,0.1-3.6c0-0.8,0-1.6-0.2-2.3c0-0.1-0.1-0.3-0.1-0.4c0-0.1,0-0.1,0.1-0.1c0.1,0,0.2,0,0.2,0.1
			c0.7,0.3,1.9,0.9,1.9,0.9h6.4c0.1,0,0.2,0,0.3-0.1C84.7,9.4,85,9.1,85.2,9c0.1-0.1,0.2-0.1,0.2-0.1c0.1,0,0.2,0.1,0.3,0.1
			c0.4,0.2,0.8,0.6,1.1,0.8c0.1,0.1,0.2,0.2,0.2,0.3C87.1,10.2,87,10.3,86.8,10.4L86.8,10.4z M84.6,10.1h-7c0,0.6,0,1.1,0,1.7
			c0,0.8,0,1.6,0,2.4h7C84.6,12.9,84.6,11.4,84.6,10.1L84.6,10.1z"/>
		<path class="st0" d="M103,15c-0.5,0-0.9-0.2-1.2-0.6c-0.6-0.6-1.3-1.1-2-1.6c0,0.2,0,0.5,0,0.6c-0.1,1.4-1.6,2-3.2,2
			c-1.9,0-3.8-0.9-3.8-2.5l0,0c0-1.6,1.6-2.2,3.8-2.2c0.5,0,1.1,0,1.6,0.1c0-0.6-0.1-1.6-0.1-2.3h-0.3c-2.7,0-4.1-0.7-4.6-2
			c0,0,0-0.1,0-0.2c0,0,0-0.1,0.1-0.1c0.1,0,0.1,0,0.2,0.1c1.1,0.7,2.4,1,3.7,0.9c0.3,0,0.7,0,1,0c0-0.6,0-1.4,0-1.9
			c-3.2,0-4-0.8-4.4-1.9c0-0.1,0-0.1,0-0.2c0-0.1,0-0.1,0.1-0.1c0.1,0,0.1,0,0.2,0.1c0.9,0.6,2,0.8,3,0.7c0.4,0,0.8,0,1.2,0
			c0-0.4,0-0.9,0-1.2c0.1-0.7-0.3-1.5-1-1.8c-0.3-0.1-0.3-0.2,0-0.4c0.3-0.2,0.6-0.3,1-0.3c0.9,0,1.9,0.4,2,1.2c0,0.1,0,0.1,0,0.2
			c0,0.4-0.2,0.6-0.4,1.2c0,0.2-0.1,0.6-0.1,0.8c0.8-0.1,1.5-0.5,2.1-0.9h0.4c0.8,0,1.3,0.4,1.3,0.8s-0.4,0.8-1.3,1.1
			c-0.9,0.2-1.8,0.3-2.7,0.4c0,0.5-0.1,1.3-0.1,1.8c0.5-0.1,1.1-0.2,1.6-0.4c0.2,0,0.3-0.2,0.3-0.3c0-0.1,0-0.2-0.1-0.2
			c-0.1-0.2-0.2-0.4-0.4-0.5c-0.1-0.2-0.2-0.3-0.1-0.3c0.1,0,0.1,0,0.2,0.1c0.4,0.3,0.8,0.4,1.2,0.4h0.5h0.1c0.6,0,1,0.4,1,0.8
			c0,0.4-0.3,0.8-0.7,1c-1.1,0.5-2.4,0.8-3.6,0.9c0,0.9,0.1,1.8,0.3,2.7c1.3,0.4,2.5,1,3.6,1.8c0.4,0.3,0.7,0.8,0.7,1.3
			C104,14.7,103.6,15,103,15C103.1,15,103,15,103,15z M98.2,12.1c-0.8-0.4-1.8-0.6-2.7-0.6c-1.1,0-1.9,0.3-1.9,1.2l0,0
			c0,0.7,1.4,1.2,2.6,1.2c1,0,2-0.3,2-1.1L98.2,12.1z"/>
		<path class="st0" d="M120.7,3.8c-0.1,0-0.3,0-0.4,0c-0.3,0-0.6,0-0.9,0c-3.4,0-4.7,2.5-4.7,5.9c0,0.2,0,0.4,0,0.6
			c0,1.5,1.3,2.7,2.7,2.6c0.1,0,0.2,0,0.3,0h0.4c1.2,0,1.9,0.3,1.9,0.9V14c-0.1,0.7-0.7,1-1.9,1c-2.6,0-4.8-1.6-4.8-4.4v-0.3
			c0-3.1,1.4-6,4.5-7c0.2-0.1,0.2-0.1,0.2-0.2s0-0.1-0.1-0.1c-0.1,0-0.1,0-0.2,0c-2.1,0.5-4.2,1.3-6.1,2.5c-0.6,0.4-0.9,0.8-1.6,0.8
			h-0.2c-1-0.1-1.8-1-1.8-2c0-0.2,0-0.3,0.1-0.5c0-0.2,0.1-0.3,0.2-0.3s0.1,0.1,0.2,0.2c0.2,0.2,0.5,0.3,0.8,0.3
			c0.4,0,0.8-0.1,1.1-0.2c1.4-0.3,4.5-1.2,7.9-1.9c0.6-0.2,1.1-0.3,1.7-0.4c0.8-0.1,1.5,0.3,1.8,1C122,2.8,122,2.9,122,3
			C122,3.5,121.5,3.8,120.7,3.8z M121.1,8.3c-0.2,0-0.4-0.2-0.6-0.5c-0.3-0.8-0.8-1.5-1.4-2c-0.1,0-0.1-0.1-0.1-0.2
			c0,0,0-0.1,0.1-0.1h0.1c0.9,0.1,1.8,0.6,2.3,1.4c0.1,0.2,0.2,0.4,0.2,0.7C121.7,8.1,121.4,8.3,121.1,8.3z M122.8,7.1
			c-0.3,0-0.5-0.2-0.6-0.4c-0.4-0.7-1-1.3-1.7-1.8c-0.1-0.1-0.2-0.2-0.2-0.2s0.1-0.1,0.3-0.1c0.9,0,1.8,0.4,2.4,1.1
			c0.2,0.2,0.3,0.5,0.3,0.8C123.3,6.8,123.1,7.1,122.8,7.1z"/>
		<path class="st0" d="M136.1,17.1h-3.6v-17h3.6c0.1,0,0.1,0,0.1,0.2s0,0.2-0.1,0.2l-1.4,0.1c-0.4,0-0.4,0.1-0.4,0.4
			c0,1.8-0.1,4.3-0.1,7.5c0,2.5,0,5.3,0.1,7.5c0,0.4,0.1,0.4,0.4,0.5l1.4,0.1c0.1,0,0.1,0,0.1,0.2S136.2,17.1,136.1,17.1z"/>
		<path class="st0" d="M158.6,9.7h-6.9c0,2,0,4,0.1,5.5c0,0.5-0.1,0.7-1,0.7h-0.2c-0.6,0-0.7-0.2-0.7-0.6v-0.1
			c0-0.7,0.1-1.6,0.1-2.5s0-1.9,0-3h-5.2c-0.5,0-1,0-1.6,0.1H143c-0.1,0-0.1-0.1-0.2-0.2c-0.1-0.1-0.1-0.3-0.2-0.5c0,0,0-0.1,0-0.1
			c0,0,0-0.1,0.1-0.1c0,0,0.1,0,0.1,0c0.6,0.1,1.2,0.2,1.8,0.2h5.1V7.9c0-2.2,0-4.4-0.1-5.8h-4.4c-0.5,0-1,0-1.6,0.1h-0.1
			c-0.1,0-0.2-0.1-0.2-0.1c-0.1-0.1-0.1-0.3-0.2-0.5s0-0.1,0-0.1s0-0.1,0.1-0.1h0.1c0.6,0.1,1.2,0.2,1.9,0.2h9.6
			c0.1,0,0.2-0.1,0.3-0.1l0.9-1.1c0,0,0.1-0.1,0.1-0.1c0.1,0,0.1,0,0.2,0.1c0.5,0.4,1.2,1,1.6,1.4c0.1,0,0.1,0.1,0.1,0.2
			c0,0.1-0.1,0.2-0.3,0.2h-6.2c-0.1,1.8-0.1,4.5-0.1,7.2h3.9c0.1,0,0.2-0.1,0.3-0.1l0.9-1.2c0,0,0.1-0.1,0.1-0.1
			c0.1,0,0.1,0,0.2,0.1c0.5,0.4,1.2,1.1,1.6,1.5c0.1,0,0.1,0.1,0.1,0.2C158.9,9.6,158.8,9.7,158.6,9.7z M147.4,8.3
			c-0.4,0-0.7-0.2-0.9-0.8c-0.3-1.5-0.9-2.9-1.9-4c-0.1-0.1-0.1-0.2-0.1-0.2c0,0,0-0.1,0.1-0.1c0.1,0,0.2,0,0.2,0.1
			c1.6,0.6,2.8,1.9,3.4,3.5c0.1,0.2,0.1,0.3,0.1,0.5C148.5,7.7,148.1,8.2,147.4,8.3C147.5,8.3,147.5,8.3,147.4,8.3z M157.1,4.4H157
			h-0.1c-0.2,0-0.3,0.1-0.4,0.3c-0.9,1.5-2.1,2.8-3.5,3.8c-0.1,0.1-0.2,0.1-0.2,0.1c0,0-0.1,0-0.1-0.1c0-0.1,0.1-0.2,0.1-0.3
			c1-1.5,1.8-3.2,2.1-5.1c0-0.1,0-0.2,0.1-0.2c0.1,0,0.1,0,0.2,0c0.5,0.2,1.4,0.6,2,0.9c0.2,0.1,0.3,0.2,0.3,0.3
			S157.4,4.4,157.1,4.4z"/>
		<path class="st0" d="M168.2,10.3c-1.6,1.1-3.3,2.1-5.1,3c-0.2,0-0.3,0.2-0.2,0.4c0,0.4-0.3,0.5-0.5,0.2c-0.2-0.5-0.6-1.5-0.7-2
			c0-0.1,0-0.1,0-0.2c0-0.1,0-0.1,0.1-0.1h0.2c0.7-0.1,1.3-0.2,1.9-0.4c0-1.6,0.1-3.7,0.1-5.6h-0.3c-0.4,0-0.9,0-1.3,0.1h-0.1
			c-0.1,0-0.1,0-0.2-0.1c-0.1-0.1-0.1-0.3-0.2-0.4c0,0,0-0.1,0-0.1c0,0,0-0.1,0.1-0.1c0,0,0.1,0,0.1,0c0.5,0.1,1.1,0.2,1.6,0.2h0.3
			c0-1.5,0-3.1-0.2-4.6c0-0.1,0-0.2-0.1-0.2c0-0.1,0-0.1,0.2-0.1h0.1c0.6,0.1,1.3,0.1,1.9,0.3c0.2,0,0.3,0.1,0.3,0.2
			s-0.1,0.2-0.3,0.3s-0.3,0.1-0.3,0.4c0,0.7,0,2.2,0,3.7c0.2,0,0.2,0,0.3-0.1l0.7-0.9c0.1-0.1,0.2-0.1,0.3,0
			c0.3,0.3,0.8,0.8,1.1,1.2c0,0.1,0.1,0.1,0.1,0.2c0,0.1-0.1,0.1-0.2,0.1h-2.2c0,1.7,0,3.5,0,5.2c0.9-0.2,1.8-0.6,2.5-0.8
			c0,0,0.1,0,0.1,0c0.1,0,0.1,0,0.1,0.1c0,0,0,0,0,0C168.3,10.2,168.3,10.3,168.2,10.3z M177.3,3.7c-0.3,0.2-0.4,0.2-0.4,0.6
			c0,3-0.1,6-0.5,9c-0.3,1.8-0.8,2.4-2.4,2.7h-0.1c-0.2,0-0.2-0.1-0.3-0.3c-0.1-1.1-0.2-1.2-1.8-1.7c-0.1-0.1-0.2-0.1-0.2-0.2
			c0-0.1,0.1-0.2,0.2-0.2c0,0,0,0,0,0l0,0c0.6,0.1,1.3,0.2,1.9,0.2c0.5,0,0.7-0.1,0.9-0.7c0.4-2.9,0.6-5.8,0.6-8.7
			c0-0.4,0-0.8,0-1.1h-4.7c-0.7,1.5-1.7,2.9-2.9,4c0,0.1-0.1,0.1-0.2,0.1c-0.1,0-0.1-0.1-0.1-0.1c0-0.1,0-0.2,0.1-0.2
			c1.2-2.1,2-4.4,2.2-6.8V0.1c0,0,0-0.1,0.1-0.1c0,0,0,0,0,0h0.1c0.6,0.1,1.5,0.3,2.1,0.4c0.2,0.1,0.3,0.2,0.3,0.3S172,1,171.7,1
			s-0.4,0.1-0.4,0.2c-0.2,0.6-0.4,1.2-0.7,1.7h4.2c0.1,0,0.2,0,0.3-0.1c0.1-0.1,0.4-0.5,0.7-0.8s0.2-0.1,0.4,0
			c0.4,0.2,0.9,0.6,1.2,0.9c0.1,0.1,0.2,0.2,0.2,0.4C177.6,3.4,177.5,3.5,177.3,3.7z M174.8,9.5c-1.7,1.3-3.5,2.3-5.4,3.1
			c-0.1,0.1-0.2,0.2-0.2,0.4c0,0.3-0.1,0.4-0.2,0.4s-0.2-0.1-0.3-0.3c-0.2-0.4-0.5-1.3-0.7-1.8c0,0,0-0.1,0-0.1
			c0-0.1,0.2-0.1,0.4-0.1c2.2-0.4,4.3-1,6.4-1.9c0,0,0.1,0,0.1,0c0.1,0,0.1,0,0.1,0.1c0,0,0,0,0,0C174.9,9.4,174.8,9.4,174.8,9.5z
			 M174,7h-3.5c-0.4,0-0.9,0-1.3,0.1h-0.1c-0.1,0-0.1-0.1-0.2-0.1c-0.1-0.1-0.1-0.3-0.2-0.4c0,0,0-0.1,0-0.1c0-0.1,0-0.1,0.1-0.1
			h0.1c0.5,0.1,1.1,0.2,1.6,0.2h0.9c0.2,0,0.3,0,0.4-0.1c0.2-0.3,0.5-0.7,0.8-0.9c0,0,0.1,0,0.1,0c0,0,0.1,0,0.1,0
			c0.5,0.4,0.9,0.8,1.3,1.2c0,0,0.1,0.1,0.1,0.2C174.2,6.9,174.1,7,174,7z"/>
		<path class="st0" d="M209.8,2.3c-0.3,0.2-0.5,0.2-0.5,0.5c0,1,0,2.9,0,5.1c0,2.4,0,5,0.1,7.2v0.1c0,0.5-0.3,0.6-1,0.7h-0.3
			c-0.5,0-0.6-0.1-0.6-0.6v-0.1c0-0.4,0-0.7,0-1.1h-7.4c0,0.3,0,0.7,0,1c0,0.6-0.2,0.7-1,0.8H199c-0.5,0-0.7-0.1-0.7-0.6v-0.1
			c0.1-2.6,0.2-6.1,0.2-9c0.1-1.7,0-3.3-0.2-5c-0.1-0.1-0.1-0.3-0.1-0.4c0-0.1,0-0.1,0.1-0.1c0.1,0,0.1,0,0.2,0.1
			c0.7,0.3,2,0.8,2,0.8h6.5c0.1,0,0.2,0,0.3-0.1c0.2-0.2,0.6-0.5,0.8-0.7c0.1-0.1,0.3-0.1,0.4,0c0.3,0.2,0.9,0.6,1.3,0.9
			c0.1,0.1,0.2,0.2,0.3,0.4C210,2.1,209.9,2.3,209.8,2.3z M207.5,2h-7.3c0,1.3,0,3.2,0,5.2h7.4C207.5,5.2,207.5,3.3,207.5,2z
			 M200.1,7.7v1.7c0,1.4,0,2.8,0,4.4h7.4c0-2.1,0-4.1,0-6.1L200.1,7.7z"/>
		<path class="st0" d="M218.6,17.1c-0.1,0-0.1,0-0.1-0.2s0-0.2,0.1-0.2l1.4-0.1c0.4,0,0.4-0.1,0.4-0.5c0-2.2,0.1-5,0.1-7.5
			c0-3.2-0.1-5.8-0.1-7.5c0-0.4-0.1-0.4-0.4-0.4l-1.4-0.1c-0.1,0-0.1,0-0.1-0.2s0-0.2,0.1-0.2h3.6v17H218.6z"/>
		<path class="st0" d="M237.8,5.3h-2.4v1.3c1,0.4,1.8,1.3,2.1,2.4v0.1c0,0.4-0.3,0.8-0.7,0.8c0,0,0,0,0,0c-0.3,0-0.5-0.2-0.6-0.6
			c0-0.8-0.3-1.7-0.7-2.4c0,3.1,0,6.5,0.1,8.4c0,0.4-0.2,0.6-0.9,0.6h-0.2c-0.4,0-0.6-0.1-0.6-0.5v-0.1c0.1-1.6,0.1-4.1,0.1-6.6
			c-0.6,1.3-1.4,2.4-2.4,3.4c0,0-0.1,0.1-0.1,0.1c0,0-0.1,0-0.1-0.1c0,0,0,0,0,0c0,0,0-0.1,0-0.1c1.2-2.1,2-4.4,2.4-6.8h-0.3
			c-0.5,0-1,0-1.6,0.1h-0.1c-0.1,0-0.2,0-0.2-0.1l-0.2-0.5c0,0,0-0.1,0-0.1c0-0.1,0-0.1,0.1-0.1c0,0,0.1,0,0.1,0
			c0.6,0.1,1.2,0.2,1.8,0.2h0.4c0-1,0-1.8,0-2.6c-0.7,0.1-1.4,0.2-2.1,0.2h-0.1c-0.1,0-0.2,0-0.2-0.1s0.1-0.1,0.2-0.2
			c1.5-0.4,2.9-1.1,4.2-2c0.1,0,0.1-0.1,0.2-0.1c0,0,0.1,0,0.1,0.1c0.5,0.4,1,0.7,1.4,1.1c0.1,0.1,0.2,0.2,0.2,0.3
			c0,0.1-0.1,0.2-0.2,0.2c-0.1,0-0.1,0-0.2,0c-0.1,0-0.2,0-0.3,0c-0.1,0-0.2,0-0.3,0.1c-0.4,0.1-0.8,0.2-1.2,0.3v2.7h0.3
			c0.1,0,0.1-0.1,0.2-0.1c0.2-0.3,0.4-0.6,0.6-0.9c0-0.1,0.1-0.1,0.1-0.1c0.1,0,0.1,0,0.2,0.1c0.4,0.3,0.8,0.7,1.1,1.1
			c0,0,0.1,0.1,0.1,0.2C238,5.2,237.9,5.3,237.8,5.3z M247.1,15.2h-8.3c-0.5,0-1.1,0-1.6,0.1h-0.1c-0.1,0-0.2,0-0.2-0.1
			c-0.1-0.1-0.1-0.3-0.2-0.4s0-0.1,0-0.1s0-0.1,0.1-0.1c0,0,0.1,0,0.1,0c0.6,0.1,1.2,0.2,1.9,0.2h2.3c0-0.6,0-1.9,0-3.1h-1
			c-0.5,0-1,0-1.6,0.1h-0.1c-0.1,0-0.2-0.1-0.2-0.1c-0.1-0.2-0.1-0.3-0.2-0.5c0,0,0-0.1,0-0.1c0-0.1,0-0.1,0.1-0.1h0.1
			c0.6,0.1,1.2,0.2,1.8,0.2h1v-0.9c0-0.7,0-1.3,0-1.7h-1.6c-0.5,0-1.1,0-1.6,0.1h-0.1c-0.1,0-0.2-0.1-0.2-0.1
			c-0.1-0.1-0.1-0.3-0.2-0.4c0,0,0-0.1,0-0.1c0-0.1,0-0.1,0.1-0.1c0,0,0.1,0,0.1,0c0.6,0.2,1.2,0.2,1.9,0.2h4.8c0.1,0,0.3,0,0.3-0.1
			c0.2-0.3,0.6-0.8,0.8-1.1c0.1-0.1,0.2-0.1,0.3,0c0.5,0.4,0.9,0.8,1.4,1.3c0,0,0.1,0.1,0.1,0.2c0,0.1-0.1,0.1-0.2,0.1h-4.1v2.7h1.1
			c0.1,0,0.2,0,0.3-0.1c0.2-0.3,0.5-0.6,0.7-1c0.1-0.1,0.2-0.1,0.3,0c0.5,0.4,0.9,0.8,1.3,1.2c0,0,0.1,0.1,0.1,0.2
			c0,0.1-0.1,0.1-0.2,0.1h-3.5v1.1c0,0.9,0,1.6,0,2.1h1.4c0.1,0,0.2,0,0.3-0.1c0.2-0.2,0.6-0.8,0.9-1.1c0.1-0.1,0.1-0.1,0.1-0.1
			c0.1,0,0.1,0,0.2,0.1c0.5,0.4,1,0.9,1.5,1.4c0.1,0,0.1,0.1,0.1,0.2C247.3,15.1,247.3,15.2,247.1,15.2L247.1,15.2z M246.1,2
			c-0.3,0.2-0.4,0.2-0.4,0.4c0,1.2,0,2.3,0,3.8v0.1c0,0.4-0.2,0.5-0.9,0.6h-0.2c-0.4,0-0.6-0.1-0.6-0.5V6h-3.8v0.3
			c0,0.4-0.3,0.5-0.9,0.6h-0.2c-0.4,0-0.7-0.1-0.7-0.4V6.3c0.1-1,0.1-2.4,0.1-3.5c0-0.6,0-1.2-0.1-1.8c0-0.1-0.1-0.2-0.1-0.3
			c0-0.1,0-0.1,0.1-0.1h0.2c0.6,0.2,1.8,0.8,1.8,0.8h3.3c0.1,0,0.2,0,0.3-0.1l0.6-0.6c0-0.1,0.1-0.1,0.2-0.1c0.1,0,0.1,0,0.2,0.1
			c0.4,0.2,0.8,0.5,1.1,0.8c0.1,0.1,0.2,0.2,0.2,0.3C246.3,1.8,246.2,1.9,246.1,2z M244.1,1.8h-3.8c0,0.7,0,1.5,0,2.5v1.3h3.8
			c0-0.8,0-1.7,0-2.4C244.1,2.7,244,2.2,244.1,1.8L244.1,1.8z"/>
		<path class="st0" d="M265.9,2.5h-12.7v2.2h2.6c0-0.4,0-0.8,0-1.2c0-0.3-0.1-0.4-0.1-0.5s0-0.1,0.1-0.1h0.1c0.5,0,1.1,0.2,1.8,0.3
			c0.2,0,0.3,0.1,0.3,0.2s-0.1,0.2-0.4,0.3s-0.2,0.2-0.2,0.4s0,0.3,0,0.6h3.5c0-0.5,0-1,0-1.2S260.7,3,260.7,3s0-0.1,0.1-0.1h0.1
			c0.5,0,1.1,0.2,1.8,0.3c0.2,0,0.3,0.1,0.3,0.2s-0.1,0.2-0.4,0.3s-0.2,0.2-0.2,0.4s0,0.4,0,0.6h0.9c0.1,0,0.2-0.1,0.3-0.1
			c0.2-0.2,0.4-0.6,0.7-0.9c0,0,0.1-0.1,0.1-0.1c0.1,0,0.1,0,0.2,0.1c0.4,0.3,1.1,0.9,1.4,1.1s0.1,0.3-0.2,0.3h-3.5
			c0,0.8,0,1.7,0,2.6v0c0,0.4-0.2,0.5-0.9,0.6h-0.3c-0.4,0-0.5-0.1-0.5-0.4V7.8c0,0,0-0.1,0-0.2h-3.4V8c0,0.4-0.2,0.5-0.9,0.6h-0.2
			c-0.4,0-0.6-0.1-0.6-0.4v0c0.1-0.5,0.1-1.4,0.1-2.2V5.1h-2.6c0,1.6-0.1,3.4-0.2,4.7c-0.3,2.2-1.2,4.2-2.5,5.9
			c-0.1,0.1-0.2,0.2-0.3,0.2c0,0-0.1,0-0.1-0.1c0-0.1,0-0.2,0.1-0.3c0.7-1.9,1.2-3.9,1.3-5.9c0.1-1,0.1-2.7,0.1-4.3
			c0-1.2,0-2.5-0.1-3.7c0-0.2-0.1-0.3-0.1-0.4s0-0.1,0.1-0.1c0.1,0,0.1,0,0.2,0c0.5,0.2,1.2,0.6,1.8,1h4.4c0-0.2,0-0.4,0-0.5
			c0-0.3,0-0.6-0.1-0.9c0-0.2-0.1-0.3-0.1-0.5c0-0.1,0-0.1,0.1-0.1c0,0,0.1,0,0.1,0c0.6,0.1,1.2,0.2,1.8,0.3c0.3,0,0.4,0.2,0.4,0.3
			s-0.1,0.2-0.4,0.3s-0.2,0.2-0.2,0.5V2h3.6c0.1,0,0.2,0,0.3-0.1c0.3-0.3,0.6-0.7,0.9-1.1c0-0.1,0.1-0.1,0.2-0.1
			c0.1,0,0.1,0,0.2,0.1c0.6,0.5,1.1,0.9,1.5,1.3c0.1,0,0.1,0.1,0.1,0.2C266.1,2.4,266.1,2.5,265.9,2.5z M266,14.1
			c-0.6,0.2-1,0.8-1,1.5c0,0.2-0.1,0.2-0.2,0.2h-0.1c-1.9-0.3-3.7-1-5.4-2c-2.3,1.1-4.7,1.7-7.2,2H252c-0.2,0-0.2-0.1-0.2-0.1
			s0.1-0.2,0.3-0.2c2.2-0.5,4.3-1.3,6.1-2.5c-1-0.9-1.8-2-2.4-3.2h-0.9c-0.3,0-0.6,0-0.9,0.1H254c-0.1,0-0.1-0.1-0.2-0.1
			c-0.1-0.1-0.1-0.3-0.2-0.5c0,0,0-0.1,0-0.1c0,0,0,0,0.1,0c0,0,0.1,0,0.1,0c0.6,0.1,1.2,0.2,1.8,0.2h5.6c0.1,0,0.2,0,0.2-0.1
			c0.2-0.2,0.5-0.5,0.7-0.6c0-0.1,0.1-0.1,0.2-0.1c0.1,0,0.2,0,0.2,0.1c0.4,0.3,1,0.7,1.4,1c0.1,0.1,0.2,0.2,0.2,0.4
			c0,0.1-0.1,0.3-0.4,0.3c-0.4,0.1-0.5,0.1-0.7,0.3c-0.8,0.9-1.6,1.7-2.5,2.4c1.7,0.5,3.4,0.7,5.1,0.7h0.3c0.1,0,0.2,0.1,0.2,0.2
			S266.1,14.1,266,14.1L266,14.1z M256.2,9.8c0.8,1.1,1.7,1.9,2.9,2.6c0.9-0.7,1.7-1.6,2.3-2.6H256.2z M260.8,5.1h-3.5
			c0,0.7,0,1.4,0,2.2h3.4c0-0.5,0-1,0-1.6L260.8,5.1z"/>
		<path class="st0" d="M272.6,14.8c-0.7,0-1.2-0.6-1.2-1.2c0-0.7,0.6-1.2,1.2-1.2c0.7,0,1.2,0.6,1.2,1.2
			C273.8,14.3,273.3,14.8,272.6,14.8z M273.3,6.5c-0.2,1.5-0.3,2.8-0.5,4.5c0,0.2-0.1,0.4-0.3,0.4s-0.3-0.1-0.3-0.4
			c-0.1-1.7-0.3-3-0.5-4.5c-0.2-1.9-0.3-3.1-0.4-4.2V2.2c-0.1-0.6,0.4-1.2,1-1.2c0.6-0.1,1.2,0.4,1.2,1c0,0.1,0,0.1,0,0.2v0.1
			C273.6,3.4,273.5,4.7,273.3,6.5z"/>
		<path class="st1" d="M47,39.5l-0.4,0.4l-5.3-5.3L36.1,40l-0.4-0.4l5.3-5.3L35.7,29l0.4-0.4l5.2,5.2l5.2-5.2L47,29l-5.2,5.2
			L47,39.5z M38.6,34.3c0,0.6-0.4,1-1,1c0,0,0,0-0.1,0c-0.6,0-1-0.4-1-1s0.4-1,1-1C38.1,33.3,38.6,33.7,38.6,34.3z M42.4,30.5
			c0,0.6-0.4,1-1,1s-1-0.4-1-1s0.4-1,1-1C41.9,29.5,42.4,29.9,42.4,30.5C42.4,30.5,42.4,30.5,42.4,30.5z M42.4,38.1c0,0.6-0.5,1-1,1
			s-1-0.5-1-1s0.5-1,1-1S42.4,37.5,42.4,38.1z M46.1,34.3c0,0.6-0.4,1-1,1s-1-0.4-1-1c0-0.5,0.5-1,1-1
			C45.7,33.3,46.1,33.7,46.1,34.3C46.2,34.3,46.2,34.3,46.1,34.3z"/>
		<path class="st2" d="M54,35.9c0.1-0.1,0.2-0.1,0.2,0c0.7,1,1.3,2,1.8,3.1c0,0.1,0,0.1-0.1,0.2l-0.4,0.2c-0.2,0.1-0.2,0.1-0.2,0
			c-0.2-0.4-0.3-0.8-0.6-1.2c-1.2,0.5-2.5,0.9-3.8,1.3c-0.2,0-0.3,0.1-0.5,0.2c-0.1,0-0.1,0.1-0.2,0.1s-0.1-0.1-0.2-0.1
			c-0.1-0.3-0.2-0.5-0.3-0.8c0.3,0,0.7-0.1,1.1-0.2v-7.3c0-1.5,0-2.2,0-2.3s0-0.1,0.1-0.1s0.5,0,1.5,0h1.6c1,0,1.3,0,1.4,0
			s0.1,0,0.1,0.1s0,0.5,0,1.5v2.8c0,1,0,1.4,0,1.5s0,0.1-0.1,0.1s-0.4,0-1.4,0h-2.4v3.6c0.9-0.2,1.8-0.5,2.7-0.9
			c-0.2-0.4-0.5-0.8-0.8-1.2c-0.1-0.1,0-0.1,0.1-0.2L54,35.9z M54.8,29.6h-3.1v1.9h3.1V29.6z M54.8,32.2h-3.1v1.9h3.1V32.2z
			 M61.6,34.7c0,1,0,1.5,0,1.9c0,0.4-0.1,0.8-0.3,1.2c-0.3,0.4-0.6,0.5-2,0.5c-0.3,0-0.3,0-0.3-0.3c0-0.2-0.1-0.5-0.2-0.7
			c0.4,0,0.8,0.1,1.2,0.1c0.6,0,0.8-0.2,0.8-0.8v-6.8h-2.9V38c0,1.7,0,2.4,0,2.5s0,0.1-0.1,0.1H57c-0.1,0-0.1,0-0.1-0.1s0-0.8,0-2.7
			v-6.2c0-1.8,0-2.6,0-2.7s0-0.1,0.1-0.1s0.4,0,1.4,0H60c1,0,1.4,0,1.4,0s0.1,0,0.1,0.1s0,0.7,0,2.1L61.6,34.7z"/>
		<path class="st2" d="M74.6,35.2c0,4,0,4.7,0,4.8s0,0.1-0.1,0.1h-0.7c-0.1,0-0.1,0-0.1-0.1v-0.8h-6.4V40c0,0.1,0,0.1-0.1,0.1h-0.7
			c-0.1,0-0.1,0-0.1-0.1s0-0.8,0-4.8v-2.7c0-2.7,0-3.5,0-3.5s0-0.1,0.1-0.1s0.6,0,2,0h4.2c1.4,0,1.9,0,2,0s0.1,0,0.1,0.1
			s0,0.8,0,3.2L74.6,35.2z M73.7,29.7h-6.5v3.8h6.5L73.7,29.7z M73.7,34.3h-6.5v4.1h6.5L73.7,34.3z"/>
		<path class="st2" d="M86.1,34.3c0,0.6-0.5,1.2-1.2,1.2c-0.6,0-1.2-0.5-1.2-1.2c0-0.6,0.5-1.2,1.2-1.2
			C85.5,33.1,86.1,33.6,86.1,34.3z"/>
		<path class="st2" d="M105.6,39.8c0,0.1,0,0.1-0.1,0.1s-0.5,0-1.9,0h-8.1c-1.3,0-1.8,0-1.8,0s-0.1,0-0.1-0.1v-0.6
			c0-0.1,0-0.1,0.1-0.1s0.5,0,1.8,0h5.1c0.3-0.6,0.6-1.2,0.8-1.8c0.1-0.2,0.1-0.5,0.1-0.7c0.3,0,0.6,0.1,0.9,0.2
			c0.1,0,0.2,0.1,0.2,0.2c0,0.1,0,0.1-0.1,0.2c-0.1,0.1-0.2,0.2-0.2,0.4c-0.2,0.6-0.5,1.1-0.8,1.6h2.1c1.3,0,1.8,0,1.9,0
			s0.1,0,0.1,0.1L105.6,39.8z M97.4,28.7c1.2,0,1.5,0,1.6,0s0.1,0,0.1,0.1s0,0.3,0,1v1.8c0,0.6,0,1.2,0,1.5s-0.1,0.7-0.3,0.9
			s-0.5,0.2-1.6,0.2c-0.2,0-0.2,0-0.3-0.3c-0.1-0.2-0.1-0.4-0.2-0.5c0.3,0,0.6,0,1,0c0.6,0,0.7-0.1,0.7-0.5v-3.4h-3
			c-1.2,0-1.5,0-1.6,0s-0.1,0-0.1-0.1v-0.5c0-0.1,0-0.1,0.1-0.1s0.4,0,1.6,0L97.4,28.7z M97.5,32c0,0.3,0,0.3-0.2,0.4
			c-0.8,0.4-1.7,0.8-2.5,1.2c-0.2,0.1-0.3,0.1-0.5,0.3c0,0.1-0.1,0.1-0.2,0.1c-0.1,0-0.1,0-0.1-0.1c-0.1-0.2-0.2-0.5-0.3-0.7
			c0.4-0.1,0.8-0.2,1.2-0.3c0.9-0.3,1.8-0.8,2.7-1.3C97.5,31.7,97.5,31.8,97.5,32L97.5,32z M94.8,30c0.1-0.1,0.1-0.1,0.2-0.1
			c0.5,0.3,1,0.6,1.5,1c0.1,0.1,0.1,0.1,0,0.2l-0.3,0.3c-0.1,0.1-0.1,0.1-0.2,0.1c-0.4-0.4-0.9-0.7-1.5-1c-0.1,0-0.1-0.1,0-0.2
			L94.8,30z M104.5,36.1c0,0.1,0,0.1-0.1,0.1s-0.6,0-2,0h-5.7c-1.4,0-1.9,0-2,0s-0.1,0-0.1-0.1v-0.6c0-0.1,0-0.1,0.1-0.1s0.6,0,2,0
			h2.4v-0.3c0-0.4,0-0.7-0.1-1.1c0.3,0,0.6,0,0.9,0.1c0.1,0,0.2,0.1,0.2,0.1c0,0.1,0,0.2-0.1,0.3c-0.1,0.2-0.1,0.4-0.1,0.6v0.3h2.4
			c1.4,0,1.9,0,2,0s0.1,0,0.1,0.1L104.5,36.1z M97.1,36.6c0.1,0,0.2,0,0.2,0.1c0.3,0.6,0.6,1.2,0.7,1.8c0,0.1,0,0.1-0.1,0.2
			l-0.4,0.1c-0.2,0.1-0.2,0.1-0.2-0.1c-0.1-0.6-0.4-1.3-0.7-1.8c0-0.1,0-0.1,0.1-0.2L97.1,36.6z M105.1,31.6c0,0.6,0,1.2,0,1.5
			c0,0.3-0.1,0.6-0.3,0.9c-0.2,0.2-0.5,0.2-1.5,0.2c-0.3,0-0.3,0-0.3-0.2c-0.1-0.2-0.1-0.4-0.2-0.6c0.3,0,0.7,0,0.9,0
			c0.6,0,0.7-0.1,0.7-0.5v-3.5h-2.8c-1.2,0-1.5,0-1.6,0s-0.1,0-0.1-0.1v-0.5c0-0.1,0-0.1,0.1-0.1s0.4,0,1.6,0h2c1.1,0,1.5,0,1.6,0
			s0.1,0,0.1,0.1s0,0.3,0,1L105.1,31.6z M103.4,32.4c-0.8,0.4-1.6,0.7-2.4,1.1c-0.2,0.1-0.4,0.2-0.5,0.3c-0.1,0-0.1,0.1-0.2,0.1
			s-0.1,0-0.1-0.1c-0.1-0.2-0.2-0.5-0.3-0.7c0.4-0.1,0.8-0.2,1.3-0.4c0.9-0.3,1.7-0.7,2.5-1.1c0,0.2,0,0.3,0,0.5
			C103.6,32.2,103.6,32.2,103.4,32.4L103.4,32.4z M100.7,30c0.1-0.1,0.1-0.1,0.2-0.1c0.5,0.3,1.1,0.6,1.5,1c0.1,0,0,0.1,0,0.2
			l-0.2,0.3c-0.1,0.1-0.2,0.1-0.3,0.1c-0.4-0.4-1-0.8-1.5-1.1c-0.1,0-0.1-0.1,0-0.2L100.7,30z"/>
		<path class="st2" d="M118.2,35.2c0,4,0,4.7,0,4.8s0,0.1-0.1,0.1h-0.7c-0.1,0-0.1,0-0.1-0.1v-0.8h-6.5V40c0,0.1,0,0.1-0.1,0.1H110
			c-0.1,0-0.1,0-0.1-0.1s0-0.8,0-4.8v-2.7c0-2.7,0-3.5,0-3.5s0-0.1,0.1-0.1s0.6,0,1.9,0h4.2c1.4,0,1.9,0,1.9,0s0.1,0,0.1,0.1
			s0,0.8,0,3.2L118.2,35.2z M117.3,29.7h-6.5v3.8h6.5V29.7z M117.3,34.3h-6.5v4.1h6.5V34.3z"/>
		<path class="st2" d="M129,30.8c-0.2,2.1-0.8,4.2-1.8,6.1c-0.3,0.8-1.2,1.4-2.1,1.4c-1,0-2-1.2-2-3.2c0-1.4,0.6-2.7,1.6-3.6
			c1.1-1,2.7-1.6,4.2-1.5c3.1,0,5,1.8,5,4.5c0,2.3-1.4,4.1-4.4,4.9c-0.1,0.1-0.3,0-0.4-0.2c-0.1-0.2-0.3-0.4-0.5-0.5
			c2.8-0.5,4.4-2,4.4-4.4c0-1.9-1.5-3.5-3.5-3.5c-0.1,0-0.1,0-0.2,0L129,30.8z M125.3,32.1c-0.8,0.8-1.3,1.9-1.3,3
			c0,1.5,0.6,2.2,1.1,2.2s0.9-0.3,1.3-1c0.9-1.7,1.4-3.6,1.6-5.5C127,30.9,126,31.4,125.3,32.1L125.3,32.1z"/>
		<path class="st2" d="M148.6,35.3c0,4.3,0,5.1,0,5.2s0,0.1-0.1,0.1h-0.7c-0.1,0-0.1,0-0.1-0.1v-0.8h-9.3v0.8c0,0.1,0,0.1-0.1,0.1
			h-0.7c-0.1,0-0.1,0-0.1-0.1s0-0.9,0-5.2v-2.8c0-2.8,0-3.6,0-3.7s0-0.1,0.1-0.1s0.6,0,1.9,0h7c1.4,0,1.9,0,1.9,0s0.1,0,0.1,0.1
			s0,0.9,0,3.3L148.6,35.3z M147.7,29.5h-9.3v9.5h9.3V29.5z M145.5,34.7c0,1.8,0,2.1,0,2.2s0,0.1-0.1,0.1h-0.6c-0.1,0-0.1,0-0.1-0.1
			v-0.5h-3.3v0.5c0,0.1,0,0.1-0.1,0.1h-0.6c-0.1,0-0.1,0-0.1-0.1s0-0.4,0-2.2v-1.4c0-1,0-1.4,0-1.5s0-0.1,0.1-0.1s0.4,0,1.5,0h1.7
			c1.1,0,1.4,0,1.5,0s0.1,0,0.1,0.1s0,0.4,0,1.4V34.7z M144.7,32.5h-3.3v3.2h3.3V32.5z"/>
		<path class="st2" d="M158.2,31.9c1.7,1.6,3.8,2.6,6.1,3c-0.2,0.2-0.3,0.3-0.4,0.6c-0.1,0.2-0.1,0.2-0.4,0.2
			c-2.2-0.6-4.2-1.7-5.9-3.3c-1.6,1.5-3.5,2.7-5.6,3.3c-0.3,0.1-0.3,0.1-0.4-0.2c-0.1-0.2-0.2-0.4-0.4-0.5c2.1-0.5,4-1.6,5.7-3
			c0.2-0.2,0.3-0.4,0.5-0.6c0.3,0,0.5,0.1,0.8,0.2c0.1,0,0.2,0.1,0.2,0.2S158.3,31.9,158.2,31.9L158.2,31.9z M157.5,30
			c0,0.1,0,0.1-0.1,0.1s-0.4,0-1.4,0h-0.6c0.3,0.5,0.6,1,0.8,1.6c0,0.1,0,0.1-0.1,0.2l-0.4,0.1c-0.2,0.1-0.2,0.1-0.3,0
			c-0.2-0.6-0.4-1.3-0.8-1.8h-1c-0.4,0.6-0.8,1.1-1.3,1.5c-0.1,0.1-0.1,0.1-0.2,0.1s-0.1,0-0.2-0.1c-0.1-0.1-0.3-0.2-0.4-0.3
			c0.9-0.8,1.5-1.7,2-2.8c0.1-0.2,0.2-0.4,0.2-0.7c0.3,0.1,0.6,0.1,0.8,0.2c0.1,0,0.1,0.1,0.1,0.2c0,0,0,0.1-0.1,0.2
			s-0.1,0.1-0.2,0.3s-0.2,0.4-0.3,0.6h2c1,0,1.4,0,1.4,0s0.1,0,0.1,0.1L157.5,30z M161.7,38.3c0,1.6,0,1.9,0,2s0,0.1-0.1,0.1H161
			c-0.1,0-0.1,0-0.1-0.1v-0.5h-6.2v0.6c0,0.1,0,0.1-0.1,0.1h-0.6c-0.1,0-0.1,0-0.1-0.1s0-0.3,0-2v-0.8c0-0.8,0-1.1,0-1.2
			s0-0.1,0.1-0.1s0.6,0,1.9,0h3.9c1.4,0,1.8,0,1.9,0s0.1,0,0.1,0.1s0,0.4,0,1L161.7,38.3z M160.9,37.1h-6.2v2h6.2V37.1z M160.4,35.1
			c0,0.1,0,0.1-0.1,0.1s-0.4,0-1.6,0h-1.9c-1.1,0-1.5,0-1.6,0s-0.1,0-0.1-0.1v-0.6c0-0.1,0-0.1,0.1-0.1s0.4,0,1.6,0h1.9
			c1.1,0,1.5,0,1.6,0s0.1,0,0.1,0.1L160.4,35.1z M163.9,30c0,0.1,0,0.1-0.1,0.1s-0.5,0-1.7,0h-1.1c0.3,0.5,0.5,1,0.7,1.6
			c0,0.1,0,0.1-0.1,0.2L161,32c-0.2,0-0.2,0-0.2-0.1c-0.2-0.6-0.4-1.2-0.8-1.8h-1.2c-0.2,0.4-0.5,0.7-0.7,1
			c-0.1,0.1-0.1,0.1-0.2,0.1s-0.1,0-0.2-0.1c-0.1-0.1-0.3-0.2-0.4-0.3c0.6-0.6,1.1-1.4,1.4-2.3c0.1-0.2,0.1-0.4,0.1-0.6
			c0.3,0,0.5,0.1,0.8,0.2c0.1,0,0.1,0.1,0.1,0.1s-0.1,0.1-0.1,0.2c-0.1,0.1-0.1,0.2-0.2,0.4c-0.1,0.2-0.1,0.3-0.2,0.5h2.8
			c1.2,0,1.6,0,1.7,0s0.1,0,0.1,0.1L163.9,30z"/>
		<path class="st2" d="M170,37.2c0,1.4,0.8,1.9,2.2,1.9s2.8-0.7,2.8-2.1c0-1-0.5-1.9-1.3-2.5c0.3,0,0.6,0,0.9-0.1c0.1,0,0.2,0,0.2,0
			c0.7,0.6,1.2,1.6,1.2,2.6c0,1.9-1.6,3-3.6,3c-2.2,0-3.2-1-3.2-2.8c0-0.5,0.1-1.1,0.1-1.7c-0.8-0.1-1.5-0.2-2.2-0.4
			c-0.1,0-0.1,0-0.1-0.2c0-0.3,0-0.5,0-0.8c0.8,0.3,1.6,0.5,2.5,0.5c0.1-0.9,0.2-1.7,0.3-2.4c-0.8-0.1-1.6-0.2-2.4-0.5
			c-0.1,0-0.1,0-0.1-0.2s0-0.5,0-0.8c0.9,0.3,1.8,0.5,2.7,0.5c0.1-0.8,0.1-1.1,0.2-1.7c0.1-0.4,0.1-0.8,0-1.2
			c0.4,0.1,0.7,0.2,1.1,0.3c0.1,0.1,0.2,0.1,0.2,0.2c0,0.1,0,0.1-0.1,0.2c-0.2,0.2-0.2,0.4-0.3,0.7c-0.1,0.5-0.2,1-0.2,1.5
			c0.7,0.1,1.3,0.1,2,0c0.1,0,0.1,0,0.1,0.1s0,0.4,0,0.6s-0.1,0.1-0.1,0.1c-0.7,0-1.3,0-2,0c-0.1,0.7-0.2,1.5-0.4,2.4
			c0.8,0.1,1.5,0.1,2.3,0c0.1,0,0.2,0,0.2,0.1s0,0.5,0,0.6s0,0.2-0.1,0.2c-0.8,0-1.6,0-2.4,0C170.1,36.1,170,36.8,170,37.2z"/>
		<path class="st2" d="M191.3,29.6c0,0.1,0,0.1-0.1,0.1s-0.5,0-1.6,0v6.6c0,1.5,0,2.1,0,2.6s-0.1,0.9-0.4,1.1
			c-0.8,0.3-1.6,0.4-2.4,0.3c-0.3,0-0.3,0-0.3-0.3c-0.1-0.2-0.2-0.4-0.3-0.6c0.4,0,1.1,0.1,1.7,0.1s0.8-0.1,0.8-0.5v-9.2h-7.6
			c-1.3,0-1.8,0-1.8,0s-0.1,0-0.1-0.1V29c0-0.1,0-0.1,0.1-0.1s0.5,0,1.8,0h8.2c1.3,0,1.8,0,1.8,0s0.1,0,0.1,0.1L191.3,29.6z
			 M186,34.8c0,2.1,0,2.4,0,2.5s0,0.1-0.1,0.1h-0.6c-0.1,0-0.1,0-0.1-0.1v-0.7h-3.3v1.1c0,0.1,0,0.1-0.1,0.1h-0.6
			c-0.1,0-0.1,0-0.1-0.1s0-0.4,0-2.6v-1.4c0-1.3,0-1.7,0-1.8s0-0.1,0.1-0.1s0.4,0,1.5,0h1.9c1.1,0,1.4,0,1.5,0s0.1,0,0.1,0.1
			s0,0.4,0,1.4L186,34.8z M185.2,32.6h-3.4v3.2h3.4L185.2,32.6z"/>
		<path class="st2" d="M198.2,29.3c0.1-0.1,0.1,0,0.2,0c0.6,0.7,1.1,1.5,1.5,2.3c0.1,0.1,0,0.1-0.1,0.2l-0.4,0.2
			c-0.1,0-0.1,0.1-0.2,0.1c0,0-0.1,0-0.1-0.1c-0.1-0.2-0.2-0.5-0.4-0.7c-1.3,0.2-2.7,0.4-4.3,0.6c-0.2,0-0.4,0.1-0.6,0.2
			c0,0-0.1,0.1-0.2,0c0,0-0.1,0-0.1-0.2c-0.1-0.3-0.1-0.5-0.2-0.8c0.4,0,0.9,0,1.2,0c0.4-0.7,0.7-1.4,1.1-2.2c0.1-0.3,0.2-0.7,0.3-1
			c0.3,0,0.5,0.1,0.8,0.2c0.1,0,0.2,0.1,0.2,0.2c0,0.1-0.1,0.2-0.1,0.2c-0.1,0.1-0.2,0.2-0.2,0.4c-0.3,0.6-0.7,1.4-1.1,2.1
			c1-0.1,2-0.2,2.9-0.4c-0.2-0.3-0.5-0.7-0.7-1c-0.1-0.1,0-0.1,0.1-0.2L198.2,29.3z M199.2,37.3c0,0.8,0,1.5,0,1.8s0,0.7-0.3,0.9
			s-0.4,0.3-1.4,0.3c-0.3,0-0.3,0-0.4-0.3c0-0.2-0.1-0.4-0.2-0.5c0.3,0,0.6,0.1,0.9,0.1c0.5,0,0.6-0.1,0.6-0.6v-1.6h-3v1.2
			c0,1.2,0,1.7,0,1.7s0,0.1-0.1,0.1h-0.6c-0.1,0-0.1,0-0.1-0.1s0-0.5,0-1.7v-4c0-1.2,0-1.7,0-1.8s0-0.1,0.1-0.1s0.4,0,1.4,0h1.5
			c1,0,1.4,0,1.4,0s0.1,0,0.1,0.1s0,0.6,0,1.8L199.2,37.3z M198.5,33.5h-3v1.3h3V33.5z M198.5,35.5h-3v1.3h3V35.5z M201.5,32.4
			c0,0.4,0.1,0.5,0.4,0.6c0.4,0.1,0.9,0.1,1.4,0.1c0.6,0.1,1.2,0,1.7-0.3c0.2-0.2,0.3-0.5,0.3-1.3c0.2,0.1,0.3,0.2,0.5,0.3
			c0.2,0.1,0.2,0.1,0.2,0.3c-0.1,0.8-0.2,1-0.5,1.3c-0.7,0.3-1.5,0.5-2.3,0.4c-0.7,0-1.3,0-2-0.2c-0.3-0.1-0.5-0.3-0.5-0.9v-3.1
			c0-0.5,0-1-0.1-1.4c0.3,0,0.6,0,0.9,0.1c0.1,0,0.2,0.1,0.2,0.1c0,0.1,0,0.2-0.1,0.2c-0.1,0.1-0.1,0.2-0.1,1v1
			c0.9-0.3,1.7-0.7,2.6-1.2c0.3-0.1,0.5-0.3,0.7-0.6c0.2,0.2,0.4,0.3,0.6,0.5c0.1,0.1,0.1,0.1,0.1,0.2s-0.1,0.1-0.2,0.1
			c-0.2,0.1-0.4,0.2-0.6,0.3c-1,0.5-2.1,1-3.2,1.3L201.5,32.4z M201.5,38.8c0,0.3,0.1,0.5,0.4,0.6c0.5,0.1,1,0.2,1.4,0.1
			c0.6,0,1.1-0.1,1.6-0.3c0.3-0.2,0.3-0.6,0.4-1.4c0.2,0.1,0.4,0.2,0.6,0.3c0.2,0.1,0.2,0.1,0.2,0.3c0,0.5-0.2,1-0.6,1.3
			c-0.7,0.3-1.4,0.5-2.2,0.4c-0.7,0.1-1.4,0-2.1-0.2c-0.3-0.1-0.5-0.4-0.5-1v-3.3c0-0.5,0-1-0.1-1.4c0.3,0,0.6,0,0.9,0.1
			c0.1,0,0.2,0,0.2,0.1c0,0.1,0,0.2-0.1,0.2c-0.1,0.3-0.1,0.6-0.1,0.9v0.9c0.9-0.3,1.8-0.7,2.7-1.2c0.3-0.1,0.5-0.3,0.7-0.6
			c0.2,0.2,0.4,0.3,0.6,0.5c0.1,0.1,0.1,0.2,0.1,0.2s-0.1,0.1-0.2,0.1c-0.2,0-0.4,0.1-0.6,0.3c-1.1,0.6-2.2,1-3.3,1.4L201.5,38.8z"
			/>
		<path class="st2" d="M216,30.9c-2.1,0.3-3.9,0.6-5.7,1c-0.3,0-0.6,0.1-0.8,0.2c-0.1,0-0.2,0.1-0.3,0.1c-0.1,0-0.2,0-0.2-0.1
			c-0.2-0.3-0.3-0.7-0.4-1c0.6,0,1.2-0.1,1.7-0.2c2.1-0.3,4.9-0.8,8.7-1.2c0.1,0,0.2,0,0.2,0.1c0,0.2,0.1,0.5,0.1,0.7
			c0,0.1,0,0.1-0.2,0.2c-0.7,0-1.4,0.2-2,0.4c-2,0.8-3.6,2.5-3.6,4.4c0,2.3,2,3,4.1,3.2c0.2,0,0.2,0,0.2,0.2c0,0.2,0,0.5-0.1,0.7
			c0,0.2-0.1,0.2-0.2,0.2c-2.4-0.2-4.9-1.2-4.9-4C212.7,33.8,213.9,32.2,216,30.9L216,30.9z M217.7,32.9c0,0,0.1,0,0.1,0
			c0.6,0.5,1.2,1,1.6,1.7c0,0,0,0.1,0,0.1c0,0,0,0,0,0l-0.4,0.3c0,0-0.1,0.1-0.2,0c0,0,0,0,0,0c-0.4-0.7-1-1.3-1.6-1.8L217.7,32.9z
			 M218.9,32c0.1,0,0.1-0.1,0.2,0c0.6,0.5,1.1,1,1.6,1.6c0.1,0.1,0,0.1,0,0.2l-0.4,0.3c-0.1,0-0.1,0-0.2,0c-0.4-0.7-1-1.3-1.6-1.8
			L218.9,32z"/>
		<path class="st2" d="M234.7,31.3c0,0.1-0.1,0.1-0.2,0.1c-1.5,0-2.9-0.1-4.4,0c0,0.9,0,1.8,0,2.8c0.1,0.5,0.2,1,0.2,1.5
			c0,1.8-1,3.5-2.7,4.3c-0.1,0.1-0.2,0.1-0.3,0.1c-0.1,0-0.2,0-0.2-0.1c-0.2-0.2-0.4-0.3-0.6-0.4c2-0.8,2.9-2.1,3.1-3.5
			c-0.3,0.5-0.9,0.8-1.5,0.8c-1,0-1.8-0.8-1.8-1.8c0,0,0-0.1,0-0.1c-0.1-1,0.7-1.9,1.8-2c0.1,0,0.1,0,0.2,0c0.5,0,1,0.1,1.3,0.5
			c0-0.7,0-1.3,0-2c-2,0.1-3.9,0.2-5.2,0.4c-0.3,0-0.5,0.1-0.6,0.1c-0.1,0-0.2-0.1-0.2-0.1c-0.1-0.3-0.2-0.6-0.2-0.9
			c0.6,0,1.2,0,1.8-0.1c1.1-0.1,2.6-0.2,4.4-0.3c0-0.6,0-0.9,0-1.3c0-0.3-0.1-0.6-0.1-0.9c0.4,0,0.7,0.1,1.1,0.1
			c0.2,0,0.2,0.1,0.2,0.2c0,0.1,0,0.2-0.1,0.2c-0.1,0.1-0.1,0.2-0.1,0.4c0,0.3,0,0.6,0,1.2c1.6,0,2.9,0,4.5,0c0.1,0,0.2,0,0.2,0.1
			L234.7,31.3z M226.8,34.9c0,0.6,0.4,1.1,1,1.2c0,0,0.1,0,0.1,0c0.7,0,1.2-0.5,1.3-1.2c0,0,0,0,0,0c0-0.6-0.5-1.2-1.1-1.2
			c0,0-0.1,0-0.1,0C227.3,33.7,226.8,34.2,226.8,34.9C226.8,34.9,226.8,34.9,226.8,34.9z"/>
		<path class="st2" d="M239.5,38.9c0,1.1-0.9,2-2,2s-2-0.9-2-2s0.9-2,2-2S239.5,37.8,239.5,38.9z M236.2,38.9c0,0.7,0.6,1.2,1.2,1.2
			c0.7-0.1,1.2-0.7,1.1-1.4c-0.1-0.6-0.5-1.1-1.1-1.1C236.8,37.6,236.2,38.2,236.2,38.9z"/>
		<g>
			<path class="st0" d="M186.6,14.6c-3.2,0-5.2-1.5-5.2-3c0-0.6,0.2-1.1,0.9-1.1c1.8,0,0.1,3.5,4.3,3.5c1.7,0,3.5-1.1,3.5-2.9
				c0-2.3-2.2-3.5-4.8-3.5h-0.1c-0.3,0-0.4-0.1-0.4-0.3c0-0.3,0.1-0.3,0.5-0.3c2.3,0,4.5-0.8,4.5-2.8c0-1.5-1.4-2.6-3.2-2.6
				c-1.5,0-2.8,0.6-2.8,1.3c0,0.5,0.3,0.7,0.3,1.1c0,0.6-0.4,0.9-1,0.9c-0.7,0-1-0.6-1-1.1c0-1.4,2.1-2.9,4.7-2.9
				c3,0,4.9,1.4,4.9,3.2c0,2-2,3.1-3.9,3.2c-0.2,0-0.3,0-0.3,0.1c0,0,0.1,0.1,0.3,0.1c2.3,0,4.4,1.5,4.4,3.5
				C192,13.3,189.8,14.6,186.6,14.6z"/>
		</g>
	</g>
</g>
</svg>
