<?xml version="1.0" encoding="utf-8"?>
<!-- Generator: Adobe Illustrator 26.3.1, SVG Export Plug-In . SVG Version: 6.00 Build 0)  -->
<svg version="1.1" id="レイヤー_1" xmlns="http://www.w3.org/2000/svg" xmlns:xlink="http://www.w3.org/1999/xlink" x="0px"
	 y="0px" viewBox="0 0 273.8 77.7" style="enable-background:new 0 0 273.8 77.7;" xml:space="preserve">
<style type="text/css">
	.st0{fill:none;stroke:#987744;stroke-width:2;stroke-miterlimit:10;}
	.st1{fill:#DC3023;}
	.st2{fill:#4D4D4D;}
	.st3{fill:#987744;}
</style>
<polyline class="st0" points="64.3,0 64.3,20 214.3,20 214.3,0 "/>
<path class="st1" d="M47,76.4l-0.4,0.4l-5.2-5.3l-5.2,5.3l-0.4-0.4l5.3-5.3L35.7,66l0.4-0.4l5.2,5.2l5.2-5.2L47,66l-5.2,5.2L47,76.4
	z M38.6,71.2c0,0.6-0.4,1-1,1c0,0,0,0-0.1,0c-0.6,0-1-0.4-1-1s0.4-1,1-1C38.1,70.2,38.6,70.6,38.6,71.2z M42.4,67.4c0,0.6-0.4,1-1,1
	s-1-0.4-1-1s0.4-1,1-1S42.4,66.8,42.4,67.4C42.4,67.4,42.4,67.4,42.4,67.4z M42.4,75c0,0.6-0.5,1-1,1s-1-0.5-1-1s0.5-1,1-1
	S42.4,74.4,42.4,75z M46.1,71.2c0,0.6-0.4,1-1,1s-1-0.4-1-1c0-0.5,0.5-1,1-1C45.7,70.2,46.1,70.6,46.1,71.2
	C46.2,71.2,46.2,71.2,46.1,71.2z"/>
<path class="st2" d="M54,72.8c0.1-0.1,0.2-0.1,0.2,0c0.7,1,1.3,2,1.8,3.1c0,0.1,0,0.1-0.1,0.2l-0.4,0.2c-0.2,0.1-0.2,0.1-0.2,0
	c-0.2-0.4-0.3-0.8-0.6-1.2c-1.3,0.5-2.5,0.9-3.8,1.3c-0.2,0-0.3,0.1-0.5,0.2c-0.1,0-0.1,0.1-0.2,0.1s-0.1-0.1-0.2-0.1
	c-0.1-0.3-0.2-0.5-0.3-0.8c0.4,0,0.7-0.1,1.1-0.2v-7.3c0-1.5,0-2.2,0-2.3s0-0.1,0.1-0.1s0.5,0,1.5,0h1.6c1,0,1.3,0,1.4,0
	s0.1,0,0.1,0.1s0,0.5,0,1.5v2.8c0,1,0,1.4,0,1.5s0,0.1-0.1,0.1s-0.4,0-1.4,0h-2.4v3.6c0.9-0.2,1.8-0.5,2.7-0.9
	c-0.2-0.4-0.5-0.8-0.8-1.2c-0.1-0.1,0-0.1,0.1-0.2L54,72.8z M54.8,66.5h-3.1v1.9h3.1V66.5z M54.8,69.1h-3.1V71h3.1V69.1z M61.6,71.6
	c0,1,0,1.5,0,1.9c0,0.4-0.1,0.8-0.3,1.2c-0.3,0.4-0.6,0.5-2,0.4c-0.3,0-0.3,0-0.3-0.3c0-0.2-0.1-0.4-0.2-0.7c0.4,0,0.8,0.1,1.2,0.1
	c0.6,0,0.8-0.2,0.8-0.9v-6.8h-2.9v8.3c0,1.7,0,2.4,0,2.5s0,0.1-0.1,0.1H57c-0.1,0-0.1,0-0.1-0.1s0-0.8,0-2.7v-6.2c0-1.8,0-2.6,0-2.7
	s0-0.1,0.1-0.1s0.4,0,1.4,0H60c1,0,1.4,0,1.4,0s0.1,0,0.1,0.1s0,0.7,0,2.1L61.6,71.6z"/>
<path class="st2" d="M74.6,72.1c0,4,0,4.7,0,4.8s0,0.1-0.1,0.1h-0.7c-0.1,0-0.1,0-0.1-0.1V76h-6.4v0.9c0,0.1,0,0.1-0.1,0.1h-0.7
	c-0.1,0-0.1,0-0.1-0.1s0-0.8,0-4.8v-2.7c0-2.7,0-3.4,0-3.5s0-0.1,0.1-0.1s0.6,0,2,0h4.2c1.4,0,1.9,0,2,0s0.1,0,0.1,0.1s0,0.8,0,3.2
	L74.6,72.1z M73.7,66.6h-6.5v3.8h6.5L73.7,66.6z M73.7,71.2h-6.5v4.1h6.5L73.7,71.2z"/>
<path class="st2" d="M86.1,71.2c0,0.6-0.5,1.2-1.2,1.1c-0.6,0-1.2-0.5-1.1-1.2c0-0.6,0.5-1.1,1.2-1.1C85.6,70,86.1,70.5,86.1,71.2
	C86.1,71.2,86.1,71.2,86.1,71.2z"/>
<path class="st2" d="M105.6,76.7c0,0.1,0,0.1-0.1,0.1s-0.5,0-1.9,0h-8.1c-1.3,0-1.8,0-1.8,0s-0.1,0-0.1-0.1v-0.6
	c0-0.1,0-0.1,0.1-0.1s0.5,0,1.8,0h5.1c0.3-0.6,0.6-1.2,0.8-1.8c0.1-0.2,0.1-0.5,0.1-0.7c0.3,0.1,0.6,0.1,0.9,0.2
	c0.1,0,0.2,0.1,0.2,0.2c0,0.1,0,0.2-0.1,0.2c-0.1,0.1-0.2,0.2-0.2,0.4c-0.2,0.6-0.5,1.1-0.8,1.6h2.1c1.3,0,1.8,0,1.9,0
	s0.1,0,0.1,0.1L105.6,76.7z M97.4,65.6c1.2,0,1.5,0,1.6,0s0.1,0,0.1,0.1s0,0.3,0,1v1.8c0,0.6,0,1.2,0,1.5s-0.1,0.7-0.3,0.8
	s-0.5,0.2-1.6,0.2c-0.2,0-0.2,0-0.3-0.3c-0.1-0.2-0.1-0.4-0.2-0.6c0.3,0,0.6,0,1,0c0.6,0,0.7-0.1,0.7-0.5v-3.4h-3
	c-1.2,0-1.5,0-1.6,0s-0.1,0-0.1-0.1v-0.6c0-0.1,0-0.1,0.1-0.1s0.4,0,1.6,0L97.4,65.6z M97.5,68.9c0,0.3,0,0.3-0.2,0.4
	c-0.8,0.4-1.7,0.8-2.5,1.2c-0.2,0.1-0.3,0.2-0.5,0.3c-0.1,0-0.1,0.1-0.2,0.1c-0.1,0-0.1-0.1-0.1-0.1c-0.1-0.2-0.2-0.5-0.3-0.7
	c0.4-0.1,0.8-0.2,1.2-0.3c0.9-0.3,1.9-0.8,2.7-1.3C97.5,68.6,97.5,68.8,97.5,68.9L97.5,68.9z M94.8,66.9c0.1-0.1,0.1-0.1,0.2-0.1
	c0.5,0.3,1,0.6,1.5,1c0.1,0.1,0.1,0.1,0,0.2l-0.3,0.3c-0.1,0.1-0.1,0.1-0.2,0.1c-0.4-0.4-0.9-0.7-1.5-1c-0.1,0-0.1-0.1,0-0.2
	L94.8,66.9z M104.5,73c0,0.1,0,0.1-0.1,0.1s-0.6,0-2,0h-5.7c-1.4,0-1.9,0-2,0s-0.1,0-0.1-0.1v-0.6c0-0.1,0-0.1,0.1-0.1s0.6,0,2,0
	h2.4v-0.3c0-0.4,0-0.7-0.1-1.1c0.3,0,0.6,0,0.9,0c0.1,0,0.2,0,0.2,0.1c0,0.1,0,0.2-0.1,0.3c-0.1,0.2-0.1,0.4-0.1,0.7v0.3h2.4
	c1.4,0,1.9,0,2,0s0.1,0,0.1,0.1L104.5,73z M97.1,73.5c0.1-0.1,0.2,0,0.2,0.1c0.3,0.6,0.6,1.2,0.7,1.8c0,0.1,0,0.1-0.1,0.2l-0.4,0.1
	c-0.2,0.1-0.2,0.1-0.2,0c-0.1-0.6-0.4-1.3-0.7-1.8c0-0.1,0-0.1,0.1-0.2L97.1,73.5z M105.1,68.5c0,0.6,0,1.2,0,1.5
	c0,0.3-0.1,0.6-0.3,0.8c-0.2,0.2-0.5,0.2-1.5,0.2c-0.3,0-0.3,0-0.3-0.2c-0.1-0.2-0.1-0.4-0.2-0.6c0.3,0,0.7,0,0.9,0
	c0.6,0,0.7-0.1,0.7-0.5v-3.5h-2.8c-1.2,0-1.5,0-1.6,0s-0.1,0-0.1-0.1v-0.6c0-0.1,0-0.1,0.1-0.1s0.4,0,1.6,0h2c1.1,0,1.5,0,1.6,0
	s0.1,0,0.1,0.1s0,0.3,0,1L105.1,68.5z M103.4,69.3c-0.8,0.4-1.6,0.7-2.4,1.1c-0.2,0.1-0.4,0.2-0.5,0.3c-0.1,0-0.1,0.1-0.2,0.1
	s-0.1,0-0.1-0.1s-0.2-0.5-0.3-0.7c0.4-0.1,0.8-0.2,1.3-0.4c0.9-0.3,1.7-0.7,2.5-1.2c0,0.2,0,0.3,0,0.5
	C103.6,69.1,103.6,69.1,103.4,69.3L103.4,69.3z M100.7,67c0.1-0.1,0.1-0.1,0.2-0.1c0.5,0.3,1.1,0.6,1.5,1c0.1,0.1,0,0.1,0,0.2
	l-0.2,0.3c-0.1,0.1-0.2,0.2-0.3,0.1c-0.5-0.4-1-0.8-1.5-1.1c-0.1-0.1-0.1-0.1,0-0.2L100.7,67z"/>
<path class="st2" d="M118.2,72.1c0,4,0,4.7,0,4.8s0,0.1-0.1,0.1h-0.7c-0.1,0-0.1,0-0.1-0.1V76h-6.5v0.9c0,0.1,0,0.1-0.1,0.1H110
	c-0.1,0-0.1,0-0.1-0.1s0-0.8,0-4.8v-2.7c0-2.7,0-3.4,0-3.5s0-0.1,0.1-0.1s0.6,0,1.9,0h4.2c1.4,0,1.9,0,1.9,0s0.1,0,0.1,0.1
	s0,0.8,0,3.2L118.2,72.1z M117.3,66.6h-6.5v3.8h6.5V66.6z M117.3,71.2h-6.5v4.1h6.5V71.2z"/>
<path class="st2" d="M129,67.7c-0.2,2.1-0.8,4.2-1.8,6.1c-0.3,0.8-1.2,1.4-2.1,1.4c-1,0-2-1.1-2-3.2c0-1.4,0.6-2.7,1.6-3.6
	c1.1-1,2.7-1.6,4.2-1.6c3.1,0,5,1.8,5,4.5c0,2.3-1.4,4.1-4.4,4.9c-0.1,0.1-0.3,0-0.4-0.2c-0.1-0.2-0.3-0.4-0.5-0.5
	c2.8-0.6,4.4-2,4.4-4.4c0-1.9-1.5-3.5-3.5-3.5c-0.1,0-0.1,0-0.2,0L129,67.7z M125.3,69c-0.8,0.8-1.3,1.9-1.3,3
	c0,1.5,0.6,2.2,1.1,2.2s0.9-0.3,1.3-1c0.9-1.7,1.5-3.6,1.6-5.5C127,67.8,126,68.3,125.3,69z"/>
<path class="st2" d="M148.6,72.2c0,4.3,0,5.1,0,5.2s0,0.1-0.1,0.1h-0.7c-0.1,0-0.1,0-0.1-0.1v-0.8h-9.3v0.8c0,0.1,0,0.1-0.1,0.1
	h-0.7c-0.1,0-0.1,0-0.1-0.1s0-0.9,0-5.2v-2.8c0-2.8,0-3.6,0-3.7s0-0.1,0.1-0.1s0.6,0,1.9,0h7c1.4,0,1.9,0,1.9,0s0.1,0,0.1,0.1
	s0,0.9,0,3.3L148.6,72.2z M147.7,66.4h-9.3v9.5h9.3V66.4z M145.5,71.7c0,1.8,0,2.1,0,2.2s0,0.1-0.1,0.1h-0.6c-0.1,0-0.1,0-0.1-0.1
	v-0.5h-3.3v0.5c0,0.1,0,0.1-0.1,0.1h-0.6c-0.1,0-0.1,0-0.1-0.1s0-0.4,0-2.2v-1.4c0-1,0-1.4,0-1.5s0-0.1,0.1-0.1s0.4,0,1.5,0h1.7
	c1.1,0,1.4,0,1.5,0s0.1,0,0.1,0.1s0,0.4,0,1.3V71.7z M144.7,69.4h-3.3v3.2h3.3V69.4z"/>
<path class="st2" d="M158.2,68.8c1.7,1.6,3.8,2.6,6.1,3c-0.2,0.2-0.3,0.3-0.4,0.6c-0.1,0.2-0.1,0.2-0.4,0.2
	c-2.2-0.6-4.2-1.7-5.9-3.3c-1.6,1.5-3.5,2.7-5.6,3.3c-0.3,0.1-0.3,0.1-0.4-0.2c-0.1-0.2-0.2-0.4-0.4-0.5c2.1-0.6,4.1-1.6,5.7-3.1
	c0.2-0.2,0.3-0.4,0.5-0.6c0.3,0.1,0.6,0.1,0.8,0.2s0.2,0.1,0.2,0.2S158.4,68.7,158.2,68.8L158.2,68.8z M157.5,66.9
	c0,0.1,0,0.1-0.1,0.1s-0.4,0-1.4,0h-0.6c0.3,0.5,0.6,1,0.8,1.6c0,0.1,0,0.1-0.1,0.2l-0.4,0.1c-0.2,0-0.2,0-0.3-0.1
	c-0.2-0.6-0.4-1.2-0.8-1.8h-1c-0.4,0.6-0.8,1.1-1.3,1.5c-0.1,0.1-0.1,0.1-0.2,0.1s-0.1-0.1-0.2-0.2c-0.1-0.1-0.3-0.2-0.4-0.3
	c0.9-0.8,1.5-1.7,2-2.8c0.1-0.2,0.2-0.4,0.2-0.7c0.3,0.1,0.6,0.1,0.8,0.2c0.1,0,0.1,0.1,0.1,0.2c0,0.1,0,0.1-0.1,0.2
	c-0.1,0.1-0.2,0.2-0.2,0.3c-0.1,0.2-0.2,0.4-0.3,0.6h2c1,0,1.4,0,1.4,0s0.1,0,0.1,0.1L157.5,66.9z M161.7,75.3c0,1.6,0,1.9,0,2
	s0,0.1-0.1,0.1H161c-0.1,0-0.1,0-0.1-0.1v-0.5h-6.2v0.6c0,0.1,0,0.1-0.1,0.1h-0.6c-0.1,0-0.1,0-0.1-0.1s0-0.3,0-2v-0.8
	c0-0.8,0-1.1,0-1.2s0-0.1,0.1-0.1s0.6,0,1.9,0h3.9c1.4,0,1.8,0,1.9,0s0.1,0,0.1,0.1s0,0.4,0,1L161.7,75.3z M160.9,74h-6.2v2h6.2
	L160.9,74z M160.4,72.1c0,0.1,0,0.1-0.1,0.1s-0.4,0-1.6,0h-1.9c-1.1,0-1.5,0-1.6,0s-0.1,0-0.1-0.1v-0.6c0-0.1,0-0.1,0.1-0.1
	s0.4,0,1.6,0h1.9c1.1,0,1.5,0,1.6,0s0.1,0,0.1,0.1V72.1z M163.9,66.9c0,0.1,0,0.1-0.1,0.1s-0.5,0-1.7,0h-1.1c0.3,0.5,0.5,1,0.7,1.6
	c0,0.1,0,0.1-0.1,0.2l-0.4,0.1c-0.2,0.1-0.2,0.1-0.2,0c-0.2-0.6-0.4-1.2-0.8-1.8h-1.2c-0.2,0.4-0.5,0.7-0.7,1
	c-0.1,0.1-0.1,0.1-0.2,0.1s-0.1,0-0.2-0.1c-0.1-0.1-0.3-0.2-0.4-0.3c0.6-0.6,1.1-1.4,1.4-2.3c0.1-0.2,0.1-0.4,0.1-0.6
	c0.3,0,0.5,0.1,0.8,0.2c0.1,0,0.1,0.1,0.1,0.1s-0.1,0.1-0.1,0.2c-0.1,0.1-0.2,0.2-0.2,0.4c-0.1,0.2-0.1,0.3-0.2,0.5h2.8
	c1.2,0,1.6,0,1.7,0s0.1,0,0.1,0.1L163.9,66.9z"/>
<path class="st2" d="M170,74.2c0,1.4,0.8,1.9,2.2,1.9s2.8-0.7,2.8-2.2c0-1-0.5-1.9-1.3-2.5c0.3,0,0.6,0,0.9-0.1c0.1,0,0.2,0,0.2,0
	c0.8,0.6,1.2,1.6,1.2,2.6c0,1.9-1.6,3-3.6,3c-2.2,0-3.2-0.9-3.2-2.8c0-0.5,0.1-1.2,0.1-1.7c-0.8-0.1-1.6-0.2-2.3-0.4
	c-0.1,0-0.1-0.1-0.1-0.2c0-0.3,0-0.5,0-0.8c0.8,0.3,1.6,0.5,2.5,0.5c0.1-0.9,0.2-1.7,0.3-2.4c-0.8-0.1-1.6-0.2-2.4-0.4
	c-0.1,0-0.1,0-0.1-0.2s0-0.5,0-0.8c0.9,0.3,1.8,0.5,2.7,0.6c0.1-0.8,0.1-1.1,0.2-1.7c0.1-0.4,0.1-0.8,0-1.2c0.4,0.1,0.7,0.2,1.1,0.3
	c0.1,0,0.2,0.1,0.2,0.2c0,0.1,0,0.1-0.1,0.2c-0.2,0.2-0.2,0.4-0.3,0.7c-0.1,0.5-0.2,1-0.2,1.5c0.7,0,1.3,0,2,0c0.1,0,0.1,0,0.1,0.1
	s0,0.4,0,0.6s-0.1,0.1-0.1,0.1c-0.7,0-1.3,0-2,0c-0.1,0.7-0.2,1.5-0.4,2.4c0.8,0.1,1.5,0.1,2.3,0c0.1,0,0.2,0,0.2,0.1s0,0.4,0,0.6
	s0,0.2-0.1,0.2c-0.8,0-1.6,0-2.4,0C170.1,73,170,73.7,170,74.2z"/>
<path class="st2" d="M191.3,66.5c0,0.1,0,0.1-0.1,0.1h-1.6v6.6c0,1.5,0,2.1,0,2.6s-0.1,0.9-0.4,1.1c-0.8,0.3-1.6,0.4-2.4,0.3
	c-0.3,0-0.3,0-0.3-0.3c-0.1-0.2-0.2-0.4-0.3-0.7c0.4,0,1.1,0.1,1.7,0.1s0.8-0.1,0.8-0.5v-9.2h-7.6c-1.3,0-1.8,0-1.8,0
	s-0.1,0-0.1-0.1v-0.7c0-0.1,0-0.1,0.1-0.1s0.5,0,1.8,0h8.2c1.3,0,1.8,0,1.8,0s0.1,0,0.1,0.1L191.3,66.5z M186,71.7
	c0,2.1,0,2.4,0,2.5s0,0.1-0.1,0.1h-0.6c-0.1,0-0.1,0-0.1-0.1v-0.7h-3.3v1.1c0,0.1,0,0.1-0.1,0.1h-0.6c-0.1,0-0.1,0-0.1-0.1
	s0-0.4,0-2.6v-1.4c0-1.3,0-1.7,0-1.8s0-0.1,0.1-0.1s0.4,0,1.5,0h1.9c1.1,0,1.4,0,1.5,0s0.1,0,0.1,0.1s0,0.4,0,1.5L186,71.7z
	 M185.2,69.6h-3.4v3.2h3.4L185.2,69.6z"/>
<path class="st2" d="M198.2,66.3c0.1-0.1,0.1-0.1,0.2,0c0.6,0.7,1.1,1.5,1.5,2.3c0.1,0.1,0,0.1-0.1,0.2l-0.4,0.2
	c-0.1,0-0.1,0.1-0.2,0.1c0,0-0.1,0-0.1-0.1c-0.1-0.2-0.2-0.5-0.4-0.7c-1.3,0.2-2.7,0.4-4.3,0.6c-0.2,0-0.4,0.1-0.6,0.2
	c0,0-0.1,0.1-0.2,0.1c0,0-0.1,0-0.1-0.2c-0.1-0.3-0.1-0.5-0.2-0.8c0.4,0,0.9,0,1.2,0c0.4-0.7,0.8-1.4,1.1-2.2
	c0.1-0.3,0.2-0.6,0.3-0.9c0.3,0,0.5,0.1,0.8,0.2c0.1,0.1,0.2,0.1,0.2,0.2c0,0.1-0.1,0.2-0.1,0.2c-0.1,0.1-0.2,0.2-0.2,0.4
	c-0.3,0.6-0.7,1.4-1.1,2.1c1-0.1,2-0.2,2.9-0.3c-0.2-0.3-0.5-0.7-0.7-1c-0.1-0.1,0-0.1,0.1-0.2L198.2,66.3z M199.2,74.3
	c0,0.7,0,1.5,0,1.8s0,0.7-0.3,0.9s-0.4,0.2-1.4,0.2c-0.3,0-0.3,0-0.4-0.3c0-0.2-0.1-0.4-0.2-0.5c0.3,0,0.6,0,0.9,0
	c0.5,0,0.6-0.1,0.6-0.6v-1.6h-3v1.2c0,1.2,0,1.7,0,1.7s0,0.1-0.1,0.1h-0.6c-0.1,0-0.1,0-0.1-0.1s0-0.5,0-1.7v-4c0-1.2,0-1.7,0-1.8
	s0-0.1,0.1-0.1s0.4,0,1.4,0h1.5c1,0,1.4,0,1.4,0s0.1,0,0.1,0.1s0,0.6,0,1.8L199.2,74.3z M198.5,70.4h-3v1.3h3V70.4z M198.5,72.4h-3
	v1.3h3V72.4z M201.5,69.3c0,0.4,0.1,0.5,0.4,0.6c0.4,0.1,0.9,0.1,1.4,0.1c0.6,0.1,1.2,0,1.7-0.3c0.2-0.2,0.3-0.5,0.3-1.3
	c0.2,0.1,0.3,0.2,0.5,0.3c0.2,0.1,0.2,0.1,0.2,0.3c-0.1,0.8-0.2,1-0.5,1.3c-0.7,0.3-1.5,0.5-2.3,0.4c-0.7,0-1.3,0-2-0.2
	c-0.3-0.1-0.5-0.3-0.5-0.9v-3.2c0-0.5,0-1-0.1-1.4c0.3,0,0.6,0,0.9,0.1c0.1,0,0.2,0.1,0.2,0.1c0,0.1,0,0.2-0.1,0.2
	c-0.1,0.3-0.1,0.7-0.1,1v1c0.9-0.3,1.7-0.7,2.6-1.2c0.3-0.1,0.5-0.3,0.7-0.6c0.2,0.2,0.4,0.3,0.6,0.6c0.1,0.1,0.1,0.1,0.1,0.2
	s-0.1,0.1-0.2,0.1c-0.2,0.1-0.4,0.2-0.6,0.3c-1,0.5-2.1,0.9-3.2,1.3L201.5,69.3z M201.5,75.7c0,0.3,0.1,0.5,0.4,0.7
	c0.5,0.1,1,0.1,1.4,0.1c0.6,0,1.1-0.1,1.6-0.3c0.3-0.3,0.3-0.6,0.4-1.4c0.2,0.1,0.4,0.2,0.6,0.3c0.2,0.1,0.2,0.1,0.2,0.3
	c0,0.5-0.2,1-0.6,1.3c-0.7,0.3-1.4,0.5-2.2,0.4c-0.7,0.1-1.4,0-2.1-0.2c-0.3-0.1-0.5-0.4-0.5-1v-3.4c0-0.5,0-0.9-0.1-1.4
	c0.3,0,0.6,0,0.9,0.1c0.1,0,0.2,0.1,0.2,0.1c0,0.1,0,0.2-0.1,0.2c-0.1,0.3-0.1,0.6-0.1,0.9v0.9c0.9-0.3,1.8-0.7,2.7-1.2
	c0.3-0.1,0.5-0.3,0.7-0.6c0.2,0.1,0.4,0.3,0.6,0.5c0.1,0.1,0.1,0.1,0.1,0.2c0,0.1-0.1,0.1-0.2,0.1c-0.2,0.1-0.4,0.1-0.6,0.3
	c-1.1,0.6-2.2,1-3.3,1.4L201.5,75.7z"/>
<path class="st2" d="M216,67.8c-2.1,0.3-3.9,0.6-5.7,1c-0.3,0-0.6,0.1-0.8,0.2c-0.1,0-0.2,0.1-0.3,0.1c-0.1,0-0.2-0.1-0.2-0.2
	c-0.2-0.3-0.3-0.7-0.4-1c0.6,0,1.2-0.1,1.7-0.2c2.1-0.3,4.9-0.8,8.7-1.2c0.1,0,0.2,0,0.2,0.1c0,0.2,0.1,0.5,0.1,0.7
	c0,0.1,0,0.2-0.2,0.2c-0.7,0-1.4,0.2-2,0.4c-2,0.8-3.6,2.5-3.6,4.4c0,2.3,2,3,4.1,3.2c0.2,0,0.2,0,0.2,0.2c0,0.2,0,0.4-0.1,0.7
	c0,0.2-0.1,0.2-0.2,0.2c-2.4-0.2-4.9-1.2-4.9-4C212.6,70.6,213.9,69,216,67.8L216,67.8z M217.7,69.8c0,0,0.1,0,0.1,0
	c0.6,0.5,1.2,1,1.6,1.7c0,0,0,0.1,0,0.2c0,0,0,0,0,0L219,72c0,0-0.1,0.1-0.2,0c0,0,0,0,0,0c-0.4-0.7-1-1.3-1.6-1.8L217.7,69.8z
	 M218.9,68.9c0,0,0.1,0,0.2,0c0.6,0.5,1.1,1,1.6,1.6c0.1,0.1,0,0.1,0,0.2l-0.4,0.3c-0.1,0.1-0.1,0.1-0.2,0c-0.4-0.7-1-1.3-1.6-1.8
	L218.9,68.9z"/>
<path class="st2" d="M234.7,68.2c0,0.1-0.1,0.1-0.2,0.1c-1.5,0-2.9-0.1-4.4,0c0,0.9,0,1.8,0,2.8c0.1,0.5,0.2,1,0.2,1.5
	c0.1,1.9-1,3.6-2.7,4.4c-0.1,0.1-0.2,0.1-0.3,0.1c-0.1,0-0.2,0-0.2-0.1c-0.2-0.2-0.4-0.3-0.6-0.4c2-0.8,2.9-2.1,3.1-3.5
	c-0.3,0.5-0.9,0.8-1.5,0.8c-1,0-1.8-0.8-1.8-1.8c0-0.1,0-0.2,0-0.2c0-1,0.8-1.9,1.8-1.9c0,0,0.1,0,0.1,0c0.5,0,1,0.1,1.3,0.5
	c0-0.7,0-1.3,0-2c-2,0.1-3.9,0.2-5.2,0.4c-0.3,0-0.5,0.1-0.6,0.1c-0.1,0-0.2-0.1-0.2-0.1c-0.1-0.3-0.2-0.6-0.2-0.9
	c0.6,0,1.2,0,1.8-0.1c1.1-0.1,2.6-0.2,4.4-0.3c0-0.6,0-0.8,0-1.3c0-0.3-0.1-0.6-0.1-0.9c0.4,0,0.7,0.1,1.1,0.2
	c0.2,0,0.2,0.1,0.2,0.2c0,0.1,0,0.2-0.1,0.3c-0.1,0.1-0.1,0.2-0.1,0.4c0,0.3,0,0.6,0,1.2c1.6-0.1,2.9-0.1,4.5-0.1
	c0.1,0,0.2,0,0.2,0.2L234.7,68.2z M226.8,71.8c0,0.6,0.5,1.1,1.1,1.2c0,0,0,0,0.1,0c0.7,0,1.2-0.5,1.3-1.2c0,0,0,0,0,0
	c0-0.6-0.5-1.2-1.1-1.2c0,0-0.1,0-0.1,0c-0.6,0-1.2,0.5-1.2,1.1C226.8,71.8,226.8,71.8,226.8,71.8z"/>
<path class="st2" d="M239.5,75.8c0,1.1-0.9,2-2,2s-2-0.9-2-2s0.9-2,2-2S239.5,74.7,239.5,75.8z M236.2,75.8c0,0.7,0.6,1.2,1.2,1.2
	c0.7,0,1.2-0.6,1.2-1.2s-0.6-1.2-1.2-1.2C236.8,74.5,236.2,75.1,236.2,75.8C236.2,75.8,236.2,75.8,236.2,75.8z"/>
<g>
	<g>
		<g>
			<path class="st3" d="M16,52.1H2c-0.6,0-1.3,0-1.5,0.1c0,0-0.1,0-0.1,0c-0.1,0-0.1-0.1-0.2-0.1C0.1,52,0.1,51.8,0,51.6
				c0,0,0-0.1,0-0.1c0-0.1,0-0.1,0.1-0.1c0,0,0.1,0,0.1,0c0.4,0.1,1.2,0.2,1.8,0.2h1.2c0-1.2,0.1-3,0.1-4.6c0-1.4,0-2.7-0.2-3.1
				c0-0.1-0.1-0.2-0.1-0.3c0-0.1,0.1-0.1,0.1-0.1c0.1,0,0.2,0,0.3,0.1c0.7,0.3,1.7,0.7,1.7,0.7h5.3c0.2,0,0.3,0,0.3-0.1
				c0.2-0.2,0.5-0.5,0.7-0.7c0.1-0.1,0.1-0.1,0.2-0.1c0.1,0,0.1,0,0.2,0.1c0.4,0.2,1,0.6,1.3,0.8c0.1,0.1,0.2,0.2,0.2,0.3
				c0,0.1-0.1,0.3-0.3,0.4c-0.4,0.2-0.5,0.2-0.5,0.5c0,0.6,0,1.5,0,2.4c0,1.2,0,2.4,0.1,3.7h0.4c0.1,0,0.2-0.1,0.3-0.2
				c0.2-0.3,0.6-0.8,0.8-1.1c0-0.1,0.1-0.1,0.1-0.1c0.1,0,0.1,0,0.2,0.1c0.5,0.4,1.1,1,1.5,1.4c0.1,0.1,0.1,0.1,0.1,0.2
				C16.2,52.1,16.1,52.1,16,52.1z M15.9,42.7c-0.7,0.3-0.8,0.8-1,1.5c0,0.1-0.1,0.2-0.2,0.2c0,0-0.1,0-0.1,0
				c-2.2-0.8-4.2-2.1-5.7-4.9H8.8c0,0.2,0,0.4,0,0.6c0,1,0,2,0.1,3.2c0,0,0,0,0,0c0,0.4-0.3,0.5-1,0.5c-0.1,0-0.2,0-0.2,0
				c-0.5,0-0.7-0.1-0.7-0.5c0,0,0-0.1,0-0.1c0.1-1.2,0.1-2.3,0.1-3.2c-1.6,2.1-3.9,3.6-6.7,4.5c0,0-0.1,0-0.1,0
				c-0.1,0-0.1-0.1-0.1-0.1c0-0.1,0-0.1,0.1-0.2c2.4-1.4,4.2-3,5.2-4.9H2.7c-0.6,0-1.3,0-1.6,0.1c0,0-0.1,0-0.1,0
				c-0.1,0-0.1-0.1-0.2-0.1c-0.1-0.1-0.1-0.3-0.2-0.4c0,0,0-0.1,0-0.1c0-0.1,0-0.1,0.1-0.1c0,0,0.1,0,0.1,0C1.3,39,2.1,39,2.7,39
				h4.4c0-0.7,0-1.3-0.1-1.6C7,37.2,7,37,7,37c0-0.1,0-0.1,0.1-0.1c0,0,0.1,0,0.2,0c0.5,0.1,1.2,0.1,1.9,0.3
				c0.2,0.1,0.3,0.2,0.3,0.3c0,0.1-0.1,0.2-0.4,0.3c-0.3,0.1-0.3,0.2-0.3,0.4c0,0.3,0,0.6,0,0.9h3.6c0.1,0,0.2,0,0.3-0.1
				c0.3-0.3,0.6-0.7,0.9-1.1c0.1-0.1,0.1-0.1,0.1-0.1c0.1,0,0.1,0,0.2,0.1c0.4,0.3,1.2,0.9,1.6,1.3c0.1,0.1,0.1,0.1,0.1,0.2
				c0,0.1-0.1,0.1-0.3,0.1h-6c1.9,2,3.8,2.7,6.5,2.9c0.1,0,0.2,0.1,0.2,0.1C16.1,42.6,16,42.6,15.9,42.7z M5,49.5c0,0.8,0,1.5,0,2.2
				h6c0-0.6,0-1.4,0-2.2H5z M11,44.8H5c0,0.5,0,1.1,0,1.8h6C11,45.9,11,45.3,11,44.8z M11,47H5c0,0.7,0,1.4,0,2.1h6
				C11,48.4,11,47.7,11,47z"/>
		</g>
		<g>
			<path class="st3" d="M34.9,50.6c-0.5,0.3-0.7,0.8-0.8,1.4c0,0.2,0,0.3-0.3,0.3c-3.4,0-6.4-0.1-8-1c-1.4-0.7-2.1-1.9-2.5-3.3
				c-0.6,1.9-1.9,3.6-4,4.7c-0.1,0-0.1,0-0.1,0c-0.1,0-0.1-0.1-0.1-0.1c0-0.1,0-0.1,0.1-0.2c2.3-2.3,3-5.3,3-7.5c0-0.1,0-0.2,0-0.3
				c0-0.1,0-0.1,0-0.1c0-0.1,0-0.1,0.1-0.1c0,0,0.1,0,0.1,0c0.6,0.1,1.4,0.3,2,0.5c0.2,0,0.2,0.1,0.2,0.3c0,0.1-0.1,0.2-0.3,0.3
				c-0.3,0.1-0.4,0.1-0.4,0.3c-0.1,0.6-0.2,1.2-0.3,1.7c0.5,1.1,1.3,1.9,2.6,2.4c0.1,0,0.1,0.1,0.2,0.1c0-0.6,0-1.4,0-2.2
				c0-1.9,0-4.1,0-5.2h-2.9c-0.6,0-1.2,0-1.5,0.1c0,0-0.1,0-0.1,0c-0.1,0-0.2-0.1-0.2-0.2c-0.1-0.1-0.1-0.3-0.2-0.5c0,0,0-0.1,0-0.1
				s0-0.1,0.1-0.1s0.1,0,0.1,0c0.4,0.1,1.2,0.2,1.8,0.2h6.6c0.1,0,0.2,0,0.3-0.1c0.3-0.4,0.6-0.7,0.9-1.1c0.1-0.1,0.1-0.1,0.1-0.1
				c0.1,0,0.1,0,0.2,0.1c0.1,0.1,0.2,0.2,0.3,0.3c0.3-0.5,0.5-1.1,0.7-1.6H21.6c0,0.2,0.1,0.5,0.1,0.7c0,0.8-0.2,1.5-0.8,1.9
				c-0.2,0.1-0.4,0.2-0.6,0.2c-0.5,0-0.9-0.4-0.9-0.9c0-0.2,0-0.4,0.1-0.5c0.5-0.9,1.4-0.8,1.5-2.6c0-0.2,0.1-0.3,0.1-0.3
				s0.1,0.1,0.2,0.3c0.1,0.2,0.2,0.5,0.2,0.8H26c0-0.3,0-0.6,0-0.9c0-0.3,0-0.6,0-0.8c-0.1-0.3-0.1-0.5-0.1-0.6c0-0.1,0-0.1,0.1-0.1
				c0,0,0.1,0,0.2,0c0.7,0.1,1.4,0.2,1.9,0.3c0.2,0,0.3,0.1,0.3,0.3c0,0.1-0.1,0.2-0.4,0.3c-0.3,0.1-0.3,0.1-0.3,0.4
				c0,0.4,0,0.7,0,1.1H32c0.2,0,0.2,0,0.3-0.1c0.1-0.1,0.5-0.5,0.6-0.6c0.1-0.1,0.1-0.1,0.2-0.1c0.1,0,0.1,0,0.2,0.1
				c0.4,0.4,1.1,0.9,1.4,1.3c0.2,0.2,0.3,0.4,0.3,0.5c0,0.2-0.2,0.4-0.5,0.4c-0.1,0-0.1,0-0.2,0c-0.1,0-0.2,0-0.3,0
				c-0.6,0-0.9,0.3-1.8,0.9c0.3,0.3,0.6,0.5,0.8,0.7c0.1,0.1,0.1,0.1,0.1,0.2c0,0.1-0.1,0.1-0.3,0.1H28c0,0.8,0,2,0,3.4h1.9
				c0.1,0,0.2,0,0.3-0.1c0.2-0.2,0.6-0.8,0.8-1.1c0.1-0.1,0.1-0.1,0.3,0c0.4,0.3,1.1,0.9,1.5,1.3c0.1,0.1,0.1,0.1,0.1,0.2
				c0,0.1-0.1,0.1-0.2,0.1H28c0,1.4,0,2.9,0,3.9c0.6,0.1,1.3,0.1,2.1,0.1c1.5,0,3.1-0.1,4.7-0.2c0,0,0.1,0,0.1,0
				c0.1,0,0.2,0.1,0.2,0.1C35.1,50.4,35,50.5,34.9,50.6z"/>
		</g>
		<g>
			<path class="st3" d="M49,51.2c-0.9,0.2-2.1,0.3-3.4,0.3c-2,0-4.2-0.3-5.4-1c-1.1-0.7-1.6-1.7-1.6-2.7c0-1,0.4-1.9,1.2-2.4
				c0.1-0.1,0.3-0.2,0.3-0.2c0.1,0,0.1,0.1-0.1,0.3c-0.4,0.5-0.5,1-0.5,1.5c0,0.9,0.6,1.7,1.6,2.1c0.8,0.4,2,0.5,3.3,0.5
				c1.4,0,2.8-0.1,4-0.3c0.1,0,0.3,0,0.4,0c0.9,0,1.4,0.4,1.4,0.9C50.2,50.6,49.8,51,49,51.2z M47.4,40.9
				C47.3,40.9,47.3,40.9,47.4,40.9c-1,0-2,0.4-3.9,1.4c-0.1,0-0.1,0-0.2,0c-0.1,0-0.1,0-0.1-0.1c0-0.1,0-0.1,0.1-0.2
				c0.5-0.5,0.9-0.9,1.2-1.2c0.1-0.1,0.1-0.2,0.1-0.2s-0.1-0.1-0.2-0.1c0,0-0.1,0-0.1,0c-0.4,0-0.7,0-1,0c-2.1,0-2.8-0.5-3.2-1.3
				c-0.1-0.1-0.1-0.2-0.1-0.3c0-0.1,0-0.1,0.1-0.1s0.1,0,0.2,0.1c0.5,0.3,1,0.3,1.7,0.3c1.5,0,3.4-0.5,4.6-0.6c0.1,0,0.1,0,0.2,0
				c1.3,0,1.9,0.5,1.9,1.2C48.7,40.7,47.9,40.9,47.4,40.9z M50,44.3c-0.2,0-0.5-0.2-0.6-0.5c-0.3-0.8-0.8-1.5-1.4-2
				c-0.1-0.1-0.1-0.1-0.1-0.2s0.1-0.1,0.1-0.1c0,0,0.1,0,0.1,0c0.9,0.1,1.8,0.6,2.3,1.4c0.1,0.3,0.2,0.5,0.2,0.7
				C50.6,44,50.3,44.3,50,44.3z M51.7,43.1c-0.2,0-0.4-0.1-0.6-0.4c-0.4-0.7-1-1.3-1.7-1.7c-0.1-0.1-0.2-0.1-0.2-0.2
				s0.1-0.1,0.3-0.1c0.9,0,1.9,0.4,2.4,1.1c0.2,0.3,0.3,0.5,0.3,0.7C52.2,42.8,51.9,43.1,51.7,43.1z"/>
		</g>
		<g>
			<path class="st3" d="M62.4,45.8h-3.3c0,0.8,0,1.6,0,2.4h0.7c0.2,0,0.2,0,0.3-0.1c0.3-0.4,0.4-0.6,0.7-1c0-0.1,0.1-0.1,0.1-0.1
				s0.1,0,0.2,0.1c0.4,0.3,0.9,0.9,1.2,1.2c0.1,0.1,0.1,0.2,0.1,0.2c0,0.1-0.1,0.1-0.3,0.1h-3.1c0,1.2,0,2.3,0,3.4c0,0,0,0.1,0,0.1
				c0,0.4-0.1,0.5-0.9,0.6c-0.1,0-0.1,0-0.2,0c-0.6,0-0.6-0.3-0.6-0.7c0-1.1,0-2.3,0-3.5h-0.8c-0.6,0-1.1,0-1.6,0.1c0,0-0.1,0-0.1,0
				c-0.1,0-0.2-0.1-0.2-0.2c-0.1-0.1-0.1-0.3-0.2-0.5c0-0.1,0-0.1,0-0.1c0,0,0-0.1,0.1-0.1s0.1,0,0.1,0c0.4,0.1,1.2,0.2,1.9,0.2h0.8
				c0-0.8,0-1.7,0-2.4h-1.3c-0.6,0-1.3,0-1.5,0.1c0,0-0.1,0-0.1,0c-0.1,0-0.2-0.1-0.2-0.1c-0.1-0.1-0.1-0.3-0.2-0.5c0,0,0-0.1,0-0.1
				c0-0.1,0-0.1,0.1-0.1c0,0,0.1,0,0.1,0c0.4,0.1,1.2,0.2,1.9,0.2h2.5c0.3-1,0.6-2,0.7-3c0-0.2,0-0.3,0.1-0.3c0,0,0.1,0,0.1,0
				c0.5,0.1,1,0.4,1.6,0.6c0.2,0.1,0.3,0.2,0.3,0.3c0,0.1-0.1,0.2-0.3,0.2c-0.2,0-0.3,0.1-0.4,0.2c-0.4,0.6-1,1.4-1.6,2h1
				c0.1,0,0.3,0,0.3-0.1c0.2-0.3,0.5-0.8,0.7-1c0.1-0.1,0.1-0.1,0.2-0.1c0,0,0.1,0,0.2,0.1c0.3,0.3,0.9,0.9,1.1,1.2
				c0.1,0.1,0.1,0.2,0.1,0.2S62.6,45.8,62.4,45.8z M62.4,42.1h-6.3c-0.6,0-1.3,0-1.5,0.1c0,0-0.1,0-0.1,0c-0.1,0-0.2-0.1-0.2-0.1
				c-0.1-0.1-0.1-0.3-0.2-0.5c0,0,0-0.1,0-0.1c0-0.1,0-0.1,0.1-0.1c0,0,0.1,0,0.1,0c0.4,0.1,1.2,0.2,1.9,0.2h1.4c0-0.7,0-1.5,0-2.1
				h-0.6c-0.6,0-1.3,0-1.6,0.1c0,0-0.1,0-0.1,0c-0.1,0-0.1-0.1-0.2-0.1c-0.1-0.1-0.1-0.3-0.2-0.5c0-0.1,0-0.1,0-0.1
				c0,0,0-0.1,0.1-0.1s0.1,0,0.1,0c0.4,0.1,1.2,0.2,1.9,0.2h0.6c0-0.2,0-0.4,0-0.6c0-0.5,0-0.9,0-1c-0.1-0.3-0.1-0.4-0.1-0.5
				s0-0.1,0.1-0.1c0,0,0.1,0,0.1,0c0.4,0,1.2,0.2,1.8,0.3c0.2,0,0.3,0.1,0.3,0.3c0,0.1-0.1,0.2-0.3,0.3c-0.3,0.1-0.3,0.2-0.3,0.3
				c0,0.3,0,0.6,0,1h0.4c0.1,0,0.2,0,0.3-0.1c0.2-0.3,0.4-0.6,0.7-1c0-0.1,0.1-0.1,0.1-0.1c0.1,0,0.1,0,0.2,0.1
				c0.4,0.3,0.8,0.8,1.2,1.2c0.1,0.1,0.1,0.1,0.1,0.2c0,0.1-0.1,0.1-0.3,0.1h-2.8c0,0.6,0,1.3,0,2.1h1c0.1,0,0.3,0,0.3-0.1
				c0.2-0.3,0.5-0.8,0.7-1c0.1-0.1,0.1-0.1,0.2-0.1c0,0,0.1,0,0.2,0.1c0.3,0.3,0.9,0.9,1.1,1.2c0.1,0.1,0.1,0.2,0.1,0.2
				C62.7,42,62.6,42.1,62.4,42.1z M56.9,45.2c-0.3,0-0.6-0.2-0.7-0.6c-0.1-0.6,0.1-1.2-0.7-2.1c0,0-0.1-0.1-0.1-0.1
				c0-0.1,0.1-0.1,0.1-0.1c0,0,0.1,0,0.1,0c1.1,0.4,1.9,1,2,2c0,0,0,0.1,0,0.1C57.7,45,57.3,45.2,56.9,45.2z M70,51.1
				c-0.5,0.3-0.7,0.7-0.7,1.5c0,0.1-0.1,0.1-0.1,0.1c-0.1,0-0.1,0-0.2-0.1c-0.8-0.6-1.4-1.2-1.9-1.9c-0.6,0.7-1.3,1.4-2.1,1.9
				c-0.1,0-0.1,0.1-0.2,0.1c-0.1,0-0.1,0-0.1-0.1c0,0,0-0.1,0.1-0.2c0.8-0.9,1.3-1.8,1.8-2.7c-0.8-1.5-1.2-3.2-1.4-5.3h-0.6
				c0,2.7,0,5.6,0,7.5c0,0.1,0,0.1,0,0.2c0,0.5-0.2,0.5-0.9,0.6c-0.1,0-0.2,0-0.2,0c-0.4,0-0.6-0.1-0.6-0.6c0,0,0-0.1,0-0.1
				c0-2.8,0.1-6.6,0.1-9.7c0-1.9,0-3.5-0.1-4.6c0-0.2,0-0.4,0-0.5c0-0.1,0-0.1,0.1-0.1c0,0,0.1,0,0.2,0.1c0.7,0.3,1.7,0.8,1.7,0.8
				h2.5c0.2,0,0.3,0,0.3-0.1c0.1-0.1,0.5-0.5,0.6-0.6c0.1-0.1,0.2-0.1,0.4,0c0.3,0.2,0.9,0.6,1.1,0.8c0.1,0.1,0.2,0.2,0.2,0.3
				c0,0.1-0.1,0.2-0.3,0.3c-0.3,0.1-0.4,0.2-0.4,0.5c-0.1,0.5-0.1,1.4-0.2,1.9c-0.2,0.9-0.4,1.4-2,1.6c0,0-0.1,0-0.1,0
				c-0.2,0-0.2-0.1-0.2-0.2c-0.1-0.8-0.1-0.9-1.2-1.4c-0.1-0.1-0.2-0.1-0.2-0.2s0.1-0.1,0.2-0.1c0,0,0,0,0.1,0
				c0.6,0.1,1,0.1,1.3,0.2c0.1,0,0.1,0,0.1,0c0.2,0,0.3-0.1,0.4-0.4c0.1-0.5,0.1-1.2,0.1-1.9c0-0.1,0-0.2,0-0.2h-3.2
				c0,1.4,0,3.3,0,5.5h2.9c0.1,0,0.2,0,0.3-0.1c0.2-0.2,0.5-0.5,0.7-0.7c0.1-0.1,0.2-0.1,0.4,0c0.4,0.2,0.9,0.6,1.3,0.9
				c0.1,0.1,0.2,0.2,0.2,0.3c0,0.1-0.1,0.2-0.3,0.3c-0.3,0.1-0.4,0.2-0.4,0.4c-0.3,1.5-0.7,3-1.4,4.4c0.6,0.5,1.3,0.9,2.1,1.2
				c0.1,0.1,0.2,0.1,0.2,0.2C70.2,51,70.1,51,70,51.1z M65.4,44.5c0.4,1.7,0.9,3,1.6,4c0.5-1.4,0.7-2.8,0.7-4H65.4z"/>
		</g>
		<g>
			<path class="st3" d="M88.8,44.3H74.9c-0.6,0-1.3,0-1.5,0.1c0,0-0.1,0-0.1,0c-0.1,0-0.1-0.1-0.2-0.1C73,44.2,73,44,72.9,43.9
				c0-0.1,0-0.1,0-0.1c0,0,0-0.1,0.1-0.1s0.1,0,0.1,0c0.4,0.1,1.2,0.2,1.8,0.2h5.3c0-1,0.1-2.3,0.1-3.4h-3.2
				c-0.7,1.1-1.6,2.1-2.8,2.8c-0.1,0.1-0.1,0.1-0.2,0.1c-0.1,0-0.1,0-0.1-0.1c0-0.1,0-0.1,0.1-0.2c1.2-1.7,2.1-3.9,2.2-5.4
				c0-0.2,0-0.2,0.1-0.2c0,0,0.1,0,0.1,0c0.6,0.2,1.3,0.5,2,0.7c0.2,0.1,0.3,0.2,0.3,0.3c0,0.1-0.1,0.2-0.4,0.3
				c-0.3,0-0.4,0.1-0.5,0.3c-0.2,0.4-0.3,0.7-0.6,1.1h2.9c0-1.2,0-2.3-0.1-2.6c0-0.3-0.1-0.5-0.1-0.6c0-0.1,0-0.1,0.1-0.1
				c0,0,0.1,0,0.2,0c0.7,0.1,1.4,0.2,1.9,0.3c0.2,0,0.3,0.1,0.3,0.3s-0.1,0.2-0.4,0.3S82,37.9,82,38.1c0,0.4,0,1.2,0,2h2.3
				c0.1,0,0.2,0,0.3-0.1c0.3-0.4,0.6-0.8,0.8-1.1c0.1-0.1,0.1-0.1,0.1-0.1s0.1,0,0.2,0.1c0.4,0.3,1.2,0.9,1.6,1.3
				c0.1,0.1,0.1,0.1,0.1,0.2s-0.1,0.1-0.2,0.1H82c0,1,0,2.3,0,3.4h3.8c0.1,0,0.2,0,0.3-0.1c0.3-0.4,0.6-0.8,0.9-1.2
				c0.1-0.1,0.1-0.1,0.1-0.1c0.1,0,0.1,0,0.2,0.1c0.5,0.4,1.2,1,1.6,1.4c0.1,0.1,0.1,0.1,0.1,0.2S89,44.3,88.8,44.3z M86.8,47.3
				c-0.3,0.2-0.4,0.2-0.4,0.5c0,0.3,0,0.8,0,1.4c0,0.8,0,1.8,0.1,2.9c0,0,0,0,0,0.1c0,0.5-0.3,0.6-1,0.7c-0.1,0-0.1,0-0.1,0
				c-0.5,0-0.7-0.1-0.7-0.6c0,0,0-0.1,0-0.1c0-0.2,0-0.4,0-0.6h-7c0,0.2,0,0.3,0,0.5c0,0,0,0,0,0.1c0,0.5-0.3,0.6-1,0.7
				c-0.1,0-0.2,0-0.2,0c-0.4,0-0.6-0.1-0.6-0.5c0,0,0-0.1,0-0.1c0.1-1.1,0.1-2.4,0.1-3.6c0-1-0.1-1.9-0.2-2.3
				c-0.1-0.2-0.1-0.3-0.1-0.4c0-0.1,0-0.1,0.1-0.1c0.1,0,0.1,0,0.2,0.1c0.7,0.3,1.9,0.9,1.9,0.9h6.4c0.1,0,0.2-0.1,0.3-0.1
				c0.2-0.2,0.5-0.5,0.7-0.6c0.1-0.1,0.2-0.1,0.3-0.1s0.2,0,0.3,0.1c0.4,0.2,0.8,0.6,1.1,0.8c0.1,0.1,0.2,0.2,0.2,0.3
				C87.1,47,87,47.2,86.8,47.3z M84.6,47h-7c0,0.5,0,1.1,0,1.7c0,0.8,0,1.7,0,2.4h7C84.6,49.8,84.6,48.3,84.6,47z"/>
		</g>
		<g>
			<path class="st3" d="M103,51.9c-0.4,0-0.8-0.2-1.2-0.6c-0.6-0.6-1.2-1-2-1.6c0,0.2,0,0.5,0,0.6c-0.1,1.4-1.6,2-3.2,2
				c-1.9,0-3.8-0.9-3.8-2.5c0,0,0,0,0,0c0-1.6,1.6-2.2,3.8-2.2c0.5,0,1,0,1.6,0.1c0-0.6-0.1-1.6-0.1-2.3c-0.1,0-0.2,0-0.3,0
				c-2.7,0-4.1-0.7-4.6-2c0-0.1,0-0.1,0-0.1c0-0.1,0-0.1,0.1-0.1s0.1,0,0.1,0.1c0.7,0.5,2,0.9,3.7,0.9c0.3,0,0.7,0,1,0
				c0-0.6,0-1.4,0-1.9c-3.2,0-4-0.8-4.4-1.9c0-0.1,0-0.1,0-0.2c0-0.1,0-0.1,0.1-0.1s0.1,0,0.2,0.1c0.4,0.4,1.5,0.7,3,0.7
				c0.4,0,0.8,0,1.2-0.1c0-0.4,0-0.9,0-1.2c0-0.7-0.1-1.5-1-1.8c-0.3-0.1-0.3-0.2-0.1-0.4c0.2-0.2,0.6-0.3,1-0.3
				c0.9,0,1.9,0.4,2,1.2c0,0.1,0,0.2,0,0.2c0,0.4-0.2,0.6-0.4,1.2c0,0.2-0.1,0.6-0.1,0.8c1.6-0.2,1.8-0.7,2.2-0.7c0.2,0,0.3,0,0.4,0
				c0.8,0,1.3,0.4,1.3,0.8c0,0.4-0.4,0.8-1.3,1c-0.9,0.2-1.7,0.3-2.7,0.4c0,0.5-0.1,1.3-0.1,1.8c0.8-0.1,1.4-0.3,1.5-0.4
				c0.2-0.1,0.3-0.2,0.3-0.3c0-0.1,0-0.1-0.1-0.2c-0.1-0.2-0.2-0.3-0.4-0.5c-0.1-0.2-0.1-0.3-0.1-0.3c0,0,0.1,0,0.2,0.1
				c0.6,0.4,0.9,0.4,1.2,0.4c0.2,0,0.3,0,0.5,0c0,0,0.1,0,0.1,0c0.6,0,1,0.4,1,0.8c0,0.3-0.2,0.7-0.7,1c-0.8,0.5-2.1,0.7-3.6,0.8
				c0.1,0.9,0.1,2,0.3,2.7c1.4,0.4,2.8,1.1,3.6,1.7c0.5,0.4,0.7,0.9,0.7,1.3C104,51.5,103.6,51.9,103,51.9z M98.2,49
				c-0.8-0.3-1.8-0.6-2.7-0.6c-1.1,0-1.9,0.3-1.9,1.2v0c0,0.7,1.4,1.2,2.6,1.2c1,0,2-0.3,2-1.1C98.2,49.6,98.2,49.1,98.2,49z"/>
		</g>
		<g>
			<path class="st3" d="M120.7,40.7c-0.1,0-0.3,0-0.4,0c-0.3,0-0.6-0.1-0.9-0.1c-3.4,0-4.7,2.5-4.7,5.9c0,0.2,0,0.4,0,0.6
				c0.1,1.6,1.2,2.6,3,2.6c0.1,0,0.1,0,0.2,0c0.1,0,0.2,0,0.3,0c1.2,0,1.9,0.3,1.9,0.9c0,0,0,0.1,0,0.1c-0.1,0.7-0.6,1-1.9,1
				c-2.6,0-4.8-1.5-4.8-4.4c0-0.1,0-0.2,0-0.3c0-3.1,1.4-6,4.5-7c0.2-0.1,0.2-0.1,0.2-0.2s0-0.1-0.1-0.1c-0.1,0-0.1,0-0.2,0
				c-3,0.8-4.8,1.6-6.1,2.4c-0.6,0.4-0.9,0.8-1.6,0.8c-0.1,0-0.1,0-0.2,0c-0.9-0.1-1.8-0.8-1.8-2c0-0.1,0-0.3,0.1-0.5
				c0-0.2,0.1-0.3,0.1-0.3c0.1,0,0.1,0.1,0.2,0.2c0.2,0.2,0.5,0.3,0.8,0.3c0.4,0,0.8-0.1,1.1-0.2c1.4-0.3,4.5-1.2,7.9-1.9
				c0.9-0.2,0.9-0.4,1.7-0.4c1.1,0,1.7,0.5,1.8,1c0,0.1,0,0.2,0,0.3C122,40.3,121.5,40.7,120.7,40.7z M121.1,45.2
				c-0.2,0-0.5-0.2-0.6-0.5c-0.3-0.9-0.8-1.5-1.4-2c-0.1-0.1-0.1-0.1-0.1-0.2c0,0,0-0.1,0.1-0.1c0,0,0,0,0.1,0
				c0.9,0.1,1.8,0.6,2.3,1.4c0.1,0.3,0.2,0.5,0.2,0.7C121.6,44.9,121.4,45.2,121.1,45.2z M122.8,44c-0.2,0-0.4-0.1-0.6-0.4
				c-0.3-0.7-0.9-1.3-1.7-1.8c-0.1-0.1-0.2-0.2-0.2-0.2c0-0.1,0.1-0.1,0.3-0.1c0.9,0,1.9,0.4,2.4,1.1c0.2,0.3,0.3,0.5,0.3,0.8
				C123.3,43.7,123.1,44,122.8,44z"/>
		</g>
		<g>
			<path class="st3" d="M136,53.9h-3.5v-17h3.5c0.1,0,0.1,0,0.1,0.2c0,0.2,0,0.2-0.1,0.2c-0.3,0-1.1,0.1-1.4,0.1
				c-0.4,0-0.4,0.1-0.4,0.5c0,1.8-0.1,4.3-0.1,7.5c0,2.5,0,5.3,0.1,7.5c0,0.4,0.1,0.4,0.4,0.5c0.3,0,1.2,0.1,1.4,0.1
				c0.1,0,0.1,0,0.1,0.2C136.2,53.9,136.2,53.9,136,53.9z"/>
		</g>
		<g>
			<path class="st3" d="M158.6,46.6h-6.9c0,2,0,4,0.1,5.5c0,0.5-0.1,0.7-1,0.7c-0.1,0-0.2,0-0.2,0c-0.6,0-0.7-0.2-0.7-0.6
				c0,0,0-0.1,0-0.1c0-0.7,0.1-1.6,0.1-2.5c0-0.9,0-1.9,0-3h-5.2c-0.6,0-1.3,0-1.5,0.1c0,0-0.1,0-0.1,0c-0.1,0-0.1-0.1-0.2-0.2
				c-0.1-0.1-0.1-0.3-0.2-0.5c0,0,0-0.1,0-0.1c0,0,0-0.1,0.1-0.1s0.1,0,0.1,0c0.4,0.1,1.2,0.2,1.8,0.2h5.1c0-0.5,0-0.9,0-1.4
				c0-2.2,0-4.4-0.1-5.8h-4.4c-0.6,0-1.3,0-1.5,0.1c0,0-0.1,0-0.1,0c-0.1,0-0.2-0.1-0.2-0.1c-0.1-0.1-0.1-0.3-0.2-0.5
				c0,0,0-0.1,0-0.1c0-0.1,0-0.1,0.1-0.1c0,0,0.1,0,0.1,0c0.4,0.1,1.2,0.2,1.9,0.2h9.6c0.1,0,0.2,0,0.3-0.1c0.3-0.4,0.6-0.8,0.9-1.2
				c0-0.1,0.1-0.1,0.1-0.1c0.1,0,0.1,0,0.2,0.1c0.5,0.4,1.2,1,1.6,1.4c0.1,0.1,0.1,0.1,0.1,0.2c0,0.1-0.1,0.2-0.3,0.2h-6.2
				c-0.1,1.8-0.1,4.5-0.1,7.2h3.9c0.1,0,0.2,0,0.3-0.1c0.3-0.4,0.6-0.8,1-1.2c0-0.1,0.1-0.1,0.1-0.1c0.1,0,0.1,0,0.2,0.1
				c0.5,0.4,1.2,1.1,1.6,1.5c0.1,0.1,0.1,0.1,0.1,0.2C158.9,46.5,158.8,46.6,158.6,46.6z M147.4,45.1c-0.4,0-0.7-0.3-0.9-0.8
				c-0.3-1.2-0.5-2.5-1.9-4c-0.1-0.1-0.1-0.2-0.1-0.2c0-0.1,0-0.1,0.1-0.1c0.1,0,0.1,0,0.2,0.1c1.7,0.8,3.1,2.2,3.5,3.5
				c0.1,0.2,0.1,0.3,0.1,0.5C148.4,44.7,147.9,45.1,147.4,45.1z M157.1,41.3c-0.1,0-0.1,0-0.2,0c-0.1,0-0.1,0-0.1,0
				c-0.2,0-0.3,0.1-0.4,0.3c-0.7,1-1.7,2.7-3.4,3.9c-0.1,0.1-0.2,0.1-0.2,0.1s-0.1,0-0.1-0.1c0-0.1,0-0.2,0.1-0.3
				c1.2-1.5,1.9-3.9,2.1-5.1c0-0.1,0-0.2,0.1-0.2c0,0,0.1,0,0.2,0.1c0.5,0.2,1.4,0.6,2,0.9c0.2,0.1,0.3,0.2,0.3,0.3
				C157.5,41.2,157.4,41.3,157.1,41.3z"/>
		</g>
		<g>
			<path class="st3" d="M168.2,47.2c-1.6,1.1-3.8,2.4-5.1,3c-0.2,0.1-0.3,0.1-0.3,0.4c0,0.5-0.3,0.5-0.5,0.2c-0.2-0.5-0.6-1.5-0.7-2
				c0-0.1,0-0.1,0-0.2c0-0.1,0-0.1,0.1-0.1c0,0,0.1,0,0.1,0c0,0,0,0,0.1,0c0.6-0.1,1.3-0.2,1.9-0.3c0-1.6,0.1-3.7,0.1-5.6h-0.3
				c-0.4,0-1,0-1.3,0.1c0,0-0.1,0-0.1,0c-0.1,0-0.1-0.1-0.2-0.1c-0.1-0.1-0.1-0.3-0.2-0.5c0,0,0-0.1,0-0.1c0-0.1,0-0.1,0.1-0.1
				c0,0,0.1,0,0.1,0c0.4,0.1,1.1,0.2,1.6,0.2h0.3c0-1.7-0.1-4.2-0.2-4.6c0-0.1-0.1-0.2-0.1-0.3c0-0.1,0-0.1,0.2-0.1c0,0,0.1,0,0.1,0
				c0.5,0,1.3,0.1,1.9,0.3c0.2,0.1,0.3,0.1,0.3,0.3c0,0.1-0.1,0.2-0.3,0.3c-0.2,0.1-0.3,0.1-0.3,0.4c0,0.7,0,2.2,0,3.7
				c0.2,0,0.3,0,0.3-0.1c0.2-0.3,0.5-0.6,0.7-0.9c0.1-0.1,0.2-0.1,0.3,0c0.3,0.3,0.8,0.8,1.1,1.2c0.1,0.1,0.1,0.1,0.1,0.2
				c0,0.1-0.1,0.1-0.2,0.1h-2.2c0,1.7,0,3.5,0,5.2c0.9-0.3,1.7-0.6,2.5-0.8c0,0,0.1,0,0.1,0c0.1,0,0.1,0.1,0.1,0.1
				S168.3,47.1,168.2,47.2z M177.3,40.5c-0.3,0.2-0.4,0.2-0.4,0.6c0,2.9-0.1,7.3-0.5,9c-0.3,1.8-0.8,2.4-2.4,2.7c-0.1,0-0.1,0-0.1,0
				c-0.2,0-0.2-0.1-0.3-0.3c-0.1-1-0.2-1.2-1.8-1.7c-0.1-0.1-0.2-0.1-0.2-0.2c0-0.1,0.1-0.2,0.2-0.2c0,0,0,0,0,0
				c0.9,0.1,1.4,0.2,1.9,0.3c0.5,0,0.7-0.1,0.9-0.7c0.4-1.4,0.6-6,0.6-8.7c0-0.4,0-0.8,0-1.1h-4.7c-0.7,1.5-1.6,2.9-2.9,4
				c-0.1,0.1-0.1,0.1-0.2,0.1c-0.1,0-0.1-0.1-0.1-0.1s0-0.1,0.1-0.2c1.2-2.1,2.2-5,2.2-6.9c0-0.1,0-0.1,0-0.2c0-0.1,0-0.1,0.1-0.1
				c0,0,0.1,0,0.1,0c0.6,0.1,1.5,0.3,2.1,0.5c0.2,0.1,0.3,0.2,0.3,0.3c0,0.1-0.1,0.2-0.4,0.3c-0.3,0.1-0.4,0.1-0.4,0.3
				c-0.2,0.6-0.4,1.2-0.7,1.7h4.2c0.1,0,0.2,0,0.3-0.1c0.1-0.1,0.5-0.5,0.7-0.8c0.1-0.1,0.2-0.1,0.4,0c0.4,0.3,0.9,0.6,1.2,0.9
				c0.1,0.1,0.2,0.2,0.2,0.4C177.6,40.3,177.5,40.4,177.3,40.5z M174.8,46.3c-1.7,1.4-3.9,2.5-5.4,3.1c-0.1,0.1-0.2,0.2-0.2,0.4
				c0,0.3-0.1,0.4-0.2,0.4c-0.1,0-0.2-0.1-0.3-0.3c-0.2-0.4-0.5-1.3-0.7-1.8c0,0,0-0.1,0-0.1c0-0.1,0.2-0.1,0.4-0.1
				c1.4-0.2,4.5-1,6.4-1.9c0.1,0,0.1,0,0.1,0c0.1,0,0.1,0,0.1,0.1C174.9,46.2,174.9,46.3,174.8,46.3z M174,43.8h-3.5
				c-0.4,0-1,0-1.3,0.1c0,0-0.1,0-0.1,0c-0.1,0-0.1-0.1-0.2-0.1c-0.1-0.1-0.1-0.3-0.2-0.5c0,0,0-0.1,0-0.1c0-0.1,0-0.1,0.1-0.1
				c0,0,0.1,0,0.1,0c0.4,0.1,1.1,0.2,1.6,0.2h0.9c0.2,0,0.3,0,0.4-0.1c0.2-0.3,0.5-0.7,0.8-0.9c0,0,0.1-0.1,0.1-0.1s0.1,0,0.1,0.1
				c0.4,0.3,0.9,0.7,1.3,1.2c0.1,0.1,0.1,0.1,0.1,0.2C174.2,43.8,174.2,43.8,174,43.8z"/>
		</g>
		<g>
			<path class="st3" d="M186.7,51.7c-3.2,0-5.2-1.5-5.2-3c0-0.6,0.2-1.1,0.9-1.1c1.8,0,0.1,3.5,4.3,3.5c1.7,0,3.5-1.1,3.5-2.9
				c0-2.3-2.2-3.5-4.8-3.5c0,0-0.1,0-0.1,0c-0.3,0-0.4-0.1-0.4-0.3c0-0.3,0.1-0.3,0.5-0.3c2.3,0,4.5-0.8,4.5-2.8
				c0-1.5-1.4-2.6-3.2-2.6c-1.5,0-2.8,0.6-2.8,1.3c0,0.5,0.3,0.7,0.3,1.1c0,0.6-0.4,0.9-1,0.9c-0.7,0-1-0.6-1-1.1
				c0-1.4,2.1-2.9,4.7-2.9c3,0,4.9,1.4,4.9,3.2c0,2-2,3.1-3.9,3.2c-0.2,0-0.3,0-0.3,0.1c0,0,0.1,0.1,0.3,0.1c2.3,0,4.4,1.5,4.4,3.5
				C192.1,50.4,189.9,51.7,186.7,51.7z"/>
		</g>
		<g>
			<path class="st3" d="M209.8,39.2c-0.3,0.2-0.5,0.3-0.5,0.5c0,1,0,2.9,0,5.1c0,2.4,0,5,0.1,7.2c0,0,0,0,0,0.1c0,0.5-0.3,0.6-1,0.7
				c-0.1,0-0.2,0-0.3,0c-0.5,0-0.6-0.1-0.6-0.6c0,0,0-0.1,0-0.1c0-0.4,0-0.7,0-1.1h-7.4c0,0.3,0,0.7,0,1c0,0.6-0.2,0.7-1,0.8
				c-0.1,0-0.1,0-0.2,0c-0.5,0-0.7-0.1-0.7-0.6c0,0,0-0.1,0-0.1c0.1-2.6,0.2-6.1,0.2-9c0-2.6,0-4.6-0.2-5c-0.1-0.2-0.1-0.3-0.1-0.4
				c0-0.1,0-0.1,0.1-0.1c0.1,0,0.1,0,0.2,0.1c0.7,0.3,2,0.8,2,0.8h6.6c0.2,0,0.2,0,0.3-0.1c0.2-0.2,0.6-0.5,0.8-0.7
				c0.1-0.1,0.2-0.1,0.4,0c0.3,0.2,0.9,0.6,1.3,0.9c0.1,0.1,0.3,0.2,0.3,0.4C210,39,210,39.1,209.8,39.2z M207.5,38.9h-7.3
				c0,1.3,0,3.2,0,5.2h7.4C207.5,42.1,207.5,40.1,207.5,38.9z M200.1,44.5c0,0.6,0,1.1,0,1.7c0,1.4,0,2.8,0,4.4h7.4
				c0-2.1,0-4.1,0-6.1H200.1z"/>
		</g>
		<g>
			<path class="st3" d="M218.6,53.9c-0.1,0-0.1,0-0.1-0.2c0-0.2,0-0.2,0.1-0.2c0.3,0,1.1-0.1,1.4-0.1c0.4,0,0.4-0.1,0.4-0.5
				c0-2.2,0.1-5,0.1-7.5c0-3.2-0.1-5.8-0.1-7.5c0-0.4-0.1-0.4-0.4-0.5c-0.3,0-1.2-0.1-1.4-0.1c-0.1,0-0.1,0-0.1-0.2
				c0-0.2,0-0.2,0.1-0.2h3.5v17H218.6z"/>
		</g>
		<g>
			<path class="st3" d="M237.8,42.2h-2.4c0,0.4,0,0.8,0,1.3c1.1,0.6,1.9,1.4,2.1,2.4c0,0,0,0.1,0,0.1c0,0.5-0.4,0.8-0.7,0.8
				c-0.3,0-0.5-0.2-0.6-0.6c-0.1-0.7,0-1.4-0.7-2.4c0,3.1,0,6.5,0.1,8.4c0,0.4-0.2,0.6-0.9,0.6c-0.1,0-0.1,0-0.2,0
				c-0.5,0-0.6-0.1-0.6-0.5c0,0,0,0,0-0.1c0.1-1.6,0.1-4.1,0.1-6.6c-0.6,1.3-1.6,2.6-2.4,3.4c-0.1,0.1-0.1,0.1-0.1,0.1
				s-0.1,0-0.1-0.1c0,0,0-0.1,0-0.1c1-1.8,1.9-4,2.4-6.8h-0.3c-0.5,0-1.3,0-1.5,0.1c0,0-0.1,0-0.1,0c-0.1,0-0.2,0-0.2-0.1
				c-0.1-0.1-0.1-0.3-0.2-0.5c0,0,0-0.1,0-0.1c0-0.1,0-0.1,0.1-0.1c0,0,0.1,0,0.1,0c0.4,0.1,1.3,0.2,1.8,0.2h0.5c0-1,0-1.8,0-2.6
				c-0.7,0.1-1.4,0.2-2.1,0.2c0,0-0.1,0-0.1,0c-0.1,0-0.2,0-0.2-0.1c0-0.1,0.1-0.1,0.2-0.2c1.7-0.5,3.5-1.4,4.2-2.1
				c0.1-0.1,0.1-0.1,0.2-0.1c0,0,0.1,0,0.1,0.1c0.4,0.3,1,0.8,1.4,1.2c0.1,0.1,0.2,0.2,0.2,0.3c0,0.1-0.1,0.2-0.3,0.2
				c-0.1,0-0.1,0-0.2,0c-0.1,0-0.2-0.1-0.3-0.1c-0.1,0-0.2,0-0.3,0.1c-0.3,0.1-0.7,0.2-1.2,0.3c0,0.8,0,1.8,0,2.9h0.2
				c0,0,0.1,0,0.1,0c0.1,0,0.1-0.1,0.2-0.1c0.2-0.3,0.4-0.6,0.6-0.9c0-0.1,0.1-0.1,0.1-0.1c0,0,0.1,0,0.2,0.1
				c0.4,0.3,0.8,0.7,1.1,1.1c0.1,0.1,0.1,0.1,0.1,0.2C238,42.1,237.9,42.2,237.8,42.2z M247.1,52h-8.3c-0.6,0-1.3,0-1.6,0.1
				c0,0-0.1,0-0.1,0c-0.1,0-0.2,0-0.2-0.1c-0.1-0.1-0.1-0.3-0.2-0.5c0,0,0-0.1,0-0.1c0-0.1,0-0.1,0.1-0.1c0,0,0.1,0,0.1,0
				c0.4,0.1,1.2,0.2,1.9,0.2h2.3c0-0.6,0-1.9,0-3.1c0,0-1,0-1,0c-0.6,0-1.3,0-1.5,0.1c0,0,0,0-0.1,0c-0.1,0-0.2,0-0.2-0.1
				c-0.1-0.1-0.1-0.3-0.2-0.5c0,0,0-0.1,0-0.1c0-0.1,0-0.1,0.1-0.1c0,0,0.1,0,0.1,0c0.4,0.1,1.2,0.2,1.8,0.2c0,0,1,0,1,0
				c0-0.3,0-0.6,0-0.9c0-0.7,0-1.3,0-1.7h-1.6c-0.6,0-1.3,0-1.6,0.1c0,0-0.1,0-0.1,0c-0.1,0-0.1-0.1-0.2-0.1
				c-0.1-0.1-0.1-0.3-0.2-0.5c0,0,0-0.1,0-0.1c0-0.1,0-0.1,0.1-0.1c0,0,0.1,0,0.1,0c0.4,0.1,1.2,0.2,1.9,0.2h4.8
				c0.1,0,0.3,0,0.3-0.1c0.2-0.3,0.6-0.8,0.8-1.1c0.1-0.1,0.2-0.1,0.3,0c0.4,0.3,1,0.8,1.4,1.3c0.1,0.1,0.1,0.1,0.1,0.2
				c0,0.1-0.1,0.1-0.2,0.1h-4.1c0,0.6,0,1.5,0,2.6h1.1c0.1,0,0.2,0,0.3-0.1c0.2-0.3,0.5-0.6,0.7-1c0.1-0.1,0.2-0.1,0.3,0
				c0.5,0.4,0.9,0.8,1.3,1.2c0.1,0.1,0.1,0.1,0.1,0.2c0,0.1-0.1,0.1-0.2,0.1h-3.5c0,0.4,0,0.7,0,1.1c0,0.9,0,1.6,0,2.1h1.4
				c0.1,0,0.2,0,0.3-0.1c0.2-0.3,0.6-0.8,0.9-1.1c0.1-0.1,0.1-0.1,0.1-0.1c0.1,0,0.1,0,0.2,0.1c0.4,0.3,1.1,0.9,1.5,1.3
				c0.1,0.1,0.1,0.1,0.1,0.2C247.3,52,247.3,52,247.1,52z M246,38.8c-0.3,0.2-0.4,0.2-0.4,0.4c0,1.2,0,2.3,0,3.8c0,0,0,0,0,0.1
				c0,0.4-0.2,0.5-0.9,0.6c-0.1,0-0.1,0-0.2,0c-0.4,0-0.6-0.1-0.6-0.5c0,0,0,0,0-0.1c0-0.1,0-0.1,0-0.2h-3.8c0,0.1,0,0.2,0,0.2
				c0,0,0,0,0,0c0,0.5-0.3,0.5-0.9,0.6c-0.1,0-0.1,0-0.2,0c-0.4,0-0.7-0.1-0.7-0.5c0,0,0-0.1,0-0.1c0.1-1,0.1-2.4,0.1-3.5
				c0-0.8,0-1.5-0.1-1.8c-0.1-0.1-0.1-0.2-0.1-0.3c0-0.1,0-0.1,0.1-0.1c0,0,0.1,0,0.2,0c0.6,0.3,1.8,0.8,1.8,0.8h3.3
				c0.2,0,0.2,0,0.3-0.1c0.2-0.2,0.5-0.5,0.6-0.6c0.1-0.1,0.1-0.1,0.2-0.1c0.1,0,0.1,0,0.2,0.1c0.3,0.2,0.8,0.5,1.2,0.8
				c0.1,0.1,0.2,0.2,0.2,0.3S246.2,38.7,246,38.8z M244,38.7h-3.8c0,0.7,0,1.5,0,2.5c0,0.4,0,0.8,0,1.3h3.8c0-0.8,0-1.7,0-2.4
				C244,39.6,244,39.1,244,38.7z"/>
		</g>
		<g>
			<path class="st3" d="M265.9,39.3h-12.7c0,0.3,0,0.8,0,1.3c0,0.3,0,0.6,0,0.9h2.6c0-0.5,0-1-0.1-1.2c0-0.3-0.1-0.4-0.1-0.5
				c0-0.1,0-0.1,0.1-0.1c0,0,0.1,0,0.1,0c0.5,0.1,1.1,0.2,1.8,0.3c0.2,0,0.3,0.1,0.3,0.2c0,0.1-0.1,0.2-0.4,0.3
				c-0.2,0.1-0.3,0.2-0.3,0.4c0,0.1,0,0.3,0,0.6h3.5c0-0.5,0-1-0.1-1.2c0-0.3-0.1-0.4-0.1-0.5c0-0.1,0-0.1,0.1-0.1c0,0,0.1,0,0.1,0
				c0.5,0.1,1.1,0.2,1.8,0.3c0.2,0,0.3,0.1,0.3,0.2c0,0.1-0.1,0.2-0.4,0.3c-0.2,0.1-0.3,0.2-0.3,0.4c0,0.2,0,0.4,0,0.6h0.9
				c0.1,0,0.2-0.1,0.3-0.1c0.2-0.2,0.4-0.6,0.7-0.9c0.1-0.1,0.1-0.1,0.1-0.1c0.1,0,0.1,0,0.2,0.1c0.4,0.3,1.2,0.9,1.4,1.1
				c0.2,0.2,0.1,0.3-0.2,0.3h-3.5c0,0.8,0,1.7,0,2.6c0,0,0,0,0,0.1c0,0.4-0.2,0.5-0.9,0.6c-0.1,0-0.2,0-0.3,0
				c-0.4,0-0.5-0.1-0.5-0.4c0,0,0-0.1,0-0.1c0-0.1,0-0.1,0-0.2h-3.4c0,0.1,0,0.2,0,0.3c0,0,0,0,0,0.1c0,0.4-0.2,0.5-0.8,0.6
				c-0.1,0-0.2,0-0.3,0c-0.4,0-0.6-0.1-0.6-0.5c0,0,0-0.1,0-0.1c0.1-0.5,0.1-1.4,0.1-2.2c0-0.3,0-0.5,0-0.8h-2.6
				c0,1.6-0.1,3.4-0.3,4.7c-0.3,2.4-1.3,4.6-2.5,5.9c-0.1,0.1-0.2,0.2-0.3,0.2c-0.1,0-0.1,0-0.1-0.1c0-0.1,0-0.2,0.1-0.3
				c0.6-1.4,1-3.3,1.3-5.9c0.1-1,0.1-2.7,0.1-4.3c0-1.7-0.1-3.3-0.1-3.7c0-0.2-0.1-0.3-0.1-0.4c0-0.1,0-0.1,0.1-0.1
				c0,0,0.1,0,0.2,0.1c0.5,0.3,1.2,0.6,1.8,1h4.4c0-0.2,0-0.4,0-0.5c0-0.4,0-0.6-0.1-0.9c-0.1-0.2-0.1-0.4-0.1-0.5
				c0-0.1,0-0.1,0.1-0.1c0,0,0.1,0,0.1,0c0.6,0.1,1.2,0.2,1.8,0.3c0.3,0.1,0.4,0.2,0.4,0.3c0,0.1-0.1,0.2-0.4,0.3
				c-0.2,0.1-0.2,0.2-0.2,0.5c0,0.2,0,0.4,0,0.6h3.6c0.1,0,0.2,0,0.3-0.1c0.3-0.3,0.6-0.7,0.9-1.1c0.1-0.1,0.1-0.1,0.2-0.1
				c0,0,0.1,0,0.2,0.1c0.6,0.5,1.1,0.9,1.5,1.3c0.1,0.1,0.1,0.1,0.1,0.2S266.1,39.3,265.9,39.3z M266,51c-0.8,0.3-0.9,0.8-1.1,1.5
				c0,0.2-0.1,0.2-0.2,0.2c0,0-0.1,0-0.1,0c-2-0.4-3.7-0.9-5.3-2c-2,1-4.3,1.6-7.2,2c0,0-0.1,0-0.1,0c-0.2,0-0.2-0.1-0.2-0.1
				c0-0.1,0.1-0.2,0.3-0.2c2.4-0.6,4.5-1.4,6.1-2.6c-0.8-0.8-1.6-1.8-2.4-3.2h-0.2c-0.2,0-0.5,0-0.6,0c-0.4,0-0.7,0-0.9,0.1
				c0,0-0.1,0-0.1,0c-0.1,0-0.1-0.1-0.2-0.1c-0.1-0.1-0.1-0.3-0.2-0.5c0-0.1,0-0.1,0-0.1c0,0,0-0.1,0.1-0.1c0,0,0.1,0,0.1,0
				c0.4,0.1,1.2,0.2,1.8,0.2h5.6c0.1,0,0.2,0,0.3-0.1c0.2-0.2,0.5-0.5,0.7-0.6c0.1-0.1,0.1-0.1,0.2-0.1c0.1,0,0.1,0,0.2,0.1
				c0.4,0.3,1,0.7,1.4,1c0.2,0.1,0.3,0.3,0.3,0.4c0,0.1-0.1,0.3-0.4,0.3c-0.4,0.1-0.5,0.1-0.7,0.3c-0.9,1-1.7,1.8-2.5,2.4
				c1.5,0.5,3.3,0.7,5.1,0.7c0.1,0,0.2,0,0.3,0c0.1,0,0.2,0.1,0.2,0.2C266.2,50.9,266.1,51,266,51z M256.2,46.6
				c0.9,1.2,1.8,2,2.8,2.6c0.9-0.8,1.7-1.6,2.3-2.6C261.4,46.6,256.2,46.6,256.2,46.6z M260.8,42h-3.5c0,0.6,0,1.4,0,2.2h3.4
				c0-0.5,0-1,0-1.6C260.8,42.4,260.8,42.2,260.8,42z"/>
		</g>
		<g>
			<path class="st3" d="M271.6,51.7c-0.7,0-1.2-0.6-1.2-1.2c0-0.6,0.6-1.2,1.2-1.2s1.2,0.6,1.2,1.2
				C272.8,51.1,272.2,51.7,271.6,51.7z M272.3,43.4c-0.2,1.5-0.3,2.8-0.5,4.5c0,0.2-0.1,0.3-0.3,0.3s-0.3-0.1-0.3-0.3
				c-0.1-1.7-0.3-3-0.5-4.5c-0.2-1.9-0.3-3.1-0.4-4.2c0,0,0-0.1,0-0.1c0-0.6,0.5-1.1,1.1-1.1c0.6,0,1.1,0.5,1.1,1.1c0,0,0,0.1,0,0.1
				C272.6,40.3,272.5,41.5,272.3,43.4z"/>
		</g>
	</g>
</g>
</svg>
