<?xml version="1.0" encoding="utf-8"?>
<!-- Generator: Adobe Illustrator 26.3.1, SVG Export Plug-In . SVG Version: 6.00 Build 0)  -->
<svg version="1.1" id="レイヤー_1" xmlns="http://www.w3.org/2000/svg" xmlns:xlink="http://www.w3.org/1999/xlink" x="0px"
	 y="0px" viewBox="0 0 334 95.1" style="enable-background:new 0 0 334 95.1;" xml:space="preserve">
<style type="text/css">
	.st0{fill:#987744;}
	.st1{fill:#DC3023;}
	.st2{fill:#4D4D4D;}
</style>
<g>
	<g>
		<g>
			<g>
				<path class="st0" d="M11.3,14.5c-0.9,0.2-2.1,0.3-3.4,0.3c-2,0-4.2-0.3-5.4-1C1.5,13.1,1,12.1,1,11c0-1,0.4-1.9,1.2-2.4
					c0.2-0.1,0.3-0.2,0.3-0.2c0.1,0,0.1,0.1-0.1,0.3c-0.4,0.5-0.5,1-0.5,1.5c0,0.9,0.6,1.7,1.6,2.1c0.8,0.4,2,0.5,3.3,0.5
					c1.4,0,2.8-0.1,4-0.3c0.1,0,0.3,0,0.4,0c0.9,0,1.4,0.4,1.4,0.9C12.5,13.9,12.1,14.3,11.3,14.5z M9.6,4.3L9.6,4.3
					c-1,0-2,0.4-3.9,1.4c-0.1,0-0.1,0-0.2,0s-0.1,0-0.1-0.1s0-0.1,0.1-0.2C6,4.9,6.4,4.5,6.7,4.2C6.8,4.1,6.8,4,6.8,4
					c0-0.1-0.1-0.1-0.2-0.1H6.5c-0.4,0-0.7,0-1,0c-2.1,0-2.8-0.5-3.2-1.3C2.2,2.5,2.2,2.4,2.2,2.3s0-0.1,0.1-0.1s0.1,0,0.2,0.1
					c0.5,0.3,1,0.3,1.7,0.3c1.5,0,3.4-0.5,4.6-0.6C8.9,2,8.9,2,9,2c1.3,0,1.9,0.5,1.9,1.2C11,4,10.2,4.3,9.6,4.3z M12.3,7.6
					c-0.2,0-0.5-0.2-0.6-0.5c-0.3-0.8-0.8-1.5-1.4-2C10.2,5,10.2,5,10.2,4.9l0.1-0.1h0.1c0.9,0.1,1.8,0.6,2.3,1.4
					c0.1,0.3,0.2,0.5,0.2,0.7C12.8,7.4,12.6,7.6,12.3,7.6z M13.9,6.4c-0.2,0-0.4-0.1-0.6-0.4c-0.4-0.7-1-1.3-1.7-1.7
					c-0.1-0.1-0.2-0.1-0.2-0.2C11.4,4,11.5,4,11.7,4c0.9,0,1.9,0.4,2.4,1.1c0.2,0.3,0.3,0.5,0.3,0.7C14.4,6.2,14.2,6.4,13.9,6.4z"/>
			</g>
			<g>
				<path class="st0" d="M31.2,15.9c0,0.1-0.1,0.2-0.2,0.2h-0.1c-3.1-0.8-4.7-2-6.3-5.2h-0.2c-1.2,3.4-3.5,4.5-7.9,5.2
					c0,0,0,0-0.1,0c-0.2,0-0.2-0.2,0-0.3c3.5-1.2,5.2-2.6,6.1-4.9h-3.8c-0.6,0-1.3,0-1.5,0.1h-0.1c-0.1,0-0.1-0.1-0.2-0.1
					c-0.1-0.1-0.1-0.3-0.2-0.5v-0.1c0,0,0-0.1,0.1-0.1s0.1,0,0.1,0c0.4,0.1,1.2,0.2,1.8,0.2h4c0.2-0.6,0.3-1.3,0.4-2
					c0-0.2,0-0.3,0.1-0.3h0.1c0.7,0.1,1.3,0.2,1.9,0.4c0.2,0.1,0.4,0.2,0.4,0.3S25.5,9,25.2,9.1c-0.2,0.1-0.3,0.1-0.3,0.3
					c-0.1,0.4-0.2,0.7-0.3,1H29c0.1,0,0.2,0,0.3-0.1c0.3-0.4,0.6-0.8,0.9-1.2C30.3,9,30.3,9,30.3,9s0.1,0,0.2,0.1
					c0.5,0.4,1.2,1,1.6,1.4c0.1,0.1,0.1,0.1,0.1,0.2c0,0.1-0.1,0.1-0.3,0.1H25c1.8,2.3,3.9,2.9,7.3,3.2c0.1,0,0.2,0.1,0.2,0.1
					s-0.1,0.1-0.2,0.2C31.5,14.6,31.3,15.2,31.2,15.9z M24.4,2.5h-3c0,0.5,0,1.2,0,1.9h0.3c0.1,0,0.2,0,0.3-0.1
					c0.2-0.2,0.5-0.6,0.7-0.9l0.1-0.1c0.1,0,0.1,0,0.1,0.1c0.3,0.2,1,0.8,1.3,1.1c0.1,0.1,0.1,0.1,0.1,0.1c0,0.1-0.1,0.1-0.2,0.1
					h-2.8c0,0.6,0,1.3,0,2c1-0.1,2-0.3,2.8-0.5h0.1c0.1,0,0.2,0.1,0.2,0.1c0,0.1,0,0.1-0.1,0.2c-1.8,0.9-4.3,1.7-6.1,2.2
					c-0.2,0.1-0.3,0.2-0.3,0.5c0,0.2-0.1,0.3-0.3,0.3c-0.1,0-0.2-0.1-0.3-0.2c-0.2-0.5-0.5-1.3-0.7-2V7.2c0-0.1,0-0.1,0.1-0.1
					s0.1,0,0.2,0c0.7,0,1.7-0.1,2.8-0.2c0-0.8,0-1.5,0-2.2h-0.3c-0.5,0-1.4,0-1.6,0.1h-0.1c-0.1,0-0.1-0.1-0.2-0.1
					c-0.1-0.1-0.1-0.3-0.2-0.4V4.2c0-0.1,0-0.1,0.1-0.1h0.1c0.5,0.2,1.5,0.3,2,0.3h0.3c0-0.7,0-1.4,0-1.9h-1c-0.6,0-1.3,0-1.6,0.1
					c0,0,0,0-0.1,0s-0.2,0-0.2-0.1c-0.1-0.1-0.1-0.3-0.2-0.4c0-0.1,0-0.1,0-0.1s0-0.1,0.1-0.1s0.1,0,0.1,0c0.4,0.1,1.2,0.2,1.9,0.2
					h1c0-0.7,0-1.2,0-1.3c0-0.3-0.1-0.4-0.1-0.5s0-0.1,0.1-0.1h0.1c0.5,0,1.1,0.1,1.8,0.3c0.2,0,0.3,0.1,0.3,0.3
					c0,0.1-0.1,0.2-0.3,0.3c-0.3,0.1-0.3,0.3-0.3,0.4c0,0.2,0,0.4,0,0.6H22c0.1,0,0.2,0,0.3-0.1c0.2-0.3,0.4-0.5,0.7-0.9
					C23,1,23.1,1,23.1,1c0.1,0,0.1,0,0.2,0.1c0.5,0.3,1,0.8,1.3,1.1C24.7,2.3,24.7,2.5,24.4,2.5z M31.9,1.8c0,0.1-0.1,0.2-0.3,0.3
					c-0.3,0.1-0.4,0.2-0.4,0.6c-0.1,1-0.2,3-0.4,4c-0.2,1.1-0.5,1.6-1.9,1.9c-0.1,0-0.1,0-0.2,0c-0.2,0-0.2-0.1-0.2-0.3
					c-0.1-0.7-0.3-1-1.4-1.4C27,6.9,27,6.8,27,6.7c0-0.1,0.1-0.1,0.1-0.1s0,0,0.1,0c0.5,0.1,1.1,0.1,1.5,0.1c0.3,0,0.5-0.1,0.5-0.5
					c0.3-1,0.4-3,0.5-4.5h-1.6c-0.3,2.9-1.3,5.2-4.1,6.5h-0.1c-0.1,0-0.1,0-0.1-0.1c0,0,0-0.1,0.1-0.1c1.7-1.6,2.5-3.9,2.6-6.3
					c-0.6,0-1.2,0-1.5,0.1c0,0,0,0-0.1,0s-0.2,0-0.2-0.1c-0.1-0.1-0.1-0.3-0.2-0.4c0-0.1,0-0.1,0-0.1s0-0.1,0.1-0.1s0.1,0,0.1,0
					c0.4,0.1,1.2,0.2,1.8,0.2h2.8c0.2,0,0.3,0,0.4-0.1c0.2-0.2,0.5-0.5,0.6-0.7c0.1-0.1,0.1-0.1,0.1-0.1c0.1,0,0.1,0,0.2,0.1
					c0.3,0.2,0.8,0.6,1.2,0.9C31.9,1.6,31.9,1.7,31.9,1.8z M24.5,10.7C24.5,10.7,24.5,10.6,24.5,10.7C24.5,10.6,24.5,10.6,24.5,10.7
					z"/>
			</g>
			<g>
				<path class="st0" d="M50.9,4.3c-0.3,0.2-0.4,0.2-0.4,0.6c-0.1,2.9-0.3,7-0.6,8.6c-0.3,1.7-0.7,2.4-2.6,2.6
					c-0.3,0-0.4-0.1-0.4-0.3c-0.1-1-0.2-1.1-1.9-1.7c-0.1,0-0.2-0.1-0.2-0.2s0.1-0.1,0.2-0.1l0,0c1,0.1,1.8,0.2,2.2,0.2
					c0.1,0,0.1,0,0.2,0c0.4,0,0.6-0.1,0.7-0.7c0.3-1.8,0.6-6.7,0.6-9.4h-4c-0.6,1.2-1.4,2.4-2.5,3.4c0.2,0.3,0.3,0.6,0.3,1v0.1
					c0,0.6-0.4,0.9-0.8,0.9c-0.3,0-0.5-0.2-0.6-0.6C41,8.4,41,8.1,41,7.7c-0.4,0.1-0.9,0.3-1.4,0.4c0,2.5,0,5.2,0.1,7.2v0.1
					c0,0.4-0.1,0.5-0.8,0.6c-0.1,0-0.1,0-0.2,0c-0.5,0-0.6-0.2-0.6-0.5v-0.1c0.1-1.4,0.1-3,0.1-4.6c-0.1,0-0.1,0-0.2,0.1
					c-0.2,0-0.3,0.1-0.4,0.3c-0.5,1.3-1.2,2.8-2.2,3.9c-0.1,0.1-0.1,0.1-0.2,0.1c-0.1,0-0.1-0.1-0.1-0.1V15c0.5-1.5,1-3.7,1-4.9V10
					c0-0.1,0-0.1,0.1-0.1h0.1c0.6,0.2,1.2,0.4,1.7,0.5c0.1,0,0.1,0.1,0.1,0.1c0-0.2,0-0.4,0-0.6c0-0.4,0-0.8,0-1.3
					c-0.6,0.1-1.2,0.3-1.7,0.4c-0.2,0-0.2,0.1-0.2,0.3s-0.1,0.3-0.3,0.3c-0.1,0-0.2-0.1-0.3-0.3c-0.2-0.6-0.3-1.2-0.4-1.7
					c0-0.2,0-0.2,0.1-0.2s0.1,0,0.2,0c0.2,0,0.5,0.1,0.7,0.1s0.5,0,0.8,0c1.2-1.5,2.7-3.9,3.1-5.3c0-0.1,0-0.2,0.1-0.2h0.1
					c0.6,0.2,1.2,0.5,1.8,0.7c0.2,0.1,0.3,0.2,0.3,0.3s-0.1,0.2-0.3,0.2c0,0,0,0-0.1,0s-0.1,0-0.1,0c-0.2,0-0.3,0-0.4,0.2
					c-0.9,1.1-2.4,2.8-3.9,4c1,0,2.2,0,3.4-0.1c-0.1-0.5-0.3-0.9-0.7-1.4l-0.1-0.1c0-0.1,0-0.1,0.1-0.1h0.1c0.7,0.4,1.2,0.8,1.6,1.2
					c1.3-2.2,1.8-5,1.8-6.6c0-0.1,0-0.1,0-0.2c0-0.1,0-0.1,0.1-0.1H44c0.6,0.1,1.5,0.3,2.1,0.5c0.2,0,0.3,0.2,0.3,0.3
					S46.3,1,46.1,1.1c-0.3,0.1-0.4,0.1-0.5,0.3c-0.2,0.6-0.4,1.3-0.7,2h3.5c0.1,0,0.2,0,0.3-0.1c0.2-0.2,0.5-0.5,0.6-0.7
					c0.1-0.1,0.2-0.1,0.3,0c0.4,0.2,0.9,0.6,1.2,0.9C50.9,3.6,51,3.7,51,3.9S51.1,4.2,50.9,4.3z M39.8,1.2c-0.3,0-0.4,0.1-0.4,0.2
					c-0.6,0.7-1.2,1.4-1.9,1.9c0.4,0.2,0.7,0.5,0.9,0.8c0.1,0.1,0.1,0.3,0.2,0.4c0,0.1,0,0.2,0,0.3c0,0.6-0.4,0.9-0.8,0.9
					c-0.2,0-0.5-0.1-0.6-0.5c-0.3-0.7-0.3-1.6-1.3-2.3c-0.1-0.1-0.1-0.1-0.1-0.2c0-0.1,0.1-0.1,0.1-0.1H36c0.4,0.1,0.8,0.3,1.1,0.4
					c0.4-0.9,0.6-1.9,0.7-2.7c0-0.1,0-0.2,0.1-0.2H38c0.6,0.1,1.4,0.4,1.9,0.5C40.3,0.9,40.3,1.2,39.8,1.2z M41.9,14.2
					c-0.3,0-0.6-0.3-0.7-0.8c-0.1-0.9,0-2-0.7-3.3c0-0.1-0.1-0.1-0.1-0.1c0-0.1,0.1-0.1,0.1-0.1s0.1,0,0.2,0.1c1.1,0.8,2,2.1,2,3.2
					c0,0,0,0,0,0.1C42.7,13.8,42.3,14.2,41.9,14.2z M45.9,10.5c-0.3,0-0.7-0.2-0.8-0.7C45,8.9,45,7.9,44,6.8
					c-0.1-0.1-0.1-0.1-0.1-0.2c0-0.1,0-0.1,0.1-0.1c0,0,0.1,0,0.2,0.1c1.5,0.8,2.4,1.6,2.6,2.6c0,0.1,0,0.2,0,0.3
					C46.9,10.1,46.4,10.5,45.9,10.5z"/>
			</g>
			<g>
				<path class="st0" d="M59.7,5.2c-0.3,0-0.4,0-0.6,0.3c-0.4,0.6-0.8,1.1-1.2,1.6c0,1.4,0,2.9,0,4.3c0,1.4,0,2.8,0.1,4.1l0,0
					c0,0.4-0.3,0.6-0.9,0.6c-0.1,0-0.1,0-0.2,0c-0.5,0-0.6-0.1-0.6-0.5v-0.1c0.1-1.5,0.1-3.1,0.1-4.6c0-0.8,0-1.5,0-2.2
					c-0.6,0.5-1.2,0.9-1.9,1.3c-0.1,0-0.1,0.1-0.2,0.1c-0.1,0-0.1-0.1-0.1-0.1c0-0.1,0-0.1,0.1-0.2c1.8-1.7,3-3.9,3.5-5.7
					c0.1-0.2,0.1-0.2,0.1-0.2H58c0.7,0.2,1.2,0.5,1.9,0.8c0.2,0.1,0.3,0.2,0.3,0.3C60.1,5,59.9,5.2,59.7,5.2z M59.4,1.4
					C59.3,1.4,59.3,1.4,59.4,1.4c-0.2,0-0.3,0-0.4,0.2c-1.1,1.4-2.6,2.7-4.5,3.5c-0.1,0-0.1,0.1-0.2,0.1c-0.1,0-0.1,0-0.1-0.1
					s0-0.2,0.1-0.2c1.5-1.3,2.6-3.1,3-4.3c0.1-0.1,0-0.3,0.1-0.3c0,0,0,0,0.1,0c0.7,0.2,1.3,0.4,2,0.6c0.2,0.1,0.3,0.2,0.3,0.3
					S59.7,1.4,59.4,1.4z M70.1,14.4c-0.6,0.3-0.8,0.7-0.9,1.4c0,0.2-0.1,0.3-0.2,0.3h-0.1c-1.5-0.4-2.9-1-4.2-2.1
					c-1.5,1-3.5,1.6-6,2.1h-0.1c-0.1,0-0.2-0.1-0.2-0.1c0-0.1,0.1-0.2,0.3-0.2c2.1-0.7,3.8-1.4,5.1-2.6c-0.6-0.7-1.1-1.6-1.5-2.7
					c-0.8,1-1.9,1.8-3.3,2.4c-0.1,0-0.1,0-0.1,0c-0.1,0-0.1-0.1-0.1-0.1s0-0.1,0.1-0.2c1.6-1.3,2.7-3,3.2-4.4
					c-0.5,0.1-1.1,0.1-1.5,0.2c-0.2,0-0.3,0.2-0.3,0.4S60.1,9.2,60,9.2s-0.2-0.1-0.3-0.3c-0.2-0.5-0.3-1.1-0.5-1.7
					c0-0.1,0-0.1,0-0.2c0-0.1,0-0.1,0.1-0.1h0.1c0.3,0,0.5,0.1,0.8,0.1s0.6,0,1,0c2.3-1.5,4.4-3.5,5.3-4.8C66.6,2.1,66.6,2,66.6,2
					s0.1,0,0.1,0.1c0.5,0.3,1.2,0.6,1.6,0.9c0.2,0.1,0.3,0.3,0.3,0.4s0,0-0.3,0h-0.1c-0.1,0-0.2,0-0.3,0c-0.1,0-0.2,0-0.4,0.1
					c-1.4,1.1-3.6,2.5-5.8,3.4c0.2,0,0.3,0,0.5,0c1.8,0,3.9-0.1,5.3-0.2c-0.2-0.4-0.6-0.8-1.2-1.3c-0.1-0.1-0.1-0.1-0.1-0.2
					c0-0.1,0-0.1,0.1-0.1h0.1c1.5,0.6,2.8,1.2,3.1,2.4c0,0.1,0,0.2,0,0.3c0,0.5-0.4,0.9-0.8,0.9c-0.3,0-0.5-0.2-0.7-0.5
					c-0.1-0.3-0.2-0.7-0.4-1.1c-1.2,0.3-2.6,0.5-3.9,0.7c-0.3,0.6-0.6,1.2-1,1.7H66c0.2,0,0.2,0,0.4-0.2s0.4-0.4,0.6-0.6
					c0.1-0.1,0.1-0.1,0.2-0.1s0.1,0,0.2,0.1c0.4,0.3,0.7,0.6,1.2,0.9c0.2,0.1,0.3,0.3,0.3,0.4c0,0.2-0.2,0.3-0.4,0.3
					c-0.3,0-0.4,0.1-0.5,0.3c-0.6,0.9-1.4,1.8-2.1,2.4c1.2,0.5,2.5,0.7,3.9,0.8c0.1,0,0.2,0,0.4,0c0.1,0,0.2,0.1,0.2,0.1
					C70.2,14.3,70.2,14.4,70.1,14.4z M65.1,1.3c-0.3,0-0.4,0-0.5,0.2c-0.7,0.6-1.4,1.1-2.2,1.5c0.5,0.3,0.9,0.6,1.1,1
					c0.1,0.1,0.1,0.3,0.1,0.4c0,0.5-0.4,0.9-0.8,0.9c-0.2,0-0.5-0.1-0.6-0.4c-0.4-0.6-0.6-1.5-2.1-2.2C60,2.7,60,2.6,60,2.5
					c0-0.1,0.1-0.1,0.1-0.1h0.1c0.7,0.1,1.3,0.3,1.9,0.5c0.6-0.8,1-1.9,1.2-2.4c0-0.1,0-0.2,0.1-0.2h0.1c0.6,0.1,1.4,0.4,1.8,0.5
					c0.3,0.1,0.4,0.2,0.4,0.3C65.5,1.2,65.4,1.3,65.1,1.3z M62.6,10C62.6,10.1,62.5,10.1,62.6,10c0.5,1.1,1.2,1.9,1.9,2.5
					c0.8-0.8,1.4-1.6,1.8-2.5C66.3,10,63.4,10,62.6,10z"/>
			</g>
			<g>
				<path class="st0" d="M80.8,14.6c-0.2,0-0.4,0-0.6,0s-0.3-0.1-0.3-0.1s0.1-0.1,0.3-0.1c3.9-0.4,6.3-3.1,6.5-6.3
					c0-0.1,0-0.3,0-0.4c0-2.8-1.8-4.8-5-4.8c-0.3,0-0.7,0-1.1,0.1c0.6,0.5,0.8,1.4,0.8,1.9V5c-0.1,2.7-1.4,5.7-3.1,7.6
					c-0.8,0.9-1.7,1.3-2.4,1.3c-0.8,0-1.5-0.6-1.8-1.9c-0.2-0.7-0.3-1.4-0.3-2c0-4.1,3.1-7,6.4-7.5c0.5-0.1,1-0.1,1.5-0.1
					c3.9,0,6.7,2.6,6.7,5.7c0,0.1,0,0.2,0,0.2C88.4,12.1,85.8,14.6,80.8,14.6z M80.3,3.1c-3.2,0.6-5,3.6-5,6.3
					c0,0.6,0.1,1.2,0.3,1.7c0.2,0.6,0.5,0.8,0.8,0.8c0.2,0,0.5-0.1,0.8-0.4c1.4-1.3,2.9-3.8,3.4-6.5c0-0.2,0.1-0.4,0.1-0.5
					C80.6,3.9,80.5,3.4,80.3,3.1z"/>
			</g>
			<g>
				<path class="st0" d="M97.9,1.1c0,0.1-0.1,0.2-0.4,0.3c-0.2,0-0.3,0.1-0.4,0.3c-0.5,1-0.9,2-1.5,3.1C95.9,4.9,96.2,5,96.2,5
					c0.2,0.1,0.3,0.2,0.3,0.3s-0.1,0.2-0.3,0.3c-0.1,0-0.2,0.2-0.2,0.3c0,1.1,0,2.4,0,3.9c0,1.8,0,3.8,0.1,5.7v0.1
					c0,0.5-0.2,0.5-0.9,0.6c-0.1,0-0.2,0-0.3,0c-0.5,0-0.7-0.2-0.7-0.6c0,0,0,0,0-0.1c0.1-2.2,0.1-4.5,0.1-6.4c0-0.8,0-1.6,0-2.3
					C93.7,7.6,93,8.3,92.1,9C92,9.1,92,9.1,91.9,9.1S91.8,9,91.8,9c0-0.1,0-0.1,0.1-0.2c1.8-2.6,3-5.8,3.4-8.2c0-0.2,0-0.3,0.1-0.3
					h0.1c0.6,0.2,1.4,0.4,2,0.6C97.8,0.9,97.9,1,97.9,1.1z M107.4,13.9c0,0.3,0,0.4,0.1,0.6c0.2,0.4,0.3,0.7,0.3,0.9
					c0,0.5-0.3,0.8-0.9,0.8c-0.2,0-0.5-0.1-0.8-0.2c-3.1-1.5-4.7-4-5.5-7.7c-0.2-0.7-0.3-1.4-0.4-2.2l-1.6,0.2
					c-0.6,0.1-1.2,0.2-1.5,0.3H97c-0.1,0-0.1,0-0.2-0.1S96.6,6.2,96.5,6c0-0.1,0-0.1,0-0.1s0-0.1,0.1-0.1h0.1c0.2,0,0.5,0.1,0.8,0.1
					c0.4,0,0.8,0,1.1-0.1l1.6-0.2C100,4,99.8,2.4,99.8,0.5c0-0.1,0-0.2,0-0.3c0,0,0-0.1,0.1-0.1h0.1c0.5,0.1,1.4,0.2,1.9,0.3
					c0.2,0,0.3,0.1,0.3,0.2c0,0.1-0.1,0.2-0.3,0.3c-0.3,0.1-0.4,0.1-0.4,0.3c0,1.3,0.1,2.8,0.3,4.1l2.7-0.3c0.1,0,0.2-0.1,0.3-0.2
					c0.2-0.4,0.5-0.8,0.7-1.2c0-0.1,0.1-0.1,0.2-0.1s0.1,0,0.2,0.1c0.6,0.4,1.3,0.8,1.7,1.2c0.1,0.1,0.1,0.1,0.1,0.2
					c0,0.1-0.1,0.1-0.3,0.1l-5.6,0.7c0.1,0.9,0.3,1.7,0.5,2.4c0.7,2.7,1.9,4.3,3.6,5.4c0.1,0.1,0.2,0.1,0.3,0.1
					c0.1,0,0.2-0.1,0.3-0.2c0.3-0.7,0.7-1.4,0.9-2.1c0.1-0.2,0.1-0.2,0.2-0.2s0.1,0.1,0.1,0.2v0.1C107.6,12.7,107.4,13.4,107.4,13.9
					z M105.5,2.7c0,0.5-0.4,0.9-0.8,0.9c-0.2,0-0.4-0.1-0.6-0.3c-0.5-0.6-0.2-1.4-1.3-2.2c-0.1-0.1-0.1-0.1-0.1-0.2
					c0-0.1,0.1-0.1,0.2-0.1h0.1c1.1,0.3,2.3,0.8,2.5,1.6C105.5,2.6,105.5,2.6,105.5,2.7z"/>
			</g>
			<g>
				<path class="st0" d="M126.7,5c-0.6,0.3-0.7,0.8-0.8,1.6c0,0.1-0.1,0.2-0.2,0.2h-0.1c-2.9-1-4.8-2.5-6.6-5.3
					c-1.7,2.4-4.4,4.4-8,5.5h-0.1c-0.1,0-0.2-0.1-0.2-0.1c0-0.1,0.1-0.1,0.2-0.2c3-1.7,5.3-3.9,6.3-6.2c0.1-0.2,0.1-0.3,0.2-0.3
					c0,0,0.1,0,0.2,0c0.7,0.2,1.4,0.3,2.2,0.5c0.2,0.1,0.3,0.2,0.3,0.3s-0.1,0.2-0.4,0.2c-0.2,0-0.3,0-0.4,0c2,2.1,4.2,3.1,7.4,3.4
					c0.2,0,0.3,0.1,0.3,0.1C126.9,4.9,126.9,5,126.7,5z M126.4,15.4H113c-0.6,0-1.3,0-1.5,0.1h-0.1c-0.1,0-0.2,0-0.2-0.1
					c-0.1-0.1-0.1-0.3-0.2-0.5v-0.1c0-0.1,0-0.1,0.1-0.1h0.1c0.4,0.1,1.2,0.2,1.8,0.2h4.6c0-1.2,0-2.5,0-3.8c0-0.5,0-1.1,0-1.6h-3.8
					c-0.6,0-1.3,0-1.5,0.1h-0.1c-0.1,0-0.1-0.1-0.2-0.1c-0.1-0.1-0.1-0.3-0.2-0.5V8.9c0-0.1,0-0.1,0.1-0.1h0.1
					c0.4,0.1,1.2,0.2,1.8,0.2h3.8c0-0.9,0-1.9,0-2.6h-1.2c-0.6,0-1.3,0-1.5,0.1c0,0,0,0-0.1,0s-0.2,0-0.2-0.1
					c-0.1-0.1-0.1-0.3-0.2-0.5V5.8c0-0.1,0-0.1,0.1-0.1h0.1c0.4,0.1,1.2,0.2,1.8,0.2h3.2c0.1,0,0.2,0,0.3-0.1c0.2-0.2,0.6-0.7,0.8-1
					c0.1-0.1,0.2-0.1,0.3,0c0.4,0.3,1.1,0.9,1.5,1.3c0.1,0.1,0.1,0.1,0.1,0.2c0,0.1-0.1,0.1-0.2,0.1h-3.1c0,0.7,0,1.6,0,2.6h2.9
					c0.1,0,0.2,0,0.3-0.1c0.3-0.4,0.6-0.7,0.9-1.1c0.1-0.1,0.1-0.1,0.1-0.1c0.1,0,0.1,0,0.2,0.1c0.5,0.4,1.2,1,1.6,1.3
					c0.1,0.1,0.1,0.1,0.1,0.2c0,0.1-0.1,0.2-0.3,0.2h-5.8c0,1.8,0,3.9,0,5.5h4c0.1,0,0.2,0,0.3-0.1c0.3-0.4,0.6-0.8,0.9-1.2
					c0-0.1,0.1-0.1,0.1-0.1c0.1,0,0.1,0,0.2,0.1c0.5,0.4,1.2,1,1.6,1.5c0.1,0.1,0.1,0.1,0.1,0.2C126.7,15.3,126.6,15.4,126.4,15.4z
					 M115.3,14.3c-0.3,0-0.6-0.2-0.8-0.6c-0.3-0.8,0-1.8-1.1-3.1c-0.1-0.1-0.1-0.1-0.1-0.2c0-0.1,0-0.1,0.1-0.1h0.1
					c1.1,0.5,2.5,1.4,2.6,2.6c0,0.1,0,0.1,0,0.2C116.2,13.9,115.7,14.3,115.3,14.3z M124.1,11.6c-0.2,0-0.4,0-0.5,0.2
					c-0.6,0.9-1.7,2.2-3.1,3.1c-0.1,0-0.1,0.1-0.2,0.1s-0.1-0.1-0.1-0.3c0.9-1.2,1.5-2.8,1.7-4.2c0-0.1,0.1-0.2,0.1-0.2
					c0.1,0,0.1,0,0.2,0c0.5,0.2,1.2,0.5,2,0.8c0.2,0.1,0.2,0.2,0.2,0.3C124.5,11.5,124.4,11.6,124.1,11.6z"/>
			</g>
			<g>
				<path class="st0" d="M145.7,14.3c-0.9,0.3-1,1-1.1,1.6c0,0.2-0.1,0.3-0.3,0.3c-2.5-0.5-4.6-1.4-6.4-2.9
					c-2.2,1.5-4.7,2.3-7.8,2.9c-0.1,0-0.1,0-0.2,0c-0.1,0-0.2,0-0.2-0.1s0.1-0.2,0.3-0.3c2.9-0.9,5.1-2,6.9-3.5
					c-1.2-1.2-2.1-2.8-3-4.8h-0.5c-0.6,0-1.3,0-1.5,0.1h-0.1c-0.1,0-0.1-0.1-0.2-0.2c-0.1-0.1-0.1-0.3-0.2-0.5V6.8
					c0-0.1,0-0.1,0.1-0.1h0.1c0.4,0.1,1.2,0.2,1.8,0.2h3.3c0-0.9,0-2.1,0-3.2h-4.6c-0.6,0-1.3,0-1.5,0.1h-0.1
					c-0.1,0-0.1-0.1-0.2-0.1c-0.1-0.1-0.1-0.3-0.2-0.5V3.1c0-0.1,0-0.1,0.1-0.1h0.1c0.4,0.1,1.2,0.2,1.8,0.2h4.7
					c0-1.2,0-2.3-0.1-2.6c0-0.3-0.1-0.5-0.1-0.5c0-0.1,0-0.1,0.1-0.1h0.1c0.5,0.1,1.4,0.2,2.1,0.3c0.2,0.1,0.3,0.2,0.3,0.3
					s-0.1,0.2-0.3,0.3c-0.3,0.1-0.3,0.2-0.3,0.4c0,0.3,0,1,0,1.9h3.5c0.1,0,0.2,0,0.3-0.1c0.3-0.4,0.6-0.8,0.9-1.2
					c0-0.1,0.1-0.1,0.1-0.1c0.1,0,0.1,0,0.2,0.1c0.5,0.4,1.3,1,1.7,1.4c0.1,0.1,0.1,0.1,0.1,0.2c0,0.1-0.1,0.1-0.3,0.1h-6.6
					c0,0.5,0,1.1,0,1.6c0,0.6,0,1.1,0,1.6h1.8c0.2,0,0.2,0,0.4-0.2s0.5-0.5,0.7-0.7c0.1-0.1,0.1-0.1,0.2-0.1c0.1,0,0.1,0,0.2,0.1
					c0.4,0.3,1,0.8,1.4,1.1c0.2,0.1,0.2,0.3,0.2,0.4c0,0.2-0.2,0.3-0.4,0.3c-0.4,0.1-0.5,0.1-0.6,0.2c-1,1.7-2.1,3-3.3,4
					c1.9,1,4.2,1.4,6.6,1.6c0.1,0,0.2,0.1,0.2,0.2S145.8,14.2,145.7,14.3z M134.3,7.5c1,1.8,2.1,3.1,3.5,4c1.1-1.1,2.1-2.4,2.9-4
					H134.3z"/>
			</g>
			<g>
				<path class="st0" d="M155.6,7.1c-0.8,0.6-1.7,1.2-2.6,1.7c0,1.9,0,3.8,0,5.5c0,0.1,0,0.1,0,0.2c0,0.9-0.2,1.4-1.8,1.7
					c-0.1,0-0.1,0-0.2,0c-0.2,0-0.2-0.1-0.3-0.3c-0.1-1-0.3-1.1-1.5-1.5c-0.1-0.1-0.2-0.1-0.2-0.2c0-0.1,0.1-0.1,0.2-0.1
					c0,0,0,0,0.1,0c0.5,0.1,1.2,0.1,1.6,0.1c0.4,0,0.4-0.1,0.4-0.5c0-0.9,0-2.4,0.1-4c-0.4,0.3-0.8,0.4-1.3,0.6
					c-0.1,0-0.5,0.2-0.5,0.5c0,0.2-0.1,0.3-0.2,0.3c-0.1,0-0.2-0.1-0.3-0.3c-0.2-0.6-0.4-1.3-0.6-1.9c0-0.1,0-0.1,0-0.1
					c0-0.1,0.1-0.1,0.3-0.1c0.7-0.1,1.7-0.2,2.5-0.4c0-1.2,0-2.4,0-3.5h-0.8c-0.5,0-1.1,0-1.4,0.1H149c-0.1,0-0.1-0.1-0.2-0.1
					c-0.1-0.1-0.1-0.3-0.2-0.5c0-0.1,0-0.1,0-0.1s0-0.1,0.1-0.1h0.1c0.4,0.1,1.1,0.2,1.7,0.2h0.8c0-1.8,0-3.2,0-3.4
					s-0.1-0.4-0.1-0.5s0-0.1,0.1-0.1h0.1c0.6,0.1,1.2,0.2,1.9,0.3c0.3,0.1,0.4,0.2,0.4,0.3s-0.1,0.2-0.4,0.3
					C153,1.3,153,1.4,153,1.7c0,0.6,0,1.5,0,2.6h0.3c0.1,0,0.2,0,0.3-0.1c0.1-0.2,0.5-0.8,0.7-1.1c0-0.1,0.1-0.1,0.1-0.1
					c0.1,0,0.1,0,0.2,0.1c0.3,0.3,0.8,0.9,1.1,1.3c0,0.1,0.1,0.1,0.1,0.2c0,0.1-0.1,0.1-0.2,0.1H153c0,0.9,0,2,0,3.1
					c0.9-0.2,1.7-0.5,2.5-0.9c0.1,0,0.1,0,0.1,0c0.1,0,0.1,0.1,0.1,0.1S155.7,7,155.6,7.1z M163.7,15.7c-0.4,0-0.7-0.3-0.8-0.8
					s-0.2-1.1-0.4-1.8c-1.9,0.7-4.4,1.4-6.9,1.9c-0.3,0.1-0.4,0.1-0.4,0.4c0,0.3-0.1,0.5-0.3,0.5s-0.3-0.1-0.3-0.4
					c-0.2-0.7-0.5-1.4-0.7-2.1c0-0.1,0-0.1,0-0.2c0-0.1,0.1-0.1,0.3-0.1c0.5,0,1,0,1.6,0c1.5-4,2.5-9.7,2.5-12.3c0-0.1,0-0.1,0-0.1
					V0.6c0-0.1,0-0.2,0.1-0.2c0,0,0.1,0,0.2,0c0.8,0.2,1.7,0.4,2.3,0.5c0.2,0.1,0.3,0.2,0.3,0.3s-0.1,0.3-0.5,0.3
					c-0.3,0-0.4,0.1-0.5,0.3c-0.7,3.6-2,8.2-3.8,11.2c2.1-0.1,4.4-0.3,6.1-0.5c-0.3-1-0.9-2.1-1.9-3.4c0-0.1-0.1-0.1-0.1-0.2
					c0-0.1,0.1-0.1,0.1-0.1s0.1,0,0.2,0.1c2.1,1.8,3.7,3.7,4,5.5c0,0.1,0,0.1,0,0.2C164.7,15.3,164.2,15.7,163.7,15.7z"/>
			</g>
			<g>
				<path class="st0" d="M174.4,8.9c-0.6,1.2-1.2,2.5-1.4,3.2c-0.1,0.3-0.2,0.5-0.2,0.7c0,0.4,0.2,0.6,0.2,1c0,0.1,0,0.1,0,0.1
					c0,0.5-0.4,0.9-0.9,0.9c-0.2,0-0.4-0.1-0.6-0.1c-2.1-1.1-2.8-4-2.8-7c0-0.6,0-1.3,0.1-1.9c0-0.1,0-0.3,0-0.4
					c0-0.9-0.3-1.7-0.7-2.1C168,3.2,168,3.2,168,3.1c0-0.1,0.1-0.1,0.3-0.1c0.1,0,0.1,0,0.2,0c1.2,0,2.3,1,2.3,2.1c0,0,0,0,0,0.1
					c0,0.6-0.2,1-0.4,1.7c-0.2,0.6-0.3,1.4-0.3,2.1c0,1.2,0.3,2.3,0.8,2.9c0.2,0.2,0.3,0.3,0.4,0.3s0.3-0.1,0.5-0.3
					c0.7-0.7,1.5-1.8,2.3-2.8l0.1-0.1C174.3,8.9,174.3,8.9,174.4,8.9c0,0,0,0,0,0.1C174.5,8.6,174.5,8.7,174.4,8.9z M183,9.2
					c-0.1,1.2-0.7,1.9-1.4,1.9c-0.1,0-0.1,0-0.2,0c-1.1-0.2-0.7-1.3-1.1-2c-0.1-0.2-0.2-0.3-0.2-0.4c0-0.1,0-0.1,0.1-0.1
					s0.2,0,0.4,0.1h0.1c0.3,0,0.4-0.2,0.4-0.6c0-1-0.7-3-2.4-3.9c-0.2-0.1-0.4-0.2-0.4-0.3c0,0,0,0,0.1,0s0.1,0,0.2,0
					c2.9,0.3,4.5,3.1,4.5,5C183.1,9.1,183,9.2,183,9.2z"/>
			</g>
			<g>
				<path class="st0" d="M197.1,15.2c-0.4,0-0.8-0.2-1.2-0.6c-0.6-0.6-1.2-1-2-1.6c0,0.2,0,0.5,0,0.6c-0.1,1.4-1.6,2-3.2,2
					c-1.9,0-3.8-0.9-3.8-2.5l0,0c0-1.6,1.6-2.3,3.8-2.3c0.5,0,1,0,1.6,0.1c0-0.6-0.1-1.6-0.1-2.3c-0.1,0-0.2,0-0.3,0
					c-2.7,0-4.1-0.7-4.6-2c0-0.1,0-0.1,0-0.1c0-0.1,0-0.1,0.1-0.1s0.1,0,0.1,0.1c0.7,0.5,2,0.9,3.7,0.9c0.3,0,0.7,0,1,0
					c0-0.6,0-1.4,0-1.9c-3.2,0-4-0.8-4.4-1.9c0-0.1,0-0.1,0-0.2c0-0.1,0-0.1,0.1-0.1s0.1,0,0.2,0.1c0.4,0.4,1.5,0.7,3,0.7
					c0.4,0,0.8,0,1.2-0.1c0-0.4,0-0.9,0-1.2c0-0.7-0.1-1.5-1-1.8c-0.3-0.1-0.3-0.2-0.1-0.4s0.6-0.3,1-0.3c0.9,0,1.9,0.4,2,1.2
					c0,0.1,0,0.2,0,0.2c0,0.4-0.2,0.6-0.4,1.2c0,0.2-0.1,0.6-0.1,0.8c1.6-0.2,1.8-0.7,2.2-0.7c0.2,0,0.3,0,0.4,0
					c0.8,0,1.3,0.4,1.3,0.8c0,0.4-0.4,0.8-1.3,1c-0.9,0.2-1.7,0.3-2.7,0.4c0,0.5-0.1,1.3-0.1,1.8c0.8-0.1,1.4-0.3,1.5-0.4
					c0.2-0.1,0.3-0.2,0.3-0.3s0-0.1-0.1-0.2c-0.1-0.2-0.2-0.3-0.4-0.5c-0.1-0.2-0.1-0.3-0.1-0.3s0.1,0,0.2,0.1
					c0.6,0.4,0.9,0.4,1.2,0.4c0.2,0,0.3,0,0.5,0h0.1c0.6,0,1,0.4,1,0.8c0,0.3-0.2,0.7-0.7,1c-0.8,0.5-2.1,0.7-3.6,0.8
					c0.1,0.9,0.1,2,0.3,2.7c1.4,0.4,2.8,1.1,3.6,1.7c0.5,0.4,0.7,0.9,0.7,1.3C198,14.8,197.6,15.2,197.1,15.2z M192.2,12.3
					c-0.8-0.3-1.8-0.6-2.7-0.6c-1.1,0-1.9,0.3-1.9,1.2l0,0c0,0.7,1.4,1.2,2.6,1.2c1,0,2-0.3,2-1.1C192.2,12.9,192.2,12.5,192.2,12.3
					z"/>
			</g>
			<g>
				<path class="st0" d="M214.7,4c-0.1,0-0.3,0-0.4,0c-0.3,0-0.6-0.1-0.9-0.1c-3.4,0-4.7,2.5-4.7,5.9c0,0.2,0,0.4,0,0.6
					c0.1,1.6,1.2,2.6,3,2.6c0.1,0,0.1,0,0.2,0c0.1,0,0.2,0,0.3,0c1.2,0,1.9,0.3,1.9,0.9V14c-0.1,0.7-0.6,1-1.9,1
					c-2.6,0-4.8-1.5-4.8-4.4c0-0.1,0-0.2,0-0.3c0-3.1,1.4-6,4.5-7c0.2-0.1,0.2-0.1,0.2-0.2c0,0,0-0.1-0.1-0.1s-0.1,0-0.2,0
					c-3,0.8-4.8,1.6-6.1,2.4c-0.6,0.4-0.9,0.8-1.6,0.8c-0.1,0-0.1,0-0.2,0c-0.9-0.1-1.8-0.8-1.8-2c0-0.1,0-0.3,0.1-0.5
					s0.1-0.3,0.1-0.3c0.1,0,0.1,0.1,0.2,0.2c0.2,0.2,0.5,0.3,0.8,0.3c0.4,0,0.8-0.1,1.1-0.2c1.4-0.3,4.5-1.2,7.9-1.9
					c0.9-0.2,0.9-0.4,1.7-0.4c1.1,0,1.7,0.5,1.8,1c0,0.1,0,0.2,0,0.3C216,3.7,215.5,4,214.7,4z M215.1,8.5c-0.2,0-0.5-0.2-0.6-0.5
					c-0.3-0.9-0.8-1.5-1.4-2C213,5.9,213,5.9,213,5.8s0-0.1,0.1-0.1c0,0,0,0,0.1,0c0.9,0.1,1.8,0.6,2.3,1.4c0.1,0.3,0.2,0.5,0.2,0.7
					C215.7,8.3,215.4,8.5,215.1,8.5z M216.8,7.3c-0.2,0-0.4-0.1-0.6-0.4c-0.3-0.7-0.9-1.3-1.7-1.8c-0.1-0.1-0.2-0.2-0.2-0.2
					c0-0.1,0.1-0.1,0.3-0.1c0.9,0,1.9,0.4,2.4,1.1c0.2,0.3,0.3,0.5,0.3,0.8C217.3,7.1,217.1,7.3,216.8,7.3z"/>
			</g>
			<g>
				<path class="st0" d="M230.1,17.3h-3.5v-17h3.5c0.1,0,0.1,0,0.1,0.2s0,0.2-0.1,0.2c-0.3,0-1.1,0.1-1.4,0.1
					c-0.4,0-0.4,0.1-0.4,0.5c0,1.8-0.1,4.3-0.1,7.5c0,2.5,0,5.3,0.1,7.5c0,0.4,0.1,0.4,0.4,0.5c0.3,0,1.2,0.1,1.4,0.1
					c0.1,0,0.1,0,0.1,0.2C230.2,17.3,230.2,17.3,230.1,17.3z"/>
			</g>
			<g>
				<path class="st0" d="M250.6,9.9h-6.9c0,2,0,4,0.1,5.5c0,0.5-0.1,0.7-1,0.7c-0.1,0-0.2,0-0.2,0c-0.6,0-0.7-0.2-0.7-0.6v-0.1
					c0-0.7,0.1-1.6,0.1-2.5s0-1.9,0-3h-5.2c-0.6,0-1.3,0-1.5,0.1h-0.1c-0.1,0-0.1-0.1-0.2-0.2c-0.1-0.1-0.1-0.3-0.2-0.5V9.2
					c0,0,0-0.1,0.1-0.1h0.1c0.4,0.1,1.2,0.2,1.8,0.2h5.1c0-0.5,0-0.9,0-1.4c0-2.2,0-4.4-0.1-5.8h-4.4c-0.6,0-1.3,0-1.5,0.1h-0.1
					c-0.1,0-0.2-0.1-0.2-0.1c-0.1-0.1-0.1-0.3-0.2-0.5V1.5c0-0.1,0-0.1,0.1-0.1h0.1c0.4,0.1,1.2,0.2,1.9,0.2h9.6
					c0.1,0,0.2,0,0.3-0.1c0.3-0.4,0.6-0.8,0.9-1.2c0-0.1,0.1-0.1,0.1-0.1c0.1,0,0.1,0,0.2,0.1c0.5,0.4,1.2,1,1.6,1.4
					c0.1,0.1,0.1,0.1,0.1,0.2c0,0.1-0.1,0.2-0.3,0.2h-6.2c-0.1,1.8-0.1,4.5-0.1,7.2h3.9c0.1,0,0.2,0,0.3-0.1c0.3-0.4,0.6-0.8,1-1.2
					c0-0.1,0.1-0.1,0.1-0.1c0.1,0,0.1,0,0.2,0.1c0.5,0.4,1.2,1.1,1.6,1.5c0.1,0.1,0.1,0.1,0.1,0.2C250.9,9.8,250.8,9.9,250.6,9.9z
					 M239.5,8.5c-0.4,0-0.7-0.3-0.9-0.8c-0.3-1.2-0.5-2.5-1.9-4c-0.1-0.1-0.1-0.2-0.1-0.2c0-0.1,0-0.1,0.1-0.1s0.1,0,0.2,0.1
					c1.7,0.8,3.1,2.2,3.5,3.5c0.1,0.2,0.1,0.3,0.1,0.5C240.4,8,239.9,8.5,239.5,8.5z M249.2,4.6c-0.1,0-0.1,0-0.2,0
					c-0.1,0-0.1,0-0.1,0c-0.2,0-0.3,0.1-0.4,0.3c-0.7,1-1.7,2.7-3.4,3.9c-0.1,0.1-0.2,0.1-0.2,0.1c-0.1,0-0.1,0-0.1-0.1
					s0-0.2,0.1-0.3c1.2-1.5,1.9-3.9,2.1-5.1c0-0.1,0-0.2,0.1-0.2c0,0,0.1,0,0.2,0.1c0.5,0.2,1.4,0.6,2,0.9c0.2,0.1,0.3,0.2,0.3,0.3
					C249.5,4.5,249.4,4.6,249.2,4.6z"/>
			</g>
			<g>
				<path class="st0" d="M260.2,10.5c-1.6,1.1-3.8,2.4-5.1,3c-0.2,0.1-0.3,0.1-0.3,0.4c0,0.5-0.3,0.5-0.5,0.2
					c-0.2-0.5-0.6-1.5-0.7-2c0-0.1,0-0.1,0-0.2c0-0.1,0-0.1,0.1-0.1h0.1c0,0,0,0,0.1,0c0.6-0.1,1.3-0.2,1.9-0.3
					c0-1.6,0.1-3.7,0.1-5.6h-0.3c-0.4,0-1,0-1.3,0.1h-0.1c-0.1,0-0.1-0.1-0.2-0.1c-0.1-0.1-0.1-0.3-0.2-0.4V5.4c0-0.1,0-0.1,0.1-0.1
					h0.1c0.4,0.1,1.1,0.2,1.6,0.2h0.3c0-1.7-0.1-4.2-0.2-4.6c0-0.1-0.1-0.2-0.1-0.3s0-0.1,0.2-0.1h0.1c0.5,0,1.3,0.1,1.9,0.3
					c0.2,0.1,0.3,0.1,0.3,0.3c0,0.1-0.1,0.2-0.3,0.3c-0.2,0.1-0.3,0.1-0.3,0.4c0,0.7,0,2.2,0,3.7c0.2,0,0.3,0,0.3-0.1
					c0.2-0.3,0.5-0.6,0.7-0.9c0.1-0.1,0.2-0.1,0.3,0c0.3,0.3,0.8,0.8,1.1,1.2c0.1,0.1,0.1,0.1,0.1,0.2c0,0.1-0.1,0.1-0.2,0.1h-2.2
					c0,1.7,0,3.5,0,5.2C258.5,10.9,259.3,10.6,260.2,10.5L260.2,10.5c0.1-0.1,0.1,0,0.1,0S260.3,10.4,260.2,10.5z M269.3,3.8
					C269,4,268.9,4,268.9,4.4c0,2.9-0.1,7.3-0.5,9c-0.3,1.8-0.8,2.4-2.4,2.7c-0.1,0-0.1,0-0.1,0c-0.2,0-0.2-0.1-0.3-0.3
					c-0.1-1-0.2-1.2-1.8-1.7c-0.1-0.1-0.2-0.1-0.2-0.2c0-0.1,0.1-0.2,0.2-0.2l0,0c0.9,0.1,1.4,0.2,1.9,0.3c0.5,0,0.7-0.1,0.9-0.7
					c0.4-1.4,0.6-6,0.6-8.7c0-0.4,0-0.8,0-1.1h-4.7c-0.7,1.5-1.6,2.9-2.9,4c-0.1,0.1-0.1,0.1-0.2,0.1s-0.1-0.1-0.1-0.1
					c0-0.1,0-0.1,0.1-0.2c1.2-2.1,2.2-5,2.2-6.9c0-0.1,0-0.1,0-0.2c0-0.1,0-0.1,0.1-0.1h0.1c0.6,0.1,1.5,0.3,2.1,0.5
					c0.2,0.1,0.3,0.2,0.3,0.3s-0.1,0.2-0.4,0.3s-0.4,0.1-0.4,0.3c-0.2,0.6-0.4,1.2-0.7,1.7h4.2c0.1,0,0.2,0,0.3-0.1
					c0.1-0.1,0.5-0.5,0.7-0.8c0.1-0.1,0.2-0.1,0.4,0c0.4,0.3,0.9,0.6,1.2,0.9c0.1,0.1,0.2,0.2,0.2,0.4
					C269.6,3.6,269.5,3.7,269.3,3.8z M266.8,9.7c-1.7,1.4-3.9,2.5-5.4,3.1c-0.1,0.1-0.2,0.2-0.2,0.4c0,0.3-0.1,0.4-0.2,0.4
					s-0.2-0.1-0.3-0.3c-0.2-0.4-0.5-1.3-0.7-1.8v-0.1c0-0.1,0.2-0.1,0.4-0.1c1.4-0.2,4.5-1,6.4-1.9c0.1,0,0.1,0,0.1,0
					c0.1,0,0.1,0,0.1,0.1C266.9,9.5,266.9,9.6,266.8,9.7z M266,7.2h-3.5c-0.4,0-1,0-1.3,0.1h-0.1c-0.1,0-0.1-0.1-0.2-0.1
					c-0.1-0.1-0.1-0.3-0.2-0.5V6.6c0-0.1,0-0.1,0.1-0.1h0.1c0.4,0.1,1.1,0.2,1.6,0.2h0.9c0.2,0,0.3,0,0.4-0.1
					c0.2-0.3,0.5-0.7,0.8-0.9l0.1-0.1c0,0,0.1,0,0.1,0.1c0.4,0.3,0.9,0.7,1.3,1.2c0.1,0.1,0.1,0.1,0.1,0.2
					C266.2,7.1,266.2,7.2,266,7.2z"/>
			</g>
			<g>
				<path class="st0" d="M278.7,15c-3.2,0-5.2-1.5-5.2-3c0-0.6,0.2-1.1,0.9-1.1c1.8,0,0.1,3.5,4.3,3.5c1.7,0,3.5-1.1,3.5-2.9
					c0-2.3-2.2-3.5-4.8-3.5h-0.1c-0.3,0-0.4-0.1-0.4-0.3c0-0.3,0.1-0.3,0.5-0.3c2.3,0,4.5-0.8,4.5-2.8c0-1.5-1.4-2.6-3.2-2.6
					c-1.5,0-2.8,0.6-2.8,1.3c0,0.5,0.3,0.7,0.3,1.1c0,0.6-0.4,0.9-1,0.9c-0.7,0-1-0.6-1-1.1c0-1.4,2.1-2.9,4.7-2.9
					c3,0,4.9,1.4,4.9,3.2c0,2-2,3.1-3.9,3.2c-0.2,0-0.3,0-0.3,0.1c0,0,0.1,0.1,0.3,0.1c2.3,0,4.4,1.5,4.4,3.5
					C284.1,13.7,281.9,15,278.7,15z"/>
			</g>
			<g>
				<path class="st0" d="M303.8,13.9c-0.6,0.4-0.8,0.8-0.9,1.4c0,0.2,0,0.3-0.3,0.3c-0.4,0-1,0-1.7,0c-2,0-4.6,0-6-0.3
					c-1.6-0.3-2.8-1-3.5-2.6l0,0c-0.7,1-1.4,1.9-1.9,2.4c-0.1,0.1-0.2,0.1-0.2,0.4c0,0.1,0,0.1,0,0.1l0,0c0,0.2-0.1,0.3-0.2,0.3
					s-0.2-0.1-0.2-0.2c-0.3-0.5-0.7-1.3-1-1.9c0-0.1-0.1-0.1-0.1-0.2c0-0.1,0.1-0.1,0.2-0.1c0.6-0.1,1.4-0.5,2.1-0.9
					c0-1.1,0.1-2.4,0.1-3.4c0-0.8,0-1.5,0-1.8h-0.5c-0.4,0-1,0-1.3,0.1h-0.1c-0.1,0-0.1,0-0.2-0.1s-0.1-0.3-0.2-0.5V6.8
					c0-0.1,0-0.1,0.1-0.1s0.1,0,0.1,0c0.4,0.2,1.2,0.2,1.6,0.2h0.2h0.1c0.1,0,0.1-0.1,0.2-0.1c0.2-0.2,0.4-0.5,0.6-0.7
					C290.9,6,290.9,6,291,6s0.1,0,0.2,0.1c0.3,0.2,0.7,0.5,1,0.7c0.2,0.1,0.3,0.3,0.3,0.4c0,0.1-0.1,0.2-0.3,0.3
					c-0.3,0.2-0.3,0.2-0.3,0.4c0,0.4,0,1,0,1.7c0,0.9,0,1.9,0,2.5c0.2,0.2,0.3,0.4,0.5,0.6l0,0c0.7-1.4,1-2.9,1.1-5.4
					c0-0.8,0.1-1.8,0.1-2.9c0-1.7-0.1-3.4-0.2-4c0-0.1-0.1-0.2-0.1-0.3s0-0.1,0.1-0.1c0,0,0.1,0,0.2,0.1c0.6,0.3,1.4,0.7,1.6,0.8
					c0.3,0,5.7,0,5.7,0c0.2,0,0.2,0,0.3-0.1c0.2-0.2,0.5-0.5,0.6-0.6s0.1-0.1,0.2-0.1s0.1,0,0.2,0.1c0.2,0.1,0.9,0.7,1.1,0.8
					c0.1,0.1,0.2,0.2,0.2,0.3s-0.1,0.2-0.2,0.3c-0.3,0.2-0.4,0.2-0.4,0.4c0,0.7,0,3,0,5.3c0,1.6,0,3.2,0,4.1c0,0.1,0,0.2,0,0.3
					c0,0.8-0.1,1.3-1.6,1.6h-0.1c-0.1,0-0.2-0.1-0.2-0.2c-0.1-1-0.2-1.1-1.5-1.5c-0.1,0-0.2-0.1-0.2-0.2s0.1-0.1,0.2-0.1
					c0,0,0,0,0.1,0c0.6,0.1,1,0.1,1.5,0.1c0,0,0,0,0.1,0c0.3,0,0.3-0.1,0.3-0.4c0-1.1,0-2.5,0-4c0-2.3,0-4.6,0-5.5h-6.2
					c0,3.2,0,5.9-0.3,7.7c-0.4,1.8-1.1,2.9-2,3.9c0.6,0.4,1.4,0.5,2.5,0.6c0.9,0.1,1.9,0.1,3.1,0.1c1.6,0,3.5-0.1,5.6-0.3l0,0
					c0.2,0,0.3,0.1,0.3,0.1C304,13.8,303.9,13.9,303.8,13.9z M291.2,4.2c-0.3,0-0.6-0.2-0.8-0.6c-0.3-0.8-0.5-1.7-1.5-2.5
					c-0.1-0.1-0.1-0.1-0.1-0.2s0.1-0.1,0.2-0.1h0.1c1.5,0.4,2.7,1,3,2c0.1,0.2,0.1,0.3,0.1,0.4C292.1,3.8,291.7,4.2,291.2,4.2z
					 M300.8,6.1H297c-0.6,0-1,0-1.3,0.1h-0.1c-0.1,0-0.1-0.1-0.2-0.1c-0.1-0.1-0.1-0.3-0.2-0.4V5.6c0,0,0-0.1,0.1-0.1h0.1
					c0.4,0.1,1,0.2,1.6,0.2h0.3c0-0.4,0-0.9,0-1.3c0-0.2,0-0.3,0-0.5h-0.1c-0.6,0-1,0-1.3,0.1h-0.1c-0.1,0-0.1-0.1-0.2-0.1
					c-0.1-0.1-0.1-0.3-0.2-0.4V3.4c0,0,0-0.1,0.1-0.1h0.1c0.4,0.1,0.9,0.2,1.6,0.2h0.1c0-0.6,0-1-0.1-1.2c0-0.2-0.1-0.4-0.1-0.4
					s0-0.1,0.1-0.1h0.1c0.5,0.1,1,0.2,1.5,0.3c0.2,0,0.3,0.1,0.3,0.3c0,0.1-0.1,0.2-0.3,0.3c-0.2,0.1-0.2,0.2-0.2,0.5
					c0,0.1,0,0.3,0,0.5h0.2c0.1,0,0.2,0,0.3-0.1c0.1-0.1,0.3-0.5,0.5-0.6c0-0.1,0.1-0.1,0.1-0.1s0.1,0,0.1,0.1
					c0.2,0.2,0.7,0.7,0.8,0.8c0.1,0.1,0.1,0.1,0.1,0.2c0,0.1-0.1,0.1-0.2,0.1h-1.9c0,0.3,0,0.6,0,0.9c0,0.3,0,0.5,0,0.8h0.3
					c0.1,0,0.2,0,0.3-0.1c0.1-0.2,0.4-0.6,0.6-0.8c0-0.1,0.1-0.1,0.1-0.1s0.1,0,0.1,0.1c0.2,0.2,0.9,0.8,1,1
					c0.1,0.1,0.1,0.1,0.1,0.1C301,6.1,301,6.1,300.8,6.1z M300.3,8c-0.2,0.1-0.3,0.2-0.3,0.4c0,0.1,0,0.3,0,0.4c0,0.4,0,1.1,0,1.7
					c0,0,0,0,0,0.1c0,0.4-0.2,0.5-0.7,0.5c-0.1,0-0.2,0-0.3,0c-0.3,0-0.4-0.1-0.4-0.4c0,0,0,0,0-0.1v-0.1h-1.5c0,0.2,0,0.3,0,0.5
					c0,0.5-0.2,0.5-0.7,0.6c-0.1,0-0.1,0-0.2,0c-0.3,0-0.5-0.1-0.5-0.4v-0.1c0.1-0.8,0.1-1.7,0.1-2.5c0-0.6,0-1.1-0.1-1.4
					c0-0.1-0.1-0.2-0.1-0.3s0-0.1,0.1-0.1h0.1c0.4,0.2,1.4,0.6,1.4,0.6h1c0.2,0,0.2,0,0.3-0.1c0.1-0.1,0.4-0.4,0.5-0.5
					s0.1-0.1,0.2-0.1c0,0,0.1,0,0.2,0.1c0.2,0.1,0.8,0.5,0.9,0.6s0.2,0.1,0.2,0.2C300.5,7.8,300.5,7.9,300.3,8z M298.7,7.9h-1.5
					c0,0.6,0,1.3,0,2.3h1.5c0-0.6,0-1.1,0-1.6C298.7,8.3,298.7,8.1,298.7,7.9z"/>
			</g>
			<g>
				<path class="st0" d="M314.3,1.9c-0.3,0.1-0.4,0.2-0.4,0.4c0,0.3,0,0.6,0,0.9c0,1,0,2.3,0,3.2l0,0c0,0.5-0.3,0.6-0.9,0.6
					c-0.1,0-0.1,0-0.2,0c-0.4,0-0.6-0.1-0.6-0.5c0,0,0,0,0-0.1s0-0.1,0-0.2h-2.8c0,3.3,0,7.1,0.1,9.1c0,0.5-0.3,0.6-0.9,0.6
					c-0.1,0-0.1,0-0.2,0c-0.4,0-0.7-0.1-0.7-0.6c0,0,0,0,0-0.1c0.1-2,0.1-5.9,0.1-9.1c0-2.8,0-5.1-0.1-5.4c-0.1-0.2-0.1-0.3-0.1-0.4
					c0-0.1,0-0.1,0.1-0.1c0,0,0.1,0,0.2,0.1c0.6,0.2,1.8,0.8,1.8,0.8h2.2c0.1,0,0.2,0,0.3-0.1c0.2-0.2,0.5-0.5,0.7-0.6
					c0.1-0.1,0.2-0.1,0.4,0c0.4,0.3,0.8,0.6,1.1,0.8c0.1,0.1,0.2,0.2,0.2,0.3C314.5,1.7,314.4,1.8,314.3,1.9z M309.4,3.8
					c0,0.7,0,1.4,0,2.2h2.8c0-0.7,0-1.5,0-2.2H309.4z M312.2,1.6h-2.7c0,0.5,0,1.1,0,1.8h2.8C312.2,2.6,312.2,1.9,312.2,1.6z
					 M318.3,8.7c-0.3,0.2-0.4,0.2-0.4,0.5c0,0.2,0,0.6,0,1.2c0,1,0,2.2,0.1,3.1v0.1c0,0.5-0.2,0.6-0.8,0.6c-0.1,0-0.1,0-0.2,0
					c-0.5,0-0.7-0.1-0.6-0.6v-0.1H313c0,0.2,0,0.4,0,0.5c0,0.5-0.3,0.6-1,0.7c-0.1,0-0.1,0-0.2,0c-0.3,0-0.5-0.1-0.5-0.5v-0.1
					c0.1-1.1,0.1-2.6,0.1-3.8c0-1.1,0-2-0.2-2.4c-0.1-0.2-0.1-0.3-0.1-0.4c0-0.1,0-0.1,0.1-0.1s0.1,0,0.2,0.1
					c0.7,0.3,1.7,0.8,1.7,0.8h2.8c0.2,0,0.2,0,0.3-0.1c0.2-0.2,0.4-0.4,0.6-0.6c0.1-0.1,0.1-0.1,0.2-0.1s0.1,0,0.2,0.1
					c0.4,0.2,0.8,0.5,1.1,0.7c0.1,0.1,0.2,0.2,0.2,0.3C318.6,8.5,318.5,8.6,318.3,8.7z M316.4,8.5H313c0,0.4,0,1.1,0,1.8h3.5
					C316.4,9.6,316.4,9,316.4,8.5z M312.9,10.7c0,0.8,0,1.6,0,2.2h3.4c0-0.7,0-1.5,0.1-2.2H312.9z M322.2,2
					c-0.3,0.2-0.5,0.2-0.5,0.5c0,1.3,0,4,0,6.6c0,1.9,0,3.8,0,5c0,0.1,0,0.1,0,0.2c0,1.1-0.3,1.6-2,1.8h-0.1c-0.2,0-0.2-0.1-0.2-0.3
					c-0.1-0.9,0-1-1.5-1.6c-0.1,0-0.1-0.1-0.1-0.2c0-0.1,0.1-0.1,0.2-0.1l0,0c0.6,0.1,1.2,0.1,1.6,0.1s0.4-0.1,0.4-0.4
					c0.1-1.6,0.1-4.6,0.1-7.3h-3c0,0,0,0,0,0.1c0,0.4-0.2,0.6-0.9,0.6c-0.1,0-0.1,0-0.2,0c-0.4,0-0.6-0.1-0.6-0.5V6.4
					c0.1-1,0.1-2.1,0.1-3.1s0-1.9-0.1-2.3c-0.1-0.2-0.1-0.3-0.1-0.4s0-0.1,0.1-0.1s0.1,0,0.2,0.1c0.7,0.3,1.7,0.8,1.7,0.8h2.4
					c0.1,0,0.2,0,0.3-0.1c0.2-0.2,0.5-0.5,0.7-0.7c0.1-0.1,0.1-0.1,0.2-0.1s0.1,0,0.2,0.1c0.4,0.2,0.9,0.6,1.2,0.9
					c0.1,0.1,0.2,0.2,0.2,0.3C322.5,1.7,322.4,1.8,322.2,2z M320,1.6h-3c0,0.3,0,1,0,1.8h3C320,2.7,320,2,320,1.6z M320.1,3.8h-3
					c0,0.7,0,1.5,0,2.2h3C320.1,5.2,320.1,4.5,320.1,3.8z"/>
			</g>
			<g>
				<path class="st0" d="M328.5,17.3c-0.1,0-0.1,0-0.1-0.2s0-0.2,0.1-0.2c0.3,0,1.1-0.1,1.4-0.1c0.4,0,0.4-0.1,0.4-0.5
					c0-2.3,0.1-5,0.1-7.5c0-3.2-0.1-5.8-0.1-7.5c0-0.4-0.1-0.4-0.4-0.5c-0.3,0-1.2-0.1-1.4-0.1c-0.1,0-0.1,0-0.1-0.2s0-0.2,0.1-0.2
					h3.5v17H328.5z"/>
			</g>
		</g>
	</g>
	<g>
		<g>
			<g>
				<path class="st1" d="M70.8,45.7l-0.4,0.4l-5.3-5.3l-5.3,5.3l-0.4-0.4l5.3-5.3l-5.2-5.2l0.4-0.4l5.2,5.2l5.2-5.2l0.4,0.4
					l-5.2,5.2L70.8,45.7z M62.3,40.5c0,0.6-0.5,1-1.1,1s-1-0.5-1-1c0-0.6,0.4-1,1-1C61.9,39.4,62.3,39.9,62.3,40.5z M66.1,36.7
					c0,0.6-0.5,1-1,1c-0.6,0-1-0.5-1-1c0-0.6,0.5-1,1-1C65.6,35.6,66.1,36.1,66.1,36.7z M66.1,44.2c0,0.6-0.5,1-1,1
					c-0.6,0-1-0.4-1-1s0.5-1,1-1S66.1,43.7,66.1,44.2z M69.9,40.5c0,0.6-0.4,1-1,1s-1.1-0.5-1.1-1c0-0.6,0.5-1,1.1-1
					C69.4,39.4,69.9,39.9,69.9,40.5z"/>
			</g>
			<g>
				<path class="st2" d="M77.8,36.4c0-0.6,0-1-0.1-1.3c0.4,0,0.9,0.1,1.1,0.2c0.1,0,0.2,0.1,0.2,0.2s0,0.1-0.1,0.2s-0.2,0.3-0.2,0.7
					c0,0.4,0,0.8-0.1,1.2c0.7-0.1,1.4-0.3,2.1-0.6c0.1,0,0.2,0,0.2,0.1c0,0.2,0.1,0.4,0.1,0.6c0,0.1,0,0.1-0.2,0.2
					c-0.7,0.3-1.3,0.4-2.2,0.6c0,0.9,0,1.8,0,2.8c1.3-0.6,2.5-1.1,3.7-1.1c1.7,0,2.7,1.1,2.7,2.5c0,1.7-1.1,2.6-2.9,2.6
					c-0.4,0-0.8-0.1-1.1-0.2c-0.1,0-0.2-0.1-0.2-0.4c0-0.2-0.1-0.4-0.2-0.6c0.5,0.2,1,0.3,1.5,0.3c1.1,0,2-0.6,2-1.7
					c0-1-0.7-1.7-1.9-1.7c-0.8,0-1.9,0.4-3.5,1.2c0,0.5,0,1.3,0.1,2.1c0,0.7,0.1,1.1,0.1,1.3c0,0.2,0,0.3-0.2,0.3S78.3,46,78.1,46
					c-0.1,0-0.2-0.1-0.5-0.5c-0.5-0.5-1.2-1-2-1.6c-0.2,0.1-0.4,0.2-0.5,0.3c-0.1,0.1-0.1,0.1-0.2,0.1s-0.1-0.1-0.2-0.2
					c-0.1-0.2-0.3-0.5-0.4-0.9c0.4-0.1,0.8-0.2,1.4-0.5s1.4-0.7,2.3-1.2c0-1,0-2,0-3c-0.9,0.1-1.6,0.2-2.6,0.2
					c-0.2,0-0.2-0.1-0.3-0.2c0-0.2-0.1-0.4-0.1-0.7c0.9,0,1.8,0,2.9-0.1C77.8,37.3,77.8,36.9,77.8,36.4z M76,43.6
					c0.7,0.4,1.1,0.7,1.7,1c0.1,0.1,0.1,0,0.1-0.1c0-0.6,0-1.2-0.1-2C77.2,42.9,76.7,43.2,76,43.6z M82.9,36.8
					c0.1-0.1,0.1-0.1,0.2-0.1c1.1,0.2,2.1,0.7,2.8,1.5c0.1,0.1,0.1,0.1,0,0.2c-0.1,0.2-0.3,0.4-0.4,0.6c-0.1,0.1-0.1,0.1-0.2,0
					c-0.7-0.8-1.6-1.3-2.7-1.5C82.6,37.2,82.7,37,82.9,36.8z"/>
			</g>
			<g>
				<path class="st2" d="M98.9,40.8c0,0.9,0,1.2,0,1.3c0,0.1,0,0.1-0.1,0.1s-0.6,0-2.1,0h-4.2c-1.4,0-1.8,0-1.9,0s-0.1,0-0.1-0.1
					v-0.5c0-0.1,0-0.1,0.1-0.1s0.5,0,1.9,0h5.6v-1.2h-5.3c-1.4,0-1.8,0-1.9,0s-0.1,0-0.1-0.1v-0.5c0-0.1,0-0.1,0.1-0.1s0.5,0,1.9,0
					h5.3v-1.1h-5.3c-1.4,0-1.8,0-1.9,0s-0.1,0-0.1-0.1v-0.5c-0.4,0.3-0.8,0.6-1.3,0.9c-0.1,0.1-0.2,0.1-0.2,0.1
					c-0.1,0-0.1-0.1-0.2-0.2c-0.1-0.3-0.2-0.3-0.4-0.5c1.8-0.9,2.9-2.2,3.6-3.2c0.2-0.3,0.4-0.7,0.4-0.9c0.3,0.1,0.6,0.2,0.8,0.2
					c0.1,0,0.1,0.1,0.1,0.2s-0.1,0.1-0.1,0.2c-0.1,0.1-0.2,0.2-0.4,0.5L93,35.4h2.8c0.2,0,0.2,0,0.3,0h0.1c0.1,0,0.2,0,0.4,0.2
					c0.2,0.2,0.3,0.3,0.3,0.4s-0.1,0.1-0.2,0.2s-0.2,0.2-0.3,0.4c-0.3,0.4-0.7,0.9-1.1,1.3h1.3c1.4,0,2,0,2.1,0s0.1,0,0.1,0.1
					s0,0.4,0,1.3L98.9,40.8L98.9,40.8z M90.7,43.4c0.1,0.1,0.2,0.1,0.1,0.2c-0.3,0.9-0.7,1.7-1.3,2.4c-0.1,0.1-0.1,0.1-0.3,0
					l-0.4-0.3c-0.1-0.1-0.1-0.1,0-0.2c0.6-0.7,1-1.4,1.3-2.3c0-0.1,0.1-0.1,0.2,0L90.7,43.4z M92.5,36.1c-0.4,0.6-1,1.1-1.6,1.6
					c0.1,0,0.6,0,1.9,0h1.6c0.5-0.5,0.9-1,1.3-1.6H92.5z M92.9,44.8c0,0.4,0.1,0.6,0.3,0.7c0.3,0.2,0.8,0.2,1.5,0.2
					c1.1,0,1.7,0,2.1-0.3c0.3-0.2,0.5-0.7,0.5-1.4c0.2,0.1,0.4,0.2,0.6,0.3c0.2,0.1,0.2,0.1,0.2,0.4c-0.2,0.9-0.4,1.2-0.7,1.5
					c-0.5,0.3-1.2,0.4-2.6,0.4c-1,0-1.7,0-2.1-0.2c-0.3-0.2-0.6-0.4-0.6-1.2v-1.3c0-0.4,0-0.7-0.1-1.1c0.3,0,0.6,0.1,0.9,0.1
					c0.1,0,0.2,0.1,0.2,0.1c0,0.1,0,0.1-0.1,0.2s-0.1,0.4-0.1,0.7C92.9,43.9,92.9,44.8,92.9,44.8z M94.5,42.5c0.1-0.1,0.1-0.1,0.2,0
					c0.5,0.4,1,0.9,1.4,1.4c0.1,0.1,0.1,0.1-0.1,0.2l-0.3,0.3c-0.2,0.1-0.2,0.1-0.3,0c-0.4-0.6-0.8-1-1.3-1.5
					c-0.1-0.1-0.1-0.1,0.1-0.2L94.5,42.5z M98.8,43c0.1-0.1,0.1-0.1,0.2,0c0.7,0.6,1.2,1.3,1.8,2.2c0.1,0.1,0,0.1-0.1,0.2l-0.4,0.3
					c-0.1,0.1-0.1,0.1-0.2,0.1s-0.1,0-0.1-0.1c-0.5-0.9-1-1.6-1.6-2.2c-0.1-0.1-0.1-0.1,0.1-0.2L98.8,43z"/>
			</g>
			<g>
				<path class="st2" d="M107.6,35.9c-0.1-0.4-0.2-0.6-0.5-0.9c0.4-0.1,0.8-0.1,1.1-0.1c0.1,0,0.2,0.1,0.2,0.2s0,0.1,0,0.2
					s0,0.3,0.1,0.6c0.1,0.4,0.2,0.6,0.3,0.9c1-0.2,1.8-0.4,2.9-0.8c0.1,0,0.1,0,0.2,0.1c0.1,0.2,0.1,0.4,0.1,0.5s0,0.2-0.1,0.2
					c-1,0.3-1.8,0.5-2.8,0.7c0.2,0.5,0.4,1,0.7,1.6c1-0.2,1.9-0.5,2.8-0.8c0.1,0,0.2,0,0.2,0.1c0.1,0.2,0.1,0.4,0.1,0.5
					s0,0.2-0.1,0.2c-0.9,0.3-1.8,0.5-2.7,0.7c0.5,1,1.3,2.1,2.2,2.9c0.1,0.1,0.1,0.1,0.1,0.2c-0.1,0.2-0.2,0.4-0.3,0.5
					c-0.1,0.1-0.2,0.1-0.3,0c-0.3-0.2-0.6-0.4-1-0.5c-0.7-0.3-1.6-0.4-2.7-0.4c-1.5,0-2.4,0.4-2.4,1.4c0,1.1,1.3,1.5,3.5,1.5
					c0.5,0,1,0,1.4-0.1c0.1,0,0.1,0.1,0.1,0.2c0,0.2-0.1,0.5-0.2,0.7c0,0.1-0.1,0.2-0.2,0.2c-0.4,0-0.7,0.1-1.2,0.1
					c-2.8,0-4.4-0.8-4.4-2.4c0-1.4,1.2-2.2,3.2-2.2c1.2,0,2.2,0.2,2.9,0.5c-0.5-0.6-1.1-1.4-1.6-2.3c-1.4,0.3-2.7,0.4-4,0.5
					c-0.1,0-0.1,0-0.2-0.1c-0.1-0.2-0.1-0.4-0.1-0.7c1.4,0,2.7-0.2,4-0.4c-0.2-0.5-0.5-1-0.7-1.6c-1.1,0.2-2.4,0.4-3.7,0.4
					c-0.1,0-0.2,0-0.2-0.1s-0.1-0.4-0.1-0.6c1.3,0,2.7-0.2,3.8-0.3C107.9,36.6,107.8,36.3,107.6,35.9z M112.5,34.7L112.5,34.7
					c0.7,0.4,1.3,1.1,1.7,1.7c0,0.1,0,0.1,0,0.2l-0.4,0.3c-0.1,0.1-0.1,0-0.2,0c-0.4-0.7-1-1.3-1.6-1.8L112.5,34.7z M113.7,33.8
					c0.1,0,0.1-0.1,0.2,0c0.6,0.4,1.2,1.1,1.6,1.6c0,0.1,0,0.1,0,0.2l-0.4,0.3c-0.1,0.1-0.1,0.1-0.2,0c-0.3-0.6-1-1.3-1.6-1.8
					L113.7,33.8z"/>
			</g>
			<g>
				<path class="st2" d="M123.3,36.9c-0.3,2.4-1,4.7-1.8,6.1c-0.6,1-1.2,1.4-2.1,1.4c-1.1,0-2-1.1-2-3.2c0-1.3,0.6-2.7,1.6-3.6
					c1-1,2.4-1.6,4.2-1.6c3.1,0,5,1.8,5,4.5c0,2.3-1.4,4.1-4.5,4.9c-0.2,0-0.3,0-0.4-0.2c-0.1-0.1-0.3-0.4-0.5-0.5
					c2.8-0.5,4.4-2,4.4-4.4c0-2.1-1.6-3.5-3.6-3.5L123.3,36.9L123.3,36.9z M119.6,38.3c-0.9,0.9-1.3,2.1-1.3,3
					c0,1.5,0.6,2.2,1.1,2.2s0.9-0.3,1.3-1c0.7-1.3,1.5-3.4,1.6-5.5C121.2,37.1,120.2,37.6,119.6,38.3z"/>
			</g>
			<g>
				<path class="st2" d="M133.8,42.2c0.5-0.2,1-0.5,1.5-0.8c0,0.1,0,0.3,0,0.5c0,0.3,0,0.3-0.2,0.4c-0.9,0.5-1.9,1-2.9,1.4
					c-0.3,0.1-0.5,0.2-0.5,0.2c-0.1,0.1-0.1,0.1-0.2,0.1c-0.1,0-0.1,0-0.2-0.1c-0.1-0.2-0.2-0.5-0.3-0.8c0.4-0.1,0.8-0.2,1.3-0.4
					c0.2-0.1,0.4-0.1,0.6-0.2v-3.8h-0.4c-1,0-1.2,0-1.3,0s-0.1,0-0.1-0.1V38c0-0.1,0-0.1,0.1-0.1s0.3,0,1.3,0h0.4v-1.6
					c0-1,0-1.4-0.1-1.9c0.4,0,0.7,0,0.9,0.1c0.1,0,0.2,0.1,0.2,0.1s0,0.1-0.1,0.3c-0.1,0.2-0.1,0.5-0.1,1.4V38h0.1c1,0,1.2,0,1.3,0
					s0.1,0,0.1,0.1v0.6c0,0.1,0,0.1-0.1,0.1s-0.4,0-1.3,0h-0.1v3.4H133.8z M143.7,40.3c0,0.1,0,0.1-0.1,0.1s-0.5,0-1.9,0h-4.2
					c0.2,0.1,0.4,0.1,0.5,0.2c0.1,0,0.1,0.1,0.1,0.2s0,0.1-0.1,0.2s-0.2,0.1-0.3,0.3l-0.2,0.3h3.9c1.2,0,1.7,0,1.7,0
					c0.1,0,0.1,0,0.1,0.1l-0.1,1.4c-0.1,1-0.2,1.7-0.4,2.4c-0.2,0.8-0.6,1.1-1.4,1.1c-0.3,0-0.6,0-0.9,0c-0.2,0-0.2,0-0.3-0.3
					c-0.1-0.2-0.1-0.4-0.2-0.6c0.5,0.1,1,0.1,1.3,0.1s0.5-0.1,0.7-0.7c0.1-0.5,0.3-1.4,0.4-2.9h-1c-0.8,1.9-1.9,3.2-3.6,4.3
					c-0.1,0.1-0.2,0.1-0.2,0.1c-0.1,0-0.1,0-0.2-0.2s-0.3-0.3-0.4-0.3c1.8-1,3-2.2,3.6-3.9h-1.2c-0.9,1.5-2,2.5-3.4,3.4
					c-0.1,0.1-0.2,0.1-0.2,0.1c-0.1,0-0.1-0.1-0.2-0.2c-0.1-0.1-0.3-0.3-0.4-0.3c1.5-0.8,2.6-1.8,3.4-3.1H137
					c-0.6,0.8-1.4,1.5-2.2,2c-0.1,0.1-0.2,0.1-0.2,0.1c-0.1,0-0.1-0.1-0.2-0.2c-0.1-0.1-0.3-0.3-0.4-0.3c1.3-0.7,2.2-1.6,2.9-2.6
					c0.2-0.2,0.3-0.5,0.3-0.8h-0.1c-1.4,0-1.9,0-1.9,0c-0.1,0-0.1,0-0.1-0.1v-0.5c0-0.1,0-0.1,0.1-0.1s0.5,0,1.9,0h4.5
					c1.4,0,1.9,0,1.9,0c0.1,0,0.1,0,0.1,0.1L143.7,40.3L143.7,40.3z M142.2,37.5c0,0.8,0,1.1,0,1.2s0,0.1-0.1,0.1s-0.5,0-1.7,0h-2.3
					c-1.2,0-1.6,0-1.7,0c-0.1,0-0.1,0-0.1-0.1s0-0.4,0-1.2V36c0-0.8,0-1.1,0-1.2s0-0.1,0.1-0.1s0.5,0,1.7,0h2.3c1.2,0,1.6,0,1.7,0
					c0.1,0,0.1,0,0.1,0.1s0,0.4,0,1.2V37.5z M141.4,35.4h-4.2v1h4.2V35.4z M141.4,37.1h-4.2v1.1h4.2V37.1z"/>
			</g>
			<g>
				<path class="st2" d="M152.5,34.6c1.7,2.4,3.9,3.9,6.3,4.8c-0.2,0.2-0.3,0.4-0.4,0.6c-0.1,0.2-0.1,0.2-0.2,0.2
					c-0.1,0-0.1,0-0.2-0.1c-2.4-1-4.5-2.7-5.9-4.8c-1.5,2.2-3.4,3.7-5.7,4.9c-0.1,0.1-0.2,0.1-0.2,0.1c-0.1,0-0.1-0.1-0.2-0.2
					c-0.1-0.2-0.3-0.4-0.4-0.5c2.7-1.2,4.6-3,5.7-4.7c0.2-0.3,0.3-0.5,0.4-0.8c0.3,0.1,0.6,0.1,0.9,0.2c0.1,0,0.2,0.1,0.2,0.2
					s0,0.1-0.1,0.2L152.5,34.6z M156.1,44.1c0,2,0,2.3,0,2.4s0,0.1-0.1,0.1h-0.7c-0.1,0-0.1,0-0.1-0.1v-0.6H149v0.6
					c0,0.1,0,0.1-0.1,0.1h-0.7c-0.1,0-0.1,0-0.1-0.1s0-0.4,0-2.4V43c0-1.1,0-1.5,0-1.6s0-0.1,0.1-0.1s0.6,0,1.9,0h3.9
					c1.4,0,1.8,0,1.9,0c0.1,0,0.1,0,0.1,0.1s0,0.4,0,1.4v1.3H156.1z M155.2,42.1H149v3.1h6.2V42.1z M155,39.5c0,0.1,0,0.1-0.1,0.1
					s-0.5,0-1.6,0H151c-1.2,0-1.6,0-1.6,0c-0.1,0-0.1,0-0.1-0.1v-0.6c0-0.1,0-0.1,0.1-0.1s0.5,0,1.6,0h2.2c1.2,0,1.6,0,1.6,0
					c0.1,0,0.1,0,0.1,0.1L155,39.5L155,39.5z"/>
			</g>
			<g>
				<path class="st2" d="M163.5,35.5c0.2,0.1,0.2,0.2,0.1,0.4c-0.1,0.1-0.2,0.4-0.2,0.7c-0.4,2-0.7,3.9-0.7,5.2c0,0.8,0,1.5,0.1,2.4
					c0.3-0.8,0.6-1.5,1-2.3c0.1,0.3,0.2,0.4,0.3,0.6c0.1,0.1,0.1,0.2,0,0.3c-0.5,1.1-0.8,1.8-0.8,2.2c0,0.3,0,0.5,0,0.6
					s0,0.1-0.1,0.2c-0.2,0.1-0.4,0.1-0.6,0.2c-0.1,0-0.1,0-0.2-0.1c-0.5-1.2-0.5-2.8-0.5-4.1c0-1.5,0.2-3.1,0.6-5.3
					c0.1-0.5,0.1-1,0.1-1.4C162.8,35.2,163.3,35.4,163.5,35.5z M168.9,38.8c-1,0.1-2,0.1-3.1,0c-0.1,0-0.1,0-0.2-0.1
					c0-0.2-0.1-0.5-0.1-0.7c1.2,0.1,2.3,0.1,3.3,0c0-0.5,0-1,0-1.6c0-0.4,0-0.8-0.1-1.2c0.5,0,0.8,0.1,1.1,0.2
					c0.1,0,0.2,0.1,0.2,0.2s0,0.1-0.1,0.2s-0.1,0.4-0.1,0.7c0,0.5,0,1,0,1.6c0.7-0.1,1.5-0.2,2.2-0.3c0.1,0,0.1,0,0.1,0.1
					c0,0.2,0.1,0.4,0.1,0.6c0,0.1,0,0.2-0.1,0.2c-0.7,0.2-1.6,0.3-2.3,0.3c0,1.6,0.1,3,0.1,4.2c0.9,0.4,1.7,0.9,2.5,1.4
					c0.1,0.1,0.1,0.1,0,0.2c-0.1,0.2-0.2,0.4-0.4,0.6c-0.1,0.1-0.1,0.1-0.2,0c-0.6-0.5-1.2-0.9-2-1.3c-0.1,1.2-0.8,1.9-2.3,1.9
					c-1.3,0-2.2-0.6-2.2-1.6s1-1.7,2.2-1.7c0.4,0,1,0.1,1.5,0.2C168.9,41.5,168.9,40.2,168.9,38.8z M169,43.5
					c-0.5-0.2-1-0.2-1.5-0.2c-0.8,0-1.3,0.3-1.3,0.9c0,0.5,0.5,0.8,1.3,0.8c1,0,1.5-0.4,1.5-1.2V43.5z"/>
			</g>
			<g>
				<path class="st2" d="M182,36.2c-1.9,2.8-2.9,5.6-3.2,9.3h-1.3c0.4-3.7,1.4-6.3,3.3-9.2h-5.1v-1h6.4L182,36.2L182,36.2z"/>
			</g>
			<g>
				<path class="st2" d="M196.9,37.7c0,1.2,0,1.4,0,1.5s0,0.1-0.1,0.1h-0.6c-0.1,0-0.1,0-0.1-0.1v-2.1h-9.7v2.1c0,0.1,0,0.1-0.1,0.1
					h-0.6c-0.1,0-0.1,0-0.1-0.1s0-0.3,0-1.5v-0.5c0-0.5,0-0.7,0-0.7c0-0.1,0-0.1,0.1-0.1s0.6,0,1.9,0h5.9c0.4-0.6,0.7-1.1,0.9-1.7
					c0.1-0.1,0.1-0.4,0.2-0.6c0.3,0.1,0.6,0.2,0.8,0.3c0.1,0.1,0.2,0.1,0.2,0.2s0,0.1-0.1,0.2s-0.2,0.2-0.3,0.4
					c-0.3,0.4-0.5,0.9-0.8,1.3h0.5c1.4,0,1.8,0,1.9,0c0.1,0,0.1,0,0.1,0.1s0,0.3,0,0.7L196.9,37.7L196.9,37.7z M195.8,44.6
					c0,1.6,0,1.9,0,2s0,0.1-0.1,0.1h-0.6c-0.1,0-0.1,0-0.1-0.1v-0.5h-7.5v0.6c0,0.1,0,0.1-0.1,0.1h-0.7c-0.1,0-0.1,0-0.1-0.1
					s0-0.3,0-2V44c0-0.8,0-1.1,0-1.1c0-0.1,0-0.1,0.1-0.1s0.6,0,2,0h1.3c0.2-0.4,0.4-0.9,0.5-1.4h-0.8c-1.3,0-1.7,0-1.8,0
					s-0.1,0-0.1-0.1s0-0.3,0-1v-0.9c0-0.7,0-0.9,0-1s0-0.1,0.1-0.1s0.5,0,1.8,0h2.9c1.3,0,1.7,0,1.8,0s0.1,0,0.1,0.1s0,0.3,0,1v0.9
					c0,0.7,0,0.9,0,1s0,0.1-0.1,0.1s-0.5,0-1.8,0h-1.3c-0.2,0.5-0.4,1-0.5,1.4h2.9c1.4,0,1.9,0,2,0s0.1,0,0.1,0.1s0,0.4,0,1
					L195.8,44.6L195.8,44.6z M187.5,34.3c0.1-0.1,0.2-0.1,0.2,0c0.4,0.4,0.7,1,1,1.5c0,0.1,0,0.1-0.1,0.2l-0.4,0.2
					c-0.2,0.1-0.2,0.1-0.3-0.1c-0.2-0.4-0.6-1.1-0.9-1.4c-0.1-0.1-0.1-0.1,0.1-0.2L187.5,34.3z M195,43.4h-7.5v1.9h7.5V43.4z
					 M193.7,39h-5.1v1.7h5.1V39z M190.8,34.1c0.1,0,0.1,0,0.2,0.1c0.3,0.4,0.6,0.9,0.8,1.5c0,0.1,0,0.1-0.1,0.2l-0.4,0.2
					c-0.2,0.1-0.2,0.1-0.3-0.1c-0.2-0.4-0.5-1.1-0.8-1.5c-0.1-0.1,0-0.1,0.1-0.2L190.8,34.1z"/>
			</g>
			<g>
				<path class="st2" d="M206.9,43.1c1.3,1.1,3,1.8,5.4,2.4c-0.1,0.1-0.3,0.3-0.4,0.5c-0.1,0.3-0.1,0.3-0.4,0.2
					c-2.2-0.6-3.9-1.5-5.3-2.8c0,2.1,0.1,3,0.1,3.2c0,0.1,0,0.1-0.1,0.1h-0.7c-0.1,0-0.1,0-0.1-0.1c0-0.2,0.1-1.1,0.1-3.2
					c-1.4,1.4-2.9,2.1-5.1,2.8c-0.3,0.1-0.3,0.1-0.4-0.2c-0.1-0.2-0.2-0.3-0.4-0.5c2.3-0.6,4-1.3,5.2-2.5h-2.9c-1.3,0-1.8,0-1.8,0
					c-0.1,0-0.1,0-0.1-0.1v-0.5c0-0.1,0-0.1,0.1-0.1s0.5,0,1.8,0h3.6v-1.1h-2.1c-1.4,0-1.9,0-2,0s-0.1,0-0.1-0.1v-0.5
					c0-0.1,0-0.1,0.1-0.1s0.6,0,2,0h2.1v-1.1h-2.8c-1.4,0-1.9,0-1.9,0c-0.1,0-0.1,0-0.1-0.1v-0.5c0-0.1,0-0.1,0.1-0.1s0.5,0,1.9,0
					h1.1c-0.2-0.5-0.4-0.9-0.6-1.2c-0.1-0.1,0-0.1,0.1-0.2l0.4-0.1c0.1-0.1,0.2-0.1,0.2,0c0.3,0.4,0.5,0.9,0.7,1.5h2.6
					c0.2-0.3,0.3-0.6,0.5-1c0.1-0.2,0.1-0.3,0.2-0.6c0.3,0.1,0.5,0.1,0.7,0.2c0.1,0,0.2,0.1,0.2,0.2s-0.1,0.1-0.1,0.2
					c-0.1,0.1-0.1,0.2-0.2,0.3c-0.1,0.2-0.3,0.5-0.5,0.8h1.2c1.4,0,1.9,0,1.9,0c0.1,0,0.1,0,0.1,0.1v0.5c0,0.1,0,0.1-0.1,0.1
					s-0.5,0-1.9,0h-3v1.1h2.4c1.4,0,1.9,0,2,0s0.1,0,0.1,0.1v0.5c0,0.1,0,0.1-0.1,0.1s-0.6,0-2,0h-2.4v1.1h3.9c1.3,0,1.8,0,1.8,0
					c0.1,0,0.1,0,0.1,0.1V43c0,0.1,0,0.1-0.1,0.1s-0.5,0-1.8,0C210.1,43.1,206.9,43.1,206.9,43.1z M212,37.1c0,0.1,0,0.1-0.1,0.1
					s-0.5,0-1.8,0h-8.3c-1.3,0-1.8,0-1.8,0c-0.1,0-0.1,0-0.1-0.1v-0.5c0-0.1,0-0.1,0.1-0.1s0.5,0,1.8,0h0.5c-0.3-0.6-0.6-1.1-1-1.5
					c-0.1-0.1-0.1-0.1,0.1-0.2l0.4-0.2c0.1-0.1,0.1-0.1,0.2,0c0.4,0.4,0.7,0.9,1,1.4c0,0.1,0,0.1-0.1,0.2l-0.5,0.3h1.8v-1.1
					c0-0.5,0-0.9-0.1-1.3c0.3,0,0.6,0,0.9,0.1c0.1,0,0.1,0.1,0.1,0.1c0,0.1,0,0.1-0.1,0.2s-0.1,0.4-0.1,0.9v1.1h1.5v-1
					c0-0.5,0-0.9-0.1-1.3c0.3,0,0.6,0,0.9,0.1c0.1,0,0.1,0.1,0.1,0.1c0,0.1,0,0.1-0.1,0.2c0,0.1-0.1,0.4-0.1,0.9v1.1h1.3
					c0.3-0.4,0.5-0.9,0.8-1.3c0.1-0.2,0.2-0.4,0.2-0.7c0.3,0.1,0.6,0.2,0.8,0.3c0.1,0,0.1,0.1,0.1,0.1c0,0.1,0,0.1-0.1,0.2
					s-0.2,0.2-0.2,0.3c-0.2,0.4-0.5,0.7-0.7,1.1h0.6c1.3,0,1.8,0,1.8,0c0.1,0,0.1,0,0.1,0.1v0.4H212z"/>
			</g>
			<g>
				<path class="st2" d="M224.4,41.4c0,4,0,4.7,0,4.8c0,0.1,0,0.1-0.1,0.1h-0.7c-0.1,0-0.1,0-0.1-0.1v-0.9H217v0.9
					c0,0.1,0,0.1-0.1,0.1h-0.7c-0.1,0-0.1,0-0.1-0.1s0-0.8,0-4.8v-2.7c0-2.7,0-3.4,0-3.5s0-0.1,0.1-0.1s0.6,0,1.9,0h4.2
					c1.4,0,1.9,0,1.9,0c0.1,0,0.1,0,0.1,0.1s0,0.8,0,3.2v3H224.4z M223.6,35.9h-6.5v3.8h6.5V35.9z M223.6,40.5h-6.5v4.1h6.5V40.5z"
					/>
			</g>
			<g>
				<path class="st2" d="M228.7,41c1.1-1.2,2.1-1.8,3.3-1.8c0.9,0,1.6,0.3,2.8,0.9c1.4,0.8,2.2,1,3,1c0.9,0,1.7-0.3,2.7-1.4l0.4,0.4
					c-1.1,1.3-2.1,1.9-3.3,1.9c-0.8,0-1.6-0.2-2.8-0.9c-1.4-0.8-2.1-1-3-1c-0.8,0-1.6,0.3-2.7,1.4L228.7,41z"/>
			</g>
			<g>
				<path class="st2" d="M255.6,35.8c0,0.1,0,0.1-0.1,0.1s-0.5,0-1.6,0v6.6c0,1.5,0,2.1,0,2.6c0,0.6-0.1,0.9-0.4,1.1
					c-0.3,0.3-1.1,0.3-2.4,0.3c-0.3,0-0.3,0-0.3-0.3c-0.1-0.3-0.2-0.5-0.3-0.6c0.4,0,1.1,0.1,1.7,0.1c0.6,0,0.8-0.1,0.8-0.5V36h-7.6
					c-1.3,0-1.8,0-1.8,0c-0.1,0-0.1,0-0.1-0.1v-0.7c0-0.1,0-0.1,0.1-0.1s0.5,0,1.8,0h8.2c1.3,0,1.8,0,1.8,0c0.1,0,0.1,0,0.1,0.1v0.6
					H255.6z M250.3,41c0,2.1,0,2.4,0,2.5s0,0.1-0.1,0.1h-0.6c-0.1,0-0.1,0-0.1-0.1v-0.7h-3.4v1.1c0,0.1,0,0.1-0.1,0.1h-0.6
					c-0.1,0-0.1,0-0.1-0.1s0-0.4,0-2.6v-1.4c0-1.3,0-1.7,0-1.8c0-0.1,0-0.1,0.1-0.1s0.4,0,1.5,0h1.9c1.1,0,1.4,0,1.5,0
					s0.1,0,0.1,0.1s0,0.4,0,1.5L250.3,41L250.3,41z M249.5,38.8h-3.4V42h3.4V38.8z"/>
			</g>
			<g>
				<path class="st2" d="M262.5,35.5c0.1-0.1,0.2-0.1,0.2,0c0.6,0.7,1.1,1.5,1.6,2.3c0,0.1,0,0.1-0.1,0.2l-0.3,0.2
					c-0.1,0-0.1,0.1-0.2,0.1c0,0-0.1,0-0.1-0.1c-0.1-0.2-0.2-0.5-0.4-0.7c-1.3,0.2-2.7,0.4-4.3,0.6c-0.4,0-0.5,0.1-0.6,0.2
					c-0.1,0-0.1,0.1-0.2,0.1s-0.1,0-0.1-0.2c-0.1-0.2-0.1-0.5-0.2-0.8c0.4,0,0.9,0,1.2,0c0.4-0.8,0.9-1.7,1.1-2.2
					c0.1-0.3,0.2-0.6,0.3-1c0.3,0.1,0.6,0.1,0.8,0.2c0.1,0.1,0.2,0.1,0.2,0.2s-0.1,0.2-0.1,0.2c-0.1,0.1-0.2,0.2-0.2,0.4
					c-0.3,0.6-0.7,1.4-1.1,2.1c1-0.1,2-0.2,2.9-0.4c-0.2-0.3-0.5-0.7-0.7-1c-0.1-0.1,0-0.1,0.1-0.2L262.5,35.5z M263.5,43.5
					c0,0.7,0,1.5,0,1.8c0,0.4,0,0.7-0.3,0.9c-0.2,0.2-0.4,0.3-1.4,0.3c-0.3,0-0.3,0-0.4-0.3c-0.1-0.2-0.1-0.4-0.2-0.5
					c0.3,0,0.6,0.1,0.9,0.1c0.5,0,0.6-0.1,0.6-0.6v-1.6h-3v1.2c0,1.2,0,1.7,0,1.7c0,0.1,0,0.1-0.1,0.1H259c-0.1,0-0.1,0-0.1-0.1
					s0-0.5,0-1.7v-4c0-1.2,0-1.7,0-1.8c0-0.1,0-0.1,0.1-0.1s0.4,0,1.4,0h1.5c1,0,1.3,0,1.4,0s0.1,0,0.1,0.1s0,0.6,0,1.8v2.7H263.5z
					 M262.7,39.6h-3v1.3h3V39.6z M262.7,41.6h-3v1.3h3V41.6z M265.7,38.5c0,0.4,0.1,0.5,0.4,0.6c0.2,0.1,0.6,0.1,1.4,0.1
					c0.9,0,1.5-0.1,1.7-0.3s0.3-0.5,0.3-1.3c0.2,0.1,0.3,0.2,0.5,0.3c0.2,0.1,0.2,0.1,0.2,0.4c-0.1,0.8-0.2,1-0.5,1.3
					s-1.1,0.4-2.3,0.4c-0.9,0-1.6,0-2-0.2c-0.3-0.1-0.5-0.3-0.5-0.9v-3.1c0-0.6,0-1.1-0.1-1.4c0.3,0,0.6,0,0.9,0.1
					c0.1,0,0.2,0.1,0.2,0.1c0,0.1,0,0.2-0.1,0.2c-0.1,0.1-0.1,0.3-0.1,1v1c1-0.3,1.9-0.7,2.5-1.1c0.4-0.2,0.6-0.4,0.7-0.6
					c0.3,0.2,0.4,0.4,0.6,0.5c0.1,0.1,0.1,0.1,0.1,0.2s-0.1,0.1-0.2,0.1c-0.2,0-0.4,0.1-0.6,0.3c-0.9,0.4-2,0.9-3.2,1.3v1H265.7z
					 M265.8,44.9c0,0.3,0.1,0.5,0.4,0.6c0.2,0.1,0.7,0.1,1.5,0.1c0.6,0,1.4-0.1,1.6-0.3c0.3-0.3,0.3-0.6,0.4-1.4
					c0.2,0.1,0.4,0.2,0.6,0.3c0.2,0.1,0.2,0.1,0.2,0.4c-0.1,0.8-0.3,1.1-0.6,1.3c-0.3,0.2-1.1,0.4-2.2,0.4c-1,0-1.7,0-2.1-0.2
					c-0.3-0.1-0.5-0.4-0.5-1v-3.2c0-0.6,0-1-0.1-1.4c0.3,0,0.6,0,0.9,0.1c0.1,0,0.2,0.1,0.2,0.1c0,0.1,0,0.2-0.1,0.3
					c0,0.1-0.1,0.2-0.1,0.9v0.9c1-0.4,2-0.8,2.7-1.2c0.4-0.2,0.6-0.4,0.7-0.6c0.3,0.2,0.4,0.3,0.6,0.5c0.1,0.1,0.1,0.2,0.1,0.2
					c0,0.1-0.1,0.1-0.2,0.1c-0.2,0-0.4,0.1-0.6,0.3c-0.9,0.5-2,1-3.3,1.4v1.4H265.8z"/>
			</g>
			<g>
				<path class="st2" d="M276.5,45c0,1.1-0.9,1.9-2,1.9s-2-0.9-2-1.9c0-1.1,0.9-1.9,2-1.9S276.5,44,276.5,45z M273.3,45
					c0,0.7,0.6,1.2,1.2,1.2c0.7,0,1.2-0.6,1.2-1.2s-0.5-1.2-1.2-1.2C273.9,43.8,273.3,44.4,273.3,45z"/>
			</g>
			<g>
				<path class="st2" d="M14.1,60.4c0-0.6,0-1-0.1-1.3c0.4,0,0.9,0.1,1.1,0.2c0.1,0,0.2,0.1,0.2,0.2s0,0.1-0.1,0.2
					C15.1,59.8,15,60,15,60.4s0,0.8-0.1,1.2c0.7-0.1,1.4-0.3,2.1-0.6c0.1,0,0.2,0,0.2,0.1c0,0.2,0.1,0.4,0.1,0.6
					c0,0.1,0,0.1-0.2,0.2c-0.7,0.3-1.3,0.4-2.2,0.6c0,0.9,0,1.8,0,2.8c1.3-0.6,2.5-1.1,3.7-1.1c1.7,0,2.7,1.1,2.7,2.5
					c0,1.7-1.1,2.6-2.9,2.6c-0.4,0-0.8-0.1-1.1-0.2c-0.1,0-0.2-0.1-0.2-0.4c0-0.2-0.1-0.4-0.2-0.6c0.5,0.2,1,0.3,1.5,0.3
					c1.1,0,2-0.6,2-1.7c0-1-0.7-1.7-1.9-1.7c-0.8,0-1.9,0.4-3.5,1.2c0,0.5,0,1.3,0.1,2.1c0,0.7,0.1,1.1,0.1,1.3c0,0.2,0,0.3-0.2,0.3
					S14.6,70,14.4,70c-0.1,0-0.2-0.1-0.5-0.5c-0.5-0.5-1.2-1-2-1.6c-0.2,0.1-0.4,0.2-0.5,0.3c-0.1,0.1-0.1,0.1-0.2,0.1
					c-0.1,0-0.1-0.1-0.2-0.2c-0.1-0.2-0.3-0.5-0.4-0.9c0.4-0.1,0.8-0.2,1.4-0.5c0.6-0.3,1.4-0.7,2.3-1.2c0-1,0-2,0-3
					c-0.9,0.1-1.6,0.2-2.6,0.2c-0.2,0-0.2-0.1-0.3-0.2c0-0.2-0.1-0.4-0.1-0.7c0.9,0,1.8,0,2.9-0.1C14.1,61.3,14.1,60.9,14.1,60.4z
					 M12.3,67.6c0.7,0.4,1.1,0.7,1.7,1c0.1,0.1,0.1,0,0.1-0.1c0-0.6,0-1.2-0.1-2C13.4,66.9,12.9,67.2,12.3,67.6z M19.1,60.8
					c0.1-0.1,0.1-0.1,0.2-0.1c1.1,0.2,2.1,0.7,2.8,1.5c0.1,0.1,0.1,0.1,0,0.2c-0.1,0.2-0.3,0.4-0.4,0.6c-0.1,0.1-0.1,0.1-0.2,0
					c-0.7-0.8-1.6-1.3-2.7-1.5C18.9,61.2,19,61,19.1,60.8z"/>
			</g>
			<g>
				<path class="st2" d="M26.3,64.9c0-0.5,0-1.3,0-2c-0.4,0.6-0.8,1.1-1.3,1.6c-0.1,0.1-0.1,0.1-0.2,0.1c0,0-0.1,0-0.1-0.1
					c-0.1-0.2-0.2-0.4-0.4-0.6c1.4-1.5,2.3-3.1,3-4.9c0.1-0.3,0.2-0.7,0.2-0.9c0.3,0.1,0.6,0.2,0.9,0.3c0.1,0.1,0.2,0.1,0.2,0.2
					s0,0.1-0.1,0.2s-0.2,0.2-0.3,0.5c-0.3,0.8-0.6,1.5-1.1,2.2v6.9c0,1.5,0,2.1,0,2.2s0,0.1-0.1,0.1h-0.7c-0.1,0-0.1,0-0.1-0.1
					s0-0.7,0-2.2v-3.5H26.3z M37.3,70C37.3,70.1,37.3,70.1,37.3,70c-0.2,0.1-0.6,0.1-2.1,0.1H30c-1.4,0-1.9,0-2,0s-0.1,0-0.1-0.1
					v-0.6c0-0.1,0-0.1,0.1-0.1s0.6,0,2,0h2v-3.5h-1.1c-1.3,0-1.8,0-1.8,0c-0.1,0-0.1,0-0.1-0.1v-0.6c0-0.1,0-0.1,0.1-0.1
					s0.5,0,1.8,0H32v-2.9h-1.5c-1.4,0-1.9,0-1.9,0c-0.1,0-0.1,0-0.1-0.1v-0.6c0-0.1,0-0.1,0.1-0.1s0.5,0,1.9,0h4.2
					c1.4,0,1.9,0,1.9,0c0.1,0,0.1,0,0.1,0.1V62c0,0.1,0,0.1-0.1,0.1s-0.5,0-1.9,0h-1.8V65h1.3c1.3,0,1.8,0,1.8,0
					c0.1,0,0.1,0,0.1,0.1v0.6c0,0.1,0,0.1-0.1,0.1s-0.5,0-1.8,0h-1.3v3.5h2.3c1.4,0,1.9,0,2,0s0.1,0,0.1,0.1V70z M31.2,58.4
					c0.1-0.1,0.1-0.1,0.2-0.1c0.8,0.4,1.6,0.9,2.3,1.5c0.1,0.1,0.1,0.1,0,0.2l-0.3,0.4c-0.1,0.2-0.2,0.2-0.3,0.1
					c-0.7-0.6-1.5-1.2-2.3-1.6c-0.1-0.1-0.1-0.1,0-0.2L31.2,58.4z"/>
			</g>
			<g>
				<path class="st2" d="M48.9,63c0-0.3,0-0.6,0-0.9c0.5,0.1,0.8,0.2,1.1,0.4c0.1,0.1,0.1,0.2,0.1,0.3C50,62.9,50,63,49.9,63.2
					c-0.1,0.6-0.3,1.5-0.4,2.1c0.8,0.4,1.6,0.9,2.4,1.4c0.1,0,0.1,0.1,0.1,0.2c-0.1,0.2-0.3,0.5-0.4,0.7c-0.1,0.1-0.1,0.1-0.2,0
					c-0.8-0.6-1.5-1.1-2.1-1.4c-0.7,1.8-1.5,3-2.9,4c-0.2,0.1-0.2,0.1-0.3,0.1c-0.2-0.2-0.4-0.3-0.7-0.3c1.8-1.2,2.6-2.4,3.2-4.1
					c-1-0.5-2.1-0.9-3.4-1c-0.6,1.4-1.1,2.2-1.5,2.7c-0.5,0.6-1.1,0.9-1.7,0.9c-0.7,0-1.4-0.5-1.4-1.6c0-1.6,1.7-2.8,4.1-2.8
					c0.5-1.3,1-2.4,1.4-3.9c-1,0.1-2,0.2-2.5,0.3c-0.3,0-0.5,0.1-0.6,0.1s-0.1,0-0.2,0c-0.1,0-0.1,0-0.2-0.1c-0.1-0.2-0.2-0.5-0.3-1
					c0.4,0.1,0.7,0.1,1.2,0.1c0.6,0,1.4-0.1,2.1-0.2c0.4-0.1,0.5-0.1,0.6-0.2s0.2-0.1,0.3,0c0.2,0.1,0.4,0.3,0.6,0.5
					c0.1,0.1,0.1,0.2,0,0.3c-0.1,0.1-0.2,0.4-0.3,0.7c-0.5,1.3-0.9,2.3-1.4,3.4c1.2,0.1,2.3,0.4,3.4,0.9
					C48.8,64.3,48.9,63.6,48.9,63z M41,66.7c0,0.5,0.2,0.8,0.6,0.8c0.3,0,0.7-0.2,1.1-0.7c0.3-0.4,0.7-1,1.2-2
					C42.3,64.9,41,65.7,41,66.7z"/>
			</g>
			<g>
				<path class="st2" d="M60,62.1C60,62.2,60,62.2,60,62.1c-0.2,0.1-0.5,0.1-1.7,0.1h-0.4c0.5,0.7,1.1,1.2,1.9,1.6
					c-0.1,0.1-0.3,0.3-0.3,0.4c-0.1,0.2-0.1,0.2-0.2,0.2c0,0-0.1,0-0.2-0.1c-0.7-0.5-1.2-1-1.7-1.7c-0.4,1-1.2,1.9-2.4,2.7
					c-0.1,0.1-0.2,0.1-0.2,0.1s-0.1-0.1-0.2-0.2c-0.1-0.2-0.3-0.3-0.4-0.4c1.3-0.7,2.1-1.5,2.5-2.6H56c-1.2,0-1.5,0-1.6,0
					s-0.1,0-0.1-0.1v-0.5c0-0.1,0-0.1,0.1-0.1s0.4,0,1.6,0h1c0.1-0.4,0.1-0.8,0.2-1.2h-0.6c-1.1,0-1.4,0-1.5,0s-0.1,0-0.1-0.1v-0.5
					c0-0.1,0-0.1,0.1-0.1s0.4,0,1.5,0h0.7v-0.2c0-0.6,0-0.9-0.1-1.3c0.3,0,0.5,0,0.8,0.1c0.1,0,0.2,0.1,0.2,0.1c0,0.1,0,0.2-0.1,0.3
					C58,58.8,58,58.9,58,59.3c0,0.1,0,0.2,0,0.3h0.3c1.1,0,1.4,0,1.5,0s0.1,0,0.1,0.1v0.5c0,0.1,0,0.1-0.1,0.1s-0.4,0-1.5,0H58
					c0,0.4-0.1,0.9-0.2,1.2h0.5c1.2,0,1.5,0,1.6,0s0.1,0,0.1,0.1C60,61.6,60,62.1,60,62.1z M64.1,68c0,2.2,0,2.5,0,2.6
					s0,0.1-0.1,0.1h-0.6c-0.1,0-0.1,0-0.1-0.1V70h-5.7v0.7c0,0.1,0,0.1-0.1,0.1h-0.6c-0.1,0-0.1,0-0.1-0.1s0-0.4,0-2.6v-1.3
					c0-1.3,0-1.7,0-1.7c0-0.1,0-0.1,0.1-0.1s0.5,0,1.9,0h3.4c1.3,0,1.8,0,1.9,0s0.1,0,0.1,0.1s0,0.4,0,1.5V68H64.1z M63.3,65.7h-5.7
					v1.4h5.7V65.7z M63.3,67.8h-5.7v1.5h5.7V67.8z M63.6,62.2c0.8,1.1,1.7,1.8,3,2.4c-0.1,0.1-0.2,0.3-0.3,0.5
					c-0.1,0.1-0.1,0.2-0.2,0.2c0,0-0.1,0-0.2-0.1c-1.2-0.7-2.1-1.5-2.9-2.7c-0.4,0.8-0.9,1.5-1.9,2.2c-0.1,0.1-0.2,0.1-0.2,0.1
					s-0.1-0.1-0.2-0.2c-0.1-0.2-0.3-0.3-0.4-0.4c1.1-0.6,1.7-1.2,2-2c-1.2,0-1.6,0-1.7,0c-0.1,0-0.1,0-0.1-0.1v-0.5
					c0-0.1,0-0.1,0.1-0.1s0.5,0,1.7,0h0.2c0.1-0.4,0.2-0.8,0.2-1.2h-0.3c-1.1,0-1.5,0-1.5,0c-0.1,0-0.1,0-0.1-0.1v-0.5
					c0-0.1,0-0.1,0.1-0.1s0.4,0,1.5,0h0.3v-0.2c0-0.6,0-0.9-0.1-1.3c0.3,0,0.5,0,0.8,0.1c0.1,0,0.2,0.1,0.2,0.1c0,0.1,0,0.2-0.1,0.3
					c0,0.1-0.1,0.3-0.1,0.7v0.3h0.8c1.1,0,1.5,0,1.5,0c0.1,0,0.1,0,0.1,0.1v0.5c0,0.1,0,0.1-0.1,0.1s-0.4,0-1.5,0h-0.9
					c0,0.4-0.1,0.9-0.2,1.2h1.3c1.2,0,1.6,0,1.7,0s0.1,0,0.1,0.1v0.5c0,0.1,0,0.1-0.1,0.1s-0.5,0-1.7,0H63.6z"/>
			</g>
			<g>
				<path class="st2" d="M73.1,62.5c1.1-0.2,2-0.4,2.6-0.5c0.2-0.1,0.3-0.1,0.4-0.2c0.1,0,0.1-0.1,0.2-0.1s0.1,0,0.2,0.1
					c0.2,0.1,0.4,0.3,0.5,0.4s0.1,0.2,0.1,0.2c0,0.1-0.1,0.2-0.2,0.2c-0.2,0.1-0.3,0.2-0.5,0.4c-1,1-2,2-3,3.1
					c0.3-0.1,0.5-0.2,0.8-0.2c0.7,0,1.3,0.5,1.5,1.6c0.3,1.3,0.5,1.5,2,1.5c0.7,0,1.4-0.1,2.1-0.2c0.1,0,0.2,0,0.2,0.1
					c0,0.2,0.1,0.4,0.1,0.7c0,0.1-0.1,0.1-0.2,0.2c-0.6,0.1-1.4,0.2-2,0.2c-2,0-2.6-0.4-2.9-1.8c-0.2-1-0.4-1.5-1.1-1.5
					c-0.4,0-1,0.3-1.6,0.8c-0.7,0.7-1.5,1.7-2.2,2.4C70,70,70,70,69.9,69.9c-0.2-0.2-0.4-0.3-0.5-0.5c-0.1-0.1,0-0.2,0-0.3
					c1-1.1,2-2.1,2.7-2.7c0.9-0.9,1.9-2.1,3.3-3.6c-1.5,0.3-2.7,0.5-3.9,0.8c-0.3,0.1-0.5,0.2-0.6,0.2c-0.1,0.1-0.2,0.1-0.3,0.1
					c-0.1,0-0.1-0.1-0.2-0.2c-0.1-0.2-0.3-0.6-0.4-1C71.1,62.8,71.8,62.7,73.1,62.5z M76.5,59.6c0.1,0,0.1,0.1,0.1,0.2
					c-0.1,0.2-0.1,0.5-0.2,0.6c0,0.1-0.1,0.1-0.2,0.1c-1.2-0.3-2.6-0.7-3.6-1.1c-0.1,0-0.1-0.1-0.1-0.2c0.1-0.2,0.2-0.5,0.3-0.8
					C74.1,59,75.3,59.4,76.5,59.6z"/>
			</g>
			<g>
				<path class="st2" d="M87.9,61.6c0.9-0.3,1.8-0.5,2.7-0.5c1.6,0,2.6,0.9,2.6,2.3c0,1.7-1.4,2.6-3.4,2.6c-0.2,0-0.4,0-0.7,0
					c-0.1,0-0.2-0.1-0.2-0.1c-0.1-0.3-0.2-0.5-0.4-0.8c0.4,0.1,0.8,0.1,1.2,0.1c1.4,0,2.5-0.5,2.5-1.8c0-1.1-0.9-1.4-1.6-1.4
					c-0.9,0-1.6,0.2-2.2,0.4c-0.9,0.3-1.8,0.7-2.6,1c0.8,2.2,1.5,4.3,2.3,6.5c0.1,0.1,0.1,0.2-0.1,0.3c-0.2,0.1-0.4,0.2-0.7,0.3
					c-0.1,0-0.1,0-0.1-0.1c-0.7-2.3-1.4-4.3-2.2-6.5c-0.7,0.3-1.1,0.5-1.7,0.7c-0.4,0.2-0.6,0.3-0.8,0.4c-0.1,0.1-0.2,0.1-0.2,0.1
					c-0.1,0-0.2,0-0.2-0.1c-0.2-0.2-0.4-0.6-0.6-0.9c0.6-0.1,1-0.2,1.4-0.4c0.5-0.2,1-0.4,1.7-0.7c-0.2-0.5-0.3-1-0.5-1.5
					s-0.4-0.8-0.7-1.3c0.4-0.1,0.9-0.1,1.2-0.1c0.2,0,0.2,0.1,0.2,0.2s0,0.2,0,0.4s0.1,0.4,0.3,0.9c0.2,0.5,0.3,0.7,0.4,1.1
					C86.2,62.2,87,61.9,87.9,61.6z M87.6,58.8c0.1-0.1,0.1-0.1,0.2,0c0.5,0.3,1,0.8,1.5,1.3c0.1,0.1,0.1,0.1,0,0.2
					c-0.2,0.2-0.3,0.3-0.5,0.5c-0.1,0-0.1,0-0.2,0c-0.5-0.6-1-1.1-1.7-1.5C87.2,59,87.5,58.8,87.6,58.8z"/>
			</g>
			<g>
				<path class="st2" d="M102.3,60.4C102.3,60.5,102.3,60.5,102.3,60.4c-0.2,0.1-0.6,0.1-1.8,0.1h-0.8v1.2h0.5c1.1,0,1.4,0,1.5,0
					s0.1,0,0.1,0.1s0,0.4,0,1.3v2c0,0.9,0,1.2,0,1.3c0,0.1,0,0.1-0.1,0.1s-0.4,0-1.5,0h-0.5v1.2h0.7c1.2,0,1.6,0,1.7,0
					s0.1,0,0.1,0.1v0.5c0,0.1,0,0.1-0.1,0.1s-0.5,0-1.7,0h-0.7c0,1.5,0,2.2,0,2.3c0,0.1,0,0.1-0.1,0.1H99c-0.1,0-0.1,0-0.1-0.1
					s0-0.8,0-2.3h-1c-1.2,0-1.6,0-1.7,0s-0.1,0-0.1-0.1v-0.5c0-0.1,0-0.1,0.1-0.1s0.5,0,1.7,0h1v-1.3h-0.5c-1.1,0-1.4,0-1.5,0
					s-0.1,0-0.1-0.1s0-0.4,0-1.3v-2c0-0.9,0-1.2,0-1.3c0-0.1,0-0.1,0.1-0.1s0.4,0,1.5,0h0.5v-1.2h-0.8c-1.2,0-1.6,0-1.7,0
					s-0.1,0-0.1-0.1v-0.5c0-0.1,0-0.1,0.1-0.1s0.5,0,1.7,0h0.8c0-0.8,0-1.2-0.1-1.6c0.3,0,0.6,0,0.9,0.1c0.1,0,0.2,0.1,0.2,0.1
					c0,0.1,0,0.1-0.1,0.2c0,0.1-0.1,0.4-0.1,1.2h0.8c1.2,0,1.6,0,1.7,0s0.1,0,0.1,0.1V60.4z M98.9,62.3h-1.3v1.4h1.3V62.3z
					 M98.9,64.3h-1.3v1.5h1.3V64.3z M101.1,62.3h-1.4v1.4h1.4V62.3z M101.1,64.3h-1.4v1.5h1.4V64.3z M106.5,65.7
					c0.1-0.1,0.2-0.1,0.2,0c0.8,1.4,1.4,2.7,2,4.3c0,0.1,0,0.1-0.1,0.2l-0.5,0.2c-0.2,0.1-0.2,0.1-0.2,0c-0.1-0.4-0.2-0.7-0.4-1.1
					c-1.6,0.3-3,0.5-4.7,0.7c-0.4,0-0.5,0.1-0.6,0.1s-0.1,0.1-0.2,0.1s-0.1,0-0.1-0.1c-0.1-0.3-0.2-0.6-0.2-0.8c0.4,0,0.8,0,1.2,0
					c0.6-1.6,1.1-3.3,1.4-5h-0.1c-1.2,0-1.7,0-1.7,0c-0.1,0-0.1,0-0.1-0.1v-0.8c0-0.1,0-0.1,0.1-0.1s0.5,0,1.7,0h2.7
					c1.2,0,1.7,0,1.7,0c0.1,0,0.1,0,0.1,0.1V64c0,0.1,0,0.1-0.1,0.1s-0.5,0-1.7,0h-1.7c-0.4,1.8-0.9,3.4-1.5,5
					c1.2-0.1,2.4-0.3,3.6-0.5c-0.3-0.8-0.8-1.7-1.2-2.5c-0.1-0.1,0-0.1,0.1-0.2L106.5,65.7z M108.2,60.2
					C108.2,60.3,108.2,60.3,108.2,60.2c-0.2,0.1-0.5,0.1-1.7,0.1h-2c-1.1,0-1.5,0-1.6,0s-0.1,0-0.1-0.1v-0.6c0-0.1,0-0.1,0.1-0.1
					s0.4,0,1.6,0h2c1.1,0,1.5,0,1.6,0s0.1,0,0.1,0.1V60.2z"/>
			</g>
			<g>
				<path class="st2" d="M117.9,60.2C117.9,60.3,117.9,60.3,117.9,60.2c-0.2,0.1-0.6,0.1-1.8,0.1c0,0.6,0,0.8,0,0.9s0,0.1-0.1,0.1
					h-0.6c-0.1,0-0.1,0-0.1-0.1s0-0.3,0-0.9h-1.8c0,0.6,0,0.8,0,0.9s0,0.1-0.1,0.1H113c-0.1,0-0.1,0-0.1-0.1s0-0.3,0-0.9
					c-1.3,0-1.7,0-1.8,0c-0.1,0-0.1,0-0.1-0.1v-0.5c0-0.1,0-0.1,0.1-0.1s0.5,0,1.8,0v-0.2c0-0.4,0-0.7-0.1-1.1c0.3,0,0.5,0,0.8,0.1
					c0.1,0,0.1,0.1,0.1,0.1s0,0.1-0.1,0.2c0,0.1-0.1,0.3-0.1,0.7v0.1h1.8v-0.1c0-0.5,0-0.8-0.1-1.1c0.3,0,0.6,0,0.8,0.1
					c0.1,0,0.2,0,0.2,0.1s0,0.1-0.1,0.2S116,59,116,59.4v0.1c1.2,0,1.6,0,1.7,0s0.1,0,0.1,0.1L117.9,60.2L117.9,60.2z M114.9,68.8
					c0.9-0.2,1.8-0.4,2.6-0.6c0,0.2-0.1,0.3-0.1,0.4c0,0.3,0,0.3-0.3,0.3c-1.6,0.4-3.3,0.7-5,1c-0.3,0.1-0.4,0.1-0.5,0.1
					s-0.1,0.1-0.2,0.1s-0.1-0.1-0.2-0.2c-0.1-0.2-0.1-0.4-0.2-0.7c0.5,0,0.8,0,1.4-0.1c0.5-0.1,1.1-0.2,1.7-0.3v-1.3h-0.6
					c-1.1,0-1.5,0-1.5,0c-0.1,0-0.1,0-0.1-0.1v-0.5c0-0.1,0-0.1,0.1-0.1s0.4,0,1.5,0h0.6v-1h-0.7c-1.2,0-1.6,0-1.6,0
					c-0.1,0-0.1,0-0.1-0.1v-0.3c0-0.1,0-0.1,0.1-0.1s0.4,0,1.6,0h0.7v-1h-0.8c-1.2,0-1.6,0-1.7,0s-0.1,0-0.1-0.1s0-0.3,0-0.9v-0.7
					c0-0.6,0-0.8,0-0.9s0-0.1,0.1-0.1s0.5,0,1.7,0h2.3c1.2,0,1.6,0,1.7,0s0.1,0,0.1,0.1s0,0.3,0,0.9v0.7c0,0.6,0,0.8,0,0.9
					s0,0.1-0.1,0.1s-0.5,0-1.7,0h-0.8v1h0.7c1.2,0,1.6,0,1.6,0c0.1,0,0.1,0,0.1,0.1v0.5c0,0.1,0,0.1-0.1,0.1s-0.4,0-1.6,0h-0.7v1
					h0.6c1.1,0,1.5,0,1.6,0s0.1,0,0.1,0.1v0.5c0,0.1,0,0.1-0.1,0.1s-0.4,0-1.6,0h-0.6L114.9,68.8L114.9,68.8z M114.1,62.4h-1.8v1.4
					h1.8V62.4z M116.7,62.4h-1.8v1.4h1.8V62.4z M121.4,61.6c1.1,0,1.4,0,1.5,0s0.1,0,0.1,0.1c0,0.4,0,0.8,0,1.3
					c0,2.1-0.1,4.4-0.4,6.2c-0.2,1.1-0.6,1.4-1.5,1.4c-0.4,0-0.7,0-1,0c-0.2,0-0.2,0-0.3-0.3c0-0.2-0.1-0.4-0.2-0.6
					c0.4,0.1,0.9,0.1,1.4,0.1s0.7-0.2,0.8-1c0.2-1.5,0.4-3.9,0.4-6.4h-1.9c-0.1,1.4-0.2,2.8-0.4,3.8c-0.4,1.8-1,3.1-2.4,4.5
					c-0.1,0.1-0.1,0.1-0.2,0.1c0,0-0.1,0-0.2-0.2c-0.2-0.2-0.4-0.3-0.5-0.4c1.4-1.1,2.2-2.6,2.5-4.2c0.2-1,0.3-2.2,0.4-3.6
					c-1.1,0-1.4,0-1.5,0s-0.1,0-0.1-0.1v-0.6c0-0.1,0-0.1,0.1-0.1s0.4,0,1.5,0c0-0.5,0-1.1,0-1.6c0-0.9,0-1.2-0.1-1.7
					c0.3,0,0.6,0,0.9,0.1c0.1,0,0.2,0.1,0.2,0.1c0,0.1,0,0.2-0.1,0.3c-0.1,0.1-0.1,0.6-0.1,1.3c0,0.5,0,1,0,1.5L121.4,61.6
					L121.4,61.6z"/>
			</g>
			<g>
				<path class="st2" d="M133.2,61.1c-2.1,0.3-3.9,0.6-5.7,1c-0.5,0.1-0.7,0.2-0.8,0.2c-0.1,0-0.2,0.1-0.3,0.1s-0.2-0.1-0.2-0.1
					c-0.1-0.3-0.3-0.6-0.4-1c0.5,0,0.9,0,1.7-0.2c2.1-0.3,4.9-0.8,8.7-1.2c0.1,0,0.2,0,0.2,0.1c0,0.2,0.1,0.5,0.1,0.7
					c0,0.1,0,0.2-0.2,0.2c-0.8,0-1.3,0.1-2,0.4c-2,0.8-3.6,2.5-3.6,4.4c0,2.3,2,3,4.1,3.2c0.2,0,0.2,0,0.2,0.2s0,0.5-0.1,0.7
					c0,0.2-0.1,0.2-0.2,0.2c-2.4-0.2-4.9-1.2-4.9-4C129.8,63.9,131,62.3,133.2,61.1L133.2,61.1z M134.9,63.1h0.1
					c0.6,0.4,1.2,1.1,1.6,1.7c0,0.1,0,0.1,0,0.2l-0.4,0.3c-0.1,0.1-0.1,0-0.2,0c-0.4-0.7-1-1.3-1.6-1.8L134.9,63.1z M136,62.2
					c0.1,0,0.1-0.1,0.2,0c0.6,0.4,1.2,1.1,1.6,1.6c0,0.1,0,0.1,0,0.2l-0.4,0.3c-0.1,0.1-0.1,0.1-0.2,0c-0.4-0.6-1-1.3-1.6-1.8
					L136,62.2z"/>
			</g>
			<g>
				<path class="st2" d="M151.9,61.5c0,0.1,0,0.1-0.2,0.1c-1.5,0-2.9-0.1-4.5,0c0,0.9,0,1.8,0,2.8c0.1,0.4,0.2,0.9,0.2,1.5
					c0,1.8-0.8,3.3-2.7,4.3c-0.1,0.1-0.3,0.1-0.3,0.1c-0.1,0-0.2,0-0.3-0.1c-0.2-0.1-0.4-0.3-0.6-0.4c2-0.8,2.9-2.1,3.1-3.5
					c-0.3,0.5-0.9,0.8-1.5,0.8c-1,0-1.8-0.6-1.8-2c0-1.2,0.9-1.9,1.9-1.9c0.5,0,1,0.2,1.3,0.5c0-0.7,0-1.3,0-2
					c-2,0.1-3.9,0.3-5.2,0.4c-0.3,0-0.5,0.1-0.6,0.1s-0.1,0-0.2-0.1c-0.1-0.2-0.2-0.5-0.2-0.9c0.5,0,0.9,0,1.8-0.1
					c1.1-0.1,2.6-0.2,4.4-0.3c0-0.6,0-0.9,0-1.3s0-0.6-0.1-0.9c0.4,0,0.8,0.1,1.1,0.2c0.2,0,0.3,0.1,0.3,0.2s0,0.2-0.1,0.3
					c-0.1,0.1-0.1,0.2-0.1,0.4c0,0.3,0,0.6,0,1.2c1.6,0,2.9,0,4.5,0c0.1,0,0.2,0,0.2,0.2v0.4H151.9z M144,65.1
					c0,0.8,0.5,1.2,1.1,1.2c0.8,0,1.3-0.6,1.3-1.2c0-0.7-0.5-1.2-1.2-1.2C144.5,63.9,144,64.4,144,65.1z"/>
			</g>
			<g>
				<path class="st2" d="M161,59.5c0.1,0.1,0.1,0.1,0.1,0.2s-0.1,0.1-0.1,0.2c-0.2,0.1-0.3,0.2-0.5,0.4c-1.4,1.2-3.1,2.8-4.1,4
					c-0.1,0.1-0.2,0.3-0.2,0.4s0.1,0.2,0.2,0.3c1.7,1.3,3.6,2.8,5.4,4.6c0.1,0.1,0.1,0.1,0,0.3c-0.2,0.2-0.4,0.4-0.5,0.5
					s-0.2,0.1-0.3,0c-1.8-2-3.6-3.5-5.3-4.7c-0.4-0.3-0.5-0.5-0.5-0.9c0-0.3,0.2-0.6,0.5-0.9c1.1-1.2,2.7-2.7,3.9-4
					c0.3-0.3,0.4-0.5,0.6-0.9C160.4,59,160.8,59.3,161,59.5z M161.6,61.3h0.1c0.6,0.4,1.2,1.1,1.6,1.7c0,0.1,0,0.1,0,0.2l-0.4,0.3
					c-0.1,0.1-0.1,0-0.2,0c-0.4-0.7-1-1.3-1.6-1.8L161.6,61.3z M162.8,60.4c0.1,0,0.1-0.1,0.2,0c0.6,0.4,1.2,1,1.6,1.6
					c0,0.1,0,0.1,0,0.2l-0.4,0.3c-0.1,0.1-0.1,0.1-0.2,0c-0.3-0.6-1-1.3-1.6-1.8L162.8,60.4z"/>
			</g>
			<g>
				<path class="st2" d="M169.5,59.8c0.1,0.1,0.2,0.1,0.2,0.2s0,0.1-0.1,0.2c-0.1,0.2-0.2,0.4-0.3,0.7c-0.4,1.7-0.7,3.5-0.7,4.8
					c0,1,0.1,1.7,0.2,2.4c0.3-0.8,0.6-1.4,1-2.4c0.1,0.2,0.2,0.4,0.3,0.6l0.1,0.1c0,0.1,0,0.1-0.1,0.2c-0.3,0.7-0.6,1.4-0.9,2.2
					c0,0.1-0.1,0.2-0.1,0.3c0,0.1,0,0.2,0,0.3c0,0.1,0,0.1-0.1,0.1c-0.2,0.1-0.4,0.1-0.6,0.1c-0.1,0-0.1-0.1-0.2-0.1
					c-0.4-0.9-0.6-2.7-0.6-4.1c0-1.5,0.3-3.1,0.6-4.8c0.1-0.7,0.2-1.1,0.2-1.6C168.9,59.5,169.3,59.6,169.5,59.8z M172.4,66.4
					c0.1,0,0.1,0,0.1,0.1c0,1.1,0.9,1.5,2.5,1.5c1,0,1.9-0.1,2.8-0.2c0.1,0,0.1,0,0.2,0.1c0,0.2,0,0.5,0,0.7c0,0.1,0,0.1-0.2,0.2
					c-0.8,0.1-1.6,0.2-2.5,0.2c-1.6,0-2.5-0.2-3.1-0.9c-0.4-0.4-0.6-1-0.6-1.7L172.4,66.4z M172.1,61.2c0-0.1,0-0.2,0.2-0.2
					c0.9-0.1,2.2-0.3,3-0.3s1.6,0,2,0.1c0.2,0,0.2,0,0.2,0.1c0,0.2,0,0.4,0,0.7c0,0.1,0,0.1-0.2,0.1c-0.5-0.1-1.5-0.1-2.3-0.1
					s-1.8,0.1-2.9,0.3C172.1,61.6,172.1,61.4,172.1,61.2z"/>
			</g>
			<g>
				<path class="st2" d="M187.2,65.7c-0.2,2.6-0.6,3.6-0.8,4c-0.3,0.5-0.8,0.7-1.5,0.7c-0.4,0-0.8,0-1.1,0s-0.3,0-0.3-0.3
					s-0.1-0.4-0.2-0.6c0.5,0.1,0.9,0.1,1.5,0.1c0.5,0,0.8-0.1,0.9-0.3c0.2-0.3,0.6-1.2,0.8-3.8h-3.9l-0.3,0.9c0,0.1-0.1,0.2-0.5,0.1
					s-0.4-0.1-0.4-0.2c0.4-1.2,0.6-2.3,0.8-3.3c0-0.3,0.1-0.7,0.1-1c0-0.1,0-0.1,0.1-0.1s0.4,0,1.3,0h2.5v-2.3h-2.8
					c-1.1,0-1.5,0-1.5,0c-0.1,0-0.1,0-0.1-0.1v-0.6c0-0.1,0-0.1,0.1-0.1s0.4,0,1.5,0h2.1c1,0,1.4,0,1.5,0s0.1,0,0.1,0.1s0,0.4,0,1.2
					v1.2c0,0.8,0,1.1,0,1.2s0,0.1-0.1,0.1s-0.5,0-1.5,0h-2.4c-0.1,0.8-0.2,1.5-0.4,2.2h3.1c1.1,0,1.4,0,1.5,0s0.1,0,0.1,0.1
					L187.2,65.7z M190.6,60.5c0-1.4,0-1.8-0.1-2.3c0.4,0,0.8,0,1.1,0.1c0.1,0,0.2,0.1,0.2,0.1c0,0.1,0,0.1-0.1,0.3
					c-0.1,0.2-0.1,0.5-0.1,1.8v7.8c0,1.6,0,2.3,0,2.4s0,0.1-0.1,0.1h-0.7c-0.1,0-0.1,0-0.1-0.1s0-0.8,0-2.3L190.6,60.5L190.6,60.5z"
					/>
			</g>
			<g>
				<path class="st2" d="M195.8,62c0.1-0.1,0.1-0.1,0.2-0.1c0.7,0.4,1.3,0.9,1.9,1.5c0.1,0.1,0.1,0.1,0,0.2l-0.3,0.4
					c-0.1,0.1-0.2,0.1-0.2,0.1c-0.6-0.6-1.2-1.2-1.8-1.5c-0.1-0.1-0.1-0.1,0-0.2L195.8,62z M196.7,69.9c-0.1,0.3-0.2,0.5-0.2,0.6
					s-0.1,0.2-0.1,0.2s-0.1,0-0.2-0.1c-0.2-0.1-0.4-0.3-0.6-0.5c0.2-0.3,0.4-0.6,0.6-1c0.5-1,0.9-2,1.2-3.4c0.1,0.1,0.3,0.3,0.4,0.4
					c0.2,0.2,0.2,0.2,0.2,0.4C197.6,67.7,197.1,68.9,196.7,69.9z M196.4,58.5c0.1-0.1,0.1-0.1,0.2-0.1c0.6,0.4,1.2,0.9,1.7,1.5
					c0.1,0.1,0.1,0.1,0,0.2l-0.3,0.3c-0.1,0.1-0.2,0.2-0.2,0.1c-0.5-0.6-1.1-1.1-1.7-1.5c-0.1-0.1-0.1-0.1,0-0.2L196.4,58.5z
					 M207.7,60.2c0,0.1,0,0.1-0.1,0.1s-0.6,0-1.9,0h-5.5v1.6c0,1.7-0.1,3.3-0.2,4.6c-0.2,1.4-0.6,2.8-1.4,4
					c-0.1,0.1-0.1,0.2-0.2,0.2c0,0-0.1,0-0.2-0.1c-0.2-0.2-0.3-0.3-0.5-0.4c0.8-1.1,1.3-2.4,1.5-4c0.2-1.3,0.2-2.8,0.2-4.3
					s0-2.2,0-2.2c0-0.1,0-0.1,0.1-0.1s0.6,0,2,0h1.7v-0.3c0-0.4,0-0.8-0.1-1.1c0.3,0,0.6,0,0.9,0.1c0.1,0,0.2,0.1,0.2,0.1
					c0,0.1,0,0.2-0.1,0.3c-0.1,0.1-0.1,0.3-0.1,0.7v0.3h1.8c1.4,0,1.9,0,1.9,0c0.1,0,0.1,0,0.1,0.1L207.7,60.2L207.7,60.2z
					 M205.7,65.5c0.1,0,0.2,0,0.3,0s0.1,0,0.1,0c0.1,0,0.2,0.1,0.4,0.3c0.2,0.2,0.2,0.3,0.2,0.4s0,0.1-0.1,0.2s-0.2,0.1-0.3,0.4
					c-0.5,0.8-1.1,1.4-1.7,1.9c1,0.6,2.1,1,3.6,1.3c-0.1,0.1-0.2,0.3-0.3,0.5s-0.1,0.2-0.2,0.2c0,0-0.1,0-0.2,0
					c-1.4-0.4-2.6-0.8-3.5-1.5c-1,0.7-2.1,1.1-3.5,1.6c-0.1,0-0.2,0.1-0.2,0.1c-0.1,0-0.1-0.1-0.2-0.2c-0.1-0.2-0.3-0.4-0.4-0.5
					c1.5-0.4,2.7-0.8,3.7-1.4c-0.7-0.6-1.3-1.4-1.8-2.3c-0.6,0-0.9,0-0.9,0c-0.1,0-0.1,0-0.1-0.1v-0.5c0-0.1,0-0.1,0.1-0.1
					s0.5,0,1.7,0h3.3V65.5z M207.7,62.6c0,0.1,0,0.1-0.1,0.1s-0.5,0-1.4,0h-0.4v0.6c0,0.9,0,1.2,0,1.3c0,0.1,0,0.1-0.1,0.1
					s-0.3,0-1.2,0h-1.1c-0.9,0-1.1,0-1.2,0c-0.1,0-0.1,0-0.1-0.1s0-0.5,0-1.3v-0.6c-1,0-1.4,0-1.5,0s-0.1,0-0.1-0.1v-0.5
					c0-0.1,0-0.1,0.1-0.1s0.5,0,1.5,0c0-0.6,0-1-0.1-1.3c0.3,0,0.6,0,0.8,0.1c0.1,0,0.2,0.1,0.2,0.1c0,0.1,0,0.2-0.1,0.2
					c-0.1,0.1-0.1,0.4-0.1,0.9h2.2c0-0.6,0-1-0.1-1.3c0.3,0,0.6,0,0.8,0.1c0.1,0,0.2,0.1,0.2,0.1c0,0.1-0.1,0.2-0.1,0.3
					c-0.1,0.1-0.1,0.4-0.1,0.9h0.4c0.9,0,1.3,0,1.4,0c0.1,0,0.1,0,0.1,0.1v0.4H207.7z M202.3,66.2c0.4,0.8,0.9,1.4,1.6,1.9
					c0.7-0.5,1.2-1.1,1.7-1.9H202.3z M205,62.7h-2.2V64h2.2V62.7z"/>
			</g>
			<g>
				<path class="st2" d="M213.1,59.1c0.2,0,0.2,0.1,0.2,0.2s-0.1,0.2-0.1,0.4c-0.1,0.2-0.1,0.6-0.2,1.4c-0.1,2.1-0.2,4-0.2,6
					c0,1.6,0.4,2,1.7,2c1.8,0,3.6-1.1,5-2.7c0,0.3,0.2,0.6,0.2,0.8c0,0.1,0.1,0.1,0.1,0.2s0,0.2-0.2,0.3c-1.5,1.4-3.3,2.4-5.3,2.4
					c-1.6,0-2.4-0.8-2.4-2.8s0.1-4.3,0.2-6.2c0-0.9,0-1.5-0.1-2.1C212.4,59,212.8,59,213.1,59.1z"/>
			</g>
			<g>
				<path class="st2" d="M226.6,60.3c0.1-0.5,0.1-0.8,0.1-1.3c0.4,0.1,0.7,0.2,1.1,0.4c0.2,0.1,0.2,0.2,0.1,0.4
					c-0.1,0.1-0.2,0.2-0.2,0.5c-0.2,0.7-0.4,1.3-0.6,2c0.4-0.1,1-0.1,1.4-0.1c1.2,0,1.8,0.6,1.8,2.3c0,1.8-0.3,3.5-0.8,4.5
					c-0.4,0.8-0.9,1.1-1.6,1.1c-0.6,0-1.1-0.1-1.4-0.3c-0.1,0-0.2-0.1-0.2-0.2c0-0.2,0-0.5-0.2-0.8c0.6,0.3,1.1,0.4,1.6,0.4
					c0.4,0,0.7-0.1,0.9-0.7c0.4-0.8,0.6-2.2,0.6-3.9c0-1.1-0.2-1.5-1-1.5c-0.4,0-1,0.1-1.5,0.2c-0.8,2.4-1.7,4.6-2.9,6.6
					c-0.1,0.1-0.1,0.1-0.2,0.1c-0.1-0.1-0.4-0.3-0.6-0.4c-0.1-0.1-0.1-0.1,0-0.2c1.2-2,2-3.9,2.7-6c-0.6,0.1-1.1,0.2-1.8,0.3
					c-0.3,0-0.5,0.1-0.6,0.2c-0.2,0.1-0.3,0.1-0.4-0.1c-0.1-0.2-0.2-0.6-0.3-1c0.5,0,1.1,0,1.5-0.1c0.8-0.1,1.3-0.2,2-0.3
					C226.2,61.6,226.4,61.1,226.6,60.3z M231.6,61.4c0.1,0,0.1,0,0.2,0.1c1,0.8,1.8,2.1,2.3,3.4c0,0.1,0,0.2,0,0.2
					c-0.1,0.1-0.4,0.3-0.6,0.4c-0.1,0.1-0.2,0.1-0.2-0.1c-0.5-1.4-1.2-2.6-2.2-3.5C231.2,61.7,231.4,61.6,231.6,61.4z M231.9,59.3
					c0.1,0,0.1,0,0.1,0c0.6,0.4,1.2,1.1,1.6,1.7c0,0.1,0,0.1,0,0.2l-0.4,0.3c-0.1,0.1-0.1,0-0.2,0c-0.4-0.7-1-1.3-1.6-1.8
					L231.9,59.3z M233.1,58.4c0.1,0,0.1-0.1,0.2,0c0.6,0.4,1.2,1.1,1.6,1.6c0,0.1,0,0.1,0,0.2l-0.4,0.3c-0.1,0.1-0.1,0.1-0.2,0
					c-0.4-0.6-1-1.3-1.6-1.8L233.1,58.4z"/>
			</g>
			<g>
				<path class="st2" d="M244.4,61.1c-2.1,0.3-3.9,0.6-5.7,1c-0.5,0.1-0.7,0.2-0.8,0.2s-0.2,0.1-0.3,0.1s-0.2-0.1-0.2-0.1
					c-0.1-0.3-0.3-0.6-0.4-1c0.5,0,0.9,0,1.7-0.2c2.1-0.3,4.9-0.8,8.7-1.2c0.1,0,0.2,0,0.2,0.1c0,0.2,0.1,0.5,0.1,0.7
					c0,0.1,0,0.2-0.2,0.2c-0.8,0-1.3,0.1-2,0.4c-2,0.8-3.6,2.5-3.6,4.4c0,2.3,2,3,4.1,3.2c0.2,0,0.2,0,0.2,0.2s0,0.5-0.1,0.7
					c0,0.2-0.1,0.2-0.2,0.2c-2.4-0.2-4.9-1.2-4.9-4C241,63.9,242.2,62.3,244.4,61.1L244.4,61.1z M246.1,63.1h0.1
					c0.6,0.4,1.2,1.1,1.6,1.7c0,0.1,0,0.1,0,0.2l-0.4,0.3c-0.1,0.1-0.1,0-0.2,0c-0.4-0.7-1-1.3-1.6-1.8L246.1,63.1z M247.2,62.2
					c0.1,0,0.1-0.1,0.2,0c0.6,0.4,1.2,1.1,1.6,1.6c0,0.1,0,0.1,0,0.2l-0.4,0.3c-0.1,0.1-0.1,0.1-0.2,0c-0.3-0.6-1-1.3-1.6-1.8
					L247.2,62.2z"/>
			</g>
			<g>
				<path class="st2" d="M255.4,59.7c-0.1-0.4-0.2-0.6-0.5-0.9c0.4-0.1,0.8-0.1,1.1-0.1c0.1,0,0.2,0.1,0.2,0.2s0,0.1,0,0.2
					s0,0.3,0.1,0.6c0.1,0.4,0.2,0.6,0.3,0.9c1-0.2,2-0.4,3.1-0.8c0.1,0,0.1,0,0.2,0.1c0.1,0.2,0.1,0.4,0.1,0.5s0,0.2-0.1,0.2
					c-1,0.3-2,0.6-3,0.8c0.2,0.5,0.4,1,0.7,1.6c1-0.2,1.9-0.5,2.8-0.8c0.1,0,0.2,0,0.2,0.1c0.1,0.2,0.1,0.3,0.1,0.5
					c0,0.1,0,0.2-0.1,0.2c-0.9,0.3-1.8,0.5-2.7,0.7c0.5,1,1.3,2.1,2.2,2.9c0.1,0.1,0.1,0.1,0.1,0.2c-0.1,0.2-0.2,0.4-0.3,0.5
					c-0.1,0.1-0.2,0.1-0.3,0c-0.3-0.2-0.6-0.4-1-0.5c-0.7-0.3-1.6-0.4-2.7-0.4c-1.5,0-2.4,0.4-2.4,1.4c0,1.1,1.3,1.5,3.5,1.5
					c0.5,0,1,0,1.4-0.1c0.1,0,0.1,0.1,0.1,0.2c0,0.2-0.1,0.5-0.2,0.7c0,0.1-0.1,0.2-0.2,0.2c-0.4,0-0.7,0.1-1.2,0.1
					c-2.8,0-4.4-0.8-4.4-2.4c0-1.4,1.2-2.2,3.2-2.2c1.2,0,2.2,0.2,2.9,0.5c-0.5-0.6-1.1-1.4-1.6-2.3c-1.4,0.3-2.7,0.4-4,0.5
					c-0.1,0-0.1,0-0.2-0.1c-0.1-0.2-0.1-0.4-0.1-0.7c1.4,0,2.7-0.2,4-0.4c-0.2-0.5-0.5-1-0.7-1.6c-1.1,0.2-2.4,0.4-3.7,0.4
					c-0.1,0-0.2,0-0.2-0.1s-0.1-0.4-0.1-0.6c1.3,0,2.7-0.2,3.8-0.3C255.7,60.4,255.6,60.1,255.4,59.7z"/>
			</g>
			<g>
				<path class="st2" d="M270,60.8c0.1,0,0.2,0,0.2,0.1c0,0.2,0.1,0.4,0.1,0.6c0,0.1,0,0.2-0.1,0.2c-0.8,0.2-1.5,0.3-2.3,0.4
					c-0.8,2.2-1.8,4.3-2.8,5.9c-0.1,0.1-0.1,0.1-0.2,0c-0.2-0.1-0.4-0.3-0.6-0.4c-0.1-0.1-0.1-0.1,0-0.2c1.2-1.8,2-3.4,2.6-5.2
					c-0.6,0.1-1.2,0.1-1.8,0.1c-0.2,0-0.4,0-0.7,0c-0.1,0-0.1,0-0.2-0.2c0-0.2-0.1-0.4-0.1-0.7c0.4,0,0.8,0.1,1.1,0.1
					c0.6,0,1.2,0,1.9-0.1c0.2-0.5,0.3-1.1,0.4-1.6c0.1-0.4,0.1-0.7,0.1-1.1c0.4,0.1,0.8,0.2,1.1,0.3c0.1,0,0.1,0.1,0.1,0.2
					s0,0.1-0.1,0.2s-0.1,0.2-0.2,0.4c-0.2,0.5-0.3,1-0.4,1.5C268.7,61.1,269.3,61,270,60.8z M270.8,64.2c0-0.3,0-0.5-0.1-0.9
					c0.4,0,0.7,0.1,1,0.2c0.1,0,0.2,0.1,0.2,0.2s0,0.1-0.1,0.3c-0.1,0.2-0.1,0.4-0.1,0.7c0,0.8,0.1,1.7,0.2,2.6
					c1,0.4,1.8,0.8,2.6,1.4c0.1,0.1,0.1,0.1,0.1,0.2c-0.1,0.2-0.2,0.4-0.3,0.6c-0.1,0.1-0.1,0.1-0.2,0c-0.6-0.6-1.4-1-2.1-1.3
					c0,1.4-0.7,2.2-2.5,2.2c-1.1,0-2.2-0.5-2.2-1.7c0-1,1-1.8,2.4-1.8c0.4,0,1,0.1,1.4,0.2C270.9,66.1,270.9,65,270.8,64.2z
					 M269.6,67.6c-1.1,0-1.6,0.4-1.6,1s0.5,0.9,1.4,0.9c1.1,0,1.6-0.6,1.6-1.3c0-0.2,0-0.3,0-0.3C270.6,67.7,270.1,67.6,269.6,67.6z
					 M272,61.3c0.1-0.1,0.1-0.1,0.2-0.1c0.9,0.3,1.9,0.7,2.7,1.3c0.1,0.1,0.1,0.1,0,0.3c-0.1,0.2-0.2,0.4-0.3,0.6
					c-0.1,0.1-0.1,0.1-0.2,0c-0.8-0.6-1.8-1.1-2.9-1.4C271.8,61.7,271.9,61.5,272,61.3z"/>
			</g>
			<g>
				<path class="st2" d="M279.9,60.5c0.1,0,0.1,0.1,0.1,0.2s0,0.2-0.1,0.3c-0.1,0.2-0.1,0.6-0.1,1.3c0,0.9,0,1.8,0.2,3.2
					c0.2,1.7,0.8,2.9,1.5,2.9c0.6,0,1.1-0.9,1.5-2.2c0.2,0.4,0.3,0.5,0.5,0.7c0.1,0.1,0.2,0.2,0.1,0.4c-0.4,1.1-1.1,2.2-2.1,2.2
					c-1.2,0-2.1-1.6-2.4-3.8c-0.2-1.4-0.3-3-0.3-3.9c0-0.5,0-0.9-0.1-1.3C279.2,60.2,279.7,60.4,279.9,60.5z M286.6,61.6
					c0.1,0,0.2-0.1,0.2,0c1.4,1.2,2.4,3,2.7,4.8c0,0.1,0,0.1-0.1,0.2c-0.2,0.1-0.4,0.2-0.6,0.3c-0.1,0-0.2,0-0.2-0.1
					c-0.4-2.1-1.3-3.6-2.6-4.9C286.3,61.8,286.5,61.7,286.6,61.6z"/>
			</g>
			<g>
				<path class="st2" d="M294.9,66.2c0.5-0.2,1-0.5,1.5-0.8c0,0.1,0,0.3,0,0.5c0,0.3,0,0.3-0.2,0.4c-0.9,0.5-1.9,1-2.9,1.4
					c-0.3,0.1-0.5,0.2-0.5,0.2c-0.1,0.1-0.1,0.1-0.2,0.1s-0.1,0-0.2-0.1c-0.1-0.2-0.2-0.5-0.3-0.8c0.4-0.1,0.8-0.2,1.3-0.4
					c0.2-0.1,0.4-0.1,0.6-0.2v-3.8h-0.4c-1,0-1.2,0-1.3,0c-0.1,0-0.1,0-0.1-0.1V62c0-0.1,0-0.1,0.1-0.1s0.3,0,1.3,0h0.4v-1.6
					c0-1,0-1.4-0.1-1.9c0.4,0,0.7,0,0.9,0.1c0.1,0,0.2,0.1,0.2,0.1s0,0.1-0.1,0.3c-0.1,0.2-0.1,0.5-0.1,1.4V62h0.1c1,0,1.2,0,1.3,0
					c0.1,0,0.1,0,0.1,0.1v0.6c0,0.1,0,0.1-0.1,0.1s-0.4,0-1.3,0h-0.1v3.4H294.9z M304.8,64.3c0,0.1,0,0.1-0.1,0.1s-0.5,0-1.9,0h-4.2
					c0.2,0.1,0.4,0.1,0.5,0.2c0.1,0,0.1,0.1,0.1,0.2s0,0.1-0.1,0.2s-0.2,0.1-0.3,0.3l-0.2,0.3h3.9c1.2,0,1.7,0,1.7,0
					c0.1,0,0.1,0,0.1,0.1l-0.1,1.4c-0.1,1-0.2,1.7-0.4,2.4c-0.2,0.8-0.6,1.1-1.4,1.1c-0.3,0-0.6,0-0.9,0c-0.2,0-0.2,0-0.3-0.3
					c-0.1-0.2-0.1-0.4-0.2-0.6c0.5,0.1,1,0.1,1.3,0.1s0.5-0.1,0.7-0.7c0.1-0.5,0.3-1.4,0.4-2.9h-1c-0.8,1.9-1.9,3.2-3.6,4.3
					c-0.1,0.1-0.2,0.1-0.2,0.1c-0.1,0-0.1,0-0.2-0.2s-0.3-0.3-0.4-0.3c1.8-1,3-2.2,3.6-3.9h-1.2c-0.9,1.5-2,2.5-3.4,3.4
					c-0.1,0.1-0.2,0.1-0.2,0.1c-0.1,0-0.1-0.1-0.2-0.2s-0.3-0.3-0.4-0.3c1.5-0.8,2.6-1.8,3.4-3.1h-1.4c-0.6,0.8-1.4,1.5-2.2,2
					c-0.1,0.1-0.2,0.1-0.2,0.1c-0.1,0-0.1-0.1-0.2-0.2s-0.3-0.3-0.4-0.3c1.3-0.7,2.2-1.6,2.9-2.6c0.2-0.2,0.3-0.5,0.3-0.8h-0.1
					c-1.4,0-1.9,0-1.9,0c-0.1,0-0.1,0-0.1-0.1v-0.5c0-0.1,0-0.1,0.1-0.1s0.5,0,1.9,0h4.5c1.4,0,1.9,0,1.9,0c0.1,0,0.1,0,0.1,0.1
					L304.8,64.3L304.8,64.3z M303.3,61.5c0,0.8,0,1.1,0,1.2s0,0.1-0.1,0.1s-0.5,0-1.7,0h-2.3c-1.2,0-1.6,0-1.7,0s-0.1,0-0.1-0.1
					s0-0.4,0-1.2V60c0-0.8,0-1.1,0-1.2s0-0.1,0.1-0.1s0.5,0,1.7,0h2.3c1.2,0,1.6,0,1.7,0s0.1,0,0.1,0.1s0,0.4,0,1.2V61.5z
					 M302.6,59.4h-4.2v1h4.2V59.4z M302.6,61.1h-4.2v1.1h4.2V61.1z"/>
			</g>
			<g>
				<path class="st2" d="M313.6,58.6c1.7,2.4,3.9,3.9,6.3,4.8c-0.2,0.2-0.3,0.4-0.4,0.6c-0.1,0.2-0.1,0.2-0.2,0.2s-0.1,0-0.2-0.1
					c-2.4-1-4.5-2.7-5.9-4.8c-1.5,2.2-3.4,3.7-5.7,4.9c-0.1,0.1-0.2,0.1-0.2,0.1c-0.1,0-0.1-0.1-0.2-0.2c-0.1-0.2-0.3-0.4-0.4-0.5
					c2.7-1.2,4.6-3,5.7-4.7c0.2-0.3,0.3-0.5,0.4-0.8c0.3,0.1,0.6,0.1,0.9,0.2c0.1,0,0.2,0.1,0.2,0.2s0,0.1-0.1,0.2L313.6,58.6z
					 M317.2,68.1c0,2,0,2.3,0,2.4s0,0.1-0.1,0.1h-0.7c-0.1,0-0.1,0-0.1-0.1v-0.6h-6.2v0.6c0,0.1,0,0.1-0.1,0.1h-0.7
					c-0.1,0-0.1,0-0.1-0.1s0-0.4,0-2.4V67c0-1.1,0-1.5,0-1.6s0-0.1,0.1-0.1s0.6,0,1.9,0h3.9c1.4,0,1.8,0,1.9,0s0.1,0,0.1,0.1
					s0,0.4,0,1.4v1.3H317.2z M316.4,66.1h-6.2v3.1h6.2V66.1z M316.1,63.5c0,0.1,0,0.1-0.1,0.1s-0.5,0-1.6,0h-2.2c-1.2,0-1.6,0-1.6,0
					c-0.1,0-0.1,0-0.1-0.1v-0.6c0-0.1,0-0.1,0.1-0.1s0.5,0,1.6,0h2.2c1.2,0,1.6,0,1.6,0c0.1,0,0.1,0,0.1,0.1V63.5z"/>
			</g>
			<g>
				<path class="st2" d="M322.1,67.6c0.1-0.1,0.1-0.1,0.2-0.1s0.1,0,0.2,0.1c1,0.6,1.9,1.4,2.7,2.5c0.1,0.1,0.1,0.1,0.1,0.2
					s0,0.1-0.1,0.2l-0.5,0.4c-0.1,0.1-0.1,0.1-0.1,0.1c-0.1,0-0.1,0-0.2-0.1c-0.7-1.1-1.6-2-2.6-2.6c-0.1,0-0.1-0.1-0.1-0.1
					s0-0.1,0.1-0.1L322.1,67.6z"/>
			</g>
			<g>
				<path class="st2" d="M34.6,88.1C34.6,88.2,34.6,88.2,34.6,88.1c-0.2,0.1-0.6,0.1-1.9,0.1h-4.8V93c0,1.1,0,1.6,0,1.7
					c0,0.1,0,0.1-0.1,0.1h-0.6c-0.1,0-0.1,0-0.1-0.1s0-0.5,0-1.6c-1.3,0.3-2.9,0.5-4,0.7c-0.3,0-0.4,0.1-0.5,0.1S22.5,94,22.4,94
					s-0.1-0.1-0.1-0.2c-0.1-0.2-0.1-0.4-0.2-0.7c0.4,0,0.8,0,1.2-0.1l0.5-0.1v-4.8c-1.2,0-1.6,0-1.7,0S22,88.1,22,88v-0.5
					c0-0.1,0-0.1,0.1-0.1s0.5,0,1.8,0h8.8c1.3,0,1.7,0,1.8,0s0.1,0,0.1,0.1C34.6,87.5,34.6,88.1,34.6,88.1z M32.7,85.4
					c0,0.8,0,1.1,0,1.2s0,0.1-0.1,0.1s-0.6,0-2,0H26c-1.4,0-1.9,0-2,0s-0.1,0-0.1-0.1s0-0.4,0-1.2v-1.3c0-0.8,0-1.1,0-1.1
					c0-0.1,0-0.1,0.1-0.1s0.6,0,2,0h4.7c1.4,0,1.9,0,2,0s0.1,0,0.1,0.1s0,0.3,0,1.1L32.7,85.4L32.7,85.4z M27.2,88.2h-2.6v1h2.6
					V88.2z M27.2,89.9h-2.6V91h2.6V89.9z M27.2,91.6h-2.6v1.3c0.8-0.1,1.7-0.3,2.6-0.4V91.6z M31.9,83.5h-7.2v0.9h7.2
					C31.9,84.4,31.9,83.5,31.9,83.5z M31.9,85h-7.2v1h7.2C31.9,86,31.9,85,31.9,85z M32.5,89.3c0.1,0,0.2,0,0.2,0c0.1,0,0.1,0,0.2,0
					c0.1,0,0.1,0,0.3,0.2c0.2,0.2,0.3,0.3,0.3,0.3c0,0.1,0,0.1-0.1,0.2c-0.1,0.1-0.2,0.2-0.3,0.5c-0.4,0.7-0.8,1.4-1.3,1.9
					c0.7,0.5,1.6,1,2.7,1.3c-0.1,0.1-0.2,0.3-0.3,0.5c-0.1,0.3-0.1,0.3-0.4,0.2c-1-0.4-1.9-0.9-2.6-1.4c-0.7,0.6-1.5,1.1-2.4,1.5
					c-0.1,0-0.2,0.1-0.2,0.1c-0.1,0-0.1-0.1-0.2-0.2C28.3,94.2,28.2,94,28,94c1.1-0.4,1.9-0.9,2.6-1.4c-0.7-0.7-1.2-1.5-1.6-2.4
					c-0.4,0-0.5,0-0.6,0s-0.1,0-0.1-0.1v-0.7c0-0.1,0-0.1,0.1-0.1s0.4,0,1.5,0H32.5z M29.9,90c0.3,0.7,0.8,1.4,1.4,1.9
					c0.5-0.6,0.9-1.2,1.2-1.9H29.9z"/>
			</g>
			<g>
				<path class="st2" d="M43.5,87c0.9,2.9,2.9,5.6,5.8,6.7c-0.2,0.2-0.4,0.4-0.5,0.6c-0.1,0.2-0.1,0.2-0.2,0.2c0,0-0.1,0-0.2-0.1
					c-2.4-1.3-4.5-3.7-5.4-6.7c-0.2,0.9-0.4,1.7-0.8,2.4c-1,2-2.4,3.3-4.5,4.4c-0.1,0-0.2,0.1-0.2,0.1c-0.1,0-0.1-0.1-0.2-0.2
					c-0.2-0.2-0.3-0.4-0.5-0.5c2.4-1,3.9-2.5,4.7-4.1c0.4-0.8,0.7-1.7,0.8-2.7H39c-1.3,0-1.8,0-1.9,0c-0.1,0-0.1,0-0.1-0.1v-0.6
					c0-0.1,0-0.1,0.1-0.1s0.5,0,1.9,0h3.3c0.1-0.7,0.1-1.4,0.1-2.2c0-0.8,0-1.2-0.1-1.6c0.3,0,0.7,0,1,0.1c0.1,0,0.2,0.1,0.2,0.2
					s0,0.2-0.1,0.3c-0.1,0.1-0.1,0.4-0.1,1.1c0,0.8-0.1,1.5-0.1,2.3H47c1.3,0,1.8,0,1.9,0c0.1,0,0.1,0,0.1,0.1v0.6
					c0,0.1,0,0.1-0.1,0.1s-0.5,0-1.9,0h-3.5V87z"/>
			</g>
			<g>
				<path class="st2" d="M59.9,85.1c-0.3-0.7-0.7-1-1.3-1c-1.5,0-2.2,1.4-2.3,4.3c0.6-1,1.4-1.4,2.3-1.4c1.5,0,2.6,1.2,2.6,3.2
					c0,2.2-1.2,3.5-2.9,3.5c-1.8,0-3.1-1.5-3.1-4.8c0-4,1.3-5.7,3.4-5.7c1.2,0,2,0.5,2.4,1.4L59.9,85.1z M58.3,92.8
					c1.1,0,1.8-0.9,1.8-2.5c0-1.5-0.6-2.3-1.7-2.3c-0.8,0-1.5,0.5-2,1.5C56.3,91.8,57.1,92.8,58.3,92.8z"/>
			</g>
			<g>
				<path class="st2" d="M71.5,85.9c0-0.5,0.1-0.9,0.1-1.5c0-0.5,0-1-0.1-1.5c0.5,0,0.8,0.1,1.1,0.2c0.2,0.1,0.2,0.2,0.1,0.4
					c-0.1,0.2-0.1,0.5-0.2,0.9c0,0.5-0.1,0.9-0.1,1.4h2.4c0.6,0,1.2,0,1.8,0c0.2,0,0.2,0,0.2,0.2c0,0.3,0,0.8,0,1.3
					c-0.1,1.6-0.3,3.5-0.5,4.4c-0.3,1.1-0.6,1.5-1.3,1.7c-0.3,0.1-0.9,0.2-1.5,0.2c-0.1,0-0.2-0.1-0.2-0.2c-0.1-0.3-0.2-0.5-0.5-0.8
					c0.9,0,1.4,0,1.8-0.1s0.5-0.3,0.7-1.1c0.3-1.1,0.4-2.8,0.5-4.6h-3.4c-0.2,1.6-0.6,2.9-1.3,3.9c-0.6,1-1.7,2.1-3,2.9
					c-0.1,0.1-0.2,0.1-0.3,0c-0.2-0.2-0.4-0.3-0.8-0.5c1.5-0.8,2.5-1.7,3.2-2.8c0.5-0.9,1-2.1,1.1-3.5h-1.6c-0.6,0-1.2,0-1.9,0.1
					c-0.1,0-0.1,0-0.2-0.2c0-0.2-0.1-0.6-0.1-0.8c0.8,0.1,1.4,0.1,2.2,0.1L71.5,85.9L71.5,85.9z"/>
			</g>
			<g>
				<path class="st2" d="M90.2,91.1c0,0.8,0,1.6,0,2.2c0,0.5-0.1,0.8-0.4,1c-0.3,0.3-0.9,0.3-2,0.3c-0.3,0-0.3,0-0.3-0.3
					c-0.1-0.2-0.1-0.5-0.3-0.7c0.5,0,0.9,0.1,1.5,0.1c0.4,0,0.6-0.2,0.6-0.6V90h-5.5c-0.3,2.1-0.9,3.2-2.2,4.5
					c-0.1,0.1-0.1,0.2-0.2,0.2s-0.1-0.1-0.2-0.1c-0.2-0.2-0.4-0.3-0.6-0.3c2-1.9,2.5-3.4,2.5-7.7v-1.7c0-1.2,0-1.8,0-1.8
					c0-0.1,0-0.1,0.1-0.1s0.5,0,1.8,0h3.2c1.3,0,1.8,0,1.8,0c0.1,0,0.1,0,0.1,0.1s0,0.6,0,1.8L90.2,91.1L90.2,91.1z M89.3,86.9H84
					c0,0.9,0,1.7-0.1,2.4h5.4V86.9z M89.3,83.7H84V86h5.3V83.7z"/>
			</g>
			<g>
				<path class="st2" d="M95.8,90.3c0-0.5,0-1.2,0-1.8c-0.4,0.5-0.8,0.9-1.3,1.3c-0.1,0.1-0.2,0.1-0.2,0.1s-0.1-0.1-0.2-0.2
					c-0.1-0.2-0.2-0.3-0.3-0.4c1.3-1.1,2.3-2.3,2.9-3.5c0.1-0.2,0.2-0.5,0.3-0.7c0.3,0.1,0.5,0.3,0.7,0.4c0.1,0.1,0.1,0.1,0.1,0.2
					s0,0.1-0.1,0.2c-0.1,0-0.2,0.2-0.3,0.3c-0.3,0.5-0.6,0.9-0.9,1.4v5.2c0,1.2,0,1.7,0,1.8s0,0.1-0.1,0.1h-0.7
					c-0.1,0-0.1,0-0.1-0.1s0-0.6,0-1.8v-2.5H95.8z M97.7,82.9c-0.1,0-0.2,0.2-0.3,0.4c-0.7,0.9-1.4,1.7-2.5,2.5
					c-0.1,0.1-0.2,0.1-0.2,0.1c-0.1,0-0.1-0.1-0.2-0.2c-0.1-0.2-0.3-0.3-0.4-0.4c1.1-0.7,2-1.6,2.6-2.5c0.2-0.3,0.3-0.4,0.3-0.6
					c0.3,0.1,0.5,0.3,0.7,0.4C97.8,82.7,97.8,82.7,97.7,82.9C97.9,82.8,97.8,82.9,97.7,82.9z M103.6,89.5c0.1,0,0.2,0,0.3,0
					c0.1,0,0.1,0,0.1,0c0.1,0,0.2,0.1,0.4,0.3c0.2,0.2,0.2,0.3,0.2,0.4s0,0.1-0.1,0.2c-0.1,0.1-0.2,0.2-0.3,0.3
					c-0.5,0.7-1,1.3-1.6,1.8c1.2,0.7,2.5,1.1,4.2,1.4c-0.1,0.2-0.3,0.3-0.3,0.5c-0.1,0.3-0.1,0.3-0.4,0.2c-1.6-0.4-2.9-0.9-4.1-1.7
					c-1.1,0.8-2.4,1.4-4.2,1.8c-0.3,0.1-0.3,0.1-0.4-0.2c-0.1-0.2-0.2-0.3-0.3-0.5c1.7-0.3,3.1-0.8,4.2-1.6c-0.6-0.5-1.1-1-1.6-1.7
					c-0.6,0.6-1.2,1.1-2,1.6c-0.1,0.1-0.2,0.1-0.2,0.1c-0.1,0-0.1-0.1-0.2-0.2c-0.1-0.1-0.2-0.3-0.4-0.4c1.5-0.8,2.4-1.7,3-2.6
					c0.1-0.2,0.3-0.6,0.4-0.9l-1.6,0.1c-0.4,0-0.6,0.1-0.7,0.1s-0.2,0.1-0.2,0.1c-0.1,0-0.1-0.1-0.2-0.2c-0.1-0.2-0.1-0.5-0.1-0.8
					c0.3,0,0.6,0,0.9,0c0.5,0,1,0,1.5-0.1l0.8-0.8c-0.8-0.8-1.5-1.4-2.4-2c-0.1-0.1-0.1-0.1,0-0.2l0.3-0.3c0.1-0.1,0.1-0.1,0.2-0.1
					c0.2,0.2,0.5,0.3,0.7,0.5c0.4-0.5,0.9-1.2,1.4-2c0.1-0.2,0.2-0.4,0.3-0.7c0.3,0.1,0.5,0.2,0.7,0.3c0.1,0.1,0.2,0.1,0.2,0.2
					s-0.1,0.1-0.2,0.2s-0.2,0.2-0.4,0.4c-0.5,0.7-1,1.3-1.5,2c0.4,0.3,0.8,0.7,1.2,1c0.6-0.7,1.2-1.5,1.8-2.3
					c0.1-0.2,0.3-0.4,0.4-0.6c0.3,0.1,0.5,0.2,0.7,0.4c0.1,0.1,0.2,0.1,0.2,0.2s-0.1,0.1-0.2,0.2s-0.2,0.2-0.5,0.5
					c-0.8,1-1.7,2-2.6,2.9c1.2-0.1,2.5-0.2,3.6-0.3c-0.3-0.3-0.5-0.6-0.8-1c-0.1-0.1-0.1-0.1,0.1-0.2l0.3-0.2c0.1-0.1,0.2-0.1,0.2,0
					c0.9,0.9,1.6,1.8,2,2.6c0,0.1,0,0.1-0.1,0.2l-0.4,0.2c-0.2,0.1-0.2,0.1-0.3,0c-0.2-0.4-0.4-0.7-0.6-1c-1.4,0.2-3.2,0.3-4.6,0.5
					c0.3,0.1,0.5,0.1,0.7,0.2c0.1,0,0.2,0.1,0.2,0.2s0,0.1-0.1,0.2c-0.1,0-0.1,0.2-0.3,0.3c-0.1,0.1-0.1,0.2-0.2,0.3h2.9V89.5z
					 M100.3,90.2c0.5,0.7,1.1,1.3,1.7,1.8c0.6-0.5,1.1-1.1,1.6-1.8H100.3z"/>
			</g>
			<g>
				<path class="st2" d="M115.7,84.9c-0.3,2.4-1,4.7-1.8,6.1c-0.6,1-1.2,1.4-2.1,1.4c-1.1,0-2-1.1-2-3.2c0-1.3,0.6-2.7,1.6-3.6
					c1-1,2.4-1.6,4.2-1.6c3.1,0,5,1.8,5,4.5c0,2.3-1.4,4.1-4.5,4.9c-0.2,0-0.3,0-0.4-0.2c-0.1-0.1-0.3-0.4-0.5-0.5
					c2.8-0.5,4.4-2,4.4-4.4c0-2.1-1.6-3.5-3.6-3.5L115.7,84.9L115.7,84.9z M111.9,86.3c-0.9,0.9-1.3,2.1-1.3,3
					c0,1.5,0.6,2.2,1.1,2.2s0.9-0.3,1.3-1c0.7-1.3,1.5-3.4,1.6-5.5C113.6,85.1,112.6,85.6,111.9,86.3z"/>
			</g>
			<g>
				<path class="st2" d="M130.2,83.5c0,0.1,0,0.1-0.1,0.1s-0.3,0-1.1,0v9.5c0,1,0,1.4,0,1.5s0,0.1-0.1,0.1h-0.6
					c-0.1,0-0.1,0-0.1-0.1s0-0.5,0-1.5v-1.4c-1.1,0.4-2.8,0.9-3.7,1.1c-0.4,0.1-0.5,0.2-0.5,0.2s-0.1,0.1-0.2,0.1s-0.1-0.1-0.1-0.2
					c-0.1-0.2-0.2-0.5-0.2-0.8c0.5-0.1,0.7-0.1,1.1-0.2l0.3-0.1v-8.3c-0.8,0-1.1,0-1.1,0c-0.1,0-0.1,0-0.1-0.1v-0.6
					c0-0.1,0-0.1,0.1-0.1s0.5,0,1.8,0h2.8c1.3,0,1.7,0,1.8,0s0.1,0,0.1,0.1L130.2,83.5L130.2,83.5z M128.2,83.6h-2.5v2.1h2.5V83.6z
					 M128.2,86.4h-2.5v2h2.5V86.4z M128.2,89.2h-2.5v2.5c0.8-0.2,1.8-0.5,2.5-0.8V89.2z M134.7,84.4c0.2,0,0.3,0,0.3,0
					c0.1,0,0.1-0.1,0.2-0.1c0.1,0,0.2,0.1,0.4,0.3c0.2,0.2,0.3,0.3,0.3,0.4s-0.1,0.1-0.1,0.2c-0.1,0.1-0.1,0.3-0.2,0.5
					c-0.3,1.8-0.9,3.6-2,5.2c0.7,1,1.7,1.9,2.9,2.8c-0.2,0.1-0.4,0.3-0.5,0.5c-0.1,0.1-0.1,0.2-0.2,0.2c-0.1,0-0.1,0-0.2-0.1
					c-1-0.8-1.9-1.7-2.5-2.7c-0.8,1-1.8,1.9-3,2.7c-0.1,0.1-0.2,0.1-0.2,0.1c-0.1,0-0.1-0.1-0.2-0.2c-0.1-0.2-0.2-0.3-0.4-0.4
					c1.4-0.8,2.5-1.8,3.3-3c-1.1-1.8-1.6-3.7-1.8-5.8c-0.6,0-0.9,0-0.9,0c-0.1,0-0.1,0-0.1-0.1v-0.6c0-0.1,0-0.1,0.1-0.1
					s0.5,0,1.7,0h3.1V84.4z M131.5,85.1c0.2,1.9,0.7,3.5,1.5,5c0.9-1.5,1.4-3.2,1.7-5H131.5z"/>
			</g>
			<g>
				<path class="st2" d="M144.7,89.7c-0.2,2.6-0.6,3.6-0.8,4c-0.3,0.5-0.8,0.7-1.5,0.7c-0.4,0-0.8,0-1.1,0s-0.3,0-0.3-0.3
					s-0.1-0.4-0.2-0.6c0.5,0.1,0.9,0.1,1.5,0.1c0.5,0,0.8-0.1,0.9-0.3c0.2-0.3,0.6-1.2,0.8-3.8h-3.9l-0.3,0.9c0,0.1-0.1,0.2-0.5,0.1
					c-0.4-0.1-0.4-0.1-0.4-0.2c0.4-1.2,0.6-2.3,0.8-3.3c0-0.3,0.1-0.7,0.1-1c0-0.1,0-0.1,0.1-0.1s0.4,0,1.3,0h2.5v-2.3h-2.8
					c-1.1,0-1.5,0-1.5,0c-0.1,0-0.1,0-0.1-0.1v-0.6c0-0.1,0-0.1,0.1-0.1s0.4,0,1.5,0h2.1c1,0,1.4,0,1.5,0s0.1,0,0.1,0.1s0,0.4,0,1.2
					v1.2c0,0.8,0,1.1,0,1.2s0,0.1-0.1,0.1s-0.5,0-1.5,0h-2.4c-0.1,0.8-0.2,1.5-0.4,2.2h3.1c1.1,0,1.4,0,1.5,0s0.1,0,0.1,0.1
					L144.7,89.7z M148.1,84.5c0-1.4,0-1.8-0.1-2.3c0.4,0,0.8,0,1.1,0.1c0.1,0,0.2,0.1,0.2,0.1c0,0.1,0,0.1-0.1,0.3
					c-0.1,0.2-0.1,0.5-0.1,1.8v7.8c0,1.6,0,2.3,0,2.4c0,0.1,0,0.1-0.1,0.1h-0.7c-0.1,0-0.1,0-0.1-0.1s0-0.8,0-2.3L148.1,84.5
					L148.1,84.5z"/>
			</g>
			<g>
				<path class="st2" d="M165.6,82c-2.4,2-3.1,4-3.1,6.4c0,2.5,0.8,4.4,3.1,6.4l-0.4,0.4c-2.6-2-3.7-4.1-3.7-6.8s1-4.8,3.7-6.8
					L165.6,82z"/>
			</g>
			<g>
				<path class="st2" d="M169,89.1c0-0.5,0-1.4,0-2.1c-0.3,0.5-0.7,1.1-1.1,1.6c-0.1,0.1-0.1,0.1-0.2,0.1c-0.1,0-0.1-0.1-0.1-0.2
					c-0.1-0.2-0.2-0.4-0.3-0.6c1.3-1.6,2.1-3.1,2.7-5c0.1-0.3,0.2-0.7,0.2-0.9c0.3,0.1,0.6,0.2,0.9,0.3c0.1,0,0.2,0.1,0.2,0.2
					s-0.1,0.2-0.1,0.2c-0.1,0.1-0.2,0.2-0.3,0.5c-0.3,0.8-0.6,1.6-0.9,2.3v6.9c0,1.5,0,2.1,0,2.2c0,0.1,0,0.1-0.1,0.1H169
					c-0.1,0-0.1,0-0.1-0.1s0-0.7,0-2.2v-3.3H169z M180.2,84c0,0.1,0,0.1-0.1,0.1s-0.5,0-2,0H177v2.6h0.5c1.4,0,1.9,0,2,0
					s0.1,0,0.1,0.1s0,0.5,0,2.2v2.5c0,2.3,0,2.7,0,2.8s0,0.1-0.1,0.1h-0.6c-0.1,0-0.1,0-0.1-0.1v-0.7h-6.7v0.7c0,0.1,0,0.1-0.1,0.1
					h-0.6c-0.1,0-0.1,0-0.1-0.1s0-0.5,0-2.8v-2.3c0-1.9,0-2.4,0-2.4c0-0.1,0-0.1,0.1-0.1s0.6,0,1.9,0h0.4v-2.6h-0.6
					c-1.4,0-1.9,0-2,0s-0.1,0-0.1-0.1v-0.6c0-0.1,0-0.1,0.1-0.1s0.5,0,2,0h4.9c1.4,0,1.9,0,2,0s0.1,0,0.1,0.1V84H180.2z M173.8,87.4
					h-1.7v5.5h1.7V87.4z M176.3,84.1h-1.7v2.6h1.7V84.1z M176.3,87.4h-1.7v5.5h1.7V87.4z M178.8,87.4H177v5.5h1.8V87.4z"/>
			</g>
			<g>
				<path class="st2" d="M185.3,85.9c0.4,1,0.9,1.7,1.6,2.3c-0.1,0.1-0.2,0.3-0.3,0.5c-0.1,0.1-0.1,0.2-0.1,0.2s-0.1,0-0.1-0.1
					c-0.5-0.6-0.8-1.2-1.1-2c0,4.3,0.1,7.8,0.1,8c0,0.1,0,0.1-0.1,0.1h-0.7c-0.1,0-0.1,0-0.1-0.1c0-0.2,0.1-3.6,0.1-7.7
					c-0.4,1.7-1,3.2-1.8,4.5c-0.1,0.1-0.1,0.2-0.2,0.2s-0.1-0.1-0.1-0.2c-0.1-0.2-0.2-0.4-0.3-0.5c1-1.4,1.7-3.1,2.2-5h-0.5
					c-1,0-1.2,0-1.3,0s-0.1,0-0.1-0.1v-0.5c0-0.1,0-0.1,0.1-0.1s0.4,0,1.3,0h0.6V84c0-0.8,0-1.2-0.1-1.7c0.4,0,0.6,0,0.9,0.1
					c0.1,0,0.2,0.1,0.2,0.1c0,0.1,0,0.2-0.1,0.3c-0.1,0.2-0.1,0.4-0.1,1.2v1.4h0.2c1,0,1.2,0,1.3,0s0.1,0,0.1,0.1V86
					c0,0.1,0,0.1-0.1,0.1C186.7,86,186.4,85.9,185.3,85.9L185.3,85.9z M192.7,83.7c0.1,0,0.2,0,0.2,0c0.1,0,0.1,0,0.1,0
					c0.1,0,0.2,0,0.4,0.2s0.2,0.3,0.2,0.4s0,0.1-0.1,0.2s-0.2,0.2-0.3,0.4c-0.5,1-1.2,1.8-1.9,2.6c1.1,0.9,2.5,1.6,3.8,2
					c-0.2,0.2-0.2,0.3-0.3,0.5c-0.1,0.3-0.1,0.3-0.4,0.2c-1.3-0.5-2.6-1.2-3.7-2.2c-1.1,0.9-2.4,1.7-3.9,2.4c-0.1,0-0.2,0.1-0.2,0.1
					c-0.1,0-0.1-0.1-0.2-0.2c-0.1-0.2-0.2-0.3-0.3-0.5c1.5-0.5,2.9-1.3,4.1-2.3c-0.6-0.6-1.1-1.3-1.5-2c-0.4,0.5-0.8,1-1.3,1.5
					c-0.1,0.1-0.2,0.2-0.2,0.2s-0.1-0.1-0.2-0.2c-0.1-0.1-0.3-0.2-0.4-0.3c1.2-1,2.1-2.4,2.6-3.7c0.1-0.2,0.2-0.5,0.2-0.7
					c0.3,0.1,0.6,0.1,0.8,0.2c0.1,0,0.2,0.1,0.2,0.1c0,0.1,0,0.1-0.1,0.2s-0.2,0.2-0.2,0.4c-0.1,0.3-0.2,0.5-0.4,0.8h3V83.7z
					 M193.4,92.4c0,1.9,0,2.3,0,2.3c0,0.1,0,0.1-0.1,0.1h-0.6c-0.1,0-0.1,0-0.1-0.1V94h-3.9v0.7c0,0.1,0,0.1-0.1,0.1H188
					c-0.1,0-0.1,0-0.1-0.1s0-0.4,0-2.3v-1c0-1,0-1.4,0-1.5s0-0.1,0.1-0.1s0.4,0,1.6,0h2.1c1.2,0,1.5,0,1.6,0s0.1,0,0.1,0.1
					s0,0.4,0,1.3L193.4,92.4L193.4,92.4z M192.6,90.5h-3.9v2.7h3.9V90.5z M189.3,84.4l-0.1,0.2c0.4,0.8,1,1.5,1.6,2.2
					c0.7-0.7,1.3-1.5,1.8-2.4C192.6,84.4,189.3,84.4,189.3,84.4z"/>
			</g>
			<g>
				<path class="st2" d="M199.6,88.7c0.5-0.2,1-0.4,1.5-0.7c0,0.2,0,0.4,0,0.5c0,0.3,0,0.3-0.3,0.4c-0.4,0.2-0.8,0.4-1.2,0.5V91
					c0,0.9,0,1.6,0,2.1c0,0.6-0.1,0.9-0.4,1.1c-0.3,0.2-0.6,0.3-1.4,0.3c-0.3,0-0.3,0-0.3-0.3c-0.1-0.2-0.2-0.4-0.3-0.6
					c0.3,0,0.5,0.1,1,0.1c0.4,0,0.6-0.2,0.6-0.7v-3.3c-0.3,0.1-0.5,0.2-0.8,0.3s-0.5,0.2-0.5,0.3c-0.1,0.1-0.1,0.1-0.2,0.1
					c-0.1,0-0.1,0-0.1-0.1c-0.1-0.2-0.2-0.5-0.3-0.8c0.4-0.1,0.7-0.2,1.3-0.3l0.6-0.2v-3.2h-0.4c-0.9,0-1.2,0-1.3,0s-0.1,0-0.1-0.1
					v-0.6c0-0.1,0-0.1,0.1-0.1s0.4,0,1.3,0h0.4v-1.1c0-0.8,0-1.2-0.1-1.7c0.3,0,0.6,0,0.9,0.1c0.1,0,0.2,0.1,0.2,0.1
					c0,0.1,0,0.2-0.1,0.3c-0.1,0.2-0.1,0.4-0.1,1.2v1.2l0,0c0.9,0,1.2,0,1.3,0s0.1,0,0.1,0.1v0.6c0,0.1,0,0.1-0.1,0.1s-0.3,0-1.3,0
					l0,0L199.6,88.7L199.6,88.7z M209.5,88.5c0,0.1,0,0.1-0.1,0.1s-0.5,0-1.8,0h-1.5v1.8h0.9c1.2,0,1.6,0,1.7,0c0.1,0,0.1,0,0.1,0.1
					s0,0.4,0,1.1v1c0,1.7,0,2,0,2.1s0,0.1-0.1,0.1H208c-0.1,0-0.1,0-0.1-0.1v-0.5h-4.2v0.6c0,0.1,0,0.1-0.1,0.1H203
					c-0.1,0-0.1,0-0.1-0.1s0-0.4,0-2.1v-0.9c0-0.9,0-1.2,0-1.2c0-0.1,0-0.1,0.1-0.1s0.5,0,1.7,0h0.6v-1.8h-2.8
					c0,0.7-0.1,1.4-0.2,2.1c-0.3,1.4-0.7,2.5-1.3,3.5c-0.1,0.1-0.1,0.2-0.2,0.2c0,0-0.1-0.1-0.2-0.2c-0.1-0.2-0.3-0.3-0.5-0.4
					c0.7-1,1.2-2.2,1.4-3.4s0.3-2.8,0.3-4.5c0-1.9,0-2.7,0-2.8c0-0.1,0-0.1,0.1-0.1s0.5,0,1.9,0h3.2c1.3,0,1.8,0,1.9,0
					c0.1,0,0.1,0,0.1,0.1s0,0.3,0,1v1.1c0,0.7,0,0.9,0,1s0,0.1-0.1,0.1s-0.5,0-1.9,0h-0.8V88h1.5c1.3,0,1.8,0,1.8,0
					c0.1,0,0.1,0,0.1,0.1v0.4H209.5z M205.3,86.2h-2.7l0,0c0,0.5,0,1,0,1.6h2.7V86.2z M208,83.7h-5.4v1.8h5.4V83.7z M207.9,91h-4.2
					v2.4h4.2V91z"/>
			</g>
			<g>
				<path class="st2" d="M216,86.5c1.1-0.2,2-0.4,2.6-0.5c0.2-0.1,0.3-0.1,0.4-0.2c0.1,0,0.1-0.1,0.2-0.1c0.1,0,0.1,0,0.2,0.1
					c0.2,0.1,0.4,0.3,0.5,0.4s0.1,0.2,0.1,0.2c0,0.1-0.1,0.2-0.2,0.2c-0.2,0.1-0.3,0.2-0.5,0.4c-1,1-2,2-3,3.1
					c0.3-0.1,0.5-0.2,0.8-0.2c0.7,0,1.3,0.5,1.5,1.6c0.3,1.3,0.5,1.5,2,1.5c0.7,0,1.4-0.1,2.1-0.2c0.1,0,0.2,0,0.2,0.1
					c0,0.2,0.1,0.4,0.1,0.7c0,0.1-0.1,0.1-0.2,0.2c-0.6,0.1-1.4,0.2-2,0.2c-2,0-2.6-0.4-2.9-1.8c-0.2-1-0.4-1.5-1.1-1.5
					c-0.4,0-1,0.3-1.6,0.8c-0.7,0.7-1.5,1.7-2.2,2.4c-0.1,0.1-0.1,0.1-0.2,0c-0.2-0.2-0.4-0.3-0.5-0.5c-0.1-0.1,0-0.2,0-0.3
					c1-1.1,2-2.1,2.7-2.7c0.9-0.9,1.9-2.1,3.3-3.6c-1.5,0.3-2.7,0.5-3.9,0.8c-0.3,0.1-0.5,0.2-0.6,0.2c-0.1,0.1-0.2,0.1-0.3,0.1
					s-0.1-0.1-0.2-0.2c-0.1-0.2-0.3-0.6-0.4-1C214,86.8,214.7,86.7,216,86.5z M219.4,83.6c0.1,0,0.1,0.1,0.1,0.2
					c-0.1,0.2-0.1,0.5-0.2,0.6c0,0.1-0.1,0.1-0.2,0.1c-1.2-0.3-2.6-0.7-3.6-1.1c-0.1,0-0.1-0.1-0.1-0.2c0.1-0.2,0.2-0.5,0.3-0.8
					C216.9,83,218.2,83.4,219.4,83.6z"/>
			</g>
			<g>
				<path class="st2" d="M237.4,86.7c0,0.1,0,0.1-0.1,0.1s-0.5,0-1.9,0h-3.7c-0.1,0.3-0.2,0.6-0.3,0.9h2.3c1.3,0,1.8,0,1.8,0
					c0.1,0,0.1,0,0.1,0.1s0,0.4,0,1.3v2.1c0,1,0,1.3,0,1.3c0,0.1,0,0.1-0.1,0.1s-0.5,0-1.8,0h-3.1c-1.3,0-1.8,0-1.8,0
					c-0.1,0-0.1,0-0.1-0.1s0-0.4,0-1.3v-2.1c0-1,0-1.3,0-1.3c0-0.1,0-0.1,0.1-0.1s0.5,0,1.8,0c0.1-0.3,0.2-0.6,0.3-0.9h-3.4
					c-1.3,0-1.8,0-1.9,0c-0.1,0-0.1,0-0.1-0.1v-0.5c0-0.1,0-0.1,0.1-0.1s0.5,0,1.9,0h3.6c0.1-0.3,0.1-0.6,0.2-0.9H228
					c-1.4,0-1.9,0-2,0s-0.1,0-0.1-0.1s0-0.3,0-0.9v-0.6c0-0.6,0-0.8,0-0.8c0-0.1,0-0.1,0.1-0.1s0.6,0,2,0h7c1.4,0,1.9,0,1.9,0
					c0.1,0,0.1,0,0.1,0.1s0,0.3,0,0.8v0.6c0,0.6,0,0.8,0,0.9s0,0.1-0.1,0.1s-0.6,0-1.9,0h-2.8c-0.1,0.3-0.1,0.6-0.2,0.9h3.5
					c1.3,0,1.8,0,1.9,0c0.1,0,0.1,0,0.1,0.1v0.5H237.4z M237.5,94c0,0.1,0,0.1-0.1,0.1s-0.5,0-2,0h-8.3v0.5c0,0.1,0,0.1-0.1,0.1
					h-0.6c-0.1,0-0.1,0-0.1-0.1s0-0.4,0-1.8v-3.3c0-0.7,0-1.1-0.1-1.5c0.3,0,0.6,0,0.9,0.1c0.1,0,0.2,0.1,0.2,0.1
					c0,0.1,0,0.2-0.1,0.3c-0.1,0.1-0.1,0.4-0.1,1v3.9h8.3c1.4,0,1.9,0,2,0s0.1,0,0.1,0.1L237.5,94L237.5,94z M229.3,83.4h-2.6v1.2
					h2.6V83.4z M234.9,88.3h-5.3v0.8h5.3V88.3z M234.9,89.7h-5.3v0.8h5.3V89.7z M234.9,91.1h-5.3V92h5.3V91.1z M232.6,83.4H230v1.2
					h2.6V83.4z M236.1,83.4h-2.7v1.2h2.7V83.4z"/>
			</g>
			<g>
				<path class="st2" d="M244.3,83.7c-0.1-0.4-0.2-0.6-0.5-0.9c0.4-0.1,0.8-0.1,1.1-0.1c0.1,0,0.2,0.1,0.2,0.2s0,0.1,0,0.2
					s0,0.3,0.1,0.6c0.1,0.4,0.2,0.6,0.3,0.9c1-0.2,2-0.4,3.1-0.8c0.1,0,0.1,0,0.2,0.1c0.1,0.2,0.1,0.4,0.1,0.5s0,0.2-0.1,0.2
					c-1,0.3-2,0.6-3,0.8c0.2,0.5,0.4,1,0.7,1.6c1-0.2,1.9-0.5,2.8-0.8c0.1,0,0.2,0,0.2,0.1c0.1,0.2,0.1,0.3,0.1,0.5
					c0,0.1,0,0.2-0.1,0.2c-0.9,0.3-1.8,0.5-2.7,0.7c0.5,1,1.3,2.1,2.2,2.9c0.1,0.1,0.1,0.1,0.1,0.2c-0.1,0.2-0.2,0.4-0.3,0.5
					s-0.2,0.1-0.3,0c-0.3-0.2-0.6-0.4-1-0.5c-0.7-0.3-1.6-0.4-2.7-0.4c-1.5,0-2.4,0.4-2.4,1.4c0,1.1,1.3,1.5,3.5,1.5
					c0.5,0,1,0,1.4-0.1c0.1,0,0.1,0.1,0.1,0.2c0,0.2-0.1,0.5-0.2,0.7c0,0.1-0.1,0.2-0.2,0.2c-0.4,0-0.7,0.1-1.2,0.1
					c-2.8,0-4.4-0.8-4.4-2.4c0-1.4,1.2-2.2,3.2-2.2c1.2,0,2.2,0.2,2.9,0.5c-0.5-0.6-1.1-1.4-1.6-2.3c-1.4,0.3-2.7,0.4-4,0.5
					c-0.1,0-0.1,0-0.2-0.1c-0.1-0.2-0.1-0.4-0.1-0.7c1.4,0,2.7-0.2,4-0.4c-0.2-0.5-0.5-1-0.7-1.6c-1.1,0.2-2.4,0.4-3.7,0.4
					c-0.1,0-0.2,0-0.2-0.1s-0.1-0.4-0.1-0.6c1.3,0,2.7-0.2,3.8-0.3C244.6,84.4,244.5,84.1,244.3,83.7z"/>
			</g>
			<g>
				<path class="st2" d="M252.8,81.6c2.6,2,3.7,4.1,3.7,6.8c0,2.7-1,4.8-3.7,6.8l-0.4-0.4c2.4-2,3.1-4,3.1-6.4
					c0-2.5-0.8-4.4-3.1-6.4L252.8,81.6z"/>
			</g>
			<g>
				<path class="st2" d="M271,91.4c0,1.4,0.8,1.9,2.2,1.9c1.5,0,2.8-0.7,2.8-2.2c0-0.7-0.2-1.5-1.3-2.5c0.3,0,0.6,0,0.9-0.1
					c0.1,0,0.2,0,0.2,0c0.9,0.8,1.2,1.7,1.2,2.5c0,1.9-1.6,3-3.6,3c-2.2,0-3.2-1-3.2-2.8c0-0.5,0.1-1.1,0.1-1.7
					c-0.9-0.1-1.6-0.2-2.2-0.4c-0.1,0-0.1-0.1-0.1-0.2c0-0.3,0-0.5,0-0.8c0.9,0.3,1.6,0.4,2.5,0.5c0.1-0.9,0.2-1.7,0.3-2.4
					c-0.9-0.1-1.7-0.2-2.4-0.4c-0.1,0-0.1,0-0.1-0.2s0-0.5,0-0.8c0.9,0.3,1.8,0.4,2.7,0.5c0.1-0.8,0.2-1.1,0.2-1.7
					c0.1-0.4,0.1-0.8,0-1.2c0.4,0.1,0.9,0.2,1.1,0.3c0.1,0.1,0.2,0.1,0.2,0.2s0,0.1-0.1,0.2s-0.2,0.3-0.3,0.7
					c-0.1,0.5-0.2,1-0.3,1.5c0.6,0,1.3,0,2,0c0.1,0,0.1,0,0.1,0.1c0,0.2,0,0.4,0,0.6c0,0.1-0.1,0.1-0.1,0.1c-0.7,0-1.4,0-2,0
					c-0.1,0.7-0.2,1.5-0.4,2.4c0.8,0,1.5,0,2.3,0c0.1,0,0.2,0,0.2,0.1c0,0.2,0,0.4,0,0.6c0,0.1-0.1,0.2-0.1,0.2
					c-0.7,0.1-1.6,0-2.4,0C271.1,90.3,271,91,271,91.4z"/>
			</g>
			<g>
				<path class="st2" d="M292.3,83.8c0,0.1,0,0.1-0.1,0.1s-0.5,0-1.6,0v6.6c0,1.5,0,2.1,0,2.6c0,0.6-0.1,0.9-0.4,1.1
					c-0.3,0.3-1.1,0.3-2.4,0.3c-0.3,0-0.3,0-0.3-0.3c-0.1-0.3-0.2-0.5-0.3-0.6c0.4,0,1.1,0.1,1.7,0.1s0.8-0.1,0.8-0.5V84h-7.6
					c-1.3,0-1.8,0-1.8,0c-0.1,0-0.1,0-0.1-0.1v-0.7c0-0.1,0-0.1,0.1-0.1s0.5,0,1.8,0h8.2c1.3,0,1.8,0,1.8,0c0.1,0,0.1,0,0.1,0.1
					L292.3,83.8L292.3,83.8z M287,89c0,2.1,0,2.4,0,2.5s0,0.1-0.1,0.1h-0.6c-0.1,0-0.1,0-0.1-0.1v-0.7h-3.4v1.1c0,0.1,0,0.1-0.1,0.1
					H282c-0.1,0-0.1,0-0.1-0.1s0-0.4,0-2.6v-1.4c0-1.3,0-1.7,0-1.8c0-0.1,0-0.1,0.1-0.1s0.4,0,1.5,0h1.9c1.1,0,1.4,0,1.5,0
					s0.1,0,0.1,0.1s0,0.4,0,1.5V89z M286.2,86.8h-3.4V90h3.4V86.8z"/>
			</g>
			<g>
				<path class="st2" d="M299.2,83.5c0.1-0.1,0.2-0.1,0.2,0c0.6,0.7,1.1,1.5,1.6,2.3c0,0.1,0,0.1-0.1,0.2l-0.3,0.2
					c-0.1,0-0.1,0.1-0.2,0.1c0,0-0.1,0-0.1-0.1c-0.1-0.2-0.2-0.5-0.4-0.7c-1.3,0.2-2.7,0.4-4.3,0.6c-0.4,0-0.5,0.1-0.6,0.2
					c-0.1,0-0.1,0.1-0.2,0.1s-0.1,0-0.1-0.2c-0.1-0.2-0.1-0.5-0.2-0.8c0.4,0,0.9,0,1.2,0c0.4-0.8,0.9-1.7,1.1-2.2
					c0.1-0.3,0.2-0.6,0.3-1c0.3,0.1,0.6,0.1,0.8,0.2c0.1,0.1,0.2,0.1,0.2,0.2s-0.1,0.2-0.1,0.2c-0.1,0.1-0.2,0.2-0.2,0.4
					c-0.3,0.6-0.7,1.4-1.1,2.1c1-0.1,2-0.2,2.9-0.4c-0.2-0.3-0.5-0.7-0.7-1c-0.1-0.1,0-0.1,0.1-0.2L299.2,83.5z M300.2,91.5
					c0,0.7,0,1.5,0,1.8c0,0.4,0,0.7-0.3,0.9c-0.2,0.2-0.4,0.3-1.4,0.3c-0.3,0-0.3,0-0.4-0.3c-0.1-0.2-0.1-0.4-0.2-0.5
					c0.3,0,0.6,0.1,0.9,0.1c0.5,0,0.6-0.1,0.6-0.6v-1.6h-3v1.2c0,1.2,0,1.7,0,1.7c0,0.1,0,0.1-0.1,0.1h-0.6c-0.1,0-0.1,0-0.1-0.1
					s0-0.5,0-1.7v-4c0-1.2,0-1.7,0-1.8c0-0.1,0-0.1,0.1-0.1s0.4,0,1.4,0h1.5c1,0,1.3,0,1.4,0s0.1,0,0.1,0.1s0,0.6,0,1.8v2.7H300.2z
					 M299.4,87.6h-3v1.3h3V87.6z M299.4,89.6h-3v1.3h3V89.6z M302.4,86.5c0,0.4,0.1,0.5,0.4,0.6c0.2,0.1,0.6,0.1,1.4,0.1
					c0.9,0,1.5-0.1,1.7-0.3s0.3-0.5,0.3-1.3c0.2,0.1,0.3,0.2,0.5,0.3c0.2,0.1,0.2,0.1,0.2,0.4c-0.1,0.8-0.2,1-0.5,1.3
					s-1.1,0.4-2.3,0.4c-0.9,0-1.6,0-2-0.2c-0.3-0.1-0.5-0.3-0.5-0.9v-3.1c0-0.6,0-1.1-0.1-1.4c0.3,0,0.6,0,0.9,0.1
					c0.1,0,0.2,0.1,0.2,0.1c0,0.1,0,0.2-0.1,0.2c-0.1,0.1-0.1,0.3-0.1,1v1c1-0.3,1.9-0.7,2.5-1.1c0.4-0.2,0.6-0.4,0.7-0.6
					c0.3,0.2,0.4,0.4,0.6,0.5c0.1,0.1,0.1,0.1,0.1,0.2s-0.1,0.1-0.2,0.1c-0.2,0-0.4,0.1-0.6,0.3c-0.9,0.4-2,0.9-3.2,1.3v1H302.4z
					 M302.5,92.9c0,0.3,0.1,0.5,0.4,0.6c0.2,0.1,0.7,0.1,1.5,0.1c0.6,0,1.4-0.1,1.6-0.3c0.3-0.3,0.3-0.6,0.4-1.4
					c0.2,0.1,0.4,0.2,0.6,0.3s0.2,0.1,0.2,0.4c-0.1,0.8-0.3,1.1-0.6,1.3c-0.3,0.2-1.1,0.4-2.2,0.4c-1,0-1.7,0-2.1-0.2
					c-0.3-0.1-0.5-0.4-0.5-1v-3.2c0-0.6,0-1-0.1-1.4c0.3,0,0.6,0,0.9,0.1c0.1,0,0.2,0.1,0.2,0.1c0,0.1,0,0.2-0.1,0.3
					c0,0.1-0.1,0.2-0.1,0.9v0.9c1-0.4,2-0.8,2.7-1.2c0.4-0.2,0.6-0.4,0.7-0.6c0.3,0.2,0.4,0.3,0.6,0.5c0.1,0.1,0.1,0.2,0.1,0.2
					c0,0.1-0.1,0.1-0.2,0.1c-0.2,0-0.4,0.1-0.6,0.3c-0.9,0.5-2,1-3.3,1.4v1.4H302.5z"/>
			</g>
			<g>
				<path class="st2" d="M313.2,93c0,1.1-0.9,1.9-2,1.9s-2-0.9-2-1.9c0-1.1,0.9-1.9,2-1.9C312.3,91.1,313.2,92,313.2,93z M310,93
					c0,0.7,0.6,1.2,1.2,1.2c0.7,0,1.2-0.6,1.2-1.2s-0.5-1.2-1.2-1.2C310.6,91.8,310,92.4,310,93z"/>
			</g>
		</g>
	</g>
</g>
</svg>
