<?xml version="1.0" encoding="UTF-8"?><svg id="A案" xmlns="http://www.w3.org/2000/svg" width="379.89" height="125.42" viewBox="0 0 379.89 125.42"><defs><style>.cls-1{fill:#4d4d4d;}.cls-2{fill:#ed1c24;}.cls-3{fill:#987744;}</style></defs><path class="cls-3" d="M52.36,14.28c-.92.18-2.12.29-3.37.29-2.03,0-4.18-.29-5.37-1.03-1.08-.67-1.57-1.69-1.57-2.7,0-.95.43-1.87,1.21-2.45.14-.11.25-.16.29-.16.09,0,.05.13-.11.34-.36.5-.52,1.01-.52,1.49,0,.88.59,1.66,1.58,2.12.77.36,1.98.47,3.26.47,1.39,0,2.84-.13,3.98-.25.13-.02.25-.02.36-.02.94,0,1.4.43,1.4.9,0,.41-.4.85-1.15.99ZM50.68,4.05h-.07c-.94-.02-1.94.43-3.85,1.35-.05.04-.11.04-.16.04s-.09-.02-.09-.05c0-.05.04-.11.11-.16.5-.45.94-.86,1.22-1.17.09-.11.14-.18.14-.23s-.05-.07-.2-.07h-.09c-.36.02-.7.04-1.01.04-2.09,0-2.79-.49-3.24-1.3-.07-.13-.09-.22-.09-.27s.02-.07.07-.07.13.04.23.09c.45.25,1.03.34,1.67.34,1.53,0,3.4-.54,4.63-.56h.16c1.3,0,1.94.45,1.94,1.15s-.83.88-1.39.88ZM53.33,7.42c-.22,0-.45-.16-.58-.52-.29-.85-.85-1.46-1.42-2-.09-.09-.13-.14-.13-.18s.05-.05.14-.05h.07c.94.13,1.84.59,2.27,1.39.14.25.2.49.2.68,0,.41-.27.68-.56.68ZM55,6.18c-.22,0-.43-.13-.58-.41-.38-.67-.96-1.31-1.67-1.75-.14-.09-.22-.14-.22-.2s.09-.07.29-.07c.88,0,1.85.38,2.38,1.13.22.29.29.54.29.74,0,.34-.23.56-.49.56Z"/><path class="cls-3" d="M72.46,15.86c-.22,0-.47-.04-.74-.14-1.67-.65-2.93-1.93-3.85-3.51-1.48,1.39-3.39,2.43-5.78,3.28-.04.02-.05.02-.09.02-.09,0-.14-.07-.14-.16,0-.05.04-.13.11-.16,2.16-1.12,3.93-2.65,5.28-4.23-.83-2.03-1.28-4.52-1.49-7.26h-4.92v1.24c0,.49,0,1.03-.02,1.62h1.8c.18,0,.22-.02.31-.11.18-.18.49-.45.7-.67.05-.05.09-.09.14-.09s.11.02.2.09c.38.25.81.58,1.12.83.13.11.22.22.22.32s-.09.22-.29.31c-.31.14-.32.2-.34.52-.04,1.1-.09,2.68-.31,3.71-.22,1.01-.63,1.33-1.78,1.57-.07.02-.13.02-.18.02-.16,0-.2-.07-.23-.27-.09-.79-.18-.9-1.35-1.39-.09-.04-.14-.11-.14-.18s.07-.14.18-.14h.04c.45.07.92.16,1.37.16s.52-.13.63-.54c.16-.63.2-2.21.2-3.24v-.47h-2.29c-.04,1.01-.13,2.09-.27,3.02-.4,2.39-1.12,4.27-2.79,5.67-.13.11-.25.18-.32.18-.05,0-.09-.04-.09-.09,0-.07.04-.16.11-.29.76-1.37,1.3-3.28,1.55-5.71.13-1.15.18-2.7.18-4.07s-.05-2.54-.16-2.88c-.04-.16-.05-.29-.05-.36,0-.11.04-.16.09-.16.04,0,.09.02.16.05.49.22,1.17.59,1.85.92h4.66c-.07-.92-.11-1.85-.13-2.83,0-.2-.07-.32-.07-.4,0-.04.02-.05.11-.05h.09c.47.04,1.26.14,1.84.23.23.04.36.14.36.27,0,.11-.11.23-.36.32-.22.07-.27.11-.27.32v.11c.02.68.05,1.37.09,2.02h2.85c.16,0,.23-.05.32-.16.27-.32.58-.68.86-1.03.04-.05.09-.09.14-.09s.11.04.18.09c.56.41,1.12.86,1.51,1.24.07.05.11.14.11.2,0,.09-.07.16-.27.16h-5.69c.14,2.18.43,4.11,1.01,5.73.96-1.4,1.57-2.79,1.89-3.94.05-.22.02-.4.16-.4.04,0,.09.02.16.05.5.22,1.31.59,1.78.83.14.07.22.18.22.27,0,.14-.14.25-.41.27-.32,0-.4.05-.5.29-.63,1.4-1.49,2.81-2.61,4.16.56.95,1.37,1.84,2.34,2.5.11.07.22.13.32.13.14,0,.25-.09.36-.27.34-.67.59-1.24.95-2.09.07-.16.14-.23.2-.23s.11.07.11.2c0,.04-.02.07-.02.13-.2,1.12-.34,1.82-.34,2.32,0,.29.05.52.18.72.16.23.25.49.25.7,0,.47-.38.81-.97.81ZM69.83,2.77c-.23,0-.45-.11-.61-.36-.45-.7-.14-1.31-1.08-2.02-.07-.05-.11-.11-.11-.18,0-.05.05-.11.16-.11.04,0,.07.02.11.02,1.1.22,2.16.7,2.34,1.53.02.07.02.14.02.22,0,.54-.41.9-.83.9Z"/><path class="cls-3" d="M91.97,4.11c-.29.16-.43.22-.43.56-.05,2.88-.29,7-.56,8.57-.29,1.67-.68,2.43-2.61,2.65-.32.04-.41-.05-.43-.27-.09-1.03-.2-1.12-1.85-1.73-.11-.04-.16-.11-.16-.18s.07-.14.18-.14h.04c.97.13,1.8.22,2.21.23h.16c.36,0,.63-.09.74-.67.34-1.76.65-6.66.65-9.42h-3.98c-.56,1.21-1.37,2.41-2.5,3.44.22.32.32.65.34.99v.07c0,.59-.41.92-.79.92-.27,0-.54-.18-.61-.58-.07-.32-.09-.65-.14-.97-.43.14-.94.27-1.39.4,0,2.48,0,5.22.07,7.2v.13c0,.4-.11.54-.85.59h-.2c-.49,0-.63-.18-.63-.5v-.13c.07-1.44.09-3.02.09-4.61-.05.02-.11.04-.2.05-.22.04-.31.11-.38.31-.47,1.33-1.22,2.75-2.21,3.91-.05.07-.11.11-.16.11s-.09-.05-.09-.14c0-.04,0-.07.02-.11.5-1.46.97-3.69,1.01-4.86v-.11c0-.09,0-.14.07-.14.04,0,.05,0,.09.02.61.16,1.19.36,1.71.52.05.02.11.05.14.07v-1.89c-.59.13-1.17.25-1.71.36-.18.04-.2.11-.23.31-.04.22-.14.32-.25.32s-.22-.07-.27-.25c-.16-.56-.31-1.22-.43-1.73-.04-.18-.02-.22.05-.22.05,0,.14.04.23.04.23.02.47.05.72.07s.5.02.76.04c1.24-1.48,2.68-3.91,3.06-5.28.04-.13.02-.2.07-.2.02,0,.05,0,.09.02.63.23,1.22.5,1.8.74.18.09.25.2.25.31s-.11.22-.29.22h-.18c-.16,0-.25.04-.38.2-.88,1.12-2.38,2.79-3.89,4.02,1.04.02,2.18-.02,3.42-.11-.09-.45-.27-.92-.68-1.39-.04-.04-.05-.09-.05-.13,0-.05.04-.11.11-.11.04,0,.07.02.13.04.68.38,1.22.79,1.58,1.22,1.26-2.21,1.84-5.01,1.84-6.61V.11c0-.07,0-.09.07-.09.04,0,.09,0,.14.02.63.11,1.53.34,2.07.49.16.04.27.16.27.27s-.11.22-.34.25c-.32.05-.4.09-.45.27-.18.61-.4,1.3-.7,1.98h3.46c.13,0,.2-.02.27-.11.18-.23.47-.5.63-.67.11-.11.18-.11.34,0,.38.23.9.59,1.22.86.13.11.22.23.22.36s-.09.25-.29.36ZM80.9,1.01c-.27,0-.36.09-.43.18-.59.72-1.22,1.39-1.87,1.93.4.23.68.5.86.83.07.13.13.25.16.4.04.11.04.22.04.32,0,.56-.38.9-.77.9-.23,0-.49-.14-.65-.47-.34-.68-.31-1.57-1.3-2.34-.07-.05-.11-.13-.11-.18s.05-.11.14-.11c.02,0,.05,0,.09.02.41.13.79.25,1.12.41.36-.9.65-1.93.72-2.68.02-.14,0-.22.11-.22.04,0,.07,0,.13.02.63.14,1.42.38,1.93.54.32.13.27.45-.16.45ZM82.94,13.97c-.34,0-.65-.25-.68-.79-.05-.94.02-2.03-.7-3.29-.04-.05-.05-.11-.05-.14,0-.07.05-.11.11-.11s.13.02.2.07c1.1.83,2.02,2.12,2.02,3.15v.05c-.02.68-.47,1.06-.88,1.06ZM86.99,10.26c-.34,0-.68-.22-.76-.7-.13-.85-.22-1.87-1.19-2.93-.07-.07-.09-.14-.09-.2,0-.07.04-.13.13-.13.04,0,.11.02.18.05,1.49.79,2.45,1.62,2.65,2.63.02.09.04.2.04.27,0,.65-.49,1.01-.95,1.01Z"/><path class="cls-3" d="M106.36,14.98c-.36,0-.77-.16-1.17-.58-.63-.65-1.19-1.04-2-1.57,0,.16-.02.47-.04.65-.14,1.35-1.64,1.98-3.22,1.98-1.85,0-3.82-.86-3.82-2.5v-.04c.04-1.57,1.64-2.25,3.78-2.25.5,0,1.04.04,1.6.11-.04-.59-.09-1.58-.09-2.27h-.32c-2.67,0-4.09-.67-4.57-2.02-.02-.05-.04-.11-.04-.14,0-.05.04-.07.07-.07s.09.02.14.07c.67.54,2,.88,3.69.88.32,0,.67-.02,1.01-.04,0-.56,0-1.39.02-1.91-3.22-.02-4.03-.76-4.36-1.89-.02-.07-.02-.13-.02-.16,0-.05.02-.07.05-.07s.11.04.18.11c.41.4,1.46.68,2.97.68.38,0,.77-.02,1.21-.05,0-.4.02-.92.02-1.22,0-.72-.14-1.46-1.03-1.76-.32-.13-.34-.2-.05-.41.23-.18.61-.27,1.03-.27.86,0,1.89.41,2.02,1.22.02.09.02.16.02.22,0,.38-.2.58-.36,1.22-.04.2-.09.61-.11.85,1.64-.18,1.76-.68,2.18-.74.16-.02.31-.04.43-.04.79,0,1.26.36,1.26.79,0,.38-.4.81-1.3,1.04-.88.23-1.73.32-2.7.41-.04.5-.05,1.31-.09,1.8.76-.11,1.35-.31,1.55-.38.2-.05.31-.16.31-.31,0-.07-.04-.14-.07-.23-.09-.18-.18-.29-.36-.52-.13-.2-.14-.29-.05-.29.04,0,.09.02.18.07.61.36.94.43,1.21.43.16,0,.31-.02.49-.02h.07c.61.02.99.38.99.81,0,.32-.22.68-.7.97-.85.47-2.05.67-3.62.85.05.9.14,2,.27,2.68,1.35.41,2.75,1.06,3.57,1.75.5.43.7.88.7,1.26,0,.5-.38.88-.92.88ZM101.53,12.1c-.81-.34-1.82-.58-2.68-.58-1.06,0-1.91.34-1.91,1.17v.02c.02.72,1.39,1.17,2.61,1.17,1.04,0,1.98-.32,1.98-1.1v-.68Z"/><path class="cls-3" d="M123.98,3.84c-.13,0-.25,0-.38-.02-.32-.04-.61-.05-.9-.05-3.38,0-4.68,2.47-4.68,5.92,0,.2,0,.41.02.63.07,1.62,1.22,2.61,3.02,2.61h.43c1.21,0,1.87.34,1.87.9v.09c-.07.67-.65,1.04-1.85,1.04-2.61-.02-4.75-1.55-4.83-4.41v-.29c0-3.1,1.39-5.98,4.52-7.02.16-.05.23-.13.23-.16s-.04-.07-.13-.07c-.05,0-.11.02-.2.04-2.95.85-4.84,1.64-6.07,2.45-.63.41-.92.79-1.62.79h-.2c-.86-.07-1.78-.85-1.78-2.02,0-.14.02-.31.05-.47.04-.16.07-.25.14-.25.05,0,.13.07.23.22.16.22.47.31.81.31.36,0,.77-.09,1.13-.16,1.42-.29,4.52-1.15,7.9-1.87.88-.2.9-.36,1.75-.36,1.06,0,1.66.5,1.8,1.01.04.09.04.18.04.27,0,.5-.5.88-1.33.88ZM124.43,8.3c-.22,0-.45-.16-.58-.52-.29-.86-.83-1.46-1.4-2.02-.07-.07-.11-.13-.11-.16s.04-.05.13-.05h.07c.94.07,1.82.59,2.25,1.42.13.25.18.47.18.67,0,.41-.25.67-.54.67ZM126.1,7.09c-.22,0-.43-.13-.58-.41-.34-.67-.94-1.33-1.66-1.78-.14-.09-.22-.16-.22-.2,0-.05.09-.07.27-.07.86.02,1.87.36,2.41,1.12.2.29.29.54.29.76,0,.36-.25.59-.52.59Z"/><path class="cls-3" d="M137.35,14.44c-.2,0-.38-.02-.58-.02-.23-.02-.34-.05-.34-.11,0-.04.11-.09.29-.11,3.87-.43,6.28-3.06,6.5-6.28.02-.14.02-.29.02-.43,0-2.79-1.82-4.75-5.01-4.75-.34,0-.68.02-1.06.07.59.49.85,1.37.85,1.91v.11c-.14,2.66-1.39,5.74-3.11,7.58-.81.86-1.67,1.33-2.41,1.33-.83,0-1.51-.58-1.82-1.89-.16-.7-.25-1.39-.25-2.03,0-4.11,3.1-7.02,6.43-7.54.52-.09,1.03-.13,1.53-.13,3.94,0,6.7,2.59,6.7,5.69v.23c-.18,3.85-2.75,6.37-7.72,6.37ZM136.79,2.88c-3.24.59-4.95,3.6-4.95,6.27,0,.59.09,1.19.27,1.73.2.56.47.83.81.83.23,0,.5-.14.79-.4,1.42-1.28,2.86-3.78,3.38-6.54.04-.18.05-.36.05-.54,0-.58-.16-1.06-.36-1.35Z"/><path class="cls-3" d="M152.67,12.82c-.31.02-.4-.02-.56.2-.56.77-1.82,2.11-3.42,2.84-.05.04-.11.04-.16.04-.07,0-.11-.04-.11-.09s.04-.11.09-.18c1.08-1.19,1.96-2.84,2.23-3.96.02-.14.04-.2.09-.2.04,0,.07.02.14.04.56.2,1.28.52,1.78.76.14.07.25.2.25.32,0,.11-.09.22-.34.23ZM157.38,11.13h-6.9c-.59,0-1.26.04-1.55.11-.04,0-.07.02-.09.02-.09,0-.14-.05-.2-.14-.07-.13-.14-.29-.18-.45-.02-.05-.02-.09-.02-.11,0-.04.02-.05.05-.05s.09,0,.14.02c.34.13.96.18,1.51.2.02-1.39.04-3.2.04-4.92,0-1.04,0-2.07-.02-2.92-.43.02-.83.05-1.04.13h-.05c-.09,0-.16-.04-.22-.14-.07-.13-.14-.29-.18-.45-.02-.05-.02-.09-.02-.11,0-.04.02-.05.05-.05s.09,0,.14.02c.29.11.81.16,1.31.18,0-.94-.02-1.62-.05-1.84-.04-.25-.07-.4-.07-.5,0-.07.04-.11.14-.11h.11c.63.07,1.19.18,1.82.31.23.04.36.16.36.27s-.13.23-.38.31c-.25.07-.31.22-.32.43,0,.23-.02.63-.02,1.15h2.2c0-.94-.02-1.64-.05-1.85-.04-.25-.07-.4-.07-.5,0-.07.04-.11.14-.11h.11c.63.07,1.19.18,1.82.31.23.04.36.16.36.27s-.13.23-.38.31-.31.22-.32.43c0,.23-.02.63-.02,1.15.14,0,.2-.02.31-.14.18-.25.34-.61.49-.86.05-.07.09-.11.14-.11s.11.04.16.11c.25.31.56.68.81,1.08.05.07.09.14.09.22s-.05.13-.23.13h-1.76c0,.86-.02,1.96-.02,3.11,0,1.64.02,3.37.04,4.7.04-.02.09-.05.13-.11.2-.29.47-.85.59-1.06.04-.07.09-.11.14-.11s.11.04.16.11c.22.25.7.92.92,1.28.04.07.07.14.07.2,0,.07-.04.13-.2.13ZM153.98,2.88h-2.21c0,.59,0,1.3-.02,2.07h2.23v-2.07ZM153.98,5.37h-2.23v2.25h2.23v-2.25ZM151.75,8.03c0,.97,0,1.89.02,2.68h2.18c.02-.79.02-1.73.04-2.68h-2.23ZM155.46,14.85c-.25,0-.54-.14-.72-.52-.34-.68-.23-1.42-1.37-2.32-.05-.05-.07-.09-.07-.14,0-.07.07-.14.18-.14.02,0,.05,0,.09.02,1.08.36,2.27.85,2.59,1.75.05.16.09.32.09.47,0,.54-.38.9-.79.9ZM163.94,1.91c-.25.13-.38.23-.38.47-.02.9-.04,2.99-.04,5.24s.02,4.66.05,6.23v.27c0,.81-.2,1.4-1.69,1.67-.29.05-.38-.04-.41-.27-.11-.9-.18-1.15-1.78-1.58-.13-.04-.18-.11-.18-.18s.07-.13.2-.13h.04c.32.02.65.05.94.07s.58.02.81.04h.05c.27,0,.34-.14.34-.41.04-1.26.05-2.79.05-4.23h-2.45c0,.09-.02.18-.02.27-.2,2.61-1.12,4.81-3.4,6.45-.05.04-.13.07-.18.07s-.11-.04-.11-.09.04-.13.11-.23c1.06-1.55,1.91-3.53,2.04-6.68.05-1.28.07-2.65.07-3.93,0-2.03-.05-3.78-.14-4.27-.07-.34-.05-.45.05-.45.04,0,.11.02.18.07.5.27,1.33.7,1.69.92h1.66c.2,0,.27-.04.32-.11.2-.22.43-.47.65-.68.2-.2.25-.2.52,0,.38.27.79.58,1.1.83.13.11.22.22.22.32s-.09.22-.31.32ZM161.94,5.17h-2.32c0,1.26-.04,2.52-.09,3.51h2.41v-3.51ZM161.89,1.64h-2.27v3.11h2.32c-.02-1.42-.04-2.57-.05-3.11Z"/><path class="cls-3" d="M174.86,1.67c-.29.14-.41.18-.43.4v.94c0,1.01.02,2.34.04,3.22v.04c0,.5-.31.59-.88.63h-.22c-.38,0-.58-.11-.58-.49v-.25h-2.77c0,3.31.02,7.08.05,9.09,0,.49-.31.63-.92.65h-.16c-.43,0-.7-.09-.7-.58v-.05c.07-1.96.11-5.87.11-9.15,0-2.75-.02-5.06-.11-5.38-.05-.2-.07-.34-.07-.43,0-.11.04-.14.09-.14.04,0,.11.04.2.07.63.23,1.8.81,1.8.81h2.18c.14,0,.18-.04.27-.11.23-.22.45-.45.68-.65.13-.11.2-.11.36,0,.4.25.77.56,1.12.81.13.09.2.2.2.29,0,.11-.07.2-.25.29ZM170.04,3.6c0,.67,0,1.4-.02,2.16h2.79c.02-.68.02-1.46.02-2.16h-2.79ZM172.81,1.44h-2.74c0,.5-.02,1.1-.02,1.76h2.77c0-.81,0-1.48-.02-1.76ZM178.91,8.5c-.34.18-.38.22-.4.5-.02.22-.02.63-.02,1.15,0,.95.02,2.21.05,3.06v.07c0,.49-.2.58-.77.63h-.22c-.47,0-.68-.13-.65-.65v-.13h-3.37v.5c0,.54-.25.65-.95.68h-.22c-.34,0-.52-.09-.52-.49v-.13c.07-1.1.13-2.57.13-3.84,0-1.08-.04-2.02-.16-2.38-.05-.18-.07-.31-.07-.4,0-.11.04-.14.11-.14.05,0,.13.02.2.05.68.32,1.73.85,1.73.85h2.77c.16,0,.23-.04.32-.13.16-.16.41-.4.58-.56.07-.07.14-.11.23-.11.05,0,.13.02.22.07.4.23.83.52,1.08.72.11.09.18.2.18.31s-.07.23-.25.32ZM176.95,8.28h-3.42v1.84h3.46c0-.68,0-1.31-.04-1.84ZM173.53,10.52v2.23h3.4c.02-.7.04-1.48.05-2.23h-3.46ZM182.8,1.75c-.31.16-.45.2-.45.5-.02,1.31-.04,4.03-.04,6.64,0,1.93,0,3.78.04,4.99v.2c0,1.06-.31,1.58-1.96,1.82h-.09c-.2,0-.22-.09-.23-.27-.09-.86-.04-1.01-1.5-1.6-.07-.04-.13-.11-.13-.18s.05-.14.16-.14h.04c.61.07,1.19.13,1.58.13.36,0,.4-.13.4-.41.05-1.6.05-4.61.05-7.26h-2.99v.05c0,.43-.22.61-.9.65h-.18c-.45,0-.61-.13-.61-.5v-.13c.05-1.01.09-2.14.09-3.13,0-1.04-.04-1.93-.13-2.32-.05-.2-.07-.34-.07-.43s.02-.13.07-.13.11.02.2.05c.67.25,1.75.77,1.75.77h2.36c.11,0,.2-.04.27-.11.23-.22.52-.5.74-.68.05-.05.11-.07.16-.07s.11.02.2.07c.36.22.88.59,1.24.86.13.09.22.2.22.31s-.09.22-.29.32ZM180.64,1.44h-2.95c0,.31-.02.97-.02,1.76h2.99c-.02-.74-.02-1.37-.02-1.76ZM180.66,3.6h-2.99c0,.72,0,1.51.02,2.16h2.99c0-.77-.02-1.51-.02-2.16Z"/><path class="cls-3" d="M190.67,8.07c-.43,2.5-.79,3.69-.79,4.59,0,.32.04.59.14.88.07.18.11.38.11.54,0,.58-.38,1.03-.85,1.03-.41,0-.88-.32-1.3-1.13-.58-1.15-.81-2.41-.81-3.76,0-1.76.4-3.73.94-5.87.2-.81.32-1.53.32-2.14,0-.27-.02-.52-.07-.76-.02-.11-.04-.2-.04-.25,0-.09.04-.11.18-.11h.14c1.15.05,1.71,1.3,1.71,2.21v.16c-.05.76-.54,1.15-.81,1.69-.92,1.85-1.19,3.4-1.19,4.65,0,.7.09,1.31.2,1.84.04.23.11.36.18.36s.16-.13.27-.36c.5-1.19.92-2.38,1.48-3.64.07-.18.13-.25.16-.25s.04.04.04.09,0,.14-.02.23ZM200.12,14.76c-.36,0-.79-.18-1.15-.63-.32-.4-1.04-1.04-1.39-1.33v.18c0,1.46-1.31,2.12-2.7,2.12-1.55,0-3.19-.83-3.19-2.32,0-.18.04-.36.07-.54.27-1.13,1.26-1.78,2.77-1.78.45,0,.94.07,1.48.18-.05-1.49-.09-2.94-.13-4.11h-.29c-1.75,0-3.6-.47-3.85-1.98-.02-.05-.02-.11-.02-.14,0-.11.04-.18.09-.18s.13.07.22.2c.38.58,1.62.81,2.86.81.32,0,.65-.02.95-.05-.04-.68-.07-1.53-.13-2.3-.09-1.01-.34-1.46-.88-1.51-.23-.02-.34-.07-.34-.14s.09-.16.29-.25c.29-.14.61-.22.92-.22,1.01,0,2.02.67,2.07,1.35v.11c0,.52-.38.68-.4,1.26-.02.49-.02.94,0,1.42.4-.09.63-.22.77-.34.07-.05.11-.13.11-.18,0-.09-.05-.16-.13-.23-.11-.11-.32-.29-.54-.41-.05-.04-.07-.05-.07-.07s.02-.04.05-.04c.02,0,.04.02.07.02.61.2.94.27,1.44.27h.22c.65,0,1.04.41,1.04.88,0,.38-.25.79-.83,1.03-.38.16-1.22.41-2.16.58.02,1.22.04,2.74.13,4.7,1.22.49,2.34,1.21,2.93,1.85.36.4.5.76.5,1.04,0,.47-.34.77-.81.77ZM196.01,11.99c-.65-.45-1.35-.67-1.96-.67-.79,0-1.44.38-1.58,1.06-.02.05-.02.11-.02.18,0,.67.86,1.06,1.75,1.06s1.84-.43,1.84-1.44c0-.07-.02-.13-.02-.2Z"/><path class="cls-3" d="M209.53,1.13c-.22.02-.36.11-.41.25-.43,1.04-.85,2.09-1.39,3.15.22.05.43.14.5.16.22.07.32.18.32.29s-.13.22-.34.29c-.13.04-.18.16-.18.34,0,1.1-.02,2.43-.02,3.89,0,1.78.02,3.78.05,5.73v.07c0,.45-.16.52-.9.59-.09,0-.18.02-.25.02-.5,0-.59-.2-.59-.54v-.13c.07-2.14.11-4.29.11-6.18,0-.83,0-1.6-.02-2.3-.45.63-.95,1.26-1.55,1.89-.05.07-.13.09-.18.09-.07,0-.13-.05-.13-.14,0-.04.02-.09.05-.16,1.6-2.86,2.38-5.74,2.84-8.16.04-.18-.02-.29.11-.29.04,0,.07,0,.13.02.61.16,1.3.34,1.96.58.16.05.25.16.25.27,0,.13-.11.23-.38.27ZM220.4,12.73c-.32.2-.56.72-.65,1.37-.02.13-.09.18-.16.18-.05,0-.11-.02-.16-.05-1.73-1.06-3.1-2.77-3.84-5.65h-.27c0,2.25,0,4.97.07,6.59v.07c0,.47-.18.59-.94.67h-.23c-.56,0-.68-.18-.68-.54v-.09c.07-1.15.09-3.24.11-5.24-1.15,1.89-2.83,3.48-4.93,4.47-.02.02-.04.02-.05.02-.07,0-.14-.07-.14-.16,0-.05.02-.09.07-.13,1.78-1.49,3.29-3.62,4.02-5.65h-1.75c-.59,0-1.26.04-1.55.11-.04,0-.07.02-.09.02-.09,0-.14-.05-.2-.14-.07-.13-.14-.31-.18-.47-.02-.05-.02-.09-.02-.11,0-.04.02-.05.05-.05s.09,0,.14.02c.41.14,1.21.2,1.84.2h2.79c-.02-.95-.02-1.82-.04-2.43h-1.37v.27c0,.47-.32.58-.94.61h-.22c-.4,0-.65-.09-.65-.47v-.09c.07-.92.13-2.09.13-3.11s-.05-1.94-.18-2.3c-.05-.14-.07-.23-.07-.29,0-.09.04-.11.09-.11s.11.02.16.04c.5.2,1.89.81,1.89.81h3.94c.16,0,.23-.04.31-.11.13-.14.36-.38.49-.54.11-.11.18-.23.32-.23.07,0,.18.04.31.13.38.23.83.54,1.19.83.11.07.16.18.16.27,0,.11-.05.2-.23.31-.25.16-.4.16-.4.4-.02.49-.02.97-.02,1.48,0,.65,0,1.33.04,2.2v.04c0,.49-.43.59-.95.61-.09,0-.18.02-.25.02-.38,0-.59-.11-.59-.49v-.25h-1.4c-.02.61-.02,1.48-.04,2.43h1.93c.13,0,.22-.04.31-.14.25-.32.58-.72.86-1.08.05-.05.09-.07.14-.07s.11.02.18.07c.47.36,1.19.97,1.55,1.31.07.05.11.13.11.2s-.07.14-.25.14h-4.21c1.1,2.12,2.54,3.24,4.45,3.58.23.04.34.13.34.22,0,.11-.13.23-.32.36ZM216.79,1.49h-4.55c-.02,1.01-.02,2.29,0,3.78h4.55c.02-.63.04-1.22.04-1.82,0-.7-.02-1.37-.04-1.96Z"/><path class="cls-3" d="M230,3.66h-4.5c-.61,0-1.28.04-1.57.13h-.05c-.11,0-.18-.04-.23-.14-.05-.13-.13-.27-.18-.43-.02-.05-.02-.09-.02-.11,0-.04.02-.05.05-.05s.09,0,.14.02c.41.14,1.21.2,1.85.2h1.96c.11,0,.22-.04.29-.13.25-.32.45-.63.74-.99.04-.05.09-.07.13-.07.05,0,.09.02.16.07.45.36.99.83,1.39,1.21.16.14.11.31-.16.31ZM229.46,5.82h-3.35c-.59,0-1.26.04-1.55.11-.04,0-.07.02-.09.02-.09,0-.14-.05-.2-.14-.07-.13-.14-.27-.18-.43-.02-.05-.02-.09-.02-.11,0-.04.02-.05.05-.05s.09,0,.14.02c.41.14,1.21.2,1.84.2h.92c.11,0,.2,0,.29-.09.14-.2.43-.59.68-.9.04-.05.07-.07.13-.07.04,0,.09.02.16.07.32.25.94.74,1.31,1.1.05.04.07.09.07.14,0,.07-.07.14-.22.14ZM229.46,8.07h-3.35c-.59,0-1.26.04-1.55.11-.04,0-.07.02-.09.02-.09,0-.14-.05-.2-.14-.07-.13-.14-.27-.18-.43-.02-.05-.02-.09-.02-.11,0-.04.02-.05.05-.05s.09,0,.14.02c.41.14,1.21.2,1.84.2h.92c.11,0,.2,0,.29-.09.14-.2.43-.59.68-.9.04-.05.07-.07.13-.07.04,0,.09.02.16.07.32.25.92.74,1.31,1.1.05.05.07.11.07.14,0,.09-.07.14-.22.14ZM229.47,10.59c-.27.16-.36.18-.38.38-.02.52-.04,1.04-.04,1.58,0,.65.02,1.35.04,2.12v.04c0,.45-.32.59-.85.61h-.14c-.41,0-.61-.09-.61-.47v-.05c0-.2.02-.38.02-.56h-1.75c.02.31.02.61.02.92v.04c0,.45-.27.54-.79.58h-.18c-.34,0-.61-.09-.61-.43v-.11c.07-.9.11-2.16.11-3.26s-.04-2.07-.16-2.38c-.05-.14-.07-.23-.07-.29,0-.09.04-.11.09-.11.04,0,.09.02.16.04.63.25,1.69.77,1.69.77h1.15c.16,0,.2-.04.27-.11.23-.22.45-.47.63-.65.07-.07.11-.09.16-.09s.11.02.18.07c.32.2.77.54,1.12.81.11.09.16.18.16.27s-.07.18-.22.27ZM229.08,1.57h-2.81c-.59,0-1.24.04-1.51.13-.02,0-.05.02-.07.02-.09,0-.16-.05-.22-.16-.07-.13-.14-.29-.18-.45,0-.04-.02-.07-.02-.09,0-.05.02-.07.05-.07s.07.02.14.04c.41.13,1.17.2,1.8.2h.41c.11,0,.18,0,.27-.11.16-.2.47-.59.7-.9.07-.11.14-.11.29,0,.32.27.95.79,1.28,1.12.05.05.09.11.09.14,0,.09-.09.14-.23.14ZM227.53,10.41h-1.73c-.02.85-.04,2.09-.04,3.44h1.76c.02-.7.04-1.39.04-2,0-.52-.02-.99-.04-1.44ZM239.39,15.12h-7.96c-.59,0-1.26.04-1.55.11h-.05c-.11,0-.18-.04-.23-.13-.05-.13-.13-.29-.18-.45-.04-.13-.02-.16.05-.16.02,0,.07,0,.13.02.32.11.87.16,1.39.2.02-1.48.02-3.17.02-4.68,0-2.12-.02-3.89-.05-4.18s-.07-.43-.07-.52.02-.11.11-.11c.04,0,.09.02.14.02.61.07,1.26.16,1.78.27.2.04.31.16.31.31,0,.11-.07.22-.25.29-.29.11-.36.2-.36.34-.04,1.4-.05,2.74-.05,4.18,0,1.24.02,2.56.04,4.09h1.66c.11-3.98.11-9.78,0-12.82h-2.07c-.59,0-1.26.04-1.55.11-.04,0-.05.02-.09.02-.07,0-.14-.05-.2-.14-.05-.13-.13-.29-.18-.45-.04-.13-.02-.16.05-.16.02,0,.07,0,.13.02.41.14,1.21.2,1.84.2h4.05c.13,0,.23-.04.31-.13.36-.4.61-.72.92-1.06.05-.05.09-.07.14-.07.04,0,.09.02.16.07.45.32,1.17.9,1.57,1.28.05.05.11.13.11.18,0,.07-.07.14-.23.14h-3.19c-.04,1.4-.05,3.37-.05,5.47h.34c.16,0,.25-.02.34-.14.22-.29.5-.7.72-.99.05-.05.09-.09.14-.09s.11.04.18.09c.36.29.92.79,1.31,1.19.07.07.11.14.11.22s-.07.14-.25.14h-2.9c0,2.36.02,4.88.05,6.93h.56c.11,0,.22-.02.31-.13.2-.25.58-.77.9-1.17.09-.11.16-.11.31,0,.43.36,1.06.95,1.46,1.39.05.07.09.13.09.18,0,.09-.09.14-.23.14Z"/><path class="cls-3" d="M255.02,3.84c-.13,0-.25,0-.38-.02-.32-.04-.61-.05-.9-.05-3.38,0-4.68,2.47-4.68,5.92,0,.2,0,.41.02.63.07,1.62,1.22,2.61,3.02,2.61h.43c1.21,0,1.87.34,1.87.9v.09c-.07.67-.65,1.04-1.85,1.04-2.61-.02-4.75-1.55-4.83-4.41v-.29c0-3.1,1.39-5.98,4.52-7.02.16-.05.23-.13.23-.16s-.04-.07-.13-.07c-.05,0-.11.02-.2.04-2.95.85-4.84,1.64-6.07,2.45-.63.41-.92.79-1.62.79h-.2c-.86-.07-1.78-.85-1.78-2.02,0-.14.02-.31.05-.47.04-.16.07-.25.14-.25.05,0,.13.07.23.22.16.22.47.31.81.31.36,0,.77-.09,1.13-.16,1.42-.29,4.52-1.15,7.91-1.87.88-.2.9-.36,1.75-.36,1.06,0,1.66.5,1.8,1.01.04.09.04.18.04.27,0,.5-.5.88-1.33.88ZM255.47,8.3c-.22,0-.45-.16-.58-.52-.29-.86-.83-1.46-1.4-2.02-.07-.07-.11-.13-.11-.16s.04-.05.13-.05h.07c.94.07,1.82.59,2.25,1.42.13.25.18.47.18.67,0,.41-.25.67-.54.67ZM257.14,7.09c-.22,0-.43-.13-.58-.41-.34-.67-.94-1.33-1.66-1.78-.14-.09-.22-.16-.22-.2,0-.05.09-.07.27-.07.86.02,1.87.36,2.41,1.12.2.29.29.54.29.76,0,.36-.25.59-.52.59Z"/><path class="cls-3" d="M272.01,5.65c-.41.7-1.73,1.22-2.83,1.55.65.9,1.28,1.58,1.89,2.05.61.47.95,1.33.95,1.98,0,.36-.11.65-.32.77-.14.07-.29.11-.43.11-.61,0-1.3-.58-1.66-.92-.9-.86-2.38-1.31-3.71-1.31-1.51,0-2.84.59-2.9,1.89v.07c0,1.15.88,1.94,3.04,1.94.47,0,.99-.04,1.57-.11.27-.04.63-.09.99-.09.61,0,1.22.16,1.24.81v.04c0,.63-.52.99-1.35,1.08-.54.05-1.04.09-1.53.09-3.26,0-5.13-1.26-5.13-3.26,0-.22.02-.45.07-.68.29-1.48,1.84-2.43,4.2-2.43.76,0,1.6.09,2.5.31.11.04.22.04.31.04.14,0,.25-.04.25-.14,0-.05-.04-.13-.11-.22-.34-.43-.81-1.12-1.17-1.69-1.15.25-2.12.36-2.95.36-2.38,0-3.35-.94-3.35-1.98v-.04c0-.18.02-.29.07-.29.04,0,.09.07.16.18.32.58,1.24.85,2.45.85.83,0,1.8-.13,2.83-.36-.2-.34-.56-.99-.76-1.33-.58.09-1.12.14-1.58.14-1.37,0-2.3-.41-2.5-1.4-.04-.16-.04-.25,0-.25s.11.04.22.13c.31.23.77.34,1.39.34.52,0,1.13-.07,1.82-.2-.25-.49-.49-.97-.7-1.37-.29-.52-.86-.85-1.39-.85-.11,0-.22.02-.31.04-.27.05-.32-.05-.16-.32.32-.52,1.01-.76,1.67-.76.54,0,1.06.14,1.39.43.31.27.32.54.32.86v.07c0,.25,0,.52.16.85.09.18.25.47.36.67.68-.23,1.22-.5,1.82-.79.34-.16.63-.23.88-.23.47,0,.74.27.74.61,0,.31-.23.7-.76.99-.18.11-.36.23-.52.31.5.18.85.25,1.17.25.25,0,.49-.04.81-.09.05-.02.13-.02.18-.02.43,0,.85.29.85.77,0,.16-.05.34-.18.56ZM269.51,4.77c-.09-.13-.43-.43-.56-.54-.25.11-.9.34-1.35.43.16.32.49.83.7,1.21.58-.16.99-.38,1.17-.5.09-.07.14-.18.14-.29s-.04-.22-.11-.31Z"/><path class="cls-3" d="M287.08,14.98c-.36,0-.77-.16-1.17-.58-.63-.65-1.19-1.04-2-1.57,0,.16-.02.47-.04.65-.14,1.35-1.64,1.98-3.22,1.98-1.85,0-3.82-.86-3.82-2.5v-.04c.04-1.57,1.64-2.25,3.78-2.25.5,0,1.04.04,1.6.11-.04-.59-.09-1.58-.09-2.27h-.32c-2.67,0-4.09-.67-4.57-2.02-.02-.05-.04-.11-.04-.14,0-.05.04-.07.07-.07s.09.02.14.07c.67.54,2,.88,3.69.88.32,0,.67-.02,1.01-.04,0-.56,0-1.39.02-1.91-3.22-.02-4.03-.76-4.36-1.89-.02-.07-.02-.13-.02-.16,0-.05.02-.07.05-.07s.11.04.18.11c.41.4,1.46.68,2.97.68.38,0,.77-.02,1.21-.05,0-.4.02-.92.02-1.22,0-.72-.14-1.46-1.03-1.76-.32-.13-.34-.2-.05-.41.23-.18.61-.27,1.03-.27.86,0,1.89.41,2.02,1.22.02.09.02.16.02.22,0,.38-.2.58-.36,1.22-.04.2-.09.61-.11.85,1.64-.18,1.76-.68,2.18-.74.16-.02.31-.04.43-.04.79,0,1.26.36,1.26.79,0,.38-.4.81-1.3,1.04-.88.23-1.73.32-2.7.41-.04.5-.05,1.31-.09,1.8.76-.11,1.35-.31,1.55-.38.2-.05.31-.16.31-.31,0-.07-.04-.14-.07-.23-.09-.18-.18-.29-.36-.52-.13-.2-.14-.29-.05-.29.04,0,.09.02.18.07.61.36.94.43,1.21.43.16,0,.31-.02.49-.02h.07c.61.02.99.38.99.81,0,.32-.22.68-.7.97-.85.47-2.05.67-3.62.85.05.9.14,2,.27,2.68,1.35.41,2.75,1.06,3.57,1.75.5.43.7.88.7,1.26,0,.5-.38.88-.92.88ZM282.25,12.1c-.81-.34-1.82-.58-2.68-.58-1.06,0-1.91.34-1.91,1.17v.02c.02.72,1.39,1.17,2.61,1.17,1.04,0,1.98-.32,1.98-1.1v-.68Z"/><path class="cls-3" d="M307.07,7.31c-.14,0-.31-.02-.49-.07-.86-.23-1.94-.36-3.28-.36-.09.97-.22,1.84-.38,2.68-.27,1.3-.81,1.78-1.6,1.89-.11.02-.2.02-.29.02-.49,0-.83-.22-.85-.67-.02-.81-.38-.76-1.39-1.42-.14-.09-.23-.18-.23-.22s.04-.05.09-.05c.04,0,.11.02.18.04.83.18,1.46.25,1.93.31h.09c.31,0,.47-.16.54-.43.13-.56.22-1.31.29-2.07-1.22.11-2.39.34-3.69.61-.05,1.08-.11,2.12-.11,3.21v.38c.02,1.24.67,1.85,2.12,1.94.36.02.68.04.97.04,1.17,0,1.94-.16,2.88-.34.25-.05.49-.07.68-.07.94,0,1.41.47,1.41.94s-.42.92-1.24,1.01c-1.06.11-1.96.16-2.79.16-.58,0-1.12-.02-1.62-.07-2.5-.23-3.69-1.76-3.75-3.47-.02-.95-.04-2.25-.07-3.31-.61.22-1.06.45-1.51.67-.52.27-.9.54-1.35.54h-.11c-.77-.07-1.6-.79-1.6-1.67,0-.14.02-.27.05-.41.04-.14.07-.22.13-.22s.11.05.18.14c.25.29.61.4,1.01.4s.81-.09,1.26-.18c.52-.11,1.17-.25,1.89-.4-.04-.86-.05-1.64-.11-2.23-.07-.81-.31-.97-.99-1.24-.16-.07-.23-.14-.23-.22,0-.05.07-.14.22-.23.25-.16.56-.23.88-.23.92,0,1.95.58,2.07,1.21.02.09.04.16.04.22,0,.31-.18.47-.22,1.06-.02.34-.04.85-.05,1.37,1.26-.2,2.45-.43,3.75-.63.04-.63.05-1.3.05-1.96,0-.36,0-.7-.02-1.04-.04-.76-.22-1.12-.95-1.37-.38-.14-.38-.2,0-.4.29-.14.59-.2.9-.2,1.01,0,2.03.63,2.12,1.3.02.07.02.14.02.2,0,.5-.31.52-.34,1.13-.04.58-.07,1.22-.13,2.07.32-.04.52-.05.72-.09.2-.04.34-.09.34-.25,0-.11-.09-.29-.25-.52-.07-.09-.07-.13-.05-.13.04,0,.09.02.14.05,1.21.68,1.75.72,2.5.76.56.02,1.03.14,1.28.67.04.09.05.18.05.27,0,.43-.4.94-1.1.94Z"/><path class="cls-3" d="M320.72,15c-.41,0-.85-.07-1.28-.2-1.71-.54-1.91-1.98-1.91-3.29,0-.4.02-.77.02-1.12,0-.52-.04-.95-.25-1.19-.16-.18-.45-.29-.77-.29-1.35,0-3.66,1.49-4,4.72-.07.58-.45,1.4-1.19,1.4-.07,0-.14,0-.22-.02-.58-.11-.81-.63-.81-1.24,0-.18.02-.38.05-.56.38-1.78,1.58-3.1,5.2-9.74.29-.54.41-1.12.41-1.58,0-.4-.09-.72-.29-.86-.16-.11-.25-.22-.25-.29s.11-.13.32-.13h.04c1.3,0,2.38,1.21,2.38,2.27v.07c-.05,1.13-.67,1.13-1.24,1.75-1.87,2-2.65,3.04-3.66,4.99-.05.11-.09.2-.09.25s.02.07.05.07.11-.04.18-.11c.97-.97,2.5-2.16,3.85-2.16.25,0,.52.04.76.14,1.03.43,1.13,1.4,1.13,2.39v.88c0,.9.09,1.69.92,1.96.25.09.54.14.85.14,1.4,0,3.24-.99,4.07-4.11.05-.22.13-.32.18-.32s.09.11.09.29v.09c-.09,3.55-2.12,5.78-4.56,5.78Z"/><path class="cls-2" d="M63.12,51.86l-.42.42-5.28-5.27-5.25,5.27-.42-.42,5.25-5.27-5.22-5.22.42-.42,5.23,5.22,5.22-5.22.42.42-5.22,5.22,5.28,5.27ZM54.69,46.59c0,.57-.46,1.04-1.05,1.04s-1.02-.46-1.02-1.04.45-1.04,1.02-1.04,1.05.48,1.05,1.04ZM58.46,42.81c0,.57-.46,1.04-1.04,1.04s-1.04-.46-1.04-1.04.46-1.04,1.04-1.04,1.04.46,1.04,1.04ZM58.46,50.39c0,.57-.46,1.02-1.04,1.02s-1.04-.45-1.04-1.02.46-1.05,1.04-1.05,1.04.48,1.04,1.05ZM62.24,46.59c0,.57-.45,1.04-1.02,1.04s-1.05-.46-1.05-1.04.46-1.04,1.05-1.04,1.02.48,1.02,1.04Z"/><path class="cls-1" d="M67.87,50.29c-.1.08-.13.17-.2.31-.32.76-.6,1.34-1.22,2.1-.08.1-.13.15-.17.15s-.1-.04-.2-.11c-.18-.14-.38-.24-.49-.28.69-.74,1.06-1.37,1.37-2.19.06-.17.11-.35.14-.53.25.08.53.17.7.25.1.04.15.08.15.14s-.03.1-.1.15ZM69.93,47.34c0,1.3.03,1.79.03,1.88,0,.1-.01.11-.1.11s-.34-.03-1.18-.03h-.99c-.81,0-1.07.03-1.15.03-.1,0-.11-.01-.11-.11,0-.08.03-.57.03-1.88v-4.51c0-1.29-.03-1.79-.03-1.88,0-.1.01-.11.11-.11.08,0,.34.03,1.15.03h.99c.84,0,1.09-.03,1.18-.03s.1.01.1.11c0,.08-.03.59-.03,1.88v4.51ZM69.17,41.58h-1.96v1.85h1.96v-1.85ZM69.17,44.12h-1.96v1.83h1.96v-1.83ZM69.17,46.64h-1.96v1.96h1.96v-1.96ZM69.04,49.8c.18-.08.21-.08.25.01.29.69.7,1.44,1.32,2.1-.15.07-.34.17-.5.32-.08.07-.14.11-.18.11-.06,0-.1-.06-.18-.18-.45-.64-.83-1.37-1.12-2.06-.03-.08-.01-.13.13-.18l.29-.13ZM78.51,50.22c0,.1-.01.11-.11.11-.06,0-.32-.01-.95-.03,0,.52.01,1.01.01,1.3,0,.52-.08.74-.29.91-.2.18-.52.25-1.53.25q-.28,0-.34-.28c-.06-.18-.15-.34-.25-.48.35.04.66.06,1.08.06.46,0,.56-.14.56-.52v-1.25h-4.72v.92c0,1.05.03,1.48.03,1.55,0,.1-.01.11-.11.11h-.6c-.08,0-.1-.01-.1-.11,0-.08.03-.45.03-1.53v-.94c-.56,0-.8.01-.84.01-.1,0-.11-.01-.11-.11v-.42c0-.1.01-.11.11-.11.04,0,.28.01.84.03v-1.57c0-1.08-.03-1.47-.03-1.54,0-.1.01-.11.1-.11s.5.03,1.75.03h.85v-1.01h-1.42c-1.39,0-1.85.03-1.92.03-.1,0-.11-.01-.11-.11v-.42c0-.1.01-.11.11-.11.07,0,.53.03,1.92.03h.13v-1.06c-.95.01-1.3.03-1.36.03-.1,0-.11-.01-.11-.11v-.42c0-.1.01-.11.11-.11.06,0,.41.03,1.36.03v-.95c-1.22,0-1.62.03-1.69.03-.1,0-.11-.01-.11-.11v-.42c0-.1.01-.11.11-.11.07,0,.48.03,1.69.03v-.17c0-.64-.01-.98-.1-1.25l.83.08c.1.01.17.07.17.11,0,.06-.03.13-.07.2-.07.1-.08.32-.08.87v.15h1.86v-.17c0-.64-.01-.98-.1-1.25l.83.08c.1.01.17.07.17.11,0,.06-.03.13-.07.2-.07.1-.08.32-.08.87v.15h.13c1.33,0,1.75-.03,1.83-.03.1,0,.11.01.11.11v.42c0,.1-.01.11-.11.11-.08,0-.5-.03-1.83-.03h-.13v.95c1.13,0,1.53-.03,1.61-.03.1,0,.11.01.11.11v.42c0,.1-.01.11-.11.11-.08,0-.48-.03-1.61-.03v1.06h.42c1.39,0,1.85-.03,1.92-.03.1,0,.11.01.11.11v.42c0,.1-.01.11-.11.11-.07,0-.53-.03-1.92-.03h-1.77v1.01h1.01c1.25,0,1.67-.03,1.75-.03.1,0,.11.01.11.11,0,.07-.03.55-.03,1.62v1.48c.63,0,.9-.03.95-.03.1,0,.11.01.11.11v.42ZM73.89,47.13h-1.92v.99h1.92v-.99ZM73.89,48.65h-1.92v1.06h1.92v-1.06ZM75.21,42.32h-1.86v.95h1.86v-.95ZM75.21,43.86h-1.86v1.06h1.86v-1.06ZM76.69,47.13h-2.09v.99h2.09v-.99ZM76.69,48.65h-2.09v1.06h2.09v-1.06Z"/><path class="cls-1" d="M85.98,41.31c.95,0,1.23-.03,1.32-.03s.13.03.13.13c0,.36.01.88.13,1.71.48,3.68,2.17,6.63,5.56,8.7-.17.13-.35.32-.5.56-.08.14-.13.2-.18.2-.04,0-.1-.03-.2-.1-2.86-1.99-4.55-4.55-5.17-8.07-.5,3.43-2.54,6.33-5.41,8.07-.11.06-.17.1-.22.1s-.1-.06-.2-.2c-.14-.2-.34-.36-.53-.48,3.61-1.82,5.66-5.41,5.86-9.76h-1.99c-.97,0-1.25.03-1.32.03-.1,0-.11-.01-.11-.11v-.66c0-.1.01-.11.11-.11.07,0,.35.03,1.32.03h1.42Z"/><path class="cls-1" d="M98.28,41.26c.15.04.22.11.22.21,0,.11-.06.22-.11.36-.06.17-.11.6-.17,1.44-.13,2.11-.21,4.03-.21,5.97,0,1.57.43,2.05,1.65,2.05,1.78,0,3.6-1.08,5.04-2.68.04.32.15.6.24.81.03.08.06.14.06.2,0,.08-.04.15-.17.27-1.47,1.41-3.33,2.35-5.34,2.35-1.58,0-2.44-.76-2.44-2.82s.13-4.27.2-6.25c.03-.87.04-1.47-.11-2.12.42.04.85.1,1.13.2Z"/><path class="cls-1" d="M114.39,42.99c.11-.03.15,0,.17.1.03.17.06.41.07.57.01.14-.01.18-.14.21-.91.25-1.68.43-2.54.57-.84,2.84-1.7,5.28-2.69,7.55-.06.13-.11.13-.21.08-.11-.04-.48-.21-.66-.31-.07-.04-.08-.11-.06-.18,1.16-2.47,1.96-4.65,2.62-6.99-.91.1-1.88.15-2.83.17-.17,0-.2-.01-.22-.14-.03-.2-.07-.49-.11-.77.27.03.5.03.88.03.66,0,1.62-.06,2.52-.17.2-.74.31-1.25.41-1.77.07-.39.14-.85.11-1.32.39.07.83.2,1.12.32.07.03.11.08.11.15s-.04.14-.11.22c-.1.13-.15.25-.22.55-.17.57-.29,1.15-.45,1.68.66-.11,1.44-.32,2.23-.57ZM113.69,49.41c.11,0,.14.03.15.14.1,1.26.88,1.68,2.65,1.68.71,0,1.5-.1,2.07-.18.11-.01.15-.01.17.1.03.17.06.48.06.67,0,.14-.04.17-.15.18-.43.07-1.16.14-1.83.14-1.51,0-2.45-.2-3.08-.77-.49-.42-.67-1.05-.69-1.89.24-.04.5-.07.66-.07ZM114.04,45.81c0-.13.03-.17.18-.21.81-.18,1.62-.29,2.45-.29.57,0,1.19.07,1.74.14.17.03.2.07.21.15.01.14.03.43.01.62-.01.17-.06.21-.18.18-.6-.1-1.2-.15-1.79-.15-.87,0-1.74.13-2.58.31-.03-.24-.04-.57-.04-.74Z"/><path class="cls-1" d="M124.02,42.64c.08.04.13.1.13.15,0,.07-.03.15-.06.25-.06.17-.11.56-.11,1.29,0,.9.01,1.75.2,3.18.21,1.65.81,2.86,1.49,2.86.56,0,1.09-.9,1.5-2.2.15.36.28.53.46.7.11.1.15.21.11.35-.39,1.13-1.15,2.2-2.09,2.2-1.18,0-2.06-1.62-2.37-3.82-.2-1.4-.25-2.98-.25-3.91,0-.53-.01-.87-.11-1.34.39.04.84.17,1.11.29ZM130.7,43.72c.08-.04.15-.06.21,0,1.43,1.25,2.38,2.97,2.73,4.85.01.1-.03.14-.1.18-.21.14-.41.24-.64.32-.1.03-.17-.01-.18-.11-.39-2.14-1.27-3.63-2.63-4.86.27-.18.48-.31.62-.38Z"/><path class="cls-1" d="M140.65,42.56c0-.6-.04-.99-.11-1.32.43.04.9.13,1.12.21.11.04.17.11.17.21,0,.06-.03.11-.07.18-.07.14-.15.31-.17.71-.03.38-.04.77-.06,1.22.7-.14,1.39-.34,2.06-.59.11-.04.17-.03.18.1.03.2.06.39.06.59,0,.13-.04.14-.15.18-.73.25-1.34.42-2.18.57-.03.91-.03,1.83-.01,2.76,1.33-.64,2.49-1.06,3.66-1.06,1.72,0,2.75,1.06,2.75,2.48,0,1.69-1.15,2.58-2.91,2.58-.38,0-.8-.06-1.12-.17-.14-.04-.18-.14-.2-.36-.03-.18-.08-.39-.22-.64.52.24,1.04.29,1.5.29,1.12,0,1.97-.56,1.97-1.72,0-1.02-.69-1.69-1.93-1.69-.83,0-1.93.36-3.49,1.18,0,.5.03,1.27.07,2.14.03.66.08,1.11.08,1.33,0,.2-.01.28-.15.32-.17.04-.43.1-.59.1-.13,0-.2-.14-.53-.5-.5-.55-1.21-1.04-2.03-1.57-.21.13-.35.22-.48.31-.07.06-.13.1-.2.1-.08,0-.14-.06-.21-.15-.13-.18-.28-.49-.43-.85.39-.1.81-.22,1.36-.49.62-.29,1.42-.74,2.27-1.23-.01-.99-.01-2.03-.01-3-.94.11-1.58.15-2.56.15-.18,0-.24-.07-.27-.21-.04-.17-.07-.39-.08-.66.85.04,1.82.01,2.91-.11.01-.5.03-.9.03-1.37ZM138.85,49.73c.67.39,1.15.69,1.74,1.01.1.06.14.03.14-.1-.03-.6-.04-1.22-.08-1.99-.64.36-1.12.67-1.79,1.08ZM145.7,42.94c.06-.1.1-.13.2-.11,1.09.22,2.09.7,2.77,1.47.06.07.06.11,0,.18-.11.17-.29.42-.45.57-.07.07-.13.06-.18,0-.74-.78-1.58-1.3-2.68-1.53.1-.21.21-.39.34-.59Z"/><path class="cls-1" d="M159.81,43.91c.18,0,.28-.03.34-.06.06-.03.08-.04.13-.04.08,0,.17.06.39.28.18.2.24.29.24.38s-.04.15-.14.2c-.11.04-.22.13-.42.32-.66.67-1.28,1.22-1.93,1.7,1.54.74,3.4,1.25,5.6,1.6-.17.18-.27.36-.36.6q-.1.24-.36.18c-2.27-.48-4.09-1.08-5.6-1.89-.97.6-2.09,1.08-3.52,1.51.14.01.62.03,1.81.03h3.31c1.32,0,1.78-.03,1.86-.03.1,0,.11.01.11.1s-.03.39-.03,1.08v1.18c0,1.37.03,1.74.03,1.81,0,.08-.01.1-.11.1h-.63c-.1,0-.11-.01-.11-.1v-.59h-5.53v.56c0,.08-.01.1-.11.1h-.63c-.1,0-.11-.01-.11-.1,0-.07.03-.43.03-1.78v-1.05c0-.81-.03-1.12-.03-1.2v-.04c-.59.18-1.23.35-1.95.52q-.28.07-.39-.17c-.1-.21-.22-.41-.35-.52,2.37-.46,4.13-1.01,5.62-1.83-.7-.43-1.32-.94-1.89-1.51-.59.5-1.3.99-2.21,1.48-.11.06-.17.1-.22.1s-.08-.06-.15-.15c-.13-.2-.28-.34-.42-.42,1.93-.91,3-1.85,3.82-2.93.11-.15.27-.41.36-.64.28.07.49.14.73.24.08.04.13.07.13.14s-.07.13-.14.18c-.1.07-.18.17-.29.31-.1.13-.2.25-.31.38h3.47ZM163.16,42.99c0,1.19.03,1.37.03,1.44,0,.1-.01.11-.11.11h-.63c-.1,0-.11-.01-.11-.11v-1.96h-9.59v1.96c0,.1-.01.11-.11.11h-.63c-.1,0-.11-.01-.11-.11,0-.08.03-.25.03-1.44v-.43c0-.45-.03-.64-.03-.73,0-.1.01-.11.11-.11.07,0,.56.03,1.93.03h3.08v-.55c0-.34-.01-.62-.1-.95.31.01.64.04.92.07.11.01.17.06.17.11,0,.1-.04.17-.08.27-.04.13-.07.28-.07.55v.5h3.29c1.39,0,1.86-.03,1.93-.03.1,0,.11.01.11.11,0,.07-.03.28-.03.63v.53ZM160.4,49.42h-5.53v2.1h5.53v-2.1ZM155.73,44.58l-.17.18c.62.59,1.32,1.09,2.1,1.53.71-.48,1.37-1.04,2.02-1.71h-3.95Z"/><path class="cls-1" d="M170.18,43.84c0,.1-.01.11-.11.11-.08,0-.35-.03-1.26-.03h-.08c.35,1.18.78,2.19,1.44,3.04-.14.14-.27.35-.35.53-.04.1-.08.15-.13.15s-.07-.06-.13-.15c-.39-.78-.71-1.64-.97-2.68.01,4.26.14,7.79.14,8,0,.08-.01.1-.1.1h-.67c-.1,0-.11-.01-.11-.1,0-.21.11-3.71.14-7.8-.36,1.64-.84,3.05-1.64,4.44-.06.1-.1.15-.14.15s-.08-.04-.11-.14c-.08-.22-.22-.43-.36-.55.85-1.3,1.57-2.89,2.06-5h-.31c-.94,0-1.2.03-1.27.03-.1,0-.11-.01-.11-.11v-.55c0-.11.01-.13.11-.13.07,0,.34.03,1.27.03h.42v-1.2c0-.83-.01-1.23-.11-1.67.35.01.63.04.88.08.11.01.17.06.17.13,0,.1-.04.17-.08.25-.06.14-.07.39-.07,1.19v1.22h.11c.91,0,1.18-.03,1.26-.03.1,0,.11.01.11.13v.55ZM174.47,46.95c.34.77.73,1.43,1.19,2.03.45-.36.74-.64,1.12-1.05.14-.15.24-.28.34-.49.24.17.41.28.57.45.08.07.11.13.11.18,0,.07-.04.13-.14.15-.14.04-.24.11-.42.29-.29.29-.66.62-1.13.99.69.73,1.53,1.36,2.62,1.95-.17.13-.32.28-.45.48-.07.13-.11.17-.17.17-.04,0-.1-.03-.2-.1-1.82-1.19-2.89-2.44-3.61-4.12.03,1.47.06,2.84.06,3.66,0,.53-.08.8-.36.99-.2.15-.53.22-1.42.24-.28,0-.31,0-.36-.28-.04-.21-.14-.42-.25-.59.36.04.57.06.92.06.56,0,.66-.1.66-.55v-1.61c-.92.6-1.91,1.16-2.77,1.62-.28.14-.45.24-.5.31-.04.06-.1.11-.15.11-.04,0-.08-.04-.13-.13-.11-.2-.24-.46-.36-.74.31-.08.56-.17.81-.29.92-.43,1.97-.97,3.11-1.69v-2.05h-1.3c-1.39,0-1.86.03-1.93.03-.08,0-.1-.01-.1-.11v-.55c0-.1.01-.11.1-.11.07,0,.55.03,1.93.03h1.3v-1.26h-.8c-1.27,0-1.69.03-1.76.03-.1,0-.11-.01-.11-.11v-.52c0-.1.01-.11.11-.11.07,0,.49.03,1.76.03h.8v-1.2h-1c-1.34,0-1.79.03-1.88.03-.1,0-.11-.01-.11-.1v-.55c0-.1.01-.11.11-.11.08,0,.53.03,1.88.03h2.09c.27-.43.56-.99.76-1.43.08-.2.14-.36.18-.59.27.06.49.13.73.21.1.03.17.08.17.15s-.07.13-.14.18c-.08.06-.14.15-.2.27-.17.34-.45.81-.7,1.2h.46c1.33,0,1.78-.03,1.85-.03.11,0,.13.01.13.11v.55c0,.08-.01.1-.13.1-.07,0-.52-.03-1.85-.03h-1.57v1.2h1.18c1.27,0,1.68-.03,1.75-.03.1,0,.11.01.11.11v.52c0,.1-.01.11-.11.11-.07,0-.48-.03-1.75-.03h-1.18v1.26h1.95c1.39,0,1.85-.03,1.93-.03.1,0,.11.01.11.11v.55c0,.1-.01.11-.11.11-.08,0-.55-.03-1.93-.03h-1.81ZM170.87,47.46c.13-.11.15-.13.22-.06.39.31.85.74,1.23,1.25.07.07.07.1-.04.21l-.29.28c-.15.15-.18.14-.24.06-.34-.48-.71-.92-1.18-1.3-.08-.07-.07-.08.06-.21l.24-.22ZM172,40.49c.13-.06.15-.06.22.03.32.38.62.81.83,1.22.03.07.03.1-.08.17l-.41.22c-.17.1-.2.1-.24-.01-.2-.45-.45-.88-.78-1.26-.07-.07-.07-.1.1-.18l.36-.18Z"/><path class="cls-1" d="M185.15,42.42c.11-.49.14-.84.13-1.34.43.11.73.21,1.09.38.15.07.2.24.06.36-.11.11-.17.22-.24.46-.21.69-.39,1.34-.6,2.03.45-.06,1.02-.1,1.36-.1,1.22,0,1.82.62,1.82,2.3,0,1.81-.31,3.47-.77,4.48-.35.77-.91,1.11-1.6,1.11-.57,0-1.08-.1-1.43-.25-.11-.04-.17-.11-.17-.24-.01-.24-.04-.55-.17-.84.62.27,1.13.39,1.62.39.41,0,.67-.14.94-.73.35-.8.63-2.21.63-3.94,0-1.09-.21-1.48-.97-1.48-.43,0-1.02.07-1.51.15-.81,2.42-1.72,4.61-2.86,6.63-.06.1-.14.11-.24.07-.14-.07-.41-.25-.56-.38-.08-.07-.07-.14-.03-.22,1.18-1.98,2-3.91,2.69-5.97-.57.08-1.15.18-1.85.31-.25.04-.5.11-.62.18-.15.1-.28.1-.36-.07-.11-.24-.22-.56-.32-.95.5.01,1.05-.01,1.46-.07.77-.08,1.32-.17,1.98-.27.18-.66.34-1.22.52-2ZM190.22,43.57c.08-.03.14-.01.21.06.98.84,1.79,2.06,2.25,3.39.03.1.04.17-.04.24-.14.13-.41.29-.57.38-.11.07-.21.06-.24-.08-.48-1.43-1.18-2.62-2.24-3.54.2-.15.42-.31.63-.43ZM190.51,41.41c.06-.04.08-.03.14.01.56.39,1.18,1.08,1.58,1.7.04.06.03.11-.03.15l-.41.34c-.07.06-.14.04-.18-.03-.41-.69-.99-1.34-1.62-1.79l.52-.38ZM191.67,40.5c.06-.04.1-.06.15-.01.56.43,1.19,1.05,1.6,1.64.04.07.03.11-.04.17l-.38.34c-.06.06-.11.06-.17-.03-.35-.57-.95-1.26-1.61-1.75l.45-.35Z"/><path class="cls-1" d="M203.21,51.16c0,.38.13.49.38.55.22.06.66.07,1.33.07.77,0,1.29-.07,1.49-.22.31-.21.39-.66.42-1.53.15.13.35.24.57.34.24.1.25.13.22.36-.1.9-.25,1.2-.63,1.47-.34.27-1.04.38-2.12.38-.9,0-1.51-.04-1.89-.14-.31-.1-.62-.28-.62-.88v-2.94h-1.67c-.27,2.49-1.74,3.96-4.31,4.24-.28.03-.29.01-.42-.22-.11-.21-.25-.39-.43-.52,2.62-.11,4.09-1.29,4.27-3.5h-.17c-1.37,0-1.82.03-1.91.03-.1,0-.11-.01-.11-.11,0-.08.03-.55.03-1.72v-3.99c0-1.2-.03-1.65-.03-1.74,0-.1.01-.11.11-.11.08,0,.55.03,1.92.03h3.89c1.37,0,1.85-.03,1.92-.03.1,0,.11.01.11.11,0,.08-.03.53-.03,1.74v3.99c0,1.18.03,1.65.03,1.72,0,.1-.01.11-.11.11-.07,0-.55-.03-1.92-.03h-.34v2.55ZM204.71,41.75h-6.22v1.53h6.22v-1.53ZM204.71,44h-6.22v1.51h6.22v-1.51ZM204.71,46.24h-6.22v1.61h6.22v-1.61Z"/><path class="cls-1" d="M212.85,44.02c1.88-.69,3.6-1.06,4.75-1.06,2.33,0,3.75,1.37,3.75,3.45,0,1.74-.8,2.84-2.3,3.66-1.09.6-2.37.95-3.75,1.19-.2.03-.27-.04-.35-.17-.14-.22-.34-.48-.62-.66,1.81-.21,2.97-.57,3.96-1.09,1.28-.66,2-1.57,2-2.97,0-1.55-1.09-2.55-2.82-2.55-1.29,0-3.01.55-5.27,1.5-.53.22-.83.39-.95.49-.14.1-.21.13-.27.13-.1,0-.17-.06-.27-.17-.17-.21-.43-.62-.6-.97.48-.06,1.16-.2,2.72-.77Z"/><path class="cls-1" d="M228.94,42.34c.11-.49.14-.84.13-1.34.43.11.73.21,1.09.38.15.07.2.24.06.36-.11.11-.17.22-.24.46-.21.69-.39,1.34-.6,2.03.45-.06,1.02-.1,1.36-.1,1.22,0,1.82.62,1.82,2.26,0,1.85-.31,3.52-.77,4.52-.35.77-.91,1.11-1.6,1.11-.57,0-1.08-.1-1.43-.25-.11-.04-.17-.11-.17-.24-.01-.24-.04-.55-.17-.84.62.27,1.13.39,1.62.39.41,0,.67-.14.94-.73.35-.8.63-2.21.63-3.94,0-1.09-.21-1.48-.97-1.48-.43,0-1.02.07-1.51.15-.81,2.42-1.72,4.61-2.86,6.63-.06.1-.14.11-.24.07-.14-.07-.41-.25-.56-.38-.08-.07-.07-.14-.03-.22,1.18-1.98,2-3.91,2.69-5.97-.57.08-1.15.18-1.85.31-.25.04-.5.11-.62.18-.15.1-.28.1-.36-.07-.11-.24-.22-.56-.32-.95.5.01,1.05-.01,1.46-.07.77-.08,1.32-.17,1.98-.27.18-.66.34-1.22.52-2ZM234.08,43.49c.08-.03.14-.01.21.06.98.84,1.79,2.06,2.25,3.39.03.1.04.17-.04.24-.14.13-.41.29-.57.38-.11.07-.21.06-.24-.08-.48-1.43-1.18-2.62-2.24-3.54.2-.15.42-.31.63-.43Z"/><path class="cls-1" d="M241.38,44.16c.17.1.18.22.08.35-.1.14-.15.36-.21.66-.18.95-.36,2.27-.41,3.21,1.47-1.67,3.21-2.52,4.89-2.52,1.91,0,3.01,1.09,3.01,2.68,0,1.41-.78,2.33-2.1,2.98-1.09.55-2.33.8-3.4.92-.22.03-.29.03-.36-.13-.15-.25-.35-.49-.63-.69,1.43-.11,2.7-.36,3.81-.87,1.09-.5,1.68-1.29,1.68-2.31s-.63-1.76-2.12-1.76c-1.33,0-2.86.84-4.16,2.19-.32.34-.46.55-.62.83-.07.11-.11.11-.22.07-.2-.07-.41-.17-.57-.25-.08-.04-.11-.07-.11-.2.04-1.57.22-3.03.41-4.4.06-.41.11-.77.11-1.16.35.11.73.28.92.41ZM242.05,40.75c.06-.06.1-.08.2-.04.92.38,1.75.85,2.56,1.6.08.07.08.1.03.2-.11.18-.29.42-.46.6-.07.08-.14.08-.22,0-.73-.69-1.58-1.26-2.59-1.71.17-.27.35-.5.49-.64Z"/><path class="cls-1" d="M258.06,42.98c.13-.03.17,0,.18.08.03.17.06.42.07.6.01.13-.01.15-.13.17-.76.15-1.51.28-2.34.41-.81,2.2-1.82,4.31-2.82,5.91-.07.11-.14.1-.22.04-.21-.13-.43-.29-.56-.42-.08-.07-.08-.13-.01-.24,1.16-1.75,1.96-3.4,2.63-5.21-.6.06-1.16.1-1.76.1-.21,0-.42,0-.74-.03-.13-.01-.14-.03-.17-.17-.04-.18-.07-.43-.08-.7.45.04.81.06,1.11.06.64,0,1.22-.04,1.91-.11.17-.53.29-1.05.42-1.64.08-.41.13-.69.11-1.09.41.07.81.17,1.09.28.08.03.13.08.13.15s-.03.13-.11.21c-.07.08-.11.18-.2.43-.15.5-.31,1.02-.45,1.51.63-.08,1.23-.18,1.95-.35ZM258.91,46.37c0-.28-.01-.53-.08-.9.38.04.66.08.95.18.1.03.15.08.15.17,0,.06-.03.13-.08.25-.06.15-.06.38-.06.66,0,.84.07,1.68.17,2.58,1.02.41,1.81.81,2.65,1.4.11.07.1.11.06.22-.07.18-.22.43-.34.62-.07.1-.14.08-.22.01-.63-.56-1.39-.99-2.13-1.33.01,1.41-.7,2.19-2.51,2.19-1.06,0-2.17-.55-2.17-1.71,0-1.05,1.01-1.76,2.38-1.76.42,0,.97.07,1.4.17-.08-.87-.15-1.99-.17-2.75ZM257.72,49.72c-1.12,0-1.62.43-1.62.95,0,.64.52.94,1.44.94,1.15,0,1.57-.6,1.57-1.32,0-.18,0-.27-.01-.34-.43-.14-.92-.24-1.37-.24ZM260.1,43.44c.07-.11.11-.13.24-.08.94.29,1.95.74,2.75,1.32.1.08.1.14.03.25-.08.18-.21.41-.32.56-.07.1-.11.08-.2.03-.81-.62-1.85-1.12-2.86-1.43.14-.24.25-.48.36-.64Z"/><path class="cls-1" d="M268,42.64c.08.04.13.1.13.15,0,.07-.03.15-.06.25-.06.17-.11.56-.11,1.29,0,.9.01,1.75.2,3.18.21,1.65.81,2.86,1.49,2.86.56,0,1.09-.9,1.5-2.2.15.36.28.53.46.7.11.1.15.21.11.35-.39,1.13-1.15,2.2-2.09,2.2-1.18,0-2.06-1.62-2.37-3.82-.2-1.4-.25-2.98-.25-3.91,0-.53-.01-.87-.11-1.34.39.04.84.17,1.11.29ZM274.68,43.72c.08-.04.15-.06.21,0,1.43,1.25,2.38,2.97,2.73,4.85.01.1-.03.14-.1.18-.21.14-.41.24-.64.32-.1.03-.17-.01-.18-.11-.39-2.14-1.27-3.63-2.63-4.86.27-.18.48-.31.62-.38Z"/><path class="cls-1" d="M283.02,48.33c.52-.24,1.02-.5,1.53-.8-.03.14-.03.34-.04.53q0,.29-.24.42c-.87.49-1.95.99-2.87,1.37-.29.13-.46.2-.5.24-.06.06-.11.08-.18.08-.06,0-.1-.04-.15-.14-.11-.21-.21-.49-.28-.77.39-.07.81-.18,1.33-.36.2-.07.39-.14.59-.22v-3.84h-.38c-.95,0-1.23.03-1.3.03-.1,0-.11-.01-.11-.11v-.59c0-.1.01-.11.11-.11.07,0,.35.03,1.3.03h.38v-1.64c0-.99-.01-1.37-.1-1.92.36.01.66.04.91.07.1.01.17.06.17.13s-.04.14-.07.25c-.06.15-.08.5-.08,1.44v1.67h.1c.95,0,1.23-.03,1.3-.03.08,0,.1.01.1.11v.59c0,.1-.01.11-.1.11-.07,0-.35-.03-1.3-.03h-.1v3.49ZM292.92,46.45c0,.1-.01.11-.11.11-.07,0-.55-.03-1.95-.03h-4.22c.21.06.38.13.52.17.1.04.14.1.14.15,0,.07-.04.11-.1.15-.08.06-.15.13-.25.28l-.21.31h3.85c1.23,0,1.65-.03,1.72-.03.11,0,.14.03.14.14l-.13,1.4c-.08.95-.18,1.74-.36,2.42-.21.8-.6,1.12-1.37,1.12-.32,0-.56,0-.88-.03-.22-.01-.22-.03-.29-.31-.06-.21-.14-.41-.24-.57.55.1.95.11,1.34.11.32,0,.55-.11.67-.67.13-.53.28-1.44.38-2.9h-.98c-.76,1.88-1.89,3.24-3.61,4.31-.1.07-.15.1-.21.1s-.11-.04-.22-.17c-.11-.13-.27-.25-.42-.32,1.76-.99,2.96-2.2,3.64-3.92h-1.25c-.92,1.53-1.99,2.54-3.45,3.43-.11.06-.17.1-.22.1s-.11-.06-.21-.17c-.11-.13-.27-.25-.41-.31,1.47-.83,2.61-1.77,3.4-3.05h-1.4c-.62.76-1.39,1.46-2.21,1.99-.11.07-.17.11-.22.11s-.1-.06-.2-.17c-.13-.13-.29-.25-.45-.34,1.27-.7,2.23-1.62,2.9-2.59.17-.24.28-.5.35-.76h-.06c-1.4,0-1.86.03-1.95.03-.1,0-.11-.01-.11-.11v-.55c0-.1.01-.11.11-.11.08,0,.55.03,1.95.03h4.51c1.4,0,1.88-.03,1.95-.03.1,0,.11.01.11.11v.55ZM291.42,43.67c0,.84.03,1.13.03,1.2,0,.1-.01.11-.11.11-.08,0-.48-.03-1.67-.03h-2.28c-1.2,0-1.6.03-1.67.03-.1,0-.11-.01-.11-.11,0-.08.03-.36.03-1.2v-1.51c0-.84-.03-1.13-.03-1.22,0-.1.01-.11.11-.11.07,0,.46.03,1.67.03h2.28c1.19,0,1.58-.03,1.67-.03.1,0,.11.01.11.11,0,.08-.03.38-.03,1.22v1.51ZM290.64,41.51h-4.22v1.06h4.22v-1.06ZM290.64,43.21h-4.22v1.09h4.22v-1.09Z"/><path class="cls-1" d="M301.71,40.74c1.7,2.35,3.85,3.87,6.28,4.76-.15.15-.29.35-.39.56-.07.15-.11.22-.18.22-.06,0-.13-.03-.22-.08-2.42-1.02-4.48-2.72-5.93-4.82-1.5,2.19-3.4,3.71-5.7,4.9-.11.06-.17.08-.21.08-.07,0-.1-.06-.18-.2-.13-.21-.27-.36-.43-.5,2.72-1.2,4.62-2.97,5.74-4.73.21-.32.29-.5.39-.8.34.06.63.11.87.17.14.04.2.08.2.15s-.03.11-.1.17l-.13.11ZM305.31,50.25c0,2.02.03,2.34.03,2.41,0,.1-.01.11-.13.11h-.66c-.1,0-.11-.01-.11-.11v-.57h-6.22v.64c0,.08-.01.1-.11.1h-.67c-.1,0-.11-.01-.11-.1s.03-.41.03-2.44v-1.13c0-1.15-.03-1.5-.03-1.57,0-.1.01-.11.11-.11.08,0,.56.03,1.93.03h3.92c1.37,0,1.85-.03,1.92-.03.11,0,.13.01.13.11,0,.07-.03.42-.03,1.37v1.29ZM304.44,48.26h-6.22v3.07h6.22v-3.07ZM304.19,45.6c0,.1-.01.11-.11.11-.07,0-.46-.03-1.64-.03h-2.24c-1.18,0-1.55.03-1.64.03-.1,0-.11-.01-.11-.11v-.6c0-.1.01-.11.11-.11.08,0,.46.03,1.64.03h2.24c1.18,0,1.57-.03,1.64-.03.1,0,.11.01.11.11v.6Z"/><path class="cls-1" d="M310.15,49.79c.06-.06.11-.08.15-.08s.08.03.15.08c1.02.64,1.88,1.43,2.69,2.52.06.08.07.13.07.17,0,.06-.01.1-.1.17l-.5.42c-.07.06-.11.08-.14.08-.06,0-.1-.01-.15-.11-.73-1.05-1.62-1.98-2.58-2.62-.07-.04-.1-.07-.1-.1,0-.04.01-.07.07-.14l.43-.39Z"/><path class="cls-1" d="M78.72,66.56c0-.6-.04-.99-.11-1.32.43.04.9.13,1.12.21.11.04.17.11.17.21,0,.06-.03.11-.07.18-.07.14-.15.31-.17.71-.03.38-.04.77-.06,1.22.7-.14,1.39-.34,2.06-.59.11-.04.17-.03.18.1.03.2.06.39.06.59,0,.13-.04.14-.15.18-.73.25-1.34.42-2.18.57-.03.91-.03,1.83-.01,2.76,1.33-.64,2.49-1.06,3.66-1.06,1.72,0,2.75,1.06,2.75,2.48,0,1.69-1.15,2.58-2.91,2.58-.38,0-.8-.06-1.12-.17-.14-.04-.18-.14-.2-.36-.03-.18-.08-.39-.22-.64.52.24,1.04.29,1.5.29,1.12,0,1.97-.56,1.97-1.72,0-1.02-.69-1.69-1.93-1.69-.83,0-1.93.36-3.49,1.18,0,.5.03,1.27.07,2.14.03.66.08,1.11.08,1.33,0,.2-.01.28-.15.32-.17.04-.43.1-.59.1-.13,0-.2-.14-.53-.5-.5-.55-1.21-1.04-2.03-1.57-.21.13-.35.22-.48.31-.07.06-.13.1-.2.1-.08,0-.14-.06-.21-.15-.13-.18-.28-.49-.43-.85.39-.1.81-.22,1.36-.49.62-.29,1.42-.74,2.27-1.23-.01-.99-.01-2.03-.01-3-.94.11-1.58.15-2.56.15-.18,0-.24-.07-.27-.21-.04-.17-.07-.39-.08-.66.85.04,1.82.01,2.91-.11.01-.5.03-.9.03-1.37ZM76.91,73.73c.67.39,1.15.69,1.74,1.01.1.06.14.03.14-.1-.03-.6-.04-1.22-.08-1.99-.64.36-1.12.67-1.79,1.08ZM83.76,66.94c.06-.1.1-.13.2-.11,1.09.22,2.09.7,2.77,1.47.06.07.06.11,0,.18-.11.17-.29.42-.45.57-.07.07-.13.06-.18,0-.74-.78-1.58-1.3-2.68-1.53.1-.21.21-.39.34-.59Z"/><path class="cls-1" d="M93.4,70.97c0,3.5.03,4.08.03,4.15,0,.1-.01.11-.11.11h-.57c-.1,0-.11-.01-.11-.11v-.7h-1.82v1.16c0,.1-.01.11-.11.11h-.59c-.1,0-.11-.01-.11-.11,0-.07.03-.7.03-4.31v-2.76c0-2.56-.03-3.21-.03-3.28,0-.1.01-.11.11-.11.08,0,.32.03,1.12.03h.97c.8,0,1.04-.03,1.12-.03.1,0,.11.01.11.11,0,.07-.03.67-.03,2.83v2.91ZM92.63,65.89h-1.82v3.43h1.82v-3.43ZM92.63,70.05h-1.82v3.63h1.82v-3.63ZM101.92,69.4c0,.1-.01.11-.11.11-.08,0-.55-.03-1.93-.03h-3.98c-1.37,0-1.83.03-1.92.03-.1,0-.11-.01-.11-.11v-.57c0-.1.01-.11.11-.11.08,0,.55.03,1.92.03h1.3v-1.86h-.87c-1.29,0-1.72.03-1.79.03-.11,0-.13-.01-.13-.11v-.56c0-.11.01-.13.13-.13.07,0,.5.03,1.79.03h.87c0-.95-.01-1.3-.1-1.79.38.01.62.03.91.07.1.01.17.06.17.13s-.04.15-.07.25c-.06.15-.08.48-.08,1.34h1.28c1.29,0,1.71-.03,1.79-.03.1,0,.11.01.11.13v.56c0,.1-.01.11-.11.11-.08,0-.5-.03-1.79-.03h-1.28v1.86h1.85c1.39,0,1.85-.03,1.93-.03.1,0,.11.01.11.11v.57ZM101.75,71.9c0,.1-.01.11-.11.11-.07,0-.5-.03-1.68-.03v1.91c0,.63.01,1.23.01,1.79,0,.41-.08.73-.39.94-.24.17-.62.24-1.62.24-.27,0-.28,0-.35-.27s-.15-.45-.28-.63c.42.04.85.06,1.32.06.29,0,.49-.13.49-.52v-3.52h-3.17c-1.37,0-1.83.03-1.91.03-.1,0-.11-.01-.11-.11v-.57c0-.1.01-.1.11-.1.07,0,.53.01,1.91.01h3.17v-.03c0-.77-.03-1.15-.1-1.48.36.01.66.06.9.1.11.01.18.07.18.11,0,.1-.04.15-.08.24-.06.14-.07.35-.07.99v.07c1.16,0,1.61-.01,1.68-.01.1,0,.11,0,.11.1v.57ZM95.57,72.79c.11-.07.14-.08.22-.01.53.5.99,1.05,1.39,1.69.06.08.04.13-.07.21l-.38.25c-.14.1-.18.13-.24.03-.41-.7-.84-1.25-1.34-1.75-.08-.08-.06-.13.08-.21l.34-.21Z"/><path class="cls-1" d="M109.52,67.74c0,.87.03,1.22.03,1.29,0,.1-.01.11-.11.11-.07,0-.42-.03-1.4-.03h-2.48v4.69c0,2,.03,2.83.03,2.91,0,.1-.01.11-.11.11h-.66c-.1,0-.11-.01-.11-.11,0-.08.03-.91.03-2.91v-5.93c0-2-.03-2.86-.03-2.94,0-.1.01-.11.11-.11.08,0,.55.03,1.58.03h1.64c.98,0,1.33-.03,1.4-.03.1,0,.11.01.11.11,0,.08-.03.43-.03,1.29v1.51ZM108.72,65.54h-3.17v1.09h3.17v-1.09ZM108.72,67.3h-3.17v1.13h3.17v-1.13ZM112.59,73.07c0,2.02.03,2.35.03,2.42,0,.1-.01.11-.11.11h-.57c-.1,0-.11-.01-.11-.11v-.59h-3.17v.73c0,.11-.01.13-.11.13h-.58c-.1,0-.11-.01-.11-.13,0-.07.03-.41.03-2.47v-1.18c0-1.18-.03-1.54-.03-1.62,0-.1.01-.11.11-.11.08,0,.41.03,1.46.03h1.62c1.04,0,1.37-.03,1.46-.03.1,0,.11.01.11.11,0,.07-.03.43-.03,1.41v1.29ZM111.82,70.96h-3.17v1.27h3.17v-1.27ZM111.82,72.89h-3.17v1.34h3.17v-1.34ZM115.88,73.3c0,.74.04,1.47.04,2,0,.62-.1.85-.36,1.06-.27.22-.63.28-1.75.28q-.25,0-.32-.27c-.07-.27-.14-.43-.25-.62.36.04.69.06,1.08.06.62,0,.74-.11.74-.67v-6.04h-2.55c-1.09,0-1.44.03-1.51.03-.11,0-.13-.01-.13-.11,0-.07.03-.34.03-1.2v-1.68c0-.85-.03-1.12-.03-1.2,0-.1.01-.11.13-.11.07,0,.42.03,1.51.03h1.78c1.08,0,1.44-.03,1.51-.03.1,0,.11.01.11.11,0,.08-.03.64-.03,2v6.36ZM115.05,65.54h-3.36v1.09h3.36v-1.09ZM115.05,67.3h-3.36v1.13h3.36v-1.13Z"/><path class="cls-1" d="M123.21,66.42c.11-.49.14-.84.13-1.34.43.11.73.21,1.09.38.15.07.2.24.06.36-.11.11-.17.22-.24.46-.21.69-.39,1.34-.6,2.03.45-.06,1.02-.1,1.36-.1,1.22,0,1.82.62,1.82,2.3,0,1.81-.31,3.47-.77,4.48-.35.77-.91,1.11-1.6,1.11-.57,0-1.08-.1-1.43-.25-.11-.04-.17-.11-.17-.24-.01-.24-.04-.55-.17-.84.62.27,1.13.39,1.62.39.41,0,.67-.14.94-.73.35-.8.63-2.21.63-3.94,0-1.09-.21-1.48-.97-1.48-.43,0-1.02.07-1.51.15-.81,2.42-1.72,4.61-2.86,6.63-.06.1-.14.11-.24.07-.14-.07-.41-.25-.56-.38-.08-.07-.07-.14-.03-.22,1.18-1.98,2-3.91,2.69-5.97-.57.08-1.15.18-1.85.31-.25.04-.5.11-.62.18-.15.1-.28.1-.36-.07-.11-.24-.22-.56-.32-.95.5.01,1.05-.01,1.46-.07.77-.08,1.32-.17,1.98-.27.18-.66.34-1.22.52-2ZM128.28,67.57c.08-.03.14-.01.21.06.98.84,1.79,2.06,2.25,3.39.03.1.04.17-.04.24-.14.13-.41.29-.57.38-.11.07-.21.06-.24-.08-.48-1.43-1.18-2.62-2.24-3.54.2-.15.42-.31.63-.43ZM128.58,65.41c.06-.04.08-.03.14.01.56.39,1.18,1.08,1.58,1.7.04.06.03.11-.03.15l-.41.34c-.07.06-.14.04-.18-.03-.41-.69-.99-1.34-1.62-1.79l.52-.38ZM129.74,64.5c.06-.04.1-.06.15-.01.56.43,1.19,1.05,1.6,1.64.04.07.03.11-.04.17l-.38.34c-.06.06-.11.06-.17-.03-.35-.57-.95-1.26-1.61-1.75l.45-.35Z"/><path class="cls-1" d="M137.87,66.34c.11-.49.14-.84.13-1.34.43.11.73.21,1.09.38.15.07.2.24.06.36-.11.11-.17.22-.24.46-.21.69-.39,1.34-.6,2.03.45-.06,1.02-.1,1.36-.1,1.22,0,1.82.62,1.82,2.26,0,1.85-.31,3.52-.77,4.52-.35.77-.91,1.11-1.6,1.11-.57,0-1.08-.1-1.43-.25-.11-.04-.17-.11-.17-.24-.01-.24-.04-.55-.17-.84.62.27,1.13.39,1.62.39.41,0,.67-.14.94-.73.35-.8.63-2.21.63-3.94,0-1.09-.21-1.48-.97-1.48-.43,0-1.02.07-1.51.15-.81,2.42-1.72,4.61-2.86,6.63-.06.1-.14.11-.24.07-.14-.07-.41-.25-.56-.38-.08-.07-.07-.14-.03-.22,1.18-1.98,2-3.91,2.69-5.97-.57.08-1.15.18-1.85.31-.25.04-.5.11-.62.18-.15.1-.28.1-.36-.07-.11-.24-.22-.56-.32-.95.5.01,1.05-.01,1.46-.07.77-.08,1.32-.17,1.98-.27.18-.66.34-1.22.52-2ZM143.01,67.49c.08-.03.14-.01.21.06.98.84,1.79,2.06,2.25,3.39.03.1.04.17-.04.24-.14.13-.41.29-.57.38-.11.07-.21.06-.24-.08-.48-1.43-1.18-2.62-2.24-3.54.2-.15.42-.31.63-.43Z"/><path class="cls-1" d="M152.4,66.34c.11-.49.14-.84.13-1.34.43.11.73.21,1.09.38.15.07.2.24.06.36-.11.11-.17.22-.24.46-.21.69-.39,1.34-.6,2.03.45-.06,1.02-.1,1.36-.1,1.22,0,1.82.62,1.82,2.26,0,1.85-.31,3.52-.77,4.52-.35.77-.91,1.11-1.6,1.11-.57,0-1.08-.1-1.43-.25-.11-.04-.17-.11-.17-.24-.01-.24-.04-.55-.17-.84.62.27,1.13.39,1.62.39.41,0,.67-.14.94-.73.35-.8.63-2.21.63-3.94,0-1.09-.21-1.48-.97-1.48-.43,0-1.02.07-1.51.15-.81,2.42-1.72,4.61-2.86,6.63-.06.1-.14.11-.24.07-.14-.07-.41-.25-.56-.38-.08-.07-.07-.14-.03-.22,1.18-1.98,2-3.91,2.69-5.97-.57.08-1.15.18-1.85.31-.25.04-.5.11-.62.18-.15.1-.28.1-.36-.07-.11-.24-.22-.56-.32-.95.5.01,1.05-.01,1.46-.07.77-.08,1.32-.17,1.98-.27.18-.66.34-1.22.52-2ZM157.54,67.49c.08-.03.14-.01.21.06.98.84,1.79,2.06,2.25,3.39.03.1.04.17-.04.24-.14.13-.41.29-.57.38-.11.07-.21.06-.24-.08-.48-1.43-1.18-2.62-2.24-3.54.2-.15.42-.31.63-.43Z"/><path class="cls-1" d="M165.92,70.66c1.01-.66,2-.99,3.01-.99,2.02,0,3.26,1.25,3.26,3.07,0,2.09-1.65,3.6-4.62,3.6-1.68,0-2.44-.76-2.44-1.65,0-.73.64-1.43,1.64-1.43,1.26,0,2.12.81,2.38,2,1.2-.39,2.04-1.18,2.04-2.55s-1.09-2.3-2.42-2.3-2.77.71-3.85,1.58c-.45.35-.81.73-1.23,1.15-.11.11-.18.13-.28.03-.17-.17-.38-.38-.52-.56-.06-.07-.04-.13.06-.21,1.11-.97,1.82-1.68,3.17-3.12.81-.88,1.65-1.78,2.73-3.05-1.16.18-2.25.39-3.5.63-.18.03-.35.07-.49.13-.1.04-.21.07-.27.07-.1,0-.17-.06-.22-.17-.13-.25-.22-.52-.34-.97.46.06.85.06,1.23.01,1.11-.11,2.25-.27,3.49-.5.17-.03.34-.07.43-.13.06-.04.14-.1.2-.1.07,0,.14.03.25.11.27.21.48.42.6.59.07.08.1.17.1.24,0,.11-.07.21-.21.27-.18.06-.34.15-.66.49-1.25,1.32-2.18,2.3-3.59,3.73l.04.04ZM166.81,74.01c-.45,0-.85.22-.85.66,0,.46.5.85,1.44.85.31,0,.59-.01.91-.07-.18-.8-.7-1.44-1.5-1.44Z"/><path class="cls-1" d="M177.86,72.33c.52-.24,1.02-.5,1.53-.8-.03.14-.03.34-.04.53q0,.29-.24.42c-.87.49-1.95.99-2.87,1.37-.29.13-.46.2-.5.24-.06.06-.11.08-.18.08-.06,0-.1-.04-.15-.14-.11-.21-.21-.49-.28-.77.39-.07.81-.18,1.33-.36.2-.07.39-.14.59-.22v-3.84h-.38c-.95,0-1.23.03-1.3.03-.1,0-.11-.01-.11-.11v-.59c0-.1.01-.11.11-.11.07,0,.35.03,1.3.03h.38v-1.64c0-.99-.01-1.37-.1-1.92.36.01.66.04.91.07.1.01.17.06.17.13s-.04.14-.07.25c-.06.15-.08.5-.08,1.44v1.67h.1c.95,0,1.23-.03,1.3-.03.08,0,.1.01.1.11v.59c0,.1-.01.11-.1.11-.07,0-.35-.03-1.3-.03h-.1v3.49ZM187.77,70.45c0,.1-.01.11-.11.11-.07,0-.55-.03-1.95-.03h-4.22c.21.06.38.13.52.17.1.04.14.1.14.15,0,.07-.04.11-.1.15-.08.06-.15.13-.25.28l-.21.31h3.85c1.23,0,1.65-.03,1.72-.03.11,0,.14.03.14.14l-.13,1.4c-.08.95-.18,1.74-.36,2.42-.21.8-.6,1.12-1.37,1.12-.32,0-.56,0-.88-.03-.22-.01-.22-.03-.29-.31-.06-.21-.14-.41-.24-.57.55.1.95.11,1.34.11.32,0,.55-.11.67-.67.13-.53.28-1.44.38-2.9h-.98c-.76,1.88-1.89,3.24-3.61,4.31-.1.07-.15.1-.21.1s-.11-.04-.22-.17c-.11-.13-.27-.25-.42-.32,1.76-.99,2.96-2.2,3.64-3.92h-1.25c-.92,1.53-1.99,2.54-3.45,3.43-.11.06-.17.1-.22.1s-.11-.06-.21-.17c-.11-.13-.27-.25-.41-.31,1.47-.83,2.61-1.77,3.4-3.05h-1.4c-.62.76-1.39,1.46-2.21,1.99-.11.07-.17.11-.22.11s-.1-.06-.2-.17c-.13-.13-.29-.25-.45-.34,1.27-.7,2.23-1.62,2.9-2.59.17-.24.28-.5.35-.76h-.06c-1.4,0-1.86.03-1.95.03-.1,0-.11-.01-.11-.11v-.55c0-.1.01-.11.11-.11.08,0,.55.03,1.95.03h4.51c1.4,0,1.88-.03,1.95-.03.1,0,.11.01.11.11v.55ZM186.27,67.67c0,.84.03,1.13.03,1.2,0,.1-.01.11-.11.11-.08,0-.48-.03-1.67-.03h-2.28c-1.2,0-1.6.03-1.67.03-.1,0-.11-.01-.11-.11,0-.08.03-.36.03-1.2v-1.51c0-.84-.03-1.13-.03-1.22,0-.1.01-.11.11-.11.07,0,.46.03,1.67.03h2.28c1.19,0,1.58-.03,1.67-.03.1,0,.11.01.11.11,0,.08-.03.38-.03,1.22v1.51ZM185.48,65.51h-4.22v1.06h4.22v-1.06ZM185.48,67.21h-4.22v1.09h4.22v-1.09Z"/><path class="cls-1" d="M196.56,64.74c1.7,2.35,3.85,3.87,6.28,4.76-.15.15-.29.35-.39.56-.07.15-.11.22-.18.22-.06,0-.13-.03-.22-.08-2.42-1.02-4.48-2.72-5.93-4.82-1.5,2.19-3.4,3.71-5.7,4.9-.11.06-.17.08-.21.08-.07,0-.1-.06-.18-.2-.13-.21-.27-.36-.43-.5,2.72-1.2,4.62-2.97,5.74-4.73.21-.32.29-.5.39-.8.34.06.63.11.87.17.14.04.2.08.2.15s-.03.11-.1.17l-.13.11ZM200.16,74.25c0,2.02.03,2.34.03,2.41,0,.1-.01.11-.13.11h-.66c-.1,0-.11-.01-.11-.11v-.57h-6.22v.64c0,.08-.01.1-.11.1h-.67c-.1,0-.11-.01-.11-.1s.03-.41.03-2.44v-1.13c0-1.15-.03-1.5-.03-1.57,0-.1.01-.11.11-.11.08,0,.56.03,1.93.03h3.92c1.37,0,1.85-.03,1.92-.03.11,0,.13.01.13.11,0,.07-.03.42-.03,1.37v1.29ZM199.29,72.26h-6.22v3.07h6.22v-3.07ZM199.04,69.6c0,.1-.01.11-.11.11-.07,0-.46-.03-1.64-.03h-2.24c-1.18,0-1.55.03-1.64.03-.1,0-.11-.01-.11-.11v-.6c0-.1.01-.11.11-.11.08,0,.46.03,1.64.03h2.24c1.18,0,1.57-.03,1.64-.03.1,0,.11.01.11.11v.6Z"/><path class="cls-1" d="M209.04,66.42c.11-.49.14-.84.13-1.34.43.11.73.21,1.09.38.15.07.2.24.06.36-.11.11-.17.22-.24.46-.21.69-.39,1.34-.6,2.03.45-.06,1.02-.1,1.36-.1,1.22,0,1.82.62,1.82,2.3,0,1.81-.31,3.47-.77,4.48-.35.77-.91,1.11-1.6,1.11-.57,0-1.08-.1-1.43-.25-.11-.04-.17-.11-.17-.24-.01-.24-.04-.55-.17-.84.62.27,1.13.39,1.62.39.41,0,.67-.14.94-.73.35-.8.63-2.21.63-3.94,0-1.09-.21-1.48-.97-1.48-.43,0-1.02.07-1.51.15-.81,2.42-1.72,4.61-2.86,6.63-.06.1-.14.11-.24.07-.14-.07-.41-.25-.56-.38-.08-.07-.07-.14-.03-.22,1.18-1.98,2-3.91,2.69-5.97-.57.08-1.15.18-1.85.31-.25.04-.5.11-.62.18-.15.1-.28.1-.36-.07-.11-.24-.22-.56-.32-.95.5.01,1.05-.01,1.46-.07.77-.08,1.32-.17,1.98-.27.18-.66.34-1.22.52-2ZM214.12,67.57c.08-.03.14-.01.21.06.98.84,1.79,2.06,2.25,3.39.03.1.04.17-.04.24-.14.13-.41.29-.57.38-.11.07-.21.06-.24-.08-.48-1.43-1.18-2.62-2.24-3.54.2-.15.42-.31.63-.43ZM214.41,65.41c.06-.04.08-.03.14.01.56.39,1.18,1.08,1.58,1.7.04.06.03.11-.03.15l-.41.34c-.07.06-.14.04-.18-.03-.41-.69-.99-1.34-1.62-1.79l.52-.38ZM215.57,64.5c.06-.04.1-.06.15-.01.56.43,1.19,1.05,1.6,1.64.04.07.03.11-.04.17l-.38.34c-.06.06-.11.06-.17-.03-.35-.57-.95-1.26-1.61-1.75l.45-.35Z"/><path class="cls-1" d="M221.5,72c.08.04.1.1.04.18-.18.29-.38.7-.38,1.09,0,1.15,1.29,1.71,3.59,1.71,1.64,0,2.97-.15,4.02-.41.13-.03.17-.01.2.1.04.15.1.5.13.73.01.11-.04.15-.18.18-1.09.22-2.33.36-4.24.36-2.73,0-4.36-.83-4.36-2.63,0-.6.22-1.13.57-1.65.2.1.42.22.62.34ZM224.78,66.76c1.01,0,2.13-.04,3.1-.13.13-.01.18.03.2.13.03.18.04.38.04.63,0,.15-.06.2-.2.21-1.18.17-2.47.81-3.63,1.6-.13.1-.27.11-.39.03-.17-.13-.35-.22-.57-.28.88-.6,1.68-1.05,2.41-1.4-.46.04-1.08.06-1.51.06-.91,0-1.99-.07-2.84-.25-.08-.01-.13-.06-.13-.2,0-.18.01-.48.03-.71.94.21,2.16.32,3.5.32ZM228.38,64.96c.06-.04.1-.04.15,0,.56.39,1.18,1.08,1.58,1.69.04.06.03.11-.03.15l-.41.34c-.07.06-.14.04-.18-.03-.41-.69-1-1.34-1.62-1.79l.5-.36ZM229.56,64.04c.06-.04.1-.06.15-.01.56.43,1.19,1.05,1.6,1.64.04.07.03.11-.04.17l-.38.34c-.06.06-.11.06-.17-.03-.35-.57-.95-1.26-1.61-1.75l.45-.35Z"/><path class="cls-1" d="M237.02,66.17c-.22-.57-.34-.78-.59-1.09.43-.07.87-.13,1.11-.13.2,0,.29.08.29.21,0,.08-.01.22.01.36.03.2.1.52.25.94s.28.74.46,1.18c1.13-.27,2.23-.56,3.01-.87.08-.03.15-.03.2.07.07.15.14.39.18.62.01.1,0,.15-.07.18-.87.29-1.83.55-2.97.81.5,1.09,1.25,2.24,2.33,3.42.14.14.25.22.38.31.07.04.1.08.1.13,0,.06-.01.11-.04.15-.1.17-.27.42-.36.56-.07.08-.13.14-.18.14s-.08-.03-.17-.08c-.18-.13-.34-.21-.5-.31-.84-.43-1.83-.76-3.12-.76-1.76,0-2.66.6-2.66,1.6,0,1.29,1.74,1.82,3.78,1.82.71,0,1.44-.06,2.02-.17-.03.31-.11.7-.18.91-.04.1-.07.11-.18.14-.25.03-.99.07-1.61.07-2.56,0-4.72-.83-4.72-2.7,0-1.62,1.54-2.44,3.47-2.44,1.3,0,2.21.29,2.97.63-.92-.99-1.57-2-2.16-3.24-1.08.18-2.04.28-3.01.35-.42.03-.84.06-1.19.04-.1,0-.13-.06-.17-.17-.06-.17-.11-.42-.15-.73.48.03.91.03,1.39,0,.81-.04,1.67-.14,2.75-.32-.24-.59-.39-.98-.64-1.64ZM242.03,64.99c.06-.03.1-.01.15.03.49.36,1.12,1.13,1.5,1.78.03.06.01.11-.04.15l-.42.31c-.08.06-.15.03-.18-.04-.31-.64-.95-1.41-1.54-1.88l.53-.35ZM243.22,64.18c.07-.04.1-.04.15,0,.53.42,1.15,1.11,1.53,1.72.04.07.01.11-.06.17l-.41.31c-.07.06-.1.06-.15-.04-.34-.57-.85-1.27-1.53-1.83l.46-.32Z"/><path class="cls-1" d="M248.58,66.64c.08.04.13.1.13.15,0,.07-.03.15-.06.25-.06.17-.11.56-.11,1.29,0,.9.01,1.75.2,3.18.21,1.65.81,2.86,1.49,2.86.56,0,1.09-.9,1.5-2.2.15.36.28.53.46.7.11.1.15.21.11.35-.39,1.13-1.15,2.2-2.09,2.2-1.18,0-2.06-1.62-2.37-3.82-.2-1.4-.25-2.98-.25-3.91,0-.53-.01-.87-.11-1.34.39.04.84.17,1.11.29ZM255.26,67.72c.08-.04.15-.06.21,0,1.43,1.25,2.38,2.97,2.73,4.85.01.1-.03.14-.1.18-.21.14-.41.24-.64.32-.1.03-.17-.01-.18-.11-.39-2.14-1.27-3.63-2.63-4.86.27-.18.48-.31.62-.38Z"/><path class="cls-1" d="M265.82,70.95c-1.08.04-2.21.04-3.22-.04-.11,0-.14-.04-.15-.17-.03-.18-.04-.52-.04-.71,1.04.13,2.3.15,3.39.1,0-.69-.01-1.41-.01-2.09-1.36.06-2.56.04-3.71-.07-.08-.01-.11-.04-.13-.14-.03-.21-.06-.42-.06-.73,1.23.15,2.55.17,3.89.11,0-.57-.01-.97-.01-1.48-.01-.41-.04-.64-.13-.92.46.04.84.1,1.11.18.15.06.2.21.13.32-.1.15-.15.36-.17.64-.03.45-.03.76-.04,1.23,1.27-.1,2.42-.28,3.42-.46.11-.03.14,0,.15.1.03.22.04.45.04.62,0,.11-.06.14-.1.14-1.09.18-2.23.32-3.52.41,0,.69,0,1.41.01,2.07,1.08-.07,2.02-.2,3.1-.41.1-.03.14,0,.15.07,0,.17.01.43.01.67,0,.08-.04.13-.14.14-.99.18-1.98.31-3.1.38,0,.87.04,1.6.1,2.44,1.26.35,2.58.94,3.74,1.81.07.06.1.11.06.24-.06.18-.21.45-.35.6-.07.08-.13.1-.21.04-1.13-.88-2.07-1.4-3.19-1.78.01,1.57-.81,2.19-2.51,2.19s-2.48-.63-2.48-1.67c0-.91.95-1.71,2.58-1.71.56,0,1.06.04,1.47.11-.04-.8-.07-1.41-.08-2.23ZM264.43,73.83c-1.18,0-1.76.38-1.76.88,0,.59.55.87,1.57.87.64,0,1.18-.14,1.43-.43.17-.21.29-.56.25-1.13-.49-.11-.98-.18-1.49-.18Z"/><path class="cls-1" d="M285.62,67.64c0,.13-.04.14-.18.14-1.5-.04-2.87-.06-4.45,0,0,.88,0,1.85.01,2.79.11.43.17.94.17,1.47,0,1.76-.76,3.26-2.73,4.33-.14.08-.25.13-.32.13-.08,0-.17-.04-.25-.11-.15-.14-.41-.31-.64-.39,2-.83,2.93-2.12,3.05-3.53-.31.53-.91.8-1.54.8-.97,0-1.85-.64-1.85-1.98,0-1.19.88-1.95,1.92-1.95.53,0,1.02.15,1.32.48-.01-.69-.01-1.32-.03-1.98-2,.11-3.89.25-5.22.42-.34.04-.5.14-.62.14-.08,0-.14-.04-.17-.14-.08-.18-.15-.52-.22-.9.48.03.94-.01,1.76-.08,1.13-.08,2.58-.18,4.44-.29-.01-.57-.01-.85-.03-1.3-.01-.35-.04-.57-.14-.94.42.03.83.1,1.06.15.15.04.25.11.25.21,0,.08-.04.15-.1.25-.06.1-.08.2-.1.38-.03.31-.03.57-.03,1.19,1.55-.04,2.93-.04,4.48-.04.13,0,.15.01.15.15v.6ZM277.7,71.25c0,.77.5,1.2,1.13,1.2.78,0,1.27-.6,1.27-1.23,0-.7-.52-1.19-1.25-1.19-.62,0-1.16.46-1.16,1.22Z"/><path class="cls-1" d="M290.4,75.19c0,1.08-.9,1.95-1.97,1.95s-1.98-.87-1.98-1.95.9-1.95,1.98-1.95,1.97.87,1.97,1.95ZM287.18,75.19c0,.69.56,1.25,1.25,1.25s1.25-.56,1.25-1.25-.55-1.25-1.25-1.25-1.25.56-1.25,1.25Z"/><path class="cls-1" d="M5.95,90.98c.13-.03.17,0,.18.08.03.17.06.42.07.6.01.13-.01.15-.13.17-.76.15-1.51.28-2.34.41-.81,2.2-1.82,4.31-2.82,5.91-.07.11-.14.1-.22.04-.21-.13-.43-.29-.56-.42-.08-.07-.08-.13-.01-.24,1.16-1.75,1.96-3.4,2.63-5.21-.6.06-1.16.1-1.76.1-.21,0-.42,0-.74-.03-.13-.01-.14-.03-.17-.17-.04-.18-.07-.43-.08-.7.45.04.81.06,1.11.06.64,0,1.22-.04,1.91-.11.17-.53.29-1.05.42-1.64.08-.41.13-.69.11-1.09.41.07.81.17,1.09.28.08.03.13.08.13.15s-.03.13-.11.21c-.07.08-.11.18-.2.43-.15.5-.31,1.02-.45,1.51.63-.08,1.23-.18,1.95-.35ZM6.81,94.37c0-.28-.01-.53-.08-.9.38.04.66.08.95.18.1.03.15.08.15.17,0,.06-.03.13-.08.25-.06.15-.06.38-.06.66,0,.84.07,1.68.17,2.58,1.02.41,1.81.81,2.65,1.4.11.07.1.11.06.22-.07.18-.22.43-.34.62-.07.1-.14.08-.22.01-.63-.56-1.39-.99-2.13-1.33.01,1.41-.7,2.19-2.51,2.19-1.06,0-2.17-.55-2.17-1.71,0-1.05,1.01-1.76,2.38-1.76.42,0,.97.07,1.4.17-.08-.87-.15-1.99-.17-2.75ZM5.62,97.72c-1.12,0-1.62.43-1.62.95,0,.64.52.94,1.44.94,1.15,0,1.57-.6,1.57-1.32,0-.18,0-.27-.01-.34-.43-.14-.92-.24-1.37-.24ZM8,91.44c.07-.11.11-.13.24-.08.94.29,1.95.74,2.75,1.32.1.08.1.14.03.25-.08.18-.21.41-.32.56-.07.1-.11.08-.2.03-.81-.62-1.85-1.12-2.86-1.43.14-.24.25-.48.36-.64Z"/><path class="cls-1" d="M16.96,94.66c1.01-.66,2-.99,3.01-.99,2.02,0,3.26,1.25,3.26,3.07,0,2.09-1.65,3.6-4.62,3.6-1.68,0-2.44-.76-2.44-1.65,0-.73.64-1.43,1.64-1.43,1.26,0,2.12.81,2.38,2,1.2-.39,2.04-1.18,2.04-2.55s-1.09-2.3-2.42-2.3-2.77.71-3.85,1.58c-.45.35-.81.73-1.23,1.15-.11.11-.18.13-.28.03-.17-.17-.38-.38-.52-.56-.06-.07-.04-.13.06-.21,1.11-.97,1.82-1.68,3.17-3.12.81-.88,1.65-1.78,2.73-3.05-1.16.18-2.25.39-3.5.63-.18.03-.35.07-.49.13-.1.04-.21.07-.27.07-.1,0-.17-.06-.22-.17-.13-.25-.22-.52-.34-.97.46.06.85.06,1.23.01,1.11-.11,2.25-.27,3.49-.5.17-.03.34-.07.43-.13.06-.04.14-.1.2-.1.07,0,.14.03.25.11.27.21.48.42.6.59.07.08.1.17.1.24,0,.11-.07.21-.21.27-.18.06-.34.15-.66.49-1.25,1.32-2.18,2.3-3.59,3.73l.04.04ZM17.84,98.01c-.45,0-.85.22-.85.66,0,.46.5.85,1.44.85.31,0,.59-.01.91-.07-.18-.8-.7-1.44-1.5-1.44Z"/><path class="cls-1" d="M27.38,94.83c.7-.59,1.58-1.36,2.52-2.21.42-.41.71-.52,1.04-.52.43,0,.66.15,1.04.46,1.12.9,2.1,1.71,3.25,2.55,1.08.76,1.96,1.33,3.08,1.93.1.06.13.11.1.18-.1.25-.27.56-.41.77-.07.1-.14.11-.24.04-.81-.5-2.02-1.3-2.97-2.02-1.05-.78-2.1-1.68-3.12-2.54-.28-.25-.49-.39-.71-.39-.2,0-.36.13-.6.35-.83.78-1.85,1.75-2.54,2.4-.22.22-.35.35-.46.5-.1.14-.21.14-.32.03-.21-.2-.53-.6-.73-.88.39-.15.7-.34,1.08-.66ZM34.89,90.78s.08-.03.14.01c.56.39,1.18,1.08,1.58,1.69.04.06.03.11-.03.15l-.41.34c-.07.06-.14.04-.18-.03-.41-.69-.99-1.34-1.62-1.79l.52-.38ZM36.05,89.87c.06-.04.1-.06.15-.01.56.43,1.19,1.05,1.6,1.64.04.07.03.11-.04.17l-.38.34c-.06.06-.11.06-.17-.03-.35-.57-.95-1.26-1.61-1.75l.45-.35Z"/><path class="cls-1" d="M47.84,89.51c.06.06.1.13.1.18,0,.08-.06.14-.14.18-.17.07-.31.17-.52.36-1.37,1.25-3.08,2.83-4.13,3.95-.14.14-.2.25-.2.35s.06.17.18.25c1.72,1.27,3.59,2.77,5.41,4.62.1.11.13.14.01.28-.17.2-.39.41-.53.53-.11.08-.17.1-.27-.03-1.82-2-3.63-3.5-5.28-4.75-.38-.29-.55-.55-.55-.88s.17-.57.49-.91c1.13-1.2,2.66-2.69,3.91-3.95.28-.29.45-.53.62-.87.32.21.7.48.9.67Z"/><path class="cls-1" d="M64.2,97.24c0,.1-.01.11-.1.11s-.5-.03-1.82-.03h-3.94v1.39c0,1.55.03,2.02.03,2.09,0,.1-.01.11-.11.11h-.7c-.1,0-.11-.01-.11-.11,0-.08.03-.53.03-2.09v-1.39h-3.67c-1.3,0-1.74.03-1.81.03-.1,0-.11-.01-.11-.11v-.59c0-.11.01-.13.11-.13.07,0,.5.03,1.81.03h3.67v-1.78h-1.78c-1.42,0-1.92.03-1.99.03-.1,0-.11-.01-.11-.11,0-.08.03-.45.03-1.47v-2.61c0-1.01-.03-1.37-.03-1.46,0-.1.01-.11.11-.11.07,0,.57.03,1.99.03h4.68c1.42,0,1.92-.03,2-.03.1,0,.11.01.11.11,0,.08-.03.45-.03,1.46v2.61c0,1.02.03,1.39.03,1.47,0,.1-.01.11-.11.11-.08,0-.59-.03-2-.03h-2.03v1.78h3.94c1.32,0,1.74-.03,1.82-.03s.1.01.1.13v.59ZM61.6,89.83h-7.14v1.69h7.14v-1.69ZM61.6,92.27h-7.14v1.75h7.14v-1.75Z"/><path class="cls-1" d="M73.62,89.51c.06.06.1.13.1.18,0,.08-.06.14-.14.18-.17.07-.31.17-.52.36-1.37,1.25-3.08,2.83-4.13,3.95-.14.14-.2.25-.2.35s.06.17.18.25c1.72,1.27,3.59,2.77,5.41,4.62.1.11.13.14.01.28-.17.2-.39.41-.53.53-.11.08-.17.1-.27-.03-1.82-2-3.63-3.5-5.28-4.75-.38-.29-.55-.55-.55-.88s.17-.57.49-.91c1.13-1.2,2.66-2.69,3.91-3.95.28-.29.45-.53.62-.87.32.21.7.48.9.67Z"/><path class="cls-1" d="M79.83,96c.08.04.1.1.04.18-.18.29-.38.7-.38,1.09,0,1.15,1.29,1.71,3.59,1.71,1.64,0,2.97-.15,4.02-.41.13-.03.17-.01.2.1.04.15.1.5.13.73.01.11-.04.15-.18.18-1.09.22-2.33.36-4.24.36-2.73,0-4.36-.83-4.36-2.63,0-.6.22-1.13.57-1.65.2.1.42.22.62.34ZM83.11,90.76c1.01,0,2.13-.04,3.1-.13.13-.01.18.03.2.13.03.18.04.38.04.63,0,.15-.06.2-.2.21-1.18.17-2.47.81-3.63,1.6-.13.1-.27.11-.39.03-.17-.13-.35-.22-.57-.28.88-.6,1.68-1.05,2.41-1.4-.46.04-1.08.06-1.51.06-.91,0-1.99-.07-2.84-.25-.08-.01-.13-.06-.13-.2,0-.18.01-.48.03-.71.94.21,2.16.32,3.5.32ZM86.71,88.96c.06-.04.1-.04.15,0,.56.39,1.18,1.08,1.58,1.69.04.06.03.11-.03.15l-.41.34c-.07.06-.14.04-.18-.03-.41-.69-1-1.34-1.62-1.79l.5-.36ZM87.88,88.04c.06-.04.1-.06.15-.01.56.43,1.19,1.05,1.6,1.64.04.07.03.11-.04.17l-.38.34c-.06.06-.11.06-.17-.03-.35-.57-.95-1.26-1.61-1.75l.45-.35Z"/><path class="cls-1" d="M96.78,95.81c-.03.08-.08.28-.13.76-.18,1.82-.85,3.31-3.94,4.19-.1.03-.17.06-.22.06-.08,0-.11-.06-.2-.21-.11-.21-.28-.41-.46-.52,3.17-.66,3.87-1.98,3.95-3.56.03-.56.04-.85-.03-1.22.34.01.63.04.9.08.13.03.21.07.21.14,0,.1-.04.17-.08.28ZM103.84,90.67c0,.1-.01.11-.11.11-.08,0-.53-.03-1.86-.03h-3.71v1.32h2.42c1.43,0,1.92-.03,1.99-.03.1,0,.11.01.11.11v.56c0,.1-.01.11-.11.11-.07,0-.56-.03-1.99-.03h-5.5c-1.43,0-1.91.03-1.97.03-.1,0-.11-.01-.11-.11v-.56c0-.1.01-.11.11-.11.07,0,.55.03,1.97.03h2.21v-1.32h-3.38c-1.34,0-1.79.03-1.86.03-.1,0-.11-.01-.11-.11v-.59c0-.1.01-.1.11-.1.07,0,.52.01,1.86.01h3.38v-.03c0-.81-.01-1.2-.11-1.71.36.01.64.03.98.07.1.01.15.06.15.13s-.03.14-.07.25c-.06.14-.08.46-.08,1.12v.17h3.71c1.33,0,1.78-.01,1.86-.01.1,0,.11,0,.11.1v.59ZM103.54,95.1c0,1.06.03,1.2.03,1.27,0,.1-.01.11-.11.11h-.64c-.1,0-.11-.01-.11-.11v-1.62h-9.61v1.62c0,.1-.01.11-.11.11h-.64c-.1,0-.11-.01-.11-.11,0-.08.03-.22.03-1.27v-.39c0-.36-.03-.53-.03-.62,0-.1.01-.1.11-.1.07,0,.56.01,1.95.01h7.23c1.37,0,1.86-.01,1.95-.01.1,0,.11,0,.11.1,0,.08-.03.25-.03.55v.46ZM99.47,99.15c0,.38.08.46.29.52.22.07.53.1,1.32.1s1.27-.06,1.51-.22c.31-.22.38-.67.39-1.48.18.13.36.22.57.29.24.08.24.1.21.35-.11.87-.25,1.2-.62,1.48-.32.25-.94.38-2.11.38-1.01,0-1.44-.04-1.85-.17-.25-.07-.56-.27-.56-.87v-2.8c0-.6-.04-1.16-.08-1.44.34.01.66.04.88.07.13.01.2.08.2.13,0,.1-.04.17-.08.27-.06.13-.07.25-.07.91v2.49Z"/><path class="cls-1" d="M113.42,94.62c0,.1-.01.11-.11.11-.07,0-.49-.03-1.81-.03h-1.34c-.45,1.4-.88,2.56-1.39,3.66,1.12-.21,1.98-.41,3.01-.67-.22-.43-.48-.85-.74-1.26-.06-.1-.03-.13.11-.2l.39-.18c.13-.06.14-.07.21.01.69,1.01,1.22,2.03,1.64,3.15.04.1.04.14-.14.22l-.39.18c-.17.08-.2.08-.24-.03-.15-.42-.32-.84-.52-1.26-1.67.45-2.65.69-4.43,1.05-.38.08-.6.14-.67.2s-.13.08-.17.08c-.06,0-.1-.04-.14-.15-.11-.24-.2-.55-.27-.83.49-.03,1.01-.1,1.33-.15h.04c.63-1.3,1.09-2.56,1.44-3.82h-.84c-1.32,0-1.75.03-1.82.03-.1,0-.11-.01-.11-.11v-.56c0-.1.01-.11.11-.11.07,0,.5.03,1.82.03h1.22v-2.38h-.71c-1.21,0-1.58.03-1.65.03-.1,0-.11-.01-.11-.13v-.55c0-.08.01-.1.11-.1.07,0,.45.01,1.65.01h.71v-.76c0-.88-.01-1.23-.1-1.72.34.01.62.04.88.08.1.01.17.06.17.11,0,.07-.04.14-.07.25-.04.15-.08.5-.08,1.25v.78h.77c1.2,0,1.58-.01,1.67-.01.1,0,.11.01.11.1v.55c0,.11-.01.13-.11.13-.08,0-.46-.03-1.67-.03h-.77v2.38h1.08c1.32,0,1.74-.03,1.81-.03.1,0,.11.01.11.11v.56ZM118.25,94.92c0,1.13.03,1.6.03,1.96,0,.55-.04.91-.28,1.2-.28.35-.63.48-1.89.45q-.27,0-.32-.29c-.06-.25-.14-.46-.25-.63.35.04.71.07,1.15.07.55,0,.76-.17.76-.87v-6.79h-2.52v8.22c0,1.74.03,2.49.03,2.56,0,.1-.01.11-.11.11h-.64c-.1,0-.11-.01-.11-.11,0-.07.03-.85.03-2.72v-5.98c0-1.88-.03-2.68-.03-2.75,0-.11.01-.13.11-.13.08,0,.36.03,1.32.03h1.34c.94,0,1.25-.03,1.32-.03.1,0,.11.01.11.13,0,.07-.03.7-.03,2.13v3.43Z"/><path class="cls-1" d="M128.64,91.25c-2.1.34-3.92.63-5.69.99-.5.1-.67.15-.84.24-.1.04-.18.1-.27.1s-.15-.06-.2-.13c-.14-.28-.27-.62-.39-.99.5,0,.87-.04,1.74-.17,2.09-.34,4.93-.76,8.68-1.22.14-.01.21.03.24.11.04.18.08.52.08.7,0,.13-.04.15-.18.17-.76.04-1.32.13-2.05.42-2.04.81-3.61,2.54-3.61,4.41,0,2.33,2.03,3.01,4.08,3.18.18.01.22.04.22.15,0,.15-.04.48-.08.67-.03.15-.07.21-.22.2-2.37-.21-4.92-1.22-4.92-4.05,0-1.98,1.22-3.6,3.42-4.76v-.03ZM130.34,93.22s.08-.03.14.01c.56.39,1.18,1.08,1.58,1.7.04.06.03.11-.03.15l-.41.34c-.07.06-.14.04-.18-.03-.41-.69-1-1.34-1.62-1.79l.52-.38ZM131.51,92.31c.06-.04.1-.06.15-.01.56.43,1.19,1.05,1.6,1.64.04.07.03.11-.04.17l-.38.34c-.06.06-.11.06-.17-.03-.35-.57-.95-1.26-1.61-1.75l.45-.35Z"/><path class="cls-1" d="M139.7,89.8c-.13-.39-.24-.62-.46-.9.41-.07.83-.1,1.09-.1.14,0,.24.07.24.17,0,.06-.03.14-.03.22,0,.13.03.25.11.59.1.36.18.62.27.91.99-.21,1.97-.43,3.1-.81.08-.03.13-.04.15.06.06.17.1.36.13.52.01.11-.03.17-.13.2-1.04.32-2.02.56-3.01.78.17.5.39,1.04.66,1.58,1.04-.21,1.93-.46,2.79-.8.11-.04.15-.03.2.07.06.18.1.35.13.53.01.1,0,.15-.11.2-.85.28-1.78.53-2.66.73.55,1.02,1.32,2.13,2.19,2.86.08.08.11.13.06.24-.08.2-.21.39-.34.55-.11.13-.18.14-.31.03-.28-.2-.64-.36-.99-.5-.74-.28-1.57-.42-2.68-.42-1.46,0-2.4.42-2.4,1.39,0,1.08,1.32,1.47,3.54,1.47.5,0,.97-.04,1.43-.08.11-.01.13.06.11.15-.03.2-.08.46-.15.67-.03.11-.06.15-.18.17-.36.03-.7.06-1.23.06-2.8,0-4.41-.76-4.41-2.37,0-1.37,1.19-2.21,3.24-2.21,1.19,0,2.18.17,2.9.52-.55-.6-1.06-1.37-1.58-2.33-1.42.25-2.75.42-4.05.46-.11,0-.13-.01-.17-.14-.06-.17-.11-.45-.13-.66,1.44-.04,2.72-.18,3.99-.42-.22-.48-.46-1.02-.69-1.58-1.13.21-2.44.36-3.68.41-.11,0-.15-.01-.18-.14-.03-.11-.08-.39-.13-.64,1.33-.01,2.73-.18,3.75-.34-.11-.32-.21-.63-.36-1.08Z"/><path class="cls-1" d="M151.37,94.66c1.01-.66,2-.99,3.01-.99,2.02,0,3.26,1.25,3.26,3.07,0,2.09-1.65,3.6-4.62,3.6-1.68,0-2.44-.76-2.44-1.65,0-.73.64-1.43,1.64-1.43,1.26,0,2.12.81,2.38,2,1.2-.39,2.04-1.18,2.04-2.55s-1.09-2.3-2.42-2.3-2.77.71-3.85,1.58c-.45.35-.81.73-1.23,1.15-.11.11-.18.13-.28.03-.17-.17-.38-.38-.52-.56-.06-.07-.04-.13.06-.21,1.11-.97,1.82-1.68,3.17-3.12.81-.88,1.65-1.78,2.73-3.05-1.16.18-2.25.39-3.5.63-.18.03-.35.07-.49.13-.1.04-.21.07-.27.07-.1,0-.17-.06-.22-.17-.13-.25-.22-.52-.34-.97.46.06.85.06,1.23.01,1.11-.11,2.25-.27,3.49-.5.17-.03.34-.07.43-.13.06-.04.14-.1.2-.1.07,0,.14.03.25.11.27.21.48.42.6.59.07.08.1.17.1.24,0,.11-.07.21-.21.27-.18.06-.34.15-.66.49-1.25,1.32-2.18,2.3-3.59,3.73l.04.04ZM152.25,98.01c-.45,0-.85.22-.85.66,0,.46.5.85,1.44.85.31,0,.59-.01.91-.07-.18-.8-.7-1.44-1.5-1.44Z"/><path class="cls-1" d="M169.6,91.56c.06-.01.1,0,.13.06.08.2.18.52.22.71.01.1-.03.13-.08.14-1.3.39-2.46.57-3.68.69.01,1.4.13,2.56.27,3.8,1.32.36,2.76,1.01,3.99,1.81.08.06.1.1.07.18-.07.2-.28.53-.42.69-.06.06-.08.07-.15.03-1.25-.88-2.3-1.39-3.45-1.78,0,.08,0,.22-.01.39-.01,1.16-.94,2.03-2.52,2.03-1.72,0-2.68-.71-2.68-1.75,0-1.12,1.23-1.86,2.72-1.86.55,0,1.06.03,1.51.1-.14-1.32-.24-2.94-.25-4.55,0-.62-.01-1.48-.01-2.14,0-.39-.03-.8-.13-1.15.38.03.76.08,1.11.18.17.06.18.17.11.31-.08.18-.11.34-.14.73-.03.45-.03,1.19-.03,2.09,1.13-.08,2.31-.32,3.43-.69ZM163.97,97.48c-1.19,0-1.86.46-1.86,1.04,0,.62.66.91,1.74.91s1.71-.52,1.71-1.46c0-.14,0-.22-.01-.32-.55-.11-1.08-.17-1.57-.17Z"/><path class="cls-1" d="M175.63,92.76c1.32-.42,2.1-.67,3.04-.67,1.39,0,2.59.95,2.59,3.14,0,1.32-.46,2.41-1.15,3.24-.71.87-1.55,1.47-2.48,1.98-.28.15-.38.13-.48,0-.18-.22-.42-.35-.7-.48,1.37-.64,2.31-1.37,2.98-2.28.43-.59.8-1.4.8-2.55,0-1.68-.88-2.16-1.74-2.16-.48,0-1.15.17-2.04.49-.64.27-1,.42-1.26.57-.2.11-.31.21-.45.21-.1,0-.2-.11-.27-.22-.11-.17-.31-.56-.45-.9.53-.04.94-.15,1.6-.36ZM180.3,89.72c.11.01.15.07.14.18-.03.18-.11.52-.17.66-.04.11-.06.17-.15.15-1.4-.24-2.46-.49-3.82-1.05-.04-.01-.06-.07-.04-.2.04-.27.13-.5.22-.77,1.22.52,2.47.84,3.82,1.02Z"/><path class="cls-1" d="M185.36,97.79c.06-.06.11-.08.15-.08s.08.03.15.08c1.02.64,1.88,1.43,2.69,2.52.06.08.07.13.07.17,0,.06-.01.1-.1.17l-.5.42c-.07.06-.11.08-.14.08-.06,0-.1-.01-.15-.11-.73-1.05-1.62-1.98-2.58-2.62-.07-.04-.1-.07-.1-.1,0-.04.01-.07.07-.14l.43-.39Z"/><path class="cls-1" d="M209.07,92.34c.79,0,1.5,0,2.27-.04.15,0,.17.04.17.17.01.18.01.41,0,.6,0,.14-.03.18-.18.17-.71-.03-1.46-.01-2.24-.01h-.53c-.04,1.91-.31,3.26-1,4.43-.69,1.2-1.92,2.12-3.45,2.69-.21.08-.25.11-.38-.01-.22-.25-.42-.39-.73-.53,1.86-.59,3.08-1.43,3.75-2.61.57-1.02.83-2.16.85-3.96h-3.57v.69c0,.78.01,1.53.04,2.27,0,.13-.04.15-.17.15-.2.01-.49.01-.7,0-.13,0-.17-.03-.17-.17.03-.71.06-1.43.06-2.23v-.71h-.71c-.74,0-1.55.03-2.16.06-.13.01-.13-.04-.15-.2-.03-.2-.04-.49-.06-.8.73.04,1.47.06,2.37.06h.71v-1.15c0-.63-.01-1.32-.15-1.96.46.03.88.1,1.13.17.21.06.15.21.07.39-.08.17-.11.76-.11,1.4v1.15h3.57v-1.25c.01-.94-.01-1.57-.11-2.1.35.04.81.11,1.05.18.21.06.22.18.14.38-.07.18-.11.42-.11,1.5v1.29s.49,0,.49,0Z"/><path class="cls-1" d="M217.09,95.09c.22.14.18.22.01.39-.1.1-.21.22-.38.55-.34.64-.87,1.5-1.44,2.16-.13.14-.21.18-.38.08-.22-.14-.48-.25-.73-.31.83-.83,1.3-1.58,1.65-2.3.15-.31.27-.64.32-1.02.35.13.66.27.94.45ZM219.52,91.25c0-.78-.04-1.47-.15-1.93.43.03.91.08,1.16.15.2.06.22.21.11.39-.11.18-.14.63-.14,1.46v.85h1.82c1.01,0,2.04-.03,2.87-.07.13-.01.17.04.17.17,0,.2,0,.43-.01.63,0,.14-.03.2-.17.2-.91-.04-2-.06-2.9-.06h-1.78v2.44c0,1.19.04,2.12.04,3.01,0,.6-.21,1.05-.7,1.29-.5.25-1.16.38-1.61.41-.11.01-.2-.04-.24-.17-.13-.31-.31-.56-.59-.78.71,0,1.34-.1,1.74-.25.29-.11.38-.29.38-.81v-5.13h-2.24c-.78,0-1.65.04-2.4.1-.13.01-.17-.06-.18-.2-.01-.17-.06-.6-.06-.87,1,.08,1.83.1,2.61.1h2.27v-.92ZM223.25,94.79c.1-.07.17-.04.27.04.74.66,1.39,1.54,1.96,2.54.08.15.06.21-.06.32-.14.13-.35.29-.53.41-.11.07-.18.07-.24-.06-.48-.97-1.18-1.99-2.02-2.8.22-.17.42-.31.62-.45ZM225.97,89.94c0,.78-.63,1.41-1.42,1.41s-1.41-.63-1.41-1.41.63-1.41,1.41-1.41,1.42.63,1.42,1.41ZM223.67,89.94c0,.49.39.88.88.88s.88-.39.88-.88-.39-.88-.88-.88-.88.39-.88.88Z"/><path class="cls-1" d="M230.83,95.23c-1.22,0-1.81.14-1.89.14-.13,0-.2-.06-.24-.2-.06-.24-.11-.69-.14-1.06.85.11,1.93.13,3.1.13h4.3c.97,0,2-.01,3.07-.04.17-.01.21.01.21.17.01.21.01.5,0,.73,0,.15-.04.18-.21.17-1.05-.03-2.09-.03-3.03-.03h-5.17Z"/><path class="cls-1" d="M245.87,93.01c1.61.46,3.17,1.12,4.57,1.95.11.06.14.13.1.22-.1.25-.22.5-.34.69-.08.11-.14.14-.27.06-1.3-.85-2.8-1.51-4.08-1.88v3.25c0,.85.03,1.95.04,2.86.01.14-.03.18-.18.18-.21.01-.49.01-.71,0-.15,0-.2-.04-.2-.2.04-.9.06-1.99.06-2.84v-6.23c0-1.05-.06-1.76-.15-2.24.49.04.91.1,1.16.18.22.06.17.21.1.42-.08.24-.1.66-.1,1.55v2.03Z"/><path class="cls-1" d="M257.7,90c-.22-.57-.34-.78-.59-1.09.43-.07.87-.13,1.11-.13.2,0,.29.08.29.21,0,.08-.01.22.01.36.03.2.1.52.25.94.15.42.28.74.46,1.18,1.13-.27,2.28-.59,3.07-.9.08-.03.15-.03.2.07.07.15.14.39.18.62.01.1,0,.15-.07.18-.87.29-1.89.57-3.03.84.5,1.09,1.25,2.24,2.33,3.42.14.14.25.22.38.31.07.04.1.08.1.13,0,.06-.01.11-.04.15-.1.17-.27.42-.36.56-.07.08-.13.14-.18.14s-.08-.03-.17-.08c-.18-.13-.34-.21-.5-.31-.84-.43-1.83-.76-3.18-.76-1.68,0-2.61.6-2.61,1.6,0,1.29,1.74,1.82,3.78,1.82.71,0,1.44-.06,2.02-.17-.03.31-.11.7-.18.91-.04.1-.07.11-.18.14-.25.03-1,.07-1.61.07-2.56,0-4.72-.83-4.72-2.7,0-1.62,1.54-2.44,3.47-2.44,1.3,0,2.21.29,2.97.63-.92-.99-1.57-2-2.16-3.24-1.08.18-2.05.28-3.01.35-.42.03-.84.06-1.19.04-.1,0-.13-.06-.17-.17-.06-.17-.11-.42-.15-.73.48.03.91.03,1.39,0,.81-.04,1.67-.14,2.75-.32-.24-.59-.39-.98-.64-1.64Z"/><path class="cls-1" d="M274.07,90.01c0-.45-.03-.78-.13-1.16.52.07.85.13,1.09.21.14.04.18.08.18.18,0,.08-.04.17-.08.22-.07.11-.1.29-.11.5-.01.84-.03,1.58-.06,2.4,1.06-.08,1.96-.15,2.89-.18.11,0,.14.03.14.14.01.2.01.43,0,.62,0,.13-.03.17-.14.17-.97,0-1.89.04-2.93.13-.04.91-.1,1.78-.17,2.31-.14,1.02-.64,1.4-1.47,1.4-.38,0-.7-.04-1.05-.1-.13-.03-.15-.1-.17-.25-.03-.25-.11-.5-.22-.78.49.14.92.22,1.36.22s.6-.22.67-.8c.07-.53.13-1.27.14-1.93-1.32.11-2.72.28-4.01.48-.03,1.48-.04,2.8.03,3.6.1,1.16.46,1.47,2.52,1.47,1.18,0,2.35-.1,3.39-.25.17-.01.21.01.22.13.03.18.04.5.04.66,0,.14-.03.18-.13.2-.81.11-2.13.2-3.39.2-2.7,0-3.38-.55-3.54-2.23-.07-.62-.07-2.14-.07-3.63-.74.11-1.34.21-1.99.35-.2.04-.41.1-.64.18-.14.04-.22.01-.28-.11-.08-.22-.2-.55-.25-.87.31,0,.66-.03,1.04-.08.74-.1,1.44-.24,2.13-.35.01-.55.01-1.06.01-1.58-.01-.59-.03-.87-.17-1.37.41.03.83.1,1.11.18.11.03.2.13.2.21,0,.1-.06.2-.08.29-.07.2-.08.36-.1.62-.03.57-.03,1.01-.04,1.53,1.21-.15,2.75-.34,4.03-.46.03-.85.03-1.69.03-2.44Z"/><path class="cls-1" d="M288.18,91.16c-2.1.34-3.92.63-5.69.99-.5.1-.67.15-.84.24-.1.04-.18.1-.27.1s-.15-.06-.2-.13c-.14-.28-.27-.62-.39-.99.5,0,.87-.04,1.74-.17,2.09-.34,4.93-.76,8.68-1.22.14-.01.21.03.24.11.04.18.08.52.08.7,0,.13-.04.15-.18.17-.76.04-1.32.13-2.05.42-2.04.81-3.61,2.54-3.61,4.41,0,2.33,2.03,3.01,4.08,3.18.18.01.22.04.22.15,0,.15-.04.48-.08.67-.03.15-.07.21-.22.2-2.37-.21-4.92-1.22-4.92-4.05,0-1.98,1.22-3.6,3.42-4.76v-.03Z"/><path class="cls-1" d="M296.49,90.64c.08.04.13.1.13.15,0,.07-.03.15-.06.25-.06.17-.11.56-.11,1.29,0,.9.01,1.75.2,3.18.21,1.65.81,2.86,1.49,2.86.56,0,1.09-.9,1.5-2.2.15.36.28.53.46.7.11.1.15.21.11.35-.39,1.13-1.15,2.2-2.09,2.2-1.18,0-2.06-1.62-2.37-3.82-.2-1.4-.25-2.98-.25-3.91,0-.53-.01-.87-.11-1.34.39.04.84.17,1.11.29ZM303.18,91.72c.08-.04.15-.06.21,0,1.43,1.25,2.38,2.97,2.73,4.85.01.1-.03.14-.1.18-.21.14-.41.24-.64.32-.1.03-.17-.01-.18-.11-.39-2.14-1.27-3.63-2.63-4.86.27-.18.48-.31.62-.38Z"/><path class="cls-1" d="M315.94,90.99c.11-.03.15,0,.17.1.03.17.06.41.07.57.01.14-.01.18-.14.21-.91.25-1.68.43-2.54.57-.84,2.84-1.7,5.28-2.69,7.55-.06.13-.11.13-.21.08-.11-.04-.48-.21-.66-.31-.07-.04-.08-.11-.06-.18,1.16-2.47,1.96-4.65,2.62-6.99-.91.1-1.88.15-2.83.17-.17,0-.2-.01-.22-.14-.03-.2-.07-.49-.11-.77.27.03.5.03.88.03.66,0,1.62-.06,2.52-.17.2-.74.31-1.25.41-1.77.07-.39.14-.85.11-1.32.39.07.83.2,1.12.32.07.03.11.08.11.15s-.04.14-.11.22c-.1.13-.15.25-.22.55-.17.57-.29,1.15-.45,1.68.66-.11,1.44-.32,2.23-.57ZM315.24,97.41c.11,0,.14.03.15.14.1,1.26.88,1.68,2.65,1.68.71,0,1.5-.1,2.07-.18.11-.01.15-.01.17.1.03.17.06.48.06.67,0,.14-.04.17-.15.18-.43.07-1.16.14-1.83.14-1.51,0-2.45-.2-3.08-.77-.49-.42-.67-1.05-.69-1.89.24-.04.5-.07.66-.07ZM315.59,93.81c0-.13.03-.17.18-.21.81-.18,1.62-.29,2.45-.29.57,0,1.19.07,1.74.14.17.03.2.07.21.15.01.14.03.43.01.62-.01.17-.06.21-.18.18-.6-.1-1.2-.15-1.79-.15-.87,0-1.74.13-2.58.31-.03-.24-.04-.57-.04-.74Z"/><path class="cls-1" d="M330.29,91.04c.11-.03.15,0,.17.1.03.17.06.41.07.57.01.14-.01.18-.14.21-.91.25-1.68.43-2.54.57-.84,2.84-1.7,5.28-2.69,7.55-.06.13-.11.13-.21.08-.11-.04-.48-.21-.66-.31-.07-.04-.08-.11-.06-.18,1.16-2.47,1.96-4.65,2.62-6.99-.91.1-1.88.15-2.83.17-.17,0-.2-.01-.22-.14-.03-.2-.07-.49-.11-.77.27.03.5.03.88.03.66,0,1.62-.06,2.52-.17.2-.74.31-1.25.41-1.76.07-.39.14-.85.11-1.32.39.07.83.2,1.12.32.07.03.11.08.11.15s-.04.14-.11.22c-.1.13-.15.25-.22.55-.17.57-.29,1.15-.45,1.68.66-.11,1.44-.32,2.23-.57ZM329.59,97.45c.11,0,.14.03.15.14.1,1.26.88,1.68,2.65,1.68.71,0,1.5-.1,2.07-.18.11-.01.15-.01.17.1.03.17.06.48.06.67,0,.14-.04.17-.15.18-.43.07-1.16.14-1.83.14-1.51,0-2.45-.2-3.08-.77-.49-.42-.67-1.05-.69-1.89.24-.04.5-.07.66-.07ZM329.94,93.85c0-.13.03-.17.18-.21.81-.18,1.62-.29,2.45-.29.57,0,1.19.07,1.74.14.17.03.2.07.21.15.01.14.03.43.01.62-.01.17-.06.21-.18.18-.6-.1-1.2-.15-1.79-.15-.87,0-1.74.13-2.58.31-.03-.24-.04-.57-.04-.74ZM332.84,89.65s.08-.03.14.01c.56.39,1.18,1.08,1.58,1.7.04.06.03.11-.03.15l-.41.34c-.07.06-.14.04-.18-.03-.41-.69-.99-1.34-1.62-1.79l.52-.38ZM334,88.74c.06-.04.1-.06.15-.01.56.43,1.19,1.05,1.6,1.64.04.07.03.11-.04.17l-.38.34c-.06.06-.11.06-.17-.03-.35-.57-.95-1.26-1.61-1.75l.45-.35Z"/><path class="cls-1" d="M342.19,89.8c-.13-.39-.24-.62-.46-.9.41-.07.83-.1,1.09-.1.14,0,.24.07.24.17,0,.06-.03.14-.03.22,0,.13.03.25.11.59.1.36.18.62.27.91.99-.21,1.97-.43,3.1-.81.08-.03.13-.04.15.06.06.17.1.36.13.52.01.11-.03.17-.13.2-1.04.32-2.02.56-3.01.78.17.5.39,1.04.66,1.58,1.04-.21,1.93-.46,2.79-.8.11-.04.15-.03.2.07.06.18.1.35.13.53.01.1,0,.15-.11.2-.85.28-1.78.53-2.66.73.55,1.02,1.32,2.13,2.19,2.86.08.08.11.13.06.24-.08.2-.21.39-.34.55-.11.13-.18.14-.31.03-.28-.2-.64-.36-.99-.5-.74-.28-1.57-.42-2.68-.42-1.46,0-2.4.42-2.4,1.39,0,1.08,1.32,1.47,3.54,1.47.5,0,.97-.04,1.43-.08.11-.01.13.06.11.15-.03.2-.08.46-.15.67-.03.11-.06.15-.18.17-.36.03-.7.06-1.23.06-2.8,0-4.41-.76-4.41-2.37,0-1.37,1.19-2.21,3.24-2.21,1.19,0,2.18.17,2.9.52-.55-.6-1.06-1.37-1.58-2.33-1.42.25-2.75.42-4.05.46-.11,0-.13-.01-.17-.14-.06-.17-.11-.45-.13-.66,1.44-.04,2.72-.18,3.99-.42-.22-.48-.46-1.02-.69-1.58-1.13.21-2.44.36-3.68.41-.11,0-.15-.01-.18-.14-.03-.11-.08-.39-.13-.64,1.33-.01,2.73-.18,3.75-.34-.11-.32-.21-.63-.36-1.08Z"/><path class="cls-1" d="M355.31,94.95c-1.08.04-2.21.04-3.22-.04-.11,0-.14-.04-.15-.17-.03-.18-.04-.52-.04-.71,1.04.13,2.3.15,3.39.1,0-.69-.01-1.41-.01-2.09-1.36.06-2.56.04-3.71-.07-.08-.01-.11-.04-.13-.14-.03-.21-.06-.42-.06-.73,1.23.15,2.55.17,3.89.11,0-.57-.01-.97-.01-1.48-.01-.41-.04-.64-.13-.92.46.04.84.1,1.11.18.15.06.2.21.13.32-.1.15-.15.36-.17.64-.03.45-.03.76-.04,1.23,1.27-.1,2.42-.28,3.42-.46.11-.03.14,0,.15.1.03.22.04.45.04.62,0,.11-.06.14-.1.14-1.09.18-2.23.32-3.52.41,0,.69,0,1.41.01,2.07,1.08-.07,2.02-.2,3.1-.41.1-.03.14,0,.15.07,0,.17.01.43.01.67,0,.08-.04.13-.14.14-.99.18-1.98.31-3.1.38,0,.87.04,1.6.1,2.44,1.26.35,2.58.94,3.74,1.81.07.06.1.11.06.24-.06.18-.21.45-.35.6-.07.08-.13.1-.21.04-1.13-.88-2.07-1.4-3.19-1.78.01,1.57-.81,2.19-2.51,2.19s-2.48-.63-2.48-1.67c0-.91.95-1.71,2.58-1.71.56,0,1.06.04,1.47.11-.04-.8-.07-1.41-.08-2.23ZM353.92,97.83c-1.18,0-1.76.38-1.76.88,0,.59.55.87,1.57.87.64,0,1.18-.14,1.43-.43.17-.21.29-.56.25-1.13-.49-.11-.98-.18-1.49-.18Z"/><path class="cls-1" d="M375.11,91.64c0,.13-.04.14-.18.14-1.5-.04-2.87-.06-4.45,0,0,.88,0,1.85.01,2.79.11.43.17.94.17,1.47,0,1.76-.76,3.26-2.73,4.33-.14.08-.25.13-.32.13-.08,0-.17-.04-.25-.11-.15-.14-.41-.31-.64-.39,2-.83,2.93-2.12,3.05-3.53-.31.53-.91.8-1.54.8-.97,0-1.85-.64-1.85-1.98,0-1.19.88-1.95,1.92-1.95.53,0,1.02.15,1.32.48-.01-.69-.01-1.32-.03-1.98-2,.11-3.89.25-5.22.42-.34.04-.5.14-.62.14-.08,0-.14-.04-.17-.14-.08-.18-.15-.52-.22-.9.48.03.94-.01,1.76-.08,1.13-.08,2.58-.18,4.44-.29-.01-.57-.01-.85-.03-1.3-.01-.35-.04-.57-.14-.94.42.03.83.1,1.06.15.15.04.25.11.25.21,0,.08-.04.15-.1.25-.06.1-.08.2-.1.38-.03.31-.03.57-.03,1.19,1.55-.04,2.93-.04,4.48-.04.13,0,.15.01.15.15v.6ZM367.2,95.25c0,.77.5,1.2,1.13,1.2.78,0,1.27-.6,1.27-1.23,0-.7-.52-1.19-1.25-1.19-.62,0-1.16.46-1.16,1.22Z"/><path class="cls-1" d="M379.89,99.19c0,1.08-.9,1.95-1.97,1.95s-1.98-.87-1.98-1.95.9-1.95,1.98-1.95,1.97.87,1.97,1.95ZM376.67,99.19c0,.69.56,1.25,1.25,1.25s1.25-.56,1.25-1.25-.55-1.25-1.25-1.25-1.25.56-1.25,1.25Z"/><path class="cls-1" d="M53.84,112.18c-2.35,2-3.11,3.96-3.11,6.42s.76,4.41,3.11,6.42l-.35.41c-2.65-2.03-3.67-4.09-3.67-6.82s1.02-4.79,3.67-6.82l.35.41Z"/><path class="cls-1" d="M68.29,124.09c0,.1-.01.11-.11.11-.08,0-.5-.03-1.82-.03h-8.39c-1.32,0-1.75.03-1.82.03-.1,0-.11-.01-.11-.11v-.67c0-.08.01-.1.11-.1.07,0,.5.03,1.82.03h3.64v-3.5h-1.96c-1.43,0-1.91.03-1.98.03-.1,0-.11-.01-.11-.11v-.66c0-.08.01-.1.11-.1.07,0,.55.03,1.98.03h1.96v-3.01h-2.77c-1.4,0-1.86.03-1.95.03-.1,0-.11-.01-.11-.11v-.66c0-.1.01-.11.11-.11.08,0,.55.03,1.95.03h6.51c1.41,0,1.86-.03,1.95-.03.1,0,.11.01.11.11v.66c0,.1-.01.11-.11.11-.08,0-.53-.03-1.95-.03h-2.84v3.01h2.13c1.43,0,1.91-.03,1.98-.03.1,0,.11.01.11.1v.66c0,.1-.01.11-.11.11-.07,0-.55-.03-1.98-.03h-2.13v3.5h3.85c1.32,0,1.74-.03,1.82-.03.1,0,.11.01.11.1v.67ZM60.8,112.26c.08-.1.11-.1.2-.07.97.45,1.88.97,2.77,1.67.07.06.07.1-.03.22l-.39.45c-.11.13-.14.14-.24.06-.85-.77-1.68-1.26-2.68-1.72-.1-.06-.1-.08.01-.22l.35-.38Z"/><path class="cls-1" d="M73.56,113.9c.14.08.2.14.2.22s-.03.14-.1.24c-.13.18-.21.42-.28.74-.39,1.65-.66,3.5-.66,4.83,0,1.02.06,1.71.21,2.41.34-.78.63-1.39,1.04-2.37.1.22.22.39.34.56.04.04.07.1.07.14,0,.08-.03.14-.07.22-.31.71-.6,1.4-.9,2.23-.04.08-.06.21-.06.35,0,.13.03.21.03.31,0,.06-.03.11-.1.13-.2.07-.43.11-.63.14-.07,0-.13-.06-.15-.14-.39-.94-.63-2.69-.63-4.06,0-1.5.25-3.14.57-4.78.13-.67.2-1.08.2-1.55.36.11.73.27.92.38ZM76.46,120.57c.07-.01.1.03.1.14.04,1.06.9,1.54,2.55,1.54.99,0,1.9-.08,2.76-.2.11-.01.14,0,.15.14.01.17.04.46.04.66,0,.13,0,.14-.18.17-.84.1-1.62.15-2.51.15-1.57,0-2.46-.22-3.08-.88-.41-.41-.58-.97-.59-1.67l.76-.06ZM76.21,115.36c0-.13.03-.17.17-.2.88-.14,2.23-.25,2.97-.25.81,0,1.61.03,1.99.07.18.01.21.03.21.14,0,.22,0,.45-.01.66,0,.11-.03.14-.15.13-.55-.06-1.46-.07-2.25-.07s-1.81.1-2.93.29c0-.38,0-.6.01-.77Z"/><path class="cls-1" d="M85.2,121.79c.06-.06.11-.08.15-.08s.08.03.15.08c1.02.64,1.88,1.43,2.69,2.52.06.08.07.13.07.17,0,.06-.01.1-.1.17l-.5.42c-.07.06-.11.08-.14.08-.06,0-.1-.01-.15-.11-.73-1.05-1.62-1.98-2.58-2.62-.07-.04-.1-.07-.1-.1,0-.04.01-.07.07-.14l.43-.39Z"/><path class="cls-1" d="M111.87,119.83c0,.1-.01.11-.11.11-.08,0-.52-.03-1.83-.03h-3.8v3.38c0,.99.03,1.41.03,1.48,0,.1-.01.11-.11.11h-.74c-.1,0-.11-.01-.11-.11,0-.08.03-.49.03-1.48v-3.38h-3.68c-1.3,0-1.75.03-1.82.03-.1,0-.11-.01-.11-.11v-.66c0-.1.01-.11.11-.11.07,0,.52.03,1.82.03h3.68v-5.13h-2.9c-1.4,0-1.86.03-1.93.03-.1,0-.11-.01-.11-.11v-.64c0-.1.01-.11.11-.11.07,0,.53.03,1.93.03h6.93c1.39,0,1.85-.03,1.92-.03.1,0,.11.01.11.11v.64c0,.1-.01.11-.11.11-.07,0-.53-.03-1.92-.03h-3.12v5.13h3.8c1.32,0,1.75-.03,1.83-.03.1,0,.11.01.11.11v.66ZM101.73,114.76c.13-.07.14-.06.2.03.66.94,1.22,1.96,1.64,3.1.03.08.03.11-.11.17l-.48.2c-.2.08-.21.08-.25-.04-.39-1.09-.83-2-1.51-3.04-.07-.08-.04-.11.13-.2l.39-.21ZM110.26,115.29c-.08.07-.15.17-.25.38-.42.87-.9,1.68-1.53,2.55-.1.13-.14.18-.2.18-.04,0-.1-.04-.21-.11-.17-.11-.31-.18-.5-.24.7-.9,1.26-1.82,1.65-2.73.08-.18.17-.45.21-.7.28.1.62.24.83.35.08.04.13.08.13.15,0,.06-.04.1-.13.17Z"/><path class="cls-1" d="M116.89,121.05c.62-.27,1.2-.56,1.78-.9-.03.18-.04.38-.03.55q.01.29-.24.42c-.9.5-2.12,1.02-3.08,1.4-.31.13-.45.18-.49.22-.07.07-.14.11-.21.11-.06,0-.11-.04-.15-.14-.11-.22-.22-.5-.31-.8.42-.06.87-.15,1.36-.34l.55-.2v-4.44h-.38c-.92,0-1.19.03-1.27.03-.1,0-.11-.01-.11-.11v-.59c0-.11.01-.13.11-.13.08,0,.35.03,1.27.03h.38v-1.67c0-.99-.01-1.37-.1-1.93.36.01.63.04.91.08.1.01.15.04.15.13,0,.07-.03.14-.06.24-.04.17-.08.52-.08,1.46v1.7h.17c.92,0,1.19-.03,1.26-.03.1,0,.11.01.11.13v.59c0,.1-.01.11-.11.11-.07,0-.34-.03-1.26-.03h-.17v4.1ZM124.43,114.81c1.19,0,1.58-.03,1.67-.03.1,0,.13.03.13.13-.03.35-.03.71-.03,1.06-.03,2.96-.14,4.93-.43,6.7-.24,1.36-.7,2.1-1.76,2.11-.38,0-.88-.04-1.32-.08q-.27-.03-.32-.32c-.04-.22-.11-.45-.22-.64.84.15,1.3.2,1.83.2.59,0,.81-.67.97-1.57.29-1.69.39-3.73.39-6.77h-4.96c-.38.73-.84,1.47-1.39,2.13-.08.1-.14.14-.18.14-.06,0-.1-.04-.2-.15-.13-.15-.28-.28-.43-.36,1.12-1.22,1.82-2.69,2.23-3.81.15-.45.24-.85.28-1.25.32.07.62.15.84.24.13.04.2.1.2.17,0,.08-.06.15-.14.24s-.21.35-.34.7c-.14.36-.29.77-.49,1.18h3.68ZM124.09,120.39q.01.28-.24.42c-.92.55-2.27,1.18-3.39,1.6-.29.11-.45.21-.49.25-.07.07-.14.11-.21.11-.06,0-.11-.04-.15-.14-.11-.22-.24-.52-.31-.81.42-.06.84-.15,1.36-.36,1.15-.46,2.41-1.04,3.45-1.65-.03.18-.03.41-.01.59ZM123.73,118.31c0,.1-.01.11-.11.11-.07,0-.32-.03-1.19-.03h-1.11c-.85,0-1.09.03-1.18.03-.1,0-.11-.01-.11-.11v-.6c0-.1.01-.11.11-.11.08,0,.32.03,1.18.03h1.11c.87,0,1.12-.03,1.19-.03.1,0,.11.01.11.11v.6Z"/><path class="cls-1" d="M137.28,115.28c-.25-.7-.74-.99-1.34-.99-1.46,0-2.2,1.44-2.26,4.27.59-.97,1.42-1.43,2.3-1.43,1.53,0,2.62,1.25,2.62,3.22,0,2.17-1.23,3.5-2.93,3.5-1.81,0-3.11-1.5-3.11-4.79,0-4.01,1.32-5.72,3.4-5.72,1.18,0,1.99.55,2.42,1.44l-1.11.49ZM135.67,122.91c1.08,0,1.75-.88,1.75-2.54,0-1.46-.63-2.3-1.67-2.3-.77,0-1.47.48-2.04,1.53,0,2.3.81,3.31,1.96,3.31Z"/><path class="cls-1" d="M147,118.61c-.52.77-1.05,1.46-1.58,1.99-.1.1-.18.11-.32.03-.15-.1-.38-.2-.64-.25,1.23-1.22,1.85-2.16,2.41-3.31.29-.59.45-1.06.53-1.64.34.11.77.29.97.41.15.1.13.25,0,.35-.11.08-.25.31-.38.57-.15.31-.34.69-.53,1.05h3.77c.7,0,1.3-.03,1.98-.06.13,0,.17.04.17.17v.59c0,.11-.06.13-.18.13-.66-.03-1.27-.03-1.91-.03h-.81c-.08,1.41-.28,2.45-.79,3.42-.5.94-1.25,1.77-2.17,2.37-.11.08-.22.1-.35.01-.21-.13-.45-.25-.74-.29,1.13-.67,1.96-1.51,2.44-2.42.48-.9.66-1.81.7-3.08h-2.55Z"/><path class="cls-1" d="M165.63,121.21c0,.77.03,1.55.03,2.23,0,.49-.13.78-.39,1.04-.34.29-.85.29-2,.29q-.28,0-.35-.28c-.06-.24-.14-.48-.25-.66.49.04.85.07,1.47.07.43,0,.63-.17.63-.64v-3.07h-5.48c-.28,2.07-.91,3.24-2.17,4.54-.08.1-.13.15-.18.15s-.11-.06-.22-.14c-.2-.15-.42-.27-.6-.32,2.04-1.89,2.49-3.45,2.49-7.72v-1.71c0-1.2-.03-1.75-.03-1.83,0-.1.01-.11.11-.11.08,0,.53.03,1.83.03h3.19c1.3,0,1.75-.03,1.83-.03.1,0,.11.01.11.11,0,.08-.03.63-.03,1.83v6.22ZM164.76,117h-5.29c-.01.92-.04,1.71-.1,2.41h5.39v-2.41ZM164.76,113.87h-5.29v2.34h5.29v-2.34Z"/><path class="cls-1" d="M172.36,121.05c1.2-.46,2.49-1.04,3.81-1.72-.03.18-.03.39,0,.59.04.29.03.28-.22.42-1.64.85-3.22,1.55-5.13,2.24-.29.11-.42.17-.49.24-.06.06-.11.08-.17.08s-.11-.04-.15-.14c-.11-.25-.22-.57-.31-.87.42-.08.79-.18,1.13-.29.22-.07.45-.15.67-.24l-.07-6.15c-.01-.95-.01-1.47-.11-1.92.34.01.69.04.95.08.11.01.18.07.18.13,0,.1-.04.17-.08.27-.07.15-.1.52-.08,1.43l.07,5.86ZM181.8,124.35c-.07.11-.11.17-.15.17s-.1-.04-.18-.13c-1.06-1.01-1.92-2.03-2.87-3.43-1.02,1.48-2.24,2.55-4.88,3.78-.1.04-.15.07-.21.07-.07,0-.11-.06-.2-.21-.13-.21-.25-.34-.46-.49,2.83-1.16,4.16-2.28,5.18-3.82.88-1.32,1.43-3.11,1.61-5.21.07-.85.08-1.44.01-1.93.38.03.71.07.97.11.11.03.18.07.18.15,0,.11-.06.18-.1.29-.06.14-.13.67-.18,1.34-.18,2-.7,3.81-1.44,5.13,1.02,1.61,2.06,2.69,3.21,3.59-.17.15-.35.36-.49.59ZM174.87,114.35c.11-.08.15-.08.22-.01.84.77,1.47,1.55,2.16,2.58.06.08.03.13-.1.21l-.39.28c-.08.06-.14.08-.18.08s-.06-.03-.1-.08c-.67-1.06-1.22-1.78-2.07-2.59-.07-.07-.06-.1.08-.2l.38-.27Z"/><path class="cls-1" d="M196,121.12c0,1.12.03,1.79.03,2.24,0,.42-.1.71-.36.92-.22.18-.62.27-1.79.27-.27,0-.28,0-.35-.28-.06-.25-.15-.49-.28-.66.45.04,1,.07,1.27.07.49-.01.63-.13.63-.53v-7.45h-4.2c.74,2.42,1.95,3.78,3.99,4.93-.2.14-.36.29-.49.49-.08.13-.13.18-.18.18s-.11-.04-.21-.11c-1.62-1.08-2.73-2.37-3.42-4.37-.07.27-.15.53-.25.76-.55,1.36-1.32,2.54-3.17,3.68-.1.07-.15.11-.2.11-.06,0-.1-.06-.18-.17-.15-.21-.29-.35-.48-.48,1.89-1.01,2.72-2.16,3.24-3.4.2-.46.32-1.02.41-1.62h-3.81v6.79c0,1.4.03,1.99.03,2.06,0,.1-.01.11-.11.11h-.69c-.1,0-.11-.01-.11-.11,0-.07.03-.64.03-2.13v-5.27c0-1.48-.03-2.09-.03-2.16,0-.1.01-.11.11-.11.08,0,.56.03,1.96.03h2.7c.03-.43.04-.87.04-1.3,0-.46-.01-.98-.08-1.39.31.01.63.04.94.08.11.01.15.07.15.14,0,.08-.04.17-.07.27-.04.14-.07.42-.08,1.05,0,.34-.01.74-.06,1.15h3.03c1.4,0,1.89-.03,1.96-.03.1,0,.11.01.11.11,0,.07-.03.73-.03,2.21v3.91Z"/><path class="cls-1" d="M206.68,115.25c-2.1.34-3.92.63-5.69.99-.5.1-.67.15-.84.24-.1.04-.18.1-.27.1s-.15-.06-.2-.13c-.14-.28-.27-.62-.39-.99.5,0,.87-.04,1.74-.17,2.09-.34,4.93-.76,8.68-1.22.14-.01.21.03.24.11.04.18.08.52.08.7,0,.13-.04.15-.18.17-.76.04-1.32.13-2.05.42-2.04.81-3.61,2.54-3.61,4.41,0,2.33,2.03,3.01,4.08,3.18.18.01.22.04.22.15,0,.15-.04.48-.08.67-.03.15-.07.21-.22.2-2.37-.21-4.92-1.22-4.92-4.05,0-1.98,1.22-3.6,3.42-4.76v-.03ZM208.39,117.22s.08-.03.14.01c.56.39,1.18,1.08,1.58,1.7.04.06.03.11-.03.15l-.41.34c-.07.06-.14.04-.18-.03-.41-.69-1-1.34-1.62-1.79l.52-.38ZM209.55,116.31c.06-.04.1-.06.15-.01.56.43,1.19,1.05,1.6,1.64.04.07.03.11-.04.17l-.38.34c-.06.06-.11.06-.17-.03-.35-.57-.95-1.26-1.61-1.75l.45-.35Z"/><path class="cls-1" d="M220.02,115.08c-.25,2.37-.97,4.69-1.85,6.12-.6,1.02-1.23,1.44-2.06,1.44-1.05,0-2.04-1.15-2.04-3.18,0-1.29.59-2.66,1.62-3.63,1.04-.97,2.44-1.55,4.2-1.55,3.14,0,5,1.83,5,4.51,0,2.28-1.42,4.12-4.46,4.89-.17.04-.27.01-.36-.15-.08-.14-.27-.35-.55-.52,2.77-.55,4.37-2.05,4.37-4.38,0-2.07-1.61-3.54-3.61-3.54h-.27ZM216.31,116.42c-.94.92-1.34,2.07-1.34,3.03,0,1.53.63,2.19,1.13,2.19.48,0,.9-.31,1.3-1.02.71-1.26,1.46-3.43,1.64-5.48-1.09.14-2.06.62-2.73,1.29Z"/><path class="cls-1" d="M230.14,120c.08.04.1.1.04.18-.18.29-.38.7-.38,1.09,0,1.15,1.29,1.71,3.59,1.71,1.64,0,2.97-.15,4.02-.41.13-.03.17-.01.2.1.04.15.1.5.13.73.01.11-.04.15-.18.18-1.09.22-2.33.36-4.24.36-2.73,0-4.36-.83-4.36-2.63,0-.6.22-1.13.57-1.65.2.1.42.22.62.34ZM233.42,114.76c1.01,0,2.13-.04,3.1-.13.13-.01.18.03.2.13.03.18.04.38.04.63,0,.15-.06.2-.2.21-1.18.17-2.47.81-3.63,1.6-.13.1-.27.11-.39.03-.17-.13-.35-.22-.57-.28.88-.6,1.68-1.05,2.41-1.4-.46.04-1.08.06-1.51.06-.91,0-1.99-.07-2.84-.25-.08-.01-.13-.06-.13-.2,0-.18.01-.48.03-.71.94.21,2.16.32,3.5.32ZM237.02,112.96c.06-.04.1-.04.15,0,.56.39,1.18,1.08,1.58,1.69.04.06.03.11-.03.15l-.41.34c-.07.06-.14.04-.18-.03-.41-.69-1-1.34-1.62-1.79l.5-.36ZM238.2,112.04c.06-.04.1-.06.15-.01.56.43,1.19,1.05,1.6,1.64.04.07.03.11-.04.17l-.38.34c-.06.06-.11.06-.17-.03-.35-.57-.95-1.26-1.61-1.75l.45-.35Z"/><path class="cls-1" d="M249.86,115.51c.11,1.93.41,3.46.9,4.82.45-.69.81-1.39,1.09-2.06.18-.43.32-.84.38-1.26.31.08.6.2.78.29.11.06.17.11.17.18,0,.1-.1.18-.17.27-.1.11-.18.34-.34.67-.42.98-.94,1.92-1.55,2.8.67,1.53,1.54,2.44,2.06,2.44.38,0,.62-.53.67-2,.13.14.32.27.49.36.25.14.27.15.24.42-.15,1.51-.6,2.19-1.36,2.19-.9,0-1.83-.99-2.66-2.65-.83,1.01-1.82,1.89-3,2.59-.1.06-.15.08-.21.08-.07,0-.13-.06-.24-.2-.13-.15-.28-.27-.42-.36,1.39-.73,2.56-1.79,3.47-2.97-.62-1.5-.99-3.26-1.15-5.62h-4.89v2.28h2.16c.88,0,1.13-.03,1.21-.03.1,0,.13.03.13.13-.03.49-.06.97-.08,1.46-.04.91-.08,1.57-.24,2.27-.17.8-.64,1.19-1.42,1.19-.31,0-.53,0-.88-.04-.22-.03-.22-.04-.28-.34-.06-.22-.11-.43-.22-.59.53.08.9.13,1.29.13.35,0,.62-.1.74-.71.13-.52.17-1.46.21-2.7h-2.62c-.01,1.05-.07,1.81-.2,2.63-.18,1.06-.43,2.26-1.19,3.47-.07.11-.11.18-.15.18s-.1-.06-.18-.15c-.15-.17-.35-.31-.5-.39.74-1.06,1.05-2.3,1.21-3.43.13-.94.18-1.81.18-3.25,0-1.93-.03-2.72-.03-2.79,0-.11.01-.13.13-.13.07,0,.56.03,1.96.03h3.63c0-.21-.01-.43-.01-.67-.03-.9-.03-1.16-.11-1.71.32.01.62.04.92.08.11.01.18.08.18.14,0,.11-.03.17-.06.22-.06.14-.1.43-.08,1.22,0,.25.01.49.01.71h2.35c1.4,0,1.86-.03,1.95-.03.1,0,.11.01.11.13v.6c0,.1-.01.11-.11.11-.08,0-.55-.03-1.95-.03h-2.31ZM251.54,112.61c.11-.08.14-.1.22-.04.46.29.95.71,1.39,1.2.07.07.07.11-.06.22l-.29.24c-.14.13-.2.14-.27.04-.41-.55-.88-.94-1.3-1.23-.1-.07-.11-.11.03-.22l.28-.21Z"/><path class="cls-1" d="M260.94,116.87c.15-.07.2-.06.25.03.46.81.85,1.72,1.12,2.52.04.13.03.17-.15.22l-.32.1c-.17.06-.2.04-.22-.06-.08-.27-.17-.55-.27-.81l-1.34.14v3.75c0,1.53.03,1.98.03,2.05,0,.08-.01.1-.11.1h-.63c-.1,0-.11-.01-.11-.1s.03-.52.03-2.05v-3.68l-1.54.11c-.32.03-.43.06-.53.11-.06.03-.1.06-.15.06-.07,0-.11-.07-.14-.18-.06-.21-.1-.49-.14-.77.29.03.63.04.88.04h.17c.36-.48.71-.97,1.05-1.46-.66-.78-1.3-1.5-2.06-2.16-.1-.08-.08-.11.04-.25l.24-.29c.11-.13.14-.13.22-.04l.53.52c.35-.55.63-1.02.92-1.58.25-.48.32-.73.36-.95.25.1.56.24.78.35.11.06.15.13.15.18s-.06.11-.13.15c-.08.06-.15.14-.24.29-.5.84-.87,1.41-1.34,2.09.32.32.63.66.94,1.02.32-.52.63-1.02.91-1.5.34-.6.48-.9.56-1.19.27.11.55.25.77.39.1.06.13.1.13.17s-.06.13-.14.18c-.14.1-.25.25-.49.62-.77,1.23-1.57,2.4-2.34,3.42.77-.04,1.64-.1,2.47-.17-.17-.38-.35-.74-.55-1.08-.06-.1-.04-.13.14-.2l.25-.1ZM258.31,120.56c-.04.07-.07.17-.1.41-.13.94-.34,1.83-.69,2.73-.04.14-.07.2-.13.2-.04,0-.11-.04-.21-.11-.13-.1-.35-.18-.48-.21.43-.99.6-1.71.76-2.76.04-.27.04-.45.03-.67.25.03.5.07.69.11.14.03.2.08.2.14,0,.07-.04.11-.07.17ZM261.25,120.14c.15-.04.18-.03.24.08.29.7.64,1.85.8,2.65.01.11,0,.15-.17.21l-.34.1c-.2.06-.21.04-.24-.07-.15-.84-.46-2-.73-2.69-.04-.11-.03-.15.14-.2l.29-.08ZM266.99,114.74c1.09,0,1.43-.03,1.51-.03.1,0,.13.03.13.13-.03.35-.03.71-.03,1.06-.03,2.96-.15,5.03-.45,6.79-.24,1.37-.66,2.1-1.75,2.12-.38,0-.85-.01-1.3-.07-.28-.03-.29-.04-.35-.34-.04-.22-.13-.45-.22-.63.84.14,1.3.2,1.82.2.6,0,.83-.67.98-1.58.29-1.71.39-3.82.39-6.88h-4.09c-.31.6-.7,1.22-1.18,1.82-.08.11-.14.15-.2.15s-.11-.04-.21-.14c-.14-.14-.29-.27-.45-.34,1.12-1.26,1.68-2.51,2.03-3.57.14-.43.24-.84.27-1.23.36.07.67.15.87.22.13.04.2.1.2.17,0,.08-.01.13-.13.25-.08.08-.24.32-.35.67-.13.39-.29.8-.48,1.22h2.98ZM263.71,117.74c.13-.08.15-.07.21,0,.73.78,1.34,1.74,1.81,2.66.06.11.04.14-.11.22l-.39.22c-.18.11-.21.11-.27,0-.46-1.05-1.01-1.85-1.7-2.68-.07-.08-.07-.11.1-.22l.35-.21Z"/><path class="cls-1" d="M278.75,118.59c0,.63-.52,1.16-1.16,1.16s-1.16-.53-1.16-1.16.53-1.16,1.16-1.16,1.16.52,1.16,1.16Z"/><path class="cls-1" d="M292.49,119.88c-.24,2.59-.57,3.6-.84,4.03-.28.48-.84.74-1.54.74-.42,0-.8-.01-1.13-.04-.27-.03-.28-.04-.32-.32-.04-.25-.1-.45-.2-.64.55.08.94.13,1.48.14.48.01.76-.11.9-.29.21-.34.59-1.19.78-3.81h-3.94l-.27.94c-.04.14-.07.15-.48.08-.42-.07-.43-.1-.38-.24.38-1.18.64-2.27.79-3.29.04-.31.08-.71.08-.99,0-.1.04-.14.14-.14.08,0,.42.03,1.3.03h2.48v-2.3h-2.79c-1.11,0-1.46.03-1.54.03-.1,0-.11-.01-.11-.11v-.59c0-.1.01-.11.11-.11.08,0,.43.03,1.54.03h2.06c1.04,0,1.43-.03,1.51-.03s.1.01.1.11c0,.08-.03.41-.03,1.2v1.22c0,.81.03,1.12.03,1.19,0,.1-.01.11-.1.11s-.48-.03-1.51-.03h-2.37c-.11.77-.24,1.46-.41,2.16h3.07c1.09,0,1.44-.03,1.53-.03.1,0,.13.03.13.13l-.08.83ZM295.95,114.64c0-1.4,0-1.79-.14-2.34.38.01.78.04,1.05.08.1.01.17.07.17.11,0,.08-.03.14-.07.25-.06.17-.13.52-.13,1.83v7.84c0,1.58.03,2.28.03,2.35,0,.1-.01.11-.11.11h-.71c-.1,0-.11-.01-.11-.11,0-.07.03-.76.03-2.34v-7.8Z"/><path class="cls-1" d="M301.12,116.16c.08-.11.11-.11.18-.07.66.38,1.32.88,1.92,1.5.08.08.07.11-.04.24l-.29.36c-.11.14-.15.13-.22.06-.57-.63-1.23-1.16-1.83-1.54-.08-.06-.08-.08.01-.21l.28-.34ZM302.03,124c-.13.28-.21.5-.22.63-.01.1-.06.15-.13.15-.04,0-.1-.01-.2-.07-.2-.13-.41-.28-.63-.46.22-.29.39-.6.56-.95.46-.95.87-2.02,1.23-3.4.11.13.27.27.42.38q.22.17.15.43c-.28,1.11-.77,2.34-1.19,3.29ZM301.71,112.68c.1-.11.13-.13.22-.07.62.41,1.22.94,1.74,1.47.07.07.08.1-.04.24l-.28.32c-.13.14-.15.15-.24.07-.53-.6-1.12-1.11-1.71-1.5-.08-.06-.08-.08.03-.21l.28-.32ZM313.05,114.31c0,.1-.01.11-.11.11-.08,0-.56-.03-1.95-.03h-5.55v1.6c0,1.71-.06,3.26-.24,4.61-.2,1.43-.62,2.76-1.39,3.98-.07.11-.11.17-.17.17-.04,0-.08-.04-.18-.14-.17-.17-.34-.27-.52-.35.78-1.05,1.29-2.4,1.48-3.96.17-1.3.21-2.77.21-4.31s-.03-2.17-.03-2.24c0-.1.01-.11.11-.11.08,0,.57.03,1.96.03h1.65v-.31c0-.41-.01-.78-.1-1.12.34.01.63.04.91.08.1.01.17.07.17.13,0,.08-.04.17-.08.25-.06.11-.07.32-.07.66v.31h1.82c1.39,0,1.86-.03,1.95-.03.1,0,.11.01.11.11v.57ZM310.98,119.69c.13,0,.2-.01.25-.04.06-.03.1-.04.14-.04.08,0,.15.06.39.29.18.18.24.28.24.36,0,.07-.04.13-.11.17-.1.06-.15.13-.31.35-.55.78-1.11,1.41-1.74,1.95.97.57,2.14.97,3.6,1.29-.13.13-.24.31-.34.53-.07.15-.11.21-.21.21-.04,0-.1-.01-.2-.03-1.44-.39-2.58-.84-3.53-1.5-.97.66-2.1,1.15-3.52,1.57-.1.03-.18.06-.22.06-.08,0-.1-.06-.18-.21-.1-.2-.25-.39-.39-.49,1.46-.36,2.67-.81,3.67-1.43-.67-.6-1.26-1.36-1.78-2.34-.62.01-.87.03-.91.03-.11,0-.13-.01-.13-.11v-.53c0-.1.01-.11.13-.11.07,0,.46.03,1.67.03h3.47ZM313.04,116.7c0,.11-.01.13-.11.13-.08,0-.49-.03-1.43-.03h-.45v.6c0,.87.03,1.25.03,1.33,0,.1-.01.11-.11.11-.08,0-.34-.03-1.21-.03h-1.09c-.87,0-1.12.03-1.2.03-.1,0-.11-.01-.11-.11,0-.08.03-.46.03-1.33v-.6c-1.04,0-1.42.03-1.5.03-.1,0-.11-.01-.11-.13v-.49c0-.11.01-.13.11-.13.08,0,.46.03,1.5.03,0-.59-.01-1.02-.08-1.34.31.01.62.04.83.07.1.01.15.07.15.11,0,.1-.04.17-.07.24-.06.13-.07.43-.07.92h2.16c0-.59-.01-1.02-.08-1.34.31.01.6.04.81.07.11.01.17.07.17.11,0,.1-.06.18-.08.25-.06.13-.06.35-.06.91h.45c.94,0,1.34-.03,1.43-.03.1,0,.11.01.11.13v.49ZM307.59,120.39c.42.77.94,1.39,1.58,1.89.67-.52,1.23-1.13,1.71-1.89h-3.29ZM310.29,116.8h-2.16v1.34h2.16v-1.34Z"/><path class="cls-1" d="M318.43,113.26c.15.04.22.11.22.21,0,.11-.06.22-.11.36-.06.17-.11.6-.17,1.44-.13,2.11-.21,4.03-.21,5.97,0,1.57.43,2.05,1.65,2.05,1.78,0,3.6-1.08,5.04-2.68.04.32.15.6.24.81.03.08.06.14.06.2,0,.08-.04.15-.17.27-1.47,1.41-3.33,2.35-5.34,2.35-1.58,0-2.44-.76-2.44-2.82s.13-4.27.2-6.25c.03-.87.04-1.47-.11-2.12.42.04.85.1,1.13.2Z"/><path class="cls-1" d="M327.66,111.77c2.65,2.03,3.67,4.09,3.67,6.82s-1.02,4.79-3.67,6.82l-.35-.41c2.35-2,3.11-3.96,3.11-6.42s-.76-4.41-3.11-6.42l.35-.41Z"/></svg>